G04*
G04 #@! TF.GenerationSoftware,Altium Limited,Altium Designer,21.3.2 (30)*
G04*
G04 Layer_Color=16711935*
%FSLAX25Y25*%
%MOIN*%
G70*
G04*
G04 #@! TF.SameCoordinates,06CA3BE7-F167-48F9-AA53-4FDEF555C1C3*
G04*
G04*
G04 #@! TF.FilePolarity,Positive*
G04*
G01*
G75*
%ADD142C,0.01968*%
%ADD143R,0.70866X0.24803*%
%ADD144R,0.31496X0.13583*%
G36*
X519882Y13583D02*
X521850Y11614D01*
X564370D01*
X569882Y21161D01*
Y31299D01*
X519882D01*
Y13583D01*
D02*
G37*
D142*
X219291Y-198D02*
X219433Y-139D01*
X221399Y1827D02*
X221458Y1969D01*
X230567Y-139D02*
X230709Y-198D01*
X228542Y1969D02*
X228601Y1827D01*
X228542Y29331D02*
X228398Y30329D01*
X227980Y31246D01*
X227319Y32007D01*
X226471Y32552D01*
X225504Y32836D01*
X224496D01*
X223529Y32552D01*
X222681Y32007D01*
X222020Y31246D01*
X221602Y30329D01*
X221458Y29331D01*
X507087Y-198D02*
X507227Y-140D01*
X509194Y1827D02*
X509254Y1969D01*
X514468Y35156D02*
X513451Y35056D01*
X512473Y34759D01*
X511571Y34277D01*
X510781Y33628D01*
X510132Y32838D01*
X509650Y31937D01*
X509354Y30958D01*
X509254Y29941D01*
X509254Y29943D01*
X519684Y29941D02*
X519583Y30958D01*
X519287Y31937D01*
X518805Y32838D01*
X518156Y33628D01*
X517366Y34277D01*
X516464Y34759D01*
X515486Y35056D01*
X514468Y35156D01*
X519684Y13583D02*
X519743Y13441D01*
X521709Y11475D02*
X521850Y11416D01*
X178992Y-139D02*
X179134Y-198D01*
X564370Y11416D02*
X564542Y11515D01*
X570054Y21062D02*
X570080Y21161D01*
Y31299D02*
X569882Y31498D01*
X547639Y38189D02*
X547707Y37237D01*
X547910Y36304D01*
X548244Y35409D01*
X548701Y34571D01*
X549274Y33807D01*
X549949Y33132D01*
X550713Y32560D01*
X551551Y32102D01*
X552446Y31769D01*
X553378Y31566D01*
X554331Y31498D01*
Y49999D02*
X553378Y49930D01*
X552446Y49727D01*
X551551Y49394D01*
X550713Y48936D01*
X549949Y48364D01*
X549274Y47689D01*
X548701Y46925D01*
X548244Y46087D01*
X547910Y45192D01*
X547707Y44259D01*
X547639Y43307D01*
X-198Y17717D02*
X0Y17518D01*
X59055D02*
X59254Y17717D01*
X131101D02*
X131299Y17518D01*
X162795D02*
X162994Y17717D01*
Y43012D02*
X162994Y43014D01*
Y43012D01*
X176967D02*
X176896Y44006D01*
X176684Y44980D01*
X176336Y45914D01*
X175858Y46789D01*
X175261Y47587D01*
X174556Y48292D01*
X173758Y48889D01*
X172883Y49367D01*
X171950Y49715D01*
X170975Y49927D01*
X169981Y49999D01*
X168987Y49927D01*
X168013Y49716D01*
X167079Y49368D01*
X166204Y48890D01*
X165406Y48293D01*
X164701Y47588D01*
X164104Y46790D01*
X163626Y45916D01*
X163277Y44982D01*
X163065Y44008D01*
X162994Y43014D01*
X176967Y1969D02*
X177026Y1827D01*
X554331Y49999D02*
X767717Y50000D01*
X767715Y334646D02*
X767717Y50000D01*
X349213Y271652D02*
X412204Y334643D01*
X-197Y271652D02*
X349213Y271652D01*
X412204Y334643D02*
X767717Y334646D01*
X221458Y1969D02*
Y29331D01*
X179134Y-198D02*
X219291D01*
X219432Y-140D02*
X219433Y-139D01*
X219432Y-140D02*
X221400Y1828D01*
X221399Y1827D02*
X221400Y1828D01*
X230567Y-139D02*
X230568Y-140D01*
X228600Y1828D02*
X228601Y1827D01*
X228600Y1828D02*
X230568Y-140D01*
X228542Y1969D02*
Y29331D01*
X230709Y-198D02*
X507087D01*
X507227Y-140D02*
X509195Y1828D01*
X509194Y1827D02*
X509195Y1828D01*
X509254Y1969D02*
Y29941D01*
X509254Y29943D02*
X509254Y29941D01*
X514468Y35156D02*
X514468D01*
X519684Y13583D02*
Y29941D01*
X519742Y13442D02*
X519743Y13441D01*
X519742Y13442D02*
X521710Y11474D01*
X521850Y11416D02*
X564370D01*
X521709Y11475D02*
X521710Y11474D01*
X564542Y11515D02*
X570054Y21062D01*
X177026Y1827D02*
X178994Y-140D01*
X178992Y-139D02*
X178994Y-140D01*
X570080Y21161D02*
Y31299D01*
X554331Y31498D02*
X569882D01*
X547639Y38189D02*
Y43307D01*
X-198Y271654D02*
X-198Y17717D01*
X0Y17518D02*
X59055D01*
X59254Y17717D02*
Y49999D01*
X131101D01*
Y17717D02*
Y49999D01*
X131299Y17518D02*
X162795D01*
X162994Y17717D02*
Y43012D01*
X162994Y43014D02*
X162994Y43012D01*
X162994D02*
X162994D01*
X176967D02*
X176967D01*
Y1969D02*
Y43012D01*
D143*
X196850Y258268D02*
D03*
D03*
D144*
X147047Y24508D02*
D03*
M02*
