G04*
G04 #@! TF.GenerationSoftware,Altium Limited,Altium Designer,21.3.2 (30)*
G04*
G04 Layer_Color=8388736*
%FSLAX25Y25*%
%MOIN*%
G70*
G04*
G04 #@! TF.SameCoordinates,06CA3BE7-F167-48F9-AA53-4FDEF555C1C3*
G04*
G04*
G04 #@! TF.FilePolarity,Negative*
G04*
G01*
G75*
%ADD20R,0.05512X0.06102*%
%ADD21R,0.04921X0.03150*%
%ADD22R,0.01772X0.03543*%
%ADD23R,0.03937X0.05315*%
G04:AMPARAMS|DCode=24|XSize=97.4mil|YSize=24.49mil|CornerRadius=12.25mil|HoleSize=0mil|Usage=FLASHONLY|Rotation=0.000|XOffset=0mil|YOffset=0mil|HoleType=Round|Shape=RoundedRectangle|*
%AMROUNDEDRECTD24*
21,1,0.09740,0.00000,0,0,0.0*
21,1,0.07291,0.02449,0,0,0.0*
1,1,0.02449,0.03646,0.00000*
1,1,0.02449,-0.03646,0.00000*
1,1,0.02449,-0.03646,0.00000*
1,1,0.02449,0.03646,0.00000*
%
%ADD24ROUNDEDRECTD24*%
%ADD25R,0.09740X0.02449*%
%ADD26R,0.07874X0.15748*%
%ADD27R,0.08583X0.06378*%
%ADD28R,0.09843X0.15748*%
%ADD29R,0.11417X0.21260*%
G04:AMPARAMS|DCode=30|XSize=39.37mil|YSize=163.39mil|CornerRadius=1.97mil|HoleSize=0mil|Usage=FLASHONLY|Rotation=0.000|XOffset=0mil|YOffset=0mil|HoleType=Round|Shape=RoundedRectangle|*
%AMROUNDEDRECTD30*
21,1,0.03937,0.15945,0,0,0.0*
21,1,0.03543,0.16339,0,0,0.0*
1,1,0.00394,0.01772,-0.07972*
1,1,0.00394,-0.01772,-0.07972*
1,1,0.00394,-0.01772,0.07972*
1,1,0.00394,0.01772,0.07972*
%
%ADD30ROUNDEDRECTD30*%
G04:AMPARAMS|DCode=31|XSize=251.97mil|YSize=322.84mil|CornerRadius=2.52mil|HoleSize=0mil|Usage=FLASHONLY|Rotation=0.000|XOffset=0mil|YOffset=0mil|HoleType=Round|Shape=RoundedRectangle|*
%AMROUNDEDRECTD31*
21,1,0.25197,0.31780,0,0,0.0*
21,1,0.24693,0.32284,0,0,0.0*
1,1,0.00504,0.12347,-0.15890*
1,1,0.00504,-0.12347,-0.15890*
1,1,0.00504,-0.12347,0.15890*
1,1,0.00504,0.12347,0.15890*
%
%ADD31ROUNDEDRECTD31*%
%ADD32R,0.03150X0.04921*%
%ADD33R,0.05709X0.04724*%
%ADD34R,0.05906X0.05512*%
%ADD35R,0.06102X0.05512*%
%ADD36R,0.05315X0.03740*%
%ADD37R,0.05512X0.05906*%
%ADD38R,0.03740X0.05315*%
%ADD39R,0.05315X0.03937*%
%ADD40R,0.02468X0.06530*%
G04:AMPARAMS|DCode=41|XSize=65.3mil|YSize=24.68mil|CornerRadius=12.34mil|HoleSize=0mil|Usage=FLASHONLY|Rotation=90.000|XOffset=0mil|YOffset=0mil|HoleType=Round|Shape=RoundedRectangle|*
%AMROUNDEDRECTD41*
21,1,0.06530,0.00000,0,0,90.0*
21,1,0.04063,0.02468,0,0,90.0*
1,1,0.02468,0.00000,0.02031*
1,1,0.02468,0.00000,-0.02031*
1,1,0.02468,0.00000,-0.02031*
1,1,0.02468,0.00000,0.02031*
%
%ADD41ROUNDEDRECTD41*%
%ADD42R,0.04724X0.05709*%
%ADD43R,0.06102X0.06102*%
%ADD44R,0.04331X0.08661*%
%ADD45R,0.04331X0.05315*%
%ADD46R,0.02126X0.03386*%
G04:AMPARAMS|DCode=47|XSize=59.06mil|YSize=11.81mil|CornerRadius=1.95mil|HoleSize=0mil|Usage=FLASHONLY|Rotation=90.000|XOffset=0mil|YOffset=0mil|HoleType=Round|Shape=RoundedRectangle|*
%AMROUNDEDRECTD47*
21,1,0.05906,0.00791,0,0,90.0*
21,1,0.05516,0.01181,0,0,90.0*
1,1,0.00390,0.00396,0.02758*
1,1,0.00390,0.00396,-0.02758*
1,1,0.00390,-0.00396,-0.02758*
1,1,0.00390,-0.00396,0.02758*
%
%ADD47ROUNDEDRECTD47*%
%ADD48R,0.07378X0.02134*%
G04:AMPARAMS|DCode=49|XSize=73.78mil|YSize=21.34mil|CornerRadius=10.67mil|HoleSize=0mil|Usage=FLASHONLY|Rotation=0.000|XOffset=0mil|YOffset=0mil|HoleType=Round|Shape=RoundedRectangle|*
%AMROUNDEDRECTD49*
21,1,0.07378,0.00000,0,0,0.0*
21,1,0.05244,0.02134,0,0,0.0*
1,1,0.02134,0.02622,0.00000*
1,1,0.02134,-0.02622,0.00000*
1,1,0.02134,-0.02622,0.00000*
1,1,0.02134,0.02622,0.00000*
%
%ADD49ROUNDEDRECTD49*%
%ADD50R,0.09449X0.03150*%
%ADD51R,0.09449X0.02756*%
%ADD52R,0.06299X0.12598*%
%ADD53R,0.12400X0.07700*%
%ADD54R,0.03937X0.05906*%
%ADD55R,0.02756X0.16535*%
%ADD56R,0.02756X0.12598*%
G04:AMPARAMS|DCode=57|XSize=124.02mil|YSize=57.09mil|CornerRadius=2mil|HoleSize=0mil|Usage=FLASHONLY|Rotation=0.000|XOffset=0mil|YOffset=0mil|HoleType=Round|Shape=RoundedRectangle|*
%AMROUNDEDRECTD57*
21,1,0.12402,0.05309,0,0,0.0*
21,1,0.12002,0.05709,0,0,0.0*
1,1,0.00400,0.06001,-0.02655*
1,1,0.00400,-0.06001,-0.02655*
1,1,0.00400,-0.06001,0.02655*
1,1,0.00400,0.06001,0.02655*
%
%ADD57ROUNDEDRECTD57*%
G04:AMPARAMS|DCode=58|XSize=35.43mil|YSize=57.09mil|CornerRadius=1.95mil|HoleSize=0mil|Usage=FLASHONLY|Rotation=0.000|XOffset=0mil|YOffset=0mil|HoleType=Round|Shape=RoundedRectangle|*
%AMROUNDEDRECTD58*
21,1,0.03543,0.05319,0,0,0.0*
21,1,0.03154,0.05709,0,0,0.0*
1,1,0.00390,0.01577,-0.02659*
1,1,0.00390,-0.01577,-0.02659*
1,1,0.00390,-0.01577,0.02659*
1,1,0.00390,0.01577,0.02659*
%
%ADD58ROUNDEDRECTD58*%
%ADD59R,0.04528X0.05315*%
%ADD60R,0.06102X0.06102*%
%ADD61R,0.04134X0.03150*%
%ADD62R,0.05709X0.05118*%
%ADD63R,0.05709X0.04528*%
%ADD64R,0.09449X0.07480*%
%ADD65R,0.04969X0.03771*%
%ADD66R,0.05727X0.06127*%
%ADD67R,0.05315X0.06102*%
%ADD68R,0.06693X0.03150*%
%ADD69R,0.02000X0.01402*%
%ADD72R,0.04724X0.04331*%
%ADD73R,0.03150X0.04134*%
G04:AMPARAMS|DCode=74|XSize=88.58mil|YSize=15.75mil|CornerRadius=7.87mil|HoleSize=0mil|Usage=FLASHONLY|Rotation=270.000|XOffset=0mil|YOffset=0mil|HoleType=Round|Shape=RoundedRectangle|*
%AMROUNDEDRECTD74*
21,1,0.08858,0.00000,0,0,270.0*
21,1,0.07284,0.01575,0,0,270.0*
1,1,0.01575,0.00000,-0.03642*
1,1,0.01575,0.00000,0.03642*
1,1,0.01575,0.00000,0.03642*
1,1,0.01575,0.00000,-0.03642*
%
%ADD74ROUNDEDRECTD74*%
%ADD75R,0.05151X0.03960*%
%ADD76R,0.07874X0.03543*%
%ADD77R,0.03543X0.07874*%
%ADD78R,0.05236X0.05236*%
%ADD79R,3.33858X0.23524*%
G04:AMPARAMS|DCode=80|XSize=27.56mil|YSize=114.17mil|CornerRadius=1.93mil|HoleSize=0mil|Usage=FLASHONLY|Rotation=90.000|XOffset=0mil|YOffset=0mil|HoleType=Round|Shape=RoundedRectangle|*
%AMROUNDEDRECTD80*
21,1,0.02756,0.11032,0,0,90.0*
21,1,0.02370,0.11417,0,0,90.0*
1,1,0.00386,0.05516,0.01185*
1,1,0.00386,0.05516,-0.01185*
1,1,0.00386,-0.05516,-0.01185*
1,1,0.00386,-0.05516,0.01185*
%
%ADD80ROUNDEDRECTD80*%
%ADD81R,0.05512X0.01575*%
%ADD82R,0.01575X0.05512*%
%ADD83R,0.05906X0.05906*%
%ADD84C,0.05906*%
G04:AMPARAMS|DCode=85|XSize=299.21mil|YSize=141.73mil|CornerRadius=70.87mil|HoleSize=0mil|Usage=FLASHONLY|Rotation=90.000|XOffset=0mil|YOffset=0mil|HoleType=Round|Shape=RoundedRectangle|*
%AMROUNDEDRECTD85*
21,1,0.29921,0.00000,0,0,90.0*
21,1,0.15748,0.14173,0,0,90.0*
1,1,0.14173,0.00000,0.07874*
1,1,0.14173,0.00000,-0.07874*
1,1,0.14173,0.00000,-0.07874*
1,1,0.14173,0.00000,0.07874*
%
%ADD85ROUNDEDRECTD85*%
%ADD86C,0.06299*%
%ADD87R,0.06299X0.06299*%
%ADD88C,0.05315*%
G04:AMPARAMS|DCode=89|XSize=299.21mil|YSize=141.73mil|CornerRadius=70.87mil|HoleSize=0mil|Usage=FLASHONLY|Rotation=180.000|XOffset=0mil|YOffset=0mil|HoleType=Round|Shape=RoundedRectangle|*
%AMROUNDEDRECTD89*
21,1,0.29921,0.00000,0,0,180.0*
21,1,0.15748,0.14173,0,0,180.0*
1,1,0.14173,-0.07874,0.00000*
1,1,0.14173,0.07874,0.00000*
1,1,0.14173,0.07874,0.00000*
1,1,0.14173,-0.07874,0.00000*
%
%ADD89ROUNDEDRECTD89*%
%ADD90R,0.05906X0.05906*%
%ADD91C,0.07874*%
%ADD92R,0.07874X0.07874*%
G04:AMPARAMS|DCode=93|XSize=78.74mil|YSize=181.1mil|CornerRadius=39.37mil|HoleSize=0mil|Usage=FLASHONLY|Rotation=180.000|XOffset=0mil|YOffset=0mil|HoleType=Round|Shape=RoundedRectangle|*
%AMROUNDEDRECTD93*
21,1,0.07874,0.10236,0,0,180.0*
21,1,0.00000,0.18110,0,0,180.0*
1,1,0.07874,0.00000,0.05118*
1,1,0.07874,0.00000,0.05118*
1,1,0.07874,0.00000,-0.05118*
1,1,0.07874,0.00000,-0.05118*
%
%ADD93ROUNDEDRECTD93*%
G04:AMPARAMS|DCode=94|XSize=181.1mil|YSize=78.74mil|CornerRadius=39.37mil|HoleSize=0mil|Usage=FLASHONLY|Rotation=180.000|XOffset=0mil|YOffset=0mil|HoleType=Round|Shape=RoundedRectangle|*
%AMROUNDEDRECTD94*
21,1,0.18110,0.00000,0,0,180.0*
21,1,0.10236,0.07874,0,0,180.0*
1,1,0.07874,-0.05118,0.00000*
1,1,0.07874,0.05118,0.00000*
1,1,0.07874,0.05118,0.00000*
1,1,0.07874,-0.05118,0.00000*
%
%ADD94ROUNDEDRECTD94*%
%ADD95R,0.18110X0.07874*%
%ADD96C,0.08268*%
%ADD97R,0.08268X0.08268*%
%ADD98C,0.06102*%
%ADD99R,0.05512X0.05512*%
%ADD100C,0.05512*%
%ADD101C,0.11614*%
%ADD102C,0.23622*%
G04:AMPARAMS|DCode=103|XSize=35.43mil|YSize=66.93mil|CornerRadius=17.72mil|HoleSize=0mil|Usage=FLASHONLY|Rotation=270.000|XOffset=0mil|YOffset=0mil|HoleType=Round|Shape=RoundedRectangle|*
%AMROUNDEDRECTD103*
21,1,0.03543,0.03150,0,0,270.0*
21,1,0.00000,0.06693,0,0,270.0*
1,1,0.03543,-0.01575,0.00000*
1,1,0.03543,-0.01575,0.00000*
1,1,0.03543,0.01575,0.00000*
1,1,0.03543,0.01575,0.00000*
%
%ADD103ROUNDEDRECTD103*%
G04:AMPARAMS|DCode=104|XSize=35.43mil|YSize=94.49mil|CornerRadius=17.72mil|HoleSize=0mil|Usage=FLASHONLY|Rotation=270.000|XOffset=0mil|YOffset=0mil|HoleType=Round|Shape=RoundedRectangle|*
%AMROUNDEDRECTD104*
21,1,0.03543,0.05906,0,0,270.0*
21,1,0.00000,0.09449,0,0,270.0*
1,1,0.03543,-0.02953,0.00000*
1,1,0.03543,-0.02953,0.00000*
1,1,0.03543,0.02953,0.00000*
1,1,0.03543,0.02953,0.00000*
%
%ADD104ROUNDEDRECTD104*%
%ADD105R,0.02559X0.02559*%
%ADD106C,0.02559*%
%ADD107C,0.02500*%
%ADD108C,0.05000*%
%ADD109C,0.01968*%
D20*
X516929Y244094D02*
D03*
X509449D02*
D03*
X423425Y224803D02*
D03*
X430905D02*
D03*
X423425Y275984D02*
D03*
X430905D02*
D03*
X490354Y285965D02*
D03*
X497835D02*
D03*
X423425Y234646D02*
D03*
X430905D02*
D03*
X423425Y285965D02*
D03*
X430905D02*
D03*
X482087Y322835D02*
D03*
X474606D02*
D03*
X558858D02*
D03*
X551378D02*
D03*
X521457D02*
D03*
X513976D02*
D03*
X119095Y261811D02*
D03*
X126575D02*
D03*
X119095Y253937D02*
D03*
X126575D02*
D03*
X111614Y230315D02*
D03*
X119095D02*
D03*
X111614Y240551D02*
D03*
X119095D02*
D03*
D21*
X568898Y285965D02*
D03*
Y279665D02*
D03*
X576772Y285965D02*
D03*
Y279665D02*
D03*
X559055Y285965D02*
D03*
Y279665D02*
D03*
X431102Y88779D02*
D03*
Y82480D02*
D03*
D22*
X564173Y306496D02*
D03*
X567323D02*
D03*
X570472D02*
D03*
X573622D02*
D03*
Y299803D02*
D03*
X570472D02*
D03*
X567323D02*
D03*
X564173D02*
D03*
D23*
X214350Y163386D02*
D03*
X207264D02*
D03*
X626181Y313189D02*
D03*
X633268D02*
D03*
X633465Y322835D02*
D03*
X626378D02*
D03*
X598032D02*
D03*
X590945D02*
D03*
X221457Y72835D02*
D03*
X228543D02*
D03*
X91535Y108268D02*
D03*
X85630D02*
D03*
X91535Y116142D02*
D03*
X85630D02*
D03*
X84744Y61024D02*
D03*
X90650D02*
D03*
X84744Y68898D02*
D03*
X90650D02*
D03*
D24*
X465614Y128957D02*
D03*
Y123957D02*
D03*
Y118957D02*
D03*
Y113957D02*
D03*
X446590D02*
D03*
Y118957D02*
D03*
Y123957D02*
D03*
D25*
Y128957D02*
D03*
D26*
X608268Y230512D02*
D03*
Y202559D02*
D03*
D27*
X581496Y194449D02*
D03*
Y211063D02*
D03*
D28*
X492520Y150000D02*
D03*
Y118504D02*
D03*
D29*
X562795Y137795D02*
D03*
X523819D02*
D03*
D30*
X608268Y178150D02*
D03*
X601575D02*
D03*
X594882D02*
D03*
X588189D02*
D03*
X581496D02*
D03*
D31*
X594882Y137008D02*
D03*
D32*
X444095Y62992D02*
D03*
X437795D02*
D03*
X278150Y47244D02*
D03*
X271850D02*
D03*
X605118Y303150D02*
D03*
X611417D02*
D03*
X249213Y250000D02*
D03*
X242913D02*
D03*
X249213Y257874D02*
D03*
X242913D02*
D03*
D33*
X451575Y62992D02*
D03*
Y55118D02*
D03*
X726772Y116142D02*
D03*
Y124016D02*
D03*
X221457Y89567D02*
D03*
Y81693D02*
D03*
X386181Y277559D02*
D03*
Y285433D02*
D03*
X620079Y295276D02*
D03*
Y303150D02*
D03*
X135827Y122047D02*
D03*
Y114173D02*
D03*
X125984Y122047D02*
D03*
Y114173D02*
D03*
X116142Y122047D02*
D03*
Y114173D02*
D03*
D34*
X23622Y151575D02*
D03*
Y163386D02*
D03*
X755905Y211024D02*
D03*
Y222835D02*
D03*
Y261811D02*
D03*
Y250000D02*
D03*
D35*
X23622Y180905D02*
D03*
Y173425D02*
D03*
X419291Y304921D02*
D03*
Y297441D02*
D03*
X431102Y308642D02*
D03*
Y301161D02*
D03*
X106299Y259646D02*
D03*
Y252165D02*
D03*
X96457Y259646D02*
D03*
Y252165D02*
D03*
D36*
X726772Y85630D02*
D03*
Y79724D02*
D03*
X429134Y265748D02*
D03*
Y259842D02*
D03*
D37*
X615945Y313189D02*
D03*
X604134D02*
D03*
X464567Y322835D02*
D03*
X452756D02*
D03*
X616142D02*
D03*
X604331D02*
D03*
X580709Y322835D02*
D03*
X568898D02*
D03*
X541339Y322835D02*
D03*
X529528D02*
D03*
X503937Y322835D02*
D03*
X492126D02*
D03*
X425197Y322835D02*
D03*
X413386D02*
D03*
X135827Y253937D02*
D03*
X147638D02*
D03*
X135827Y261811D02*
D03*
X147638D02*
D03*
D38*
X510236Y253937D02*
D03*
X516142D02*
D03*
X432087Y214587D02*
D03*
X426181D02*
D03*
X401221Y279724D02*
D03*
X407126D02*
D03*
X423425Y135827D02*
D03*
X417520D02*
D03*
X83661Y210630D02*
D03*
X89567D02*
D03*
X59055Y251969D02*
D03*
X53150D02*
D03*
D39*
X755905Y191732D02*
D03*
Y198819D02*
D03*
X755905Y281102D02*
D03*
Y274016D02*
D03*
X104331Y114567D02*
D03*
Y121653D02*
D03*
D40*
X234587Y43399D02*
D03*
D41*
X241791D02*
D03*
X238189Y51089D02*
D03*
D42*
X278150Y55118D02*
D03*
X270276D02*
D03*
X442913Y322835D02*
D03*
X435039D02*
D03*
X431102Y96850D02*
D03*
X423228D02*
D03*
D43*
X435039Y118799D02*
D03*
Y111516D02*
D03*
X143701Y69193D02*
D03*
Y76476D02*
D03*
D44*
X31890Y142520D02*
D03*
X44882D02*
D03*
D45*
X43701Y187303D02*
D03*
X56693D02*
D03*
D46*
Y169016D02*
D03*
Y177441D02*
D03*
D47*
X37795Y169016D02*
D03*
X40157D02*
D03*
X42520D02*
D03*
X44882D02*
D03*
X47244D02*
D03*
Y153661D02*
D03*
X44882D02*
D03*
X42520D02*
D03*
X40157D02*
D03*
X37795D02*
D03*
D48*
X405252Y128898D02*
D03*
D49*
Y123898D02*
D03*
Y118898D02*
D03*
Y113898D02*
D03*
X423489D02*
D03*
Y118898D02*
D03*
Y123898D02*
D03*
Y128898D02*
D03*
D50*
X477953Y214587D02*
D03*
Y249980D02*
D03*
X443307D02*
D03*
Y214587D02*
D03*
X477953Y265768D02*
D03*
Y301161D02*
D03*
X443307D02*
D03*
Y265768D02*
D03*
X544882Y265768D02*
D03*
Y301162D02*
D03*
X510236D02*
D03*
Y265768D02*
D03*
D51*
X477953Y219783D02*
D03*
Y224783D02*
D03*
Y229784D02*
D03*
Y234784D02*
D03*
Y239784D02*
D03*
Y244783D02*
D03*
X443307D02*
D03*
Y239784D02*
D03*
Y234784D02*
D03*
Y229784D02*
D03*
Y224783D02*
D03*
Y219783D02*
D03*
X477953Y270965D02*
D03*
Y275965D02*
D03*
Y280965D02*
D03*
Y285965D02*
D03*
Y290965D02*
D03*
Y295965D02*
D03*
X443307D02*
D03*
Y290965D02*
D03*
Y285965D02*
D03*
Y280965D02*
D03*
Y275965D02*
D03*
Y270965D02*
D03*
X544882Y270965D02*
D03*
Y275965D02*
D03*
Y280965D02*
D03*
Y285965D02*
D03*
Y290965D02*
D03*
Y295965D02*
D03*
X510236D02*
D03*
Y290965D02*
D03*
Y285965D02*
D03*
Y280965D02*
D03*
Y275965D02*
D03*
Y270965D02*
D03*
D52*
X135827Y183071D02*
D03*
Y163386D02*
D03*
X76772Y167323D02*
D03*
Y187008D02*
D03*
D53*
X197441Y43500D02*
D03*
Y62800D02*
D03*
X213189Y43500D02*
D03*
Y62800D02*
D03*
X59055Y221555D02*
D03*
Y240855D02*
D03*
D54*
X372638Y35433D02*
D03*
X381299D02*
D03*
X321457D02*
D03*
X330118D02*
D03*
X278150Y31496D02*
D03*
X286811D02*
D03*
X427756D02*
D03*
X436417D02*
D03*
D55*
X289961Y13780D02*
D03*
X282087D02*
D03*
X270276D02*
D03*
X297835D02*
D03*
X278150D02*
D03*
X286024D02*
D03*
X293898D02*
D03*
X301772D02*
D03*
X274213D02*
D03*
X258465D02*
D03*
X262402D02*
D03*
X266339D02*
D03*
X309646D02*
D03*
X179724D02*
D03*
X183661D02*
D03*
X211221D02*
D03*
X199409D02*
D03*
X187598D02*
D03*
X207283D02*
D03*
X191535D02*
D03*
X195472D02*
D03*
X203346D02*
D03*
X215158D02*
D03*
X234842D02*
D03*
X254528D02*
D03*
X238779D02*
D03*
X246654D02*
D03*
X242717D02*
D03*
X325394D02*
D03*
X352953D02*
D03*
X360827D02*
D03*
X329331D02*
D03*
X321457D02*
D03*
X313583D02*
D03*
X341142D02*
D03*
X317520D02*
D03*
X345079D02*
D03*
X349016D02*
D03*
X364764D02*
D03*
X376575D02*
D03*
X368701D02*
D03*
X356890D02*
D03*
X333268D02*
D03*
X337205D02*
D03*
X380512D02*
D03*
X384449D02*
D03*
X388386D02*
D03*
X392323D02*
D03*
X396260D02*
D03*
X400197D02*
D03*
X404134D02*
D03*
X408071D02*
D03*
X412008D02*
D03*
X415945D02*
D03*
X419882D02*
D03*
X423819D02*
D03*
X427756D02*
D03*
X431693D02*
D03*
X435630D02*
D03*
X439567D02*
D03*
X443504D02*
D03*
X447441D02*
D03*
X451378D02*
D03*
X455315D02*
D03*
X459252D02*
D03*
X463189D02*
D03*
X467126D02*
D03*
X471063D02*
D03*
X475000D02*
D03*
X478937D02*
D03*
X482874D02*
D03*
X486811D02*
D03*
X490748D02*
D03*
X494685D02*
D03*
X498622D02*
D03*
X506496D02*
D03*
D56*
X305709Y15748D02*
D03*
X250590D02*
D03*
X372638D02*
D03*
X502559D02*
D03*
D57*
X106299Y163091D02*
D03*
D58*
X97244Y187303D02*
D03*
X106299D02*
D03*
X115354D02*
D03*
D59*
X173031Y106299D02*
D03*
X167323D02*
D03*
X173031Y72835D02*
D03*
X167323D02*
D03*
D60*
X100689Y61024D02*
D03*
X107972D02*
D03*
D61*
X117323Y64665D02*
D03*
Y57382D02*
D03*
D62*
X125000Y57874D02*
D03*
Y64173D02*
D03*
D63*
X156496Y93012D02*
D03*
Y86122D02*
D03*
D64*
X167323Y81496D02*
D03*
Y97638D02*
D03*
D65*
X155512Y76485D02*
D03*
Y70759D02*
D03*
D66*
X75095Y128937D02*
D03*
X82385D02*
D03*
D67*
X92421Y82677D02*
D03*
X84744D02*
D03*
X92421Y92520D02*
D03*
X84744D02*
D03*
D68*
X120079Y213386D02*
D03*
Y200000D02*
D03*
X139764Y213386D02*
D03*
Y200000D02*
D03*
D69*
X128159Y230315D02*
D03*
Y226378D02*
D03*
X133258Y228346D02*
D03*
X128159Y240551D02*
D03*
Y236614D02*
D03*
X133258Y238583D02*
D03*
D72*
X82677Y251772D02*
D03*
Y260039D02*
D03*
X70866Y251772D02*
D03*
Y260039D02*
D03*
D73*
X59744Y261811D02*
D03*
X52461D02*
D03*
D74*
X98848Y240650D02*
D03*
X96348D02*
D03*
X93848D02*
D03*
X91348D02*
D03*
X88848D02*
D03*
X86348D02*
D03*
X83848D02*
D03*
X81348D02*
D03*
X78848D02*
D03*
X76348D02*
D03*
Y221949D02*
D03*
X78848D02*
D03*
X81348D02*
D03*
X83848D02*
D03*
X86348D02*
D03*
X88848D02*
D03*
X91348D02*
D03*
X93848D02*
D03*
X96348D02*
D03*
X98848D02*
D03*
D75*
X39370Y221550D02*
D03*
Y227269D02*
D03*
D76*
X163386Y241181D02*
D03*
Y236181D02*
D03*
Y231181D02*
D03*
Y226181D02*
D03*
Y221181D02*
D03*
Y216181D02*
D03*
Y211181D02*
D03*
Y206181D02*
D03*
Y201181D02*
D03*
Y196181D02*
D03*
Y191181D02*
D03*
Y186181D02*
D03*
Y181181D02*
D03*
Y176181D02*
D03*
X230315D02*
D03*
Y181181D02*
D03*
Y186181D02*
D03*
Y191181D02*
D03*
Y196181D02*
D03*
Y201181D02*
D03*
Y206181D02*
D03*
Y211181D02*
D03*
Y216181D02*
D03*
Y221181D02*
D03*
Y226181D02*
D03*
Y231181D02*
D03*
Y236181D02*
D03*
Y241181D02*
D03*
D77*
X174350Y172244D02*
D03*
X179350D02*
D03*
X184350D02*
D03*
X189350D02*
D03*
X194350D02*
D03*
X199350D02*
D03*
X204350D02*
D03*
X209350D02*
D03*
X214350D02*
D03*
X219350D02*
D03*
D78*
X185689Y218878D02*
D03*
X192913D02*
D03*
X200138D02*
D03*
X185689Y211653D02*
D03*
X192913D02*
D03*
X200138D02*
D03*
X185689Y204429D02*
D03*
X192913D02*
D03*
X200138D02*
D03*
D79*
X343110Y10778D02*
D03*
D80*
X42520Y160650D02*
D03*
D81*
X101181Y100394D02*
D03*
Y98425D02*
D03*
Y96457D02*
D03*
Y94488D02*
D03*
Y92520D02*
D03*
Y90551D02*
D03*
Y78740D02*
D03*
Y80709D02*
D03*
Y82677D02*
D03*
Y84646D02*
D03*
Y86614D02*
D03*
Y88583D02*
D03*
X135039Y78740D02*
D03*
Y80709D02*
D03*
Y82677D02*
D03*
Y84646D02*
D03*
Y86614D02*
D03*
Y88583D02*
D03*
Y100394D02*
D03*
Y98425D02*
D03*
Y96457D02*
D03*
Y94488D02*
D03*
Y92520D02*
D03*
Y90551D02*
D03*
D82*
X107283Y72638D02*
D03*
X109252D02*
D03*
X111221D02*
D03*
X113189D02*
D03*
X115157D02*
D03*
X117126D02*
D03*
X128937D02*
D03*
X126969D02*
D03*
X125000D02*
D03*
X123031D02*
D03*
X121063D02*
D03*
X119095D02*
D03*
X128937Y106496D02*
D03*
X126969D02*
D03*
X125000D02*
D03*
X123031D02*
D03*
X121063D02*
D03*
X119095D02*
D03*
X107283D02*
D03*
X109252D02*
D03*
X111221D02*
D03*
X113189D02*
D03*
X115157D02*
D03*
X117126D02*
D03*
D83*
X726734Y92874D02*
D03*
D84*
Y100394D02*
D03*
Y107913D02*
D03*
X386181Y268073D02*
D03*
X393701D02*
D03*
X343150Y197441D02*
D03*
Y207441D02*
D03*
Y217441D02*
D03*
Y227441D02*
D03*
Y237441D02*
D03*
Y247441D02*
D03*
X263150Y197441D02*
D03*
Y207441D02*
D03*
Y217441D02*
D03*
Y227441D02*
D03*
Y237441D02*
D03*
D85*
X642482Y120079D02*
D03*
Y80709D02*
D03*
D86*
X155512Y125827D02*
D03*
Y135827D02*
D03*
D87*
Y145827D02*
D03*
D88*
X230118Y117323D02*
D03*
Y81890D02*
D03*
D89*
X413386Y183821D02*
D03*
X374016D02*
D03*
D90*
X401221Y268073D02*
D03*
X263150Y247441D02*
D03*
D91*
X293898Y129921D02*
D03*
X246654D02*
D03*
Y81890D02*
D03*
X293898D02*
D03*
D92*
X270276Y74016D02*
D03*
D93*
X729921Y279528D02*
D03*
X648032Y188976D02*
D03*
D94*
X696850Y246457D02*
D03*
Y312598D02*
D03*
X681102Y222047D02*
D03*
Y155905D02*
D03*
D95*
X659449Y279528D02*
D03*
X718504Y188976D02*
D03*
D96*
X465748Y90354D02*
D03*
Y51378D02*
D03*
X479134D02*
D03*
X412205D02*
D03*
Y90354D02*
D03*
X398819D02*
D03*
X446063Y183821D02*
D03*
Y144844D02*
D03*
X459449D02*
D03*
X347638Y90354D02*
D03*
Y51378D02*
D03*
X361024D02*
D03*
X47441Y59075D02*
D03*
Y120059D02*
D03*
D97*
X479134Y90354D02*
D03*
X398819Y51378D02*
D03*
X459449Y183821D02*
D03*
X361024Y90354D02*
D03*
D98*
X19449Y73484D02*
D03*
Y63484D02*
D03*
Y115650D02*
D03*
Y105650D02*
D03*
D99*
X60433Y107067D02*
D03*
D100*
Y97067D02*
D03*
Y87067D02*
D03*
Y77067D02*
D03*
X70433Y72067D02*
D03*
Y82067D02*
D03*
Y92067D02*
D03*
Y102067D02*
D03*
D101*
X35433Y112067D02*
D03*
Y67067D02*
D03*
D102*
X29528Y36811D02*
D03*
Y249016D02*
D03*
D103*
X10492Y227658D02*
D03*
Y193602D02*
D03*
D104*
X23799Y227658D02*
D03*
Y193602D02*
D03*
D105*
X27657Y222342D02*
D03*
D106*
Y218996D02*
D03*
Y215650D02*
D03*
Y212303D02*
D03*
Y208957D02*
D03*
Y205610D02*
D03*
Y202264D02*
D03*
Y198917D02*
D03*
X22343D02*
D03*
Y202264D02*
D03*
Y205610D02*
D03*
Y208957D02*
D03*
Y212303D02*
D03*
Y215650D02*
D03*
Y218996D02*
D03*
Y222342D02*
D03*
D107*
X83858Y56043D02*
D03*
X288386Y76968D02*
D03*
X75787Y59732D02*
D03*
Y63232D02*
D03*
Y66732D02*
D03*
X75993Y70226D02*
D03*
X235039Y79522D02*
D03*
X93504Y56299D02*
D03*
X49606Y41929D02*
D03*
X254528Y24803D02*
D03*
X250000Y97632D02*
D03*
X234449Y95079D02*
D03*
X202756Y92520D02*
D03*
X207677D02*
D03*
X226181Y84842D02*
D03*
X253543Y94882D02*
D03*
X261417D02*
D03*
X226969Y95079D02*
D03*
X438386Y87008D02*
D03*
X439855Y96056D02*
D03*
X122047Y190157D02*
D03*
X632087Y232874D02*
D03*
Y228346D02*
D03*
X531299Y249606D02*
D03*
X526181Y297441D02*
D03*
X527165Y226181D02*
D03*
X39567Y103543D02*
D03*
X250984Y51968D02*
D03*
X255555Y29770D02*
D03*
X253341Y32480D02*
D03*
X248031Y55118D02*
D03*
X221450Y182192D02*
D03*
X170866Y181299D02*
D03*
X306384Y173425D02*
D03*
X457677Y206884D02*
D03*
X472926D02*
D03*
X467323Y206890D02*
D03*
X548228Y255906D02*
D03*
X552559Y258858D02*
D03*
X547638Y261221D02*
D03*
X307087Y40354D02*
D03*
X281890Y50197D02*
D03*
X285236Y47441D02*
D03*
X205118Y33268D02*
D03*
X188583Y31102D02*
D03*
X326969Y27165D02*
D03*
X304285Y27734D02*
D03*
X304331Y66142D02*
D03*
X74803Y96063D02*
D03*
X236417Y107087D02*
D03*
X95472Y76772D02*
D03*
X293110Y150394D02*
D03*
X168110Y170276D02*
D03*
X156299Y200000D02*
D03*
X172441Y206890D02*
D03*
X188583Y137795D02*
D03*
X195669Y159055D02*
D03*
X181102Y150787D02*
D03*
X158465Y154528D02*
D03*
X442520Y312205D02*
D03*
X447244Y322835D02*
D03*
X409055Y309252D02*
D03*
X394882Y281890D02*
D03*
X378740Y250000D02*
D03*
X432283Y44094D02*
D03*
X282087Y24803D02*
D03*
X228740Y62992D02*
D03*
X242323Y37598D02*
D03*
X293504Y70866D02*
D03*
X291535Y31496D02*
D03*
X296850Y56890D02*
D03*
X283661Y41339D02*
D03*
X255118Y77165D02*
D03*
X257874Y42520D02*
D03*
X447047Y327362D02*
D03*
X550000Y316929D02*
D03*
X508661Y328150D02*
D03*
X464370Y256102D02*
D03*
X572638Y138583D02*
D03*
X577953Y127362D02*
D03*
X208661Y118307D02*
D03*
X234842Y124803D02*
D03*
X189961Y161417D02*
D03*
X129921Y89370D02*
D03*
X369094Y210630D02*
D03*
X320866Y104331D02*
D03*
Y87598D02*
D03*
X314961Y60039D02*
D03*
X312008Y62008D02*
D03*
X348425Y180315D02*
D03*
X352362Y176181D02*
D03*
X351772Y170472D02*
D03*
X329921Y162992D02*
D03*
X365158Y208071D02*
D03*
X395669Y159055D02*
D03*
X407480Y241142D02*
D03*
X411417Y237205D02*
D03*
X427165Y245079D02*
D03*
X423228Y242126D02*
D03*
X487008Y217126D02*
D03*
X288386Y107283D02*
D03*
X305118Y110236D02*
D03*
X312992Y118110D02*
D03*
X191929Y83858D02*
D03*
X192913Y105315D02*
D03*
X359252Y212598D02*
D03*
X304724Y161614D02*
D03*
X368110Y266732D02*
D03*
X372047Y272638D02*
D03*
X463583Y219291D02*
D03*
X443307Y257874D02*
D03*
X488189Y262795D02*
D03*
X495472Y264764D02*
D03*
X704528Y97441D02*
D03*
X646850Y222441D02*
D03*
X691142Y88386D02*
D03*
X562795Y56496D02*
D03*
X496063Y207677D02*
D03*
X494095Y224410D02*
D03*
X501181Y236221D02*
D03*
X491142Y231299D02*
D03*
X559252Y271063D02*
D03*
X556102Y268701D02*
D03*
X453740Y74803D02*
D03*
X687992Y303346D02*
D03*
X585630Y313583D02*
D03*
X574803Y314961D02*
D03*
X236221Y111221D02*
D03*
X176969Y102756D02*
D03*
X175197Y55905D02*
D03*
X205315Y107677D02*
D03*
X210630Y55118D02*
D03*
X194882D02*
D03*
X544095Y114764D02*
D03*
X540354Y112205D02*
D03*
X301772Y62008D02*
D03*
X557087Y120079D02*
D03*
X565945Y115157D02*
D03*
X555118Y112205D02*
D03*
X540158Y117323D02*
D03*
X562008Y107874D02*
D03*
X389764Y121653D02*
D03*
X618110Y170079D02*
D03*
X613189Y163386D02*
D03*
X227362Y109252D02*
D03*
X224410Y112205D02*
D03*
X249016Y70866D02*
D03*
X205709Y114961D02*
D03*
X207677Y111221D02*
D03*
X289370Y41339D02*
D03*
X633858Y203740D02*
D03*
X624016Y119095D02*
D03*
X560039Y123031D02*
D03*
X525394Y120276D02*
D03*
X659449Y112008D02*
D03*
X135827Y109449D02*
D03*
X130709Y114173D02*
D03*
X181693Y108071D02*
D03*
X154528Y116142D02*
D03*
X147638Y143701D02*
D03*
X140748Y137795D02*
D03*
X317323Y165551D02*
D03*
X132874Y138976D02*
D03*
Y135039D02*
D03*
Y130905D02*
D03*
X102362Y132677D02*
D03*
Y136811D02*
D03*
Y140748D02*
D03*
X403543Y308071D02*
D03*
X399606D02*
D03*
X524606Y277559D02*
D03*
X516732Y236221D02*
D03*
X272638Y101378D02*
D03*
X309055Y169291D02*
D03*
X325787Y201772D02*
D03*
X363189Y268701D02*
D03*
X359252Y265158D02*
D03*
X332677Y202756D02*
D03*
X313976Y170276D02*
D03*
X326378Y130512D02*
D03*
X544291Y158465D02*
D03*
X331693Y187008D02*
D03*
X339567Y183071D02*
D03*
X395669Y163386D02*
D03*
X545276Y166339D02*
D03*
X562008Y174213D02*
D03*
X522638Y243110D02*
D03*
X561417Y263779D02*
D03*
X415748Y118898D02*
D03*
X248031Y173228D02*
D03*
X223425Y164370D02*
D03*
X215551Y188976D02*
D03*
X182087Y191929D02*
D03*
X155709Y195079D02*
D03*
X564370Y182677D02*
D03*
X490945Y268701D02*
D03*
X551181Y180118D02*
D03*
X554134Y187992D02*
D03*
X543701Y145472D02*
D03*
X536417Y132874D02*
D03*
X490158Y226378D02*
D03*
X487008Y242323D02*
D03*
X486417Y268504D02*
D03*
X593504Y108268D02*
D03*
X592520Y112598D02*
D03*
X462598Y300197D02*
D03*
X431496Y293307D02*
D03*
X500000Y306102D02*
D03*
X451772Y240158D02*
D03*
X494095Y296260D02*
D03*
X280512Y115157D02*
D03*
X392717Y305118D02*
D03*
X395669Y308071D02*
D03*
X541535Y131693D02*
D03*
X559055Y190945D02*
D03*
X539370Y242126D02*
D03*
X436811Y128740D02*
D03*
X444095Y70473D02*
D03*
X484252Y144685D02*
D03*
X470522Y234833D02*
D03*
Y239833D02*
D03*
Y244833D02*
D03*
X451772Y277559D02*
D03*
X470522Y286014D02*
D03*
Y291014D02*
D03*
X470472Y296063D02*
D03*
X570472Y294488D02*
D03*
X567303Y290965D02*
D03*
X555532Y295965D02*
D03*
Y290965D02*
D03*
X498032Y278740D02*
D03*
X647441Y232677D02*
D03*
X450591Y292323D02*
D03*
X453642Y295965D02*
D03*
X453721Y301161D02*
D03*
X131890Y144685D02*
D03*
X155512Y163583D02*
D03*
X432303Y128898D02*
D03*
X474429Y118957D02*
D03*
Y128957D02*
D03*
X573032Y169291D02*
D03*
X446590Y102362D02*
D03*
X302109Y170276D02*
D03*
X295219Y170472D02*
D03*
X343504Y264764D02*
D03*
Y268701D02*
D03*
X179449Y132795D02*
D03*
X179134Y164370D02*
D03*
X240158Y133858D02*
D03*
X335630Y267717D02*
D03*
X222638Y235236D02*
D03*
X212598Y229331D02*
D03*
X175591Y225394D02*
D03*
X172244D02*
D03*
X222402Y191181D02*
D03*
X239961Y100394D02*
D03*
X410236Y134449D02*
D03*
X397638D02*
D03*
Y128937D02*
D03*
Y123819D02*
D03*
X58071Y142520D02*
D03*
X140354Y82648D02*
D03*
X336614Y179134D02*
D03*
X397244Y144844D02*
D03*
X503937Y27559D02*
D03*
X494095D02*
D03*
X500000D02*
D03*
X488189D02*
D03*
X476378D02*
D03*
X482283D02*
D03*
X470472D02*
D03*
X464567D02*
D03*
X458661D02*
D03*
X181693D02*
D03*
X197441D02*
D03*
X213189D02*
D03*
X86221Y234449D02*
D03*
X254528Y233858D02*
D03*
X192913Y211653D02*
D03*
X126378Y79331D02*
D03*
X245079Y213583D02*
D03*
X242126Y218504D02*
D03*
X129921Y80709D02*
D03*
X38386Y78740D02*
D03*
X34646Y94095D02*
D03*
X39764Y83268D02*
D03*
X106270Y98425D02*
D03*
X108268Y94488D02*
D03*
X105512Y83465D02*
D03*
X74803Y79528D02*
D03*
X56299Y91732D02*
D03*
X43307Y97244D02*
D03*
X108268Y78740D02*
D03*
X127953Y98425D02*
D03*
Y101969D02*
D03*
X251969Y190945D02*
D03*
X255906Y194882D02*
D03*
X271654D02*
D03*
X277559Y190945D02*
D03*
X79134Y107087D02*
D03*
X75197Y111417D02*
D03*
X88976Y87402D02*
D03*
X74803Y86614D02*
D03*
X145669Y231496D02*
D03*
X49213Y226772D02*
D03*
X85827Y247638D02*
D03*
X275590Y222441D02*
D03*
X265748Y222441D02*
D03*
X194882Y242126D02*
D03*
X183858Y235827D02*
D03*
X78347Y228346D02*
D03*
X93848Y232825D02*
D03*
X142126Y241732D02*
D03*
X144095Y235827D02*
D03*
X66929Y264567D02*
D03*
X110630Y264961D02*
D03*
X150787Y243307D02*
D03*
X109843Y223622D02*
D03*
X151181Y247638D02*
D03*
X107480Y235827D02*
D03*
X172244Y239173D02*
D03*
Y243110D02*
D03*
D108*
X147441Y189961D02*
D03*
D109*
X46575Y160650D02*
D03*
X42520D02*
D03*
X38465D02*
D03*
M02*
