G04*
G04 #@! TF.GenerationSoftware,Altium Limited,Altium Designer,21.3.2 (30)*
G04*
G04 Layer_Color=32896*
%FSLAX25Y25*%
%MOIN*%
G70*
G04*
G04 #@! TF.SameCoordinates,06CA3BE7-F167-48F9-AA53-4FDEF555C1C3*
G04*
G04*
G04 #@! TF.FilePolarity,Positive*
G04*
G01*
G75*
%ADD10C,0.00984*%
%ADD12C,0.01000*%
%ADD13C,0.00787*%
%ADD15C,0.00500*%
D10*
X459547Y231102D02*
X458809Y231529D01*
Y230676D01*
X459547Y231102D01*
Y278346D02*
X458809Y278773D01*
Y277920D01*
X459547Y278346D01*
X587106Y106752D02*
X586368Y107178D01*
Y106326D01*
X587106Y106752D01*
X632185Y101378D02*
X631447Y101804D01*
Y100952D01*
X632185Y101378D01*
X632283Y191732D02*
X631545Y192158D01*
Y191306D01*
X632283Y191732D01*
X587106Y197146D02*
X586368Y197572D01*
Y196720D01*
X587106Y197146D01*
X519803Y184355D02*
X519065Y184781D01*
Y183928D01*
X519803Y184355D01*
Y265654D02*
X519065Y266080D01*
Y265228D01*
X519803Y265654D01*
X587106Y278445D02*
X586368Y278871D01*
Y278019D01*
X587106Y278445D01*
X632087Y272835D02*
X631348Y273261D01*
Y272408D01*
X632087Y272835D01*
X201378Y152795D02*
X200640Y153221D01*
Y152369D01*
X201378Y152795D01*
X105610Y160118D02*
X104872Y160544D01*
Y159692D01*
X105610Y160118D01*
X519803Y94158D02*
X519065Y94584D01*
Y93731D01*
X519803Y94158D01*
X226981Y104232D02*
X226242Y104658D01*
Y103806D01*
X226981Y104232D01*
X398244Y160591D02*
X397506Y161017D01*
Y160164D01*
X398244Y160591D01*
D12*
X546154Y152816D02*
X545154Y153816D01*
Y155815D01*
X546154Y156815D01*
X550152D01*
X551152Y155815D01*
Y153816D01*
X550152Y152816D01*
X551152Y147818D02*
X545154D01*
X548153Y150817D01*
Y146818D01*
X550152Y144819D02*
X551152Y143819D01*
Y141820D01*
X550152Y140820D01*
X546154D01*
X545154Y141820D01*
Y143819D01*
X546154Y144819D01*
X547154D01*
X548153Y143819D01*
Y140820D01*
X101707Y170394D02*
Y173674D01*
X102364Y174330D01*
X103675D01*
X104331Y173674D01*
Y170394D01*
X108267Y174330D02*
X105643D01*
X108267Y171706D01*
Y171050D01*
X107611Y170394D01*
X106299D01*
X105643Y171050D01*
X109579Y174330D02*
X110891D01*
X110235D01*
Y170394D01*
X109579Y171050D01*
X516927Y112661D02*
Y109381D01*
X516272Y108725D01*
X514960D01*
X514304Y109381D01*
Y112661D01*
X512992Y108725D02*
X511680D01*
X512336D01*
Y112661D01*
X512992Y112005D01*
X507088Y112661D02*
X508400Y112005D01*
X509712Y110693D01*
Y109381D01*
X509056Y108725D01*
X507744D01*
X507088Y109381D01*
Y110037D01*
X507744Y110693D01*
X509712D01*
X621470Y122882D02*
Y117884D01*
X620471Y116884D01*
X618471D01*
X617472Y117884D01*
Y122882D01*
X615472Y116884D02*
X613473D01*
X614472D01*
Y122882D01*
X615472Y121882D01*
X606475Y122882D02*
X610474D01*
Y119883D01*
X608474Y120883D01*
X607475D01*
X606475Y119883D01*
Y117884D01*
X607475Y116884D01*
X609474D01*
X610474Y117884D01*
X516730Y203015D02*
Y199736D01*
X516074Y199080D01*
X514762D01*
X514106Y199736D01*
Y203015D01*
X512794Y199080D02*
X511482D01*
X512138D01*
Y203015D01*
X512794Y202359D01*
X507547Y199080D02*
Y203015D01*
X509515Y201047D01*
X506891D01*
X621867Y213196D02*
Y208197D01*
X620868Y207198D01*
X618868D01*
X617869Y208197D01*
Y213196D01*
X615869Y207198D02*
X613870D01*
X614869D01*
Y213196D01*
X615869Y212196D01*
X610871D02*
X609871Y213196D01*
X607872D01*
X606872Y212196D01*
Y211196D01*
X607872Y210197D01*
X608872D01*
X607872D01*
X606872Y209197D01*
Y208197D01*
X607872Y207198D01*
X609871D01*
X610871Y208197D01*
X516927Y284448D02*
Y281168D01*
X516272Y280512D01*
X514960D01*
X514304Y281168D01*
Y284448D01*
X512992Y280512D02*
X511680D01*
X512336D01*
Y284448D01*
X512992Y283792D01*
X507088Y280512D02*
X509712D01*
X507088Y283136D01*
Y283792D01*
X507744Y284448D01*
X509056D01*
X509712Y283792D01*
X620671Y294338D02*
Y289339D01*
X619671Y288340D01*
X617672D01*
X616672Y289339D01*
Y294338D01*
X614673Y288340D02*
X612674D01*
X613673D01*
Y294338D01*
X614673Y293338D01*
X609675Y288340D02*
X607675D01*
X608675D01*
Y294338D01*
X609675Y293338D01*
X187249Y132799D02*
X182250D01*
X181250Y133798D01*
Y135798D01*
X182250Y136797D01*
X187249D01*
Y138797D02*
Y142795D01*
X186249D01*
X182250Y138797D01*
X181250D01*
X219815Y112598D02*
Y109318D01*
X219159Y108662D01*
X217847D01*
X217191Y109318D01*
Y112598D01*
X213256D02*
X215880D01*
Y110630D01*
X214568Y111286D01*
X213912D01*
X213256Y110630D01*
Y109318D01*
X213912Y108662D01*
X215224D01*
X215880Y109318D01*
X295801Y61872D02*
X295145Y62528D01*
Y63840D01*
X295801Y64496D01*
X296457D01*
X297113Y63840D01*
Y62528D01*
X297769Y61872D01*
X298425D01*
X299081Y62528D01*
Y63840D01*
X298425Y64496D01*
X299081Y60560D02*
X295145D01*
Y58592D01*
X295801Y57936D01*
X297113D01*
X297769Y58592D01*
Y60560D01*
X295145Y56624D02*
X299081D01*
X297769D01*
X295145Y54001D01*
X297113Y55968D01*
X299081Y54001D01*
Y52689D02*
X295145D01*
Y50721D01*
X295801Y50065D01*
X297113D01*
X297769Y50721D01*
Y52689D01*
Y51377D02*
X299081Y50065D01*
X299737Y48753D02*
Y46129D01*
X295145Y42193D02*
Y44817D01*
X297113D01*
Y43505D01*
Y44817D01*
X299081D01*
X295145Y40881D02*
X298425D01*
X299081Y40225D01*
Y38914D01*
X298425Y38258D01*
X295145D01*
X295801Y34322D02*
X295145Y34978D01*
Y36290D01*
X295801Y36946D01*
X296457D01*
X297113Y36290D01*
Y34978D01*
X297769Y34322D01*
X298425D01*
X299081Y34978D01*
Y36290D01*
X298425Y36946D01*
X295145Y30386D02*
Y33010D01*
X299081D01*
Y30386D01*
X297113Y33010D02*
Y31698D01*
X331628Y30189D02*
X335564D01*
Y32157D01*
X334908Y32812D01*
X333596D01*
X332940Y32157D01*
Y30189D01*
Y31501D02*
X331628Y32812D01*
X335564Y34124D02*
Y36748D01*
Y35436D01*
X331628D01*
Y38060D02*
X335564D01*
Y40028D01*
X334908Y40684D01*
X333596D01*
X332940Y40028D01*
Y38060D01*
Y39372D02*
X331628Y40684D01*
X330972Y41996D02*
Y44620D01*
X335564Y48555D02*
Y45932D01*
X333596D01*
Y47243D01*
Y45932D01*
X331628D01*
X335564Y49867D02*
X332284D01*
X331628Y50523D01*
Y51835D01*
X332284Y52491D01*
X335564D01*
X334908Y56427D02*
X335564Y55771D01*
Y54459D01*
X334908Y53803D01*
X334252D01*
X333596Y54459D01*
Y55771D01*
X332940Y56427D01*
X332284D01*
X331628Y55771D01*
Y54459D01*
X332284Y53803D01*
X335564Y60363D02*
Y57739D01*
X331628D01*
Y60363D01*
X333596Y57739D02*
Y59051D01*
X399350Y170978D02*
X393352D01*
Y167979D01*
X394351Y166979D01*
X396351D01*
X397350Y167979D01*
Y170978D01*
X394351Y160981D02*
X393352Y161981D01*
Y163980D01*
X394351Y164980D01*
X398350D01*
X399350Y163980D01*
Y161981D01*
X398350Y160981D01*
X400349Y158982D02*
Y154983D01*
X393352Y152984D02*
X399350D01*
Y149985D01*
X398350Y148985D01*
X397350D01*
X396351Y149985D01*
Y152984D01*
Y149985D01*
X395351Y148985D01*
X394351D01*
X393352Y149985D01*
Y152984D01*
Y146985D02*
X398350D01*
X399350Y145986D01*
Y143986D01*
X398350Y142987D01*
X393352D01*
X394351Y136989D02*
X393352Y137988D01*
Y139988D01*
X394351Y140988D01*
X398350D01*
X399350Y139988D01*
Y137988D01*
X398350Y136989D01*
X393352Y134989D02*
X399350D01*
X397350D01*
X393352Y130991D01*
X396351Y133990D01*
X399350Y130991D01*
X548383Y106572D02*
X554381D01*
Y102573D01*
X548383Y96575D02*
Y100574D01*
X551382D01*
X550382Y98575D01*
Y97575D01*
X551382Y96575D01*
X553381D01*
X554381Y97575D01*
Y99574D01*
X553381Y100574D01*
X554377Y186576D02*
X548379D01*
Y190575D01*
Y195573D02*
X554377D01*
X551378Y192575D01*
Y196573D01*
X548812Y278225D02*
X554810D01*
Y274227D01*
X549812Y272227D02*
X548812Y271228D01*
Y269228D01*
X549812Y268229D01*
X550811D01*
X551811Y269228D01*
Y270228D01*
Y269228D01*
X552811Y268229D01*
X553810D01*
X554810Y269228D01*
Y271228D01*
X553810Y272227D01*
X581422Y89677D02*
Y95675D01*
X584421D01*
X585421Y94675D01*
Y90677D01*
X584421Y89677D01*
X581422D01*
X591419D02*
X589420Y90677D01*
X587421Y92676D01*
Y94675D01*
X588420Y95675D01*
X590419D01*
X591419Y94675D01*
Y93676D01*
X590419Y92676D01*
X587421D01*
X581813Y180505D02*
Y186503D01*
X584812D01*
X585811Y185503D01*
Y181505D01*
X584812Y180505D01*
X581813D01*
X591809D02*
X587811D01*
Y183504D01*
X589810Y182504D01*
X590810D01*
X591809Y183504D01*
Y185503D01*
X590810Y186503D01*
X588810D01*
X587811Y185503D01*
X581617Y261214D02*
Y267212D01*
X584616D01*
X585615Y266212D01*
Y262213D01*
X584616Y261214D01*
X581617D01*
X590614Y267212D02*
Y261214D01*
X587615Y264213D01*
X591613D01*
X686976Y129586D02*
X685976Y130586D01*
Y132585D01*
X686976Y133584D01*
X690975D01*
X691974Y132585D01*
Y130586D01*
X690975Y129586D01*
X691974Y124588D02*
X685976D01*
X688975Y127586D01*
Y123588D01*
X686976Y121588D02*
X685976Y120589D01*
Y118589D01*
X686976Y117590D01*
X687976D01*
X688975Y118589D01*
X689975Y117590D01*
X690975D01*
X691974Y118589D01*
Y120589D01*
X690975Y121588D01*
X689975D01*
X688975Y120589D01*
X687976Y121588D01*
X686976D01*
X688975Y120589D02*
Y118589D01*
X550344Y228048D02*
X551343Y227049D01*
Y225049D01*
X550344Y224050D01*
X546345D01*
X545345Y225049D01*
Y227049D01*
X546345Y228048D01*
X545345Y233047D02*
X551343D01*
X548344Y230048D01*
Y234047D01*
X551343Y240045D02*
Y236046D01*
X548344D01*
X549344Y238045D01*
Y239045D01*
X548344Y240045D01*
X546345D01*
X545345Y239045D01*
Y237046D01*
X546345Y236046D01*
X658867Y252424D02*
X657867Y253424D01*
Y255423D01*
X658867Y256423D01*
X662865D01*
X663865Y255423D01*
Y253424D01*
X662865Y252424D01*
X663865Y247426D02*
X657867D01*
X660866Y250425D01*
Y246426D01*
X663865Y241428D02*
X657867D01*
X660866Y244427D01*
Y240428D01*
X545753Y318708D02*
X544754Y319707D01*
Y321707D01*
X545753Y322706D01*
X549752D01*
X550752Y321707D01*
Y319707D01*
X549752Y318708D01*
X550752Y313709D02*
X544754D01*
X547753Y316708D01*
Y312710D01*
X550752Y310710D02*
Y308711D01*
Y309711D01*
X544754D01*
X545753Y310710D01*
X655056Y307056D02*
X654057Y306056D01*
X652057D01*
X651058Y307056D01*
Y311054D01*
X652057Y312054D01*
X654057D01*
X655056Y311054D01*
X660055Y312054D02*
Y306056D01*
X657056Y309055D01*
X661054D01*
X663054Y307056D02*
X664053Y306056D01*
X666053D01*
X667053Y307056D01*
Y311054D01*
X666053Y312054D01*
X664053D01*
X663054Y311054D01*
Y307056D01*
X51508Y80052D02*
X52164Y80708D01*
X53476D01*
X54132Y80052D01*
Y77428D01*
X53476Y76772D01*
X52164D01*
X51508Y77428D01*
X50196Y76772D02*
X48885D01*
X49541D01*
Y80708D01*
X50196Y80052D01*
X44293Y80708D02*
X45605Y80052D01*
X46917Y78740D01*
Y77428D01*
X46261Y76772D01*
X44949D01*
X44293Y77428D01*
Y78084D01*
X44949Y78740D01*
X46917D01*
D13*
X526890Y136417D02*
Y141732D01*
X535748Y127559D02*
X568228D01*
Y141732D01*
Y154724D02*
Y168898D01*
X535748D02*
X568228D01*
X526890Y160039D02*
X535748Y168898D01*
X526890Y154724D02*
Y160039D01*
Y136417D02*
X535748Y127559D01*
X480413Y255512D02*
Y256299D01*
X476279Y255512D02*
Y256299D01*
X490256Y255512D02*
Y256299D01*
X486122Y255512D02*
Y256299D01*
X500098Y255512D02*
Y256299D01*
X495965Y255512D02*
Y256299D01*
X478445Y318504D02*
Y319291D01*
X474311Y318504D02*
Y319291D01*
X488287Y318504D02*
Y319291D01*
X484154Y318504D02*
Y319291D01*
X498130Y318504D02*
Y319291D01*
X493996Y318504D02*
Y319291D01*
X460532Y233465D02*
X460728D01*
X460532Y246850D02*
X460728D01*
X460532Y280709D02*
X460728D01*
X460532Y294094D02*
X460728D01*
X163091Y143898D02*
Y144685D01*
X167618Y143898D02*
Y144685D01*
X204429Y128858D02*
Y129646D01*
X208957Y128858D02*
Y129646D01*
X484547Y127579D02*
Y136240D01*
X476083Y127579D02*
Y136240D01*
X208957Y150984D02*
Y151772D01*
X204429Y150984D02*
Y151772D01*
X523721Y129528D02*
Y138189D01*
X515256Y129528D02*
Y138189D01*
X578839Y83819D02*
Y101929D01*
X592382Y83819D02*
X594390D01*
X578839D02*
X580847D01*
X594390D02*
Y101929D01*
X592382D02*
X594390D01*
X578839D02*
X580847D01*
X635236Y113583D02*
Y124803D01*
X593110Y113583D02*
X635236D01*
X593110D02*
Y124803D01*
X575787Y113583D02*
Y125984D01*
X526575Y113583D02*
Y125984D01*
X575787Y76772D02*
Y89173D01*
X526575Y76772D02*
Y89173D01*
Y125984D02*
X575787D01*
X526575Y76772D02*
X575787D01*
X705709Y109252D02*
Y120571D01*
Y131398D02*
Y142717D01*
X672244Y131102D02*
Y132677D01*
Y119291D02*
Y120866D01*
Y119291D02*
X682283Y109252D01*
X705709D01*
X682283Y142717D02*
X705709D01*
X672244Y132677D02*
X682283Y142717D01*
X663386Y124016D02*
Y127953D01*
X661417Y125984D02*
X665354D01*
X523524Y220079D02*
Y228740D01*
X515059Y220079D02*
Y228740D01*
X635236Y204331D02*
Y214961D01*
X593110Y204331D02*
X635236D01*
X593110D02*
Y214961D01*
X578839Y174213D02*
Y192323D01*
X592382Y174213D02*
X594390D01*
X578839D02*
X580847D01*
X594390D02*
Y192323D01*
X592382D02*
X594390D01*
X578839D02*
X580847D01*
X571457Y199549D02*
Y211850D01*
X530905Y199549D02*
Y211850D01*
X571457Y171299D02*
Y183600D01*
X530905Y171299D02*
Y183600D01*
Y211850D02*
X571457D01*
X530905Y171299D02*
X571457D01*
X519998Y232283D02*
X523935D01*
X521967Y230315D02*
Y234252D01*
X530825Y238976D02*
X540864Y249016D01*
X564289D01*
X540864Y215551D02*
X564289D01*
X530825Y225590D02*
X540864Y215551D01*
X530825Y225590D02*
Y227165D01*
Y237402D02*
Y238976D01*
X564289Y237697D02*
Y249016D01*
Y215551D02*
Y226870D01*
X678150Y231299D02*
Y242618D01*
Y253445D02*
Y264764D01*
X644685Y253150D02*
Y254724D01*
Y241339D02*
Y242913D01*
Y241339D02*
X654724Y231299D01*
X678150D01*
X654724Y264764D02*
X678150D01*
X644685Y254724D02*
X654724Y264764D01*
X635827Y246063D02*
Y250000D01*
X633858Y248031D02*
X637795D01*
X521457Y198414D02*
Y203760D01*
X502165D02*
X521457D01*
X502165Y198414D02*
Y203760D01*
Y198414D02*
X521457D01*
X523543Y300787D02*
Y309449D01*
X515079Y300787D02*
Y309449D01*
X521457Y279713D02*
Y285059D01*
X502165D02*
X521457D01*
X502165Y279713D02*
Y285059D01*
Y279713D02*
X521457D01*
X578839Y255512D02*
Y273622D01*
X592382Y255512D02*
X594390D01*
X578839D02*
X580847D01*
X594390D02*
Y273622D01*
X592382D02*
X594390D01*
X578839D02*
X580847D01*
X530905Y252559D02*
Y264860D01*
X571457Y252559D02*
Y264860D01*
X530905Y280809D02*
Y293110D01*
X571457Y280809D02*
Y293110D01*
X530905Y252559D02*
X571457D01*
X530905Y293110D02*
X571457D01*
X519998Y314961D02*
X523935D01*
X521967Y312992D02*
Y316929D01*
X530825Y321654D02*
X540864Y331693D01*
X564289D01*
X540864Y298228D02*
X564289D01*
X530825Y308268D02*
X540864Y298228D01*
X530825Y308268D02*
Y309842D01*
Y320079D02*
Y321654D01*
X564289Y320374D02*
Y331693D01*
Y298228D02*
Y309547D01*
X664862Y325984D02*
X676181D01*
X642717D02*
X654035D01*
X652756Y292520D02*
X654331D01*
X664567D02*
X666142D01*
X676181Y302559D01*
Y325984D01*
X642717Y302559D02*
Y325984D01*
Y302559D02*
X652756Y292520D01*
X657480Y283661D02*
X661417D01*
X659449Y281693D02*
Y285630D01*
X635236Y284646D02*
Y296457D01*
X593110Y284646D02*
X635236D01*
X593110D02*
Y296457D01*
X167126Y165650D02*
X175787D01*
X167126Y157185D02*
X175787D01*
X178937Y155020D02*
X191142D01*
X178937Y120571D02*
X191142D01*
X88189Y179035D02*
X88976D01*
X88189Y183169D02*
X88976D01*
X88189Y171161D02*
X88976D01*
X88189Y175295D02*
X88976D01*
X88189Y163287D02*
X88976D01*
X88189Y167421D02*
X88976D01*
X103740Y189665D02*
X112402D01*
X103740Y198130D02*
X112402D01*
X103740Y148327D02*
X112402D01*
X103740Y156791D02*
X112402D01*
X114370Y160236D02*
Y186221D01*
X115354D01*
X114370Y160236D02*
X115354D01*
X521457Y108217D02*
Y113563D01*
X502165D02*
X521457D01*
X502165Y108217D02*
Y113563D01*
Y108217D02*
X521457D01*
X211024Y93701D02*
X222047D01*
X211024Y107087D02*
X222047D01*
X439326Y140591D02*
X440252D01*
X439326Y160591D02*
X440252D01*
Y140591D02*
Y160591D01*
X400252Y140591D02*
Y160591D01*
X401177D01*
X400252Y140591D02*
X401177D01*
X313858Y38996D02*
Y47618D01*
X302284Y38996D02*
Y47618D01*
X328622Y38996D02*
Y47618D01*
X317047Y38996D02*
Y47618D01*
X7283Y86910D02*
X15945D01*
X7283Y78445D02*
X15945D01*
X7480Y98721D02*
X16142D01*
X7480Y90256D02*
X16142D01*
X113362Y82972D02*
X122859D01*
X113362Y74508D02*
X122859D01*
X42913Y75787D02*
Y81693D01*
X55512Y75787D02*
Y81693D01*
X31102Y102461D02*
X31890D01*
X31102Y98327D02*
X31890D01*
X31102Y80807D02*
X31890D01*
X31102Y76673D02*
X31890D01*
X145276Y249705D02*
X153937D01*
X145255Y258200D02*
X153916D01*
D15*
X82677Y184710D02*
X79922D01*
Y183333D01*
X80381Y182874D01*
X81299D01*
X81758Y183333D01*
Y184710D01*
Y183792D02*
X82677Y182874D01*
X80381Y181955D02*
X79922Y181496D01*
Y180578D01*
X80381Y180119D01*
X80840D01*
X81299Y180578D01*
X81758Y180119D01*
X82218D01*
X82677Y180578D01*
Y181496D01*
X82218Y181955D01*
X81758D01*
X81299Y181496D01*
X80840Y181955D01*
X80381D01*
X81299Y181496D02*
Y180578D01*
X82677Y179200D02*
Y178282D01*
Y178741D01*
X79922D01*
X80381Y179200D01*
X82874Y168043D02*
X80119D01*
Y166666D01*
X80578Y166207D01*
X81496D01*
X81955Y166666D01*
Y168043D01*
Y167125D02*
X82874Y166207D01*
X80578Y165288D02*
X80119Y164829D01*
Y163911D01*
X80578Y163452D01*
X81037D01*
X81496Y163911D01*
X81955Y163452D01*
X82414D01*
X82874Y163911D01*
Y164829D01*
X82414Y165288D01*
X81955D01*
X81496Y164829D01*
X81037Y165288D01*
X80578D01*
X81496Y164829D02*
Y163911D01*
X80578Y162533D02*
X80119Y162074D01*
Y161156D01*
X80578Y160697D01*
X81037D01*
X81496Y161156D01*
Y161615D01*
Y161156D01*
X81955Y160697D01*
X82414D01*
X82874Y161156D01*
Y162074D01*
X82414Y162533D01*
X82677Y176902D02*
X79922D01*
Y175524D01*
X80381Y175065D01*
X81299D01*
X81758Y175524D01*
Y176902D01*
Y175983D02*
X82677Y175065D01*
X80381Y174147D02*
X79922Y173688D01*
Y172769D01*
X80381Y172310D01*
X80840D01*
X81299Y172769D01*
X81758Y172310D01*
X82218D01*
X82677Y172769D01*
Y173688D01*
X82218Y174147D01*
X81758D01*
X81299Y173688D01*
X80840Y174147D01*
X80381D01*
X81299Y173688D02*
Y172769D01*
X82677Y169555D02*
Y171392D01*
X80840Y169555D01*
X80381D01*
X79922Y170014D01*
Y170932D01*
X80381Y171392D01*
X464303Y248426D02*
Y251181D01*
X462926D01*
X462467Y250722D01*
Y249803D01*
X462926Y249344D01*
X464303D01*
X463385D02*
X462467Y248426D01*
X459712Y251181D02*
X461548D01*
Y249803D01*
X460630Y250262D01*
X460171D01*
X459712Y249803D01*
Y248885D01*
X460171Y248426D01*
X461089D01*
X461548Y248885D01*
X458793Y251181D02*
X456957D01*
Y250722D01*
X458793Y248885D01*
Y248426D01*
X464303Y295670D02*
Y298425D01*
X462926D01*
X462467Y297966D01*
Y297047D01*
X462926Y296588D01*
X464303D01*
X463385D02*
X462467Y295670D01*
X460171D02*
Y298425D01*
X461548Y297047D01*
X459712D01*
X458793Y296129D02*
X458334Y295670D01*
X457416D01*
X456957Y296129D01*
Y297966D01*
X457416Y298425D01*
X458334D01*
X458793Y297966D01*
Y297506D01*
X458334Y297047D01*
X456957D01*
X210563Y158268D02*
Y161023D01*
X209186D01*
X208726Y160564D01*
Y159646D01*
X209186Y159186D01*
X210563D01*
X209645D02*
X208726Y158268D01*
X206431D02*
Y161023D01*
X207808Y159646D01*
X205971D01*
X205053Y160564D02*
X204594Y161023D01*
X203676D01*
X203216Y160564D01*
Y160105D01*
X203676Y159646D01*
X204135D01*
X203676D01*
X203216Y159186D01*
Y158727D01*
X203676Y158268D01*
X204594D01*
X205053Y158727D01*
X210366Y136536D02*
Y139291D01*
X208989D01*
X208530Y138832D01*
Y137913D01*
X208989Y137454D01*
X210366D01*
X209448D02*
X208530Y136536D01*
X206234D02*
Y139291D01*
X207611Y137913D01*
X205775D01*
X203020Y136536D02*
X204856D01*
X203020Y138373D01*
Y138832D01*
X203479Y139291D01*
X204397D01*
X204856Y138832D01*
X169028Y150788D02*
Y153543D01*
X167650D01*
X167191Y153084D01*
Y152165D01*
X167650Y151706D01*
X169028D01*
X168109D02*
X167191Y150788D01*
X164895D02*
Y153543D01*
X166273Y152165D01*
X164436D01*
X163518Y153084D02*
X163058Y153543D01*
X162140D01*
X161681Y153084D01*
Y151247D01*
X162140Y150788D01*
X163058D01*
X163518Y151247D01*
Y153084D01*
X99278Y154396D02*
X98819Y154855D01*
Y155773D01*
X99278Y156232D01*
X101115D01*
X101574Y155773D01*
Y154855D01*
X101115Y154396D01*
X98819Y151641D02*
Y153477D01*
X100197D01*
X99738Y152559D01*
Y152100D01*
X100197Y151641D01*
X101115D01*
X101574Y152100D01*
Y153018D01*
X101115Y153477D01*
Y150722D02*
X101574Y150263D01*
Y149345D01*
X101115Y148886D01*
X99278D01*
X98819Y149345D01*
Y150263D01*
X99278Y150722D01*
X99738D01*
X100197Y150263D01*
Y148886D01*
X99278Y195734D02*
X98819Y196194D01*
Y197112D01*
X99278Y197571D01*
X101115D01*
X101574Y197112D01*
Y196194D01*
X101115Y195734D01*
X98819Y192979D02*
X99278Y193898D01*
X100197Y194816D01*
X101115D01*
X101574Y194357D01*
Y193438D01*
X101115Y192979D01*
X100656D01*
X100197Y193438D01*
Y194816D01*
X99278Y192061D02*
X98819Y191602D01*
Y190683D01*
X99278Y190224D01*
X101115D01*
X101574Y190683D01*
Y191602D01*
X101115Y192061D01*
X99278D01*
X482152Y125092D02*
X482611Y125551D01*
X483529D01*
X483988Y125092D01*
Y123255D01*
X483529Y122796D01*
X482611D01*
X482152Y123255D01*
X479397Y125551D02*
X481233D01*
Y124173D01*
X480315Y124632D01*
X479856D01*
X479397Y124173D01*
Y123255D01*
X479856Y122796D01*
X480774D01*
X481233Y123255D01*
X476642Y125551D02*
X478478D01*
Y124173D01*
X477560Y124632D01*
X477101D01*
X476642Y124173D01*
Y123255D01*
X477101Y122796D01*
X478019D01*
X478478Y123255D01*
X482152Y140879D02*
X482611Y141338D01*
X483529D01*
X483988Y140879D01*
Y139042D01*
X483529Y138583D01*
X482611D01*
X482152Y139042D01*
X479397Y141338D02*
X481233D01*
Y139961D01*
X480315Y140420D01*
X479856D01*
X479397Y139961D01*
Y139042D01*
X479856Y138583D01*
X480774D01*
X481233Y139042D01*
X477101Y138583D02*
Y141338D01*
X478478Y139961D01*
X476642D01*
X510689Y146194D02*
X511148Y146653D01*
X512066D01*
X512525Y146194D01*
Y144357D01*
X512066Y143898D01*
X511148D01*
X510689Y144357D01*
X507934Y146653D02*
X509770D01*
Y145276D01*
X508852Y145735D01*
X508393D01*
X507934Y145276D01*
Y144357D01*
X508393Y143898D01*
X509311D01*
X509770Y144357D01*
X507015Y143898D02*
X506097D01*
X506556D01*
Y146653D01*
X507015Y146194D01*
X521719Y142848D02*
X522178Y143307D01*
X523096D01*
X523555Y142848D01*
Y141011D01*
X523096Y140552D01*
X522178D01*
X521719Y141011D01*
X518964Y143307D02*
X520800D01*
Y141929D01*
X519882Y142388D01*
X519423D01*
X518964Y141929D01*
Y141011D01*
X519423Y140552D01*
X520341D01*
X520800Y141011D01*
X518045Y142848D02*
X517586Y143307D01*
X516668D01*
X516209Y142848D01*
Y141011D01*
X516668Y140552D01*
X517586D01*
X518045Y141011D01*
Y142848D01*
X510892Y236351D02*
X511351Y236811D01*
X512269D01*
X512729Y236351D01*
Y234515D01*
X512269Y234056D01*
X511351D01*
X510892Y234515D01*
X508596Y234056D02*
Y236811D01*
X509973Y235433D01*
X508137D01*
X507218Y236811D02*
X505382D01*
Y236351D01*
X507218Y234515D01*
Y234056D01*
X521325Y233202D02*
X521784Y233661D01*
X522702D01*
X523162Y233202D01*
Y231365D01*
X522702Y230906D01*
X521784D01*
X521325Y231365D01*
X519029Y230906D02*
Y233661D01*
X520406Y232283D01*
X518570D01*
X515815Y233661D02*
X516733Y233202D01*
X517652Y232283D01*
Y231365D01*
X517192Y230906D01*
X516274D01*
X515815Y231365D01*
Y231824D01*
X516274Y232283D01*
X517652D01*
X511006Y316703D02*
X511466Y317162D01*
X512384D01*
X512843Y316703D01*
Y314866D01*
X512384Y314407D01*
X511466D01*
X511006Y314866D01*
X508710Y314407D02*
Y317162D01*
X510088Y315785D01*
X508251D01*
X507333Y316703D02*
X506874Y317162D01*
X505956D01*
X505496Y316703D01*
Y316244D01*
X505956Y315785D01*
X506415D01*
X505956D01*
X505496Y315325D01*
Y314866D01*
X505956Y314407D01*
X506874D01*
X507333Y314866D01*
X521325Y313714D02*
X521784Y314173D01*
X522702D01*
X523162Y313714D01*
Y311877D01*
X522702Y311418D01*
X521784D01*
X521325Y311877D01*
X519029Y311418D02*
Y314173D01*
X520406Y312795D01*
X518570D01*
X515815Y311418D02*
X517652D01*
X515815Y313254D01*
Y313714D01*
X516274Y314173D01*
X517192D01*
X517652Y313714D01*
X173293Y169225D02*
X173752Y169685D01*
X174671D01*
X175130Y169225D01*
Y167389D01*
X174671Y166930D01*
X173752D01*
X173293Y167389D01*
X172375Y169225D02*
X171916Y169685D01*
X170998D01*
X170538Y169225D01*
Y168766D01*
X170998Y168307D01*
X171457D01*
X170998D01*
X170538Y167848D01*
Y167389D01*
X170998Y166930D01*
X171916D01*
X172375Y167389D01*
X167783Y169685D02*
X168702Y169225D01*
X169620Y168307D01*
Y167389D01*
X169161Y166930D01*
X168243D01*
X167783Y167389D01*
Y167848D01*
X168243Y168307D01*
X169620D01*
X481693Y246919D02*
X483530D01*
X484448Y247837D01*
X483530Y248756D01*
X481693D01*
X483071D01*
Y246919D01*
X484448Y249674D02*
X481693D01*
Y251051D01*
X482153Y251511D01*
X483989D01*
X484448Y251051D01*
Y249674D01*
X483989Y254266D02*
X484448Y253806D01*
Y252888D01*
X483989Y252429D01*
X482153D01*
X481693Y252888D01*
Y253806D01*
X482153Y254266D01*
X481693Y257021D02*
Y255184D01*
X483530Y257021D01*
X483989D01*
X484448Y256561D01*
Y255643D01*
X483989Y255184D01*
X483071Y257939D02*
Y259776D01*
X481693Y260694D02*
X483530D01*
X484448Y261612D01*
X483530Y262531D01*
X481693D01*
X483071D01*
Y260694D01*
X481693Y265286D02*
Y263449D01*
X483530Y265286D01*
X483989D01*
X484448Y264827D01*
Y263908D01*
X483989Y263449D01*
X491536Y247181D02*
X493373D01*
X494291Y248100D01*
X493373Y249018D01*
X491536D01*
X492913D01*
Y247181D01*
X494291Y249936D02*
X491536D01*
Y251314D01*
X491995Y251773D01*
X493832D01*
X494291Y251314D01*
Y249936D01*
X493832Y254528D02*
X494291Y254069D01*
Y253151D01*
X493832Y252691D01*
X491995D01*
X491536Y253151D01*
Y254069D01*
X491995Y254528D01*
X491536Y257283D02*
Y255446D01*
X493373Y257283D01*
X493832D01*
X494291Y256824D01*
Y255906D01*
X493832Y255446D01*
X492913Y258201D02*
Y260038D01*
X491536Y260956D02*
X493373D01*
X494291Y261875D01*
X493373Y262793D01*
X491536D01*
X492913D01*
Y260956D01*
X491536Y263711D02*
Y264630D01*
Y264171D01*
X494291D01*
X493832Y263711D01*
X501575Y245935D02*
X503412D01*
X504330Y246853D01*
X503412Y247771D01*
X501575D01*
X502953D01*
Y245935D01*
X504330Y248690D02*
X501575D01*
Y250067D01*
X502034Y250526D01*
X503871D01*
X504330Y250067D01*
Y248690D01*
X503871Y253281D02*
X504330Y252822D01*
Y251904D01*
X503871Y251445D01*
X502034D01*
X501575Y251904D01*
Y252822D01*
X502034Y253281D01*
X501575Y256036D02*
Y254200D01*
X503412Y256036D01*
X503871D01*
X504330Y255577D01*
Y254659D01*
X503871Y254200D01*
X502953Y256955D02*
Y258791D01*
X501575Y259710D02*
X503412D01*
X504330Y260628D01*
X503412Y261546D01*
X501575D01*
X502953D01*
Y259710D01*
X503871Y262465D02*
X504330Y262924D01*
Y263842D01*
X503871Y264301D01*
X502034D01*
X501575Y263842D01*
Y262924D01*
X502034Y262465D01*
X503871D01*
X479922Y314078D02*
X481758D01*
X482677Y314996D01*
X481758Y315914D01*
X479922D01*
X481299D01*
Y314078D01*
X482677Y316833D02*
X479922D01*
Y318210D01*
X480381Y318669D01*
X482218D01*
X482677Y318210D01*
Y316833D01*
X482218Y321424D02*
X482677Y320965D01*
Y320047D01*
X482218Y319588D01*
X480381D01*
X479922Y320047D01*
Y320965D01*
X480381Y321424D01*
X479922Y322343D02*
Y323261D01*
Y322802D01*
X482677D01*
X482218Y322343D01*
X481299Y324639D02*
Y326475D01*
X479922Y327394D02*
X481758D01*
X482677Y328312D01*
X481758Y329230D01*
X479922D01*
X481299D01*
Y327394D01*
X479922Y331985D02*
Y330149D01*
X481758Y331985D01*
X482218D01*
X482677Y331526D01*
Y330608D01*
X482218Y330149D01*
X489764Y314143D02*
X491601D01*
X492519Y315061D01*
X491601Y315980D01*
X489764D01*
X491142D01*
Y314143D01*
X492519Y316898D02*
X489764D01*
Y318276D01*
X490223Y318735D01*
X492060D01*
X492519Y318276D01*
Y316898D01*
X492060Y321490D02*
X492519Y321031D01*
Y320112D01*
X492060Y319653D01*
X490223D01*
X489764Y320112D01*
Y321031D01*
X490223Y321490D01*
X489764Y322408D02*
Y323326D01*
Y322867D01*
X492519D01*
X492060Y322408D01*
X491142Y324704D02*
Y326541D01*
X489764Y327459D02*
X491601D01*
X492519Y328377D01*
X491601Y329296D01*
X489764D01*
X491142D01*
Y327459D01*
X489764Y330214D02*
Y331132D01*
Y330673D01*
X492519D01*
X492060Y330214D01*
X500197Y314275D02*
X502034D01*
X502952Y315193D01*
X502034Y316111D01*
X500197D01*
X501575D01*
Y314275D01*
X502952Y317030D02*
X500197D01*
Y318407D01*
X500657Y318866D01*
X502493D01*
X502952Y318407D01*
Y317030D01*
X502493Y321621D02*
X502952Y321162D01*
Y320244D01*
X502493Y319785D01*
X500657D01*
X500197Y320244D01*
Y321162D01*
X500657Y321621D01*
X500197Y322540D02*
Y323458D01*
Y322999D01*
X502952D01*
X502493Y322540D01*
X501575Y324835D02*
Y326672D01*
X500197Y327590D02*
X502034D01*
X502952Y328509D01*
X502034Y329427D01*
X500197D01*
X501575D01*
Y327590D01*
X502493Y330346D02*
X502952Y330805D01*
Y331723D01*
X502493Y332182D01*
X500657D01*
X500197Y331723D01*
Y330805D01*
X500657Y330346D01*
X502493D01*
X11220Y209086D02*
X8465D01*
Y207708D01*
X8924Y207249D01*
X9843D01*
X10302Y207708D01*
Y209086D01*
Y208168D02*
X11220Y207249D01*
X9383Y206331D02*
X10761D01*
X11220Y205872D01*
Y204494D01*
X9383D01*
X11220Y203576D02*
Y202198D01*
X10761Y201739D01*
X10302Y202198D01*
Y203117D01*
X9843Y203576D01*
X9383Y203117D01*
Y201739D01*
X8465Y200821D02*
X11220D01*
Y199443D01*
X10761Y198984D01*
X10302D01*
X9843D01*
X9383Y199443D01*
Y200821D01*
X11220Y196229D02*
Y198066D01*
X9383Y196229D01*
X8924D01*
X8465Y196688D01*
Y197607D01*
X8924Y198066D01*
X11220Y224571D02*
X8465D01*
Y223194D01*
X8924Y222735D01*
X9843D01*
X10302Y223194D01*
Y224571D01*
Y223653D02*
X11220Y222735D01*
X9383Y221816D02*
X10761D01*
X11220Y221357D01*
Y219980D01*
X9383D01*
X11220Y219061D02*
Y217684D01*
X10761Y217225D01*
X10302Y217684D01*
Y218602D01*
X9843Y219061D01*
X9383Y218602D01*
Y217225D01*
X8465Y216306D02*
X11220D01*
Y214929D01*
X10761Y214470D01*
X10302D01*
X9843D01*
X9383Y214929D01*
Y216306D01*
X11220Y213551D02*
Y212633D01*
Y213092D01*
X8465D01*
X8924Y213551D01*
X56200Y119815D02*
X53445D01*
Y118438D01*
X53904Y117978D01*
X54823D01*
X55282Y118438D01*
Y119815D01*
Y118897D02*
X56200Y117978D01*
Y115223D02*
Y117060D01*
X54364Y115223D01*
X53904D01*
X53445Y115683D01*
Y116601D01*
X53904Y117060D01*
Y114305D02*
X53445Y113846D01*
Y112927D01*
X53904Y112468D01*
X54364D01*
X54823Y112927D01*
Y113387D01*
Y112927D01*
X55282Y112468D01*
X55741D01*
X56200Y112927D01*
Y113846D01*
X55741Y114305D01*
X45539Y92716D02*
Y89961D01*
X46917D01*
X47376Y90420D01*
Y91339D01*
X46917Y91798D01*
X45539D01*
X46458D02*
X47376Y92716D01*
X50131D02*
X48294D01*
X50131Y90879D01*
Y90420D01*
X49672Y89961D01*
X48753D01*
X48294Y90420D01*
X52886Y92716D02*
X51049D01*
X52886Y90879D01*
Y90420D01*
X52427Y89961D01*
X51508D01*
X51049Y90420D01*
X25787Y103838D02*
X23032D01*
Y102460D01*
X23491Y102001D01*
X24409D01*
X24869Y102460D01*
Y103838D01*
Y102919D02*
X25787Y102001D01*
Y101082D02*
Y100164D01*
Y100623D01*
X23032D01*
X23491Y101082D01*
X23032Y98787D02*
Y96950D01*
X23491D01*
X25328Y98787D01*
X25787D01*
X25787Y82184D02*
X23032D01*
Y80806D01*
X23491Y80347D01*
X24409D01*
X24869Y80806D01*
Y82184D01*
Y81266D02*
X25787Y80347D01*
Y79429D02*
Y78511D01*
Y78970D01*
X23032D01*
X23491Y79429D01*
X23032Y75296D02*
X23491Y76215D01*
X24409Y77133D01*
X25328D01*
X25787Y76674D01*
Y75756D01*
X25328Y75296D01*
X24869D01*
X24409Y75756D01*
Y77133D01*
X123522Y215158D02*
Y217913D01*
X122145D01*
X121686Y217454D01*
Y216535D01*
X122145Y216076D01*
X123522D01*
X122604D02*
X121686Y215158D01*
X120767D02*
X119849D01*
X120308D01*
Y217913D01*
X120767Y217454D01*
X118472D02*
X118012Y217913D01*
X117094D01*
X116635Y217454D01*
Y216995D01*
X117094Y216535D01*
X117553D01*
X117094D01*
X116635Y216076D01*
Y215617D01*
X117094Y215158D01*
X118012D01*
X118472Y215617D01*
X143208Y214370D02*
Y217126D01*
X141830D01*
X141371Y216666D01*
Y215748D01*
X141830Y215289D01*
X143208D01*
X142289D02*
X141371Y214370D01*
X140453D02*
X139534D01*
X139993D01*
Y217126D01*
X140453Y216666D01*
X136320Y214370D02*
X138157D01*
X136320Y216207D01*
Y216666D01*
X136779Y217126D01*
X137698D01*
X138157Y216666D01*
X22965Y89567D02*
Y87599D01*
X21654D01*
X20998D02*
X20342D01*
X20670D01*
Y89567D01*
X20998Y89239D01*
X13648Y102099D02*
X14107Y102559D01*
X15025D01*
X15484Y102099D01*
Y100263D01*
X15025Y99804D01*
X14107D01*
X13648Y100263D01*
X12729Y102099D02*
X12270Y102559D01*
X11352D01*
X10893Y102099D01*
Y101640D01*
X11352Y101181D01*
X11811D01*
X11352D01*
X10893Y100722D01*
Y100263D01*
X11352Y99804D01*
X12270D01*
X12729Y100263D01*
X8138Y99804D02*
X9974D01*
X8138Y101640D01*
Y102099D01*
X8597Y102559D01*
X9515D01*
X9974Y102099D01*
X13189Y76903D02*
X13648Y77362D01*
X14566D01*
X15025Y76903D01*
Y75066D01*
X14566Y74607D01*
X13648D01*
X13189Y75066D01*
X12270Y76903D02*
X11811Y77362D01*
X10893D01*
X10434Y76903D01*
Y76443D01*
X10893Y75984D01*
X11352D01*
X10893D01*
X10434Y75525D01*
Y75066D01*
X10893Y74607D01*
X11811D01*
X12270Y75066D01*
X9515Y74607D02*
X8597D01*
X9056D01*
Y77362D01*
X9515Y76903D01*
X108924Y80577D02*
X108465Y81036D01*
Y81954D01*
X108924Y82414D01*
X110761D01*
X111220Y81954D01*
Y81036D01*
X110761Y80577D01*
X111220Y77822D02*
Y79659D01*
X109383Y77822D01*
X108924D01*
X108465Y78281D01*
Y79199D01*
X108924Y79659D01*
Y76903D02*
X108465Y76444D01*
Y75526D01*
X108924Y75067D01*
X109383D01*
X109843Y75526D01*
Y75985D01*
Y75526D01*
X110302Y75067D01*
X110761D01*
X111220Y75526D01*
Y76444D01*
X110761Y76903D01*
X107743Y90419D02*
X107284Y90878D01*
Y91797D01*
X107743Y92256D01*
X109580D01*
X110039Y91797D01*
Y90878D01*
X109580Y90419D01*
X110039Y87664D02*
Y89501D01*
X108202Y87664D01*
X107743D01*
X107284Y88124D01*
Y89042D01*
X107743Y89501D01*
X110039Y84909D02*
Y86746D01*
X108202Y84909D01*
X107743D01*
X107284Y85369D01*
Y86287D01*
X107743Y86746D01*
X109712Y99803D02*
X109252Y100262D01*
Y101180D01*
X109712Y101639D01*
X111548D01*
X112007Y101180D01*
Y100262D01*
X111548Y99803D01*
X112007Y97048D02*
Y98884D01*
X110171Y97048D01*
X109712D01*
X109252Y97507D01*
Y98425D01*
X109712Y98884D01*
X112007Y96129D02*
Y95211D01*
Y95670D01*
X109252D01*
X109712Y96129D01*
X72966Y61155D02*
X73425Y60696D01*
Y59778D01*
X72966Y59319D01*
X71129D01*
X70670Y59778D01*
Y60696D01*
X71129Y61155D01*
X70670Y63911D02*
Y62074D01*
X72506Y63911D01*
X72966D01*
X73425Y63451D01*
Y62533D01*
X72966Y62074D01*
Y64829D02*
X73425Y65288D01*
Y66206D01*
X72966Y66666D01*
X71129D01*
X70670Y66206D01*
Y65288D01*
X71129Y64829D01*
X72966D01*
X84284Y77473D02*
X84743Y77933D01*
X85662D01*
X86121Y77473D01*
Y75637D01*
X85662Y75178D01*
X84743D01*
X84284Y75637D01*
X83366Y75178D02*
X82448D01*
X82907D01*
Y77933D01*
X83366Y77473D01*
X81070Y75637D02*
X80611Y75178D01*
X79693D01*
X79233Y75637D01*
Y77473D01*
X79693Y77933D01*
X80611D01*
X81070Y77473D01*
Y77014D01*
X80611Y76555D01*
X79233D01*
X85072Y99344D02*
X85531Y99803D01*
X86449D01*
X86908Y99344D01*
Y97507D01*
X86449Y97048D01*
X85531D01*
X85072Y97507D01*
X84153Y97048D02*
X83235D01*
X83694D01*
Y99803D01*
X84153Y99344D01*
X81858D02*
X81398Y99803D01*
X80480D01*
X80021Y99344D01*
Y98884D01*
X80480Y98425D01*
X80021Y97966D01*
Y97507D01*
X80480Y97048D01*
X81398D01*
X81858Y97507D01*
Y97966D01*
X81398Y98425D01*
X81858Y98884D01*
Y99344D01*
X81398Y98425D02*
X80480D01*
X140814Y254396D02*
X140355Y254855D01*
Y255774D01*
X140814Y256233D01*
X142651D01*
X143110Y255774D01*
Y254855D01*
X142651Y254396D01*
X140355Y253478D02*
Y251641D01*
X140814D01*
X142651Y253478D01*
X143110D01*
M02*
