G04*
G04 #@! TF.GenerationSoftware,Altium Limited,Altium Designer,21.3.2 (30)*
G04*
G04 Layer_Color=65535*
%FSLAX25Y25*%
%MOIN*%
G70*
G04*
G04 #@! TF.SameCoordinates,06CA3BE7-F167-48F9-AA53-4FDEF555C1C3*
G04*
G04*
G04 #@! TF.FilePolarity,Positive*
G04*
G01*
G75*
%ADD10C,0.00984*%
%ADD11C,0.00394*%
%ADD12C,0.01000*%
%ADD13C,0.00787*%
%ADD14C,0.01575*%
%ADD15C,0.00500*%
%ADD16R,0.05118X0.00803*%
%ADD17R,0.00803X0.05118*%
%ADD18R,0.05118X0.00803*%
%ADD19R,0.07284X0.03866*%
G36*
X696541Y54331D02*
X695298D01*
X692201Y61778D01*
X693769D01*
X695929Y56271D01*
X698128Y61778D01*
X699648D01*
X696541Y54331D01*
D02*
G37*
G36*
X541631Y58049D02*
Y58040D01*
Y58011D01*
Y57954D01*
Y57887D01*
X541621Y57811D01*
X541612Y57705D01*
X541602Y57591D01*
X541593Y57466D01*
X541573Y57333D01*
X541554Y57189D01*
X541497Y56874D01*
X541421Y56539D01*
X541325Y56195D01*
X541191Y55841D01*
X541029Y55507D01*
X540933Y55344D01*
X540828Y55191D01*
X540703Y55048D01*
X540579Y54914D01*
X540445Y54790D01*
X540302Y54675D01*
X540139Y54579D01*
X539967Y54493D01*
X539786Y54426D01*
X539585Y54369D01*
X539375Y54340D01*
X539145Y54331D01*
X539088D01*
X539031Y54340D01*
X538944Y54350D01*
X538839Y54359D01*
X538715Y54378D01*
X538591Y54407D01*
X538447Y54445D01*
X538294Y54493D01*
X538141Y54560D01*
X537989Y54637D01*
X537836Y54723D01*
X537683Y54828D01*
X537539Y54952D01*
X537405Y55095D01*
X537281Y55258D01*
X537271Y55248D01*
X537252Y55220D01*
X537214Y55172D01*
X537166Y55115D01*
X537099Y55048D01*
X537023Y54962D01*
X536927Y54885D01*
X536813Y54799D01*
X536688Y54703D01*
X536554Y54627D01*
X536402Y54551D01*
X536230Y54474D01*
X536048Y54417D01*
X535857Y54369D01*
X535646Y54340D01*
X535417Y54331D01*
X535359D01*
X535312Y54340D01*
X535254Y54350D01*
X535187Y54359D01*
X535025Y54388D01*
X534843Y54445D01*
X534633Y54532D01*
X534404Y54646D01*
X534289Y54713D01*
X534174Y54799D01*
X534059Y54885D01*
X533945Y54990D01*
X533830Y55105D01*
X533715Y55239D01*
X533610Y55382D01*
X533505Y55535D01*
X533409Y55707D01*
X533323Y55899D01*
X533237Y56109D01*
X533161Y56329D01*
X533094Y56568D01*
X533036Y56826D01*
X532989Y57103D01*
X532960Y57399D01*
X532941Y57715D01*
X532931Y58049D01*
Y61778D01*
X534174D01*
Y58049D01*
Y58040D01*
Y58021D01*
Y57992D01*
Y57944D01*
X534184Y57887D01*
Y57820D01*
X534193Y57667D01*
X534212Y57476D01*
X534241Y57266D01*
X534279Y57046D01*
X534327Y56816D01*
X534394Y56577D01*
X534480Y56357D01*
X534576Y56147D01*
X534700Y55966D01*
X534843Y55803D01*
X534920Y55736D01*
X535006Y55679D01*
X535101Y55631D01*
X535197Y55602D01*
X535302Y55583D01*
X535417Y55573D01*
X535426D01*
X535465Y55583D01*
X535532Y55593D01*
X535608Y55612D01*
X535694Y55650D01*
X535799Y55698D01*
X535914Y55774D01*
X536029Y55870D01*
X536134Y55994D01*
X536249Y56147D01*
X536354Y56338D01*
X536402Y56444D01*
X536449Y56568D01*
X536488Y56692D01*
X536535Y56835D01*
X536564Y56988D01*
X536593Y57151D01*
X536621Y57323D01*
X536641Y57514D01*
X536650Y57715D01*
X536660Y57925D01*
Y58049D01*
Y61778D01*
X537902D01*
Y58049D01*
Y58040D01*
Y58021D01*
Y57992D01*
Y57944D01*
X537912Y57887D01*
Y57820D01*
X537922Y57667D01*
X537941Y57476D01*
X537969Y57266D01*
X538008Y57046D01*
X538055Y56816D01*
X538122Y56577D01*
X538208Y56357D01*
X538304Y56147D01*
X538428Y55966D01*
X538572Y55803D01*
X538648Y55736D01*
X538734Y55679D01*
X538830Y55631D01*
X538925Y55602D01*
X539031Y55583D01*
X539145Y55573D01*
X539155D01*
X539203Y55583D01*
X539260Y55593D01*
X539336Y55612D01*
X539432Y55650D01*
X539537Y55707D01*
X539652Y55784D01*
X539767Y55879D01*
X539881Y56013D01*
X539996Y56176D01*
X540054Y56271D01*
X540101Y56376D01*
X540149Y56491D01*
X540197Y56616D01*
X540235Y56759D01*
X540273Y56902D01*
X540312Y57065D01*
X540331Y57237D01*
X540359Y57419D01*
X540379Y57610D01*
X540388Y57830D01*
Y58049D01*
Y61778D01*
X541631D01*
Y58049D01*
D02*
G37*
G36*
X641896Y58050D02*
Y58040D01*
Y58011D01*
Y57954D01*
X641887Y57887D01*
Y57811D01*
X641867Y57705D01*
X641858Y57591D01*
X641839Y57466D01*
X641810Y57333D01*
X641781Y57189D01*
X641695Y56874D01*
X641648Y56711D01*
X641581Y56539D01*
X641514Y56367D01*
X641428Y56195D01*
X641342Y56013D01*
X641236Y55841D01*
X641112Y55669D01*
X640988Y55507D01*
X640844Y55344D01*
X640682Y55191D01*
X640510Y55048D01*
X640328Y54914D01*
X640118Y54790D01*
X639898Y54675D01*
X639659Y54579D01*
X639401Y54493D01*
X639124Y54426D01*
X638827Y54369D01*
X638502Y54340D01*
X638168Y54331D01*
X638072D01*
X638005Y54340D01*
X637929Y54350D01*
X637824Y54359D01*
X637709Y54369D01*
X637585Y54388D01*
X637451Y54417D01*
X637307Y54445D01*
X636992Y54532D01*
X636657Y54646D01*
X636485Y54713D01*
X636313Y54799D01*
X636131Y54885D01*
X635959Y54990D01*
X635787Y55105D01*
X635625Y55239D01*
X635462Y55382D01*
X635309Y55535D01*
X635166Y55707D01*
X635032Y55899D01*
X634908Y56109D01*
X634793Y56329D01*
X634697Y56568D01*
X634611Y56826D01*
X634545Y57103D01*
X634487Y57399D01*
X634458Y57715D01*
X634449Y58050D01*
Y61778D01*
X635692D01*
Y58050D01*
Y58040D01*
Y58021D01*
Y57992D01*
X635701Y57944D01*
Y57887D01*
X635711Y57820D01*
X635730Y57658D01*
X635768Y57476D01*
X635825Y57266D01*
X635902Y57036D01*
X635998Y56807D01*
X636131Y56577D01*
X636294Y56348D01*
X636390Y56243D01*
X636495Y56138D01*
X636610Y56042D01*
X636734Y55956D01*
X636877Y55870D01*
X637020Y55793D01*
X637183Y55726D01*
X637355Y55669D01*
X637537Y55621D01*
X637728Y55593D01*
X637938Y55573D01*
X638168Y55564D01*
X638225D01*
X638273Y55573D01*
X638330D01*
X638397Y55583D01*
X638560Y55602D01*
X638741Y55640D01*
X638952Y55698D01*
X639181Y55774D01*
X639410Y55879D01*
X639640Y56004D01*
X639869Y56176D01*
X639975Y56271D01*
X640080Y56377D01*
X640175Y56491D01*
X640261Y56616D01*
X640347Y56749D01*
X640424Y56893D01*
X640491Y57055D01*
X640548Y57227D01*
X640596Y57419D01*
X640625Y57610D01*
X640644Y57820D01*
X640653Y58050D01*
Y61778D01*
X641896D01*
Y58050D01*
D02*
G37*
G36*
X720623Y61768D02*
X720709D01*
X720804Y61749D01*
X720919Y61740D01*
X721043Y61721D01*
X721177Y61692D01*
X721321Y61663D01*
X721636Y61577D01*
X721808Y61529D01*
X721980Y61462D01*
X722152Y61396D01*
X722324Y61310D01*
X722497Y61224D01*
X722669Y61118D01*
X722841Y60994D01*
X723013Y60870D01*
X723166Y60726D01*
X723328Y60564D01*
X723472Y60392D01*
X723605Y60210D01*
X723730Y60000D01*
X723844Y59780D01*
X723940Y59541D01*
X724026Y59283D01*
X724093Y59006D01*
X724150Y58709D01*
X724179Y58384D01*
X724189Y58050D01*
Y58040D01*
Y58011D01*
Y57954D01*
X724179Y57887D01*
Y57811D01*
X724160Y57705D01*
X724150Y57591D01*
X724131Y57466D01*
X724103Y57333D01*
X724074Y57189D01*
X723988Y56874D01*
X723940Y56711D01*
X723873Y56539D01*
X723806Y56367D01*
X723720Y56195D01*
X723634Y56013D01*
X723529Y55841D01*
X723405Y55669D01*
X723280Y55507D01*
X723137Y55344D01*
X722974Y55191D01*
X722802Y55048D01*
X722621Y54914D01*
X722410Y54790D01*
X722191Y54675D01*
X721952Y54579D01*
X721694Y54493D01*
X721416Y54426D01*
X721120Y54369D01*
X720795Y54340D01*
X720460Y54331D01*
Y55574D01*
X720518D01*
X720565Y55583D01*
X720623D01*
X720690Y55593D01*
X720852Y55612D01*
X721034Y55650D01*
X721244Y55707D01*
X721474Y55784D01*
X721703Y55879D01*
X721933Y56013D01*
X722162Y56176D01*
X722267Y56271D01*
X722372Y56377D01*
X722468Y56491D01*
X722554Y56616D01*
X722640Y56759D01*
X722716Y56902D01*
X722783Y57065D01*
X722841Y57237D01*
X722889Y57419D01*
X722917Y57610D01*
X722936Y57820D01*
X722946Y58050D01*
Y58059D01*
Y58078D01*
Y58107D01*
Y58155D01*
X722936Y58212D01*
X722927Y58279D01*
X722908Y58442D01*
X722869Y58623D01*
X722812Y58833D01*
X722736Y59063D01*
X722640Y59292D01*
X722506Y59522D01*
X722343Y59751D01*
X722248Y59856D01*
X722143Y59962D01*
X722018Y60057D01*
X721894Y60143D01*
X721760Y60229D01*
X721617Y60306D01*
X721454Y60373D01*
X721282Y60430D01*
X721101Y60478D01*
X720900Y60506D01*
X720690Y60526D01*
X720460Y60535D01*
Y61778D01*
X720556D01*
X720623Y61768D01*
D02*
G37*
G36*
X716837D02*
X716894D01*
X716961Y61749D01*
X717124Y61721D01*
X717305Y61663D01*
X717516Y61577D01*
X717630Y61529D01*
X717745Y61462D01*
X717860Y61396D01*
X717975Y61310D01*
X718089Y61224D01*
X718204Y61118D01*
X718319Y60994D01*
X718434Y60870D01*
X718539Y60726D01*
X718644Y60564D01*
X718739Y60392D01*
X718825Y60210D01*
X718912Y60000D01*
X718988Y59780D01*
X719055Y59541D01*
X719112Y59283D01*
X719160Y59006D01*
X719189Y58709D01*
X719208Y58384D01*
X719217Y58050D01*
Y54331D01*
X717975D01*
Y58050D01*
Y58059D01*
Y58078D01*
Y58107D01*
Y58155D01*
Y58212D01*
X717965Y58279D01*
X717955Y58442D01*
X717936Y58623D01*
X717908Y58833D01*
X717870Y59063D01*
X717822Y59292D01*
X717755Y59522D01*
X717669Y59751D01*
X717573Y59962D01*
X717449Y60143D01*
X717305Y60306D01*
X717229Y60373D01*
X717143Y60430D01*
X717047Y60478D01*
X716952Y60506D01*
X716847Y60526D01*
X716732Y60535D01*
X716110D01*
Y61778D01*
X716789D01*
X716837Y61768D01*
D02*
G37*
G36*
X713625Y60535D02*
X710977D01*
X710910Y60526D01*
X710757Y60516D01*
X710566Y60497D01*
X710355Y60468D01*
X710135Y60430D01*
X709906Y60382D01*
X709667Y60315D01*
X709447Y60229D01*
X709237Y60134D01*
X709055Y60009D01*
X708893Y59866D01*
X708826Y59790D01*
X708768Y59703D01*
X708720Y59608D01*
X708692Y59512D01*
X708673Y59407D01*
X708663Y59292D01*
Y55573D01*
X711244D01*
X711302Y55583D01*
X711369D01*
X711531Y55593D01*
X711713Y55612D01*
X711923Y55641D01*
X712153Y55679D01*
X712382Y55726D01*
X712611Y55793D01*
X712841Y55879D01*
X713051Y55975D01*
X713233Y56099D01*
X713395Y56243D01*
X713462Y56319D01*
X713520Y56405D01*
X713567Y56501D01*
X713596Y56596D01*
X713615Y56702D01*
X713625Y56816D01*
Y56826D01*
Y56874D01*
X713606Y56931D01*
X713587Y57007D01*
X713548Y57103D01*
X713491Y57208D01*
X713414Y57323D01*
X713319Y57438D01*
X713185Y57552D01*
X713023Y57667D01*
X712927Y57724D01*
X712822Y57772D01*
X712698Y57820D01*
X712573Y57868D01*
X712439Y57906D01*
X712296Y57944D01*
X712134Y57983D01*
X711961Y58002D01*
X711780Y58030D01*
X711579Y58050D01*
X711369Y58059D01*
X709896D01*
Y59302D01*
X711302D01*
X711388Y59292D01*
X711483Y59283D01*
X711598Y59273D01*
X711722Y59264D01*
X711856Y59245D01*
X712000Y59225D01*
X712315Y59168D01*
X712659Y59092D01*
X713003Y58996D01*
X713348Y58862D01*
X713692Y58700D01*
X713845Y58604D01*
X714007Y58499D01*
X714151Y58375D01*
X714285Y58250D01*
X714409Y58117D01*
X714524Y57973D01*
X714619Y57811D01*
X714705Y57639D01*
X714772Y57457D01*
X714829Y57256D01*
X714858Y57046D01*
X714868Y56816D01*
Y56807D01*
Y56788D01*
Y56759D01*
X714858Y56711D01*
Y56654D01*
X714839Y56587D01*
X714810Y56424D01*
X714753Y56243D01*
X714667Y56032D01*
X714619Y55918D01*
X714552Y55803D01*
X714485Y55688D01*
X714399Y55573D01*
X714313Y55459D01*
X714208Y55344D01*
X714084Y55229D01*
X713959Y55115D01*
X713816Y55010D01*
X713654Y54904D01*
X713481Y54809D01*
X713300Y54723D01*
X713090Y54637D01*
X712870Y54560D01*
X712631Y54493D01*
X712372Y54436D01*
X712095Y54388D01*
X711799Y54359D01*
X711474Y54340D01*
X711139Y54331D01*
X707420D01*
Y59292D01*
Y59302D01*
Y59321D01*
Y59350D01*
X707430Y59398D01*
X707440Y59455D01*
X707449Y59522D01*
X707478Y59684D01*
X707535Y59866D01*
X707621Y60076D01*
X707736Y60306D01*
X707803Y60421D01*
X707889Y60535D01*
X707975Y60650D01*
X708080Y60765D01*
X708195Y60879D01*
X708329Y60994D01*
X708472Y61099D01*
X708625Y61204D01*
X708797Y61300D01*
X708988Y61386D01*
X709199Y61472D01*
X709418Y61549D01*
X709657Y61616D01*
X709915Y61673D01*
X710193Y61721D01*
X710489Y61749D01*
X710805Y61768D01*
X711139Y61778D01*
X713625D01*
Y60535D01*
D02*
G37*
G36*
X690958D02*
X687067D01*
X687000Y60526D01*
X686847Y60516D01*
X686656Y60497D01*
X686446Y60468D01*
X686226Y60430D01*
X685996Y60382D01*
X685757Y60315D01*
X685537Y60229D01*
X685327Y60134D01*
X685146Y60009D01*
X684983Y59866D01*
X684916Y59790D01*
X684859Y59703D01*
X684811Y59608D01*
X684782Y59512D01*
X684763Y59407D01*
X684754Y59292D01*
Y58853D01*
X684763Y58862D01*
X684792Y58872D01*
X684849Y58891D01*
X684916Y58920D01*
X685012Y58958D01*
X685117Y58996D01*
X685251Y59034D01*
X685404Y59082D01*
X685566Y59120D01*
X685757Y59158D01*
X685958Y59197D01*
X686178Y59235D01*
X686417Y59264D01*
X686675Y59283D01*
X686943Y59302D01*
X689715D01*
Y58059D01*
X687067D01*
X687010Y58050D01*
X686847Y58040D01*
X686666Y58021D01*
X686465Y57992D01*
X686245Y57964D01*
X686016Y57916D01*
X685786Y57849D01*
X685566Y57772D01*
X685356Y57677D01*
X685165Y57562D01*
X685002Y57428D01*
X684935Y57352D01*
X684878Y57266D01*
X684830Y57180D01*
X684792Y57084D01*
X684763Y56979D01*
X684754Y56874D01*
Y56816D01*
Y56807D01*
X684763Y56759D01*
X684773Y56702D01*
X684792Y56625D01*
X684830Y56529D01*
X684888Y56424D01*
X684964Y56310D01*
X685059Y56195D01*
X685193Y56080D01*
X685356Y55966D01*
X685452Y55918D01*
X685557Y55860D01*
X685671Y55813D01*
X685796Y55765D01*
X685939Y55726D01*
X686083Y55688D01*
X686245Y55660D01*
X686417Y55631D01*
X686599Y55602D01*
X686790Y55583D01*
X687010Y55573D01*
X690958D01*
Y54331D01*
X687134D01*
X687067Y54340D01*
X686991D01*
X686885Y54350D01*
X686771Y54359D01*
X686647Y54369D01*
X686513Y54388D01*
X686369Y54407D01*
X686054Y54465D01*
X685719Y54541D01*
X685375Y54637D01*
X685021Y54770D01*
X684687Y54933D01*
X684524Y55029D01*
X684371Y55134D01*
X684228Y55248D01*
X684094Y55373D01*
X683970Y55516D01*
X683855Y55660D01*
X683759Y55822D01*
X683673Y55994D01*
X683606Y56176D01*
X683549Y56367D01*
X683520Y56577D01*
X683511Y56807D01*
Y59292D01*
Y59302D01*
Y59321D01*
Y59350D01*
X683520Y59398D01*
X683530Y59455D01*
X683539Y59522D01*
X683568Y59684D01*
X683626Y59866D01*
X683712Y60076D01*
X683826Y60306D01*
X683893Y60421D01*
X683979Y60535D01*
X684065Y60650D01*
X684170Y60765D01*
X684285Y60879D01*
X684419Y60994D01*
X684562Y61099D01*
X684715Y61204D01*
X684888Y61300D01*
X685079Y61386D01*
X685289Y61472D01*
X685509Y61549D01*
X685748Y61616D01*
X686006Y61673D01*
X686283Y61721D01*
X686580Y61749D01*
X686895Y61768D01*
X687230Y61778D01*
X690958D01*
Y60535D01*
D02*
G37*
G36*
X678788Y61768D02*
X678884Y61759D01*
X678999Y61749D01*
X679123Y61740D01*
X679257Y61721D01*
X679400Y61702D01*
X679715Y61644D01*
X680060Y61568D01*
X680404Y61472D01*
X680748Y61338D01*
X681092Y61176D01*
X681245Y61080D01*
X681408Y60975D01*
X681551Y60851D01*
X681685Y60726D01*
X681809Y60593D01*
X681924Y60449D01*
X682020Y60287D01*
X682105Y60115D01*
X682172Y59933D01*
X682230Y59732D01*
X682259Y59522D01*
X682268Y59292D01*
Y59283D01*
Y59235D01*
X682259Y59178D01*
Y59092D01*
X682239Y58987D01*
X682220Y58872D01*
X682192Y58738D01*
X682153Y58595D01*
X682105Y58451D01*
X682039Y58298D01*
X681962Y58136D01*
X681876Y57983D01*
X681761Y57839D01*
X681637Y57696D01*
X681494Y57562D01*
X681331Y57438D01*
X681341Y57428D01*
X681369Y57409D01*
X681417Y57371D01*
X681474Y57323D01*
X681551Y57256D01*
X681628Y57180D01*
X681713Y57084D01*
X681800Y56969D01*
X681886Y56845D01*
X681972Y56711D01*
X682048Y56558D01*
X682125Y56386D01*
X682182Y56204D01*
X682230Y56013D01*
X682259Y55803D01*
X682268Y55573D01*
Y54331D01*
X681025D01*
Y55573D01*
Y55583D01*
Y55631D01*
X681006Y55688D01*
X680987Y55765D01*
X680949Y55860D01*
X680891Y55966D01*
X680815Y56080D01*
X680719Y56195D01*
X680585Y56310D01*
X680423Y56424D01*
X680327Y56482D01*
X680222Y56529D01*
X680098Y56577D01*
X679974Y56625D01*
X679840Y56663D01*
X679696Y56702D01*
X679534Y56740D01*
X679362Y56759D01*
X679180Y56788D01*
X678979Y56807D01*
X678769Y56816D01*
X674821D01*
Y58059D01*
X678645D01*
X678702Y58069D01*
X678769D01*
X678932Y58078D01*
X679113Y58097D01*
X679323Y58126D01*
X679553Y58164D01*
X679782Y58212D01*
X680012Y58279D01*
X680241Y58365D01*
X680452Y58461D01*
X680633Y58575D01*
X680796Y58719D01*
X680863Y58805D01*
X680920Y58881D01*
X680968Y58977D01*
X680997Y59073D01*
X681016Y59178D01*
X681025Y59292D01*
Y59302D01*
Y59350D01*
X681006Y59407D01*
X680987Y59484D01*
X680949Y59579D01*
X680891Y59684D01*
X680815Y59799D01*
X680719Y59914D01*
X680585Y60028D01*
X680423Y60143D01*
X680327Y60201D01*
X680222Y60248D01*
X680098Y60296D01*
X679974Y60344D01*
X679840Y60382D01*
X679696Y60421D01*
X679534Y60459D01*
X679362Y60478D01*
X679180Y60506D01*
X678979Y60526D01*
X678769Y60535D01*
X674821D01*
Y61778D01*
X678702D01*
X678788Y61768D01*
D02*
G37*
G36*
X673568Y60535D02*
X673463D01*
X673406Y60526D01*
X673339Y60516D01*
X673186Y60497D01*
X672995Y60459D01*
X672785Y60401D01*
X672565Y60325D01*
X672335Y60229D01*
X672096Y60095D01*
X671876Y59933D01*
X671771Y59837D01*
X671666Y59732D01*
X671570Y59608D01*
X671484Y59484D01*
X671398Y59350D01*
X671322Y59206D01*
X671255Y59044D01*
X671198Y58872D01*
X671150Y58690D01*
X671121Y58489D01*
X671102Y58279D01*
X671092Y58050D01*
Y58040D01*
Y58021D01*
Y57992D01*
X671102Y57944D01*
Y57887D01*
X671111Y57820D01*
X671131Y57667D01*
X671169Y57476D01*
X671226Y57266D01*
X671303Y57046D01*
X671398Y56816D01*
X671532Y56577D01*
X671695Y56358D01*
X671790Y56252D01*
X671895Y56147D01*
X672010Y56051D01*
X672134Y55966D01*
X672278Y55879D01*
X672421Y55803D01*
X672584Y55736D01*
X672756Y55679D01*
X672937Y55631D01*
X673129Y55602D01*
X673339Y55583D01*
X673568Y55573D01*
Y54331D01*
X673473D01*
X673406Y54340D01*
X673329Y54350D01*
X673224Y54359D01*
X673109Y54369D01*
X672985Y54388D01*
X672851Y54417D01*
X672708Y54445D01*
X672393Y54532D01*
X672058Y54646D01*
X671886Y54713D01*
X671714Y54799D01*
X671532Y54885D01*
X671360Y54990D01*
X671188Y55105D01*
X671026Y55239D01*
X670863Y55382D01*
X670710Y55535D01*
X670567Y55707D01*
X670433Y55899D01*
X670308Y56109D01*
X670194Y56329D01*
X670098Y56568D01*
X670012Y56826D01*
X669945Y57103D01*
X669888Y57399D01*
X669859Y57715D01*
X669850Y58050D01*
Y58059D01*
Y58088D01*
Y58145D01*
X669859Y58212D01*
X669869Y58298D01*
X669878Y58394D01*
X669888Y58508D01*
X669907Y58633D01*
X669936Y58767D01*
X669964Y58910D01*
X670050Y59225D01*
X670165Y59570D01*
X670232Y59742D01*
X670318Y59914D01*
X670404Y60086D01*
X670509Y60258D01*
X670624Y60430D01*
X670758Y60602D01*
X670901Y60755D01*
X671054Y60918D01*
X671226Y61061D01*
X671417Y61195D01*
X671628Y61319D01*
X671848Y61434D01*
X672087Y61529D01*
X672345Y61616D01*
X672622Y61682D01*
X672918Y61740D01*
X673234Y61768D01*
X673568Y61778D01*
Y60535D01*
D02*
G37*
G36*
X662077D02*
X658664D01*
Y54331D01*
X657422Y54331D01*
Y60535D01*
X654315D01*
Y61778D01*
X662077Y61778D01*
Y60535D01*
D02*
G37*
G36*
X653072Y54331D02*
X651829D01*
Y61778D01*
X653072D01*
Y54331D01*
D02*
G37*
G36*
X647020Y61768D02*
X647106D01*
X647202Y61749D01*
X647317Y61740D01*
X647441Y61721D01*
X647575Y61692D01*
X647718Y61663D01*
X648034Y61577D01*
X648206Y61529D01*
X648378Y61462D01*
X648550Y61396D01*
X648722Y61309D01*
X648894Y61224D01*
X649066Y61118D01*
X649238Y60994D01*
X649410Y60870D01*
X649563Y60726D01*
X649726Y60564D01*
X649869Y60392D01*
X650003Y60210D01*
X650127Y60000D01*
X650242Y59780D01*
X650338Y59541D01*
X650424Y59283D01*
X650491Y59006D01*
X650548Y58709D01*
X650577Y58384D01*
X650586Y58050D01*
Y54331D01*
X649343D01*
Y58050D01*
Y58059D01*
Y58078D01*
Y58107D01*
Y58155D01*
X649334Y58212D01*
X649324Y58279D01*
X649305Y58442D01*
X649267Y58623D01*
X649209Y58833D01*
X649133Y59063D01*
X649038Y59292D01*
X648904Y59522D01*
X648741Y59751D01*
X648645Y59856D01*
X648540Y59962D01*
X648416Y60057D01*
X648292Y60143D01*
X648158Y60229D01*
X648014Y60306D01*
X647852Y60373D01*
X647680Y60430D01*
X647498Y60478D01*
X647297Y60506D01*
X647087Y60526D01*
X646858Y60535D01*
X646753D01*
X646695Y60526D01*
X646628Y60516D01*
X646475Y60497D01*
X646284Y60459D01*
X646074Y60401D01*
X645854Y60325D01*
X645624Y60229D01*
X645386Y60095D01*
X645166Y59933D01*
X645060Y59837D01*
X644955Y59732D01*
X644860Y59608D01*
X644774Y59484D01*
X644688Y59350D01*
X644611Y59206D01*
X644544Y59044D01*
X644487Y58872D01*
X644439Y58690D01*
X644410Y58489D01*
X644391Y58279D01*
X644382Y58050D01*
Y54331D01*
X643139D01*
Y58050D01*
Y58059D01*
Y58088D01*
Y58145D01*
X643149Y58212D01*
X643158Y58298D01*
X643168Y58394D01*
X643177Y58508D01*
X643196Y58633D01*
X643225Y58767D01*
X643254Y58910D01*
X643340Y59225D01*
X643454Y59570D01*
X643521Y59742D01*
X643607Y59914D01*
X643693Y60086D01*
X643799Y60258D01*
X643913Y60430D01*
X644047Y60602D01*
X644191Y60755D01*
X644344Y60918D01*
X644516Y61061D01*
X644707Y61195D01*
X644917Y61319D01*
X645137Y61434D01*
X645376Y61529D01*
X645634Y61615D01*
X645911Y61682D01*
X646208Y61740D01*
X646523Y61768D01*
X646858Y61778D01*
X646953D01*
X647020Y61768D01*
D02*
G37*
G36*
X620472Y58050D02*
Y58040D01*
Y58021D01*
Y57992D01*
X620482Y57944D01*
Y57887D01*
X620491Y57820D01*
X620510Y57667D01*
X620549Y57476D01*
X620606Y57266D01*
X620682Y57046D01*
X620778Y56816D01*
X620912Y56577D01*
X621074Y56357D01*
X621170Y56252D01*
X621275Y56147D01*
X621390Y56051D01*
X621514Y55966D01*
X621658Y55879D01*
X621801Y55803D01*
X621964Y55736D01*
X622136Y55679D01*
X622317Y55631D01*
X622508Y55602D01*
X622719Y55583D01*
X622948Y55573D01*
X623006D01*
X623053Y55583D01*
X623111D01*
X623178Y55593D01*
X623340Y55612D01*
X623522Y55650D01*
X623732Y55707D01*
X623962Y55784D01*
X624191Y55879D01*
X624420Y56013D01*
X624650Y56176D01*
X624755Y56271D01*
X624860Y56377D01*
X624956Y56491D01*
X625042Y56616D01*
X625128Y56759D01*
X625204Y56902D01*
X625271Y57065D01*
X625329Y57237D01*
X625377Y57419D01*
X625405Y57610D01*
X625424Y57820D01*
X625434Y58050D01*
X626677D01*
Y58040D01*
Y58011D01*
Y57954D01*
X626667Y57887D01*
Y57811D01*
X626648Y57705D01*
X626638Y57591D01*
X626619Y57466D01*
X626591Y57333D01*
X626562Y57189D01*
X626476Y56874D01*
X626428Y56711D01*
X626361Y56539D01*
X626294Y56367D01*
X626208Y56195D01*
X626122Y56013D01*
X626017Y55841D01*
X625893Y55669D01*
X625768Y55507D01*
X625625Y55344D01*
X625462Y55191D01*
X625290Y55048D01*
X625109Y54914D01*
X624898Y54790D01*
X624679Y54675D01*
X624440Y54579D01*
X624182Y54493D01*
X623904Y54426D01*
X623608Y54369D01*
X623283Y54340D01*
X622948Y54331D01*
X622853D01*
X622786Y54340D01*
X622709Y54350D01*
X622604Y54359D01*
X622489Y54369D01*
X622365Y54388D01*
X622231Y54417D01*
X622088Y54445D01*
X621772Y54532D01*
X621438Y54646D01*
X621266Y54713D01*
X621094Y54799D01*
X620912Y54885D01*
X620740Y54990D01*
X620568Y55105D01*
X620405Y55239D01*
X620243Y55382D01*
X620090Y55535D01*
X619946Y55707D01*
X619812Y55899D01*
X619688Y56109D01*
X619573Y56329D01*
X619478Y56568D01*
X619392Y56826D01*
X619325Y57103D01*
X619268Y57399D01*
X619239Y57715D01*
X619229Y58050D01*
Y61778D01*
X620472D01*
Y58050D01*
D02*
G37*
G36*
X614421Y61768D02*
X614507D01*
X614602Y61749D01*
X614717Y61740D01*
X614841Y61721D01*
X614975Y61692D01*
X615119Y61663D01*
X615434Y61577D01*
X615606Y61529D01*
X615778Y61462D01*
X615950Y61396D01*
X616122Y61309D01*
X616294Y61224D01*
X616467Y61118D01*
X616639Y60994D01*
X616811Y60870D01*
X616964Y60726D01*
X617126Y60564D01*
X617270Y60392D01*
X617403Y60210D01*
X617528Y60000D01*
X617642Y59780D01*
X617738Y59541D01*
X617824Y59283D01*
X617891Y59006D01*
X617948Y58709D01*
X617977Y58384D01*
X617987Y58050D01*
Y58040D01*
Y58011D01*
Y57954D01*
X617977Y57887D01*
Y57811D01*
X617958Y57705D01*
X617948Y57591D01*
X617929Y57466D01*
X617901Y57333D01*
X617872Y57189D01*
X617786Y56874D01*
X617738Y56711D01*
X617671Y56539D01*
X617604Y56367D01*
X617518Y56195D01*
X617432Y56013D01*
X617327Y55841D01*
X617203Y55669D01*
X617078Y55507D01*
X616935Y55344D01*
X616773Y55191D01*
X616600Y55048D01*
X616419Y54914D01*
X616208Y54790D01*
X615988Y54675D01*
X615750Y54579D01*
X615491Y54493D01*
X615214Y54426D01*
X614918Y54369D01*
X614593Y54340D01*
X614258Y54331D01*
X614163D01*
X614096Y54340D01*
X614019Y54350D01*
X613914Y54359D01*
X613799Y54369D01*
X613675Y54388D01*
X613541Y54417D01*
X613398Y54445D01*
X613082Y54532D01*
X612748Y54646D01*
X612576Y54713D01*
X612403Y54799D01*
X612222Y54885D01*
X612050Y54990D01*
X611878Y55105D01*
X611715Y55239D01*
X611553Y55382D01*
X611400Y55535D01*
X611256Y55707D01*
X611123Y55899D01*
X610998Y56109D01*
X610884Y56329D01*
X610788Y56568D01*
X610702Y56826D01*
X610635Y57103D01*
X610578Y57399D01*
X610549Y57715D01*
X610539Y58050D01*
Y58059D01*
Y58088D01*
Y58145D01*
X610549Y58212D01*
X610559Y58298D01*
X610568Y58394D01*
X610578Y58508D01*
X610597Y58633D01*
X610625Y58767D01*
X610654Y58910D01*
X610740Y59225D01*
X610855Y59570D01*
X610922Y59742D01*
X611008Y59914D01*
X611094Y60086D01*
X611199Y60258D01*
X611314Y60430D01*
X611447Y60602D01*
X611591Y60755D01*
X611744Y60918D01*
X611916Y61061D01*
X612107Y61195D01*
X612318Y61319D01*
X612537Y61434D01*
X612776Y61529D01*
X613034Y61615D01*
X613312Y61682D01*
X613608Y61740D01*
X613924Y61768D01*
X614258Y61778D01*
X614354D01*
X614421Y61768D01*
D02*
G37*
G36*
X605817D02*
X605912Y61759D01*
X606027Y61749D01*
X606151Y61740D01*
X606285Y61721D01*
X606428Y61702D01*
X606744Y61644D01*
X607088Y61568D01*
X607432Y61472D01*
X607776Y61338D01*
X608121Y61176D01*
X608274Y61080D01*
X608436Y60975D01*
X608579Y60851D01*
X608713Y60726D01*
X608838Y60593D01*
X608952Y60449D01*
X609048Y60287D01*
X609134Y60115D01*
X609201Y59933D01*
X609258Y59732D01*
X609287Y59522D01*
X609297Y59292D01*
Y59283D01*
Y59235D01*
X609287Y59178D01*
Y59092D01*
X609268Y58987D01*
X609249Y58872D01*
X609220Y58738D01*
X609182Y58595D01*
X609134Y58451D01*
X609067Y58298D01*
X608991Y58136D01*
X608905Y57983D01*
X608790Y57839D01*
X608666Y57696D01*
X608522Y57562D01*
X608360Y57438D01*
X608369Y57428D01*
X608398Y57409D01*
X608446Y57371D01*
X608503Y57323D01*
X608579Y57256D01*
X608656Y57180D01*
X608742Y57084D01*
X608828Y56969D01*
X608914Y56845D01*
X609000Y56711D01*
X609077Y56558D01*
X609153Y56386D01*
X609210Y56204D01*
X609258Y56013D01*
X609287Y55803D01*
X609297Y55573D01*
Y54331D01*
X608054D01*
Y55573D01*
Y55583D01*
Y55631D01*
X608035Y55688D01*
X608015Y55765D01*
X607977Y55860D01*
X607920Y55966D01*
X607843Y56080D01*
X607748Y56195D01*
X607614Y56310D01*
X607451Y56424D01*
X607356Y56482D01*
X607251Y56529D01*
X607126Y56577D01*
X607002Y56625D01*
X606868Y56663D01*
X606725Y56702D01*
X606562Y56740D01*
X606390Y56759D01*
X606209Y56788D01*
X606008Y56807D01*
X605798Y56816D01*
X601849D01*
Y58059D01*
X605673D01*
X605731Y58069D01*
X605798D01*
X605960Y58078D01*
X606142Y58097D01*
X606352Y58126D01*
X606581Y58164D01*
X606811Y58212D01*
X607040Y58279D01*
X607270Y58365D01*
X607480Y58461D01*
X607662Y58575D01*
X607824Y58719D01*
X607891Y58805D01*
X607949Y58881D01*
X607996Y58977D01*
X608025Y59073D01*
X608044Y59178D01*
X608054Y59292D01*
Y59302D01*
Y59350D01*
X608035Y59407D01*
X608015Y59484D01*
X607977Y59579D01*
X607920Y59684D01*
X607843Y59799D01*
X607748Y59914D01*
X607614Y60028D01*
X607451Y60143D01*
X607356Y60201D01*
X607251Y60248D01*
X607126Y60296D01*
X607002Y60344D01*
X606868Y60382D01*
X606725Y60421D01*
X606562Y60459D01*
X606390Y60478D01*
X606209Y60506D01*
X606008Y60526D01*
X605798Y60535D01*
X601849D01*
Y61778D01*
X605731D01*
X605817Y61768D01*
D02*
G37*
G36*
X600606Y60535D02*
X597194D01*
Y54331D01*
X595951D01*
Y60535D01*
X592844D01*
Y61778D01*
X600606D01*
Y60535D01*
D02*
G37*
G36*
X588035Y61768D02*
X588121D01*
X588217Y61749D01*
X588332Y61740D01*
X588456Y61721D01*
X588590Y61692D01*
X588733Y61663D01*
X589048Y61577D01*
X589221Y61529D01*
X589393Y61462D01*
X589565Y61396D01*
X589737Y61309D01*
X589909Y61224D01*
X590081Y61118D01*
X590253Y60994D01*
X590425Y60870D01*
X590578Y60726D01*
X590741Y60564D01*
X590884Y60392D01*
X591018Y60210D01*
X591142Y60000D01*
X591257Y59780D01*
X591352Y59541D01*
X591438Y59283D01*
X591505Y59006D01*
X591563Y58709D01*
X591591Y58384D01*
X591601Y58050D01*
Y54331D01*
X590358D01*
Y58050D01*
Y58059D01*
Y58078D01*
Y58107D01*
Y58155D01*
X590349Y58212D01*
X590339Y58279D01*
X590320Y58442D01*
X590282Y58623D01*
X590224Y58833D01*
X590148Y59063D01*
X590052Y59292D01*
X589918Y59522D01*
X589756Y59751D01*
X589660Y59856D01*
X589555Y59962D01*
X589431Y60057D01*
X589307Y60143D01*
X589173Y60229D01*
X589029Y60306D01*
X588867Y60373D01*
X588695Y60430D01*
X588513Y60478D01*
X588312Y60506D01*
X588102Y60526D01*
X587873Y60535D01*
X587767D01*
X587710Y60526D01*
X587643Y60516D01*
X587490Y60497D01*
X587299Y60459D01*
X587089Y60401D01*
X586869Y60325D01*
X586639Y60229D01*
X586400Y60095D01*
X586180Y59933D01*
X586075Y59837D01*
X585970Y59732D01*
X585875Y59608D01*
X585788Y59484D01*
X585703Y59350D01*
X585626Y59206D01*
X585559Y59044D01*
X585502Y58872D01*
X585454Y58690D01*
X585425Y58489D01*
X585406Y58279D01*
X585396Y58050D01*
Y54331D01*
X584154D01*
Y58050D01*
Y58059D01*
Y58088D01*
Y58145D01*
X584163Y58212D01*
X584173Y58298D01*
X584182Y58394D01*
X584192Y58508D01*
X584211Y58633D01*
X584240Y58767D01*
X584269Y58910D01*
X584354Y59225D01*
X584469Y59570D01*
X584536Y59742D01*
X584622Y59914D01*
X584708Y60086D01*
X584813Y60258D01*
X584928Y60430D01*
X585062Y60602D01*
X585205Y60755D01*
X585358Y60918D01*
X585530Y61061D01*
X585722Y61195D01*
X585932Y61319D01*
X586152Y61434D01*
X586391Y61529D01*
X586649Y61615D01*
X586926Y61682D01*
X587222Y61740D01*
X587538Y61768D01*
X587873Y61778D01*
X587968D01*
X588035Y61768D01*
D02*
G37*
G36*
X579345D02*
X579431D01*
X579527Y61749D01*
X579641Y61740D01*
X579766Y61721D01*
X579900Y61692D01*
X580043Y61663D01*
X580358Y61577D01*
X580531Y61529D01*
X580703Y61462D01*
X580875Y61396D01*
X581047Y61309D01*
X581219Y61224D01*
X581391Y61118D01*
X581563Y60994D01*
X581735Y60870D01*
X581888Y60726D01*
X582051Y60564D01*
X582194Y60392D01*
X582328Y60210D01*
X582452Y60000D01*
X582567Y59780D01*
X582662Y59541D01*
X582748Y59283D01*
X582815Y59006D01*
X582873Y58709D01*
X582901Y58384D01*
X582911Y58050D01*
Y58040D01*
Y58011D01*
Y57954D01*
X582901Y57887D01*
Y57811D01*
X582882Y57705D01*
X582873Y57591D01*
X582854Y57466D01*
X582825Y57333D01*
X582796Y57189D01*
X582710Y56874D01*
X582662Y56711D01*
X582595Y56539D01*
X582528Y56367D01*
X582443Y56195D01*
X582357Y56013D01*
X582251Y55841D01*
X582127Y55669D01*
X582003Y55507D01*
X581859Y55344D01*
X581697Y55191D01*
X581525Y55048D01*
X581343Y54914D01*
X581133Y54790D01*
X580913Y54675D01*
X580674Y54579D01*
X580416Y54493D01*
X580138Y54426D01*
X579842Y54369D01*
X579517Y54340D01*
X579182Y54331D01*
X579087D01*
X579020Y54340D01*
X578943Y54350D01*
X578838Y54359D01*
X578724Y54369D01*
X578599Y54388D01*
X578466Y54417D01*
X578322Y54445D01*
X578007Y54532D01*
X577672Y54646D01*
X577500Y54713D01*
X577328Y54799D01*
X577146Y54885D01*
X576974Y54990D01*
X576802Y55105D01*
X576640Y55239D01*
X576477Y55382D01*
X576324Y55535D01*
X576181Y55707D01*
X576047Y55899D01*
X575923Y56109D01*
X575808Y56329D01*
X575712Y56568D01*
X575626Y56826D01*
X575559Y57103D01*
X575502Y57399D01*
X575473Y57715D01*
X575464Y58050D01*
Y58059D01*
Y58088D01*
Y58145D01*
X575473Y58212D01*
X575483Y58298D01*
X575492Y58394D01*
X575502Y58508D01*
X575521Y58633D01*
X575550Y58767D01*
X575578Y58910D01*
X575665Y59225D01*
X575779Y59570D01*
X575846Y59742D01*
X575932Y59914D01*
X576018Y60086D01*
X576123Y60258D01*
X576238Y60430D01*
X576372Y60602D01*
X576515Y60755D01*
X576668Y60918D01*
X576840Y61061D01*
X577032Y61195D01*
X577242Y61319D01*
X577462Y61434D01*
X577701Y61529D01*
X577959Y61615D01*
X578236Y61682D01*
X578533Y61740D01*
X578848Y61768D01*
X579182Y61778D01*
X579278D01*
X579345Y61768D01*
D02*
G37*
G36*
X574221Y60535D02*
X570387D01*
X570330Y60526D01*
X570263Y60516D01*
X570110Y60497D01*
X569919Y60459D01*
X569709Y60401D01*
X569489Y60325D01*
X569259Y60229D01*
X569020Y60095D01*
X568800Y59933D01*
X568695Y59837D01*
X568590Y59732D01*
X568495Y59608D01*
X568408Y59484D01*
X568322Y59350D01*
X568246Y59206D01*
X568179Y59044D01*
X568122Y58872D01*
X568074Y58690D01*
X568045Y58489D01*
X568026Y58279D01*
X568016Y58050D01*
Y58040D01*
Y58021D01*
Y57992D01*
X568026Y57944D01*
Y57887D01*
X568036Y57820D01*
X568055Y57667D01*
X568093Y57476D01*
X568150Y57266D01*
X568227Y57046D01*
X568322Y56816D01*
X568456Y56577D01*
X568619Y56357D01*
X568714Y56252D01*
X568820Y56147D01*
X568934Y56051D01*
X569059Y55966D01*
X569202Y55879D01*
X569345Y55803D01*
X569508Y55736D01*
X569680Y55679D01*
X569862Y55631D01*
X570053Y55602D01*
X570263Y55583D01*
X570493Y55573D01*
X574221D01*
Y54331D01*
X570397D01*
X570330Y54340D01*
X570254Y54350D01*
X570148Y54359D01*
X570034Y54369D01*
X569909Y54388D01*
X569775Y54417D01*
X569632Y54445D01*
X569317Y54532D01*
X568982Y54646D01*
X568810Y54713D01*
X568638Y54799D01*
X568456Y54885D01*
X568284Y54990D01*
X568112Y55105D01*
X567949Y55239D01*
X567787Y55382D01*
X567634Y55535D01*
X567491Y55707D01*
X567357Y55899D01*
X567233Y56109D01*
X567118Y56329D01*
X567022Y56568D01*
X566936Y56826D01*
X566869Y57103D01*
X566812Y57399D01*
X566783Y57715D01*
X566774Y58050D01*
Y58059D01*
Y58088D01*
Y58145D01*
X566783Y58212D01*
X566793Y58298D01*
X566802Y58394D01*
X566812Y58508D01*
X566831Y58633D01*
X566860Y58767D01*
X566888Y58910D01*
X566974Y59225D01*
X567089Y59570D01*
X567156Y59742D01*
X567242Y59914D01*
X567328Y60086D01*
X567433Y60258D01*
X567548Y60430D01*
X567682Y60602D01*
X567825Y60755D01*
X567978Y60918D01*
X568150Y61061D01*
X568341Y61195D01*
X568552Y61319D01*
X568772Y61434D01*
X569011Y61529D01*
X569269Y61615D01*
X569546Y61682D01*
X569842Y61740D01*
X570158Y61768D01*
X570493Y61778D01*
X574221D01*
Y60535D01*
D02*
G37*
G36*
X555521Y61768D02*
X555617Y61759D01*
X555732Y61749D01*
X555856Y61740D01*
X555990Y61721D01*
X556133Y61702D01*
X556449Y61644D01*
X556793Y61568D01*
X557137Y61472D01*
X557481Y61338D01*
X557826Y61176D01*
X557978Y61080D01*
X558141Y60975D01*
X558284Y60851D01*
X558418Y60726D01*
X558542Y60593D01*
X558657Y60449D01*
X558753Y60287D01*
X558839Y60115D01*
X558906Y59933D01*
X558963Y59732D01*
X558992Y59522D01*
X559001Y59292D01*
Y59283D01*
Y59235D01*
X558992Y59178D01*
Y59092D01*
X558973Y58986D01*
X558954Y58872D01*
X558925Y58738D01*
X558887Y58595D01*
X558839Y58451D01*
X558772Y58298D01*
X558696Y58136D01*
X558609Y57983D01*
X558495Y57839D01*
X558370Y57696D01*
X558227Y57562D01*
X558065Y57438D01*
X558074Y57428D01*
X558103Y57409D01*
X558150Y57371D01*
X558208Y57323D01*
X558284Y57256D01*
X558361Y57180D01*
X558447Y57084D01*
X558533Y56969D01*
X558619Y56845D01*
X558705Y56711D01*
X558781Y56558D01*
X558858Y56386D01*
X558915Y56204D01*
X558963Y56013D01*
X558992Y55803D01*
X559001Y55573D01*
Y54331D01*
X557759D01*
Y55573D01*
Y55583D01*
Y55631D01*
X557739Y55688D01*
X557720Y55765D01*
X557682Y55860D01*
X557625Y55966D01*
X557548Y56080D01*
X557453Y56195D01*
X557319Y56310D01*
X557156Y56424D01*
X557061Y56482D01*
X556955Y56529D01*
X556831Y56577D01*
X556707Y56625D01*
X556573Y56663D01*
X556430Y56702D01*
X556267Y56740D01*
X556095Y56759D01*
X555913Y56788D01*
X555713Y56807D01*
X555502Y56816D01*
X551554D01*
Y58059D01*
X555378D01*
X555436Y58069D01*
X555502D01*
X555665Y58078D01*
X555847Y58097D01*
X556057Y58126D01*
X556286Y58164D01*
X556516Y58212D01*
X556745Y58279D01*
X556975Y58365D01*
X557185Y58461D01*
X557367Y58575D01*
X557529Y58719D01*
X557596Y58805D01*
X557653Y58881D01*
X557701Y58977D01*
X557730Y59073D01*
X557749Y59178D01*
X557759Y59292D01*
Y59302D01*
Y59350D01*
X557739Y59407D01*
X557720Y59484D01*
X557682Y59579D01*
X557625Y59684D01*
X557548Y59799D01*
X557453Y59914D01*
X557319Y60028D01*
X557156Y60143D01*
X557061Y60201D01*
X556955Y60248D01*
X556831Y60296D01*
X556707Y60344D01*
X556573Y60382D01*
X556430Y60420D01*
X556267Y60459D01*
X556095Y60478D01*
X555913Y60506D01*
X555713Y60526D01*
X555502Y60535D01*
X551554D01*
Y61778D01*
X555436D01*
X555521Y61768D01*
D02*
G37*
G36*
X550311Y60535D02*
X546420D01*
X546353Y60526D01*
X546201Y60516D01*
X546009Y60497D01*
X545799Y60468D01*
X545579Y60430D01*
X545350Y60382D01*
X545111Y60315D01*
X544891Y60229D01*
X544681Y60134D01*
X544499Y60009D01*
X544336Y59866D01*
X544269Y59790D01*
X544212Y59703D01*
X544164Y59608D01*
X544136Y59512D01*
X544116Y59407D01*
X544107Y59292D01*
Y58853D01*
X544116Y58862D01*
X544145Y58872D01*
X544203Y58891D01*
X544269Y58920D01*
X544365Y58958D01*
X544470Y58996D01*
X544604Y59034D01*
X544757Y59082D01*
X544919Y59120D01*
X545111Y59158D01*
X545311Y59197D01*
X545531Y59235D01*
X545770Y59264D01*
X546029Y59283D01*
X546296Y59302D01*
X549068D01*
Y58059D01*
X546420D01*
X546363Y58050D01*
X546201Y58040D01*
X546019Y58021D01*
X545818Y57992D01*
X545598Y57964D01*
X545369Y57916D01*
X545139Y57849D01*
X544919Y57772D01*
X544709Y57677D01*
X544518Y57562D01*
X544355Y57428D01*
X544288Y57352D01*
X544231Y57266D01*
X544183Y57180D01*
X544145Y57084D01*
X544116Y56979D01*
X544107Y56874D01*
Y56816D01*
Y56807D01*
X544116Y56759D01*
X544126Y56702D01*
X544145Y56625D01*
X544183Y56529D01*
X544241Y56424D01*
X544317Y56310D01*
X544413Y56195D01*
X544547Y56080D01*
X544709Y55966D01*
X544805Y55918D01*
X544910Y55860D01*
X545025Y55813D01*
X545149Y55765D01*
X545292Y55726D01*
X545436Y55688D01*
X545598Y55660D01*
X545770Y55631D01*
X545952Y55602D01*
X546143Y55583D01*
X546363Y55573D01*
X550311D01*
Y54331D01*
X546487D01*
X546420Y54340D01*
X546344D01*
X546239Y54350D01*
X546124Y54359D01*
X546000Y54369D01*
X545866Y54388D01*
X545722Y54407D01*
X545407Y54465D01*
X545073Y54541D01*
X544728Y54637D01*
X544375Y54770D01*
X544040Y54933D01*
X543878Y55029D01*
X543724Y55134D01*
X543581Y55248D01*
X543447Y55373D01*
X543323Y55516D01*
X543208Y55660D01*
X543113Y55822D01*
X543027Y55994D01*
X542960Y56176D01*
X542902Y56367D01*
X542874Y56577D01*
X542864Y56807D01*
Y59292D01*
Y59302D01*
Y59321D01*
Y59350D01*
X542874Y59398D01*
X542883Y59455D01*
X542893Y59522D01*
X542921Y59684D01*
X542979Y59866D01*
X543065Y60076D01*
X543180Y60306D01*
X543247Y60420D01*
X543332Y60535D01*
X543419Y60650D01*
X543524Y60765D01*
X543639Y60879D01*
X543772Y60994D01*
X543916Y61099D01*
X544069Y61204D01*
X544241Y61300D01*
X544432Y61386D01*
X544642Y61472D01*
X544862Y61549D01*
X545101Y61615D01*
X545359Y61673D01*
X545637Y61721D01*
X545933Y61749D01*
X546248Y61768D01*
X546583Y61778D01*
X550311D01*
Y60535D01*
D02*
G37*
G36*
X528123Y61768D02*
X528209D01*
X528304Y61749D01*
X528419Y61740D01*
X528543Y61721D01*
X528677Y61692D01*
X528821Y61663D01*
X529136Y61577D01*
X529308Y61529D01*
X529480Y61462D01*
X529652Y61396D01*
X529824Y61309D01*
X529996Y61224D01*
X530168Y61118D01*
X530340Y60994D01*
X530513Y60870D01*
X530665Y60726D01*
X530828Y60564D01*
X530971Y60392D01*
X531105Y60210D01*
X531230Y60000D01*
X531344Y59780D01*
X531440Y59541D01*
X531526Y59283D01*
X531593Y59006D01*
X531650Y58709D01*
X531679Y58384D01*
X531688Y58049D01*
Y58040D01*
Y58011D01*
Y57954D01*
X531679Y57887D01*
Y57811D01*
X531660Y57705D01*
X531650Y57591D01*
X531631Y57466D01*
X531602Y57333D01*
X531574Y57189D01*
X531488Y56874D01*
X531440Y56711D01*
X531373Y56539D01*
X531306Y56367D01*
X531220Y56195D01*
X531134Y56013D01*
X531029Y55841D01*
X530904Y55669D01*
X530780Y55507D01*
X530637Y55344D01*
X530474Y55191D01*
X530302Y55048D01*
X530121Y54914D01*
X529910Y54790D01*
X529690Y54675D01*
X529451Y54579D01*
X529193Y54493D01*
X528916Y54426D01*
X528620Y54369D01*
X528295Y54340D01*
X527960Y54331D01*
X527865D01*
X527798Y54340D01*
X527721Y54350D01*
X527616Y54359D01*
X527501Y54369D01*
X527377Y54388D01*
X527243Y54417D01*
X527100Y54445D01*
X526784Y54532D01*
X526450Y54646D01*
X526277Y54713D01*
X526105Y54799D01*
X525924Y54885D01*
X525752Y54990D01*
X525580Y55105D01*
X525417Y55239D01*
X525255Y55382D01*
X525102Y55535D01*
X524958Y55707D01*
X524824Y55899D01*
X524700Y56109D01*
X524585Y56329D01*
X524490Y56568D01*
X524404Y56826D01*
X524337Y57103D01*
X524279Y57399D01*
X524251Y57715D01*
X524241Y58049D01*
Y58059D01*
Y58088D01*
Y58145D01*
X524251Y58212D01*
X524260Y58298D01*
X524270Y58394D01*
X524279Y58508D01*
X524299Y58633D01*
X524327Y58767D01*
X524356Y58910D01*
X524442Y59225D01*
X524557Y59570D01*
X524624Y59742D01*
X524710Y59914D01*
X524796Y60086D01*
X524901Y60258D01*
X525016Y60430D01*
X525149Y60602D01*
X525293Y60755D01*
X525446Y60918D01*
X525618Y61061D01*
X525809Y61195D01*
X526019Y61319D01*
X526239Y61434D01*
X526478Y61529D01*
X526736Y61615D01*
X527014Y61682D01*
X527310Y61740D01*
X527626Y61768D01*
X527960Y61778D01*
X528056D01*
X528123Y61768D01*
D02*
G37*
G36*
X519519D02*
X519614Y61759D01*
X519729Y61749D01*
X519853Y61740D01*
X519987Y61721D01*
X520130Y61702D01*
X520446Y61644D01*
X520790Y61568D01*
X521134Y61472D01*
X521478Y61338D01*
X521823Y61176D01*
X521976Y61080D01*
X522138Y60975D01*
X522281Y60851D01*
X522415Y60726D01*
X522540Y60593D01*
X522654Y60449D01*
X522750Y60287D01*
X522836Y60115D01*
X522903Y59933D01*
X522960Y59732D01*
X522989Y59522D01*
X522998Y59292D01*
Y59283D01*
Y59264D01*
Y59235D01*
X522989Y59187D01*
Y59130D01*
X522970Y59063D01*
X522941Y58910D01*
X522884Y58719D01*
X522798Y58508D01*
X522750Y58403D01*
X522683Y58289D01*
X522616Y58174D01*
X522530Y58059D01*
X522444Y57935D01*
X522339Y57820D01*
X522215Y57715D01*
X522090Y57600D01*
X521947Y57495D01*
X521784Y57390D01*
X521612Y57294D01*
X521431Y57208D01*
X521220Y57122D01*
X521000Y57046D01*
X520761Y56979D01*
X520503Y56921D01*
X520226Y56874D01*
X519930Y56845D01*
X519605Y56826D01*
X519270Y56816D01*
X516794D01*
Y54331D01*
X515551D01*
Y58059D01*
X519375D01*
X519432Y58069D01*
X519499D01*
X519662Y58078D01*
X519844Y58097D01*
X520054Y58126D01*
X520283Y58164D01*
X520513Y58212D01*
X520742Y58279D01*
X520972Y58365D01*
X521182Y58461D01*
X521364Y58575D01*
X521526Y58719D01*
X521593Y58805D01*
X521651Y58881D01*
X521698Y58977D01*
X521727Y59073D01*
X521746Y59178D01*
X521756Y59292D01*
Y59302D01*
Y59350D01*
X521736Y59407D01*
X521717Y59484D01*
X521679Y59579D01*
X521622Y59684D01*
X521545Y59799D01*
X521450Y59914D01*
X521316Y60028D01*
X521153Y60143D01*
X521058Y60201D01*
X520953Y60248D01*
X520828Y60296D01*
X520704Y60344D01*
X520570Y60382D01*
X520427Y60420D01*
X520264Y60459D01*
X520092Y60478D01*
X519910Y60506D01*
X519710Y60526D01*
X519499Y60535D01*
X515551D01*
Y61778D01*
X519432D01*
X519519Y61768D01*
D02*
G37*
G36*
X380427Y29884D02*
X377089D01*
X377032Y29876D01*
X376901Y29867D01*
X376737Y29851D01*
X376556Y29826D01*
X376368Y29794D01*
X376171Y29753D01*
X375966Y29695D01*
X375777Y29630D01*
X375597Y29539D01*
X375441Y29441D01*
X375302Y29318D01*
X375244Y29252D01*
X375195Y29179D01*
X375154Y29097D01*
X375129Y29015D01*
X375113Y28924D01*
X375105Y28826D01*
X377368D01*
X377442Y28818D01*
X377524Y28810D01*
X377622Y28801D01*
X377729Y28793D01*
X377844Y28777D01*
X377967Y28760D01*
X378237Y28711D01*
X378532Y28646D01*
X378828Y28564D01*
X379123Y28449D01*
X379418Y28309D01*
X379549Y28227D01*
X379689Y28137D01*
X379812Y28031D01*
X379926Y27924D01*
X380033Y27809D01*
X380131Y27686D01*
X380213Y27547D01*
X380287Y27399D01*
X380345Y27243D01*
X380394Y27071D01*
X380418Y26891D01*
X380427Y26694D01*
Y26686D01*
Y26669D01*
Y26645D01*
X380418Y26604D01*
Y26555D01*
X380402Y26497D01*
X380377Y26358D01*
X380328Y26202D01*
X380254Y26022D01*
X380213Y25923D01*
X380156Y25825D01*
X380099Y25726D01*
X380025Y25628D01*
X379951Y25530D01*
X379861Y25431D01*
X379754Y25333D01*
X379648Y25234D01*
X379525Y25144D01*
X379385Y25054D01*
X379238Y24972D01*
X379082Y24898D01*
X378901Y24824D01*
X378713Y24759D01*
X378508Y24701D01*
X378286Y24652D01*
X378049Y24611D01*
X377794Y24587D01*
X377516Y24570D01*
X377229Y24562D01*
X374039D01*
Y25628D01*
X377319D01*
X377368Y25636D01*
X377425D01*
X377565Y25644D01*
X377721Y25661D01*
X377901Y25685D01*
X378098Y25718D01*
X378295Y25759D01*
X378491Y25817D01*
X378688Y25890D01*
X378869Y25972D01*
X379024Y26079D01*
X379164Y26202D01*
X379221Y26268D01*
X379270Y26341D01*
X379311Y26423D01*
X379336Y26505D01*
X379352Y26596D01*
X379361Y26694D01*
Y26702D01*
Y26743D01*
X379344Y26792D01*
X379328Y26858D01*
X379295Y26940D01*
X379246Y27030D01*
X379180Y27129D01*
X379098Y27227D01*
X378983Y27325D01*
X378844Y27424D01*
X378762Y27473D01*
X378672Y27514D01*
X378565Y27555D01*
X378459Y27596D01*
X378344Y27629D01*
X378221Y27662D01*
X378081Y27694D01*
X377934Y27711D01*
X377778Y27735D01*
X377606Y27752D01*
X377425Y27760D01*
X374039D01*
Y28818D01*
Y28826D01*
Y28842D01*
Y28867D01*
X374047Y28908D01*
X374055Y28957D01*
X374063Y29015D01*
X374088Y29154D01*
X374137Y29310D01*
X374211Y29490D01*
X374309Y29687D01*
X374367Y29785D01*
X374441Y29884D01*
X374514Y29982D01*
X374605Y30081D01*
X374703Y30179D01*
X374818Y30277D01*
X374941Y30368D01*
X375072Y30458D01*
X375220Y30540D01*
X375384Y30614D01*
X375564Y30687D01*
X375753Y30753D01*
X375958Y30810D01*
X376179Y30860D01*
X376417Y30901D01*
X376671Y30925D01*
X376942Y30942D01*
X377229Y30950D01*
X380427D01*
Y29884D01*
D02*
G37*
G36*
X372973D02*
X369685D01*
X369635Y29876D01*
X369578Y29867D01*
X369447Y29851D01*
X369283Y29818D01*
X369102Y29769D01*
X368914Y29703D01*
X368717Y29621D01*
X368512Y29507D01*
X368323Y29367D01*
X368233Y29285D01*
X368143Y29195D01*
X368061Y29088D01*
X367987Y28982D01*
X367913Y28867D01*
X367848Y28744D01*
X367790Y28605D01*
X367741Y28457D01*
X367700Y28301D01*
X367676Y28129D01*
X367659Y27949D01*
X367651Y27752D01*
Y27744D01*
Y27727D01*
Y27703D01*
X367659Y27662D01*
Y27612D01*
X367667Y27555D01*
X367684Y27424D01*
X367717Y27260D01*
X367766Y27079D01*
X367831Y26891D01*
X367913Y26694D01*
X368028Y26489D01*
X368168Y26300D01*
X368250Y26210D01*
X368340Y26120D01*
X368438Y26038D01*
X368545Y25964D01*
X368668Y25890D01*
X368791Y25825D01*
X368930Y25767D01*
X369078Y25718D01*
X369234Y25677D01*
X369398Y25653D01*
X369578Y25636D01*
X369775Y25628D01*
X372973D01*
Y24562D01*
X369693D01*
X369635Y24570D01*
X369570Y24578D01*
X369480Y24587D01*
X369381Y24595D01*
X369275Y24611D01*
X369160Y24636D01*
X369037Y24660D01*
X368766Y24734D01*
X368479Y24833D01*
X368332Y24890D01*
X368184Y24964D01*
X368028Y25038D01*
X367881Y25128D01*
X367733Y25226D01*
X367594Y25341D01*
X367454Y25464D01*
X367323Y25595D01*
X367200Y25743D01*
X367085Y25907D01*
X366979Y26087D01*
X366880Y26276D01*
X366798Y26481D01*
X366724Y26702D01*
X366667Y26940D01*
X366618Y27194D01*
X366593Y27465D01*
X366585Y27752D01*
Y27760D01*
Y27785D01*
Y27834D01*
X366593Y27891D01*
X366601Y27965D01*
X366610Y28047D01*
X366618Y28145D01*
X366634Y28252D01*
X366659Y28367D01*
X366683Y28490D01*
X366757Y28760D01*
X366856Y29056D01*
X366913Y29203D01*
X366987Y29351D01*
X367061Y29498D01*
X367151Y29646D01*
X367249Y29794D01*
X367364Y29941D01*
X367487Y30072D01*
X367618Y30212D01*
X367766Y30335D01*
X367930Y30450D01*
X368110Y30556D01*
X368299Y30655D01*
X368504Y30737D01*
X368725Y30810D01*
X368963Y30868D01*
X369217Y30917D01*
X369488Y30942D01*
X369775Y30950D01*
X372973D01*
Y29884D01*
D02*
G37*
G36*
X365519Y24562D02*
X364453D01*
Y30950D01*
X365519D01*
Y24562D01*
D02*
G37*
G36*
X363387Y29884D02*
X360460D01*
Y24562D01*
X359394D01*
Y29884D01*
X356729D01*
Y30950D01*
X363387D01*
Y29884D01*
D02*
G37*
G36*
X352604Y30942D02*
X352678D01*
X352760Y30925D01*
X352858Y30917D01*
X352965Y30901D01*
X353080Y30876D01*
X353203Y30851D01*
X353473Y30778D01*
X353621Y30737D01*
X353768Y30679D01*
X353916Y30622D01*
X354064Y30548D01*
X354211Y30474D01*
X354359Y30384D01*
X354506Y30277D01*
X354654Y30171D01*
X354785Y30048D01*
X354925Y29908D01*
X355048Y29761D01*
X355162Y29605D01*
X355269Y29425D01*
X355367Y29236D01*
X355449Y29031D01*
X355523Y28810D01*
X355581Y28572D01*
X355630Y28318D01*
X355654Y28039D01*
X355663Y27752D01*
Y27744D01*
Y27719D01*
Y27670D01*
X355654Y27612D01*
Y27547D01*
X355638Y27457D01*
X355630Y27358D01*
X355613Y27252D01*
X355589Y27137D01*
X355564Y27014D01*
X355490Y26743D01*
X355449Y26604D01*
X355392Y26456D01*
X355335Y26309D01*
X355261Y26161D01*
X355187Y26005D01*
X355097Y25858D01*
X354990Y25710D01*
X354884Y25571D01*
X354761Y25431D01*
X354621Y25300D01*
X354474Y25177D01*
X354318Y25062D01*
X354137Y24956D01*
X353949Y24857D01*
X353744Y24775D01*
X353522Y24701D01*
X353285Y24644D01*
X353030Y24595D01*
X352752Y24570D01*
X352465Y24562D01*
X352383D01*
X352325Y24570D01*
X352260Y24578D01*
X352169Y24587D01*
X352071Y24595D01*
X351964Y24611D01*
X351850Y24636D01*
X351727Y24660D01*
X351456Y24734D01*
X351169Y24833D01*
X351021Y24890D01*
X350874Y24964D01*
X350718Y25038D01*
X350570Y25128D01*
X350423Y25226D01*
X350283Y25341D01*
X350144Y25464D01*
X350013Y25595D01*
X349890Y25743D01*
X349775Y25907D01*
X349668Y26087D01*
X349570Y26276D01*
X349488Y26481D01*
X349414Y26702D01*
X349357Y26940D01*
X349308Y27194D01*
X349283Y27465D01*
X349275Y27752D01*
Y27760D01*
Y27785D01*
Y27834D01*
X349283Y27891D01*
X349291Y27965D01*
X349299Y28047D01*
X349308Y28145D01*
X349324Y28252D01*
X349349Y28367D01*
X349373Y28490D01*
X349447Y28760D01*
X349545Y29056D01*
X349603Y29203D01*
X349677Y29351D01*
X349750Y29498D01*
X349841Y29646D01*
X349939Y29794D01*
X350054Y29941D01*
X350177Y30072D01*
X350308Y30212D01*
X350456Y30335D01*
X350620Y30450D01*
X350800Y30556D01*
X350989Y30655D01*
X351194Y30737D01*
X351415Y30810D01*
X351653Y30868D01*
X351907Y30917D01*
X352178Y30942D01*
X352465Y30950D01*
X352547D01*
X352604Y30942D01*
D02*
G37*
G36*
X347143Y29884D02*
X344871D01*
X344814Y29876D01*
X344683Y29867D01*
X344519Y29851D01*
X344338Y29826D01*
X344150Y29794D01*
X343953Y29753D01*
X343748Y29695D01*
X343559Y29621D01*
X343379Y29539D01*
X343223Y29433D01*
X343084Y29310D01*
X343026Y29244D01*
X342977Y29170D01*
X342936Y29088D01*
X342912Y29006D01*
X342895Y28916D01*
X342887Y28818D01*
Y25628D01*
X345101D01*
X345150Y25636D01*
X345208D01*
X345347Y25644D01*
X345503Y25661D01*
X345683Y25685D01*
X345880Y25718D01*
X346077Y25759D01*
X346274Y25817D01*
X346470Y25890D01*
X346651Y25972D01*
X346807Y26079D01*
X346946Y26202D01*
X347003Y26268D01*
X347053Y26341D01*
X347094Y26423D01*
X347118Y26505D01*
X347135Y26596D01*
X347143Y26694D01*
Y26702D01*
Y26743D01*
X347126Y26792D01*
X347110Y26858D01*
X347077Y26940D01*
X347028Y27030D01*
X346962Y27129D01*
X346880Y27227D01*
X346766Y27325D01*
X346626Y27424D01*
X346544Y27473D01*
X346454Y27514D01*
X346347Y27555D01*
X346241Y27596D01*
X346126Y27629D01*
X346003Y27662D01*
X345864Y27694D01*
X345716Y27711D01*
X345560Y27735D01*
X345388Y27752D01*
X345208Y27760D01*
X343945D01*
Y28826D01*
X345150D01*
X345224Y28818D01*
X345306Y28810D01*
X345404Y28801D01*
X345511Y28793D01*
X345626Y28777D01*
X345749Y28760D01*
X346019Y28711D01*
X346315Y28646D01*
X346610Y28564D01*
X346905Y28449D01*
X347200Y28309D01*
X347331Y28227D01*
X347471Y28137D01*
X347594Y28031D01*
X347709Y27924D01*
X347815Y27809D01*
X347914Y27686D01*
X347996Y27547D01*
X348069Y27399D01*
X348127Y27243D01*
X348176Y27071D01*
X348201Y26891D01*
X348209Y26694D01*
Y26686D01*
Y26669D01*
Y26645D01*
X348201Y26604D01*
Y26555D01*
X348184Y26497D01*
X348160Y26358D01*
X348110Y26202D01*
X348037Y26022D01*
X347996Y25923D01*
X347938Y25825D01*
X347881Y25726D01*
X347807Y25628D01*
X347733Y25530D01*
X347643Y25431D01*
X347536Y25333D01*
X347430Y25234D01*
X347307Y25144D01*
X347167Y25054D01*
X347020Y24972D01*
X346864Y24898D01*
X346684Y24824D01*
X346495Y24759D01*
X346290Y24701D01*
X346069Y24652D01*
X345831Y24611D01*
X345577Y24587D01*
X345298Y24570D01*
X345011Y24562D01*
X341821D01*
Y28818D01*
Y28826D01*
Y28842D01*
Y28867D01*
X341829Y28908D01*
X341837Y28957D01*
X341846Y29015D01*
X341870Y29154D01*
X341919Y29310D01*
X341993Y29490D01*
X342092Y29687D01*
X342149Y29785D01*
X342223Y29884D01*
X342297Y29982D01*
X342387Y30081D01*
X342485Y30179D01*
X342600Y30277D01*
X342723Y30368D01*
X342854Y30458D01*
X343002Y30540D01*
X343166Y30614D01*
X343346Y30687D01*
X343535Y30753D01*
X343740Y30810D01*
X343961Y30860D01*
X344199Y30901D01*
X344453Y30925D01*
X344724Y30942D01*
X345011Y30950D01*
X347143D01*
Y29884D01*
D02*
G37*
G36*
X337696Y30942D02*
X337770D01*
X337852Y30925D01*
X337951Y30917D01*
X338057Y30901D01*
X338172Y30876D01*
X338295Y30851D01*
X338566Y30778D01*
X338713Y30737D01*
X338861Y30679D01*
X339008Y30622D01*
X339156Y30548D01*
X339304Y30474D01*
X339451Y30384D01*
X339599Y30277D01*
X339746Y30171D01*
X339878Y30048D01*
X340017Y29908D01*
X340140Y29761D01*
X340255Y29605D01*
X340361Y29425D01*
X340460Y29236D01*
X340542Y29031D01*
X340616Y28810D01*
X340673Y28572D01*
X340722Y28318D01*
X340747Y28039D01*
X340755Y27752D01*
Y27744D01*
Y27719D01*
Y27670D01*
X340747Y27612D01*
Y27547D01*
X340730Y27457D01*
X340722Y27358D01*
X340706Y27252D01*
X340681Y27137D01*
X340657Y27014D01*
X340583Y26743D01*
X340542Y26604D01*
X340484Y26456D01*
X340427Y26309D01*
X340353Y26161D01*
X340279Y26005D01*
X340189Y25858D01*
X340083Y25710D01*
X339976Y25571D01*
X339853Y25431D01*
X339714Y25300D01*
X339566Y25177D01*
X339410Y25062D01*
X339230Y24956D01*
X339041Y24857D01*
X338836Y24775D01*
X338615Y24701D01*
X338377Y24644D01*
X338123Y24595D01*
X337844Y24570D01*
X337557Y24562D01*
X337475D01*
X337418Y24570D01*
X337352Y24578D01*
X337262Y24587D01*
X337163Y24595D01*
X337057Y24611D01*
X336942Y24636D01*
X336819Y24660D01*
X336548Y24734D01*
X336261Y24833D01*
X336114Y24890D01*
X335966Y24964D01*
X335810Y25038D01*
X335663Y25128D01*
X335515Y25226D01*
X335376Y25341D01*
X335236Y25464D01*
X335105Y25595D01*
X334982Y25743D01*
X334867Y25907D01*
X334761Y26087D01*
X334662Y26276D01*
X334580Y26481D01*
X334507Y26702D01*
X334449Y26940D01*
X334400Y27194D01*
X334375Y27465D01*
X334367Y27752D01*
Y27760D01*
Y27785D01*
Y27834D01*
X334375Y27891D01*
X334384Y27965D01*
X334392Y28047D01*
X334400Y28145D01*
X334416Y28252D01*
X334441Y28367D01*
X334466Y28490D01*
X334539Y28760D01*
X334638Y29056D01*
X334695Y29203D01*
X334769Y29351D01*
X334843Y29498D01*
X334933Y29646D01*
X335031Y29794D01*
X335146Y29941D01*
X335269Y30072D01*
X335400Y30212D01*
X335548Y30335D01*
X335712Y30450D01*
X335892Y30556D01*
X336081Y30655D01*
X336286Y30737D01*
X336507Y30810D01*
X336745Y30868D01*
X336999Y30917D01*
X337270Y30942D01*
X337557Y30950D01*
X337639D01*
X337696Y30942D01*
D02*
G37*
G36*
X330316D02*
X330398Y30933D01*
X330497Y30925D01*
X330603Y30917D01*
X330718Y30901D01*
X330841Y30884D01*
X331112Y30835D01*
X331407Y30769D01*
X331702Y30687D01*
X331997Y30573D01*
X332293Y30433D01*
X332424Y30351D01*
X332563Y30261D01*
X332686Y30154D01*
X332801Y30048D01*
X332908Y29933D01*
X333006Y29810D01*
X333088Y29671D01*
X333162Y29523D01*
X333219Y29367D01*
X333268Y29195D01*
X333293Y29015D01*
X333301Y28818D01*
Y28810D01*
Y28769D01*
X333293Y28719D01*
Y28646D01*
X333277Y28555D01*
X333260Y28457D01*
X333236Y28342D01*
X333203Y28219D01*
X333162Y28096D01*
X333104Y27965D01*
X333039Y27826D01*
X332965Y27694D01*
X332867Y27571D01*
X332760Y27448D01*
X332637Y27334D01*
X332498Y27227D01*
X332506Y27219D01*
X332530Y27202D01*
X332571Y27170D01*
X332621Y27129D01*
X332686Y27071D01*
X332752Y27006D01*
X332826Y26924D01*
X332899Y26825D01*
X332973Y26719D01*
X333047Y26604D01*
X333113Y26473D01*
X333178Y26325D01*
X333227Y26169D01*
X333268Y26005D01*
X333293Y25825D01*
X333301Y25628D01*
Y24562D01*
X332235D01*
Y25628D01*
Y25636D01*
Y25677D01*
X332219Y25726D01*
X332202Y25792D01*
X332170Y25874D01*
X332120Y25964D01*
X332055Y26063D01*
X331973Y26161D01*
X331858Y26259D01*
X331719Y26358D01*
X331637Y26407D01*
X331546Y26448D01*
X331440Y26489D01*
X331333Y26530D01*
X331218Y26563D01*
X331095Y26596D01*
X330956Y26628D01*
X330808Y26645D01*
X330653Y26669D01*
X330480Y26686D01*
X330300Y26694D01*
X326913D01*
Y27760D01*
X330193D01*
X330243Y27768D01*
X330300D01*
X330439Y27776D01*
X330595Y27793D01*
X330776Y27817D01*
X330972Y27850D01*
X331169Y27891D01*
X331366Y27949D01*
X331563Y28022D01*
X331743Y28104D01*
X331899Y28203D01*
X332038Y28326D01*
X332096Y28400D01*
X332145Y28465D01*
X332186Y28547D01*
X332211Y28629D01*
X332227Y28719D01*
X332235Y28818D01*
Y28826D01*
Y28867D01*
X332219Y28916D01*
X332202Y28982D01*
X332170Y29064D01*
X332120Y29154D01*
X332055Y29252D01*
X331973Y29351D01*
X331858Y29449D01*
X331719Y29548D01*
X331637Y29597D01*
X331546Y29638D01*
X331440Y29679D01*
X331333Y29720D01*
X331218Y29753D01*
X331095Y29785D01*
X330956Y29818D01*
X330808Y29835D01*
X330653Y29859D01*
X330480Y29876D01*
X330300Y29884D01*
X326913D01*
Y30950D01*
X330243D01*
X330316Y30942D01*
D02*
G37*
G36*
X320247Y29884D02*
X316909D01*
X316852Y29876D01*
X316721Y29867D01*
X316557Y29851D01*
X316376Y29826D01*
X316188Y29794D01*
X315991Y29753D01*
X315786Y29695D01*
X315597Y29630D01*
X315417Y29539D01*
X315261Y29441D01*
X315122Y29318D01*
X315064Y29252D01*
X315015Y29179D01*
X314974Y29097D01*
X314950Y29015D01*
X314933Y28924D01*
X314925Y28826D01*
X317188D01*
X317262Y28818D01*
X317344Y28810D01*
X317442Y28801D01*
X317549Y28793D01*
X317664Y28777D01*
X317787Y28760D01*
X318057Y28711D01*
X318353Y28646D01*
X318648Y28564D01*
X318943Y28449D01*
X319238Y28309D01*
X319369Y28227D01*
X319509Y28137D01*
X319632Y28031D01*
X319747Y27924D01*
X319853Y27809D01*
X319952Y27686D01*
X320034Y27547D01*
X320107Y27399D01*
X320165Y27243D01*
X320214Y27071D01*
X320239Y26891D01*
X320247Y26694D01*
Y26686D01*
Y26669D01*
Y26645D01*
X320239Y26604D01*
Y26555D01*
X320222Y26497D01*
X320198Y26358D01*
X320148Y26202D01*
X320075Y26022D01*
X320034Y25923D01*
X319976Y25825D01*
X319919Y25726D01*
X319845Y25628D01*
X319771Y25530D01*
X319681Y25431D01*
X319574Y25333D01*
X319468Y25234D01*
X319345Y25144D01*
X319205Y25054D01*
X319058Y24972D01*
X318902Y24898D01*
X318722Y24824D01*
X318533Y24759D01*
X318328Y24701D01*
X318107Y24652D01*
X317869Y24611D01*
X317615Y24587D01*
X317336Y24570D01*
X317049Y24562D01*
X313859D01*
Y25628D01*
X317139D01*
X317188Y25636D01*
X317246D01*
X317385Y25644D01*
X317541Y25661D01*
X317721Y25685D01*
X317918Y25718D01*
X318115Y25759D01*
X318312Y25817D01*
X318508Y25890D01*
X318689Y25972D01*
X318845Y26079D01*
X318984Y26202D01*
X319041Y26268D01*
X319091Y26341D01*
X319132Y26423D01*
X319156Y26505D01*
X319173Y26596D01*
X319181Y26694D01*
Y26702D01*
Y26743D01*
X319164Y26792D01*
X319148Y26858D01*
X319115Y26940D01*
X319066Y27030D01*
X319000Y27129D01*
X318918Y27227D01*
X318804Y27325D01*
X318664Y27424D01*
X318582Y27473D01*
X318492Y27514D01*
X318385Y27555D01*
X318279Y27596D01*
X318164Y27629D01*
X318041Y27662D01*
X317902Y27694D01*
X317754Y27711D01*
X317598Y27735D01*
X317426Y27752D01*
X317246Y27760D01*
X313859D01*
Y28818D01*
Y28826D01*
Y28842D01*
Y28867D01*
X313867Y28908D01*
X313875Y28957D01*
X313884Y29015D01*
X313908Y29154D01*
X313957Y29310D01*
X314031Y29490D01*
X314130Y29687D01*
X314187Y29785D01*
X314261Y29884D01*
X314335Y29982D01*
X314425Y30081D01*
X314523Y30179D01*
X314638Y30277D01*
X314761Y30368D01*
X314892Y30458D01*
X315040Y30540D01*
X315204Y30614D01*
X315384Y30687D01*
X315573Y30753D01*
X315778Y30810D01*
X315999Y30860D01*
X316237Y30901D01*
X316491Y30925D01*
X316762Y30942D01*
X317049Y30950D01*
X320247D01*
Y29884D01*
D02*
G37*
G36*
X312793D02*
X309866D01*
Y24562D01*
X308800D01*
Y29884D01*
X306135D01*
Y30950D01*
X312793D01*
Y29884D01*
D02*
G37*
G36*
X302010Y30942D02*
X302084D01*
X302166Y30925D01*
X302264Y30917D01*
X302371Y30901D01*
X302486Y30876D01*
X302609Y30851D01*
X302879Y30778D01*
X303027Y30737D01*
X303174Y30679D01*
X303322Y30622D01*
X303470Y30548D01*
X303617Y30474D01*
X303765Y30384D01*
X303912Y30277D01*
X304060Y30171D01*
X304191Y30048D01*
X304331Y29908D01*
X304454Y29761D01*
X304568Y29605D01*
X304675Y29425D01*
X304773Y29236D01*
X304855Y29031D01*
X304929Y28810D01*
X304987Y28572D01*
X305036Y28318D01*
X305060Y28039D01*
X305069Y27752D01*
Y24562D01*
X304003D01*
Y27752D01*
Y27760D01*
Y27776D01*
Y27801D01*
Y27842D01*
X303994Y27891D01*
X303986Y27949D01*
X303970Y28088D01*
X303937Y28244D01*
X303888Y28424D01*
X303822Y28621D01*
X303740Y28818D01*
X303625Y29015D01*
X303486Y29211D01*
X303404Y29302D01*
X303314Y29392D01*
X303207Y29474D01*
X303101Y29548D01*
X302986Y29621D01*
X302863Y29687D01*
X302723Y29744D01*
X302576Y29794D01*
X302420Y29835D01*
X302248Y29859D01*
X302067Y29876D01*
X301871Y29884D01*
X301780D01*
X301731Y29876D01*
X301674Y29867D01*
X301543Y29851D01*
X301379Y29818D01*
X301198Y29769D01*
X301010Y29703D01*
X300813Y29621D01*
X300608Y29507D01*
X300419Y29367D01*
X300329Y29285D01*
X300239Y29195D01*
X300157Y29088D01*
X300083Y28982D01*
X300009Y28867D01*
X299944Y28744D01*
X299886Y28605D01*
X299837Y28457D01*
X299796Y28301D01*
X299771Y28129D01*
X299755Y27949D01*
X299747Y27752D01*
Y24562D01*
X298681D01*
Y27752D01*
Y27760D01*
Y27785D01*
Y27834D01*
X298689Y27891D01*
X298697Y27965D01*
X298705Y28047D01*
X298714Y28145D01*
X298730Y28252D01*
X298755Y28367D01*
X298779Y28490D01*
X298853Y28760D01*
X298951Y29056D01*
X299009Y29203D01*
X299083Y29351D01*
X299156Y29498D01*
X299247Y29646D01*
X299345Y29794D01*
X299460Y29941D01*
X299583Y30072D01*
X299714Y30212D01*
X299862Y30335D01*
X300026Y30450D01*
X300206Y30556D01*
X300395Y30655D01*
X300600Y30737D01*
X300821Y30810D01*
X301059Y30868D01*
X301313Y30917D01*
X301584Y30942D01*
X301871Y30950D01*
X301953D01*
X302010Y30942D01*
D02*
G37*
G36*
X297615Y24562D02*
X296549D01*
Y29884D01*
X294327D01*
X294277Y29876D01*
X294220Y29867D01*
X294089Y29851D01*
X293925Y29818D01*
X293744Y29769D01*
X293556Y29703D01*
X293359Y29621D01*
X293154Y29507D01*
X292965Y29367D01*
X292875Y29285D01*
X292785Y29195D01*
X292703Y29088D01*
X292629Y28982D01*
X292555Y28867D01*
X292490Y28744D01*
X292432Y28605D01*
X292383Y28457D01*
X292342Y28301D01*
X292318Y28129D01*
X292301Y27949D01*
X292293Y27752D01*
Y27744D01*
Y27727D01*
Y27703D01*
X292301Y27662D01*
Y27612D01*
X292309Y27555D01*
X292326Y27424D01*
X292359Y27260D01*
X292408Y27079D01*
X292473Y26891D01*
X292555Y26694D01*
X292670Y26489D01*
X292810Y26300D01*
X292892Y26210D01*
X292982Y26120D01*
X293080Y26038D01*
X293187Y25964D01*
X293310Y25890D01*
X293433Y25825D01*
X293572Y25767D01*
X293720Y25718D01*
X293876Y25677D01*
X294040Y25653D01*
X294220Y25636D01*
X294417Y25628D01*
X295483D01*
Y24562D01*
X294335D01*
X294277Y24570D01*
X294212Y24578D01*
X294122Y24587D01*
X294023Y24595D01*
X293917Y24611D01*
X293802Y24636D01*
X293679Y24660D01*
X293408Y24734D01*
X293121Y24833D01*
X292974Y24890D01*
X292826Y24964D01*
X292670Y25038D01*
X292523Y25128D01*
X292375Y25226D01*
X292236Y25341D01*
X292096Y25464D01*
X291965Y25595D01*
X291842Y25743D01*
X291727Y25907D01*
X291621Y26087D01*
X291522Y26276D01*
X291440Y26481D01*
X291366Y26702D01*
X291309Y26940D01*
X291260Y27194D01*
X291235Y27465D01*
X291227Y27752D01*
Y27760D01*
Y27785D01*
Y27834D01*
X291235Y27891D01*
X291243Y27965D01*
X291252Y28047D01*
X291260Y28145D01*
X291276Y28252D01*
X291301Y28367D01*
X291325Y28490D01*
X291399Y28760D01*
X291498Y29056D01*
X291555Y29203D01*
X291629Y29351D01*
X291703Y29498D01*
X291793Y29646D01*
X291891Y29794D01*
X292006Y29941D01*
X292129Y30072D01*
X292260Y30212D01*
X292408Y30335D01*
X292572Y30450D01*
X292752Y30556D01*
X292941Y30655D01*
X293146Y30737D01*
X293367Y30810D01*
X293605Y30868D01*
X293859Y30917D01*
X294130Y30942D01*
X294417Y30950D01*
X297615D01*
Y24562D01*
D02*
G37*
%LPC*%
G36*
X614258Y60535D02*
X614153D01*
X614096Y60526D01*
X614029Y60516D01*
X613876Y60497D01*
X613685Y60459D01*
X613474Y60401D01*
X613254Y60325D01*
X613025Y60229D01*
X612786Y60095D01*
X612566Y59933D01*
X612461Y59837D01*
X612356Y59732D01*
X612260Y59608D01*
X612174Y59484D01*
X612088Y59350D01*
X612012Y59206D01*
X611945Y59044D01*
X611887Y58872D01*
X611839Y58690D01*
X611811Y58489D01*
X611792Y58279D01*
X611782Y58050D01*
Y58040D01*
Y58021D01*
Y57992D01*
X611792Y57944D01*
Y57887D01*
X611801Y57820D01*
X611820Y57667D01*
X611859Y57476D01*
X611916Y57266D01*
X611993Y57046D01*
X612088Y56816D01*
X612222Y56577D01*
X612384Y56357D01*
X612480Y56252D01*
X612585Y56147D01*
X612700Y56051D01*
X612824Y55966D01*
X612968Y55879D01*
X613111Y55803D01*
X613273Y55736D01*
X613446Y55679D01*
X613627Y55631D01*
X613818Y55602D01*
X614029Y55583D01*
X614258Y55573D01*
X614316D01*
X614363Y55583D01*
X614421D01*
X614488Y55593D01*
X614650Y55612D01*
X614832Y55650D01*
X615042Y55707D01*
X615272Y55784D01*
X615501Y55879D01*
X615730Y56013D01*
X615960Y56176D01*
X616065Y56271D01*
X616170Y56377D01*
X616266Y56491D01*
X616352Y56616D01*
X616438Y56759D01*
X616514Y56902D01*
X616581Y57065D01*
X616639Y57237D01*
X616686Y57419D01*
X616715Y57610D01*
X616734Y57820D01*
X616744Y58050D01*
Y58059D01*
Y58078D01*
Y58107D01*
Y58155D01*
X616734Y58212D01*
X616725Y58279D01*
X616706Y58442D01*
X616667Y58623D01*
X616610Y58833D01*
X616534Y59063D01*
X616438Y59292D01*
X616304Y59522D01*
X616142Y59751D01*
X616046Y59856D01*
X615941Y59962D01*
X615816Y60057D01*
X615692Y60143D01*
X615558Y60229D01*
X615415Y60306D01*
X615252Y60373D01*
X615080Y60430D01*
X614899Y60478D01*
X614698Y60506D01*
X614488Y60526D01*
X614258Y60535D01*
D02*
G37*
G36*
X579182Y60535D02*
X579077D01*
X579020Y60526D01*
X578953Y60516D01*
X578800Y60497D01*
X578609Y60459D01*
X578399Y60401D01*
X578179Y60325D01*
X577949Y60229D01*
X577710Y60095D01*
X577490Y59933D01*
X577385Y59837D01*
X577280Y59732D01*
X577184Y59608D01*
X577099Y59484D01*
X577012Y59350D01*
X576936Y59206D01*
X576869Y59044D01*
X576812Y58872D01*
X576764Y58690D01*
X576735Y58489D01*
X576716Y58279D01*
X576707Y58050D01*
Y58040D01*
Y58021D01*
Y57992D01*
X576716Y57944D01*
Y57887D01*
X576726Y57820D01*
X576745Y57667D01*
X576783Y57476D01*
X576840Y57266D01*
X576917Y57046D01*
X577012Y56816D01*
X577146Y56577D01*
X577309Y56357D01*
X577404Y56252D01*
X577509Y56147D01*
X577624Y56051D01*
X577748Y55966D01*
X577892Y55879D01*
X578035Y55803D01*
X578198Y55736D01*
X578370Y55679D01*
X578552Y55631D01*
X578743Y55602D01*
X578953Y55583D01*
X579182Y55573D01*
X579240D01*
X579288Y55583D01*
X579345D01*
X579412Y55593D01*
X579574Y55612D01*
X579756Y55650D01*
X579966Y55707D01*
X580196Y55784D01*
X580425Y55879D01*
X580655Y56013D01*
X580884Y56176D01*
X580989Y56271D01*
X581095Y56377D01*
X581190Y56491D01*
X581276Y56616D01*
X581362Y56759D01*
X581439Y56902D01*
X581506Y57065D01*
X581563Y57237D01*
X581611Y57419D01*
X581639Y57610D01*
X581659Y57820D01*
X581668Y58050D01*
Y58059D01*
Y58078D01*
Y58107D01*
Y58155D01*
X581659Y58212D01*
X581649Y58279D01*
X581630Y58442D01*
X581592Y58623D01*
X581534Y58833D01*
X581458Y59063D01*
X581362Y59292D01*
X581228Y59522D01*
X581066Y59751D01*
X580970Y59856D01*
X580865Y59962D01*
X580741Y60057D01*
X580617Y60143D01*
X580483Y60229D01*
X580339Y60306D01*
X580177Y60373D01*
X580005Y60430D01*
X579823Y60478D01*
X579622Y60506D01*
X579412Y60526D01*
X579182Y60535D01*
D02*
G37*
G36*
X527960Y60535D02*
X527855D01*
X527798Y60526D01*
X527731Y60516D01*
X527578Y60497D01*
X527387Y60459D01*
X527176Y60401D01*
X526956Y60325D01*
X526727Y60229D01*
X526488Y60095D01*
X526268Y59933D01*
X526163Y59837D01*
X526058Y59732D01*
X525962Y59608D01*
X525876Y59484D01*
X525790Y59350D01*
X525713Y59206D01*
X525646Y59044D01*
X525589Y58872D01*
X525541Y58690D01*
X525513Y58489D01*
X525494Y58279D01*
X525484Y58049D01*
Y58040D01*
Y58021D01*
Y57992D01*
X525494Y57944D01*
Y57887D01*
X525503Y57820D01*
X525522Y57667D01*
X525561Y57476D01*
X525618Y57266D01*
X525694Y57046D01*
X525790Y56816D01*
X525924Y56577D01*
X526086Y56357D01*
X526182Y56252D01*
X526287Y56147D01*
X526402Y56051D01*
X526526Y55966D01*
X526670Y55879D01*
X526813Y55803D01*
X526975Y55736D01*
X527147Y55679D01*
X527329Y55631D01*
X527520Y55602D01*
X527731Y55583D01*
X527960Y55573D01*
X528017D01*
X528065Y55583D01*
X528123D01*
X528190Y55593D01*
X528352Y55612D01*
X528534Y55650D01*
X528744Y55707D01*
X528973Y55784D01*
X529203Y55879D01*
X529432Y56013D01*
X529662Y56176D01*
X529767Y56271D01*
X529872Y56376D01*
X529968Y56491D01*
X530054Y56616D01*
X530140Y56759D01*
X530216Y56902D01*
X530283Y57065D01*
X530340Y57237D01*
X530388Y57419D01*
X530417Y57610D01*
X530436Y57820D01*
X530446Y58049D01*
Y58059D01*
Y58078D01*
Y58107D01*
Y58155D01*
X530436Y58212D01*
X530427Y58279D01*
X530407Y58442D01*
X530369Y58623D01*
X530312Y58833D01*
X530235Y59063D01*
X530140Y59292D01*
X530006Y59522D01*
X529843Y59751D01*
X529748Y59856D01*
X529643Y59961D01*
X529518Y60057D01*
X529394Y60143D01*
X529260Y60229D01*
X529117Y60306D01*
X528954Y60373D01*
X528782Y60430D01*
X528601Y60478D01*
X528400Y60506D01*
X528190Y60526D01*
X527960Y60535D01*
D02*
G37*
G36*
X352465Y29884D02*
X352374D01*
X352325Y29876D01*
X352268Y29867D01*
X352137Y29851D01*
X351973Y29818D01*
X351792Y29769D01*
X351604Y29703D01*
X351407Y29621D01*
X351202Y29507D01*
X351013Y29367D01*
X350923Y29285D01*
X350833Y29195D01*
X350751Y29088D01*
X350677Y28982D01*
X350603Y28867D01*
X350538Y28744D01*
X350480Y28605D01*
X350431Y28457D01*
X350390Y28301D01*
X350365Y28129D01*
X350349Y27949D01*
X350341Y27752D01*
Y27744D01*
Y27727D01*
Y27703D01*
X350349Y27662D01*
Y27612D01*
X350357Y27555D01*
X350374Y27424D01*
X350406Y27260D01*
X350456Y27079D01*
X350521Y26891D01*
X350603Y26694D01*
X350718Y26489D01*
X350857Y26300D01*
X350939Y26210D01*
X351030Y26120D01*
X351128Y26038D01*
X351235Y25964D01*
X351358Y25890D01*
X351481Y25825D01*
X351620Y25767D01*
X351768Y25718D01*
X351923Y25677D01*
X352087Y25653D01*
X352268Y25636D01*
X352465Y25628D01*
X352514D01*
X352555Y25636D01*
X352604D01*
X352661Y25644D01*
X352801Y25661D01*
X352957Y25694D01*
X353137Y25743D01*
X353334Y25808D01*
X353531Y25890D01*
X353727Y26005D01*
X353924Y26145D01*
X354014Y26227D01*
X354105Y26317D01*
X354187Y26415D01*
X354260Y26522D01*
X354334Y26645D01*
X354400Y26768D01*
X354457Y26907D01*
X354506Y27055D01*
X354547Y27211D01*
X354572Y27375D01*
X354588Y27555D01*
X354597Y27752D01*
Y27760D01*
Y27776D01*
Y27801D01*
Y27842D01*
X354588Y27891D01*
X354580Y27949D01*
X354564Y28088D01*
X354531Y28244D01*
X354482Y28424D01*
X354416Y28621D01*
X354334Y28818D01*
X354219Y29015D01*
X354080Y29211D01*
X353998Y29302D01*
X353908Y29392D01*
X353801Y29474D01*
X353695Y29548D01*
X353580Y29621D01*
X353457Y29687D01*
X353317Y29744D01*
X353170Y29794D01*
X353014Y29835D01*
X352842Y29859D01*
X352661Y29876D01*
X352465Y29884D01*
D02*
G37*
G36*
X337557D02*
X337467D01*
X337418Y29876D01*
X337360Y29867D01*
X337229Y29851D01*
X337065Y29818D01*
X336885Y29769D01*
X336696Y29703D01*
X336499Y29621D01*
X336294Y29507D01*
X336106Y29367D01*
X336015Y29285D01*
X335925Y29195D01*
X335843Y29088D01*
X335769Y28982D01*
X335696Y28867D01*
X335630Y28744D01*
X335573Y28605D01*
X335523Y28457D01*
X335482Y28301D01*
X335458Y28129D01*
X335441Y27949D01*
X335433Y27752D01*
Y27744D01*
Y27727D01*
Y27703D01*
X335441Y27662D01*
Y27612D01*
X335450Y27555D01*
X335466Y27424D01*
X335499Y27260D01*
X335548Y27079D01*
X335614Y26891D01*
X335696Y26694D01*
X335810Y26489D01*
X335950Y26300D01*
X336032Y26210D01*
X336122Y26120D01*
X336220Y26038D01*
X336327Y25964D01*
X336450Y25890D01*
X336573Y25825D01*
X336712Y25767D01*
X336860Y25718D01*
X337016Y25677D01*
X337180Y25653D01*
X337360Y25636D01*
X337557Y25628D01*
X337606D01*
X337647Y25636D01*
X337696D01*
X337754Y25644D01*
X337893Y25661D01*
X338049Y25694D01*
X338229Y25743D01*
X338426Y25808D01*
X338623Y25890D01*
X338820Y26005D01*
X339017Y26145D01*
X339107Y26227D01*
X339197Y26317D01*
X339279Y26415D01*
X339353Y26522D01*
X339427Y26645D01*
X339492Y26768D01*
X339550Y26907D01*
X339599Y27055D01*
X339640Y27211D01*
X339664Y27375D01*
X339681Y27555D01*
X339689Y27752D01*
Y27760D01*
Y27776D01*
Y27801D01*
Y27842D01*
X339681Y27891D01*
X339673Y27949D01*
X339656Y28088D01*
X339623Y28244D01*
X339574Y28424D01*
X339509Y28621D01*
X339427Y28818D01*
X339312Y29015D01*
X339172Y29211D01*
X339090Y29302D01*
X339000Y29392D01*
X338894Y29474D01*
X338787Y29548D01*
X338672Y29621D01*
X338549Y29687D01*
X338410Y29744D01*
X338262Y29794D01*
X338106Y29835D01*
X337934Y29859D01*
X337754Y29876D01*
X337557Y29884D01*
D02*
G37*
%LPD*%
D10*
X560335Y301575D02*
X559596Y302001D01*
Y301149D01*
X560335Y301575D01*
X439862Y128957D02*
X439124Y129383D01*
Y128531D01*
X439862Y128957D01*
X581988Y188878D02*
X581250Y189304D01*
Y188452D01*
X581988Y188878D01*
X612894Y178150D02*
X612155Y178576D01*
Y177723D01*
X612894Y178150D01*
X732443Y92913D02*
X731705Y93340D01*
Y92487D01*
X732443Y92913D01*
X57230Y181597D02*
X56492Y182023D01*
Y181171D01*
X57230Y181597D01*
X35728Y151299D02*
X34990Y151725D01*
Y150873D01*
X35728Y151299D01*
X399705Y128898D02*
X398967Y129324D01*
Y128471D01*
X399705Y128898D01*
X486319Y214784D02*
X485581Y215210D01*
Y214357D01*
X486319Y214784D01*
X486319Y265965D02*
X485581Y266391D01*
Y265538D01*
X486319Y265965D01*
X553248Y265965D02*
X552510Y266391D01*
Y265538D01*
X553248Y265965D01*
X401673Y273289D02*
X400935Y273716D01*
Y272863D01*
X401673Y273289D01*
X270768Y61614D02*
X270029Y62040D01*
Y61188D01*
X270768Y61614D01*
X635827Y279528D02*
X635089Y279954D01*
Y279101D01*
X635827Y279528D01*
X743110Y188976D02*
X742372Y189403D01*
Y188550D01*
X743110Y188976D01*
X488543Y90354D02*
X487805Y90781D01*
Y89928D01*
X488543Y90354D01*
X390394Y51378D02*
X389655Y51804D01*
Y50952D01*
X390394Y51378D01*
X468858Y183821D02*
X468120Y184247D01*
Y183395D01*
X468858Y183821D01*
X370433Y90354D02*
X369695Y90781D01*
Y89928D01*
X370433Y90354D01*
X119783Y187303D02*
X119045Y187729D01*
Y186877D01*
X119783Y187303D01*
X99242Y247909D02*
X98504Y248335D01*
Y247483D01*
X99242Y247909D01*
X33051Y222146D02*
X32313Y222572D01*
Y221720D01*
X33051Y222146D01*
X156890Y240886D02*
X156152Y241312D01*
Y240460D01*
X156890Y240886D01*
D11*
X128358Y232591D02*
D03*
Y242827D02*
D03*
D12*
X98078Y103347D02*
X97418Y103728D01*
Y102965D01*
X98078Y103347D01*
X257874Y271654D02*
X348425D01*
X257874Y173228D02*
X348425D01*
X257874D02*
Y271654D01*
X348425Y173228D02*
Y271654D01*
X100394Y101772D02*
Y107283D01*
X105905D01*
X100394Y71850D02*
X105905D01*
X100394D02*
Y77362D01*
X135827Y71850D02*
Y77362D01*
X130315Y71850D02*
X135827D01*
X130315Y107283D02*
X135827D01*
Y101772D02*
Y107283D01*
X319747Y249093D02*
X318747Y250093D01*
X316748D01*
X315748Y249093D01*
Y245094D01*
X316748Y244094D01*
X318747D01*
X319747Y245094D01*
Y247094D01*
X317747D01*
X321746Y244094D02*
Y250093D01*
X325745Y244094D01*
Y250093D01*
X327744D02*
Y244094D01*
X330743D01*
X331743Y245094D01*
Y249093D01*
X330743Y250093D01*
X327744D01*
X315748Y239093D02*
X316748Y240092D01*
X318747D01*
X319747Y239093D01*
Y238093D01*
X318747Y237093D01*
X317747D01*
X318747D01*
X319747Y236094D01*
Y235094D01*
X318747Y234095D01*
X316748D01*
X315748Y235094D01*
X321746Y240092D02*
Y236094D01*
X323745Y234095D01*
X325745Y236094D01*
Y240092D01*
X327744Y239093D02*
X328744Y240092D01*
X330743D01*
X331743Y239093D01*
Y238093D01*
X330743Y237093D01*
X329744D01*
X330743D01*
X331743Y236094D01*
Y235094D01*
X330743Y234095D01*
X328744D01*
X327744Y235094D01*
X315748Y229408D02*
X316748Y230408D01*
X318747D01*
X319747Y229408D01*
Y228408D01*
X318747Y227409D01*
X317747D01*
X318747D01*
X319747Y226409D01*
Y225409D01*
X318747Y224410D01*
X316748D01*
X315748Y225409D01*
X321746Y230408D02*
Y226409D01*
X323745Y224410D01*
X325745Y226409D01*
Y230408D01*
X327744Y229408D02*
X328744Y230408D01*
X330743D01*
X331743Y229408D01*
Y228408D01*
X330743Y227409D01*
X329744D01*
X330743D01*
X331743Y226409D01*
Y225409D01*
X330743Y224410D01*
X328744D01*
X327744Y225409D01*
X316535Y213976D02*
Y219974D01*
X320534Y213976D01*
Y219974D01*
X326532Y218975D02*
X325533Y219974D01*
X323533D01*
X322533Y218975D01*
Y214976D01*
X323533Y213976D01*
X325533D01*
X326532Y214976D01*
X316535Y204331D02*
Y210329D01*
X319534D01*
X320534Y209329D01*
Y207330D01*
X319534Y206330D01*
X316535D01*
X318535D02*
X320534Y204331D01*
X326532Y209329D02*
X325533Y210329D01*
X323533D01*
X322533Y209329D01*
Y208329D01*
X323533Y207330D01*
X325533D01*
X326532Y206330D01*
Y205330D01*
X325533Y204331D01*
X323533D01*
X322533Y205330D01*
X328532Y210329D02*
X332530D01*
X330531D01*
Y204331D01*
X316535Y194488D02*
Y200486D01*
X318535Y198487D01*
X320534Y200486D01*
Y194488D01*
X322533Y200486D02*
X324533D01*
X323533D01*
Y194488D01*
X322533D01*
X324533D01*
X331531Y199487D02*
X330531Y200486D01*
X328532D01*
X327532Y199487D01*
Y198487D01*
X328532Y197487D01*
X330531D01*
X331531Y196487D01*
Y195488D01*
X330531Y194488D01*
X328532D01*
X327532Y195488D01*
X336529Y200486D02*
X334530D01*
X333530Y199487D01*
Y195488D01*
X334530Y194488D01*
X336529D01*
X337529Y195488D01*
Y199487D01*
X336529Y200486D01*
X274410Y200683D02*
X276409D01*
X275409D01*
Y194685D01*
X274410D01*
X276409D01*
X279408D02*
Y200683D01*
X283407Y194685D01*
Y200683D01*
X285406D02*
X289405D01*
X287405D01*
Y194685D01*
X278408Y209683D02*
X277409Y210683D01*
X275409D01*
X274410Y209683D01*
Y205685D01*
X275409Y204685D01*
X277409D01*
X278408Y205685D01*
X284406Y209683D02*
X283407Y210683D01*
X281407D01*
X280408Y209683D01*
Y208684D01*
X281407Y207684D01*
X283407D01*
X284406Y206684D01*
Y205685D01*
X283407Y204685D01*
X281407D01*
X280408Y205685D01*
X272503Y219762D02*
X271503Y220762D01*
X269504D01*
X268504Y219762D01*
Y218762D01*
X269504Y217763D01*
X271503D01*
X272503Y216763D01*
Y215763D01*
X271503Y214764D01*
X269504D01*
X268504Y215763D01*
X278501Y219762D02*
X277501Y220762D01*
X275502D01*
X274502Y219762D01*
Y215763D01*
X275502Y214764D01*
X277501D01*
X278501Y215763D01*
X280500Y220762D02*
Y214764D01*
X284499D01*
X286498Y220762D02*
Y214764D01*
Y216763D01*
X290497Y220762D01*
X287498Y217763D01*
X290497Y214764D01*
X270079Y224606D02*
Y230604D01*
X272078Y228605D01*
X274078Y230604D01*
Y224606D01*
X279076Y230604D02*
X277077D01*
X276077Y229605D01*
Y225606D01*
X277077Y224606D01*
X279076D01*
X280076Y225606D01*
Y229605D01*
X279076Y230604D01*
X286074Y229605D02*
X285074Y230604D01*
X283074D01*
X282075Y229605D01*
Y228605D01*
X283074Y227605D01*
X285074D01*
X286074Y226606D01*
Y225606D01*
X285074Y224606D01*
X283074D01*
X282075Y225606D01*
X288073Y230604D02*
X290072D01*
X289073D01*
Y224606D01*
X288073D01*
X290072D01*
X278408Y239683D02*
X277409Y240683D01*
X275409D01*
X274410Y239683D01*
Y235685D01*
X275409Y234685D01*
X277409D01*
X278408Y235685D01*
Y237684D01*
X276409D01*
X280408Y234685D02*
Y240683D01*
X284406Y234685D01*
Y240683D01*
X286406D02*
Y234685D01*
X289405D01*
X290404Y235685D01*
Y239683D01*
X289405Y240683D01*
X286406D01*
X278408Y249683D02*
X277409Y250683D01*
X275409D01*
X274410Y249683D01*
Y245685D01*
X275409Y244685D01*
X277409D01*
X278408Y245685D01*
Y247684D01*
X276409D01*
X280408Y244685D02*
Y250683D01*
X284406Y244685D01*
Y250683D01*
X286406D02*
Y244685D01*
X289405D01*
X290404Y245685D01*
Y249683D01*
X289405Y250683D01*
X286406D01*
X275394Y269581D02*
Y263583D01*
X278393D01*
X279392Y264582D01*
Y265582D01*
X278393Y266582D01*
X275394D01*
X278393D01*
X279392Y267581D01*
Y268581D01*
X278393Y269581D01*
X275394D01*
X284391D02*
X282391D01*
X281392Y268581D01*
Y264582D01*
X282391Y263583D01*
X284391D01*
X285390Y264582D01*
Y268581D01*
X284391Y269581D01*
X287390Y263583D02*
Y267581D01*
X289389Y269581D01*
X291389Y267581D01*
Y263583D01*
Y266582D01*
X287390D01*
X293388Y263583D02*
Y269581D01*
X296387D01*
X297387Y268581D01*
Y266582D01*
X296387Y265582D01*
X293388D01*
X295387D02*
X297387Y263583D01*
X299386Y269581D02*
Y263583D01*
X302385D01*
X303385Y264582D01*
Y268581D01*
X302385Y269581D01*
X299386D01*
X315381D02*
X311382D01*
Y263583D01*
X315381D01*
X311382Y266582D02*
X313381D01*
X317380Y269581D02*
Y263583D01*
X320379D01*
X321379Y264582D01*
Y268581D01*
X320379Y269581D01*
X317380D01*
X327377Y268581D02*
X326377Y269581D01*
X324378D01*
X323378Y268581D01*
Y264582D01*
X324378Y263583D01*
X326377D01*
X327377Y264582D01*
Y266582D01*
X325377D01*
X333375Y269581D02*
X329376D01*
Y263583D01*
X333375D01*
X329376Y266582D02*
X331376D01*
X13321Y153875D02*
X12665Y153219D01*
Y151908D01*
X13321Y151252D01*
X13977D01*
X14633Y151908D01*
Y153219D01*
X15289Y153875D01*
X15945D01*
X16601Y153219D01*
Y151908D01*
X15945Y151252D01*
X12665Y155187D02*
X13321D01*
X14633Y156499D01*
X13321Y157811D01*
X12665D01*
X14633Y156499D02*
X16601D01*
X13321Y161747D02*
X12665Y161091D01*
Y159779D01*
X13321Y159123D01*
X13977D01*
X14633Y159779D01*
Y161091D01*
X15289Y161747D01*
X15945D01*
X16601Y161091D01*
Y159779D01*
X15945Y159123D01*
X17256Y163059D02*
Y165683D01*
X13321Y169618D02*
X12665Y168962D01*
Y167650D01*
X13321Y166995D01*
X15945D01*
X16601Y167650D01*
Y168962D01*
X15945Y169618D01*
X14633D01*
Y168306D01*
X12665Y172898D02*
Y171586D01*
X13321Y170930D01*
X15945D01*
X16601Y171586D01*
Y172898D01*
X15945Y173554D01*
X13321D01*
X12665Y172898D01*
Y176834D02*
Y175522D01*
X13321Y174866D01*
X15945D01*
X16601Y175522D01*
Y176834D01*
X15945Y177490D01*
X13321D01*
X12665Y176834D01*
Y178802D02*
X16601D01*
Y180770D01*
X15945Y181426D01*
X13321D01*
X12665Y180770D01*
Y178802D01*
X654875Y92003D02*
X659873D01*
X660873Y93002D01*
Y95002D01*
X659873Y96001D01*
X654875D01*
X660873Y101999D02*
Y98001D01*
X656874Y101999D01*
X655875D01*
X654875Y101000D01*
Y99000D01*
X655875Y98001D01*
X660873Y107997D02*
Y103999D01*
X656874Y107997D01*
X655875D01*
X654875Y106998D01*
Y104998D01*
X655875Y103999D01*
X400274Y195586D02*
Y200584D01*
X399274Y201584D01*
X397275D01*
X396275Y200584D01*
Y195586D01*
X390277D02*
X392277Y196585D01*
X394276Y198585D01*
Y200584D01*
X393276Y201584D01*
X391277D01*
X390277Y200584D01*
Y199584D01*
X391277Y198585D01*
X394276D01*
X31542Y80539D02*
X25544D01*
Y83538D01*
X26544Y84538D01*
X28543D01*
X29543Y83538D01*
Y80539D01*
Y82538D02*
X31542Y84538D01*
X25544Y90536D02*
Y88536D01*
Y89536D01*
X30543D01*
X31542Y88536D01*
Y87537D01*
X30543Y86537D01*
X31542Y95534D02*
X25544D01*
X28543Y92535D01*
Y96534D01*
X25544Y102532D02*
Y98533D01*
X28543D01*
X27544Y100532D01*
Y101532D01*
X28543Y102532D01*
X30543D01*
X31542Y101532D01*
Y99533D01*
X30543Y98533D01*
X412402Y115953D02*
X415682D01*
X416338Y116609D01*
Y117921D01*
X415682Y118577D01*
X412402D01*
X416338Y122513D02*
Y119889D01*
X413714Y122513D01*
X413058D01*
X412402Y121857D01*
Y120545D01*
X413058Y119889D01*
Y123825D02*
X412402Y124481D01*
Y125793D01*
X413058Y126449D01*
X415682D01*
X416338Y125793D01*
Y124481D01*
X415682Y123825D01*
X413058D01*
X453938Y116931D02*
X457217D01*
X457873Y117587D01*
Y118899D01*
X457217Y119554D01*
X453938D01*
X457873Y120867D02*
Y122178D01*
Y121522D01*
X453938D01*
X454594Y120867D01*
Y124146D02*
X453938Y124802D01*
Y126114D01*
X454594Y126770D01*
X455250D01*
X455905Y126114D01*
X456561Y126770D01*
X457217D01*
X457873Y126114D01*
Y124802D01*
X457217Y124146D01*
X456561D01*
X455905Y124802D01*
X455250Y124146D01*
X454594D01*
X455905Y124802D02*
Y126114D01*
X602573Y156252D02*
Y161250D01*
X601574Y162250D01*
X599574D01*
X598575Y161250D01*
Y156252D01*
X596575Y162250D02*
X594576D01*
X595576D01*
Y156252D01*
X596575Y157252D01*
X591577Y156252D02*
X587578D01*
Y157252D01*
X591577Y161250D01*
Y162250D01*
X534466Y280210D02*
Y285208D01*
X533466Y286208D01*
X531467D01*
X530467Y285208D01*
Y280210D01*
X528468Y286208D02*
X526469D01*
X527468D01*
Y280210D01*
X528468Y281209D01*
X523470D02*
X522470Y280210D01*
X520471D01*
X519471Y281209D01*
Y285208D01*
X520471Y286208D01*
X522470D01*
X523470Y285208D01*
Y281209D01*
X464447Y227710D02*
Y232708D01*
X463448Y233708D01*
X461448D01*
X460449Y232708D01*
Y227710D01*
X458449Y232708D02*
X457449Y233708D01*
X455450D01*
X454450Y232708D01*
Y228709D01*
X455450Y227710D01*
X457449D01*
X458449Y228709D01*
Y229709D01*
X457449Y230709D01*
X454450D01*
X464053Y280269D02*
Y285267D01*
X463054Y286267D01*
X461055D01*
X460055Y285267D01*
Y280269D01*
X458055Y281268D02*
X457056Y280269D01*
X455056D01*
X454057Y281268D01*
Y282268D01*
X455056Y283268D01*
X454057Y284267D01*
Y285267D01*
X455056Y286267D01*
X457056D01*
X458055Y285267D01*
Y284267D01*
X457056Y283268D01*
X458055Y282268D01*
Y281268D01*
X457056Y283268D02*
X455056D01*
X761155Y226699D02*
X765091D01*
Y224731D01*
X764435Y224076D01*
X763123D01*
X762467Y224731D01*
Y226699D01*
Y225387D02*
X761155Y224076D01*
X765091Y220140D02*
Y222763D01*
X763123D01*
Y221452D01*
Y222763D01*
X761155D01*
X760499Y218828D02*
Y216204D01*
X761155Y214892D02*
X765091D01*
Y212924D01*
X764435Y212268D01*
X763123D01*
X762467Y212924D01*
Y214892D01*
Y213580D02*
X761155Y212268D01*
X765091Y208332D02*
Y210956D01*
X761155D01*
Y208332D01*
X763123Y210956D02*
Y209644D01*
X765091Y207021D02*
X761155D01*
Y204397D01*
Y203085D02*
X763779D01*
X765091Y201773D01*
X763779Y200461D01*
X761155D01*
X763123D01*
Y203085D01*
X765091Y199149D02*
X764435D01*
X763123Y197837D01*
X764435Y196525D01*
X765091D01*
X763123Y197837D02*
X761155D01*
X760499Y195213D02*
Y192589D01*
X765091Y189310D02*
Y190622D01*
X764435Y191278D01*
X761811D01*
X761155Y190622D01*
Y189310D01*
X761811Y188654D01*
X764435D01*
X765091Y189310D01*
X761155Y187342D02*
X765091D01*
X761155Y184718D01*
X765091D01*
X236876Y37336D02*
Y34712D01*
X237532Y34056D01*
X238844D01*
X239500Y34712D01*
Y37336D01*
X238844Y37991D01*
X237532D01*
X238188Y36680D02*
X236876Y37991D01*
X237532D02*
X236876Y37336D01*
X235564Y34712D02*
X234909Y34056D01*
X233597D01*
X232941Y34712D01*
Y35368D01*
X233597Y36024D01*
X234253D01*
X233597D01*
X232941Y36680D01*
Y37336D01*
X233597Y37991D01*
X234909D01*
X235564Y37336D01*
X576841Y311549D02*
Y315485D01*
X578809D01*
X579465Y314829D01*
Y313517D01*
X578809Y312861D01*
X576841D01*
X583400Y314829D02*
X582745Y315485D01*
X581433D01*
X580777Y314829D01*
Y312205D01*
X581433Y311549D01*
X582745D01*
X583400Y312205D01*
X584712Y310893D02*
X587336D01*
X588648Y311549D02*
Y315485D01*
X590616D01*
X591272Y314829D01*
Y313517D01*
X590616Y312861D01*
X588648D01*
X592584Y315485D02*
Y311549D01*
X593896Y312861D01*
X595208Y311549D01*
Y315485D01*
X596520Y311549D02*
Y315485D01*
X598487D01*
X599143Y314829D01*
Y313517D01*
X598487Y312861D01*
X596520D01*
X597831D02*
X599143Y311549D01*
X392196Y104856D02*
Y108792D01*
X394164D01*
X394820Y108136D01*
Y106824D01*
X394164Y106168D01*
X392196D01*
X398755Y108136D02*
X398099Y108792D01*
X396788D01*
X396132Y108136D01*
Y105512D01*
X396788Y104856D01*
X398099D01*
X398755Y105512D01*
X400067Y104200D02*
X402691D01*
X406627Y108792D02*
X404003D01*
Y106824D01*
X405315D01*
X404003D01*
Y104856D01*
X407939Y108792D02*
Y105512D01*
X408595Y104856D01*
X409907D01*
X410563Y105512D01*
Y108792D01*
X414498Y108136D02*
X413842Y108792D01*
X412531D01*
X411874Y108136D01*
Y107480D01*
X412531Y106824D01*
X413842D01*
X414498Y106168D01*
Y105512D01*
X413842Y104856D01*
X412531D01*
X411874Y105512D01*
X418434Y108792D02*
X415810D01*
Y104856D01*
X418434D01*
X415810Y106824D02*
X417122D01*
X632348Y159720D02*
X628413D01*
X629725Y161032D01*
X628413Y162344D01*
X632348D01*
X628413Y165624D02*
Y164312D01*
X629069Y163656D01*
X631693D01*
X632348Y164312D01*
Y165624D01*
X631693Y166279D01*
X629069D01*
X628413Y165624D01*
Y167591D02*
Y170215D01*
Y168903D01*
X632348D01*
X628413Y173495D02*
Y172183D01*
X629069Y171527D01*
X631693D01*
X632348Y172183D01*
Y173495D01*
X631693Y174151D01*
X629069D01*
X628413Y173495D01*
X632348Y175463D02*
X628413D01*
Y177431D01*
X629069Y178087D01*
X630381D01*
X631037Y177431D01*
Y175463D01*
Y176775D02*
X632348Y178087D01*
X633005Y179399D02*
Y182023D01*
X632348Y183334D02*
X628413D01*
Y185302D01*
X629069Y185958D01*
X630381D01*
X631037Y185302D01*
Y183334D01*
Y184646D02*
X632348Y185958D01*
X628413Y189894D02*
Y187270D01*
X630381D01*
Y188582D01*
Y187270D01*
X632348D01*
X633005Y191206D02*
Y193830D01*
X632348Y195142D02*
X628413D01*
Y197109D01*
X629069Y197765D01*
X630381D01*
X631037Y197109D01*
Y195142D01*
Y196453D02*
X632348Y197765D01*
X628413Y201701D02*
Y199077D01*
X632348D01*
Y201701D01*
X630381Y199077D02*
Y200389D01*
X628413Y203013D02*
X632348D01*
Y205637D01*
Y206949D02*
X629725D01*
X628413Y208261D01*
X629725Y209573D01*
X632348D01*
X630381D01*
Y206949D01*
X628413Y210885D02*
X629069D01*
X630381Y212196D01*
X629069Y213508D01*
X628413D01*
X630381Y212196D02*
X632348D01*
X454206Y105447D02*
Y109382D01*
X455517Y108071D01*
X456829Y109382D01*
Y105447D01*
X460109Y109382D02*
X458797D01*
X458141Y108727D01*
Y106103D01*
X458797Y105447D01*
X460109D01*
X460765Y106103D01*
Y108727D01*
X460109Y109382D01*
X462077D02*
X464701D01*
X463389D01*
Y105447D01*
X467981Y109382D02*
X466669D01*
X466013Y108727D01*
Y106103D01*
X466669Y105447D01*
X467981D01*
X468637Y106103D01*
Y108727D01*
X467981Y109382D01*
X469949Y105447D02*
Y109382D01*
X471916D01*
X472572Y108727D01*
Y107415D01*
X471916Y106759D01*
X469949D01*
X471260D02*
X472572Y105447D01*
X473884Y104791D02*
X476508D01*
X480444Y109382D02*
X477820D01*
Y107415D01*
X479132D01*
X477820D01*
Y105447D01*
X481756Y109382D02*
Y106103D01*
X482412Y105447D01*
X483724D01*
X484380Y106103D01*
Y109382D01*
X488315Y108727D02*
X487659Y109382D01*
X486347D01*
X485691Y108727D01*
Y108071D01*
X486347Y107415D01*
X487659D01*
X488315Y106759D01*
Y106103D01*
X487659Y105447D01*
X486347D01*
X485691Y106103D01*
X492251Y109382D02*
X489627D01*
Y105447D01*
X492251D01*
X489627Y107415D02*
X490939D01*
X632742Y235903D02*
X628806D01*
X630118Y237215D01*
X628806Y238527D01*
X632742D01*
X628806Y241807D02*
Y240495D01*
X629462Y239839D01*
X632086D01*
X632742Y240495D01*
Y241807D01*
X632086Y242462D01*
X629462D01*
X628806Y241807D01*
Y243774D02*
Y246398D01*
Y245086D01*
X632742D01*
X628806Y249678D02*
Y248366D01*
X629462Y247710D01*
X632086D01*
X632742Y248366D01*
Y249678D01*
X632086Y250334D01*
X629462D01*
X628806Y249678D01*
X632742Y251646D02*
X628806D01*
Y253614D01*
X629462Y254270D01*
X630774D01*
X631430Y253614D01*
Y251646D01*
Y252958D02*
X632742Y254270D01*
X633398Y255582D02*
Y258206D01*
X628806Y262141D02*
Y259517D01*
X632742D01*
Y262141D01*
X630774Y259517D02*
Y260829D01*
X629462Y266077D02*
X628806Y265421D01*
Y264109D01*
X629462Y263453D01*
X630118D01*
X630774Y264109D01*
Y265421D01*
X631430Y266077D01*
X632086D01*
X632742Y265421D01*
Y264109D01*
X632086Y263453D01*
X628806Y267389D02*
Y270013D01*
Y268701D01*
X632742D01*
X628806Y273292D02*
Y271981D01*
X629462Y271325D01*
X632086D01*
X632742Y271981D01*
Y273292D01*
X632086Y273949D01*
X629462D01*
X628806Y273292D01*
X632742Y275260D02*
X628806D01*
Y277228D01*
X629462Y277884D01*
X630774D01*
X631430Y277228D01*
Y275260D01*
X633398Y279196D02*
Y281820D01*
X632742Y283132D02*
X628806D01*
Y285100D01*
X629462Y285756D01*
X630774D01*
X631430Y285100D01*
Y283132D01*
Y284444D02*
X632742Y285756D01*
X628806Y289691D02*
Y287068D01*
X632742D01*
Y289691D01*
X630774Y287068D02*
Y288380D01*
X628806Y291003D02*
X632742D01*
Y293627D01*
Y294939D02*
X630118D01*
X628806Y296251D01*
X630118Y297563D01*
X632742D01*
X630774D01*
Y294939D01*
X628806Y298875D02*
X629462D01*
X630774Y300187D01*
X629462Y301499D01*
X628806D01*
X630774Y300187D02*
X632742D01*
X538311Y140795D02*
Y134797D01*
X542310D01*
X548308Y140795D02*
X546309Y139796D01*
X544310Y137796D01*
Y135797D01*
X545309Y134797D01*
X547309D01*
X548308Y135797D01*
Y136797D01*
X547309Y137796D01*
X544310D01*
X765091Y272896D02*
Y275520D01*
X761155D01*
Y272896D01*
X763123Y275520D02*
Y274208D01*
X764435Y268960D02*
X765091Y269617D01*
Y270928D01*
X764435Y271584D01*
X763779D01*
X763123Y270928D01*
Y269617D01*
X762467Y268960D01*
X761811D01*
X761155Y269617D01*
Y270928D01*
X761811Y271584D01*
X765091Y267649D02*
Y265025D01*
Y266337D01*
X761155D01*
X765091Y261745D02*
Y263057D01*
X764435Y263713D01*
X761811D01*
X761155Y263057D01*
Y261745D01*
X761811Y261089D01*
X764435D01*
X765091Y261745D01*
X761155Y259777D02*
X765091D01*
Y257809D01*
X764435Y257153D01*
X763123D01*
X762467Y257809D01*
Y259777D01*
X760499Y255841D02*
Y253218D01*
X765091Y249938D02*
Y251250D01*
X764435Y251906D01*
X761811D01*
X761155Y251250D01*
Y249938D01*
X761811Y249282D01*
X764435D01*
X765091Y249938D01*
Y247970D02*
X761155D01*
X762467D01*
X765091Y245346D01*
X763123Y247314D01*
X761155Y245346D01*
X576500Y205559D02*
Y199561D01*
X579499D01*
X580499Y200561D01*
Y204559D01*
X579499Y205559D01*
X576500D01*
X582498D02*
X586497D01*
Y204559D01*
X582498Y200561D01*
Y199561D01*
X228150Y95145D02*
X232086D01*
Y97113D01*
X231430Y97769D01*
X228806D01*
X228150Y97113D01*
Y95145D01*
X228806Y99081D02*
X228150Y99737D01*
Y101049D01*
X228806Y101705D01*
X229462D01*
X230118Y101049D01*
Y100393D01*
Y101049D01*
X230774Y101705D01*
X231430D01*
X232086Y101049D01*
Y99737D01*
X231430Y99081D01*
X413455Y331824D02*
X412799Y332480D01*
X411487D01*
X410831Y331824D01*
Y329200D01*
X411487Y328544D01*
X412799D01*
X413455Y329200D01*
X414767Y332480D02*
Y328544D01*
Y330512D01*
X417391D01*
Y332480D01*
Y328544D01*
X418703D02*
Y331168D01*
X420015Y332480D01*
X421327Y331168D01*
Y328544D01*
Y330512D01*
X418703D01*
X422639Y328544D02*
Y332480D01*
X424607D01*
X425263Y331824D01*
Y330512D01*
X424607Y329856D01*
X422639D01*
X423951D02*
X425263Y328544D01*
X429198Y331824D02*
X428542Y332480D01*
X427231D01*
X426575Y331824D01*
Y329200D01*
X427231Y328544D01*
X428542D01*
X429198Y329200D01*
Y330512D01*
X427886D01*
X430510Y332480D02*
X431822D01*
X431166D01*
Y328544D01*
X430510D01*
X431822D01*
X433790D02*
Y332480D01*
X436414Y328544D01*
Y332480D01*
X440350Y331824D02*
X439694Y332480D01*
X438382D01*
X437726Y331824D01*
Y329200D01*
X438382Y328544D01*
X439694D01*
X440350Y329200D01*
Y330512D01*
X439038D01*
X450726Y331955D02*
X450070Y332611D01*
X448758D01*
X448102Y331955D01*
Y329331D01*
X448758Y328675D01*
X450070D01*
X450726Y329331D01*
X452038Y332611D02*
Y328675D01*
Y330643D01*
X454662D01*
Y332611D01*
Y328675D01*
X455973D02*
Y332611D01*
X457941D01*
X458597Y331955D01*
Y330643D01*
X457941Y329987D01*
X455973D01*
X457285D02*
X458597Y328675D01*
X462533Y331955D02*
X461877Y332611D01*
X460565D01*
X459909Y331955D01*
Y329331D01*
X460565Y328675D01*
X461877D01*
X462533Y329331D01*
Y330643D01*
X461221D01*
X463845Y328019D02*
X466469D01*
X467781Y332611D02*
Y328675D01*
X469748D01*
X470404Y329331D01*
Y331955D01*
X469748Y332611D01*
X467781D01*
X474340D02*
X471716D01*
Y328675D01*
X474340D01*
X471716Y330643D02*
X473028D01*
X475652Y332611D02*
X478276D01*
X476964D01*
Y328675D01*
X488522Y136249D02*
X487522Y137248D01*
X485523D01*
X484523Y136249D01*
Y132250D01*
X485523Y131250D01*
X487522D01*
X488522Y132250D01*
X494520Y137248D02*
X490521D01*
Y134249D01*
X492521Y135249D01*
X493520D01*
X494520Y134249D01*
Y132250D01*
X493520Y131250D01*
X491521D01*
X490521Y132250D01*
X496520Y136249D02*
X497519Y137248D01*
X499518D01*
X500518Y136249D01*
Y135249D01*
X499518Y134249D01*
X498519D01*
X499518D01*
X500518Y133250D01*
Y132250D01*
X499518Y131250D01*
X497519D01*
X496520Y132250D01*
X612264Y214141D02*
X613264Y213142D01*
X615263D01*
X616263Y214141D01*
Y218140D01*
X615263Y219140D01*
X613264D01*
X612264Y218140D01*
X606266Y213142D02*
X610264D01*
Y216141D01*
X608265Y215141D01*
X607266D01*
X606266Y216141D01*
Y218140D01*
X607266Y219140D01*
X609265D01*
X610264Y218140D01*
X600268Y219140D02*
X604267D01*
X600268Y215141D01*
Y214141D01*
X601267Y213142D01*
X603267D01*
X604267Y214141D01*
X243578Y159579D02*
Y155644D01*
X245546D01*
X246202Y156299D01*
Y156956D01*
X245546Y157611D01*
X243578D01*
X245546D01*
X246202Y158267D01*
Y158923D01*
X245546Y159579D01*
X243578D01*
X247514Y155644D02*
Y158267D01*
X248826Y159579D01*
X250138Y158267D01*
Y155644D01*
Y157611D01*
X247514D01*
X251450Y159579D02*
X254074D01*
X252762D01*
Y155644D01*
X255385Y154988D02*
X258009D01*
X261945Y158923D02*
X261289Y159579D01*
X259977D01*
X259321Y158923D01*
Y156299D01*
X259977Y155644D01*
X261289D01*
X261945Y156299D01*
X263257Y159579D02*
Y155644D01*
Y157611D01*
X265881D01*
Y159579D01*
Y155644D01*
X267193D02*
Y159579D01*
X269161D01*
X269816Y158923D01*
Y157611D01*
X269161Y156956D01*
X267193D01*
X268505D02*
X269816Y155644D01*
X273752Y158923D02*
X273096Y159579D01*
X271784D01*
X271128Y158923D01*
Y156299D01*
X271784Y155644D01*
X273096D01*
X273752Y156299D01*
Y157611D01*
X272440D01*
X275064Y154988D02*
X277688D01*
X279000Y155644D02*
Y159579D01*
X280968D01*
X281624Y158923D01*
Y157611D01*
X280968Y156956D01*
X279000D01*
X280312D02*
X281624Y155644D01*
X285559Y159579D02*
X282936D01*
Y155644D01*
X285559D01*
X282936Y157611D02*
X284247D01*
X286871Y159579D02*
Y155644D01*
X289495D01*
X290807D02*
Y158267D01*
X292119Y159579D01*
X293431Y158267D01*
Y155644D01*
Y157611D01*
X290807D01*
X294743Y159579D02*
Y158923D01*
X296055Y157611D01*
X297367Y158923D01*
Y159579D01*
X296055Y157611D02*
Y155644D01*
X341212Y108070D02*
Y104135D01*
X343179D01*
X343835Y104790D01*
Y105446D01*
X343179Y106102D01*
X341212D01*
X343179D01*
X343835Y106758D01*
Y107414D01*
X343179Y108070D01*
X341212D01*
X345147Y104135D02*
Y106758D01*
X346459Y108070D01*
X347771Y106758D01*
Y104135D01*
Y106102D01*
X345147D01*
X349083Y108070D02*
X351707D01*
X350395D01*
Y104135D01*
X353019Y106102D02*
X355643D01*
X356955Y104135D02*
Y108070D01*
X358922D01*
X359578Y107414D01*
Y106102D01*
X358922Y105446D01*
X356955D01*
X358266D02*
X359578Y104135D01*
X360890D02*
Y106758D01*
X362202Y108070D01*
X363514Y106758D01*
Y104135D01*
Y106102D01*
X360890D01*
X364826Y108070D02*
Y104135D01*
X366138Y105446D01*
X367450Y104135D01*
Y108070D01*
X439506Y199147D02*
X436882D01*
X439506Y201771D01*
Y202427D01*
X438850Y203083D01*
X437538D01*
X436882Y202427D01*
X442786Y199147D02*
Y203083D01*
X440818Y201115D01*
X443442D01*
X444754Y203083D02*
Y200459D01*
X446066Y199147D01*
X447377Y200459D01*
Y203083D01*
X448689D02*
Y199147D01*
X450657D01*
X451313Y199803D01*
Y202427D01*
X450657Y203083D01*
X448689D01*
X452625Y198492D02*
X455249D01*
X459185Y203083D02*
X456561D01*
Y201115D01*
X457873D01*
X456561D01*
Y199147D01*
X460497Y203083D02*
Y199803D01*
X461153Y199147D01*
X462465D01*
X463120Y199803D01*
Y203083D01*
X467056Y202427D02*
X466400Y203083D01*
X465088D01*
X464432Y202427D01*
Y201771D01*
X465088Y201115D01*
X466400D01*
X467056Y200459D01*
Y199803D01*
X466400Y199147D01*
X465088D01*
X464432Y199803D01*
X470992Y203083D02*
X468368D01*
Y199147D01*
X470992D01*
X468368Y201115D02*
X469680D01*
X565162Y328675D02*
X566474D01*
X565818D01*
Y332611D01*
X565162Y331955D01*
X571066Y328675D02*
X568442D01*
X571066Y331299D01*
Y331955D01*
X570410Y332611D01*
X569098D01*
X568442Y331955D01*
X572378Y332611D02*
Y329987D01*
X573690Y328675D01*
X575002Y329987D01*
Y332611D01*
X576313Y328019D02*
X578937D01*
X582873Y331955D02*
X582217Y332611D01*
X580905D01*
X580249Y331955D01*
Y331299D01*
X580905Y330643D01*
X582217D01*
X582873Y329987D01*
Y329331D01*
X582217Y328675D01*
X580905D01*
X580249Y329331D01*
X584185Y328675D02*
Y332611D01*
X586153D01*
X586809Y331955D01*
Y330643D01*
X586153Y329987D01*
X584185D01*
X588121Y332611D02*
Y328675D01*
Y329987D01*
X590744Y332611D01*
X588777Y330643D01*
X590744Y328675D01*
X592057D02*
Y332611D01*
X594024D01*
X594680Y331955D01*
Y330643D01*
X594024Y329987D01*
X592057D01*
X593368D02*
X594680Y328675D01*
X601973D02*
X603285D01*
X602629D01*
Y332611D01*
X601973Y331955D01*
X607876Y328675D02*
X605252D01*
X607876Y331299D01*
Y331955D01*
X607220Y332611D01*
X605908D01*
X605252Y331955D01*
X609188Y332611D02*
Y329987D01*
X610500Y328675D01*
X611812Y329987D01*
Y332611D01*
X613124Y328019D02*
X615748D01*
X617060Y328675D02*
Y332611D01*
X619028D01*
X619683Y331955D01*
Y330643D01*
X619028Y329987D01*
X617060D01*
X618371D02*
X619683Y328675D01*
X620995Y332611D02*
X623619D01*
X622307D01*
Y328675D01*
X624931D02*
Y332611D01*
X626899D01*
X627555Y331955D01*
Y330643D01*
X626899Y329987D01*
X624931D01*
X626243D02*
X627555Y328675D01*
X163911Y150979D02*
Y149668D01*
Y150323D01*
X167847D01*
X167191Y150979D01*
X163911Y145076D02*
Y147700D01*
X166535Y145076D01*
X167191D01*
X167847Y145732D01*
Y147044D01*
X167191Y147700D01*
X167847Y143764D02*
X165223D01*
X163911Y142452D01*
X165223Y141140D01*
X167847D01*
X163255Y139828D02*
Y137204D01*
X163911Y135892D02*
X166535D01*
X167847Y134581D01*
X166535Y133269D01*
X163911D01*
X165879D01*
Y135892D01*
X167847Y131957D02*
X164567D01*
X163911Y131301D01*
Y129989D01*
X164567Y129333D01*
X167847D01*
Y128021D02*
Y125397D01*
Y126709D01*
X163911D01*
X167847Y122117D02*
Y123429D01*
X167191Y124085D01*
X164567D01*
X163911Y123429D01*
Y122117D01*
X164567Y121461D01*
X167191D01*
X167847Y122117D01*
X495408Y332480D02*
X492784D01*
Y330512D01*
X494096Y331168D01*
X494752D01*
X495408Y330512D01*
Y329200D01*
X494752Y328544D01*
X493440D01*
X492784Y329200D01*
X496720Y332480D02*
Y329856D01*
X498032Y328544D01*
X499343Y329856D01*
Y332480D01*
X500655D02*
Y328544D01*
X502623D01*
X503279Y329200D01*
Y331824D01*
X502623Y332480D01*
X500655D01*
X184122Y41080D02*
Y38456D01*
X186089D01*
X185433Y39768D01*
Y40424D01*
X186089Y41080D01*
X187401D01*
X188057Y40424D01*
Y39112D01*
X187401Y38456D01*
X184122Y42392D02*
X186745D01*
X188057Y43704D01*
X186745Y45016D01*
X184122D01*
Y46328D02*
X188057D01*
Y48296D01*
X187401Y48952D01*
X184777D01*
X184122Y48296D01*
Y46328D01*
X188713Y50264D02*
Y52887D01*
X184122Y56823D02*
Y54199D01*
X186089D01*
Y55511D01*
Y54199D01*
X188057D01*
X184122Y58135D02*
X187401D01*
X188057Y58791D01*
Y60103D01*
X187401Y60759D01*
X184122D01*
X184777Y64695D02*
X184122Y64039D01*
Y62727D01*
X184777Y62071D01*
X185433D01*
X186089Y62727D01*
Y64039D01*
X186745Y64695D01*
X187401D01*
X188057Y64039D01*
Y62727D01*
X187401Y62071D01*
X184122Y68630D02*
Y66006D01*
X188057D01*
Y68630D01*
X186089Y66006D02*
Y67318D01*
X528218Y331233D02*
X528873Y331889D01*
X530185D01*
X530841Y331233D01*
Y330577D01*
X530185Y329921D01*
X529529D01*
X530185D01*
X530841Y329265D01*
Y328609D01*
X530185Y327953D01*
X528873D01*
X528218Y328609D01*
X532153Y331889D02*
Y329265D01*
X533465Y327953D01*
X534777Y329265D01*
Y331889D01*
X536089Y331233D02*
X536745Y331889D01*
X538057D01*
X538713Y331233D01*
Y330577D01*
X538057Y329921D01*
X537401D01*
X538057D01*
X538713Y329265D01*
Y328609D01*
X538057Y327953D01*
X536745D01*
X536089Y328609D01*
X540025Y331889D02*
Y327953D01*
X541993D01*
X542649Y328609D01*
Y331233D01*
X541993Y331889D01*
X540025D01*
X225852Y69220D02*
X226508Y68564D01*
Y67252D01*
X225852Y66596D01*
X225197D01*
X224541Y67252D01*
Y67908D01*
Y67252D01*
X223885Y66596D01*
X223229D01*
X222573Y67252D01*
Y68564D01*
X223229Y69220D01*
X226508Y65285D02*
X223885D01*
X222573Y63973D01*
X223885Y62661D01*
X226508D01*
X225852Y61349D02*
X226508Y60693D01*
Y59381D01*
X225852Y58725D01*
X225197D01*
X224541Y59381D01*
Y60037D01*
Y59381D01*
X223885Y58725D01*
X223229D01*
X222573Y59381D01*
Y60693D01*
X223229Y61349D01*
X226508Y57413D02*
X222573D01*
Y55445D01*
X223229Y54789D01*
X225852D01*
X226508Y55445D01*
Y57413D01*
X221917Y53477D02*
Y50853D01*
X226508Y46918D02*
Y49542D01*
X224541D01*
Y48230D01*
Y49542D01*
X222573D01*
X226508Y45606D02*
X223229D01*
X222573Y44950D01*
Y43638D01*
X223229Y42982D01*
X226508D01*
X225852Y39046D02*
X226508Y39702D01*
Y41014D01*
X225852Y41670D01*
X225197D01*
X224541Y41014D01*
Y39702D01*
X223885Y39046D01*
X223229D01*
X222573Y39702D01*
Y41014D01*
X223229Y41670D01*
X226508Y35111D02*
Y37734D01*
X222573D01*
Y35111D01*
X224541Y37734D02*
Y36422D01*
X39107Y142979D02*
X39763Y143635D01*
Y144947D01*
X39107Y145603D01*
X36483D01*
X35827Y144947D01*
Y143635D01*
X36483Y142979D01*
X39107Y141667D02*
X39763Y141011D01*
Y139699D01*
X39107Y139043D01*
X38451D01*
X37795Y139699D01*
X37139Y139043D01*
X36483D01*
X35827Y139699D01*
Y141011D01*
X36483Y141667D01*
X37139D01*
X37795Y141011D01*
X38451Y141667D01*
X39107D01*
X37795Y141011D02*
Y139699D01*
X39240Y177676D02*
Y174397D01*
X39896Y173741D01*
X41208D01*
X41864Y174397D01*
Y177676D01*
X43176Y177021D02*
X43832Y177676D01*
X45143D01*
X45799Y177021D01*
Y176365D01*
X45143Y175709D01*
X44488D01*
X45143D01*
X45799Y175053D01*
Y174397D01*
X45143Y173741D01*
X43832D01*
X43176Y174397D01*
X300044Y183909D02*
X306043D01*
X304043Y185908D01*
X306043Y187908D01*
X300044D01*
Y193906D02*
Y189907D01*
X303044D01*
X302044Y191906D01*
Y192906D01*
X303044Y193906D01*
X305043D01*
X306043Y192906D01*
Y190907D01*
X305043Y189907D01*
X300044Y199904D02*
Y195905D01*
X303044D01*
X302044Y197904D01*
Y198904D01*
X303044Y199904D01*
X305043D01*
X306043Y198904D01*
Y196905D01*
X305043Y195905D01*
X301044Y201903D02*
X300044Y202903D01*
Y204902D01*
X301044Y205902D01*
X305043D01*
X306043Y204902D01*
Y202903D01*
X305043Y201903D01*
X301044D01*
Y207901D02*
X300044Y208901D01*
Y210900D01*
X301044Y211900D01*
X305043D01*
X306043Y210900D01*
Y208901D01*
X305043Y207901D01*
X301044D01*
X307042Y213899D02*
Y217898D01*
X306043Y219897D02*
X300044D01*
X302044Y221897D01*
X300044Y223896D01*
X306043D01*
X300044Y228894D02*
Y226895D01*
X301044Y225895D01*
X305043D01*
X306043Y226895D01*
Y228894D01*
X305043Y229894D01*
X301044D01*
X300044Y228894D01*
Y231893D02*
X306043D01*
Y234893D01*
X305043Y235892D01*
X301044D01*
X300044Y234893D01*
Y231893D01*
Y237892D02*
X305043D01*
X306043Y238891D01*
Y240891D01*
X305043Y241890D01*
X300044D01*
Y243889D02*
X306043D01*
Y247888D01*
X300044Y253886D02*
Y249888D01*
X306043D01*
Y253886D01*
X303044Y249888D02*
Y251887D01*
X164043Y91732D02*
Y91076D01*
X165355Y89764D01*
X166667Y91076D01*
Y91732D01*
X165355Y89764D02*
Y87796D01*
X170603D02*
X167979D01*
X170603Y90420D01*
Y91076D01*
X169947Y91732D01*
X168635D01*
X167979Y91076D01*
X12749Y196634D02*
X17747D01*
X18747Y197634D01*
Y199634D01*
X17747Y200633D01*
X12749D01*
X13749Y206631D02*
X12749Y205631D01*
Y203632D01*
X13749Y202632D01*
X14748D01*
X15748Y203632D01*
Y205631D01*
X16748Y206631D01*
X17747D01*
X18747Y205631D01*
Y203632D01*
X17747Y202632D01*
X12749Y208631D02*
X18747D01*
Y211630D01*
X17747Y212629D01*
X16748D01*
X15748Y211630D01*
Y208631D01*
Y211630D01*
X14748Y212629D01*
X13749D01*
X12749Y211630D01*
Y208631D01*
X15748Y214629D02*
Y218627D01*
X13749Y224625D02*
X12749Y223626D01*
Y221626D01*
X13749Y220627D01*
X17747D01*
X18747Y221626D01*
Y223626D01*
X17747Y224625D01*
X114127Y84569D02*
X119125D01*
X120125Y85568D01*
Y87568D01*
X119125Y88567D01*
X114127D01*
X120125Y93566D02*
X114127D01*
X117126Y90567D01*
Y94565D01*
X101301Y178196D02*
Y173197D01*
X102301Y172198D01*
X104300D01*
X105299Y173197D01*
Y178196D01*
X111298Y172198D02*
X107299D01*
X111298Y176197D01*
Y177196D01*
X110298Y178196D01*
X108299D01*
X107299Y177196D01*
X91597Y228300D02*
Y233298D01*
X90597Y234298D01*
X88598D01*
X87598Y233298D01*
Y228300D01*
X85599Y234298D02*
X83600D01*
X84599D01*
Y228300D01*
X85599Y229300D01*
X184885Y260873D02*
X180886D01*
Y254875D01*
X184885D01*
X180886Y257874D02*
X182886D01*
X190883Y259873D02*
X189883Y260873D01*
X187884D01*
X186884Y259873D01*
Y258874D01*
X187884Y257874D01*
X189883D01*
X190883Y256874D01*
Y255875D01*
X189883Y254875D01*
X187884D01*
X186884Y255875D01*
X192883Y254875D02*
Y260873D01*
X195882D01*
X196881Y259873D01*
Y257874D01*
X195882Y256874D01*
X192883D01*
X198881Y259873D02*
X199880Y260873D01*
X201880D01*
X202879Y259873D01*
Y258874D01*
X201880Y257874D01*
X200880D01*
X201880D01*
X202879Y256874D01*
Y255875D01*
X201880Y254875D01*
X199880D01*
X198881Y255875D01*
X208877Y254875D02*
X204879D01*
X208877Y258874D01*
Y259873D01*
X207878Y260873D01*
X205878D01*
X204879Y259873D01*
X125757Y171638D02*
X124757Y170638D01*
Y168639D01*
X125757Y167639D01*
X129755D01*
X130755Y168639D01*
Y170638D01*
X129755Y171638D01*
X124757Y177636D02*
X125757Y175637D01*
X127756Y173637D01*
X129755D01*
X130755Y174637D01*
Y176637D01*
X129755Y177636D01*
X128756D01*
X127756Y176637D01*
Y173637D01*
X87039Y178362D02*
X88038Y179361D01*
Y181361D01*
X87039Y182361D01*
X83040D01*
X82040Y181361D01*
Y179361D01*
X83040Y178362D01*
X88038Y172364D02*
Y176363D01*
X85039D01*
X86039Y174363D01*
Y173363D01*
X85039Y172364D01*
X83040D01*
X82040Y173363D01*
Y175363D01*
X83040Y176363D01*
X156692Y262467D02*
Y265091D01*
X154724D01*
X155380Y263779D01*
Y263123D01*
X154724Y262467D01*
X153412D01*
X152757Y263123D01*
Y264435D01*
X153412Y265091D01*
X156692Y261155D02*
X154069D01*
X152757Y259843D01*
X154069Y258531D01*
X156692D01*
X136485Y247375D02*
X137141Y248031D01*
X138452D01*
X139108Y247375D01*
Y246719D01*
X138452Y246063D01*
X137796D01*
X138452D01*
X139108Y245407D01*
Y244751D01*
X138452Y244095D01*
X137141D01*
X136485Y244751D01*
X140420Y248031D02*
Y245407D01*
X141732Y244095D01*
X143044Y245407D01*
Y248031D01*
X144356Y247375D02*
X145012Y248031D01*
X146324D01*
X146980Y247375D01*
Y246719D01*
X146324Y246063D01*
X145668D01*
X146324D01*
X146980Y245407D01*
Y244751D01*
X146324Y244095D01*
X145012D01*
X144356Y244751D01*
D13*
X570965Y282421D02*
Y283209D01*
X566831Y282421D02*
Y283209D01*
X578839Y282421D02*
Y283209D01*
X574705Y282421D02*
Y283209D01*
X561122Y282421D02*
Y283209D01*
X556988Y282421D02*
Y283209D01*
X562205Y303051D02*
Y303248D01*
X575591Y303051D02*
Y303248D01*
X210413Y161122D02*
X211201D01*
X210413Y165650D02*
X211201D01*
X453429Y111811D02*
Y131102D01*
Y111811D02*
X458776D01*
Y131102D01*
X453429D02*
X458776D01*
X591535Y233268D02*
X602854D01*
X613681D02*
X625000D01*
X613386Y199803D02*
X614961D01*
X601575D02*
X603150D01*
X591535Y209842D02*
X601575Y199803D01*
X591535Y209842D02*
Y233268D01*
X625000Y209842D02*
Y233268D01*
X614961Y199803D02*
X625000Y209842D01*
X606299Y190945D02*
X610236D01*
X608268Y188976D02*
Y192913D01*
X573720Y193701D02*
Y211811D01*
X587264D02*
X589272D01*
X573720D02*
X575728D01*
X589272Y193701D02*
Y211811D01*
X587264Y193701D02*
X589272D01*
X573720D02*
X575728D01*
X499016Y154921D02*
X504331D01*
X513189Y113583D02*
Y146063D01*
X499016Y113583D02*
X513189D01*
X471850D02*
X486024D01*
X471850D02*
Y146063D01*
X480709Y154921D01*
X486024D01*
X504331D02*
X513189Y146063D01*
X567913Y113189D02*
Y125591D01*
X518701Y113189D02*
Y125591D01*
X567913Y150000D02*
Y162402D01*
X518701Y150000D02*
Y162402D01*
Y113189D02*
X567913D01*
X518701Y162402D02*
X567913D01*
X615945Y154724D02*
Y165945D01*
X573819D02*
X615945D01*
X573819Y154724D02*
Y165945D01*
X440551Y60925D02*
X441339D01*
X440551Y65059D02*
X441339D01*
X454035Y58661D02*
Y59449D01*
X449114Y58661D02*
Y59449D01*
X21063Y155512D02*
Y159843D01*
X26181Y155512D02*
Y159843D01*
X21063Y155512D02*
X26181D01*
X731004Y78347D02*
Y87008D01*
X722539Y78347D02*
Y87008D01*
X724311Y119685D02*
Y120472D01*
X729232Y119685D02*
Y120472D01*
X663189Y80512D02*
Y120276D01*
X714764D01*
Y80512D02*
Y120276D01*
X663189Y80512D02*
X714764D01*
X629331Y315453D02*
X630118D01*
X629331Y310925D02*
X630118D01*
X608071Y310630D02*
Y315748D01*
Y310630D02*
X612402D01*
X608071Y315748D02*
X612402D01*
X150216Y120236D02*
Y151417D01*
X160807D01*
Y120236D02*
Y151417D01*
X150216Y120236D02*
X160807D01*
X508858Y258169D02*
X517520D01*
X508858Y249705D02*
X517520D01*
X424803Y210354D02*
X433465D01*
X424803Y218819D02*
X433465D01*
X433366Y258465D02*
Y267126D01*
X424902Y258465D02*
Y267126D01*
X456693Y320276D02*
Y325394D01*
Y320276D02*
X461024D01*
X456693Y325394D02*
X461024D01*
X753346Y218898D02*
X758465D01*
X753346Y214567D02*
Y218898D01*
X758465Y214567D02*
Y218898D01*
X753642Y194882D02*
Y195669D01*
X758169Y194882D02*
Y195669D01*
X753346Y253937D02*
X758465D01*
Y258268D01*
X753346Y253937D02*
Y258268D01*
X758169Y277165D02*
Y277953D01*
X753642Y277165D02*
Y277953D01*
X629528Y320571D02*
X630315D01*
X629528Y325098D02*
X630315D01*
X608268Y320276D02*
Y325394D01*
Y320276D02*
X612598D01*
X608268Y325394D02*
X612598D01*
X594095Y320571D02*
X594882D01*
X594095Y325098D02*
X594882D01*
X572835Y320276D02*
Y325394D01*
Y320276D02*
X577165D01*
X572835Y325394D02*
X577165D01*
X533465Y320276D02*
Y325394D01*
Y320276D02*
X537795D01*
X533465Y325394D02*
X537795D01*
X496063Y320276D02*
Y325394D01*
Y320276D02*
X500394D01*
X496063Y325394D02*
X500394D01*
X224606Y75098D02*
X225394D01*
X224606Y70571D02*
X225394D01*
X223917Y85236D02*
Y86024D01*
X218996Y85236D02*
Y86024D01*
X232480Y48140D02*
Y49803D01*
X240899D02*
X243898D01*
X232480D02*
X235479D01*
X243898Y48140D02*
Y49803D01*
X274606Y45177D02*
X275394D01*
X274606Y49311D02*
X275394D01*
X273819Y52658D02*
X274606D01*
X273819Y57579D02*
X274606D01*
X383720Y281102D02*
Y281890D01*
X388642Y281102D02*
Y281890D01*
X399843Y283957D02*
X408504D01*
X399843Y275492D02*
X408504D01*
X233760Y91240D02*
Y107972D01*
X226476D02*
X233760D01*
X226476Y91240D02*
X233760D01*
X226476D02*
Y107972D01*
X417323Y320276D02*
Y325394D01*
Y320276D02*
X421654D01*
X417323Y325394D02*
X421654D01*
X438583Y320374D02*
X439370D01*
X438583Y325295D02*
X439370D01*
X426772Y94390D02*
X427559D01*
X426772Y99311D02*
X427559D01*
X433169Y85236D02*
Y86024D01*
X429035Y85236D02*
Y86024D01*
X416142Y131595D02*
X424803D01*
X416142Y140059D02*
X424803D01*
X35531Y148031D02*
X41240D01*
X35531Y137008D02*
X41240D01*
X47343Y190846D02*
X53051D01*
X47343Y183760D02*
X53051D01*
X59232Y176772D02*
X59350D01*
X54035D02*
X54154D01*
X54035Y169685D02*
Y176772D01*
X59232Y169685D02*
X59350D01*
X54035D02*
X54154D01*
X59350D02*
Y176772D01*
X50000Y153307D02*
Y169055D01*
X35138Y153465D02*
Y169213D01*
X410909Y131043D02*
X417831D01*
Y111752D02*
Y131043D01*
X410909Y111752D02*
X417831D01*
X410909D02*
Y131043D01*
X449508Y211614D02*
X471752D01*
X449508Y252953D02*
X471752D01*
X449508Y262795D02*
X471752D01*
X449508Y304134D02*
X471752D01*
X516437Y262795D02*
X538681D01*
X516437Y304134D02*
X538681D01*
X607874Y305217D02*
X608661D01*
X607874Y301083D02*
X608661D01*
X617618Y298819D02*
Y299606D01*
X622539Y298819D02*
Y299606D01*
X413583Y204528D02*
Y256102D01*
X373819D02*
X413583D01*
X373819Y204528D02*
Y256102D01*
Y204528D02*
X413583D01*
X149213Y164961D02*
Y186614D01*
X140157D02*
X149213D01*
X122441D02*
X131496D01*
X122441Y164961D02*
Y186614D01*
X140157Y159843D02*
X144095D01*
X149213Y164961D01*
X122441D02*
X127559Y159843D01*
X131496D01*
X237795Y63976D02*
X302756D01*
Y152559D01*
X237795D02*
X302756D01*
X237795Y63976D02*
Y152559D01*
X740748Y235630D02*
Y323425D01*
X637205D02*
X740748D01*
X637205Y235630D02*
Y323425D01*
Y235630D02*
X740748D01*
X637205Y145079D02*
Y232874D01*
Y145079D02*
X740748D01*
Y232874D01*
X637205D02*
X740748D01*
X191654Y48839D02*
Y57461D01*
X203228Y48839D02*
Y57461D01*
X459193Y102362D02*
X485689D01*
X459193Y39370D02*
X485689D01*
X459193D02*
Y102362D01*
X485689Y39370D02*
Y102362D01*
X392264Y39370D02*
X418760D01*
X392264Y102362D02*
X418760D01*
Y39370D02*
Y102362D01*
X392264Y39370D02*
Y102362D01*
X207402Y48839D02*
Y57461D01*
X218976Y48839D02*
Y57461D01*
X439508Y195829D02*
X466004D01*
X439508Y132837D02*
X466004D01*
X439508D02*
Y195829D01*
X466004Y132837D02*
Y195829D01*
X341083Y102362D02*
X367579D01*
X341083Y39370D02*
X367579D01*
X341083D02*
Y102362D01*
X367579Y39370D02*
Y102362D01*
X-7047Y57815D02*
X41874D01*
X53008D02*
X77953D01*
X53008Y121319D02*
X77953D01*
X-7047D02*
X41874D01*
X-7047Y57815D02*
Y121319D01*
X77953Y57815D02*
Y121319D01*
X376083Y38386D02*
X377854D01*
X376083Y32480D02*
X377854D01*
X324902Y38386D02*
X326673D01*
X324902Y32480D02*
X326673D01*
X281594Y34449D02*
X283366D01*
X281594Y28543D02*
X283366D01*
X431201Y34449D02*
X432972D01*
X431201Y28543D02*
X432972D01*
X63386Y163779D02*
Y185433D01*
Y163779D02*
X72441D01*
X81102D02*
X90158D01*
Y185433D01*
X68504Y190551D02*
X72441D01*
X63386Y185433D02*
X68504Y190551D01*
X85039D02*
X90158Y185433D01*
X81102Y190551D02*
X85039D01*
X93110Y167126D02*
Y183268D01*
X119488Y167126D02*
Y183268D01*
X93110Y167126D02*
X119488D01*
X93110Y183268D02*
X119488D01*
X102067Y117717D02*
Y118504D01*
X106595Y117717D02*
Y118504D01*
X120177Y60433D02*
Y61614D01*
X114469Y60433D02*
Y61614D01*
X138287Y117717D02*
Y118504D01*
X133366Y117717D02*
Y118504D01*
X128445Y117717D02*
Y118504D01*
X123524Y117717D02*
Y118504D01*
X118602Y117717D02*
Y118504D01*
X113681Y117717D02*
Y118504D01*
X161024Y79724D02*
Y99410D01*
X173622Y79724D02*
Y99410D01*
X161024Y79724D02*
X161221D01*
X173425Y99410D02*
X173622D01*
X173425Y79724D02*
X173622D01*
X161024Y99410D02*
X161221D01*
X151279Y68874D02*
Y78370D01*
X159744Y68874D02*
Y78370D01*
X72232Y124299D02*
X85248D01*
X72232Y133575D02*
X85248D01*
X114764Y200394D02*
X115256D01*
X124902D02*
X125394D01*
Y212992D01*
X114764D02*
X115256D01*
X124902D02*
X125394D01*
X114764Y200394D02*
Y212992D01*
X134449Y200394D02*
X134941D01*
X144587D02*
X145079D01*
Y212992D01*
X134449D02*
X134941D01*
X144587D02*
X145079D01*
X134449Y200394D02*
Y212992D01*
X245669Y247933D02*
X246457D01*
X245669Y252067D02*
X246457D01*
X245669Y255807D02*
X246457D01*
X245669Y259941D02*
X246457D01*
X143701Y251378D02*
Y256496D01*
X139370D02*
X143701D01*
X139370Y251378D02*
X143701D01*
Y259252D02*
Y264370D01*
X139370D02*
X143701D01*
X139370Y259252D02*
X143701D01*
X130659Y231496D02*
X132283D01*
X130659Y225197D02*
X132283D01*
X132283Y230622D02*
Y231496D01*
Y225197D02*
Y226071D01*
X130659Y241732D02*
X132283D01*
X130659Y235433D02*
X132283D01*
X132283Y240858D02*
Y241732D01*
Y235433D02*
Y236307D01*
X80709Y255315D02*
Y256496D01*
X84646Y255315D02*
Y256496D01*
X80709Y255315D02*
X84646D01*
X68898D02*
Y256496D01*
X72835Y255315D02*
Y256496D01*
X68898Y255315D02*
X72835D01*
X82284Y214862D02*
X90945D01*
X82284Y206398D02*
X90945D01*
X55512Y258957D02*
X56693D01*
X55512Y264665D02*
X56693D01*
X51772Y247736D02*
X60433D01*
X51772Y256201D02*
X60433D01*
X104798Y223449D02*
Y239149D01*
X70398Y223449D02*
X74085D01*
X101112D02*
X104798D01*
X70398D02*
Y239149D01*
X74085D01*
X101112D02*
X104798D01*
X53268Y226894D02*
Y235516D01*
X64842Y226894D02*
Y235516D01*
X43701Y219570D02*
Y229248D01*
X35039Y219570D02*
Y229248D01*
X30453Y192618D02*
Y228642D01*
X15315Y192618D02*
X17598D01*
X30000D02*
X30453D01*
X15315Y228642D02*
X17598D01*
X30000D02*
X30453D01*
X161221Y270866D02*
X232480D01*
Y170079D02*
Y172933D01*
Y244429D02*
Y270866D01*
X161221Y170079D02*
X171102D01*
X222598D02*
X232480D01*
X161221D02*
Y172933D01*
Y244429D02*
Y270866D01*
D14*
X122441Y155119D02*
X149213D01*
X63386Y195275D02*
X90158D01*
D15*
X19949Y184843D02*
Y187598D01*
X21326D01*
X21785Y187139D01*
Y186221D01*
X21326Y185761D01*
X19949D01*
X20867D02*
X21785Y184843D01*
X22704Y187139D02*
X23163Y187598D01*
X24081D01*
X24540Y187139D01*
Y186680D01*
X24081Y186221D01*
X24540Y185761D01*
Y185302D01*
X24081Y184843D01*
X23163D01*
X22704Y185302D01*
Y185761D01*
X23163Y186221D01*
X22704Y186680D01*
Y187139D01*
X23163Y186221D02*
X24081D01*
X27295Y187598D02*
X25459D01*
Y186221D01*
X26377Y186680D01*
X26836D01*
X27295Y186221D01*
Y185302D01*
X26836Y184843D01*
X25918D01*
X25459Y185302D01*
X723098Y127756D02*
Y130511D01*
X724476D01*
X724935Y130052D01*
Y129134D01*
X724476Y128675D01*
X723098D01*
X724017D02*
X724935Y127756D01*
X725853Y130052D02*
X726312Y130511D01*
X727231D01*
X727690Y130052D01*
Y129593D01*
X727231Y129134D01*
X727690Y128675D01*
Y128216D01*
X727231Y127756D01*
X726312D01*
X725853Y128216D01*
Y128675D01*
X726312Y129134D01*
X725853Y129593D01*
Y130052D01*
X726312Y129134D02*
X727231D01*
X729986Y127756D02*
Y130511D01*
X728608Y129134D01*
X730445D01*
X448098Y66930D02*
Y69685D01*
X449476D01*
X449935Y69225D01*
Y68307D01*
X449476Y67848D01*
X448098D01*
X449017D02*
X449935Y66930D01*
X450853Y69685D02*
X452690D01*
Y69225D01*
X450853Y67389D01*
Y66930D01*
X453608Y67389D02*
X454068Y66930D01*
X454986D01*
X455445Y67389D01*
Y69225D01*
X454986Y69685D01*
X454068D01*
X453608Y69225D01*
Y68766D01*
X454068Y68307D01*
X455445D01*
X759579Y188582D02*
Y185827D01*
X758201D01*
X757742Y186286D01*
Y187205D01*
X758201Y187664D01*
X759579D01*
X758661D02*
X757742Y188582D01*
X756824Y185827D02*
X754987D01*
Y186286D01*
X756824Y188123D01*
Y188582D01*
X754069Y186286D02*
X753610Y185827D01*
X752691D01*
X752232Y186286D01*
Y186746D01*
X752691Y187205D01*
X752232Y187664D01*
Y188123D01*
X752691Y188582D01*
X753610D01*
X754069Y188123D01*
Y187664D01*
X753610Y187205D01*
X754069Y186746D01*
Y186286D01*
X753610Y187205D02*
X752691D01*
X435236Y59319D02*
X432481D01*
Y60696D01*
X432940Y61155D01*
X433858D01*
X434317Y60696D01*
Y59319D01*
Y60237D02*
X435236Y61155D01*
X432940Y62074D02*
X432481Y62533D01*
Y63451D01*
X432940Y63911D01*
X433399D01*
X433858Y63451D01*
X434317Y63911D01*
X434777D01*
X435236Y63451D01*
Y62533D01*
X434777Y62074D01*
X434317D01*
X433858Y62533D01*
X433399Y62074D01*
X432940D01*
X433858Y62533D02*
Y63451D01*
X432940Y64829D02*
X432481Y65288D01*
Y66206D01*
X432940Y66666D01*
X434777D01*
X435236Y66206D01*
Y65288D01*
X434777Y64829D01*
X432940D01*
X752232Y284252D02*
Y287007D01*
X753610D01*
X754069Y286548D01*
Y285630D01*
X753610Y285171D01*
X752232D01*
X753151D02*
X754069Y284252D01*
X754987Y287007D02*
X756824D01*
Y286548D01*
X754987Y284712D01*
Y284252D01*
X757742Y287007D02*
X759579D01*
Y286548D01*
X757742Y284712D01*
Y284252D01*
X622834Y309516D02*
X620079D01*
Y310893D01*
X620538Y311352D01*
X621457D01*
X621916Y310893D01*
Y309516D01*
Y310434D02*
X622834Y311352D01*
X620079Y312271D02*
Y314107D01*
X620538D01*
X622375Y312271D01*
X622834D01*
X620079Y316862D02*
X620538Y315944D01*
X621457Y315026D01*
X622375D01*
X622834Y315485D01*
Y316403D01*
X622375Y316862D01*
X621916D01*
X621457Y316403D01*
Y315026D01*
X434776Y79724D02*
Y76969D01*
X433398D01*
X432939Y77428D01*
Y78347D01*
X433398Y78806D01*
X434776D01*
X433857D02*
X432939Y79724D01*
X432021Y76969D02*
X430184D01*
Y77428D01*
X432021Y79265D01*
Y79724D01*
X427429Y76969D02*
X429266D01*
Y78347D01*
X428347Y77887D01*
X427888D01*
X427429Y78347D01*
Y79265D01*
X427888Y79724D01*
X428806D01*
X429266Y79265D01*
X435040Y100327D02*
X437795D01*
Y98949D01*
X437336Y98490D01*
X436417D01*
X435958Y98949D01*
Y100327D01*
Y99409D02*
X435040Y98490D01*
X437795Y97572D02*
Y95735D01*
X437336D01*
X435499Y97572D01*
X435040D01*
Y93439D02*
X437795D01*
X436417Y94817D01*
Y92980D01*
X623622Y319817D02*
X620867D01*
Y321195D01*
X621326Y321654D01*
X622244D01*
X622703Y321195D01*
Y319817D01*
Y320736D02*
X623622Y321654D01*
X620867Y322572D02*
Y324409D01*
X621326D01*
X623162Y322572D01*
X623622D01*
Y325327D02*
Y326246D01*
Y325786D01*
X620867D01*
X621326Y325327D01*
X587795Y319161D02*
X585040D01*
Y320539D01*
X585499Y320998D01*
X586417D01*
X586876Y320539D01*
Y319161D01*
Y320080D02*
X587795Y320998D01*
X585040Y321916D02*
Y323753D01*
X585499D01*
X587336Y321916D01*
X587795D01*
X585499Y324671D02*
X585040Y325131D01*
Y326049D01*
X585499Y326508D01*
X587336D01*
X587795Y326049D01*
Y325131D01*
X587336Y324671D01*
X585499D01*
X510630Y319161D02*
X507874D01*
Y320539D01*
X508334Y320998D01*
X509252D01*
X509711Y320539D01*
Y319161D01*
Y320080D02*
X510630Y320998D01*
X507874Y323753D02*
X508334Y322835D01*
X509252Y321916D01*
X510170D01*
X510630Y322375D01*
Y323294D01*
X510170Y323753D01*
X509711D01*
X509252Y323294D01*
Y321916D01*
X510170Y324671D02*
X510630Y325131D01*
Y326049D01*
X510170Y326508D01*
X508334D01*
X507874Y326049D01*
Y325131D01*
X508334Y324671D01*
X508793D01*
X509252Y325131D01*
Y326508D01*
X548031Y319161D02*
X545276D01*
Y320539D01*
X545735Y320998D01*
X546654D01*
X547113Y320539D01*
Y319161D01*
Y320080D02*
X548031Y320998D01*
X545276Y323753D02*
X545735Y322835D01*
X546654Y321916D01*
X547572D01*
X548031Y322375D01*
Y323294D01*
X547572Y323753D01*
X547113D01*
X546654Y323294D01*
Y321916D01*
X545735Y324671D02*
X545276Y325131D01*
Y326049D01*
X545735Y326508D01*
X546194D01*
X546654Y326049D01*
X547113Y326508D01*
X547572D01*
X548031Y326049D01*
Y325131D01*
X547572Y324671D01*
X547113D01*
X546654Y325131D01*
X546194Y324671D01*
X545735D01*
X546654Y325131D02*
Y326049D01*
X577166Y307020D02*
X579921D01*
Y305642D01*
X579462Y305183D01*
X578543D01*
X578084Y305642D01*
Y307020D01*
Y306101D02*
X577166Y305183D01*
X579921Y302428D02*
X579462Y303346D01*
X578543Y304265D01*
X577625D01*
X577166Y303806D01*
Y302887D01*
X577625Y302428D01*
X578084D01*
X578543Y302887D01*
Y304265D01*
X579921Y299673D02*
Y301510D01*
X578543D01*
X579003Y300591D01*
Y300132D01*
X578543Y299673D01*
X577625D01*
X577166Y300132D01*
Y301051D01*
X577625Y301510D01*
X490815Y290552D02*
Y293307D01*
X492192D01*
X492652Y292847D01*
Y291929D01*
X492192Y291470D01*
X490815D01*
X491733D02*
X492652Y290552D01*
X495406Y293307D02*
X494488Y292847D01*
X493570Y291929D01*
Y291011D01*
X494029Y290552D01*
X494947D01*
X495406Y291011D01*
Y291470D01*
X494947Y291929D01*
X493570D01*
X496325Y292847D02*
X496784Y293307D01*
X497702D01*
X498162Y292847D01*
Y292388D01*
X497702Y291929D01*
X497243D01*
X497702D01*
X498162Y291470D01*
Y291011D01*
X497702Y290552D01*
X496784D01*
X496325Y291011D01*
X505708Y240421D02*
X502953D01*
Y241799D01*
X503412Y242258D01*
X504331D01*
X504790Y241799D01*
Y240421D01*
Y241339D02*
X505708Y242258D01*
X502953Y245013D02*
X503412Y244094D01*
X504331Y243176D01*
X505249D01*
X505708Y243635D01*
Y244554D01*
X505249Y245013D01*
X504790D01*
X504331Y244554D01*
Y243176D01*
X505708Y247768D02*
Y245931D01*
X503871Y247768D01*
X503412D01*
X502953Y247309D01*
Y246390D01*
X503412Y245931D01*
X434449Y238319D02*
X437204D01*
Y236942D01*
X436745Y236482D01*
X435827D01*
X435368Y236942D01*
Y238319D01*
Y237401D02*
X434449Y236482D01*
X437204Y233727D02*
Y235564D01*
X435827D01*
X436286Y234646D01*
Y234187D01*
X435827Y233727D01*
X434908D01*
X434449Y234187D01*
Y235105D01*
X434908Y235564D01*
X437204Y230972D02*
Y232809D01*
X435827D01*
X436286Y231891D01*
Y231432D01*
X435827Y230972D01*
X434908D01*
X434449Y231432D01*
Y232350D01*
X434908Y232809D01*
X434843Y228477D02*
X437598D01*
Y227099D01*
X437139Y226640D01*
X436221D01*
X435761Y227099D01*
Y228477D01*
Y227558D02*
X434843Y226640D01*
X437598Y223885D02*
Y225722D01*
X436221D01*
X436680Y224803D01*
Y224344D01*
X436221Y223885D01*
X435302D01*
X434843Y224344D01*
Y225262D01*
X435302Y225722D01*
X434843Y221589D02*
X437598D01*
X436221Y222967D01*
Y221130D01*
X434252Y289500D02*
X437007D01*
Y288123D01*
X436548Y287664D01*
X435630D01*
X435171Y288123D01*
Y289500D01*
Y288582D02*
X434252Y287664D01*
Y285368D02*
X437007D01*
X435630Y286745D01*
Y284908D01*
X437007Y283990D02*
Y282153D01*
X436548D01*
X434712Y283990D01*
X434252D01*
X434646Y279461D02*
X437401D01*
Y278083D01*
X436942Y277624D01*
X436024D01*
X435564Y278083D01*
Y279461D01*
Y278542D02*
X434646Y277624D01*
Y275328D02*
X437401D01*
X436024Y276706D01*
Y274869D01*
X437401Y272114D02*
X436942Y273032D01*
X436024Y273951D01*
X435105D01*
X434646Y273492D01*
Y272573D01*
X435105Y272114D01*
X435564D01*
X436024Y272573D01*
Y273951D01*
X415618Y309056D02*
Y311811D01*
X416995D01*
X417455Y311351D01*
Y310433D01*
X416995Y309974D01*
X415618D01*
X416536D02*
X417455Y309056D01*
X419750D02*
Y311811D01*
X418373Y310433D01*
X420210D01*
X422965Y311811D02*
X421128D01*
Y310433D01*
X422046Y310892D01*
X422506D01*
X422965Y310433D01*
Y309515D01*
X422506Y309056D01*
X421587D01*
X421128Y309515D01*
X427626Y312973D02*
Y315728D01*
X429003D01*
X429462Y315269D01*
Y314350D01*
X429003Y313891D01*
X427626D01*
X428544D02*
X429462Y312973D01*
X431758D02*
Y315728D01*
X430381Y314350D01*
X432218D01*
X434513Y312973D02*
Y315728D01*
X433136Y314350D01*
X434973D01*
X217304Y166403D02*
X220059D01*
Y165026D01*
X219599Y164567D01*
X218681D01*
X218222Y165026D01*
Y166403D01*
Y165485D02*
X217304Y164567D01*
Y162271D02*
X220059D01*
X218681Y163648D01*
Y161811D01*
X217304Y160893D02*
Y159975D01*
Y160434D01*
X220059D01*
X219599Y160893D01*
X382311Y289174D02*
Y291929D01*
X383688D01*
X384148Y291470D01*
Y290551D01*
X383688Y290092D01*
X382311D01*
X383229D02*
X384148Y289174D01*
X385066Y291470D02*
X385525Y291929D01*
X386443D01*
X386903Y291470D01*
Y291010D01*
X386443Y290551D01*
X385984D01*
X386443D01*
X386903Y290092D01*
Y289633D01*
X386443Y289174D01*
X385525D01*
X385066Y289633D01*
X387821D02*
X388280Y289174D01*
X389198D01*
X389658Y289633D01*
Y291470D01*
X389198Y291929D01*
X388280D01*
X387821Y291470D01*
Y291010D01*
X388280Y290551D01*
X389658D01*
X611941Y299212D02*
Y296457D01*
X610564D01*
X610104Y296916D01*
Y297835D01*
X610564Y298294D01*
X611941D01*
X611023D02*
X610104Y299212D01*
X609186Y296916D02*
X608727Y296457D01*
X607808D01*
X607349Y296916D01*
Y297375D01*
X607808Y297835D01*
X608268D01*
X607808D01*
X607349Y298294D01*
Y298753D01*
X607808Y299212D01*
X608727D01*
X609186Y298753D01*
X606431Y296916D02*
X605972Y296457D01*
X605054D01*
X604594Y296916D01*
Y297375D01*
X605054Y297835D01*
X604594Y298294D01*
Y298753D01*
X605054Y299212D01*
X605972D01*
X606431Y298753D01*
Y298294D01*
X605972Y297835D01*
X606431Y297375D01*
Y296916D01*
X605972Y297835D02*
X605054D01*
X624213Y302886D02*
X626968D01*
Y301508D01*
X626509Y301049D01*
X625591D01*
X625131Y301508D01*
Y302886D01*
Y301968D02*
X624213Y301049D01*
X626509Y300131D02*
X626968Y299672D01*
Y298753D01*
X626509Y298294D01*
X626050D01*
X625591Y298753D01*
Y299213D01*
Y298753D01*
X625131Y298294D01*
X624672D01*
X624213Y298753D01*
Y299672D01*
X624672Y300131D01*
X626968Y297376D02*
Y295539D01*
X626509D01*
X624672Y297376D01*
X624213D01*
X470866Y319161D02*
X468111D01*
Y320539D01*
X468570Y320998D01*
X469488D01*
X469947Y320539D01*
Y319161D01*
Y320080D02*
X470866Y320998D01*
X468570Y321916D02*
X468111Y322375D01*
Y323294D01*
X468570Y323753D01*
X469029D01*
X469488Y323294D01*
Y322835D01*
Y323294D01*
X469947Y323753D01*
X470406D01*
X470866Y323294D01*
Y322375D01*
X470406Y321916D01*
X468111Y326508D02*
X468570Y325590D01*
X469488Y324671D01*
X470406D01*
X470866Y325131D01*
Y326049D01*
X470406Y326508D01*
X469947D01*
X469488Y326049D01*
Y324671D01*
X269094Y42193D02*
X266339D01*
Y43570D01*
X266798Y44030D01*
X267717D01*
X268176Y43570D01*
Y42193D01*
Y43111D02*
X269094Y44030D01*
X266798Y44948D02*
X266339Y45407D01*
Y46325D01*
X266798Y46784D01*
X267257D01*
X267717Y46325D01*
Y45866D01*
Y46325D01*
X268176Y46784D01*
X268635D01*
X269094Y46325D01*
Y45407D01*
X268635Y44948D01*
X266339Y49540D02*
Y47703D01*
X267717D01*
X267257Y48621D01*
Y49080D01*
X267717Y49540D01*
X268635D01*
X269094Y49080D01*
Y48162D01*
X268635Y47703D01*
X266732Y52823D02*
X263977D01*
Y54200D01*
X264436Y54659D01*
X265354D01*
X265813Y54200D01*
Y52823D01*
Y53741D02*
X266732Y54659D01*
X264436Y55578D02*
X263977Y56037D01*
Y56955D01*
X264436Y57414D01*
X264895D01*
X265354Y56955D01*
Y56496D01*
Y56955D01*
X265813Y57414D01*
X266273D01*
X266732Y56955D01*
Y56037D01*
X266273Y55578D01*
X266732Y59710D02*
X263977D01*
X265354Y58333D01*
Y60169D01*
X231497Y76508D02*
X234251D01*
Y75130D01*
X233792Y74671D01*
X232874D01*
X232415Y75130D01*
Y76508D01*
Y75590D02*
X231497Y74671D01*
X233792Y73753D02*
X234251Y73294D01*
Y72376D01*
X233792Y71916D01*
X233333D01*
X232874Y72376D01*
Y72835D01*
Y72376D01*
X232415Y71916D01*
X231956D01*
X231497Y72376D01*
Y73294D01*
X231956Y73753D01*
X233792Y70998D02*
X234251Y70539D01*
Y69621D01*
X233792Y69161D01*
X233333D01*
X232874Y69621D01*
Y70080D01*
Y69621D01*
X232415Y69161D01*
X231956D01*
X231497Y69621D01*
Y70539D01*
X231956Y70998D01*
X217980Y93308D02*
Y96062D01*
X219358D01*
X219817Y95603D01*
Y94685D01*
X219358Y94226D01*
X217980D01*
X218899D02*
X219817Y93308D01*
X220735Y95603D02*
X221194Y96062D01*
X222113D01*
X222572Y95603D01*
Y95144D01*
X222113Y94685D01*
X221654D01*
X222113D01*
X222572Y94226D01*
Y93767D01*
X222113Y93308D01*
X221194D01*
X220735Y93767D01*
X225327Y93308D02*
X223490D01*
X225327Y95144D01*
Y95603D01*
X224868Y96062D01*
X223949D01*
X223490Y95603D01*
X431693Y319817D02*
X428937D01*
Y321195D01*
X429397Y321654D01*
X430315D01*
X430774Y321195D01*
Y319817D01*
Y320736D02*
X431693Y321654D01*
X429397Y322572D02*
X428937Y323031D01*
Y323950D01*
X429397Y324409D01*
X429856D01*
X430315Y323950D01*
Y323491D01*
Y323950D01*
X430774Y324409D01*
X431233D01*
X431693Y323950D01*
Y323031D01*
X431233Y322572D01*
X431693Y325327D02*
Y326246D01*
Y325786D01*
X428937D01*
X429397Y325327D01*
X719160Y81300D02*
X718701Y80840D01*
Y79922D01*
X719160Y79463D01*
X720997D01*
X721456Y79922D01*
Y80840D01*
X720997Y81300D01*
X718701Y84055D02*
X719160Y83136D01*
X720079Y82218D01*
X720997D01*
X721456Y82677D01*
Y83596D01*
X720997Y84055D01*
X720538D01*
X720079Y83596D01*
Y82218D01*
X721456Y84973D02*
Y85891D01*
Y85432D01*
X718701D01*
X719160Y84973D01*
X433203Y125722D02*
X432744Y126181D01*
X431825D01*
X431366Y125722D01*
Y123885D01*
X431825Y123426D01*
X432744D01*
X433203Y123885D01*
X435958Y126181D02*
X434121D01*
Y124803D01*
X435039Y125262D01*
X435499D01*
X435958Y124803D01*
Y123885D01*
X435499Y123426D01*
X434580D01*
X434121Y123885D01*
X436876Y126181D02*
X438713D01*
Y125722D01*
X436876Y123885D01*
Y123426D01*
X429462Y137663D02*
X429921Y138123D01*
Y139041D01*
X429462Y139500D01*
X427625D01*
X427166Y139041D01*
Y138123D01*
X427625Y137663D01*
X429921Y134908D02*
Y136745D01*
X428543D01*
X429003Y135827D01*
Y135368D01*
X428543Y134908D01*
X427625D01*
X427166Y135368D01*
Y136286D01*
X427625Y136745D01*
X429921Y132153D02*
X429462Y133072D01*
X428543Y133990D01*
X427625D01*
X427166Y133531D01*
Y132613D01*
X427625Y132153D01*
X428084D01*
X428543Y132613D01*
Y133990D01*
X504397Y252100D02*
X503937Y251641D01*
Y250723D01*
X504397Y250264D01*
X506233D01*
X506693Y250723D01*
Y251641D01*
X506233Y252100D01*
X504397Y253019D02*
X503937Y253478D01*
Y254396D01*
X504397Y254855D01*
X504856D01*
X505315Y254396D01*
Y253937D01*
Y254396D01*
X505774Y254855D01*
X506233D01*
X506693Y254396D01*
Y253478D01*
X506233Y253019D01*
Y255774D02*
X506693Y256233D01*
Y257151D01*
X506233Y257610D01*
X504397D01*
X503937Y257151D01*
Y256233D01*
X504397Y255774D01*
X504856D01*
X505315Y256233D01*
Y257610D01*
X420341Y212730D02*
X419882Y212271D01*
Y211353D01*
X420341Y210894D01*
X422178D01*
X422637Y211353D01*
Y212271D01*
X422178Y212730D01*
X420341Y213649D02*
X419882Y214108D01*
Y215026D01*
X420341Y215485D01*
X420801D01*
X421260Y215026D01*
Y214567D01*
Y215026D01*
X421719Y215485D01*
X422178D01*
X422637Y215026D01*
Y214108D01*
X422178Y213649D01*
X420341Y216404D02*
X419882Y216863D01*
Y217781D01*
X420341Y218240D01*
X420801D01*
X421260Y217781D01*
X421719Y218240D01*
X422178D01*
X422637Y217781D01*
Y216863D01*
X422178Y216404D01*
X421719D01*
X421260Y216863D01*
X420801Y216404D01*
X420341D01*
X421260Y216863D02*
Y217781D01*
X427494Y255840D02*
X427035Y256299D01*
X426117D01*
X425657Y255840D01*
Y254003D01*
X426117Y253544D01*
X427035D01*
X427494Y254003D01*
X428412Y255840D02*
X428871Y256299D01*
X429790D01*
X430249Y255840D01*
Y255380D01*
X429790Y254921D01*
X429331D01*
X429790D01*
X430249Y254462D01*
Y254003D01*
X429790Y253544D01*
X428871D01*
X428412Y254003D01*
X431167Y256299D02*
X433004D01*
Y255840D01*
X431167Y254003D01*
Y253544D01*
X413359Y281955D02*
X413819Y282414D01*
Y283332D01*
X413359Y283791D01*
X411523D01*
X411063Y283332D01*
Y282414D01*
X411523Y281955D01*
X413359Y281036D02*
X413819Y280577D01*
Y279659D01*
X413359Y279200D01*
X412900D01*
X412441Y279659D01*
Y280118D01*
Y279659D01*
X411982Y279200D01*
X411523D01*
X411063Y279659D01*
Y280577D01*
X411523Y281036D01*
X413819Y276445D02*
Y278281D01*
X412441D01*
X412900Y277363D01*
Y276904D01*
X412441Y276445D01*
X411523D01*
X411063Y276904D01*
Y277822D01*
X411523Y278281D01*
X580709Y287530D02*
X582546D01*
X583464Y286612D01*
X582546Y285693D01*
X580709D01*
X582087D01*
Y287530D01*
X583464Y284775D02*
X580709D01*
Y283397D01*
X581168Y282938D01*
X583005D01*
X583464Y283397D01*
Y284775D01*
X583005Y280183D02*
X583464Y280642D01*
Y281561D01*
X583005Y282020D01*
X581168D01*
X580709Y281561D01*
Y280642D01*
X581168Y280183D01*
X583005Y279265D02*
X583464Y278806D01*
Y277887D01*
X583005Y277428D01*
X582546D01*
X582087Y277887D01*
Y278346D01*
Y277887D01*
X581627Y277428D01*
X581168D01*
X580709Y277887D01*
Y278806D01*
X581168Y279265D01*
X582087Y276510D02*
Y274673D01*
X580709Y273755D02*
X582546D01*
X583464Y272836D01*
X582546Y271918D01*
X580709D01*
X582087D01*
Y273755D01*
X580709Y269163D02*
Y271000D01*
X582546Y269163D01*
X583005D01*
X583464Y269622D01*
Y270540D01*
X583005Y271000D01*
X565354Y270213D02*
X563517D01*
X562599Y271131D01*
X563517Y272049D01*
X565354D01*
X563976D01*
Y270213D01*
X562599Y272968D02*
X565354D01*
Y274345D01*
X564895Y274804D01*
X563058D01*
X562599Y274345D01*
Y272968D01*
X563058Y277559D02*
X562599Y277100D01*
Y276182D01*
X563058Y275723D01*
X564895D01*
X565354Y276182D01*
Y277100D01*
X564895Y277559D01*
X563058Y278478D02*
X562599Y278937D01*
Y279855D01*
X563058Y280314D01*
X563517D01*
X563976Y279855D01*
Y279396D01*
Y279855D01*
X564435Y280314D01*
X564895D01*
X565354Y279855D01*
Y278937D01*
X564895Y278478D01*
X563976Y281233D02*
Y283069D01*
X565354Y283988D02*
X563517D01*
X562599Y284906D01*
X563517Y285825D01*
X565354D01*
X563976D01*
Y283988D01*
X565354Y286743D02*
Y287661D01*
Y287202D01*
X562599D01*
X563058Y286743D01*
X555118Y269104D02*
X553281D01*
X552363Y270022D01*
X553281Y270941D01*
X555118D01*
X553740D01*
Y269104D01*
X552363Y271859D02*
X555118D01*
Y273237D01*
X554659Y273696D01*
X552822D01*
X552363Y273237D01*
Y271859D01*
X552822Y276451D02*
X552363Y275992D01*
Y275073D01*
X552822Y274614D01*
X554659D01*
X555118Y275073D01*
Y275992D01*
X554659Y276451D01*
X552822Y277369D02*
X552363Y277828D01*
Y278747D01*
X552822Y279206D01*
X553281D01*
X553740Y278747D01*
Y278288D01*
Y278747D01*
X554199Y279206D01*
X554659D01*
X555118Y278747D01*
Y277828D01*
X554659Y277369D01*
X553740Y280124D02*
Y281961D01*
X555118Y282879D02*
X553281D01*
X552363Y283798D01*
X553281Y284716D01*
X555118D01*
X553740D01*
Y282879D01*
X552822Y285634D02*
X552363Y286093D01*
Y287012D01*
X552822Y287471D01*
X554659D01*
X555118Y287012D01*
Y286093D01*
X554659Y285634D01*
X552822D01*
X430709Y31037D02*
Y29200D01*
X432087D01*
Y30119D01*
Y29200D01*
X433464D01*
X430709Y33792D02*
Y31955D01*
X432087D01*
X431627Y32874D01*
Y33333D01*
X432087Y33792D01*
X433005D01*
X433464Y33333D01*
Y32414D01*
X433005Y31955D01*
X375788Y35171D02*
Y33334D01*
X377165D01*
Y34252D01*
Y33334D01*
X378543D01*
Y37467D02*
X375788D01*
X377165Y36089D01*
Y37926D01*
X324410Y34974D02*
Y33137D01*
X325787D01*
Y34056D01*
Y33137D01*
X327165D01*
X324869Y35892D02*
X324410Y36351D01*
Y37270D01*
X324869Y37729D01*
X325328D01*
X325787Y37270D01*
Y36811D01*
Y37270D01*
X326247Y37729D01*
X326706D01*
X327165Y37270D01*
Y36351D01*
X326706Y35892D01*
X281103Y31037D02*
Y29200D01*
X282480D01*
Y30119D01*
Y29200D01*
X283858D01*
Y33792D02*
Y31955D01*
X282021Y33792D01*
X281562D01*
X281103Y33333D01*
Y32414D01*
X281562Y31955D01*
X54594Y174606D02*
Y171851D01*
X55971D01*
X56431Y172310D01*
Y174147D01*
X55971Y174606D01*
X54594D01*
X59186Y171851D02*
X57349D01*
X59186Y173688D01*
Y174147D01*
X58726Y174606D01*
X57808D01*
X57349Y174147D01*
X49738Y188222D02*
X49279Y188681D01*
X48360D01*
X47901Y188222D01*
Y186385D01*
X48360Y185926D01*
X49279D01*
X49738Y186385D01*
X50656D02*
X51115Y185926D01*
X52034D01*
X52493Y186385D01*
Y188222D01*
X52034Y188681D01*
X51115D01*
X50656Y188222D01*
Y187762D01*
X51115Y187303D01*
X52493D01*
X130347Y217778D02*
Y219615D01*
X127592D01*
Y217778D01*
X128970Y219615D02*
Y218697D01*
X129888Y215023D02*
X130347Y215483D01*
Y216401D01*
X129888Y216860D01*
X129429D01*
X128970Y216401D01*
Y215483D01*
X128511Y215023D01*
X128051D01*
X127592Y215483D01*
Y216401D01*
X128051Y216860D01*
X127592Y214105D02*
X130347D01*
Y212728D01*
X129888Y212268D01*
X128970D01*
X128511Y212728D01*
Y214105D01*
X129888Y211350D02*
X130347Y210891D01*
Y209973D01*
X129888Y209513D01*
X129429D01*
X128970Y209973D01*
Y210432D01*
Y209973D01*
X128511Y209513D01*
X128051D01*
X127592Y209973D01*
Y210891D01*
X128051Y211350D01*
X127592Y206758D02*
Y208595D01*
X129429Y206758D01*
X129888D01*
X130347Y207218D01*
Y208136D01*
X129888Y208595D01*
X127133Y205840D02*
Y204003D01*
X130347Y203085D02*
X127592D01*
Y201708D01*
X128051Y201248D01*
X128511D01*
X128970Y201708D01*
Y203085D01*
Y201708D01*
X129429Y201248D01*
X129888D01*
X130347Y201708D01*
Y203085D01*
Y198952D02*
Y199871D01*
X129888Y200330D01*
X128051D01*
X127592Y199871D01*
Y198952D01*
X128051Y198493D01*
X129888D01*
X130347Y198952D01*
Y196197D02*
Y197116D01*
X129888Y197575D01*
X128051D01*
X127592Y197116D01*
Y196197D01*
X128051Y195738D01*
X129888D01*
X130347Y196197D01*
Y194820D02*
Y192983D01*
Y193902D01*
X127592D01*
X242849Y264698D02*
X242390Y265157D01*
X241471D01*
X241012Y264698D01*
Y262861D01*
X241471Y262402D01*
X242390D01*
X242849Y262861D01*
X245604Y264698D02*
X245145Y265157D01*
X244226D01*
X243767Y264698D01*
Y264239D01*
X244226Y263779D01*
X245145D01*
X245604Y263320D01*
Y262861D01*
X245145Y262402D01*
X244226D01*
X243767Y262861D01*
X248359Y262402D02*
X246522D01*
X248359Y264239D01*
Y264698D01*
X247900Y265157D01*
X246981D01*
X246522Y264698D01*
X251114Y265157D02*
X249277D01*
Y263779D01*
X250196Y264239D01*
X250655D01*
X251114Y263779D01*
Y262861D01*
X250655Y262402D01*
X249736D01*
X249277Y262861D01*
X244226Y245407D02*
X243767Y245866D01*
X242849D01*
X242390Y245407D01*
Y243570D01*
X242849Y243111D01*
X243767D01*
X244226Y243570D01*
X246981Y245407D02*
X246522Y245866D01*
X245604D01*
X245145Y245407D01*
Y244947D01*
X245604Y244488D01*
X246522D01*
X246981Y244029D01*
Y243570D01*
X246522Y243111D01*
X245604D01*
X245145Y243570D01*
X249736Y245866D02*
X247900D01*
Y244488D01*
X248818Y244947D01*
X249277D01*
X249736Y244488D01*
Y243570D01*
X249277Y243111D01*
X248359D01*
X247900Y243570D01*
X100657Y126181D02*
Y128937D01*
X102035D01*
X102494Y128477D01*
Y127559D01*
X102035Y127100D01*
X100657D01*
X101576D02*
X102494Y126181D01*
X103412Y128477D02*
X103872Y128937D01*
X104790D01*
X105249Y128477D01*
Y128018D01*
X104790Y127559D01*
X104331D01*
X104790D01*
X105249Y127100D01*
Y126641D01*
X104790Y126181D01*
X103872D01*
X103412Y126641D01*
X106167Y128477D02*
X106627Y128937D01*
X107545D01*
X108004Y128477D01*
Y126641D01*
X107545Y126181D01*
X106627D01*
X106167Y126641D01*
Y128477D01*
X112468Y126181D02*
Y128937D01*
X113846D01*
X114305Y128477D01*
Y127559D01*
X113846Y127100D01*
X112468D01*
X113387D02*
X114305Y126181D01*
X117060D02*
X115223D01*
X117060Y128018D01*
Y128477D01*
X116601Y128937D01*
X115683D01*
X115223Y128477D01*
X117978Y126641D02*
X118438Y126181D01*
X119356D01*
X119815Y126641D01*
Y128477D01*
X119356Y128937D01*
X118438D01*
X117978Y128477D01*
Y128018D01*
X118438Y127559D01*
X119815D01*
X132153Y126181D02*
Y128937D01*
X133531D01*
X133990Y128477D01*
Y127559D01*
X133531Y127100D01*
X132153D01*
X133072D02*
X133990Y126181D01*
X136745D02*
X134908D01*
X136745Y128018D01*
Y128477D01*
X136286Y128937D01*
X135368D01*
X134908Y128477D01*
X137663D02*
X138123Y128937D01*
X139041D01*
X139500Y128477D01*
Y128018D01*
X139041Y127559D01*
X139500Y127100D01*
Y126641D01*
X139041Y126181D01*
X138123D01*
X137663Y126641D01*
Y127100D01*
X138123Y127559D01*
X137663Y128018D01*
Y128477D01*
X138123Y127559D02*
X139041D01*
X122311Y126181D02*
Y128937D01*
X123688D01*
X124148Y128477D01*
Y127559D01*
X123688Y127100D01*
X122311D01*
X123229D02*
X124148Y126181D01*
X126903D02*
X125066D01*
X126903Y128018D01*
Y128477D01*
X126443Y128937D01*
X125525D01*
X125066Y128477D01*
X127821Y128937D02*
X129658D01*
Y128477D01*
X127821Y126641D01*
Y126181D01*
X151574Y85894D02*
X148819D01*
Y87271D01*
X149278Y87730D01*
X150197D01*
X150656Y87271D01*
Y85894D01*
Y86812D02*
X151574Y87730D01*
Y90485D02*
Y88649D01*
X149738Y90485D01*
X149278D01*
X148819Y90026D01*
Y89108D01*
X149278Y88649D01*
X148819Y93240D02*
X149278Y92322D01*
X150197Y91404D01*
X151115D01*
X151574Y91863D01*
Y92781D01*
X151115Y93240D01*
X150656D01*
X150197Y92781D01*
Y91404D01*
X84909Y75394D02*
Y78149D01*
X86287D01*
X86746Y77690D01*
Y76772D01*
X86287Y76313D01*
X84909D01*
X85828D02*
X86746Y75394D01*
X89501D02*
X87664D01*
X89501Y77231D01*
Y77690D01*
X89042Y78149D01*
X88124D01*
X87664Y77690D01*
X92256Y78149D02*
X90419D01*
Y76772D01*
X91338Y77231D01*
X91797D01*
X92256Y76772D01*
Y75853D01*
X91797Y75394D01*
X90878D01*
X90419Y75853D01*
X84909Y97048D02*
Y99803D01*
X86287D01*
X86746Y99344D01*
Y98425D01*
X86287Y97966D01*
X84909D01*
X85828D02*
X86746Y97048D01*
X89501D02*
X87664D01*
X89501Y98884D01*
Y99344D01*
X89042Y99803D01*
X88124D01*
X87664Y99344D01*
X91797Y97048D02*
Y99803D01*
X90419Y98425D01*
X92256D01*
X93800Y64238D02*
X96555D01*
Y62860D01*
X96096Y62401D01*
X95177D01*
X94718Y62860D01*
Y64238D01*
Y63319D02*
X93800Y62401D01*
Y59646D02*
Y61483D01*
X95636Y59646D01*
X96096D01*
X96555Y60105D01*
Y61024D01*
X96096Y61483D01*
X93800Y58728D02*
Y57809D01*
Y58269D01*
X96555D01*
X96096Y58728D01*
X93898Y73358D02*
X96653D01*
Y71981D01*
X96194Y71522D01*
X95276D01*
X94816Y71981D01*
Y73358D01*
Y72440D02*
X93898Y71522D01*
Y68767D02*
Y70603D01*
X95735Y68767D01*
X96194D01*
X96653Y69226D01*
Y70144D01*
X96194Y70603D01*
Y67848D02*
X96653Y67389D01*
Y66471D01*
X96194Y66012D01*
X94357D01*
X93898Y66471D01*
Y67389D01*
X94357Y67848D01*
X96194D01*
X85139Y101378D02*
Y104133D01*
X86516D01*
X86976Y103674D01*
Y102756D01*
X86516Y102297D01*
X85139D01*
X86057D02*
X86976Y101378D01*
X87894D02*
X88812D01*
X88353D01*
Y104133D01*
X87894Y103674D01*
X90190Y101838D02*
X90649Y101378D01*
X91567D01*
X92027Y101838D01*
Y103674D01*
X91567Y104133D01*
X90649D01*
X90190Y103674D01*
Y103215D01*
X90649Y102756D01*
X92027D01*
X85139Y120276D02*
Y123031D01*
X86516D01*
X86976Y122572D01*
Y121653D01*
X86516Y121194D01*
X85139D01*
X86057D02*
X86976Y120276D01*
X87894D02*
X88812D01*
X88353D01*
Y123031D01*
X87894Y122572D01*
X90190D02*
X90649Y123031D01*
X91567D01*
X92027Y122572D01*
Y122113D01*
X91567Y121653D01*
X92027Y121194D01*
Y120735D01*
X91567Y120276D01*
X90649D01*
X90190Y120735D01*
Y121194D01*
X90649Y121653D01*
X90190Y122113D01*
Y122572D01*
X90649Y121653D02*
X91567D01*
X115157Y259515D02*
X112402D01*
Y260893D01*
X112861Y261352D01*
X113779D01*
X114239Y260893D01*
Y259515D01*
Y260434D02*
X115157Y261352D01*
X114698Y262270D02*
X115157Y262729D01*
Y263648D01*
X114698Y264107D01*
X112861D01*
X112402Y263648D01*
Y262729D01*
X112861Y262270D01*
X113320D01*
X113779Y262729D01*
Y264107D01*
X115157Y251641D02*
X112402D01*
Y253019D01*
X112861Y253478D01*
X113779D01*
X114239Y253019D01*
Y251641D01*
Y252559D02*
X115157Y253478D01*
X112861Y254396D02*
X112402Y254855D01*
Y255774D01*
X112861Y256233D01*
X113320D01*
X113779Y255774D01*
X114239Y256233D01*
X114698D01*
X115157Y255774D01*
Y254855D01*
X114698Y254396D01*
X114239D01*
X113779Y254855D01*
X113320Y254396D01*
X112861D01*
X113779Y254855D02*
Y255774D01*
X104003Y265355D02*
Y268110D01*
X105381D01*
X105840Y267651D01*
Y266732D01*
X105381Y266273D01*
X104003D01*
X104922D02*
X105840Y265355D01*
X108136D02*
Y268110D01*
X106758Y266732D01*
X108595D01*
X94161Y265355D02*
Y268110D01*
X95538D01*
X95998Y267651D01*
Y266732D01*
X95538Y266273D01*
X94161D01*
X95079D02*
X95998Y265355D01*
X96916Y267651D02*
X97375Y268110D01*
X98293D01*
X98752Y267651D01*
Y267191D01*
X98293Y266732D01*
X97834D01*
X98293D01*
X98752Y266273D01*
Y265814D01*
X98293Y265355D01*
X97375D01*
X96916Y265814D01*
X113058Y223032D02*
Y225787D01*
X114436D01*
X114895Y225328D01*
Y224410D01*
X114436Y223950D01*
X113058D01*
X113977D02*
X114895Y223032D01*
X117650D02*
X115814D01*
X117650Y224869D01*
Y225328D01*
X117191Y225787D01*
X116273D01*
X115814Y225328D01*
X113518Y244292D02*
Y247047D01*
X114895D01*
X115354Y246588D01*
Y245669D01*
X114895Y245210D01*
X113518D01*
X114436D02*
X115354Y244292D01*
X116273D02*
X117191D01*
X116732D01*
Y247047D01*
X116273Y246588D01*
X136090Y228806D02*
X137926D01*
X138385Y229265D01*
Y230183D01*
X137926Y230642D01*
X136090D01*
X135630Y230183D01*
Y229265D01*
X136549Y229724D02*
X135630Y228806D01*
Y229265D02*
X136090Y228806D01*
X135630Y226051D02*
Y227887D01*
X137467Y226051D01*
X137926D01*
X138385Y226510D01*
Y227428D01*
X137926Y227887D01*
X136090Y238583D02*
X137926D01*
X138385Y239042D01*
Y239960D01*
X137926Y240419D01*
X136090D01*
X135630Y239960D01*
Y239042D01*
X136549Y239501D02*
X135630Y238583D01*
Y239042D02*
X136090Y238583D01*
X135630Y237664D02*
Y236746D01*
Y237205D01*
X138385D01*
X137926Y237664D01*
X58071Y228019D02*
Y226708D01*
X59055D01*
Y227363D01*
Y226708D01*
X60039D01*
X59055Y228675D02*
Y229987D01*
X58071Y230643D02*
X59711D01*
X60039Y230971D01*
Y231627D01*
X59711Y231955D01*
X58071D01*
X58399Y233923D02*
X58071Y233595D01*
Y232939D01*
X58399Y232611D01*
X58727D01*
X59055Y232939D01*
Y233595D01*
X59383Y233923D01*
X59711D01*
X60039Y233595D01*
Y232939D01*
X59711Y232611D01*
X58071Y234579D02*
X60039D01*
Y235563D01*
X59711Y235891D01*
X59383D01*
X59055Y235563D01*
Y234579D01*
Y235563D01*
X58727Y235891D01*
X58399D01*
X58071Y235563D01*
Y234579D01*
X150426Y219943D02*
Y221780D01*
X147671D01*
Y219943D01*
X149048Y221780D02*
Y220862D01*
X149967Y217188D02*
X150426Y217648D01*
Y218566D01*
X149967Y219025D01*
X149508D01*
X149048Y218566D01*
Y217648D01*
X148589Y217188D01*
X148130D01*
X147671Y217648D01*
Y218566D01*
X148130Y219025D01*
X147671Y216270D02*
X150426D01*
Y214893D01*
X149967Y214433D01*
X149048D01*
X148589Y214893D01*
Y216270D01*
X149967Y213515D02*
X150426Y213056D01*
Y212138D01*
X149967Y211678D01*
X149508D01*
X149048Y212138D01*
Y212597D01*
Y212138D01*
X148589Y211678D01*
X148130D01*
X147671Y212138D01*
Y213056D01*
X148130Y213515D01*
X147671Y208923D02*
Y210760D01*
X149508Y208923D01*
X149967D01*
X150426Y209383D01*
Y210301D01*
X149967Y210760D01*
X147212Y208005D02*
Y206168D01*
X147671Y205250D02*
X150426D01*
Y203872D01*
X149967Y203413D01*
X149048D01*
X148589Y203872D01*
Y205250D01*
Y204332D02*
X147671Y203413D01*
X150426Y200658D02*
Y202495D01*
X147671D01*
Y200658D01*
X149048Y202495D02*
Y201577D01*
X149967Y197903D02*
X150426Y198362D01*
Y199281D01*
X149967Y199740D01*
X149508D01*
X149048Y199281D01*
Y198362D01*
X148589Y197903D01*
X148130D01*
X147671Y198362D01*
Y199281D01*
X148130Y199740D01*
X150426Y195148D02*
Y196985D01*
X147671D01*
Y195148D01*
X149048Y196985D02*
Y196066D01*
X150426Y194230D02*
Y192393D01*
Y193312D01*
X147671D01*
X89567Y262137D02*
Y263449D01*
X87599D01*
Y262137D01*
X88583Y263449D02*
Y262793D01*
X89239Y260169D02*
X89567Y260497D01*
Y261153D01*
X89239Y261481D01*
X88911D01*
X88583Y261153D01*
Y260497D01*
X88255Y260169D01*
X87927D01*
X87599Y260497D01*
Y261153D01*
X87927Y261481D01*
X87599Y259513D02*
X89567D01*
Y258529D01*
X89239Y258201D01*
X88583D01*
X88255Y258529D01*
Y259513D01*
X89239Y257545D02*
X89567Y257217D01*
Y256561D01*
X89239Y256234D01*
X88911D01*
X88583Y256561D01*
Y256889D01*
Y256561D01*
X88255Y256234D01*
X87927D01*
X87599Y256561D01*
Y257217D01*
X87927Y257545D01*
X87599Y254266D02*
Y255577D01*
X88911Y254266D01*
X89239D01*
X89567Y254594D01*
Y255250D01*
X89239Y255577D01*
X88583Y253610D02*
Y252298D01*
X89567Y251642D02*
Y250330D01*
Y250986D01*
X87599D01*
X89567Y249674D02*
X87599Y248362D01*
X89567D02*
X87599Y249674D01*
X77756Y262137D02*
Y263449D01*
X75788D01*
Y262137D01*
X76772Y263449D02*
Y262793D01*
X77428Y260169D02*
X77756Y260497D01*
Y261153D01*
X77428Y261481D01*
X77100D01*
X76772Y261153D01*
Y260497D01*
X76444Y260169D01*
X76116D01*
X75788Y260497D01*
Y261153D01*
X76116Y261481D01*
X75788Y259513D02*
X77756D01*
Y258529D01*
X77428Y258201D01*
X76772D01*
X76444Y258529D01*
Y259513D01*
X77428Y257545D02*
X77756Y257217D01*
Y256561D01*
X77428Y256234D01*
X77100D01*
X76772Y256561D01*
Y256889D01*
Y256561D01*
X76444Y256234D01*
X76116D01*
X75788Y256561D01*
Y257217D01*
X76116Y257545D01*
X75788Y254266D02*
Y255577D01*
X77100Y254266D01*
X77428D01*
X77756Y254594D01*
Y255250D01*
X77428Y255577D01*
X76772Y253610D02*
Y252298D01*
X75788Y251642D02*
X77756D01*
Y250658D01*
X77428Y250330D01*
X76772D01*
X76444Y250658D01*
Y251642D01*
Y250986D02*
X75788Y250330D01*
X77756Y249674D02*
X75788Y248362D01*
X77756D02*
X75788Y249674D01*
X161680Y104856D02*
X161221Y104397D01*
Y103479D01*
X161680Y103019D01*
X163517D01*
X163976Y103479D01*
Y104397D01*
X163517Y104856D01*
X161680Y105775D02*
X161221Y106234D01*
Y107152D01*
X161680Y107611D01*
X162139D01*
X162598Y107152D01*
Y106693D01*
Y107152D01*
X163058Y107611D01*
X163517D01*
X163976Y107152D01*
Y106234D01*
X163517Y105775D01*
X161680Y108530D02*
X161221Y108989D01*
Y109907D01*
X161680Y110366D01*
X163517D01*
X163976Y109907D01*
Y108989D01*
X163517Y108530D01*
X161680D01*
X161385Y70998D02*
X160926Y70539D01*
Y69621D01*
X161385Y69161D01*
X163222D01*
X163681Y69621D01*
Y70539D01*
X163222Y70998D01*
X163681Y73753D02*
Y71916D01*
X161844Y73753D01*
X161385D01*
X160926Y73294D01*
Y72376D01*
X161385Y71916D01*
X163222Y74671D02*
X163681Y75130D01*
Y76049D01*
X163222Y76508D01*
X161385D01*
X160926Y76049D01*
Y75130D01*
X161385Y74671D01*
X161844D01*
X162303Y75130D01*
Y76508D01*
X144423Y82414D02*
X143964Y82874D01*
X143046D01*
X142587Y82414D01*
Y80578D01*
X143046Y80119D01*
X143964D01*
X144423Y80578D01*
X147178Y80119D02*
X145342D01*
X147178Y81955D01*
Y82414D01*
X146719Y82874D01*
X145801D01*
X145342Y82414D01*
X148097D02*
X148556Y82874D01*
X149474D01*
X149933Y82414D01*
Y81955D01*
X149474Y81496D01*
X149933Y81037D01*
Y80578D01*
X149474Y80119D01*
X148556D01*
X148097Y80578D01*
Y81037D01*
X148556Y81496D01*
X148097Y81955D01*
Y82414D01*
X148556Y81496D02*
X149474D01*
X153675Y82414D02*
X153216Y82874D01*
X152298D01*
X151838Y82414D01*
Y80578D01*
X152298Y80119D01*
X153216D01*
X153675Y80578D01*
X156430Y80119D02*
X154594D01*
X156430Y81955D01*
Y82414D01*
X155971Y82874D01*
X155053D01*
X154594Y82414D01*
X157349Y82874D02*
X159185D01*
Y82414D01*
X157349Y80578D01*
Y80119D01*
X131233Y62467D02*
X131693Y62926D01*
Y63844D01*
X131233Y64303D01*
X129397D01*
X128937Y63844D01*
Y62926D01*
X129397Y62467D01*
X128937Y59712D02*
Y61548D01*
X130774Y59712D01*
X131233D01*
X131693Y60171D01*
Y61089D01*
X131233Y61548D01*
X131693Y56957D02*
X131233Y57875D01*
X130315Y58793D01*
X129397D01*
X128937Y58334D01*
Y57416D01*
X129397Y56957D01*
X129856D01*
X130315Y57416D01*
Y58793D01*
X116011Y61680D02*
X115683Y62008D01*
X115027D01*
X114699Y61680D01*
Y60368D01*
X115027Y60040D01*
X115683D01*
X116011Y60368D01*
X117979Y60040D02*
X116667D01*
X117979Y61352D01*
Y61680D01*
X117651Y62008D01*
X116995D01*
X116667Y61680D01*
X119947Y62008D02*
X118635D01*
Y61024D01*
X119291Y61352D01*
X119619D01*
X119947Y61024D01*
Y60368D01*
X119619Y60040D01*
X118963D01*
X118635Y60368D01*
X102494Y67848D02*
X102035Y68307D01*
X101117D01*
X100657Y67848D01*
Y66011D01*
X101117Y65552D01*
X102035D01*
X102494Y66011D01*
X105249Y65552D02*
X103412D01*
X105249Y67388D01*
Y67848D01*
X104790Y68307D01*
X103872D01*
X103412Y67848D01*
X107545Y65552D02*
Y68307D01*
X106167Y66929D01*
X108004D01*
X66798Y127330D02*
X66339Y126871D01*
Y125952D01*
X66798Y125493D01*
X68635D01*
X69094Y125952D01*
Y126871D01*
X68635Y127330D01*
X69094Y128248D02*
Y129167D01*
Y128707D01*
X66339D01*
X66798Y128248D01*
X66339Y130544D02*
Y132381D01*
X66798D01*
X68635Y130544D01*
X69094D01*
X77822Y210171D02*
X77363Y209712D01*
Y208793D01*
X77822Y208334D01*
X79659D01*
X80118Y208793D01*
Y209712D01*
X79659Y210171D01*
X80118Y212467D02*
X77363D01*
X78740Y211089D01*
Y212926D01*
X64895Y262270D02*
X65354Y262729D01*
Y263648D01*
X64895Y264107D01*
X63058D01*
X62599Y263648D01*
Y262729D01*
X63058Y262270D01*
X64895Y261352D02*
X65354Y260893D01*
Y259974D01*
X64895Y259515D01*
X64436D01*
X63976Y259974D01*
Y260434D01*
Y259974D01*
X63517Y259515D01*
X63058D01*
X62599Y259974D01*
Y260893D01*
X63058Y261352D01*
X64895Y252428D02*
X65354Y252887D01*
Y253805D01*
X64895Y254264D01*
X63058D01*
X62599Y253805D01*
Y252887D01*
X63058Y252428D01*
X62599Y249673D02*
Y251509D01*
X64436Y249673D01*
X64895D01*
X65354Y250132D01*
Y251050D01*
X64895Y251509D01*
X47178Y224410D02*
X47637Y224869D01*
Y225787D01*
X47178Y226246D01*
X45342D01*
X44882Y225787D01*
Y224869D01*
X45342Y224410D01*
X44882Y223491D02*
Y222573D01*
Y223032D01*
X47637D01*
X47178Y223491D01*
D16*
X23681Y156079D02*
D03*
D17*
X608638Y313130D02*
D03*
X457260Y322776D02*
D03*
X608835D02*
D03*
X573402Y322776D02*
D03*
X534031Y322776D02*
D03*
X496630Y322776D02*
D03*
X417890Y322776D02*
D03*
X143134Y253996D02*
D03*
Y261870D02*
D03*
D18*
X755847Y218331D02*
D03*
X755965Y254504D02*
D03*
D19*
X230116Y106039D02*
D03*
M02*
