M48
;Layer_Color=9474304
;FILE_FORMAT=2:4
INCH,TZ
;TYPE=PLATED
T4F00S00C0.0236
T13F00S00C0.0551
T16F00S00C0.0787
;TYPE=NON_PLATED
%
G90
G05
T04
G00X892Y19360
M15
G01X1207
M16
G00X2085Y19360
M15
G01X2675
M16
G00X2085Y22766
M15
G01X2675
M16
G00X892Y22766
M15
G01X1207
M16
T13
G00X71339Y18898
M15
G01X72362
M16
G00X64803Y18386
M15
G01Y19409
M16
G00X67598Y22205
M15
G01X68622
M16
G00X67598Y15591
M15
G01X68622
M16
G00X70197Y24646
M15
G01X69173
M16
G00X70197Y31260
M15
G01X69173
M16
G00X66457Y27953
M15
G01X65433
M16
G00X72992Y28465
M15
G01Y27441
M16
T16
G00X64248Y7283
M15
G01Y8858
M16
G00X64248Y11220
M15
G01Y12795
M16
G00X42126Y18382
M15
G01X40551
M16
G00X38189Y18382
M15
G01X36614
M16
M17
M30
