M48
;Layer_Color=9474304
;FILE_FORMAT=2:4
INCH,TZ
;TYPE=PLATED
T1F00S00C0.0079
T2F00S00C0.0140
T3F00S00C0.0157
T5F00S00C0.0280
T6F00S00C0.0315
T7F00S00C0.0335
T8F00S00C0.0350
T9F00S00C0.0394
T10F00S00C0.0402
T11F00S00C0.0433
T12F00S00C0.0512
T14F00S00C0.0618
T15F00S00C0.0630
T17F00S00C0.1575
;TYPE=NON_PLATED
T18F00S00C0.1280
%
T01
X3846Y16065
X4252
X4657
T02
X4961Y4193
X7579Y5973
Y6323
Y6673
X7599Y7023
X8386Y5604
X9350Y5630
X17520Y5591
X19488Y5512
X21063
X22874Y6299
X21319Y2756
X20512Y3327
X19744Y2756
X18858Y3110
X18169Y2756
X24232Y3760
X25334Y3248
X25556Y2977
X25453Y2480
X25787Y4252
X25098Y5197
X24803Y5512
X24902Y7087
X29350
X30433Y6614
X30177Y6201
X29685Y5689
X31201Y6201
X31496Y6004
X30709Y4035
X30429Y2773
X29154Y3150
X28937Y4134
X28366
X28524Y4744
X28189Y5020
X28209Y2480
X32697Y2717
X43228Y4409
X44409Y7047
X45374Y7480
X45866Y2756
X46457
X47047
X47638
X48228
X48819
X49409
X50000
X50394
X56280Y5650
X70453Y9744
X69114Y8839
X65945Y11201
X62402Y11909
X59252Y11260
X59350Y10827
X56201Y10787
X55512Y11220
X55709Y12008
X56004Y12303
X56594Y11516
X54409Y11476
X54429Y15846
X54528Y16634
X55118Y18012
X55413Y18799
X55906Y19094
X56437Y18268
X56201Y17421
X57303Y16929
X57264Y13858
X57795Y12736
X61319Y16339
X61811Y17008
X63386Y20374
X63209Y22835
X64685Y22244
X52717Y22618
X49409Y22441
X49016Y22638
X48701Y21713
X49606Y20768
X47293Y20688
X46732Y20689
X45768Y20688
X46358Y21929
X48425Y14468
X47443Y12896
Y11896
X44659Y10236
X43986Y9606
X43839Y8701
X43681Y12874
X43230Y12890
X41575Y11890
X41024Y13445
X39764
Y12894
Y12382
X38976Y12165
X39724Y14484
X39567Y15906
Y16339
X54370Y14547
X54154Y13169
X53642Y13287
X54016Y11732
X54035Y11220
X52539Y12028
X32638Y13051
X31299Y11811
X30512Y11024
X28839Y10728
X28051Y11516
X27264Y10138
X26142Y9488
X25354
X25000Y9763
X23996Y10039
X23642Y10709
X23622Y11122
X23484Y12480
X24016Y13386
X23445Y9508
X23504Y7952
X25512Y7717
X28839Y7697
X32087Y8760
Y10433
X31732Y16555
X31398Y17028
X30906Y16929
X30638Y17343
X30211Y17028
X29522Y17047
X30472Y16161
X29311Y15039
X32992Y16299
X33661Y17913
X33957Y18307
X34843Y18032
X35236Y17618
X35177Y17047
X33169Y18701
X33268Y20276
X32579Y20177
X35925Y21260
X36516Y20807
X36909Y21063
X27559Y22244
X26575Y22244
X24213Y21850
X24508Y21358
X25197Y19094
X25591Y19488
X27165
X27756Y19094
X24803Y17323
X22343Y16437
X22145Y18219
X22240Y19118
X21555Y18898
X18209Y19193
X17087Y18130
X16811Y17028
X17913Y16437
X18996Y16142
X19567Y15906
X18110Y15079
X17945Y13280
X18858Y13780
X18169Y10807
X17697Y10276
X19291Y10532
X20531Y10768
X20768Y11122
X20571Y11496
X20866Y11831
X22441Y11220
X22736Y10925
X22697Y9508
X22618Y8484
X20768Y9252
X20276
X19193Y8386
X14035Y8265
X12992Y8071
X12638Y7933
X12992Y8937
X12795Y9843
Y10197
X13071Y11417
X13583Y10945
X13287Y13091
Y13504
Y13898
X13189Y14468
X14075Y13780
X14764Y14370
X15846Y15453
X15551Y16358
X15571Y19508
X15630Y20000
X17244Y20689
X17224Y22539
X17559
X19291Y21165
X21260Y22933
X10984Y22362
X7835Y22835
X12205Y19016
X10236Y14075
Y13681
Y13268
X10627Y9843
X10827Y9449
X10551Y8346
X10827Y7874
X9547Y7677
X8898Y8740
X7913Y10709
X7520Y11142
X15453Y11614
X7480Y9606
Y8661
Y7953
X5630Y9173
X4331Y9724
X3957Y10354
X3465Y9409
X3976Y8327
X3839Y7874
X5807Y14252
X4921Y22677
X6693Y26457
X8583Y24764
X8622Y23445
X9385Y23282
X10748Y23583
X11063Y26496
X14213Y24173
X14409Y23583
X14567Y23150
X15079Y24331
X15118Y24764
X17224Y24311
Y23917
X18386Y23583
X19488Y24213
X22264Y23524
X25453Y23386
X33563Y26772
X34350Y26870
Y26476
X35925Y26516
X36319Y26870
X36811Y26673
X37205Y27264
X37874Y25000
X40748Y24114
X41142Y23720
X42323Y24213
X42717Y24508
X44331Y25787
X46437Y25610
X47052Y24483
Y23983
Y23483
X48701Y24232
X49114Y23130
X50118Y23622
X51673
X52264Y24311
X53130Y24961
X53937Y24213
X52461Y27756
X52618Y29744
X49409Y29626
X50000Y30610
X49803Y27874
X49547Y26476
X49094Y26870
X48642Y26850
X48819Y26280
X47052Y28601
Y29101
X47047Y29606
X46260Y30020
X45372Y30116
X45364Y29596
X45059Y29232
X45177Y27756
X43150Y29331
X44252Y31220
X44724Y32283
X44705Y32736
X40906Y30925
X40354Y30807
X39961
X39567
X39272Y30512
X39488Y28189
X45177Y24016
X50866Y32815
X55000Y31693
X55553Y29596
Y29096
X56730
X57047Y29449
X57480Y31496
X58563Y31358
X55925Y27106
X55610Y26870
X56142Y26378
X55256Y25886
X54764Y26122
X54823Y25591
X63209Y23287
X64744Y23268
X68799Y30335
T03
X2234Y19892
Y20226
Y20561
Y20896
Y21230
Y21565
Y21900
Y22234
X2766
Y21900
Y21565
Y21230
Y20896
Y20561
Y20226
Y19892
T05
X14744Y18996
T06
X72673Y9287
Y10039
Y10791
X38618Y26807
X39370
X40122
T07
X23012Y8189
Y11732
T08
X7043Y7207
Y8207
Y9207
Y10207
X6043Y10707
Y9707
Y8707
Y7707
T09
X26315Y19744
Y20744
Y21744
Y22744
X34315
Y21744
Y20744
Y19744
Y23744
Y24744
X26315
Y23744
T10
X1945Y6348
Y7348
Y10565
Y11565
T11
X15551Y12583
Y13583
Y14583
T12
X27028Y7402
X24665Y8189
X29390
Y12992
X24665
T14
X4744Y5907
Y12006
T15
X34764Y5138
X36102
X39882
X41220
X46575
X47913
Y9035
X46575
X41220
X39882
X44606Y14484
X45945
Y18382
X44606
X36102Y9035
X34764
T17
X2953Y3681
Y24902
T18
X3543Y6707
Y11207
M30
