G04*
G04 #@! TF.GenerationSoftware,Altium Limited,Altium Designer,21.3.2 (30)*
G04*
G04 Layer_Color=16711935*
%FSLAX25Y25*%
%MOIN*%
G70*
G04*
G04 #@! TF.SameCoordinates,0DDE3A69-4C04-4BA1-936D-2228934CDC7C*
G04*
G04*
G04 #@! TF.FilePolarity,Positive*
G04*
G01*
G75*
%ADD11C,0.00394*%
%ADD13C,0.00787*%
D11*
X567244Y148228D02*
G03*
X567244Y148228I-19685J0D01*
G01*
X512205Y134252D02*
G03*
X512205Y134252I-19685J0D01*
G01*
X481004Y251772D02*
Y260039D01*
X475689Y251772D02*
Y260039D01*
Y251772D02*
X481004D01*
X475689Y260039D02*
X481004D01*
X490846Y251772D02*
Y260039D01*
X485532Y251772D02*
Y260039D01*
Y251772D02*
X490846D01*
X485532Y260039D02*
X490846D01*
X500689Y251772D02*
Y260039D01*
X495374Y251772D02*
Y260039D01*
Y251772D02*
X500689D01*
X495374Y260039D02*
X500689D01*
X508858Y241240D02*
X517520D01*
X508858Y246949D02*
X517520D01*
Y241240D02*
Y246949D01*
X508858Y241240D02*
Y246949D01*
X422835Y227658D02*
X431496D01*
X422835Y221949D02*
X431496D01*
X422835D02*
Y227658D01*
X431496Y221949D02*
Y227658D01*
X479035Y314764D02*
Y323031D01*
X473721Y314764D02*
Y323031D01*
Y314764D02*
X479035D01*
X473721Y323031D02*
X479035D01*
X488878Y314764D02*
Y323031D01*
X483563Y314764D02*
Y323031D01*
Y314764D02*
X488878D01*
X483563Y323031D02*
X488878D01*
X498721Y314764D02*
Y323031D01*
X493405Y314764D02*
Y323031D01*
Y314764D02*
X498721D01*
X493405Y323031D02*
X498721D01*
X422835Y278839D02*
X431496D01*
X422835Y273130D02*
X431496D01*
X422835D02*
Y278839D01*
X431496Y273130D02*
Y278839D01*
X571555Y278681D02*
Y286949D01*
X566240Y278681D02*
Y286949D01*
X571555D01*
X566240Y278681D02*
X571555D01*
X579429D02*
Y286949D01*
X574114Y278681D02*
Y286949D01*
X579429D01*
X574114Y278681D02*
X579429D01*
X561713D02*
Y286949D01*
X556398Y278681D02*
Y286949D01*
X561713D01*
X556398Y278681D02*
X561713D01*
X489764Y288819D02*
X498425D01*
X489764Y283110D02*
X498425D01*
X489764D02*
Y288819D01*
X498425Y283110D02*
Y288819D01*
X422835Y237500D02*
X431496D01*
X422835Y231791D02*
X431496D01*
X422835D02*
Y237500D01*
X431496Y231791D02*
Y237500D01*
X422835Y288819D02*
X431496D01*
X422835Y283110D02*
X431496D01*
X422835D02*
Y288819D01*
X431496Y283110D02*
Y288819D01*
X162697Y140157D02*
Y148425D01*
X168012Y140157D02*
Y148425D01*
X162697D02*
X168012D01*
X162697Y140157D02*
X168012D01*
X206673Y160728D02*
X214941D01*
X206673Y166043D02*
X214941D01*
Y160728D02*
Y166043D01*
X206673Y160728D02*
Y166043D01*
X204035Y125118D02*
Y133386D01*
X209350Y125118D02*
Y133386D01*
X204035D02*
X209350D01*
X204035Y125118D02*
X209350D01*
X477461Y119665D02*
X483169D01*
X477461Y110965D02*
X483169D01*
X477461D02*
Y119665D01*
X483169Y110965D02*
Y119665D01*
X209350Y147244D02*
Y155512D01*
X204035Y147244D02*
Y155512D01*
Y147244D02*
X209350D01*
X204035Y155512D02*
X209350D01*
X518701Y113189D02*
X567913D01*
X518701Y162402D02*
X567913D01*
Y113189D02*
Y162402D01*
X518701Y113189D02*
Y162402D01*
X573917Y165945D02*
X615846D01*
X573917Y127953D02*
X615846D01*
Y165945D01*
X573917Y127953D02*
Y165945D01*
X436811Y60335D02*
X445079D01*
X436811Y65650D02*
X445079D01*
Y60335D02*
Y65650D01*
X436811Y60335D02*
Y65650D01*
X448917Y63189D02*
X454232D01*
X448917Y54921D02*
X454232D01*
Y63189D01*
X448917Y54921D02*
Y63189D01*
X506457Y131476D02*
X512165D01*
X506457Y140177D02*
X512165D01*
Y131476D02*
Y140177D01*
X506457Y131476D02*
Y140177D01*
X593209Y113583D02*
X635138D01*
X593209Y151575D02*
X635138D01*
Y113583D02*
Y151575D01*
X593209Y113583D02*
Y151575D01*
X526575Y125984D02*
X575787D01*
X526575Y76772D02*
X575787D01*
Y125984D01*
X526575Y76772D02*
Y125984D01*
X593209Y204331D02*
X635138D01*
X593209Y242323D02*
X635138D01*
Y204331D02*
Y242323D01*
X593209Y204331D02*
Y242323D01*
X530905Y211850D02*
X571457D01*
X530905Y171299D02*
X571457D01*
Y211850D01*
X530905Y171299D02*
Y211850D01*
X506398Y222028D02*
X512106D01*
X506398Y230728D02*
X512106D01*
Y222028D02*
Y230728D01*
X506398Y222028D02*
Y230728D01*
Y301752D02*
X512106D01*
X506398Y310453D02*
X512106D01*
Y301752D02*
Y310453D01*
X506398Y301752D02*
Y310453D01*
X530905Y252559D02*
X571457D01*
X530905Y293110D02*
X571457D01*
X530905Y252559D02*
Y293110D01*
X571457Y252559D02*
Y293110D01*
X593209Y284646D02*
X635138D01*
X593209Y322638D02*
X635138D01*
Y284646D02*
Y322638D01*
X593209Y284646D02*
Y322638D01*
X20276Y151181D02*
X26969D01*
X20276Y163779D02*
X26969D01*
X20276Y151181D02*
Y163779D01*
X26969Y151181D02*
Y163779D01*
X20768Y181496D02*
X26476D01*
X20768Y172835D02*
X26476D01*
Y181496D01*
X20768Y172835D02*
Y181496D01*
X724114Y115945D02*
X729429D01*
X724114Y124213D02*
X729429D01*
X724114Y115945D02*
Y124213D01*
X729429Y115945D02*
Y124213D01*
X625591Y315846D02*
X633858D01*
X625591Y310531D02*
X633858D01*
X625591D02*
Y315846D01*
X633858Y310531D02*
Y315846D01*
X603740Y309842D02*
X616339D01*
X603740Y316535D02*
X616339D01*
Y309842D02*
Y316535D01*
X603740Y309842D02*
Y316535D01*
X150512Y120827D02*
X160512D01*
X150512Y150827D02*
X160512D01*
X150512Y120827D02*
Y150827D01*
X160512Y120827D02*
Y150827D01*
X422146Y296850D02*
Y305512D01*
X416437Y296850D02*
Y305512D01*
X422146D01*
X416437Y296850D02*
X422146D01*
X433957Y300571D02*
Y309232D01*
X428248Y300571D02*
Y309232D01*
X433957D01*
X428248Y300571D02*
X433957D01*
X84449Y178445D02*
X92716D01*
X84449Y183760D02*
X92716D01*
X84449Y178445D02*
Y183760D01*
X92716Y178445D02*
Y183760D01*
X84449Y170571D02*
X92716D01*
X84449Y175886D02*
X92716D01*
X84449Y170571D02*
Y175886D01*
X92716Y170571D02*
Y175886D01*
X84449Y162697D02*
X92716D01*
X84449Y168012D02*
X92716D01*
X84449Y162697D02*
Y168012D01*
X92716Y162697D02*
Y168012D01*
X114370Y186221D02*
X138779D01*
X114370Y160236D02*
X138779D01*
Y186221D01*
X114370Y160236D02*
Y186221D01*
X452362Y319488D02*
X464961D01*
X452362Y326181D02*
X464961D01*
Y319488D02*
Y326181D01*
X452362Y319488D02*
Y326181D01*
X474016Y319980D02*
X482677D01*
X474016Y325689D02*
X482677D01*
Y319980D02*
Y325689D01*
X474016Y319980D02*
Y325689D01*
X752559Y210630D02*
Y223228D01*
X759252Y210630D02*
Y223228D01*
X752559Y210630D02*
X759252D01*
X752559Y223228D02*
X759252D01*
X753248Y191142D02*
Y199409D01*
X758563Y191142D02*
Y199409D01*
X753248Y191142D02*
X758563D01*
X753248Y199409D02*
X758563D01*
X759252Y249606D02*
Y262205D01*
X752559Y249606D02*
Y262205D01*
X759252D01*
X752559Y249606D02*
X759252D01*
X758563Y273425D02*
Y281693D01*
X753248Y273425D02*
Y281693D01*
X758563D01*
X753248Y273425D02*
X758563D01*
X625787Y320177D02*
X634055D01*
X625787Y325492D02*
X634055D01*
Y320177D02*
Y325492D01*
X625787Y320177D02*
Y325492D01*
X603937Y319488D02*
X616535D01*
X603937Y326181D02*
X616535D01*
Y319488D02*
Y326181D01*
X603937Y319488D02*
Y326181D01*
X590354Y320177D02*
X598622D01*
X590354Y325492D02*
X598622D01*
Y320177D02*
Y325492D01*
X590354Y320177D02*
Y325492D01*
X568504Y319488D02*
X581102D01*
X568504Y326181D02*
X581102D01*
Y319488D02*
Y326181D01*
X568504Y319488D02*
Y326181D01*
X550787Y319980D02*
X559449D01*
X550787Y325689D02*
X559449D01*
Y319980D02*
Y325689D01*
X550787Y319980D02*
Y325689D01*
X529134Y319488D02*
X541732D01*
X529134Y326181D02*
X541732D01*
Y319488D02*
Y326181D01*
X529134Y319488D02*
Y326181D01*
X513386Y319980D02*
X522047D01*
X513386Y325689D02*
X522047D01*
Y319980D02*
Y325689D01*
X513386Y319980D02*
Y325689D01*
X491732Y319488D02*
X504331D01*
X491732Y326181D02*
X504331D01*
Y319488D02*
Y326181D01*
X491732Y319488D02*
Y326181D01*
X220866Y75492D02*
X229134D01*
X220866Y70177D02*
X229134D01*
X220866D02*
Y75492D01*
X229134Y70177D02*
Y75492D01*
X218799Y89764D02*
X224114D01*
X218799Y81496D02*
X224114D01*
Y89764D01*
X218799Y81496D02*
Y89764D01*
X270866Y44587D02*
X279134D01*
X270866Y49902D02*
X279134D01*
Y44587D02*
Y49902D01*
X270866Y44587D02*
Y49902D01*
X278346Y52461D02*
Y57776D01*
X270079Y52461D02*
Y57776D01*
Y52461D02*
X278346D01*
X270079Y57776D02*
X278346D01*
X383524Y277362D02*
X388839D01*
X383524Y285630D02*
X388839D01*
X383524Y277362D02*
Y285630D01*
X388839Y277362D02*
Y285630D01*
X226476Y91240D02*
Y107972D01*
Y91240D02*
X233760D01*
X226476Y107972D02*
X233760D01*
Y91240D02*
Y107972D01*
X412992Y319488D02*
X425591D01*
X412992Y326181D02*
X425591D01*
Y319488D02*
Y326181D01*
X412992Y319488D02*
Y326181D01*
X443110Y320177D02*
Y325492D01*
X434842Y320177D02*
Y325492D01*
Y320177D02*
X443110D01*
X434842Y325492D02*
X443110D01*
X431299Y94193D02*
Y99508D01*
X423032Y94193D02*
Y99508D01*
Y94193D02*
X431299D01*
X423032Y99508D02*
X431299D01*
X433760Y81496D02*
Y89764D01*
X428445Y81496D02*
Y89764D01*
X433760D01*
X428445Y81496D02*
X433760D01*
X432185Y119508D02*
X437894D01*
X432185Y110807D02*
X437894D01*
Y119508D01*
X432185Y110807D02*
Y119508D01*
X440252Y140591D02*
Y160591D01*
X400252D02*
X440252D01*
X400252Y140591D02*
Y160591D01*
Y140591D02*
X440252D01*
X604134Y300492D02*
Y305807D01*
X612402Y300492D02*
Y305807D01*
X604134D02*
X612402D01*
X604134Y300492D02*
X612402D01*
X617421Y295079D02*
Y303346D01*
X622736Y295079D02*
Y303346D01*
X617421Y295079D02*
X622736D01*
X617421Y303346D02*
X622736D01*
X127559Y159843D02*
X144095D01*
X149213Y164961D01*
Y186614D01*
X122441D02*
X149213D01*
X122441Y164961D02*
Y186614D01*
Y164961D02*
X127559Y159843D01*
X485689Y39370D02*
Y102362D01*
X459193Y39370D02*
Y102362D01*
Y39370D02*
X485689D01*
X459193Y102362D02*
X485689D01*
X392264Y39370D02*
Y102362D01*
X418760Y39370D02*
Y102362D01*
X392264D02*
X418760D01*
X392264Y39370D02*
X418760D01*
X466004Y132837D02*
Y195829D01*
X439508Y132837D02*
Y195829D01*
Y132837D02*
X466004D01*
X439508Y195829D02*
X466004D01*
X367579Y39370D02*
Y102362D01*
X341083Y39370D02*
Y102362D01*
Y39370D02*
X367579D01*
X341083Y102362D02*
X367579D01*
X77953Y57815D02*
Y121319D01*
X-7047Y57815D02*
X77953D01*
X-7047D02*
Y121319D01*
X77953D01*
X68504Y190551D02*
X85039D01*
X63386Y185433D02*
X68504Y190551D01*
X63386Y163779D02*
Y185433D01*
Y163779D02*
X90158D01*
Y185433D01*
X85039Y190551D02*
X90158Y185433D01*
X93110Y167913D02*
Y182480D01*
X119488Y167913D02*
Y182480D01*
X93110Y167913D02*
X119488D01*
X93110Y182480D02*
X119488D01*
X19783Y85138D02*
Y92028D01*
X23524Y85138D02*
Y92028D01*
X19783D02*
X23524D01*
X19783Y85138D02*
X23524D01*
X101673Y113976D02*
Y122244D01*
X106988Y113976D02*
Y122244D01*
X101673Y113976D02*
X106988D01*
X101673Y122244D02*
X106988D01*
X174528Y103445D02*
Y109153D01*
X165827Y103445D02*
Y109153D01*
Y103445D02*
X174528D01*
X165827Y109153D02*
X174528D01*
Y69980D02*
Y75689D01*
X165827Y69980D02*
Y75689D01*
Y69980D02*
X174528D01*
X165827Y75689D02*
X174528D01*
X99980Y58169D02*
Y63878D01*
X108681Y58169D02*
Y63878D01*
X99980D02*
X108681D01*
X99980Y58169D02*
X108681D01*
X122146Y56693D02*
X127854D01*
X122146Y65354D02*
X127854D01*
X122146Y56693D02*
Y65354D01*
X127854Y56693D02*
Y65354D01*
X138484Y113976D02*
Y122244D01*
X133169Y113976D02*
Y122244D01*
X138484D01*
X133169Y113976D02*
X138484D01*
X128642D02*
Y122244D01*
X123327Y113976D02*
Y122244D01*
X128642D01*
X123327Y113976D02*
X128642D01*
X118799D02*
Y122244D01*
X113484Y113976D02*
Y122244D01*
X118799D01*
X113484Y113976D02*
X118799D01*
X159350Y85236D02*
Y93898D01*
X153642Y85236D02*
Y93898D01*
X159350D01*
X153642Y85236D02*
X159350D01*
X161024Y79724D02*
X173622D01*
X161024Y99410D02*
X173622D01*
Y79724D02*
Y99410D01*
X161024Y79724D02*
Y99410D01*
X140847Y68484D02*
X146555D01*
X140847Y77185D02*
X146555D01*
X140847Y68484D02*
Y77185D01*
X146555Y68484D02*
Y77185D01*
X122461Y85728D02*
Y91437D01*
X113760Y85728D02*
Y91437D01*
X122461D01*
X113760Y85728D02*
X122461D01*
X122244Y95768D02*
Y101083D01*
X113976Y95768D02*
Y101083D01*
X122244D01*
X113976Y95768D02*
X122244D01*
X84252Y105413D02*
X92913D01*
X84252Y111122D02*
X92913D01*
Y105413D02*
Y111122D01*
X84252Y105413D02*
Y111122D01*
Y113287D02*
X92913D01*
X84252Y118996D02*
X92913D01*
Y113287D02*
Y118996D01*
X84252Y113287D02*
Y118996D01*
X83366Y63878D02*
X92028D01*
X83366Y58169D02*
X92028D01*
X83366D02*
Y63878D01*
X92028Y58169D02*
Y63878D01*
X83366Y71752D02*
X92027D01*
X83366Y66043D02*
X92027D01*
X83366D02*
Y71752D01*
X92027Y66043D02*
Y71752D01*
X67323Y60138D02*
Y65847D01*
X58661Y60138D02*
Y65847D01*
X67323D01*
X58661Y60138D02*
X67323D01*
X78327Y79213D02*
Y84921D01*
X87028Y79213D02*
Y84921D01*
X78327Y79213D02*
X87028D01*
X78327Y84921D02*
X87028D01*
X78327Y89213D02*
Y94921D01*
X87028Y89213D02*
Y94921D01*
X78327Y89213D02*
X87028D01*
X78327Y94921D02*
X87028D01*
X84252Y79823D02*
X92913D01*
X84252Y85532D02*
X92913D01*
Y79823D02*
Y85532D01*
X84252Y79823D02*
Y85532D01*
Y89665D02*
X92913D01*
X84252Y95374D02*
X92913D01*
Y89665D02*
Y95374D01*
X84252Y89665D02*
Y95374D01*
X42323Y88189D02*
X56102D01*
X42323Y69291D02*
X56102D01*
X42323D02*
Y88189D01*
X56102Y69291D02*
Y88189D01*
X27362Y103051D02*
X35630D01*
X27362Y97736D02*
X35630D01*
Y103051D01*
X27362Y97736D02*
Y103051D01*
Y81398D02*
X35630D01*
X27362Y76083D02*
X35630D01*
Y81398D01*
X27362Y76083D02*
Y81398D01*
X46358Y96457D02*
Y105118D01*
X52067Y96457D02*
Y105118D01*
X46358D02*
X52067D01*
X46358Y96457D02*
X52067D01*
X59941Y118996D02*
X68602D01*
X59941Y113287D02*
X68602D01*
Y118996D01*
X59941Y113287D02*
Y118996D01*
X122933Y202362D02*
Y211024D01*
X117224Y202362D02*
Y211024D01*
Y202362D02*
X122933D01*
X117224Y211024D02*
X122933D01*
X142618Y202362D02*
Y211024D01*
X136909Y202362D02*
Y211024D01*
Y202362D02*
X142618D01*
X136909Y211024D02*
X142618D01*
X241929Y247342D02*
X250197D01*
X241929Y252658D02*
X250197D01*
Y247342D02*
Y252658D01*
X241929Y247342D02*
Y252658D01*
Y255217D02*
X250197D01*
X241929Y260531D02*
X250197D01*
Y255217D02*
Y260531D01*
X241929Y255217D02*
Y260531D01*
X118504Y264665D02*
X127165D01*
X118504Y258957D02*
X127165D01*
X118504D02*
Y264665D01*
X127165Y258957D02*
Y264665D01*
X118504Y256791D02*
X127165D01*
X118504Y251083D02*
X127165D01*
X118504D02*
Y256791D01*
X127165Y251083D02*
Y256791D01*
X135433Y257283D02*
X148031D01*
X135433Y250590D02*
X148031D01*
X135433D02*
Y257283D01*
X148031Y250590D02*
Y257283D01*
X135433Y265158D02*
X148031D01*
X135433Y258465D02*
X148031D01*
X135433D02*
Y265158D01*
X148031Y258465D02*
Y265158D01*
X129134Y225197D02*
Y231496D01*
X132283Y225197D02*
Y231496D01*
X129134D02*
X132283D01*
X129134Y225197D02*
X132283D01*
X129134Y235433D02*
Y241732D01*
X132283Y235433D02*
Y241732D01*
X129134D02*
X132283D01*
X129134Y235433D02*
X132283D01*
X111024Y233169D02*
X119685D01*
X111024Y227461D02*
X119685D01*
X111024D02*
Y233169D01*
X119685Y227461D02*
Y233169D01*
X111024Y243406D02*
X119685D01*
X111024Y237697D02*
X119685D01*
X111024D02*
Y243406D01*
X119685Y237697D02*
Y243406D01*
X109153Y251575D02*
Y260236D01*
X103445Y251575D02*
Y260236D01*
X109153D01*
X103445Y251575D02*
X109153D01*
X99311D02*
Y260236D01*
X93602Y251575D02*
Y260236D01*
X99311D01*
X93602Y251575D02*
X99311D01*
X80020Y251772D02*
X85335D01*
X80020Y260039D02*
X85335D01*
X80020Y251772D02*
Y260039D01*
X85335Y251772D02*
Y260039D01*
X68209Y251772D02*
X73524D01*
X68209Y260039D02*
X73524D01*
X68209Y251772D02*
Y260039D01*
X73524Y251772D02*
Y260039D01*
X13976Y199311D02*
Y206004D01*
X17520Y199311D02*
Y206004D01*
X13976D02*
X17520D01*
X13976Y199311D02*
X17520D01*
X17520Y215256D02*
Y221949D01*
X13976Y215256D02*
Y221949D01*
Y215256D02*
X17520D01*
X13976Y221949D02*
X17520D01*
X-61680Y4921D02*
X-60039Y0D01*
X-58399Y4921D01*
X-60039Y271260D02*
X-58399Y266339D01*
X-61680D02*
X-60039Y271260D01*
Y0D02*
Y122248D01*
Y146256D02*
Y271260D01*
X-62008Y0D02*
X0D01*
X-62008Y271260D02*
X-984D01*
X0Y295276D02*
X4921Y296916D01*
X0Y295276D02*
X4921Y293635D01*
X655118D02*
X660039Y295276D01*
X655118Y296916D02*
X660039Y295276D01*
X0D02*
X314669D01*
X342614D02*
X660039D01*
X0Y272244D02*
Y297244D01*
X660039Y271260D02*
Y297244D01*
X-62007Y126774D02*
X-61220Y125200D01*
X-59646Y123626D01*
X-58071D01*
X-57284Y124413D01*
Y125987D01*
X-58071Y126774D01*
X-58859D01*
X-59646Y125987D01*
Y123626D01*
X-61220Y128348D02*
X-62007Y129136D01*
Y130710D01*
X-61220Y131497D01*
X-60433D01*
X-59646Y130710D01*
X-58859Y131497D01*
X-58071D01*
X-57284Y130710D01*
Y129136D01*
X-58071Y128348D01*
X-58859D01*
X-59646Y129136D01*
X-60433Y128348D01*
X-61220D01*
X-59646Y129136D02*
Y130710D01*
X-57284Y133071D02*
X-58071D01*
Y133858D01*
X-57284D01*
Y133071D01*
X-58071Y137007D02*
X-57284Y137794D01*
Y139368D01*
X-58071Y140156D01*
X-61220D01*
X-62007Y139368D01*
Y137794D01*
X-61220Y137007D01*
X-60433D01*
X-59646Y137794D01*
Y140156D01*
X-61220Y141730D02*
X-62007Y142517D01*
Y144091D01*
X-61220Y144878D01*
X-58071D01*
X-57284Y144091D01*
Y142517D01*
X-58071Y141730D01*
X-61220D01*
X316047Y292520D02*
X317622D01*
X316834D01*
Y297243D01*
X316047Y296456D01*
X323132Y297243D02*
X321557Y296456D01*
X319983Y294882D01*
Y293308D01*
X320770Y292520D01*
X322345D01*
X323132Y293308D01*
Y294095D01*
X322345Y294882D01*
X319983D01*
X324706Y297243D02*
X327855D01*
Y296456D01*
X324706Y293308D01*
Y292520D01*
X329429D02*
Y293308D01*
X330216D01*
Y292520D01*
X329429D01*
X336513Y297243D02*
X334939Y296456D01*
X333365Y294882D01*
Y293308D01*
X334152Y292520D01*
X335726D01*
X336513Y293308D01*
Y294095D01*
X335726Y294882D01*
X333365D01*
X341236Y297243D02*
X338088D01*
Y294882D01*
X339662Y295669D01*
X340449D01*
X341236Y294882D01*
Y293308D01*
X340449Y292520D01*
X338875D01*
X338088Y293308D01*
D13*
X663189Y80512D02*
Y120276D01*
X714764D01*
Y80512D02*
Y120276D01*
X663189Y80512D02*
X714764D01*
X413583Y204528D02*
Y256102D01*
X373819D02*
X413583D01*
X373819Y204528D02*
Y256102D01*
Y204528D02*
X413583D01*
M02*
