G04 #@! TF.GenerationSoftware,KiCad,Pcbnew,(5.0.2)-1*
G04 #@! TF.CreationDate,2020-05-10T23:04:12+05:30*
G04 #@! TF.ProjectId,L298 Module,4c323938-204d-46f6-9475-6c652e6b6963,V1.0*
G04 #@! TF.SameCoordinates,Original*
G04 #@! TF.FileFunction,Copper,L2,Bot*
G04 #@! TF.FilePolarity,Positive*
%FSLAX46Y46*%
G04 Gerber Fmt 4.6, Leading zero omitted, Abs format (unit mm)*
G04 Created by KiCad (PCBNEW (5.0.2)-1) date 05/10/20 23:04:12*
%MOMM*%
%LPD*%
G01*
G04 APERTURE LIST*
G04 #@! TA.AperFunction,EtchedComponent*
%ADD10C,0.010000*%
G04 #@! TD*
G04 #@! TA.AperFunction,ComponentPad*
%ADD11O,2.000000X1.905000*%
G04 #@! TD*
G04 #@! TA.AperFunction,ComponentPad*
%ADD12R,2.000000X1.905000*%
G04 #@! TD*
G04 #@! TA.AperFunction,ComponentPad*
%ADD13R,1.600000X1.600000*%
G04 #@! TD*
G04 #@! TA.AperFunction,ComponentPad*
%ADD14C,1.600000*%
G04 #@! TD*
G04 #@! TA.AperFunction,ComponentPad*
%ADD15R,1.800000X1.800000*%
G04 #@! TD*
G04 #@! TA.AperFunction,ComponentPad*
%ADD16C,1.800000*%
G04 #@! TD*
G04 #@! TA.AperFunction,ComponentPad*
%ADD17O,1.800000X1.800000*%
G04 #@! TD*
G04 #@! TA.AperFunction,ComponentPad*
%ADD18R,2.600000X2.600000*%
G04 #@! TD*
G04 #@! TA.AperFunction,ComponentPad*
%ADD19C,2.600000*%
G04 #@! TD*
G04 #@! TA.AperFunction,ComponentPad*
%ADD20R,1.700000X1.700000*%
G04 #@! TD*
G04 #@! TA.AperFunction,ComponentPad*
%ADD21O,1.700000X1.700000*%
G04 #@! TD*
G04 #@! TA.AperFunction,ComponentPad*
%ADD22O,1.600000X1.600000*%
G04 #@! TD*
G04 #@! TA.AperFunction,Conductor*
%ADD23C,0.600000*%
G04 #@! TD*
G04 #@! TA.AperFunction,Conductor*
%ADD24C,0.250000*%
G04 #@! TD*
G04 #@! TA.AperFunction,Conductor*
%ADD25C,0.254000*%
G04 #@! TD*
G04 APERTURE END LIST*
D10*
G04 #@! TO.C,*
G36*
X133453910Y-85942652D02*
X133532454Y-85942222D01*
X133589298Y-85941058D01*
X133628105Y-85938793D01*
X133652538Y-85935060D01*
X133666262Y-85929494D01*
X133672940Y-85921727D01*
X133676236Y-85911395D01*
X133676556Y-85910057D01*
X133681562Y-85885921D01*
X133690829Y-85838299D01*
X133703392Y-85772259D01*
X133718287Y-85692872D01*
X133734551Y-85605204D01*
X133735119Y-85602125D01*
X133751410Y-85516211D01*
X133766652Y-85440304D01*
X133779861Y-85378955D01*
X133790054Y-85336718D01*
X133796248Y-85318145D01*
X133796543Y-85317816D01*
X133814788Y-85308747D01*
X133852405Y-85293633D01*
X133901271Y-85275738D01*
X133901543Y-85275642D01*
X133963093Y-85252507D01*
X134035657Y-85223035D01*
X134104057Y-85193403D01*
X134107294Y-85191938D01*
X134218702Y-85141374D01*
X134465399Y-85309840D01*
X134541077Y-85361197D01*
X134609631Y-85407111D01*
X134667088Y-85444970D01*
X134709476Y-85472163D01*
X134732825Y-85486079D01*
X134735042Y-85487111D01*
X134752010Y-85482516D01*
X134783701Y-85460345D01*
X134831352Y-85419553D01*
X134896198Y-85359095D01*
X134962397Y-85294773D01*
X135026214Y-85231388D01*
X135083329Y-85173549D01*
X135130305Y-85124825D01*
X135163703Y-85088790D01*
X135180085Y-85069016D01*
X135180694Y-85067998D01*
X135182505Y-85054428D01*
X135175683Y-85032267D01*
X135158540Y-84998522D01*
X135129393Y-84950200D01*
X135086555Y-84884308D01*
X135029448Y-84799483D01*
X134978766Y-84724823D01*
X134933461Y-84657860D01*
X134896150Y-84602484D01*
X134869452Y-84562580D01*
X134855985Y-84542038D01*
X134855137Y-84540644D01*
X134856781Y-84520962D01*
X134869245Y-84482707D01*
X134890048Y-84433111D01*
X134897462Y-84417272D01*
X134929814Y-84346710D01*
X134964328Y-84266647D01*
X134992365Y-84197371D01*
X135012568Y-84145955D01*
X135028615Y-84106881D01*
X135037888Y-84086459D01*
X135039041Y-84084886D01*
X135056096Y-84082279D01*
X135096298Y-84075137D01*
X135154302Y-84064477D01*
X135224763Y-84051315D01*
X135302335Y-84036667D01*
X135381672Y-84021551D01*
X135457431Y-84006982D01*
X135524264Y-83993978D01*
X135576828Y-83983555D01*
X135609776Y-83976730D01*
X135617857Y-83974801D01*
X135626205Y-83970038D01*
X135632506Y-83959282D01*
X135637045Y-83938902D01*
X135640104Y-83905266D01*
X135641967Y-83854745D01*
X135642918Y-83783708D01*
X135643240Y-83688524D01*
X135643257Y-83649508D01*
X135643257Y-83332201D01*
X135567057Y-83317161D01*
X135524663Y-83309005D01*
X135461400Y-83297101D01*
X135384962Y-83282884D01*
X135303043Y-83267790D01*
X135280400Y-83263645D01*
X135204806Y-83248947D01*
X135138953Y-83234495D01*
X135088366Y-83221625D01*
X135058574Y-83211678D01*
X135053612Y-83208713D01*
X135041426Y-83187717D01*
X135023953Y-83147033D01*
X135004577Y-83094678D01*
X135000734Y-83083400D01*
X134975339Y-83013477D01*
X134943817Y-82934582D01*
X134912969Y-82863734D01*
X134912817Y-82863405D01*
X134861447Y-82752267D01*
X135030399Y-82503747D01*
X135199352Y-82255228D01*
X134982429Y-82037942D01*
X134916819Y-81973274D01*
X134856979Y-81916267D01*
X134806267Y-81869967D01*
X134768046Y-81837416D01*
X134745675Y-81821657D01*
X134742466Y-81820657D01*
X134723626Y-81828531D01*
X134685180Y-81850422D01*
X134631330Y-81883733D01*
X134566276Y-81925869D01*
X134495940Y-81973057D01*
X134424555Y-82021190D01*
X134360908Y-82063072D01*
X134309041Y-82096129D01*
X134272995Y-82117782D01*
X134256867Y-82125457D01*
X134237189Y-82118963D01*
X134199875Y-82101850D01*
X134152621Y-82077674D01*
X134147612Y-82074987D01*
X134083977Y-82043073D01*
X134040341Y-82027421D01*
X134013202Y-82027255D01*
X133999057Y-82041796D01*
X133998975Y-82042000D01*
X133991905Y-82059221D01*
X133975042Y-82100101D01*
X133949695Y-82161475D01*
X133917171Y-82240181D01*
X133878778Y-82333053D01*
X133835822Y-82436928D01*
X133794222Y-82537498D01*
X133748504Y-82648484D01*
X133706526Y-82751297D01*
X133669548Y-82842785D01*
X133638827Y-82919799D01*
X133615622Y-82979185D01*
X133601190Y-83017791D01*
X133596743Y-83032200D01*
X133607896Y-83048728D01*
X133637069Y-83075070D01*
X133675971Y-83104113D01*
X133786757Y-83195961D01*
X133873351Y-83301241D01*
X133934716Y-83417734D01*
X133969815Y-83543224D01*
X133977608Y-83675493D01*
X133971943Y-83736543D01*
X133941078Y-83863205D01*
X133887920Y-83975059D01*
X133815767Y-84070999D01*
X133727917Y-84149924D01*
X133627665Y-84210730D01*
X133518310Y-84252313D01*
X133403147Y-84273572D01*
X133285475Y-84273401D01*
X133168590Y-84250699D01*
X133055789Y-84204362D01*
X132950369Y-84133287D01*
X132906368Y-84093089D01*
X132821979Y-83989871D01*
X132763222Y-83877075D01*
X132729704Y-83757990D01*
X132721035Y-83635905D01*
X132736823Y-83514107D01*
X132776678Y-83395884D01*
X132840207Y-83284525D01*
X132927021Y-83183316D01*
X133024029Y-83104113D01*
X133064437Y-83073838D01*
X133092982Y-83047781D01*
X133103257Y-83032175D01*
X133097877Y-83015157D01*
X133082575Y-82974500D01*
X133058612Y-82913358D01*
X133027244Y-82834881D01*
X132989732Y-82742220D01*
X132947333Y-82638528D01*
X132905663Y-82537474D01*
X132859690Y-82426393D01*
X132817107Y-82323459D01*
X132779221Y-82231835D01*
X132747340Y-82154684D01*
X132722771Y-82095169D01*
X132706820Y-82056456D01*
X132700910Y-82042000D01*
X132686948Y-82027315D01*
X132659940Y-82027358D01*
X132616413Y-82042901D01*
X132552890Y-82074716D01*
X132552388Y-82074987D01*
X132504560Y-82099677D01*
X132465897Y-82117662D01*
X132444095Y-82125386D01*
X132443133Y-82125457D01*
X132426721Y-82117622D01*
X132390487Y-82095835D01*
X132338474Y-82062672D01*
X132274725Y-82020709D01*
X132204060Y-81973057D01*
X132132116Y-81924809D01*
X132067274Y-81882849D01*
X132013735Y-81849773D01*
X131975697Y-81828179D01*
X131957533Y-81820657D01*
X131940808Y-81830543D01*
X131907180Y-81858174D01*
X131860010Y-81900505D01*
X131802658Y-81954495D01*
X131738484Y-82017101D01*
X131717497Y-82038017D01*
X131500499Y-82255377D01*
X131665668Y-82497780D01*
X131715864Y-82572219D01*
X131759919Y-82639028D01*
X131795362Y-82694335D01*
X131819719Y-82734271D01*
X131830522Y-82754964D01*
X131830838Y-82756437D01*
X131825143Y-82775942D01*
X131809826Y-82815178D01*
X131787537Y-82867570D01*
X131771893Y-82902645D01*
X131742641Y-82969799D01*
X131715094Y-83037642D01*
X131693737Y-83094966D01*
X131687935Y-83112428D01*
X131671452Y-83159062D01*
X131655340Y-83195095D01*
X131646490Y-83208713D01*
X131626960Y-83217048D01*
X131584334Y-83228863D01*
X131524145Y-83242819D01*
X131451922Y-83257578D01*
X131419600Y-83263645D01*
X131337522Y-83278727D01*
X131258795Y-83293331D01*
X131191109Y-83306020D01*
X131142160Y-83315358D01*
X131132943Y-83317161D01*
X131056743Y-83332201D01*
X131056743Y-83649508D01*
X131056914Y-83753846D01*
X131057616Y-83832787D01*
X131059134Y-83889962D01*
X131061749Y-83929001D01*
X131065746Y-83953535D01*
X131071409Y-83967195D01*
X131079020Y-83973611D01*
X131082143Y-83974801D01*
X131100978Y-83979020D01*
X131142588Y-83987438D01*
X131201630Y-83999039D01*
X131272757Y-84012805D01*
X131350625Y-84027720D01*
X131429887Y-84042768D01*
X131505198Y-84056931D01*
X131571213Y-84069194D01*
X131622587Y-84078539D01*
X131653975Y-84083950D01*
X131660959Y-84084886D01*
X131667285Y-84097404D01*
X131681290Y-84130754D01*
X131700355Y-84178623D01*
X131707634Y-84197371D01*
X131736996Y-84269805D01*
X131771571Y-84349830D01*
X131802537Y-84417272D01*
X131825323Y-84468841D01*
X131840482Y-84511215D01*
X131845542Y-84537166D01*
X131844736Y-84540644D01*
X131834041Y-84557064D01*
X131809620Y-84593583D01*
X131774095Y-84646313D01*
X131730087Y-84711365D01*
X131680217Y-84784849D01*
X131670356Y-84799355D01*
X131612492Y-84885296D01*
X131569956Y-84950739D01*
X131541054Y-84998696D01*
X131524090Y-85032180D01*
X131517367Y-85054205D01*
X131519190Y-85067783D01*
X131519236Y-85067869D01*
X131533586Y-85085703D01*
X131565323Y-85120183D01*
X131611010Y-85167732D01*
X131667204Y-85224778D01*
X131730468Y-85287745D01*
X131737602Y-85294773D01*
X131817330Y-85371980D01*
X131878857Y-85428670D01*
X131923421Y-85465890D01*
X131952257Y-85484685D01*
X131964958Y-85487111D01*
X131983494Y-85476529D01*
X132021961Y-85452084D01*
X132076386Y-85416388D01*
X132142798Y-85372053D01*
X132217225Y-85321689D01*
X132234601Y-85309840D01*
X132481297Y-85141374D01*
X132592706Y-85191938D01*
X132660457Y-85221405D01*
X132733183Y-85251041D01*
X132795703Y-85274670D01*
X132798457Y-85275642D01*
X132847360Y-85293543D01*
X132885057Y-85308680D01*
X132903425Y-85317790D01*
X132903456Y-85317816D01*
X132909285Y-85334283D01*
X132919192Y-85374781D01*
X132932195Y-85434758D01*
X132947309Y-85509660D01*
X132963552Y-85594936D01*
X132964881Y-85602125D01*
X132981175Y-85689986D01*
X132996133Y-85769740D01*
X133008791Y-85836319D01*
X133018186Y-85884653D01*
X133023354Y-85909675D01*
X133023444Y-85910057D01*
X133026589Y-85920701D01*
X133032704Y-85928738D01*
X133045453Y-85934533D01*
X133068500Y-85938453D01*
X133105509Y-85940865D01*
X133160144Y-85942135D01*
X133236067Y-85942629D01*
X133336944Y-85942714D01*
X133350000Y-85942714D01*
X133453910Y-85942652D01*
X133453910Y-85942652D01*
G37*
X133453910Y-85942652D02*
X133532454Y-85942222D01*
X133589298Y-85941058D01*
X133628105Y-85938793D01*
X133652538Y-85935060D01*
X133666262Y-85929494D01*
X133672940Y-85921727D01*
X133676236Y-85911395D01*
X133676556Y-85910057D01*
X133681562Y-85885921D01*
X133690829Y-85838299D01*
X133703392Y-85772259D01*
X133718287Y-85692872D01*
X133734551Y-85605204D01*
X133735119Y-85602125D01*
X133751410Y-85516211D01*
X133766652Y-85440304D01*
X133779861Y-85378955D01*
X133790054Y-85336718D01*
X133796248Y-85318145D01*
X133796543Y-85317816D01*
X133814788Y-85308747D01*
X133852405Y-85293633D01*
X133901271Y-85275738D01*
X133901543Y-85275642D01*
X133963093Y-85252507D01*
X134035657Y-85223035D01*
X134104057Y-85193403D01*
X134107294Y-85191938D01*
X134218702Y-85141374D01*
X134465399Y-85309840D01*
X134541077Y-85361197D01*
X134609631Y-85407111D01*
X134667088Y-85444970D01*
X134709476Y-85472163D01*
X134732825Y-85486079D01*
X134735042Y-85487111D01*
X134752010Y-85482516D01*
X134783701Y-85460345D01*
X134831352Y-85419553D01*
X134896198Y-85359095D01*
X134962397Y-85294773D01*
X135026214Y-85231388D01*
X135083329Y-85173549D01*
X135130305Y-85124825D01*
X135163703Y-85088790D01*
X135180085Y-85069016D01*
X135180694Y-85067998D01*
X135182505Y-85054428D01*
X135175683Y-85032267D01*
X135158540Y-84998522D01*
X135129393Y-84950200D01*
X135086555Y-84884308D01*
X135029448Y-84799483D01*
X134978766Y-84724823D01*
X134933461Y-84657860D01*
X134896150Y-84602484D01*
X134869452Y-84562580D01*
X134855985Y-84542038D01*
X134855137Y-84540644D01*
X134856781Y-84520962D01*
X134869245Y-84482707D01*
X134890048Y-84433111D01*
X134897462Y-84417272D01*
X134929814Y-84346710D01*
X134964328Y-84266647D01*
X134992365Y-84197371D01*
X135012568Y-84145955D01*
X135028615Y-84106881D01*
X135037888Y-84086459D01*
X135039041Y-84084886D01*
X135056096Y-84082279D01*
X135096298Y-84075137D01*
X135154302Y-84064477D01*
X135224763Y-84051315D01*
X135302335Y-84036667D01*
X135381672Y-84021551D01*
X135457431Y-84006982D01*
X135524264Y-83993978D01*
X135576828Y-83983555D01*
X135609776Y-83976730D01*
X135617857Y-83974801D01*
X135626205Y-83970038D01*
X135632506Y-83959282D01*
X135637045Y-83938902D01*
X135640104Y-83905266D01*
X135641967Y-83854745D01*
X135642918Y-83783708D01*
X135643240Y-83688524D01*
X135643257Y-83649508D01*
X135643257Y-83332201D01*
X135567057Y-83317161D01*
X135524663Y-83309005D01*
X135461400Y-83297101D01*
X135384962Y-83282884D01*
X135303043Y-83267790D01*
X135280400Y-83263645D01*
X135204806Y-83248947D01*
X135138953Y-83234495D01*
X135088366Y-83221625D01*
X135058574Y-83211678D01*
X135053612Y-83208713D01*
X135041426Y-83187717D01*
X135023953Y-83147033D01*
X135004577Y-83094678D01*
X135000734Y-83083400D01*
X134975339Y-83013477D01*
X134943817Y-82934582D01*
X134912969Y-82863734D01*
X134912817Y-82863405D01*
X134861447Y-82752267D01*
X135030399Y-82503747D01*
X135199352Y-82255228D01*
X134982429Y-82037942D01*
X134916819Y-81973274D01*
X134856979Y-81916267D01*
X134806267Y-81869967D01*
X134768046Y-81837416D01*
X134745675Y-81821657D01*
X134742466Y-81820657D01*
X134723626Y-81828531D01*
X134685180Y-81850422D01*
X134631330Y-81883733D01*
X134566276Y-81925869D01*
X134495940Y-81973057D01*
X134424555Y-82021190D01*
X134360908Y-82063072D01*
X134309041Y-82096129D01*
X134272995Y-82117782D01*
X134256867Y-82125457D01*
X134237189Y-82118963D01*
X134199875Y-82101850D01*
X134152621Y-82077674D01*
X134147612Y-82074987D01*
X134083977Y-82043073D01*
X134040341Y-82027421D01*
X134013202Y-82027255D01*
X133999057Y-82041796D01*
X133998975Y-82042000D01*
X133991905Y-82059221D01*
X133975042Y-82100101D01*
X133949695Y-82161475D01*
X133917171Y-82240181D01*
X133878778Y-82333053D01*
X133835822Y-82436928D01*
X133794222Y-82537498D01*
X133748504Y-82648484D01*
X133706526Y-82751297D01*
X133669548Y-82842785D01*
X133638827Y-82919799D01*
X133615622Y-82979185D01*
X133601190Y-83017791D01*
X133596743Y-83032200D01*
X133607896Y-83048728D01*
X133637069Y-83075070D01*
X133675971Y-83104113D01*
X133786757Y-83195961D01*
X133873351Y-83301241D01*
X133934716Y-83417734D01*
X133969815Y-83543224D01*
X133977608Y-83675493D01*
X133971943Y-83736543D01*
X133941078Y-83863205D01*
X133887920Y-83975059D01*
X133815767Y-84070999D01*
X133727917Y-84149924D01*
X133627665Y-84210730D01*
X133518310Y-84252313D01*
X133403147Y-84273572D01*
X133285475Y-84273401D01*
X133168590Y-84250699D01*
X133055789Y-84204362D01*
X132950369Y-84133287D01*
X132906368Y-84093089D01*
X132821979Y-83989871D01*
X132763222Y-83877075D01*
X132729704Y-83757990D01*
X132721035Y-83635905D01*
X132736823Y-83514107D01*
X132776678Y-83395884D01*
X132840207Y-83284525D01*
X132927021Y-83183316D01*
X133024029Y-83104113D01*
X133064437Y-83073838D01*
X133092982Y-83047781D01*
X133103257Y-83032175D01*
X133097877Y-83015157D01*
X133082575Y-82974500D01*
X133058612Y-82913358D01*
X133027244Y-82834881D01*
X132989732Y-82742220D01*
X132947333Y-82638528D01*
X132905663Y-82537474D01*
X132859690Y-82426393D01*
X132817107Y-82323459D01*
X132779221Y-82231835D01*
X132747340Y-82154684D01*
X132722771Y-82095169D01*
X132706820Y-82056456D01*
X132700910Y-82042000D01*
X132686948Y-82027315D01*
X132659940Y-82027358D01*
X132616413Y-82042901D01*
X132552890Y-82074716D01*
X132552388Y-82074987D01*
X132504560Y-82099677D01*
X132465897Y-82117662D01*
X132444095Y-82125386D01*
X132443133Y-82125457D01*
X132426721Y-82117622D01*
X132390487Y-82095835D01*
X132338474Y-82062672D01*
X132274725Y-82020709D01*
X132204060Y-81973057D01*
X132132116Y-81924809D01*
X132067274Y-81882849D01*
X132013735Y-81849773D01*
X131975697Y-81828179D01*
X131957533Y-81820657D01*
X131940808Y-81830543D01*
X131907180Y-81858174D01*
X131860010Y-81900505D01*
X131802658Y-81954495D01*
X131738484Y-82017101D01*
X131717497Y-82038017D01*
X131500499Y-82255377D01*
X131665668Y-82497780D01*
X131715864Y-82572219D01*
X131759919Y-82639028D01*
X131795362Y-82694335D01*
X131819719Y-82734271D01*
X131830522Y-82754964D01*
X131830838Y-82756437D01*
X131825143Y-82775942D01*
X131809826Y-82815178D01*
X131787537Y-82867570D01*
X131771893Y-82902645D01*
X131742641Y-82969799D01*
X131715094Y-83037642D01*
X131693737Y-83094966D01*
X131687935Y-83112428D01*
X131671452Y-83159062D01*
X131655340Y-83195095D01*
X131646490Y-83208713D01*
X131626960Y-83217048D01*
X131584334Y-83228863D01*
X131524145Y-83242819D01*
X131451922Y-83257578D01*
X131419600Y-83263645D01*
X131337522Y-83278727D01*
X131258795Y-83293331D01*
X131191109Y-83306020D01*
X131142160Y-83315358D01*
X131132943Y-83317161D01*
X131056743Y-83332201D01*
X131056743Y-83649508D01*
X131056914Y-83753846D01*
X131057616Y-83832787D01*
X131059134Y-83889962D01*
X131061749Y-83929001D01*
X131065746Y-83953535D01*
X131071409Y-83967195D01*
X131079020Y-83973611D01*
X131082143Y-83974801D01*
X131100978Y-83979020D01*
X131142588Y-83987438D01*
X131201630Y-83999039D01*
X131272757Y-84012805D01*
X131350625Y-84027720D01*
X131429887Y-84042768D01*
X131505198Y-84056931D01*
X131571213Y-84069194D01*
X131622587Y-84078539D01*
X131653975Y-84083950D01*
X131660959Y-84084886D01*
X131667285Y-84097404D01*
X131681290Y-84130754D01*
X131700355Y-84178623D01*
X131707634Y-84197371D01*
X131736996Y-84269805D01*
X131771571Y-84349830D01*
X131802537Y-84417272D01*
X131825323Y-84468841D01*
X131840482Y-84511215D01*
X131845542Y-84537166D01*
X131844736Y-84540644D01*
X131834041Y-84557064D01*
X131809620Y-84593583D01*
X131774095Y-84646313D01*
X131730087Y-84711365D01*
X131680217Y-84784849D01*
X131670356Y-84799355D01*
X131612492Y-84885296D01*
X131569956Y-84950739D01*
X131541054Y-84998696D01*
X131524090Y-85032180D01*
X131517367Y-85054205D01*
X131519190Y-85067783D01*
X131519236Y-85067869D01*
X131533586Y-85085703D01*
X131565323Y-85120183D01*
X131611010Y-85167732D01*
X131667204Y-85224778D01*
X131730468Y-85287745D01*
X131737602Y-85294773D01*
X131817330Y-85371980D01*
X131878857Y-85428670D01*
X131923421Y-85465890D01*
X131952257Y-85484685D01*
X131964958Y-85487111D01*
X131983494Y-85476529D01*
X132021961Y-85452084D01*
X132076386Y-85416388D01*
X132142798Y-85372053D01*
X132217225Y-85321689D01*
X132234601Y-85309840D01*
X132481297Y-85141374D01*
X132592706Y-85191938D01*
X132660457Y-85221405D01*
X132733183Y-85251041D01*
X132795703Y-85274670D01*
X132798457Y-85275642D01*
X132847360Y-85293543D01*
X132885057Y-85308680D01*
X132903425Y-85317790D01*
X132903456Y-85317816D01*
X132909285Y-85334283D01*
X132919192Y-85374781D01*
X132932195Y-85434758D01*
X132947309Y-85509660D01*
X132963552Y-85594936D01*
X132964881Y-85602125D01*
X132981175Y-85689986D01*
X132996133Y-85769740D01*
X133008791Y-85836319D01*
X133018186Y-85884653D01*
X133023354Y-85909675D01*
X133023444Y-85910057D01*
X133026589Y-85920701D01*
X133032704Y-85928738D01*
X133045453Y-85934533D01*
X133068500Y-85938453D01*
X133105509Y-85940865D01*
X133160144Y-85942135D01*
X133236067Y-85942629D01*
X133336944Y-85942714D01*
X133350000Y-85942714D01*
X133453910Y-85942652D01*
G36*
X136503595Y-81218034D02*
X136561021Y-81180503D01*
X136588719Y-81146904D01*
X136610662Y-81085936D01*
X136612405Y-81037692D01*
X136608457Y-80973184D01*
X136459686Y-80908066D01*
X136387349Y-80874798D01*
X136340084Y-80848036D01*
X136315507Y-80824856D01*
X136311237Y-80802333D01*
X136324889Y-80777545D01*
X136339943Y-80761114D01*
X136383746Y-80734765D01*
X136431389Y-80732919D01*
X136475145Y-80753454D01*
X136507289Y-80794248D01*
X136513038Y-80808653D01*
X136540576Y-80853644D01*
X136572258Y-80872818D01*
X136615714Y-80889221D01*
X136615714Y-80827034D01*
X136611872Y-80784717D01*
X136596823Y-80749031D01*
X136565280Y-80708057D01*
X136560592Y-80702733D01*
X136525506Y-80666280D01*
X136495347Y-80646717D01*
X136457615Y-80637717D01*
X136426335Y-80634770D01*
X136370385Y-80634035D01*
X136330555Y-80643340D01*
X136305708Y-80657154D01*
X136266656Y-80687533D01*
X136239625Y-80720387D01*
X136222517Y-80761706D01*
X136213238Y-80817479D01*
X136209693Y-80893695D01*
X136209410Y-80932378D01*
X136210372Y-80978753D01*
X136298007Y-80978753D01*
X136299023Y-80953874D01*
X136301556Y-80949800D01*
X136318274Y-80955335D01*
X136354249Y-80969983D01*
X136402331Y-80990810D01*
X136412386Y-80995286D01*
X136473152Y-81026186D01*
X136506632Y-81053343D01*
X136513990Y-81078780D01*
X136496391Y-81104519D01*
X136481856Y-81115891D01*
X136429410Y-81138636D01*
X136380322Y-81134878D01*
X136339227Y-81107116D01*
X136310758Y-81057848D01*
X136301631Y-81018743D01*
X136298007Y-80978753D01*
X136210372Y-80978753D01*
X136211285Y-81022751D01*
X136218196Y-81089616D01*
X136231884Y-81138305D01*
X136254096Y-81174151D01*
X136286574Y-81202487D01*
X136300733Y-81211645D01*
X136365053Y-81235493D01*
X136435473Y-81236994D01*
X136503595Y-81218034D01*
X136503595Y-81218034D01*
G37*
X136503595Y-81218034D02*
X136561021Y-81180503D01*
X136588719Y-81146904D01*
X136610662Y-81085936D01*
X136612405Y-81037692D01*
X136608457Y-80973184D01*
X136459686Y-80908066D01*
X136387349Y-80874798D01*
X136340084Y-80848036D01*
X136315507Y-80824856D01*
X136311237Y-80802333D01*
X136324889Y-80777545D01*
X136339943Y-80761114D01*
X136383746Y-80734765D01*
X136431389Y-80732919D01*
X136475145Y-80753454D01*
X136507289Y-80794248D01*
X136513038Y-80808653D01*
X136540576Y-80853644D01*
X136572258Y-80872818D01*
X136615714Y-80889221D01*
X136615714Y-80827034D01*
X136611872Y-80784717D01*
X136596823Y-80749031D01*
X136565280Y-80708057D01*
X136560592Y-80702733D01*
X136525506Y-80666280D01*
X136495347Y-80646717D01*
X136457615Y-80637717D01*
X136426335Y-80634770D01*
X136370385Y-80634035D01*
X136330555Y-80643340D01*
X136305708Y-80657154D01*
X136266656Y-80687533D01*
X136239625Y-80720387D01*
X136222517Y-80761706D01*
X136213238Y-80817479D01*
X136209693Y-80893695D01*
X136209410Y-80932378D01*
X136210372Y-80978753D01*
X136298007Y-80978753D01*
X136299023Y-80953874D01*
X136301556Y-80949800D01*
X136318274Y-80955335D01*
X136354249Y-80969983D01*
X136402331Y-80990810D01*
X136412386Y-80995286D01*
X136473152Y-81026186D01*
X136506632Y-81053343D01*
X136513990Y-81078780D01*
X136496391Y-81104519D01*
X136481856Y-81115891D01*
X136429410Y-81138636D01*
X136380322Y-81134878D01*
X136339227Y-81107116D01*
X136310758Y-81057848D01*
X136301631Y-81018743D01*
X136298007Y-80978753D01*
X136210372Y-80978753D01*
X136211285Y-81022751D01*
X136218196Y-81089616D01*
X136231884Y-81138305D01*
X136254096Y-81174151D01*
X136286574Y-81202487D01*
X136300733Y-81211645D01*
X136365053Y-81235493D01*
X136435473Y-81236994D01*
X136503595Y-81218034D01*
G36*
X136002600Y-81226248D02*
X136019948Y-81218666D01*
X136061356Y-81185872D01*
X136096765Y-81138453D01*
X136118664Y-81087849D01*
X136122229Y-81062902D01*
X136110279Y-81028073D01*
X136084067Y-81009643D01*
X136055964Y-80998484D01*
X136043095Y-80996428D01*
X136036829Y-81011351D01*
X136024456Y-81043825D01*
X136019028Y-81058498D01*
X135988590Y-81109256D01*
X135944520Y-81134573D01*
X135888010Y-81133794D01*
X135883825Y-81132797D01*
X135853655Y-81118493D01*
X135831476Y-81090607D01*
X135816327Y-81045713D01*
X135807250Y-80980385D01*
X135803286Y-80891196D01*
X135802914Y-80843739D01*
X135802730Y-80768929D01*
X135801522Y-80717931D01*
X135798309Y-80685529D01*
X135792109Y-80666505D01*
X135781940Y-80655644D01*
X135766819Y-80647728D01*
X135765946Y-80647330D01*
X135736828Y-80635019D01*
X135722403Y-80630486D01*
X135720186Y-80644191D01*
X135718289Y-80682075D01*
X135716847Y-80739285D01*
X135715998Y-80810973D01*
X135715829Y-80863435D01*
X135716692Y-80964953D01*
X135720070Y-81041968D01*
X135727142Y-81098977D01*
X135739088Y-81140474D01*
X135757090Y-81170957D01*
X135782327Y-81194920D01*
X135807247Y-81211645D01*
X135867171Y-81233903D01*
X135936911Y-81238924D01*
X136002600Y-81226248D01*
X136002600Y-81226248D01*
G37*
X136002600Y-81226248D02*
X136019948Y-81218666D01*
X136061356Y-81185872D01*
X136096765Y-81138453D01*
X136118664Y-81087849D01*
X136122229Y-81062902D01*
X136110279Y-81028073D01*
X136084067Y-81009643D01*
X136055964Y-80998484D01*
X136043095Y-80996428D01*
X136036829Y-81011351D01*
X136024456Y-81043825D01*
X136019028Y-81058498D01*
X135988590Y-81109256D01*
X135944520Y-81134573D01*
X135888010Y-81133794D01*
X135883825Y-81132797D01*
X135853655Y-81118493D01*
X135831476Y-81090607D01*
X135816327Y-81045713D01*
X135807250Y-80980385D01*
X135803286Y-80891196D01*
X135802914Y-80843739D01*
X135802730Y-80768929D01*
X135801522Y-80717931D01*
X135798309Y-80685529D01*
X135792109Y-80666505D01*
X135781940Y-80655644D01*
X135766819Y-80647728D01*
X135765946Y-80647330D01*
X135736828Y-80635019D01*
X135722403Y-80630486D01*
X135720186Y-80644191D01*
X135718289Y-80682075D01*
X135716847Y-80739285D01*
X135715998Y-80810973D01*
X135715829Y-80863435D01*
X135716692Y-80964953D01*
X135720070Y-81041968D01*
X135727142Y-81098977D01*
X135739088Y-81140474D01*
X135757090Y-81170957D01*
X135782327Y-81194920D01*
X135807247Y-81211645D01*
X135867171Y-81233903D01*
X135936911Y-81238924D01*
X136002600Y-81226248D01*
G36*
X135494876Y-81228665D02*
X135536667Y-81209656D01*
X135569469Y-81186622D01*
X135593503Y-81160867D01*
X135610097Y-81127642D01*
X135620577Y-81082200D01*
X135626271Y-81019793D01*
X135628507Y-80935673D01*
X135628743Y-80880279D01*
X135628743Y-80664174D01*
X135591774Y-80647330D01*
X135562656Y-80635019D01*
X135548231Y-80630486D01*
X135545472Y-80643975D01*
X135543282Y-80680347D01*
X135541942Y-80733458D01*
X135541657Y-80775628D01*
X135540434Y-80836553D01*
X135537136Y-80884885D01*
X135532321Y-80914482D01*
X135528496Y-80920771D01*
X135502783Y-80914348D01*
X135462418Y-80897875D01*
X135415679Y-80875542D01*
X135370845Y-80851543D01*
X135336193Y-80830070D01*
X135320002Y-80815315D01*
X135319938Y-80815155D01*
X135321330Y-80787848D01*
X135333818Y-80761781D01*
X135355743Y-80740608D01*
X135387743Y-80733526D01*
X135415092Y-80734351D01*
X135453826Y-80734958D01*
X135474158Y-80725884D01*
X135486369Y-80701908D01*
X135487909Y-80697387D01*
X135493203Y-80663194D01*
X135479047Y-80642432D01*
X135442148Y-80632538D01*
X135402289Y-80630708D01*
X135330562Y-80644273D01*
X135293432Y-80663645D01*
X135247576Y-80709155D01*
X135223256Y-80765017D01*
X135221073Y-80824043D01*
X135241629Y-80879047D01*
X135272549Y-80913514D01*
X135303420Y-80932811D01*
X135351942Y-80957241D01*
X135408485Y-80982015D01*
X135417910Y-80985801D01*
X135480019Y-81013209D01*
X135515822Y-81037366D01*
X135527337Y-81061381D01*
X135516580Y-81088365D01*
X135498114Y-81109457D01*
X135454469Y-81135428D01*
X135406446Y-81137376D01*
X135362406Y-81117363D01*
X135330709Y-81077449D01*
X135326549Y-81067152D01*
X135302327Y-81029276D01*
X135266965Y-81001158D01*
X135222343Y-80978083D01*
X135222343Y-81043515D01*
X135224969Y-81083494D01*
X135236230Y-81115003D01*
X135261199Y-81148622D01*
X135285169Y-81174516D01*
X135322441Y-81211183D01*
X135351401Y-81230879D01*
X135382505Y-81238780D01*
X135417713Y-81240086D01*
X135494876Y-81228665D01*
X135494876Y-81228665D01*
G37*
X135494876Y-81228665D02*
X135536667Y-81209656D01*
X135569469Y-81186622D01*
X135593503Y-81160867D01*
X135610097Y-81127642D01*
X135620577Y-81082200D01*
X135626271Y-81019793D01*
X135628507Y-80935673D01*
X135628743Y-80880279D01*
X135628743Y-80664174D01*
X135591774Y-80647330D01*
X135562656Y-80635019D01*
X135548231Y-80630486D01*
X135545472Y-80643975D01*
X135543282Y-80680347D01*
X135541942Y-80733458D01*
X135541657Y-80775628D01*
X135540434Y-80836553D01*
X135537136Y-80884885D01*
X135532321Y-80914482D01*
X135528496Y-80920771D01*
X135502783Y-80914348D01*
X135462418Y-80897875D01*
X135415679Y-80875542D01*
X135370845Y-80851543D01*
X135336193Y-80830070D01*
X135320002Y-80815315D01*
X135319938Y-80815155D01*
X135321330Y-80787848D01*
X135333818Y-80761781D01*
X135355743Y-80740608D01*
X135387743Y-80733526D01*
X135415092Y-80734351D01*
X135453826Y-80734958D01*
X135474158Y-80725884D01*
X135486369Y-80701908D01*
X135487909Y-80697387D01*
X135493203Y-80663194D01*
X135479047Y-80642432D01*
X135442148Y-80632538D01*
X135402289Y-80630708D01*
X135330562Y-80644273D01*
X135293432Y-80663645D01*
X135247576Y-80709155D01*
X135223256Y-80765017D01*
X135221073Y-80824043D01*
X135241629Y-80879047D01*
X135272549Y-80913514D01*
X135303420Y-80932811D01*
X135351942Y-80957241D01*
X135408485Y-80982015D01*
X135417910Y-80985801D01*
X135480019Y-81013209D01*
X135515822Y-81037366D01*
X135527337Y-81061381D01*
X135516580Y-81088365D01*
X135498114Y-81109457D01*
X135454469Y-81135428D01*
X135406446Y-81137376D01*
X135362406Y-81117363D01*
X135330709Y-81077449D01*
X135326549Y-81067152D01*
X135302327Y-81029276D01*
X135266965Y-81001158D01*
X135222343Y-80978083D01*
X135222343Y-81043515D01*
X135224969Y-81083494D01*
X135236230Y-81115003D01*
X135261199Y-81148622D01*
X135285169Y-81174516D01*
X135322441Y-81211183D01*
X135351401Y-81230879D01*
X135382505Y-81238780D01*
X135417713Y-81240086D01*
X135494876Y-81228665D01*
G36*
X135129833Y-81226337D02*
X135132048Y-81188150D01*
X135133784Y-81130114D01*
X135134899Y-81056820D01*
X135135257Y-80979945D01*
X135135257Y-80719804D01*
X135089326Y-80673873D01*
X135057675Y-80645571D01*
X135029890Y-80634107D01*
X134991915Y-80634832D01*
X134976840Y-80636679D01*
X134929726Y-80642052D01*
X134890756Y-80645131D01*
X134881257Y-80645415D01*
X134849233Y-80643555D01*
X134803432Y-80638886D01*
X134785674Y-80636679D01*
X134742057Y-80633265D01*
X134712745Y-80640680D01*
X134683680Y-80663573D01*
X134673188Y-80673873D01*
X134627257Y-80719804D01*
X134627257Y-81206398D01*
X134664226Y-81223242D01*
X134696059Y-81235718D01*
X134714683Y-81240086D01*
X134719458Y-81226282D01*
X134723921Y-81187714D01*
X134727775Y-81128644D01*
X134730722Y-81053337D01*
X134732143Y-80989714D01*
X134736114Y-80739343D01*
X134770759Y-80734444D01*
X134802268Y-80737869D01*
X134817708Y-80748959D01*
X134822023Y-80769692D01*
X134825708Y-80813855D01*
X134828469Y-80875854D01*
X134830012Y-80950091D01*
X134830235Y-80988294D01*
X134830457Y-81208217D01*
X134876166Y-81224151D01*
X134908518Y-81234985D01*
X134926115Y-81240038D01*
X134926623Y-81240086D01*
X134928388Y-81226352D01*
X134930329Y-81188270D01*
X134932282Y-81130518D01*
X134934084Y-81057773D01*
X134935343Y-80989714D01*
X134939314Y-80739343D01*
X135026400Y-80739343D01*
X135030396Y-80967760D01*
X135034392Y-81196178D01*
X135076847Y-81218132D01*
X135108192Y-81233207D01*
X135126744Y-81240049D01*
X135127279Y-81240086D01*
X135129833Y-81226337D01*
X135129833Y-81226337D01*
G37*
X135129833Y-81226337D02*
X135132048Y-81188150D01*
X135133784Y-81130114D01*
X135134899Y-81056820D01*
X135135257Y-80979945D01*
X135135257Y-80719804D01*
X135089326Y-80673873D01*
X135057675Y-80645571D01*
X135029890Y-80634107D01*
X134991915Y-80634832D01*
X134976840Y-80636679D01*
X134929726Y-80642052D01*
X134890756Y-80645131D01*
X134881257Y-80645415D01*
X134849233Y-80643555D01*
X134803432Y-80638886D01*
X134785674Y-80636679D01*
X134742057Y-80633265D01*
X134712745Y-80640680D01*
X134683680Y-80663573D01*
X134673188Y-80673873D01*
X134627257Y-80719804D01*
X134627257Y-81206398D01*
X134664226Y-81223242D01*
X134696059Y-81235718D01*
X134714683Y-81240086D01*
X134719458Y-81226282D01*
X134723921Y-81187714D01*
X134727775Y-81128644D01*
X134730722Y-81053337D01*
X134732143Y-80989714D01*
X134736114Y-80739343D01*
X134770759Y-80734444D01*
X134802268Y-80737869D01*
X134817708Y-80748959D01*
X134822023Y-80769692D01*
X134825708Y-80813855D01*
X134828469Y-80875854D01*
X134830012Y-80950091D01*
X134830235Y-80988294D01*
X134830457Y-81208217D01*
X134876166Y-81224151D01*
X134908518Y-81234985D01*
X134926115Y-81240038D01*
X134926623Y-81240086D01*
X134928388Y-81226352D01*
X134930329Y-81188270D01*
X134932282Y-81130518D01*
X134934084Y-81057773D01*
X134935343Y-80989714D01*
X134939314Y-80739343D01*
X135026400Y-80739343D01*
X135030396Y-80967760D01*
X135034392Y-81196178D01*
X135076847Y-81218132D01*
X135108192Y-81233207D01*
X135126744Y-81240049D01*
X135127279Y-81240086D01*
X135129833Y-81226337D01*
G36*
X134540117Y-81119642D02*
X134539933Y-81011163D01*
X134539219Y-80927713D01*
X134537675Y-80865296D01*
X134535001Y-80819915D01*
X134530894Y-80787571D01*
X134525055Y-80764267D01*
X134517182Y-80746005D01*
X134511221Y-80735582D01*
X134461855Y-80679055D01*
X134399264Y-80643623D01*
X134330013Y-80630910D01*
X134260668Y-80642537D01*
X134219375Y-80663432D01*
X134176025Y-80699578D01*
X134146481Y-80743724D01*
X134128655Y-80801538D01*
X134120463Y-80878687D01*
X134119302Y-80935286D01*
X134119458Y-80939353D01*
X134220857Y-80939353D01*
X134221476Y-80874450D01*
X134224314Y-80831486D01*
X134230840Y-80803378D01*
X134242523Y-80783047D01*
X134256483Y-80767712D01*
X134303365Y-80738110D01*
X134353701Y-80735581D01*
X134401276Y-80760295D01*
X134404979Y-80763644D01*
X134420783Y-80781065D01*
X134430693Y-80801791D01*
X134436058Y-80832638D01*
X134438228Y-80880423D01*
X134438571Y-80933252D01*
X134437827Y-80999619D01*
X134434748Y-81043894D01*
X134428061Y-81072991D01*
X134416496Y-81093827D01*
X134407013Y-81104893D01*
X134362960Y-81132802D01*
X134312224Y-81136157D01*
X134263796Y-81114841D01*
X134254450Y-81106927D01*
X134238540Y-81089353D01*
X134228610Y-81068413D01*
X134223278Y-81037218D01*
X134221163Y-80988878D01*
X134220857Y-80939353D01*
X134119458Y-80939353D01*
X134122810Y-81026432D01*
X134134726Y-81094914D01*
X134157135Y-81146400D01*
X134192124Y-81186557D01*
X134219375Y-81207139D01*
X134268907Y-81229375D01*
X134326316Y-81239696D01*
X134379682Y-81236933D01*
X134409543Y-81225788D01*
X134421261Y-81222617D01*
X134429037Y-81234443D01*
X134434465Y-81266134D01*
X134438571Y-81314407D01*
X134443067Y-81368171D01*
X134449313Y-81400518D01*
X134460676Y-81419015D01*
X134480528Y-81431230D01*
X134493000Y-81436638D01*
X134540171Y-81456399D01*
X134540117Y-81119642D01*
X134540117Y-81119642D01*
G37*
X134540117Y-81119642D02*
X134539933Y-81011163D01*
X134539219Y-80927713D01*
X134537675Y-80865296D01*
X134535001Y-80819915D01*
X134530894Y-80787571D01*
X134525055Y-80764267D01*
X134517182Y-80746005D01*
X134511221Y-80735582D01*
X134461855Y-80679055D01*
X134399264Y-80643623D01*
X134330013Y-80630910D01*
X134260668Y-80642537D01*
X134219375Y-80663432D01*
X134176025Y-80699578D01*
X134146481Y-80743724D01*
X134128655Y-80801538D01*
X134120463Y-80878687D01*
X134119302Y-80935286D01*
X134119458Y-80939353D01*
X134220857Y-80939353D01*
X134221476Y-80874450D01*
X134224314Y-80831486D01*
X134230840Y-80803378D01*
X134242523Y-80783047D01*
X134256483Y-80767712D01*
X134303365Y-80738110D01*
X134353701Y-80735581D01*
X134401276Y-80760295D01*
X134404979Y-80763644D01*
X134420783Y-80781065D01*
X134430693Y-80801791D01*
X134436058Y-80832638D01*
X134438228Y-80880423D01*
X134438571Y-80933252D01*
X134437827Y-80999619D01*
X134434748Y-81043894D01*
X134428061Y-81072991D01*
X134416496Y-81093827D01*
X134407013Y-81104893D01*
X134362960Y-81132802D01*
X134312224Y-81136157D01*
X134263796Y-81114841D01*
X134254450Y-81106927D01*
X134238540Y-81089353D01*
X134228610Y-81068413D01*
X134223278Y-81037218D01*
X134221163Y-80988878D01*
X134220857Y-80939353D01*
X134119458Y-80939353D01*
X134122810Y-81026432D01*
X134134726Y-81094914D01*
X134157135Y-81146400D01*
X134192124Y-81186557D01*
X134219375Y-81207139D01*
X134268907Y-81229375D01*
X134326316Y-81239696D01*
X134379682Y-81236933D01*
X134409543Y-81225788D01*
X134421261Y-81222617D01*
X134429037Y-81234443D01*
X134434465Y-81266134D01*
X134438571Y-81314407D01*
X134443067Y-81368171D01*
X134449313Y-81400518D01*
X134460676Y-81419015D01*
X134480528Y-81431230D01*
X134493000Y-81436638D01*
X134540171Y-81456399D01*
X134540117Y-81119642D01*
G36*
X133879926Y-81235245D02*
X133945858Y-81210916D01*
X133999273Y-81167883D01*
X134020164Y-81137591D01*
X134042939Y-81082006D01*
X134042466Y-81041814D01*
X134018562Y-81014783D01*
X134009717Y-81010187D01*
X133971530Y-80995856D01*
X133952028Y-80999528D01*
X133945422Y-81023593D01*
X133945086Y-81036886D01*
X133932992Y-81085790D01*
X133901471Y-81120001D01*
X133857659Y-81136524D01*
X133808695Y-81132366D01*
X133768894Y-81110773D01*
X133755450Y-81098456D01*
X133745921Y-81083513D01*
X133739485Y-81060925D01*
X133735317Y-81025672D01*
X133732597Y-80972734D01*
X133730502Y-80897093D01*
X133729960Y-80873143D01*
X133727981Y-80791210D01*
X133725731Y-80733545D01*
X133722357Y-80695392D01*
X133717006Y-80671996D01*
X133708824Y-80658602D01*
X133696959Y-80650455D01*
X133689362Y-80646856D01*
X133657102Y-80634548D01*
X133638111Y-80630486D01*
X133631836Y-80644052D01*
X133628006Y-80685066D01*
X133626600Y-80754001D01*
X133627598Y-80851331D01*
X133627908Y-80866343D01*
X133630101Y-80955141D01*
X133632693Y-81019981D01*
X133636382Y-81065933D01*
X133641864Y-81098065D01*
X133649835Y-81121447D01*
X133660993Y-81141148D01*
X133666830Y-81149590D01*
X133700296Y-81186943D01*
X133737727Y-81215997D01*
X133742309Y-81218533D01*
X133809426Y-81238557D01*
X133879926Y-81235245D01*
X133879926Y-81235245D01*
G37*
X133879926Y-81235245D02*
X133945858Y-81210916D01*
X133999273Y-81167883D01*
X134020164Y-81137591D01*
X134042939Y-81082006D01*
X134042466Y-81041814D01*
X134018562Y-81014783D01*
X134009717Y-81010187D01*
X133971530Y-80995856D01*
X133952028Y-80999528D01*
X133945422Y-81023593D01*
X133945086Y-81036886D01*
X133932992Y-81085790D01*
X133901471Y-81120001D01*
X133857659Y-81136524D01*
X133808695Y-81132366D01*
X133768894Y-81110773D01*
X133755450Y-81098456D01*
X133745921Y-81083513D01*
X133739485Y-81060925D01*
X133735317Y-81025672D01*
X133732597Y-80972734D01*
X133730502Y-80897093D01*
X133729960Y-80873143D01*
X133727981Y-80791210D01*
X133725731Y-80733545D01*
X133722357Y-80695392D01*
X133717006Y-80671996D01*
X133708824Y-80658602D01*
X133696959Y-80650455D01*
X133689362Y-80646856D01*
X133657102Y-80634548D01*
X133638111Y-80630486D01*
X133631836Y-80644052D01*
X133628006Y-80685066D01*
X133626600Y-80754001D01*
X133627598Y-80851331D01*
X133627908Y-80866343D01*
X133630101Y-80955141D01*
X133632693Y-81019981D01*
X133636382Y-81065933D01*
X133641864Y-81098065D01*
X133649835Y-81121447D01*
X133660993Y-81141148D01*
X133666830Y-81149590D01*
X133700296Y-81186943D01*
X133737727Y-81215997D01*
X133742309Y-81218533D01*
X133809426Y-81238557D01*
X133879926Y-81235245D01*
G36*
X133389744Y-81234032D02*
X133446616Y-81212913D01*
X133447267Y-81212507D01*
X133482440Y-81186620D01*
X133508407Y-81156367D01*
X133526670Y-81116942D01*
X133538732Y-81063538D01*
X133546096Y-80991349D01*
X133550264Y-80895568D01*
X133550629Y-80881922D01*
X133555876Y-80676158D01*
X133511716Y-80653322D01*
X133479763Y-80637890D01*
X133460470Y-80630577D01*
X133459578Y-80630486D01*
X133456239Y-80643978D01*
X133453587Y-80680374D01*
X133451956Y-80733548D01*
X133451600Y-80776607D01*
X133451592Y-80846359D01*
X133448403Y-80890163D01*
X133437288Y-80911056D01*
X133413501Y-80912075D01*
X133372296Y-80896259D01*
X133310086Y-80867185D01*
X133264341Y-80843037D01*
X133240813Y-80822087D01*
X133233896Y-80799253D01*
X133233886Y-80798123D01*
X133245299Y-80758788D01*
X133279092Y-80737538D01*
X133330809Y-80734461D01*
X133368061Y-80734994D01*
X133387703Y-80724265D01*
X133399952Y-80698495D01*
X133407002Y-80665663D01*
X133396842Y-80647034D01*
X133393017Y-80644368D01*
X133357001Y-80633660D01*
X133306566Y-80632144D01*
X133254626Y-80639241D01*
X133217822Y-80652212D01*
X133166938Y-80695415D01*
X133138014Y-80755554D01*
X133132286Y-80802538D01*
X133136657Y-80844918D01*
X133152475Y-80879512D01*
X133183797Y-80910237D01*
X133234678Y-80941010D01*
X133309176Y-80975748D01*
X133313714Y-80977712D01*
X133380821Y-81008713D01*
X133422232Y-81034138D01*
X133439981Y-81056986D01*
X133436107Y-81080255D01*
X133412643Y-81106944D01*
X133405627Y-81113086D01*
X133358630Y-81136900D01*
X133309933Y-81135897D01*
X133267522Y-81112549D01*
X133239384Y-81069325D01*
X133236769Y-81060840D01*
X133211308Y-81019692D01*
X133179001Y-80999872D01*
X133132286Y-80980230D01*
X133132286Y-81031050D01*
X133146496Y-81104918D01*
X133188675Y-81172673D01*
X133210624Y-81195339D01*
X133260517Y-81224431D01*
X133323967Y-81237600D01*
X133389744Y-81234032D01*
X133389744Y-81234032D01*
G37*
X133389744Y-81234032D02*
X133446616Y-81212913D01*
X133447267Y-81212507D01*
X133482440Y-81186620D01*
X133508407Y-81156367D01*
X133526670Y-81116942D01*
X133538732Y-81063538D01*
X133546096Y-80991349D01*
X133550264Y-80895568D01*
X133550629Y-80881922D01*
X133555876Y-80676158D01*
X133511716Y-80653322D01*
X133479763Y-80637890D01*
X133460470Y-80630577D01*
X133459578Y-80630486D01*
X133456239Y-80643978D01*
X133453587Y-80680374D01*
X133451956Y-80733548D01*
X133451600Y-80776607D01*
X133451592Y-80846359D01*
X133448403Y-80890163D01*
X133437288Y-80911056D01*
X133413501Y-80912075D01*
X133372296Y-80896259D01*
X133310086Y-80867185D01*
X133264341Y-80843037D01*
X133240813Y-80822087D01*
X133233896Y-80799253D01*
X133233886Y-80798123D01*
X133245299Y-80758788D01*
X133279092Y-80737538D01*
X133330809Y-80734461D01*
X133368061Y-80734994D01*
X133387703Y-80724265D01*
X133399952Y-80698495D01*
X133407002Y-80665663D01*
X133396842Y-80647034D01*
X133393017Y-80644368D01*
X133357001Y-80633660D01*
X133306566Y-80632144D01*
X133254626Y-80639241D01*
X133217822Y-80652212D01*
X133166938Y-80695415D01*
X133138014Y-80755554D01*
X133132286Y-80802538D01*
X133136657Y-80844918D01*
X133152475Y-80879512D01*
X133183797Y-80910237D01*
X133234678Y-80941010D01*
X133309176Y-80975748D01*
X133313714Y-80977712D01*
X133380821Y-81008713D01*
X133422232Y-81034138D01*
X133439981Y-81056986D01*
X133436107Y-81080255D01*
X133412643Y-81106944D01*
X133405627Y-81113086D01*
X133358630Y-81136900D01*
X133309933Y-81135897D01*
X133267522Y-81112549D01*
X133239384Y-81069325D01*
X133236769Y-81060840D01*
X133211308Y-81019692D01*
X133179001Y-80999872D01*
X133132286Y-80980230D01*
X133132286Y-81031050D01*
X133146496Y-81104918D01*
X133188675Y-81172673D01*
X133210624Y-81195339D01*
X133260517Y-81224431D01*
X133323967Y-81237600D01*
X133389744Y-81234032D01*
G36*
X132725886Y-81333711D02*
X132730139Y-81274387D01*
X132735025Y-81239428D01*
X132741795Y-81224180D01*
X132751702Y-81223985D01*
X132754914Y-81225805D01*
X132797644Y-81238985D01*
X132853227Y-81238215D01*
X132909737Y-81224667D01*
X132945082Y-81207139D01*
X132981321Y-81179139D01*
X133007813Y-81147451D01*
X133025999Y-81107187D01*
X133037322Y-81053457D01*
X133043222Y-80981374D01*
X133045143Y-80886049D01*
X133045177Y-80867763D01*
X133045200Y-80662354D01*
X132999491Y-80646420D01*
X132967027Y-80635580D01*
X132949215Y-80630532D01*
X132948691Y-80630486D01*
X132946937Y-80644172D01*
X132945444Y-80681924D01*
X132944326Y-80738776D01*
X132943697Y-80809766D01*
X132943600Y-80852927D01*
X132943398Y-80938027D01*
X132942358Y-80999019D01*
X132939831Y-81040823D01*
X132935164Y-81068358D01*
X132927707Y-81086544D01*
X132916811Y-81100302D01*
X132910007Y-81106927D01*
X132863272Y-81133625D01*
X132812272Y-81135625D01*
X132766001Y-81113045D01*
X132757444Y-81104893D01*
X132744893Y-81089564D01*
X132736188Y-81071382D01*
X132730631Y-81045091D01*
X132727526Y-81005438D01*
X132726176Y-80947168D01*
X132725886Y-80866827D01*
X132725886Y-80662354D01*
X132680177Y-80646420D01*
X132647713Y-80635580D01*
X132629901Y-80630532D01*
X132629377Y-80630486D01*
X132628037Y-80644377D01*
X132626828Y-80683561D01*
X132625801Y-80744300D01*
X132625002Y-80822859D01*
X132624481Y-80915502D01*
X132624286Y-81018491D01*
X132624286Y-81415658D01*
X132671457Y-81435556D01*
X132718629Y-81455453D01*
X132725886Y-81333711D01*
X132725886Y-81333711D01*
G37*
X132725886Y-81333711D02*
X132730139Y-81274387D01*
X132735025Y-81239428D01*
X132741795Y-81224180D01*
X132751702Y-81223985D01*
X132754914Y-81225805D01*
X132797644Y-81238985D01*
X132853227Y-81238215D01*
X132909737Y-81224667D01*
X132945082Y-81207139D01*
X132981321Y-81179139D01*
X133007813Y-81147451D01*
X133025999Y-81107187D01*
X133037322Y-81053457D01*
X133043222Y-80981374D01*
X133045143Y-80886049D01*
X133045177Y-80867763D01*
X133045200Y-80662354D01*
X132999491Y-80646420D01*
X132967027Y-80635580D01*
X132949215Y-80630532D01*
X132948691Y-80630486D01*
X132946937Y-80644172D01*
X132945444Y-80681924D01*
X132944326Y-80738776D01*
X132943697Y-80809766D01*
X132943600Y-80852927D01*
X132943398Y-80938027D01*
X132942358Y-80999019D01*
X132939831Y-81040823D01*
X132935164Y-81068358D01*
X132927707Y-81086544D01*
X132916811Y-81100302D01*
X132910007Y-81106927D01*
X132863272Y-81133625D01*
X132812272Y-81135625D01*
X132766001Y-81113045D01*
X132757444Y-81104893D01*
X132744893Y-81089564D01*
X132736188Y-81071382D01*
X132730631Y-81045091D01*
X132727526Y-81005438D01*
X132726176Y-80947168D01*
X132725886Y-80866827D01*
X132725886Y-80662354D01*
X132680177Y-80646420D01*
X132647713Y-80635580D01*
X132629901Y-80630532D01*
X132629377Y-80630486D01*
X132628037Y-80644377D01*
X132626828Y-80683561D01*
X132625801Y-80744300D01*
X132625002Y-80822859D01*
X132624481Y-80915502D01*
X132624286Y-81018491D01*
X132624286Y-81415658D01*
X132671457Y-81435556D01*
X132718629Y-81455453D01*
X132725886Y-81333711D01*
G36*
X131518303Y-81253761D02*
X131575527Y-81215265D01*
X131619749Y-81159665D01*
X131646167Y-81088914D01*
X131651510Y-81036838D01*
X131650903Y-81015107D01*
X131645822Y-80998469D01*
X131631855Y-80983563D01*
X131604589Y-80967027D01*
X131559612Y-80945502D01*
X131492511Y-80915626D01*
X131492171Y-80915476D01*
X131430407Y-80887187D01*
X131379759Y-80862067D01*
X131345404Y-80842821D01*
X131332518Y-80832152D01*
X131332514Y-80832066D01*
X131343872Y-80808834D01*
X131370431Y-80783226D01*
X131400923Y-80764779D01*
X131416370Y-80761114D01*
X131458515Y-80773788D01*
X131494808Y-80805529D01*
X131512517Y-80840428D01*
X131529552Y-80866155D01*
X131562922Y-80895454D01*
X131602149Y-80920765D01*
X131636756Y-80934529D01*
X131643993Y-80935286D01*
X131652139Y-80922840D01*
X131652630Y-80891028D01*
X131646643Y-80848134D01*
X131635357Y-80802442D01*
X131619950Y-80762239D01*
X131619171Y-80760678D01*
X131572804Y-80695938D01*
X131512711Y-80651903D01*
X131444465Y-80630289D01*
X131373638Y-80632815D01*
X131305804Y-80661196D01*
X131302788Y-80663192D01*
X131249427Y-80711552D01*
X131214340Y-80774648D01*
X131194922Y-80857613D01*
X131192316Y-80880922D01*
X131187701Y-80990945D01*
X131193233Y-81042252D01*
X131332514Y-81042252D01*
X131334324Y-81010247D01*
X131344222Y-81000907D01*
X131368898Y-81007895D01*
X131407795Y-81024413D01*
X131451275Y-81045119D01*
X131452356Y-81045667D01*
X131489209Y-81065051D01*
X131504000Y-81077987D01*
X131500353Y-81091549D01*
X131484995Y-81109368D01*
X131445923Y-81135155D01*
X131403846Y-81137050D01*
X131366103Y-81118283D01*
X131340034Y-81082085D01*
X131332514Y-81042252D01*
X131193233Y-81042252D01*
X131197194Y-81078973D01*
X131221550Y-81148788D01*
X131255456Y-81197698D01*
X131316653Y-81247122D01*
X131384063Y-81271641D01*
X131452880Y-81273203D01*
X131518303Y-81253761D01*
X131518303Y-81253761D01*
G37*
X131518303Y-81253761D02*
X131575527Y-81215265D01*
X131619749Y-81159665D01*
X131646167Y-81088914D01*
X131651510Y-81036838D01*
X131650903Y-81015107D01*
X131645822Y-80998469D01*
X131631855Y-80983563D01*
X131604589Y-80967027D01*
X131559612Y-80945502D01*
X131492511Y-80915626D01*
X131492171Y-80915476D01*
X131430407Y-80887187D01*
X131379759Y-80862067D01*
X131345404Y-80842821D01*
X131332518Y-80832152D01*
X131332514Y-80832066D01*
X131343872Y-80808834D01*
X131370431Y-80783226D01*
X131400923Y-80764779D01*
X131416370Y-80761114D01*
X131458515Y-80773788D01*
X131494808Y-80805529D01*
X131512517Y-80840428D01*
X131529552Y-80866155D01*
X131562922Y-80895454D01*
X131602149Y-80920765D01*
X131636756Y-80934529D01*
X131643993Y-80935286D01*
X131652139Y-80922840D01*
X131652630Y-80891028D01*
X131646643Y-80848134D01*
X131635357Y-80802442D01*
X131619950Y-80762239D01*
X131619171Y-80760678D01*
X131572804Y-80695938D01*
X131512711Y-80651903D01*
X131444465Y-80630289D01*
X131373638Y-80632815D01*
X131305804Y-80661196D01*
X131302788Y-80663192D01*
X131249427Y-80711552D01*
X131214340Y-80774648D01*
X131194922Y-80857613D01*
X131192316Y-80880922D01*
X131187701Y-80990945D01*
X131193233Y-81042252D01*
X131332514Y-81042252D01*
X131334324Y-81010247D01*
X131344222Y-81000907D01*
X131368898Y-81007895D01*
X131407795Y-81024413D01*
X131451275Y-81045119D01*
X131452356Y-81045667D01*
X131489209Y-81065051D01*
X131504000Y-81077987D01*
X131500353Y-81091549D01*
X131484995Y-81109368D01*
X131445923Y-81135155D01*
X131403846Y-81137050D01*
X131366103Y-81118283D01*
X131340034Y-81082085D01*
X131332514Y-81042252D01*
X131193233Y-81042252D01*
X131197194Y-81078973D01*
X131221550Y-81148788D01*
X131255456Y-81197698D01*
X131316653Y-81247122D01*
X131384063Y-81271641D01*
X131452880Y-81273203D01*
X131518303Y-81253761D01*
G36*
X130391115Y-81263038D02*
X130459145Y-81227267D01*
X130509351Y-81169699D01*
X130527185Y-81132688D01*
X130541063Y-81077118D01*
X130548167Y-81006904D01*
X130548840Y-80930273D01*
X130543427Y-80855448D01*
X130532270Y-80790658D01*
X130515714Y-80744127D01*
X130510626Y-80736113D01*
X130450355Y-80676293D01*
X130378769Y-80640465D01*
X130301092Y-80629980D01*
X130222548Y-80646190D01*
X130200689Y-80655908D01*
X130158122Y-80685857D01*
X130120763Y-80725567D01*
X130117232Y-80730603D01*
X130102881Y-80754876D01*
X130093394Y-80780822D01*
X130087790Y-80814978D01*
X130085086Y-80863881D01*
X130084299Y-80934065D01*
X130084286Y-80949800D01*
X130084322Y-80954808D01*
X130229429Y-80954808D01*
X130230273Y-80888570D01*
X130233596Y-80844614D01*
X130240583Y-80816221D01*
X130252416Y-80796675D01*
X130258457Y-80790143D01*
X130293186Y-80765320D01*
X130326903Y-80766452D01*
X130360995Y-80787984D01*
X130381329Y-80810971D01*
X130393371Y-80844522D01*
X130400134Y-80897431D01*
X130400598Y-80903601D01*
X130401752Y-80999487D01*
X130389688Y-81070701D01*
X130364570Y-81116806D01*
X130326560Y-81137365D01*
X130312992Y-81138486D01*
X130277364Y-81132848D01*
X130252994Y-81113314D01*
X130238093Y-81075958D01*
X130230875Y-81016850D01*
X130229429Y-80954808D01*
X130084322Y-80954808D01*
X130084826Y-81024587D01*
X130087096Y-81076841D01*
X130092068Y-81113051D01*
X130100713Y-81139701D01*
X130114005Y-81163278D01*
X130116943Y-81167662D01*
X130166313Y-81226751D01*
X130220109Y-81261053D01*
X130285602Y-81274669D01*
X130307842Y-81275335D01*
X130391115Y-81263038D01*
X130391115Y-81263038D01*
G37*
X130391115Y-81263038D02*
X130459145Y-81227267D01*
X130509351Y-81169699D01*
X130527185Y-81132688D01*
X130541063Y-81077118D01*
X130548167Y-81006904D01*
X130548840Y-80930273D01*
X130543427Y-80855448D01*
X130532270Y-80790658D01*
X130515714Y-80744127D01*
X130510626Y-80736113D01*
X130450355Y-80676293D01*
X130378769Y-80640465D01*
X130301092Y-80629980D01*
X130222548Y-80646190D01*
X130200689Y-80655908D01*
X130158122Y-80685857D01*
X130120763Y-80725567D01*
X130117232Y-80730603D01*
X130102881Y-80754876D01*
X130093394Y-80780822D01*
X130087790Y-80814978D01*
X130085086Y-80863881D01*
X130084299Y-80934065D01*
X130084286Y-80949800D01*
X130084322Y-80954808D01*
X130229429Y-80954808D01*
X130230273Y-80888570D01*
X130233596Y-80844614D01*
X130240583Y-80816221D01*
X130252416Y-80796675D01*
X130258457Y-80790143D01*
X130293186Y-80765320D01*
X130326903Y-80766452D01*
X130360995Y-80787984D01*
X130381329Y-80810971D01*
X130393371Y-80844522D01*
X130400134Y-80897431D01*
X130400598Y-80903601D01*
X130401752Y-80999487D01*
X130389688Y-81070701D01*
X130364570Y-81116806D01*
X130326560Y-81137365D01*
X130312992Y-81138486D01*
X130277364Y-81132848D01*
X130252994Y-81113314D01*
X130238093Y-81075958D01*
X130230875Y-81016850D01*
X130229429Y-80954808D01*
X130084322Y-80954808D01*
X130084826Y-81024587D01*
X130087096Y-81076841D01*
X130092068Y-81113051D01*
X130100713Y-81139701D01*
X130114005Y-81163278D01*
X130116943Y-81167662D01*
X130166313Y-81226751D01*
X130220109Y-81261053D01*
X130285602Y-81274669D01*
X130307842Y-81275335D01*
X130391115Y-81263038D01*
G36*
X132066093Y-81257220D02*
X132112672Y-81230277D01*
X132145057Y-81203534D01*
X132168742Y-81175516D01*
X132185059Y-81141252D01*
X132195339Y-81095773D01*
X132200914Y-81034108D01*
X132203116Y-80951289D01*
X132203371Y-80891754D01*
X132203371Y-80672609D01*
X132141686Y-80644956D01*
X132080000Y-80617303D01*
X132072743Y-80857330D01*
X132069744Y-80946972D01*
X132066598Y-81012038D01*
X132062701Y-81056974D01*
X132057447Y-81086230D01*
X132050231Y-81104252D01*
X132040450Y-81115489D01*
X132037312Y-81117921D01*
X131989761Y-81136917D01*
X131941697Y-81129400D01*
X131913086Y-81109457D01*
X131901447Y-81095325D01*
X131893391Y-81076780D01*
X131888271Y-81048666D01*
X131885441Y-81005827D01*
X131884256Y-80943105D01*
X131884057Y-80877739D01*
X131884018Y-80795732D01*
X131882614Y-80737684D01*
X131877914Y-80698535D01*
X131867987Y-80673220D01*
X131850903Y-80656677D01*
X131824732Y-80643844D01*
X131789775Y-80630509D01*
X131751596Y-80615993D01*
X131756141Y-80873611D01*
X131757971Y-80966481D01*
X131760112Y-81035111D01*
X131763181Y-81084289D01*
X131767794Y-81118802D01*
X131774568Y-81143438D01*
X131784119Y-81162984D01*
X131795634Y-81180230D01*
X131851190Y-81235320D01*
X131918980Y-81267178D01*
X131992713Y-81274809D01*
X132066093Y-81257220D01*
X132066093Y-81257220D01*
G37*
X132066093Y-81257220D02*
X132112672Y-81230277D01*
X132145057Y-81203534D01*
X132168742Y-81175516D01*
X132185059Y-81141252D01*
X132195339Y-81095773D01*
X132200914Y-81034108D01*
X132203116Y-80951289D01*
X132203371Y-80891754D01*
X132203371Y-80672609D01*
X132141686Y-80644956D01*
X132080000Y-80617303D01*
X132072743Y-80857330D01*
X132069744Y-80946972D01*
X132066598Y-81012038D01*
X132062701Y-81056974D01*
X132057447Y-81086230D01*
X132050231Y-81104252D01*
X132040450Y-81115489D01*
X132037312Y-81117921D01*
X131989761Y-81136917D01*
X131941697Y-81129400D01*
X131913086Y-81109457D01*
X131901447Y-81095325D01*
X131893391Y-81076780D01*
X131888271Y-81048666D01*
X131885441Y-81005827D01*
X131884256Y-80943105D01*
X131884057Y-80877739D01*
X131884018Y-80795732D01*
X131882614Y-80737684D01*
X131877914Y-80698535D01*
X131867987Y-80673220D01*
X131850903Y-80656677D01*
X131824732Y-80643844D01*
X131789775Y-80630509D01*
X131751596Y-80615993D01*
X131756141Y-80873611D01*
X131757971Y-80966481D01*
X131760112Y-81035111D01*
X131763181Y-81084289D01*
X131767794Y-81118802D01*
X131774568Y-81143438D01*
X131784119Y-81162984D01*
X131795634Y-81180230D01*
X131851190Y-81235320D01*
X131918980Y-81267178D01*
X131992713Y-81274809D01*
X132066093Y-81257220D01*
G36*
X130949744Y-81265082D02*
X131005201Y-81237432D01*
X131054148Y-81186520D01*
X131067629Y-81167662D01*
X131082314Y-81142985D01*
X131091842Y-81116184D01*
X131097293Y-81080413D01*
X131099747Y-81028831D01*
X131100286Y-80960733D01*
X131097852Y-80867412D01*
X131089394Y-80797343D01*
X131073174Y-80745069D01*
X131047454Y-80705131D01*
X131010497Y-80672071D01*
X131007782Y-80670114D01*
X130971360Y-80650092D01*
X130927502Y-80640185D01*
X130871724Y-80637743D01*
X130781048Y-80637743D01*
X130781010Y-80549717D01*
X130780166Y-80500692D01*
X130775024Y-80471935D01*
X130761587Y-80454689D01*
X130735858Y-80440192D01*
X130729679Y-80437231D01*
X130700764Y-80423352D01*
X130678376Y-80414586D01*
X130661729Y-80413829D01*
X130650036Y-80423977D01*
X130642510Y-80447927D01*
X130638366Y-80488574D01*
X130636815Y-80548814D01*
X130637071Y-80631545D01*
X130638349Y-80739661D01*
X130638748Y-80772000D01*
X130640185Y-80883476D01*
X130641472Y-80956397D01*
X130780971Y-80956397D01*
X130781755Y-80894501D01*
X130785240Y-80854003D01*
X130793124Y-80827292D01*
X130807105Y-80806756D01*
X130816597Y-80796740D01*
X130855404Y-80767433D01*
X130889763Y-80765048D01*
X130925216Y-80789250D01*
X130926114Y-80790143D01*
X130940539Y-80808847D01*
X130949313Y-80834268D01*
X130953739Y-80873416D01*
X130955118Y-80933303D01*
X130955143Y-80946570D01*
X130951812Y-81029099D01*
X130940969Y-81086309D01*
X130921340Y-81121234D01*
X130891650Y-81136906D01*
X130874491Y-81138486D01*
X130833766Y-81131074D01*
X130805832Y-81106670D01*
X130789017Y-81062020D01*
X130781650Y-80993870D01*
X130780971Y-80956397D01*
X130641472Y-80956397D01*
X130641708Y-80969755D01*
X130643677Y-81034667D01*
X130646450Y-81082042D01*
X130650388Y-81115710D01*
X130655849Y-81139502D01*
X130663192Y-81157247D01*
X130672777Y-81172776D01*
X130676887Y-81178619D01*
X130731405Y-81233815D01*
X130800336Y-81265110D01*
X130880072Y-81273835D01*
X130949744Y-81265082D01*
X130949744Y-81265082D01*
G37*
X130949744Y-81265082D02*
X131005201Y-81237432D01*
X131054148Y-81186520D01*
X131067629Y-81167662D01*
X131082314Y-81142985D01*
X131091842Y-81116184D01*
X131097293Y-81080413D01*
X131099747Y-81028831D01*
X131100286Y-80960733D01*
X131097852Y-80867412D01*
X131089394Y-80797343D01*
X131073174Y-80745069D01*
X131047454Y-80705131D01*
X131010497Y-80672071D01*
X131007782Y-80670114D01*
X130971360Y-80650092D01*
X130927502Y-80640185D01*
X130871724Y-80637743D01*
X130781048Y-80637743D01*
X130781010Y-80549717D01*
X130780166Y-80500692D01*
X130775024Y-80471935D01*
X130761587Y-80454689D01*
X130735858Y-80440192D01*
X130729679Y-80437231D01*
X130700764Y-80423352D01*
X130678376Y-80414586D01*
X130661729Y-80413829D01*
X130650036Y-80423977D01*
X130642510Y-80447927D01*
X130638366Y-80488574D01*
X130636815Y-80548814D01*
X130637071Y-80631545D01*
X130638349Y-80739661D01*
X130638748Y-80772000D01*
X130640185Y-80883476D01*
X130641472Y-80956397D01*
X130780971Y-80956397D01*
X130781755Y-80894501D01*
X130785240Y-80854003D01*
X130793124Y-80827292D01*
X130807105Y-80806756D01*
X130816597Y-80796740D01*
X130855404Y-80767433D01*
X130889763Y-80765048D01*
X130925216Y-80789250D01*
X130926114Y-80790143D01*
X130940539Y-80808847D01*
X130949313Y-80834268D01*
X130953739Y-80873416D01*
X130955118Y-80933303D01*
X130955143Y-80946570D01*
X130951812Y-81029099D01*
X130940969Y-81086309D01*
X130921340Y-81121234D01*
X130891650Y-81136906D01*
X130874491Y-81138486D01*
X130833766Y-81131074D01*
X130805832Y-81106670D01*
X130789017Y-81062020D01*
X130781650Y-80993870D01*
X130780971Y-80956397D01*
X130641472Y-80956397D01*
X130641708Y-80969755D01*
X130643677Y-81034667D01*
X130646450Y-81082042D01*
X130650388Y-81115710D01*
X130655849Y-81139502D01*
X130663192Y-81157247D01*
X130672777Y-81172776D01*
X130676887Y-81178619D01*
X130731405Y-81233815D01*
X130800336Y-81265110D01*
X130880072Y-81273835D01*
X130949744Y-81265082D01*
G04 #@! TD*
D11*
G04 #@! TO.P,U1,3*
G04 #@! TO.N,+5V*
X142400000Y-81104000D03*
G04 #@! TO.P,U1,2*
G04 #@! TO.N,GND*
X142400000Y-83644000D03*
D12*
G04 #@! TO.P,U1,1*
G04 #@! TO.N,+BATT*
X142400000Y-86184000D03*
G04 #@! TD*
D13*
G04 #@! TO.P,C1,1*
G04 #@! TO.N,+BATT*
X146812000Y-86741000D03*
D14*
G04 #@! TO.P,C1,2*
G04 #@! TO.N,GND*
X149312000Y-86741000D03*
G04 #@! TD*
G04 #@! TO.P,C2,2*
G04 #@! TO.N,GND*
X149312000Y-80518000D03*
D13*
G04 #@! TO.P,C2,1*
G04 #@! TO.N,+5V*
X146812000Y-80518000D03*
G04 #@! TD*
D14*
G04 #@! TO.P,C3,2*
G04 #@! TO.N,+5V*
X131024000Y-100584000D03*
G04 #@! TO.P,C3,1*
G04 #@! TO.N,GND*
X128524000Y-100584000D03*
G04 #@! TD*
G04 #@! TO.P,C4,1*
G04 #@! TO.N,GND*
X128524000Y-92964000D03*
G04 #@! TO.P,C4,2*
G04 #@! TO.N,+BATT*
X131024000Y-92964000D03*
G04 #@! TD*
D15*
G04 #@! TO.P,D1,1*
G04 #@! TO.N,GND*
X161036000Y-96774000D03*
D16*
G04 #@! TO.P,D1,2*
G04 #@! TO.N,Net-(D1-Pad2)*
X163576000Y-96774000D03*
G04 #@! TD*
D15*
G04 #@! TO.P,D2,1*
G04 #@! TO.N,Net-(D2-Pad1)*
X137795000Y-100584000D03*
D17*
G04 #@! TO.P,D2,2*
G04 #@! TO.N,+BATT*
X137795000Y-92964000D03*
G04 #@! TD*
G04 #@! TO.P,D3,2*
G04 #@! TO.N,Net-(D2-Pad1)*
X141097000Y-92964000D03*
D15*
G04 #@! TO.P,D3,1*
G04 #@! TO.N,GND*
X141097000Y-100584000D03*
G04 #@! TD*
D17*
G04 #@! TO.P,D4,2*
G04 #@! TO.N,+BATT*
X157607000Y-92964000D03*
D15*
G04 #@! TO.P,D4,1*
G04 #@! TO.N,Net-(D4-Pad1)*
X157607000Y-100584000D03*
G04 #@! TD*
G04 #@! TO.P,D5,1*
G04 #@! TO.N,GND*
X144399000Y-100584000D03*
D17*
G04 #@! TO.P,D5,2*
G04 #@! TO.N,Net-(D4-Pad1)*
X144399000Y-92964000D03*
G04 #@! TD*
D15*
G04 #@! TO.P,D6,1*
G04 #@! TO.N,Net-(D6-Pad1)*
X154305000Y-100584000D03*
D17*
G04 #@! TO.P,D6,2*
G04 #@! TO.N,+BATT*
X154305000Y-92964000D03*
G04 #@! TD*
G04 #@! TO.P,D7,2*
G04 #@! TO.N,Net-(D6-Pad1)*
X147701000Y-92964000D03*
D15*
G04 #@! TO.P,D7,1*
G04 #@! TO.N,GND*
X147701000Y-100584000D03*
G04 #@! TD*
D17*
G04 #@! TO.P,D8,2*
G04 #@! TO.N,+BATT*
X134493000Y-92964000D03*
D15*
G04 #@! TO.P,D8,1*
G04 #@! TO.N,Net-(D8-Pad1)*
X134493000Y-100584000D03*
G04 #@! TD*
G04 #@! TO.P,D9,1*
G04 #@! TO.N,GND*
X151003000Y-100584000D03*
D17*
G04 #@! TO.P,D9,2*
G04 #@! TO.N,Net-(D8-Pad1)*
X151003000Y-92964000D03*
G04 #@! TD*
D18*
G04 #@! TO.P,POWER,1*
G04 #@! TO.N,GND*
X165735000Y-83339000D03*
D19*
G04 #@! TO.P,POWER,2*
G04 #@! TO.N,+BATT*
X160655000Y-83339000D03*
G04 #@! TD*
D20*
G04 #@! TO.P,M1,1*
G04 #@! TO.N,Net-(J2-Pad1)*
X167386000Y-94249000D03*
D21*
G04 #@! TO.P,M1,2*
G04 #@! TO.N,Net-(J2-Pad2)*
X167386000Y-96789000D03*
G04 #@! TO.P,M1,3*
G04 #@! TO.N,Net-(J2-Pad3)*
X167386000Y-99329000D03*
G04 #@! TD*
G04 #@! TO.P,M2,3*
G04 #@! TO.N,Net-(J3-Pad3)*
X124968000Y-99329000D03*
G04 #@! TO.P,M2,2*
G04 #@! TO.N,Net-(J3-Pad2)*
X124968000Y-96789000D03*
D20*
G04 #@! TO.P,M2,1*
G04 #@! TO.N,Net-(J3-Pad1)*
X124968000Y-94249000D03*
G04 #@! TD*
D19*
G04 #@! TO.P,M1,2*
G04 #@! TO.N,Net-(D2-Pad1)*
X166370000Y-109728000D03*
D18*
G04 #@! TO.P,M1,1*
G04 #@! TO.N,Net-(D6-Pad1)*
X161290000Y-109728000D03*
G04 #@! TD*
G04 #@! TO.P,M2,1*
G04 #@! TO.N,Net-(D8-Pad1)*
X125730000Y-109728000D03*
D19*
G04 #@! TO.P,M2,2*
G04 #@! TO.N,Net-(D4-Pad1)*
X130810000Y-109728000D03*
G04 #@! TD*
D14*
G04 #@! TO.P,R1,1*
G04 #@! TO.N,+5V*
X154051000Y-87454000D03*
D22*
G04 #@! TO.P,R1,2*
G04 #@! TO.N,Net-(D1-Pad2)*
X154051000Y-79834000D03*
G04 #@! TD*
D15*
G04 #@! TO.P,L298,1*
G04 #@! TO.N,Net-(J6-Pad2)*
X154940000Y-104775000D03*
D17*
G04 #@! TO.P,L298,2*
G04 #@! TO.N,Net-(D2-Pad1)*
X153670000Y-109855000D03*
G04 #@! TO.P,L298,3*
G04 #@! TO.N,Net-(D6-Pad1)*
X152400000Y-104775000D03*
G04 #@! TO.P,L298,4*
G04 #@! TO.N,+BATT*
X151130000Y-109855000D03*
G04 #@! TO.P,L298,5*
G04 #@! TO.N,Net-(J2-Pad3)*
X149860000Y-104775000D03*
G04 #@! TO.P,L298,6*
G04 #@! TO.N,Net-(J2-Pad1)*
X148590000Y-109855000D03*
G04 #@! TO.P,L298,7*
G04 #@! TO.N,Net-(J2-Pad2)*
X147320000Y-104775000D03*
G04 #@! TO.P,L298,8*
G04 #@! TO.N,GND*
X146050000Y-109855000D03*
G04 #@! TO.P,L298,9*
G04 #@! TO.N,+5V*
X144780000Y-104775000D03*
G04 #@! TO.P,L298,10*
G04 #@! TO.N,Net-(J3-Pad3)*
X143510000Y-109855000D03*
G04 #@! TO.P,L298,11*
G04 #@! TO.N,Net-(J3-Pad1)*
X142240000Y-104775000D03*
G04 #@! TO.P,L298,12*
G04 #@! TO.N,Net-(J3-Pad2)*
X140970000Y-109855000D03*
G04 #@! TO.P,L298,13*
G04 #@! TO.N,Net-(D4-Pad1)*
X139700000Y-104775000D03*
G04 #@! TO.P,L298,14*
G04 #@! TO.N,Net-(D8-Pad1)*
X138430000Y-109855000D03*
G04 #@! TO.P,L298,15*
G04 #@! TO.N,Net-(J6-Pad1)*
X137160000Y-104775000D03*
G04 #@! TD*
D23*
G04 #@! TO.N,+BATT*
X137795000Y-86106000D02*
X137795000Y-92964000D01*
X137873000Y-86184000D02*
X137795000Y-86106000D01*
X142400000Y-86184000D02*
X137873000Y-86184000D01*
X137795000Y-92964000D02*
X134493000Y-92964000D01*
X134493000Y-92964000D02*
X131024000Y-92964000D01*
X157607000Y-92964000D02*
X154305000Y-92964000D01*
X146812000Y-89154000D02*
X146812000Y-86741000D01*
X148463000Y-90805000D02*
X146812000Y-89154000D01*
X154305000Y-92964000D02*
X152146000Y-90805000D01*
X152146000Y-90805000D02*
X148463000Y-90805000D01*
X151130000Y-112141000D02*
X151130000Y-109855000D01*
X148717000Y-114554000D02*
X151130000Y-112141000D01*
X124968000Y-114554000D02*
X148717000Y-114554000D01*
X131024000Y-91019000D02*
X130175000Y-90170000D01*
X131024000Y-92964000D02*
X131024000Y-91019000D01*
X122809000Y-91186000D02*
X122809000Y-112395000D01*
X130175000Y-90170000D02*
X123825000Y-90170000D01*
X123825000Y-90170000D02*
X122809000Y-91186000D01*
X122809000Y-112395000D02*
X124968000Y-114554000D01*
X137795000Y-80391000D02*
X137795000Y-86106000D01*
X140970000Y-77216000D02*
X137795000Y-80391000D01*
X157988000Y-77216000D02*
X140970000Y-77216000D01*
X160655000Y-83339000D02*
X160655000Y-79883000D01*
X160655000Y-79883000D02*
X157988000Y-77216000D01*
G04 #@! TO.N,GND*
X128524000Y-92964000D02*
X128524000Y-100330000D01*
X151003000Y-100584000D02*
X147701000Y-100584000D01*
X147701000Y-100584000D02*
X144399000Y-100584000D01*
X144399000Y-100584000D02*
X141097000Y-100584000D01*
X153313000Y-96774000D02*
X159536000Y-96774000D01*
X151003000Y-99084000D02*
X153313000Y-96774000D01*
X159536000Y-96774000D02*
X161036000Y-96774000D01*
X151003000Y-100584000D02*
X151003000Y-99084000D01*
X161036000Y-95274000D02*
X161036000Y-96774000D01*
X161036000Y-92710000D02*
X161036000Y-95274000D01*
X149312000Y-88225000D02*
X150241000Y-89154000D01*
X149312000Y-86741000D02*
X149312000Y-88225000D01*
X150241000Y-89154000D02*
X152527000Y-89154000D01*
X154178000Y-90805000D02*
X159131000Y-90805000D01*
X159131000Y-90805000D02*
X161036000Y-92710000D01*
X152527000Y-89154000D02*
X154178000Y-90805000D01*
X127724001Y-101383999D02*
X128524000Y-100584000D01*
X125819001Y-101383999D02*
X127724001Y-101383999D01*
X146050000Y-111887000D02*
X144272000Y-113665000D01*
X123698000Y-112014000D02*
X123698000Y-103505000D01*
X144272000Y-113665000D02*
X125349000Y-113665000D01*
X125349000Y-113665000D02*
X123698000Y-112014000D01*
X146050000Y-109855000D02*
X146050000Y-111887000D01*
X123698000Y-103505000D02*
X125819001Y-101383999D01*
G04 #@! TO.N,+5V*
X146812000Y-82042000D02*
X146812000Y-80518000D01*
X148463000Y-83693000D02*
X146812000Y-82042000D01*
X152273000Y-83693000D02*
X148463000Y-83693000D01*
X154051000Y-87454000D02*
X154051000Y-85471000D01*
X154051000Y-85471000D02*
X152273000Y-83693000D01*
G04 #@! TO.N,Net-(D1-Pad2)*
X163576000Y-92329000D02*
X163576000Y-96774000D01*
X154051000Y-79834000D02*
X154051000Y-82804000D01*
X154051000Y-82804000D02*
X163576000Y-92329000D01*
G04 #@! TO.N,Net-(D2-Pad1)*
X154569999Y-110754999D02*
X153670000Y-109855000D01*
X156591000Y-112776000D02*
X154569999Y-110754999D01*
X166370000Y-109728000D02*
X163322000Y-112776000D01*
X163322000Y-112776000D02*
X156591000Y-112776000D01*
D24*
X137795000Y-97790000D02*
X137795000Y-100584000D01*
X141097000Y-92964000D02*
X141097000Y-94488000D01*
X141097000Y-94488000D02*
X137795000Y-97790000D01*
X130937000Y-107442000D02*
X137795000Y-100584000D01*
X128524000Y-108585000D02*
X129667000Y-107442000D01*
X129413000Y-111887000D02*
X128524000Y-110998000D01*
X129667000Y-107442000D02*
X130937000Y-107442000D01*
X153670000Y-109855000D02*
X151384000Y-107569000D01*
X138430000Y-107569000D02*
X134112000Y-111887000D01*
X151384000Y-107569000D02*
X138430000Y-107569000D01*
X134112000Y-111887000D02*
X129413000Y-111887000D01*
X128524000Y-110998000D02*
X128524000Y-108585000D01*
D23*
G04 #@! TO.N,Net-(D4-Pad1)*
X138800001Y-105674999D02*
X139700000Y-104775000D01*
X130810000Y-109728000D02*
X134747000Y-109728000D01*
X134747000Y-109728000D02*
X138800001Y-105674999D01*
D24*
X139446000Y-97917000D02*
X144399000Y-92964000D01*
X139700000Y-104775000D02*
X139446000Y-104521000D01*
X139446000Y-104521000D02*
X139446000Y-97917000D01*
D23*
G04 #@! TO.N,Net-(D6-Pad1)*
X157353000Y-109728000D02*
X152400000Y-104775000D01*
X161290000Y-109728000D02*
X157353000Y-109728000D01*
G04 #@! TO.N,Net-(D8-Pad1)*
X137530001Y-110754999D02*
X138430000Y-109855000D01*
X135509000Y-112776000D02*
X137530001Y-110754999D01*
X128651000Y-112776000D02*
X135509000Y-112776000D01*
X125730000Y-109728000D02*
X125603000Y-109728000D01*
X125603000Y-109728000D02*
X128651000Y-112776000D01*
D24*
X134493000Y-101854000D02*
X134493000Y-100584000D01*
X134493000Y-101981000D02*
X134493000Y-101854000D01*
X130048000Y-106426000D02*
X134493000Y-101981000D01*
X125730000Y-109728000D02*
X129032000Y-106426000D01*
X129032000Y-106426000D02*
X130048000Y-106426000D01*
G04 #@! TD*
D25*
G04 #@! TO.N,GND*
G36*
X172010001Y-119940000D02*
X120090000Y-119940000D01*
X120090000Y-91186000D01*
X121855683Y-91186000D01*
X121874000Y-91278086D01*
X121874001Y-112302909D01*
X121855683Y-112395000D01*
X121928250Y-112759818D01*
X122082741Y-112991030D01*
X122134904Y-113069097D01*
X122212970Y-113121259D01*
X124241741Y-115150031D01*
X124293903Y-115228097D01*
X124371969Y-115280259D01*
X124603181Y-115434750D01*
X124967999Y-115507317D01*
X125060085Y-115489000D01*
X148624914Y-115489000D01*
X148717000Y-115507317D01*
X148809086Y-115489000D01*
X149081819Y-115434750D01*
X149391097Y-115228097D01*
X149443261Y-115150028D01*
X151726031Y-112867259D01*
X151804097Y-112815097D01*
X152010750Y-112505819D01*
X152065000Y-112233086D01*
X152065000Y-112233083D01*
X152083316Y-112141001D01*
X152065000Y-112048919D01*
X152065000Y-111076381D01*
X152236673Y-110961673D01*
X152400000Y-110717237D01*
X152563327Y-110961673D01*
X153071073Y-111300938D01*
X153518818Y-111390000D01*
X153821182Y-111390000D01*
X153872502Y-111379792D01*
X153973968Y-111481258D01*
X153973971Y-111481260D01*
X155864741Y-113372031D01*
X155916903Y-113450097D01*
X155994969Y-113502259D01*
X156226181Y-113656750D01*
X156590999Y-113729317D01*
X156683085Y-113711000D01*
X163229914Y-113711000D01*
X163322000Y-113729317D01*
X163414086Y-113711000D01*
X163686819Y-113656750D01*
X163996097Y-113450097D01*
X164048261Y-113372028D01*
X165824015Y-111596275D01*
X165985105Y-111663000D01*
X166754895Y-111663000D01*
X167466090Y-111368414D01*
X168010414Y-110824090D01*
X168305000Y-110112895D01*
X168305000Y-109343105D01*
X168010414Y-108631910D01*
X167466090Y-108087586D01*
X166754895Y-107793000D01*
X165985105Y-107793000D01*
X165273910Y-108087586D01*
X164729586Y-108631910D01*
X164435000Y-109343105D01*
X164435000Y-110112895D01*
X164501725Y-110273985D01*
X162934711Y-111841000D01*
X156978290Y-111841000D01*
X155296260Y-110158971D01*
X155296258Y-110158968D01*
X155194792Y-110057502D01*
X155235072Y-109855000D01*
X155115938Y-109256073D01*
X154776673Y-108748327D01*
X154268927Y-108409062D01*
X153821182Y-108320000D01*
X153518818Y-108320000D01*
X153261071Y-108371269D01*
X151974331Y-107084530D01*
X151931929Y-107021071D01*
X151680537Y-106853096D01*
X151458852Y-106809000D01*
X151458847Y-106809000D01*
X151384000Y-106794112D01*
X151309153Y-106809000D01*
X138988290Y-106809000D01*
X139497498Y-106299792D01*
X139548818Y-106310000D01*
X139851182Y-106310000D01*
X140298927Y-106220938D01*
X140806673Y-105881673D01*
X140970000Y-105637237D01*
X141133327Y-105881673D01*
X141641073Y-106220938D01*
X142088818Y-106310000D01*
X142391182Y-106310000D01*
X142838927Y-106220938D01*
X143346673Y-105881673D01*
X143510000Y-105637237D01*
X143673327Y-105881673D01*
X144181073Y-106220938D01*
X144628818Y-106310000D01*
X144931182Y-106310000D01*
X145378927Y-106220938D01*
X145886673Y-105881673D01*
X146050000Y-105637237D01*
X146213327Y-105881673D01*
X146721073Y-106220938D01*
X147168818Y-106310000D01*
X147471182Y-106310000D01*
X147918927Y-106220938D01*
X148426673Y-105881673D01*
X148590000Y-105637237D01*
X148753327Y-105881673D01*
X149261073Y-106220938D01*
X149708818Y-106310000D01*
X150011182Y-106310000D01*
X150458927Y-106220938D01*
X150966673Y-105881673D01*
X151130000Y-105637237D01*
X151293327Y-105881673D01*
X151801073Y-106220938D01*
X152248818Y-106310000D01*
X152551182Y-106310000D01*
X152602503Y-106299792D01*
X156626740Y-110324030D01*
X156678903Y-110402097D01*
X156988181Y-110608750D01*
X157202683Y-110651417D01*
X157353000Y-110681317D01*
X157445086Y-110663000D01*
X159342560Y-110663000D01*
X159342560Y-111028000D01*
X159391843Y-111275765D01*
X159532191Y-111485809D01*
X159742235Y-111626157D01*
X159990000Y-111675440D01*
X162590000Y-111675440D01*
X162837765Y-111626157D01*
X163047809Y-111485809D01*
X163188157Y-111275765D01*
X163237440Y-111028000D01*
X163237440Y-108428000D01*
X163188157Y-108180235D01*
X163047809Y-107970191D01*
X162837765Y-107829843D01*
X162590000Y-107780560D01*
X159990000Y-107780560D01*
X159742235Y-107829843D01*
X159532191Y-107970191D01*
X159391843Y-108180235D01*
X159342560Y-108428000D01*
X159342560Y-108793000D01*
X157740290Y-108793000D01*
X155269729Y-106322440D01*
X155840000Y-106322440D01*
X156087765Y-106273157D01*
X156297809Y-106132809D01*
X156438157Y-105922765D01*
X156487440Y-105675000D01*
X156487440Y-103875000D01*
X156438157Y-103627235D01*
X156297809Y-103417191D01*
X156087765Y-103276843D01*
X155840000Y-103227560D01*
X154040000Y-103227560D01*
X153792235Y-103276843D01*
X153582191Y-103417191D01*
X153442871Y-103625696D01*
X152998927Y-103329062D01*
X152551182Y-103240000D01*
X152248818Y-103240000D01*
X151801073Y-103329062D01*
X151293327Y-103668327D01*
X151130000Y-103912763D01*
X150966673Y-103668327D01*
X150458927Y-103329062D01*
X150011182Y-103240000D01*
X149708818Y-103240000D01*
X149261073Y-103329062D01*
X148753327Y-103668327D01*
X148590000Y-103912763D01*
X148426673Y-103668327D01*
X147918927Y-103329062D01*
X147471182Y-103240000D01*
X147168818Y-103240000D01*
X146721073Y-103329062D01*
X146213327Y-103668327D01*
X146050000Y-103912763D01*
X145886673Y-103668327D01*
X145378927Y-103329062D01*
X144931182Y-103240000D01*
X144628818Y-103240000D01*
X144181073Y-103329062D01*
X143673327Y-103668327D01*
X143510000Y-103912763D01*
X143346673Y-103668327D01*
X142838927Y-103329062D01*
X142391182Y-103240000D01*
X142088818Y-103240000D01*
X141641073Y-103329062D01*
X141133327Y-103668327D01*
X140970000Y-103912763D01*
X140806673Y-103668327D01*
X140298927Y-103329062D01*
X140206000Y-103310578D01*
X140206000Y-102119000D01*
X140811250Y-102119000D01*
X140970000Y-101960250D01*
X140970000Y-100711000D01*
X141224000Y-100711000D01*
X141224000Y-101960250D01*
X141382750Y-102119000D01*
X142123310Y-102119000D01*
X142356699Y-102022327D01*
X142535327Y-101843698D01*
X142632000Y-101610309D01*
X142632000Y-100869750D01*
X142864000Y-100869750D01*
X142864000Y-101610309D01*
X142960673Y-101843698D01*
X143139301Y-102022327D01*
X143372690Y-102119000D01*
X144113250Y-102119000D01*
X144272000Y-101960250D01*
X144272000Y-100711000D01*
X144526000Y-100711000D01*
X144526000Y-101960250D01*
X144684750Y-102119000D01*
X145425310Y-102119000D01*
X145658699Y-102022327D01*
X145837327Y-101843698D01*
X145934000Y-101610309D01*
X145934000Y-100869750D01*
X146166000Y-100869750D01*
X146166000Y-101610309D01*
X146262673Y-101843698D01*
X146441301Y-102022327D01*
X146674690Y-102119000D01*
X147415250Y-102119000D01*
X147574000Y-101960250D01*
X147574000Y-100711000D01*
X147828000Y-100711000D01*
X147828000Y-101960250D01*
X147986750Y-102119000D01*
X148727310Y-102119000D01*
X148960699Y-102022327D01*
X149139327Y-101843698D01*
X149236000Y-101610309D01*
X149236000Y-100869750D01*
X149468000Y-100869750D01*
X149468000Y-101610309D01*
X149564673Y-101843698D01*
X149743301Y-102022327D01*
X149976690Y-102119000D01*
X150717250Y-102119000D01*
X150876000Y-101960250D01*
X150876000Y-100711000D01*
X151130000Y-100711000D01*
X151130000Y-101960250D01*
X151288750Y-102119000D01*
X152029310Y-102119000D01*
X152262699Y-102022327D01*
X152441327Y-101843698D01*
X152538000Y-101610309D01*
X152538000Y-100869750D01*
X152379250Y-100711000D01*
X151130000Y-100711000D01*
X150876000Y-100711000D01*
X149626750Y-100711000D01*
X149468000Y-100869750D01*
X149236000Y-100869750D01*
X149077250Y-100711000D01*
X147828000Y-100711000D01*
X147574000Y-100711000D01*
X146324750Y-100711000D01*
X146166000Y-100869750D01*
X145934000Y-100869750D01*
X145775250Y-100711000D01*
X144526000Y-100711000D01*
X144272000Y-100711000D01*
X143022750Y-100711000D01*
X142864000Y-100869750D01*
X142632000Y-100869750D01*
X142473250Y-100711000D01*
X141224000Y-100711000D01*
X140970000Y-100711000D01*
X140950000Y-100711000D01*
X140950000Y-100457000D01*
X140970000Y-100457000D01*
X140970000Y-99207750D01*
X141224000Y-99207750D01*
X141224000Y-100457000D01*
X142473250Y-100457000D01*
X142632000Y-100298250D01*
X142632000Y-99557691D01*
X142864000Y-99557691D01*
X142864000Y-100298250D01*
X143022750Y-100457000D01*
X144272000Y-100457000D01*
X144272000Y-99207750D01*
X144526000Y-99207750D01*
X144526000Y-100457000D01*
X145775250Y-100457000D01*
X145934000Y-100298250D01*
X145934000Y-99557691D01*
X146166000Y-99557691D01*
X146166000Y-100298250D01*
X146324750Y-100457000D01*
X147574000Y-100457000D01*
X147574000Y-99207750D01*
X147828000Y-99207750D01*
X147828000Y-100457000D01*
X149077250Y-100457000D01*
X149236000Y-100298250D01*
X149236000Y-99557691D01*
X149468000Y-99557691D01*
X149468000Y-100298250D01*
X149626750Y-100457000D01*
X150876000Y-100457000D01*
X150876000Y-99207750D01*
X151130000Y-99207750D01*
X151130000Y-100457000D01*
X152379250Y-100457000D01*
X152538000Y-100298250D01*
X152538000Y-99684000D01*
X152757560Y-99684000D01*
X152757560Y-101484000D01*
X152806843Y-101731765D01*
X152947191Y-101941809D01*
X153157235Y-102082157D01*
X153405000Y-102131440D01*
X155205000Y-102131440D01*
X155452765Y-102082157D01*
X155662809Y-101941809D01*
X155803157Y-101731765D01*
X155852440Y-101484000D01*
X155852440Y-99684000D01*
X156059560Y-99684000D01*
X156059560Y-101484000D01*
X156108843Y-101731765D01*
X156249191Y-101941809D01*
X156459235Y-102082157D01*
X156707000Y-102131440D01*
X158507000Y-102131440D01*
X158754765Y-102082157D01*
X158964809Y-101941809D01*
X159105157Y-101731765D01*
X159154440Y-101484000D01*
X159154440Y-99684000D01*
X159105157Y-99436235D01*
X158964809Y-99226191D01*
X158754765Y-99085843D01*
X158507000Y-99036560D01*
X156707000Y-99036560D01*
X156459235Y-99085843D01*
X156249191Y-99226191D01*
X156108843Y-99436235D01*
X156059560Y-99684000D01*
X155852440Y-99684000D01*
X155803157Y-99436235D01*
X155662809Y-99226191D01*
X155452765Y-99085843D01*
X155205000Y-99036560D01*
X153405000Y-99036560D01*
X153157235Y-99085843D01*
X152947191Y-99226191D01*
X152806843Y-99436235D01*
X152757560Y-99684000D01*
X152538000Y-99684000D01*
X152538000Y-99557691D01*
X152441327Y-99324302D01*
X152262699Y-99145673D01*
X152029310Y-99049000D01*
X151288750Y-99049000D01*
X151130000Y-99207750D01*
X150876000Y-99207750D01*
X150717250Y-99049000D01*
X149976690Y-99049000D01*
X149743301Y-99145673D01*
X149564673Y-99324302D01*
X149468000Y-99557691D01*
X149236000Y-99557691D01*
X149139327Y-99324302D01*
X148960699Y-99145673D01*
X148727310Y-99049000D01*
X147986750Y-99049000D01*
X147828000Y-99207750D01*
X147574000Y-99207750D01*
X147415250Y-99049000D01*
X146674690Y-99049000D01*
X146441301Y-99145673D01*
X146262673Y-99324302D01*
X146166000Y-99557691D01*
X145934000Y-99557691D01*
X145837327Y-99324302D01*
X145658699Y-99145673D01*
X145425310Y-99049000D01*
X144684750Y-99049000D01*
X144526000Y-99207750D01*
X144272000Y-99207750D01*
X144113250Y-99049000D01*
X143372690Y-99049000D01*
X143139301Y-99145673D01*
X142960673Y-99324302D01*
X142864000Y-99557691D01*
X142632000Y-99557691D01*
X142535327Y-99324302D01*
X142356699Y-99145673D01*
X142123310Y-99049000D01*
X141382750Y-99049000D01*
X141224000Y-99207750D01*
X140970000Y-99207750D01*
X140811250Y-99049000D01*
X140206000Y-99049000D01*
X140206000Y-98231801D01*
X141378051Y-97059750D01*
X159501000Y-97059750D01*
X159501000Y-97800310D01*
X159597673Y-98033699D01*
X159776302Y-98212327D01*
X160009691Y-98309000D01*
X160750250Y-98309000D01*
X160909000Y-98150250D01*
X160909000Y-96901000D01*
X159659750Y-96901000D01*
X159501000Y-97059750D01*
X141378051Y-97059750D01*
X142690111Y-95747690D01*
X159501000Y-95747690D01*
X159501000Y-96488250D01*
X159659750Y-96647000D01*
X160909000Y-96647000D01*
X160909000Y-95397750D01*
X160750250Y-95239000D01*
X160009691Y-95239000D01*
X159776302Y-95335673D01*
X159597673Y-95514301D01*
X159501000Y-95747690D01*
X142690111Y-95747690D01*
X143990071Y-94447731D01*
X144247818Y-94499000D01*
X144550182Y-94499000D01*
X144997927Y-94409938D01*
X145505673Y-94070673D01*
X145844938Y-93562927D01*
X145964072Y-92964000D01*
X145844938Y-92365073D01*
X145505673Y-91857327D01*
X144997927Y-91518062D01*
X144550182Y-91429000D01*
X144247818Y-91429000D01*
X143800073Y-91518062D01*
X143292327Y-91857327D01*
X142953062Y-92365073D01*
X142833928Y-92964000D01*
X142915269Y-93372929D01*
X141859994Y-94428205D01*
X141857000Y-94413154D01*
X141857000Y-94302312D01*
X142203673Y-94070673D01*
X142542938Y-93562927D01*
X142662072Y-92964000D01*
X142542938Y-92365073D01*
X142203673Y-91857327D01*
X141695927Y-91518062D01*
X141248182Y-91429000D01*
X140945818Y-91429000D01*
X140498073Y-91518062D01*
X139990327Y-91857327D01*
X139651062Y-92365073D01*
X139531928Y-92964000D01*
X139651062Y-93562927D01*
X139990327Y-94070673D01*
X140259602Y-94250597D01*
X137310530Y-97199669D01*
X137247071Y-97242071D01*
X137079096Y-97493464D01*
X137035000Y-97715149D01*
X137035000Y-97715153D01*
X137020112Y-97790000D01*
X137035000Y-97864847D01*
X137035000Y-99036560D01*
X136895000Y-99036560D01*
X136647235Y-99085843D01*
X136437191Y-99226191D01*
X136296843Y-99436235D01*
X136247560Y-99684000D01*
X136247560Y-101056638D01*
X136040440Y-101263758D01*
X136040440Y-99684000D01*
X135991157Y-99436235D01*
X135850809Y-99226191D01*
X135640765Y-99085843D01*
X135393000Y-99036560D01*
X133593000Y-99036560D01*
X133345235Y-99085843D01*
X133135191Y-99226191D01*
X132994843Y-99436235D01*
X132945560Y-99684000D01*
X132945560Y-101484000D01*
X132994843Y-101731765D01*
X133135191Y-101941809D01*
X133328334Y-102070864D01*
X129733199Y-105666000D01*
X129106846Y-105666000D01*
X129031999Y-105651112D01*
X128957152Y-105666000D01*
X128957148Y-105666000D01*
X128735463Y-105710096D01*
X128484071Y-105878071D01*
X128441671Y-105941527D01*
X126602639Y-107780560D01*
X124430000Y-107780560D01*
X124182235Y-107829843D01*
X123972191Y-107970191D01*
X123831843Y-108180235D01*
X123782560Y-108428000D01*
X123782560Y-111028000D01*
X123831843Y-111275765D01*
X123972191Y-111485809D01*
X124182235Y-111626157D01*
X124430000Y-111675440D01*
X126228151Y-111675440D01*
X127924741Y-113372031D01*
X127976903Y-113450097D01*
X128054969Y-113502259D01*
X128229684Y-113619000D01*
X125355290Y-113619000D01*
X123744000Y-112007711D01*
X123744000Y-101591745D01*
X127695861Y-101591745D01*
X127769995Y-101837864D01*
X128307223Y-102030965D01*
X128877454Y-102003778D01*
X129278005Y-101837864D01*
X129352139Y-101591745D01*
X128524000Y-100763605D01*
X127695861Y-101591745D01*
X123744000Y-101591745D01*
X123744000Y-100170083D01*
X123897375Y-100399625D01*
X124388582Y-100727839D01*
X124821744Y-100814000D01*
X125114256Y-100814000D01*
X125547418Y-100727839D01*
X126038625Y-100399625D01*
X126060275Y-100367223D01*
X127077035Y-100367223D01*
X127104222Y-100937454D01*
X127270136Y-101338005D01*
X127516255Y-101412139D01*
X128344395Y-100584000D01*
X128703605Y-100584000D01*
X129531745Y-101412139D01*
X129777864Y-101338005D01*
X129780290Y-101331254D01*
X129807466Y-101396862D01*
X130211138Y-101800534D01*
X130738561Y-102019000D01*
X131309439Y-102019000D01*
X131836862Y-101800534D01*
X132240534Y-101396862D01*
X132459000Y-100869439D01*
X132459000Y-100298561D01*
X132240534Y-99771138D01*
X131836862Y-99367466D01*
X131309439Y-99149000D01*
X130738561Y-99149000D01*
X130211138Y-99367466D01*
X129807466Y-99771138D01*
X129780475Y-99836299D01*
X129777864Y-99829995D01*
X129531745Y-99755861D01*
X128703605Y-100584000D01*
X128344395Y-100584000D01*
X127516255Y-99755861D01*
X127270136Y-99829995D01*
X127077035Y-100367223D01*
X126060275Y-100367223D01*
X126366839Y-99908418D01*
X126432910Y-99576255D01*
X127695861Y-99576255D01*
X128524000Y-100404395D01*
X129352139Y-99576255D01*
X129278005Y-99330136D01*
X128740777Y-99137035D01*
X128170546Y-99164222D01*
X127769995Y-99330136D01*
X127695861Y-99576255D01*
X126432910Y-99576255D01*
X126482092Y-99329000D01*
X126366839Y-98749582D01*
X126038625Y-98258375D01*
X125740239Y-98059000D01*
X126038625Y-97859625D01*
X126366839Y-97368418D01*
X126482092Y-96789000D01*
X126366839Y-96209582D01*
X126038625Y-95718375D01*
X126020381Y-95706184D01*
X126065765Y-95697157D01*
X126275809Y-95556809D01*
X126416157Y-95346765D01*
X126465440Y-95099000D01*
X126465440Y-93971745D01*
X127695861Y-93971745D01*
X127769995Y-94217864D01*
X128307223Y-94410965D01*
X128877454Y-94383778D01*
X129278005Y-94217864D01*
X129352139Y-93971745D01*
X128524000Y-93143605D01*
X127695861Y-93971745D01*
X126465440Y-93971745D01*
X126465440Y-93399000D01*
X126416157Y-93151235D01*
X126275809Y-92941191D01*
X126065765Y-92800843D01*
X125818000Y-92751560D01*
X124118000Y-92751560D01*
X123870235Y-92800843D01*
X123744000Y-92885191D01*
X123744000Y-92747223D01*
X127077035Y-92747223D01*
X127104222Y-93317454D01*
X127270136Y-93718005D01*
X127516255Y-93792139D01*
X128344395Y-92964000D01*
X127516255Y-92135861D01*
X127270136Y-92209995D01*
X127077035Y-92747223D01*
X123744000Y-92747223D01*
X123744000Y-91956255D01*
X127695861Y-91956255D01*
X128524000Y-92784395D01*
X129352139Y-91956255D01*
X129278005Y-91710136D01*
X128740777Y-91517035D01*
X128170546Y-91544222D01*
X127769995Y-91710136D01*
X127695861Y-91956255D01*
X123744000Y-91956255D01*
X123744000Y-91573289D01*
X124212290Y-91105000D01*
X129787711Y-91105000D01*
X130089001Y-91406290D01*
X130089001Y-91869603D01*
X129807466Y-92151138D01*
X129780475Y-92216299D01*
X129777864Y-92209995D01*
X129531745Y-92135861D01*
X128703605Y-92964000D01*
X129531745Y-93792139D01*
X129777864Y-93718005D01*
X129780290Y-93711254D01*
X129807466Y-93776862D01*
X130211138Y-94180534D01*
X130738561Y-94399000D01*
X131309439Y-94399000D01*
X131836862Y-94180534D01*
X132118396Y-93899000D01*
X133271619Y-93899000D01*
X133386327Y-94070673D01*
X133894073Y-94409938D01*
X134341818Y-94499000D01*
X134644182Y-94499000D01*
X135091927Y-94409938D01*
X135599673Y-94070673D01*
X135714381Y-93899000D01*
X136573619Y-93899000D01*
X136688327Y-94070673D01*
X137196073Y-94409938D01*
X137643818Y-94499000D01*
X137946182Y-94499000D01*
X138393927Y-94409938D01*
X138901673Y-94070673D01*
X139240938Y-93562927D01*
X139360072Y-92964000D01*
X139240938Y-92365073D01*
X138901673Y-91857327D01*
X138730000Y-91742619D01*
X138730000Y-87119000D01*
X140752560Y-87119000D01*
X140752560Y-87136500D01*
X140801843Y-87384265D01*
X140942191Y-87594309D01*
X141152235Y-87734657D01*
X141400000Y-87783940D01*
X143400000Y-87783940D01*
X143647765Y-87734657D01*
X143857809Y-87594309D01*
X143998157Y-87384265D01*
X144047440Y-87136500D01*
X144047440Y-85941000D01*
X145364560Y-85941000D01*
X145364560Y-87541000D01*
X145413843Y-87788765D01*
X145554191Y-87998809D01*
X145764235Y-88139157D01*
X145877000Y-88161587D01*
X145877000Y-89061914D01*
X145858683Y-89154000D01*
X145877000Y-89246085D01*
X145931250Y-89518818D01*
X146137903Y-89828097D01*
X146215972Y-89880261D01*
X147736739Y-91401028D01*
X147755429Y-91429000D01*
X147549818Y-91429000D01*
X147102073Y-91518062D01*
X146594327Y-91857327D01*
X146255062Y-92365073D01*
X146135928Y-92964000D01*
X146255062Y-93562927D01*
X146594327Y-94070673D01*
X147102073Y-94409938D01*
X147549818Y-94499000D01*
X147852182Y-94499000D01*
X148299927Y-94409938D01*
X148807673Y-94070673D01*
X149146938Y-93562927D01*
X149266072Y-92964000D01*
X149146938Y-92365073D01*
X148807673Y-91857327D01*
X148632081Y-91740000D01*
X150071919Y-91740000D01*
X149896327Y-91857327D01*
X149557062Y-92365073D01*
X149437928Y-92964000D01*
X149557062Y-93562927D01*
X149896327Y-94070673D01*
X150404073Y-94409938D01*
X150851818Y-94499000D01*
X151154182Y-94499000D01*
X151601927Y-94409938D01*
X152109673Y-94070673D01*
X152448938Y-93562927D01*
X152568072Y-92964000D01*
X152465116Y-92446405D01*
X152780208Y-92761498D01*
X152739928Y-92964000D01*
X152859062Y-93562927D01*
X153198327Y-94070673D01*
X153706073Y-94409938D01*
X154153818Y-94499000D01*
X154456182Y-94499000D01*
X154903927Y-94409938D01*
X155411673Y-94070673D01*
X155526381Y-93899000D01*
X156385619Y-93899000D01*
X156500327Y-94070673D01*
X157008073Y-94409938D01*
X157455818Y-94499000D01*
X157758182Y-94499000D01*
X158205927Y-94409938D01*
X158713673Y-94070673D01*
X159052938Y-93562927D01*
X159172072Y-92964000D01*
X159052938Y-92365073D01*
X158713673Y-91857327D01*
X158205927Y-91518062D01*
X157758182Y-91429000D01*
X157455818Y-91429000D01*
X157008073Y-91518062D01*
X156500327Y-91857327D01*
X156385619Y-92029000D01*
X155526381Y-92029000D01*
X155411673Y-91857327D01*
X154903927Y-91518062D01*
X154456182Y-91429000D01*
X154153818Y-91429000D01*
X154102498Y-91439208D01*
X152872261Y-90208972D01*
X152820097Y-90130903D01*
X152510819Y-89924250D01*
X152238086Y-89870000D01*
X152146000Y-89851683D01*
X152053914Y-89870000D01*
X148850289Y-89870000D01*
X147747000Y-88766711D01*
X147747000Y-88161587D01*
X147859765Y-88139157D01*
X148069809Y-87998809D01*
X148210157Y-87788765D01*
X148218117Y-87748745D01*
X148483861Y-87748745D01*
X148557995Y-87994864D01*
X149095223Y-88187965D01*
X149665454Y-88160778D01*
X150066005Y-87994864D01*
X150140139Y-87748745D01*
X149312000Y-86920605D01*
X148483861Y-87748745D01*
X148218117Y-87748745D01*
X148256693Y-87554813D01*
X148304255Y-87569139D01*
X149132395Y-86741000D01*
X149491605Y-86741000D01*
X150319745Y-87569139D01*
X150565864Y-87495005D01*
X150758965Y-86957777D01*
X150731778Y-86387546D01*
X150565864Y-85986995D01*
X150319745Y-85912861D01*
X149491605Y-86741000D01*
X149132395Y-86741000D01*
X148304255Y-85912861D01*
X148256693Y-85927187D01*
X148218118Y-85733255D01*
X148483861Y-85733255D01*
X149312000Y-86561395D01*
X150140139Y-85733255D01*
X150066005Y-85487136D01*
X149528777Y-85294035D01*
X148958546Y-85321222D01*
X148557995Y-85487136D01*
X148483861Y-85733255D01*
X148218118Y-85733255D01*
X148210157Y-85693235D01*
X148069809Y-85483191D01*
X147859765Y-85342843D01*
X147612000Y-85293560D01*
X146012000Y-85293560D01*
X145764235Y-85342843D01*
X145554191Y-85483191D01*
X145413843Y-85693235D01*
X145364560Y-85941000D01*
X144047440Y-85941000D01*
X144047440Y-85231500D01*
X143998157Y-84983735D01*
X143857809Y-84773691D01*
X143652857Y-84636745D01*
X143775973Y-84510924D01*
X143990563Y-84016980D01*
X143870594Y-83771000D01*
X142527000Y-83771000D01*
X142527000Y-83791000D01*
X142273000Y-83791000D01*
X142273000Y-83771000D01*
X140929406Y-83771000D01*
X140809437Y-84016980D01*
X141024027Y-84510924D01*
X141147143Y-84636745D01*
X140942191Y-84773691D01*
X140801843Y-84983735D01*
X140752560Y-85231500D01*
X140752560Y-85249000D01*
X138730000Y-85249000D01*
X138730000Y-81104000D01*
X140733900Y-81104000D01*
X140857109Y-81723411D01*
X141207977Y-82248523D01*
X141409474Y-82383159D01*
X141024027Y-82777076D01*
X140809437Y-83271020D01*
X140929406Y-83517000D01*
X142273000Y-83517000D01*
X142273000Y-83497000D01*
X142527000Y-83497000D01*
X142527000Y-83517000D01*
X143870594Y-83517000D01*
X143990563Y-83271020D01*
X143775973Y-82777076D01*
X143390526Y-82383159D01*
X143592023Y-82248523D01*
X143942891Y-81723411D01*
X144066100Y-81104000D01*
X143942891Y-80484589D01*
X143592023Y-79959477D01*
X143230627Y-79718000D01*
X145364560Y-79718000D01*
X145364560Y-81318000D01*
X145413843Y-81565765D01*
X145554191Y-81775809D01*
X145764235Y-81916157D01*
X145877000Y-81938587D01*
X145877000Y-81949914D01*
X145858683Y-82042000D01*
X145921065Y-82355615D01*
X145931250Y-82406818D01*
X146137903Y-82716097D01*
X146215972Y-82768261D01*
X147736739Y-84289028D01*
X147788903Y-84367097D01*
X148098181Y-84573750D01*
X148357391Y-84625310D01*
X148463000Y-84646317D01*
X148555086Y-84628000D01*
X151885711Y-84628000D01*
X153116001Y-85858291D01*
X153116001Y-86359603D01*
X152834466Y-86641138D01*
X152616000Y-87168561D01*
X152616000Y-87739439D01*
X152834466Y-88266862D01*
X153238138Y-88670534D01*
X153765561Y-88889000D01*
X154336439Y-88889000D01*
X154863862Y-88670534D01*
X155267534Y-88266862D01*
X155486000Y-87739439D01*
X155486000Y-87168561D01*
X155267534Y-86641138D01*
X154986000Y-86359604D01*
X154986000Y-85563086D01*
X155004317Y-85471000D01*
X154981005Y-85353800D01*
X154931750Y-85106181D01*
X154732111Y-84807400D01*
X162641000Y-92716290D01*
X162641001Y-95538182D01*
X162530139Y-95649044D01*
X162474327Y-95514301D01*
X162295698Y-95335673D01*
X162062309Y-95239000D01*
X161321750Y-95239000D01*
X161163000Y-95397750D01*
X161163000Y-96647000D01*
X161183000Y-96647000D01*
X161183000Y-96901000D01*
X161163000Y-96901000D01*
X161163000Y-98150250D01*
X161321750Y-98309000D01*
X162062309Y-98309000D01*
X162295698Y-98212327D01*
X162474327Y-98033699D01*
X162530139Y-97898956D01*
X162706493Y-98075310D01*
X163270670Y-98309000D01*
X163881330Y-98309000D01*
X164445507Y-98075310D01*
X164877310Y-97643507D01*
X165111000Y-97079330D01*
X165111000Y-96789000D01*
X165871908Y-96789000D01*
X165987161Y-97368418D01*
X166315375Y-97859625D01*
X166613761Y-98059000D01*
X166315375Y-98258375D01*
X165987161Y-98749582D01*
X165871908Y-99329000D01*
X165987161Y-99908418D01*
X166315375Y-100399625D01*
X166806582Y-100727839D01*
X167239744Y-100814000D01*
X167532256Y-100814000D01*
X167965418Y-100727839D01*
X168456625Y-100399625D01*
X168784839Y-99908418D01*
X168900092Y-99329000D01*
X168784839Y-98749582D01*
X168456625Y-98258375D01*
X168158239Y-98059000D01*
X168456625Y-97859625D01*
X168784839Y-97368418D01*
X168900092Y-96789000D01*
X168784839Y-96209582D01*
X168456625Y-95718375D01*
X168438381Y-95706184D01*
X168483765Y-95697157D01*
X168693809Y-95556809D01*
X168834157Y-95346765D01*
X168883440Y-95099000D01*
X168883440Y-93399000D01*
X168834157Y-93151235D01*
X168693809Y-92941191D01*
X168483765Y-92800843D01*
X168236000Y-92751560D01*
X166536000Y-92751560D01*
X166288235Y-92800843D01*
X166078191Y-92941191D01*
X165937843Y-93151235D01*
X165888560Y-93399000D01*
X165888560Y-95099000D01*
X165937843Y-95346765D01*
X166078191Y-95556809D01*
X166288235Y-95697157D01*
X166333619Y-95706184D01*
X166315375Y-95718375D01*
X165987161Y-96209582D01*
X165871908Y-96789000D01*
X165111000Y-96789000D01*
X165111000Y-96468670D01*
X164877310Y-95904493D01*
X164511000Y-95538183D01*
X164511000Y-92421081D01*
X164529316Y-92328999D01*
X164511000Y-92236915D01*
X164511000Y-92236914D01*
X164456750Y-91964181D01*
X164250097Y-91654903D01*
X164172031Y-91602741D01*
X154986000Y-82416711D01*
X154986000Y-80935112D01*
X155085577Y-80868577D01*
X155402740Y-80393909D01*
X155514113Y-79834000D01*
X155402740Y-79274091D01*
X155085577Y-78799423D01*
X154610909Y-78482260D01*
X154192333Y-78399000D01*
X153909667Y-78399000D01*
X153491091Y-78482260D01*
X153016423Y-78799423D01*
X152699260Y-79274091D01*
X152587887Y-79834000D01*
X152699260Y-80393909D01*
X153016423Y-80868577D01*
X153116000Y-80935112D01*
X153116001Y-82711910D01*
X153097683Y-82804000D01*
X153170250Y-83168818D01*
X153324741Y-83400030D01*
X153369892Y-83467603D01*
X152999261Y-83096972D01*
X152947097Y-83018903D01*
X152637819Y-82812250D01*
X152365086Y-82758000D01*
X152273000Y-82739683D01*
X152180914Y-82758000D01*
X148850289Y-82758000D01*
X147948892Y-81856603D01*
X148069809Y-81775809D01*
X148210157Y-81565765D01*
X148218117Y-81525745D01*
X148483861Y-81525745D01*
X148557995Y-81771864D01*
X149095223Y-81964965D01*
X149665454Y-81937778D01*
X150066005Y-81771864D01*
X150140139Y-81525745D01*
X149312000Y-80697605D01*
X148483861Y-81525745D01*
X148218117Y-81525745D01*
X148256693Y-81331813D01*
X148304255Y-81346139D01*
X149132395Y-80518000D01*
X149491605Y-80518000D01*
X150319745Y-81346139D01*
X150565864Y-81272005D01*
X150758965Y-80734777D01*
X150731778Y-80164546D01*
X150565864Y-79763995D01*
X150319745Y-79689861D01*
X149491605Y-80518000D01*
X149132395Y-80518000D01*
X148304255Y-79689861D01*
X148256693Y-79704187D01*
X148218118Y-79510255D01*
X148483861Y-79510255D01*
X149312000Y-80338395D01*
X150140139Y-79510255D01*
X150066005Y-79264136D01*
X149528777Y-79071035D01*
X148958546Y-79098222D01*
X148557995Y-79264136D01*
X148483861Y-79510255D01*
X148218118Y-79510255D01*
X148210157Y-79470235D01*
X148069809Y-79260191D01*
X147859765Y-79119843D01*
X147612000Y-79070560D01*
X146012000Y-79070560D01*
X145764235Y-79119843D01*
X145554191Y-79260191D01*
X145413843Y-79470235D01*
X145364560Y-79718000D01*
X143230627Y-79718000D01*
X143066911Y-79608609D01*
X142603850Y-79516500D01*
X142196150Y-79516500D01*
X141733089Y-79608609D01*
X141207977Y-79959477D01*
X140857109Y-80484589D01*
X140733900Y-81104000D01*
X138730000Y-81104000D01*
X138730000Y-80778289D01*
X141357290Y-78151000D01*
X157600711Y-78151000D01*
X159720001Y-80270290D01*
X159720000Y-81631860D01*
X159558910Y-81698586D01*
X159014586Y-82242910D01*
X158720000Y-82954105D01*
X158720000Y-83723895D01*
X159014586Y-84435090D01*
X159558910Y-84979414D01*
X160270105Y-85274000D01*
X161039895Y-85274000D01*
X161751090Y-84979414D01*
X162295414Y-84435090D01*
X162590000Y-83723895D01*
X162590000Y-83624750D01*
X163800000Y-83624750D01*
X163800000Y-84765310D01*
X163896673Y-84998699D01*
X164075302Y-85177327D01*
X164308691Y-85274000D01*
X165449250Y-85274000D01*
X165608000Y-85115250D01*
X165608000Y-83466000D01*
X165862000Y-83466000D01*
X165862000Y-85115250D01*
X166020750Y-85274000D01*
X167161309Y-85274000D01*
X167394698Y-85177327D01*
X167573327Y-84998699D01*
X167670000Y-84765310D01*
X167670000Y-83624750D01*
X167511250Y-83466000D01*
X165862000Y-83466000D01*
X165608000Y-83466000D01*
X163958750Y-83466000D01*
X163800000Y-83624750D01*
X162590000Y-83624750D01*
X162590000Y-82954105D01*
X162295414Y-82242910D01*
X161965194Y-81912690D01*
X163800000Y-81912690D01*
X163800000Y-83053250D01*
X163958750Y-83212000D01*
X165608000Y-83212000D01*
X165608000Y-81562750D01*
X165862000Y-81562750D01*
X165862000Y-83212000D01*
X167511250Y-83212000D01*
X167670000Y-83053250D01*
X167670000Y-81912690D01*
X167573327Y-81679301D01*
X167394698Y-81500673D01*
X167161309Y-81404000D01*
X166020750Y-81404000D01*
X165862000Y-81562750D01*
X165608000Y-81562750D01*
X165449250Y-81404000D01*
X164308691Y-81404000D01*
X164075302Y-81500673D01*
X163896673Y-81679301D01*
X163800000Y-81912690D01*
X161965194Y-81912690D01*
X161751090Y-81698586D01*
X161590000Y-81631860D01*
X161590000Y-79975086D01*
X161608317Y-79883000D01*
X161535750Y-79518181D01*
X161481963Y-79437683D01*
X161329097Y-79208903D01*
X161251028Y-79156739D01*
X158714261Y-76619972D01*
X158662097Y-76541903D01*
X158352819Y-76335250D01*
X158080086Y-76281000D01*
X157988000Y-76262683D01*
X157895914Y-76281000D01*
X141062085Y-76281000D01*
X140969999Y-76262683D01*
X140605181Y-76335250D01*
X140295903Y-76541903D01*
X140243741Y-76619969D01*
X137198972Y-79664739D01*
X137120903Y-79716903D01*
X136925928Y-80008704D01*
X136914250Y-80026182D01*
X136890496Y-80145602D01*
X136873793Y-80129348D01*
X136843634Y-80109785D01*
X136799536Y-80092219D01*
X136781675Y-80079784D01*
X136760867Y-80075230D01*
X136756914Y-80072014D01*
X136731400Y-80064392D01*
X136643837Y-80024181D01*
X136606105Y-80015181D01*
X136560944Y-80013473D01*
X136517646Y-80000539D01*
X136486366Y-79997592D01*
X136460338Y-80000267D01*
X136434742Y-79994825D01*
X136378792Y-79994090D01*
X136302418Y-80008242D01*
X136276362Y-80009106D01*
X136257301Y-80007546D01*
X136249699Y-80009990D01*
X136224789Y-80010816D01*
X136184960Y-80020121D01*
X136148120Y-80036832D01*
X136133256Y-80039586D01*
X136120765Y-80047697D01*
X136099949Y-80058134D01*
X136048760Y-80074592D01*
X136046171Y-80072736D01*
X136040749Y-80071471D01*
X136032306Y-80065391D01*
X136031433Y-80064993D01*
X136022646Y-80062923D01*
X136015176Y-80057852D01*
X135986058Y-80045541D01*
X135955799Y-80039292D01*
X135928695Y-80024456D01*
X135914270Y-80019923D01*
X135868110Y-80014912D01*
X135824604Y-79998699D01*
X135768940Y-80000702D01*
X135741503Y-79995036D01*
X135721050Y-79998949D01*
X135666013Y-79992975D01*
X135630982Y-80003222D01*
X135606324Y-80003089D01*
X135567331Y-79995036D01*
X135546878Y-79998949D01*
X135491841Y-79992975D01*
X135482090Y-79995827D01*
X135471501Y-79993211D01*
X135431642Y-79991381D01*
X135379141Y-79999341D01*
X135358723Y-79997999D01*
X135345625Y-80002443D01*
X135283360Y-80001855D01*
X135211633Y-80015420D01*
X135188365Y-80024802D01*
X135169639Y-80021447D01*
X135163108Y-80018153D01*
X135143283Y-80016675D01*
X135029007Y-79994108D01*
X135023351Y-79995241D01*
X135017674Y-79994224D01*
X134979699Y-79994949D01*
X134947232Y-80002054D01*
X134914084Y-79999582D01*
X134901614Y-80001110D01*
X134880926Y-80003469D01*
X134875382Y-80002904D01*
X134864607Y-80001565D01*
X134849855Y-80002639D01*
X134835615Y-79998630D01*
X134791998Y-79995217D01*
X134688841Y-80007471D01*
X134585101Y-80012810D01*
X134555790Y-80020225D01*
X134547947Y-80023957D01*
X134540930Y-80024506D01*
X134514823Y-80014142D01*
X134445572Y-80001429D01*
X134334857Y-80003067D01*
X134224182Y-79999721D01*
X134154837Y-80011348D01*
X134064633Y-80045556D01*
X134046721Y-80050554D01*
X134028821Y-80052458D01*
X134017183Y-80058796D01*
X133971706Y-80071485D01*
X133970743Y-80071972D01*
X133963363Y-80068476D01*
X133938877Y-80062326D01*
X133917498Y-80048898D01*
X133885238Y-80036590D01*
X133840504Y-80028997D01*
X133829751Y-80024383D01*
X133827258Y-80024351D01*
X133790965Y-80008704D01*
X133771973Y-80004642D01*
X133717253Y-80003856D01*
X133664053Y-79991012D01*
X133639464Y-79994874D01*
X133639044Y-79994803D01*
X133637118Y-79995243D01*
X133593595Y-80002079D01*
X133550077Y-80001454D01*
X133525425Y-79993882D01*
X133524532Y-79993791D01*
X133482361Y-79997796D01*
X133441028Y-79990872D01*
X133403554Y-79999518D01*
X133399613Y-79999335D01*
X133376230Y-79993949D01*
X133325795Y-79992433D01*
X133295413Y-79997533D01*
X133290746Y-79997099D01*
X133282149Y-79999759D01*
X133273178Y-80001265D01*
X133219923Y-79998036D01*
X133167982Y-80005133D01*
X133132662Y-80017316D01*
X133123721Y-80014782D01*
X133075469Y-80010923D01*
X133030048Y-79995678D01*
X133017405Y-79996550D01*
X133005183Y-79992984D01*
X133004659Y-79992938D01*
X132942345Y-79999744D01*
X132921989Y-79997167D01*
X132917799Y-79998312D01*
X132874801Y-79994873D01*
X132829554Y-80009511D01*
X132780925Y-80012866D01*
X132780859Y-80012899D01*
X132746234Y-80010129D01*
X132690830Y-79993444D01*
X132688313Y-79993697D01*
X132685869Y-79992984D01*
X132685345Y-79992938D01*
X132623031Y-79999744D01*
X132602675Y-79997167D01*
X132598485Y-79998312D01*
X132555487Y-79994873D01*
X132500888Y-80012537D01*
X132442366Y-80018419D01*
X132439897Y-80019745D01*
X132437106Y-80020050D01*
X132380938Y-80050843D01*
X132341801Y-80033299D01*
X132220687Y-80005569D01*
X132099341Y-79977595D01*
X132098859Y-79977676D01*
X132098384Y-79977567D01*
X131976026Y-79998271D01*
X131919536Y-80007743D01*
X131859521Y-79997627D01*
X131740307Y-79976093D01*
X131736573Y-79976904D01*
X131732803Y-79976269D01*
X131614732Y-80003382D01*
X131571365Y-80012807D01*
X131529308Y-80008146D01*
X131421654Y-79990696D01*
X131350827Y-79993222D01*
X131239130Y-80019611D01*
X131222387Y-80023003D01*
X131214036Y-80015832D01*
X131212246Y-80012812D01*
X131198635Y-80002610D01*
X131175104Y-79982406D01*
X131140850Y-79946796D01*
X131126709Y-79940614D01*
X131077482Y-79898083D01*
X131076523Y-79897765D01*
X131075756Y-79897107D01*
X131050027Y-79882610D01*
X131029618Y-79875920D01*
X131012432Y-79863038D01*
X131006253Y-79860077D01*
X131006251Y-79860077D01*
X130977709Y-79846376D01*
X130958664Y-79841489D01*
X130949900Y-79835039D01*
X130943600Y-79833485D01*
X130934106Y-79827406D01*
X130911718Y-79818640D01*
X130808877Y-79800261D01*
X130707449Y-79775247D01*
X130690802Y-79774490D01*
X130676688Y-79776636D01*
X130665898Y-79774708D01*
X130612788Y-79786353D01*
X130604380Y-79787632D01*
X130593642Y-79786466D01*
X130573946Y-79792227D01*
X130459144Y-79806738D01*
X130452025Y-79810799D01*
X130443925Y-79812031D01*
X130385459Y-79847365D01*
X130353969Y-79856576D01*
X130310484Y-79891545D01*
X130242242Y-79930476D01*
X130230548Y-79940624D01*
X130199213Y-79981026D01*
X130171625Y-80003211D01*
X130093190Y-80019399D01*
X130065056Y-80031290D01*
X130060759Y-80031393D01*
X130024718Y-80047349D01*
X129962555Y-80061379D01*
X129940696Y-80071097D01*
X129897043Y-80101912D01*
X129895289Y-80102317D01*
X129892797Y-80104094D01*
X129863175Y-80116614D01*
X129859239Y-80120607D01*
X129832419Y-80132480D01*
X129789852Y-80162429D01*
X129745734Y-80208724D01*
X129736690Y-80215108D01*
X129736316Y-80215700D01*
X129691985Y-80247318D01*
X129654626Y-80287028D01*
X129633931Y-80320144D01*
X129631662Y-80321802D01*
X129627357Y-80328872D01*
X129596739Y-80358146D01*
X129593207Y-80363182D01*
X129583075Y-80386169D01*
X129566317Y-80404884D01*
X129551966Y-80429157D01*
X129534230Y-80479681D01*
X129522287Y-80498792D01*
X129521674Y-80502456D01*
X129501802Y-80535095D01*
X129492315Y-80561041D01*
X129483045Y-80620686D01*
X129461838Y-80677202D01*
X129456234Y-80711358D01*
X129457404Y-80746037D01*
X129448766Y-80779644D01*
X129446062Y-80828547D01*
X129448074Y-80842708D01*
X129445126Y-80856705D01*
X129444339Y-80926889D01*
X129444962Y-80930216D01*
X129444299Y-80933536D01*
X129444286Y-80949271D01*
X129444794Y-80951836D01*
X129444303Y-80954401D01*
X129444339Y-80959408D01*
X129444341Y-80959419D01*
X129444339Y-80959430D01*
X129444843Y-81029210D01*
X129447222Y-81040733D01*
X129445429Y-81052363D01*
X129447699Y-81104617D01*
X129454847Y-81133855D01*
X129453045Y-81163903D01*
X129458017Y-81200113D01*
X129476628Y-81253956D01*
X129483297Y-81310530D01*
X129491942Y-81337180D01*
X129523229Y-81393110D01*
X129543207Y-81454006D01*
X129556500Y-81477583D01*
X129572768Y-81496521D01*
X129582353Y-81519572D01*
X129585290Y-81523956D01*
X129609458Y-81548057D01*
X129625810Y-81578013D01*
X129675180Y-81637102D01*
X129751470Y-81698596D01*
X129822226Y-81766384D01*
X129876022Y-81800687D01*
X129983592Y-81842568D01*
X130089838Y-81887655D01*
X130155331Y-81901271D01*
X130211607Y-81901757D01*
X130266445Y-81914382D01*
X130288685Y-81915048D01*
X130344653Y-81905647D01*
X130401337Y-81908469D01*
X130484610Y-81896172D01*
X130585870Y-81860015D01*
X130586679Y-81859775D01*
X130634245Y-81870904D01*
X130730720Y-81901313D01*
X130810456Y-81910038D01*
X130885107Y-81903500D01*
X130959849Y-81908843D01*
X130963657Y-81908365D01*
X130942541Y-81960683D01*
X130909012Y-82010952D01*
X130896259Y-82075348D01*
X130871690Y-82136219D01*
X130872238Y-82196640D01*
X130860500Y-82255910D01*
X130873360Y-82320279D01*
X130873955Y-82385925D01*
X130897585Y-82441539D01*
X130909421Y-82500787D01*
X130945935Y-82555335D01*
X130971606Y-82615755D01*
X131020332Y-82687265D01*
X131019294Y-82687262D01*
X131010077Y-82689066D01*
X131009568Y-82689275D01*
X131009014Y-82689274D01*
X130932814Y-82704314D01*
X130874108Y-82728529D01*
X130811826Y-82740918D01*
X130759805Y-82775677D01*
X130701966Y-82799535D01*
X130656996Y-82844373D01*
X130604195Y-82879653D01*
X130569435Y-82931675D01*
X130525129Y-82975850D01*
X130500741Y-83034482D01*
X130465460Y-83087284D01*
X130453254Y-83148649D01*
X130429226Y-83206415D01*
X130429132Y-83269918D01*
X130416743Y-83332201D01*
X130416743Y-83649508D01*
X130416847Y-83650033D01*
X130416744Y-83650557D01*
X130416915Y-83754895D01*
X130417380Y-83757212D01*
X130416939Y-83759537D01*
X130417641Y-83838478D01*
X130418813Y-83844106D01*
X130417841Y-83849773D01*
X130419359Y-83906948D01*
X130422258Y-83919736D01*
X130420565Y-83932736D01*
X130423180Y-83971775D01*
X130431143Y-84001325D01*
X130430077Y-84031911D01*
X130434074Y-84056445D01*
X130460048Y-84125903D01*
X130474537Y-84198631D01*
X130480200Y-84212291D01*
X130494666Y-84233927D01*
X130494994Y-84235360D01*
X130495878Y-84236605D01*
X130503050Y-84261420D01*
X130517478Y-84279481D01*
X130521539Y-84290341D01*
X130537917Y-84307902D01*
X130541620Y-84317487D01*
X130571490Y-84348828D01*
X130618997Y-84419880D01*
X130632475Y-84428880D01*
X130639617Y-84438933D01*
X130650122Y-84445525D01*
X130658909Y-84456525D01*
X130666520Y-84462941D01*
X130695470Y-84478909D01*
X130713905Y-84498252D01*
X130780535Y-84527745D01*
X130826671Y-84558551D01*
X130831888Y-84559587D01*
X130851135Y-84571665D01*
X130854258Y-84572855D01*
X130870895Y-84575672D01*
X130885178Y-84583550D01*
X130913857Y-84586757D01*
X130942251Y-84599325D01*
X130961086Y-84603544D01*
X130967839Y-84603706D01*
X130974072Y-84606312D01*
X131015682Y-84614730D01*
X131017509Y-84614736D01*
X131019196Y-84615430D01*
X131025240Y-84616618D01*
X131021806Y-84620388D01*
X130992904Y-84668345D01*
X130984832Y-84690733D01*
X130970143Y-84709455D01*
X130953179Y-84742939D01*
X130938230Y-84796414D01*
X130911972Y-84845335D01*
X130905249Y-84867360D01*
X130904048Y-84879336D01*
X130898752Y-84890146D01*
X130894892Y-84951442D01*
X130885949Y-84983434D01*
X130886473Y-84987779D01*
X130882954Y-84998990D01*
X130887227Y-85047138D01*
X130880341Y-85115829D01*
X130882913Y-85124360D01*
X130882290Y-85130699D01*
X130883379Y-85134285D01*
X130883059Y-85139368D01*
X130884882Y-85152946D01*
X130900725Y-85199227D01*
X130905029Y-85247728D01*
X130931499Y-85298422D01*
X130932673Y-85305938D01*
X130938311Y-85315183D01*
X130954848Y-85369640D01*
X130954894Y-85369727D01*
X130962088Y-85378488D01*
X130965756Y-85389203D01*
X130998000Y-85425780D01*
X131020611Y-85469084D01*
X131034961Y-85486917D01*
X131051479Y-85500742D01*
X131062695Y-85519133D01*
X131094432Y-85553613D01*
X131100069Y-85557727D01*
X131103829Y-85563605D01*
X131149516Y-85611154D01*
X131152842Y-85613474D01*
X131155070Y-85616863D01*
X131211264Y-85673909D01*
X131213927Y-85675718D01*
X131215722Y-85678390D01*
X131278986Y-85741357D01*
X131280378Y-85742282D01*
X131281319Y-85743668D01*
X131288453Y-85750696D01*
X131290791Y-85752233D01*
X131292381Y-85754532D01*
X131372109Y-85831739D01*
X131378900Y-85836121D01*
X131383661Y-85842651D01*
X131445188Y-85899341D01*
X131458676Y-85907576D01*
X131468597Y-85919880D01*
X131513161Y-85957100D01*
X131546663Y-85975380D01*
X131573954Y-86002055D01*
X131602790Y-86020850D01*
X131705353Y-86061968D01*
X131732368Y-86076708D01*
X131742924Y-86077840D01*
X131796312Y-86104491D01*
X131813362Y-86105692D01*
X131832182Y-86113320D01*
X131844884Y-86115746D01*
X131945274Y-86114982D01*
X132045411Y-86122034D01*
X132069351Y-86114037D01*
X132094592Y-86113845D01*
X132187042Y-86074723D01*
X132282261Y-86042916D01*
X132300797Y-86032334D01*
X132312413Y-86022246D01*
X132326754Y-86016688D01*
X132365221Y-85992244D01*
X132368612Y-85989005D01*
X132372961Y-85987247D01*
X132384658Y-85979575D01*
X132389944Y-86006769D01*
X132391387Y-86010296D01*
X132391415Y-86014105D01*
X132396583Y-86039127D01*
X132400094Y-86047431D01*
X132400410Y-86056442D01*
X132400500Y-86056824D01*
X132406934Y-86070936D01*
X132407725Y-86083818D01*
X132409273Y-86086990D01*
X132409676Y-86091408D01*
X132412821Y-86102052D01*
X132430567Y-86135837D01*
X132433454Y-86153457D01*
X132469498Y-86211577D01*
X132493832Y-86269128D01*
X132500102Y-86275306D01*
X132504084Y-86284042D01*
X132506589Y-86286377D01*
X132517255Y-86308231D01*
X132523370Y-86316268D01*
X132527046Y-86319519D01*
X132528941Y-86323126D01*
X132549079Y-86339898D01*
X132565065Y-86365675D01*
X132640688Y-86420004D01*
X132710442Y-86481682D01*
X132741335Y-86492310D01*
X132767870Y-86511373D01*
X132780619Y-86517167D01*
X132861000Y-86536011D01*
X132938138Y-86565472D01*
X132961185Y-86569392D01*
X132994594Y-86568460D01*
X133026877Y-86577098D01*
X133063887Y-86579510D01*
X133077366Y-86577730D01*
X133090636Y-86580692D01*
X133145271Y-86581962D01*
X133150641Y-86581023D01*
X133155980Y-86582121D01*
X133231903Y-86582615D01*
X133233715Y-86582267D01*
X133235528Y-86582629D01*
X133336405Y-86582714D01*
X133336675Y-86582661D01*
X133336944Y-86582714D01*
X133350000Y-86582714D01*
X133350191Y-86582676D01*
X133350382Y-86582714D01*
X133454292Y-86582652D01*
X133455853Y-86582340D01*
X133457414Y-86582642D01*
X133535958Y-86582212D01*
X133540744Y-86581233D01*
X133545557Y-86582088D01*
X133602401Y-86580924D01*
X133614409Y-86578279D01*
X133626589Y-86579971D01*
X133665396Y-86577706D01*
X133694611Y-86570101D01*
X133724766Y-86571451D01*
X133749199Y-86567718D01*
X133819557Y-86542198D01*
X133893072Y-86528140D01*
X133906796Y-86522574D01*
X133929157Y-86507871D01*
X133954937Y-86500692D01*
X133973017Y-86486535D01*
X133983949Y-86482570D01*
X134018944Y-86450573D01*
X134024028Y-86446593D01*
X134027767Y-86445080D01*
X134034042Y-86438906D01*
X134115448Y-86385380D01*
X134130480Y-86363240D01*
X134151551Y-86346741D01*
X134158228Y-86338974D01*
X134159614Y-86336519D01*
X134161819Y-86334761D01*
X134181682Y-86298844D01*
X134194333Y-86287129D01*
X134199305Y-86276319D01*
X134205778Y-86269951D01*
X134225647Y-86223069D01*
X134255715Y-86178782D01*
X134259805Y-86158988D01*
X134280961Y-86121501D01*
X134281301Y-86118705D01*
X134282667Y-86116235D01*
X134285963Y-86105903D01*
X134288656Y-86082060D01*
X134298682Y-86060261D01*
X134299002Y-86058923D01*
X134299380Y-86049091D01*
X134303219Y-86040032D01*
X134308225Y-86015896D01*
X134308258Y-86011883D01*
X134309778Y-86008169D01*
X134315348Y-85979548D01*
X134318645Y-85980888D01*
X134321511Y-85983650D01*
X134363899Y-86010843D01*
X134373865Y-86014755D01*
X134381817Y-86021926D01*
X134405166Y-86035842D01*
X134411986Y-86038263D01*
X134416519Y-86042217D01*
X134441186Y-86050517D01*
X134462737Y-86066297D01*
X134464954Y-86067329D01*
X134557395Y-86089884D01*
X134640492Y-86119383D01*
X134645134Y-86119143D01*
X134653195Y-86121856D01*
X134680736Y-86119977D01*
X134707552Y-86126520D01*
X134804474Y-86111536D01*
X134841714Y-86108995D01*
X134860036Y-86108049D01*
X134890277Y-86107402D01*
X134894908Y-86105366D01*
X134902331Y-86104860D01*
X134919299Y-86100266D01*
X134938261Y-86090852D01*
X134954336Y-86088367D01*
X135003726Y-86058352D01*
X135018009Y-86051261D01*
X135118885Y-86006923D01*
X135150576Y-85984752D01*
X135172398Y-85961975D01*
X135199903Y-85946530D01*
X135247554Y-85905738D01*
X135256070Y-85894910D01*
X135267785Y-85887662D01*
X135332631Y-85827204D01*
X135336555Y-85821754D01*
X135342192Y-85818104D01*
X135408391Y-85753782D01*
X135410422Y-85750835D01*
X135413406Y-85748856D01*
X135477223Y-85685471D01*
X135478988Y-85682849D01*
X135481604Y-85681077D01*
X135538718Y-85623238D01*
X135540864Y-85619982D01*
X135544066Y-85617757D01*
X135591042Y-85569034D01*
X135594509Y-85563635D01*
X135599702Y-85559872D01*
X135633100Y-85523837D01*
X135642546Y-85508468D01*
X135656543Y-85497089D01*
X135672925Y-85477316D01*
X135696311Y-85434048D01*
X135729308Y-85397579D01*
X135729917Y-85396561D01*
X135731422Y-85392343D01*
X135734382Y-85388980D01*
X135745110Y-85357558D01*
X135748169Y-85353800D01*
X135758168Y-85320345D01*
X135763855Y-85311091D01*
X135764312Y-85308232D01*
X135791659Y-85257634D01*
X135796606Y-85209682D01*
X135813846Y-85161372D01*
X135813622Y-85156899D01*
X135815070Y-85152659D01*
X135816881Y-85139090D01*
X135816082Y-85126563D01*
X135819675Y-85114541D01*
X135813065Y-85050146D01*
X135817286Y-85009237D01*
X135812521Y-84993263D01*
X135813770Y-84982818D01*
X135804902Y-84951229D01*
X135800990Y-84889881D01*
X135795459Y-84878616D01*
X135794178Y-84866131D01*
X135787356Y-84843971D01*
X135761174Y-84795468D01*
X135746275Y-84742397D01*
X135729132Y-84708652D01*
X135714565Y-84690128D01*
X135706564Y-84667963D01*
X135677417Y-84619641D01*
X135674660Y-84616617D01*
X135701310Y-84611332D01*
X135703871Y-84610273D01*
X135706645Y-84610251D01*
X135739592Y-84603426D01*
X135748599Y-84599611D01*
X135758374Y-84599240D01*
X135766455Y-84597311D01*
X135783381Y-84589535D01*
X135787937Y-84589265D01*
X135850551Y-84558878D01*
X135935020Y-84530685D01*
X135943368Y-84525923D01*
X135963162Y-84508743D01*
X135969536Y-84506043D01*
X135973192Y-84502328D01*
X135993368Y-84493059D01*
X135999249Y-84486713D01*
X136012594Y-84480237D01*
X136068439Y-84417364D01*
X136131953Y-84362236D01*
X136143412Y-84339296D01*
X136156405Y-84326882D01*
X136163902Y-84309889D01*
X136178427Y-84293536D01*
X136184728Y-84282780D01*
X136198632Y-84242655D01*
X136203716Y-84236365D01*
X136216559Y-84192857D01*
X136243542Y-84138839D01*
X136244339Y-84127565D01*
X136257200Y-84098413D01*
X136261739Y-84078033D01*
X136262166Y-84059309D01*
X136266490Y-84046830D01*
X136265350Y-84027575D01*
X136274415Y-83996867D01*
X136277474Y-83963231D01*
X136275631Y-83945851D01*
X136279669Y-83928850D01*
X136281532Y-83878330D01*
X136280319Y-83870787D01*
X136281910Y-83863312D01*
X136282861Y-83792276D01*
X136282267Y-83789068D01*
X136282914Y-83785873D01*
X136283236Y-83690689D01*
X136283052Y-83689747D01*
X136283240Y-83688803D01*
X136283257Y-83649787D01*
X136283229Y-83649647D01*
X136283257Y-83649508D01*
X136283257Y-83332201D01*
X136270868Y-83269916D01*
X136270774Y-83206415D01*
X136246746Y-83148649D01*
X136234540Y-83087284D01*
X136199259Y-83034482D01*
X136174871Y-82975850D01*
X136130565Y-82931675D01*
X136095805Y-82879653D01*
X136043004Y-82844373D01*
X135998034Y-82799535D01*
X135940195Y-82775677D01*
X135888174Y-82740918D01*
X135825892Y-82728529D01*
X135767186Y-82704314D01*
X135690986Y-82689274D01*
X135689417Y-82689276D01*
X135687966Y-82688686D01*
X135679650Y-82687086D01*
X135728625Y-82615048D01*
X135754101Y-82554912D01*
X135790430Y-82500640D01*
X135802333Y-82441060D01*
X135826033Y-82385115D01*
X135826557Y-82319806D01*
X135839351Y-82255763D01*
X135827548Y-82196164D01*
X135828035Y-82135407D01*
X135803527Y-82074871D01*
X135790839Y-82010804D01*
X135757126Y-81960257D01*
X135734326Y-81903941D01*
X135688517Y-81857391D01*
X135676237Y-81838980D01*
X135733814Y-81848230D01*
X135821213Y-81872251D01*
X135890953Y-81877272D01*
X135974240Y-81866851D01*
X136058175Y-81867331D01*
X136123864Y-81854655D01*
X136162755Y-81838806D01*
X136247571Y-81852382D01*
X136351415Y-81875348D01*
X136421835Y-81876849D01*
X136513872Y-81860572D01*
X136607078Y-81853559D01*
X136675200Y-81834599D01*
X136762742Y-81790372D01*
X136853725Y-81753766D01*
X136860000Y-81749665D01*
X136860001Y-86013910D01*
X136841683Y-86106000D01*
X136860000Y-86198086D01*
X136860001Y-91742618D01*
X136688327Y-91857327D01*
X136573619Y-92029000D01*
X135714381Y-92029000D01*
X135599673Y-91857327D01*
X135091927Y-91518062D01*
X134644182Y-91429000D01*
X134341818Y-91429000D01*
X133894073Y-91518062D01*
X133386327Y-91857327D01*
X133271619Y-92029000D01*
X132118396Y-92029000D01*
X131959000Y-91869604D01*
X131959000Y-91111081D01*
X131977316Y-91018999D01*
X131959000Y-90926917D01*
X131959000Y-90926914D01*
X131904750Y-90654181D01*
X131698097Y-90344903D01*
X131620030Y-90292741D01*
X130901261Y-89573972D01*
X130849097Y-89495903D01*
X130539819Y-89289250D01*
X130267086Y-89235000D01*
X130175000Y-89216683D01*
X130082914Y-89235000D01*
X123917086Y-89235000D01*
X123825000Y-89216683D01*
X123732914Y-89235000D01*
X123460181Y-89289250D01*
X123150903Y-89495903D01*
X123098741Y-89573969D01*
X122212972Y-90459739D01*
X122134903Y-90511903D01*
X121965101Y-90766030D01*
X121928250Y-90821182D01*
X121855683Y-91186000D01*
X120090000Y-91186000D01*
X120090000Y-83644000D01*
X123308276Y-83644000D01*
X123493380Y-84574580D01*
X124020511Y-85363489D01*
X124809420Y-85890620D01*
X125505103Y-86029000D01*
X125974897Y-86029000D01*
X126670580Y-85890620D01*
X127459489Y-85363489D01*
X127986620Y-84574580D01*
X128171724Y-83644000D01*
X127986620Y-82713420D01*
X127459489Y-81924511D01*
X126670580Y-81397380D01*
X125974897Y-81259000D01*
X125505103Y-81259000D01*
X124809420Y-81397380D01*
X124020511Y-81924511D01*
X123493380Y-82713420D01*
X123308276Y-83644000D01*
X120090000Y-83644000D01*
X120090000Y-75640000D01*
X172010000Y-75640000D01*
X172010001Y-119940000D01*
X172010001Y-119940000D01*
G37*
X172010001Y-119940000D02*
X120090000Y-119940000D01*
X120090000Y-91186000D01*
X121855683Y-91186000D01*
X121874000Y-91278086D01*
X121874001Y-112302909D01*
X121855683Y-112395000D01*
X121928250Y-112759818D01*
X122082741Y-112991030D01*
X122134904Y-113069097D01*
X122212970Y-113121259D01*
X124241741Y-115150031D01*
X124293903Y-115228097D01*
X124371969Y-115280259D01*
X124603181Y-115434750D01*
X124967999Y-115507317D01*
X125060085Y-115489000D01*
X148624914Y-115489000D01*
X148717000Y-115507317D01*
X148809086Y-115489000D01*
X149081819Y-115434750D01*
X149391097Y-115228097D01*
X149443261Y-115150028D01*
X151726031Y-112867259D01*
X151804097Y-112815097D01*
X152010750Y-112505819D01*
X152065000Y-112233086D01*
X152065000Y-112233083D01*
X152083316Y-112141001D01*
X152065000Y-112048919D01*
X152065000Y-111076381D01*
X152236673Y-110961673D01*
X152400000Y-110717237D01*
X152563327Y-110961673D01*
X153071073Y-111300938D01*
X153518818Y-111390000D01*
X153821182Y-111390000D01*
X153872502Y-111379792D01*
X153973968Y-111481258D01*
X153973971Y-111481260D01*
X155864741Y-113372031D01*
X155916903Y-113450097D01*
X155994969Y-113502259D01*
X156226181Y-113656750D01*
X156590999Y-113729317D01*
X156683085Y-113711000D01*
X163229914Y-113711000D01*
X163322000Y-113729317D01*
X163414086Y-113711000D01*
X163686819Y-113656750D01*
X163996097Y-113450097D01*
X164048261Y-113372028D01*
X165824015Y-111596275D01*
X165985105Y-111663000D01*
X166754895Y-111663000D01*
X167466090Y-111368414D01*
X168010414Y-110824090D01*
X168305000Y-110112895D01*
X168305000Y-109343105D01*
X168010414Y-108631910D01*
X167466090Y-108087586D01*
X166754895Y-107793000D01*
X165985105Y-107793000D01*
X165273910Y-108087586D01*
X164729586Y-108631910D01*
X164435000Y-109343105D01*
X164435000Y-110112895D01*
X164501725Y-110273985D01*
X162934711Y-111841000D01*
X156978290Y-111841000D01*
X155296260Y-110158971D01*
X155296258Y-110158968D01*
X155194792Y-110057502D01*
X155235072Y-109855000D01*
X155115938Y-109256073D01*
X154776673Y-108748327D01*
X154268927Y-108409062D01*
X153821182Y-108320000D01*
X153518818Y-108320000D01*
X153261071Y-108371269D01*
X151974331Y-107084530D01*
X151931929Y-107021071D01*
X151680537Y-106853096D01*
X151458852Y-106809000D01*
X151458847Y-106809000D01*
X151384000Y-106794112D01*
X151309153Y-106809000D01*
X138988290Y-106809000D01*
X139497498Y-106299792D01*
X139548818Y-106310000D01*
X139851182Y-106310000D01*
X140298927Y-106220938D01*
X140806673Y-105881673D01*
X140970000Y-105637237D01*
X141133327Y-105881673D01*
X141641073Y-106220938D01*
X142088818Y-106310000D01*
X142391182Y-106310000D01*
X142838927Y-106220938D01*
X143346673Y-105881673D01*
X143510000Y-105637237D01*
X143673327Y-105881673D01*
X144181073Y-106220938D01*
X144628818Y-106310000D01*
X144931182Y-106310000D01*
X145378927Y-106220938D01*
X145886673Y-105881673D01*
X146050000Y-105637237D01*
X146213327Y-105881673D01*
X146721073Y-106220938D01*
X147168818Y-106310000D01*
X147471182Y-106310000D01*
X147918927Y-106220938D01*
X148426673Y-105881673D01*
X148590000Y-105637237D01*
X148753327Y-105881673D01*
X149261073Y-106220938D01*
X149708818Y-106310000D01*
X150011182Y-106310000D01*
X150458927Y-106220938D01*
X150966673Y-105881673D01*
X151130000Y-105637237D01*
X151293327Y-105881673D01*
X151801073Y-106220938D01*
X152248818Y-106310000D01*
X152551182Y-106310000D01*
X152602503Y-106299792D01*
X156626740Y-110324030D01*
X156678903Y-110402097D01*
X156988181Y-110608750D01*
X157202683Y-110651417D01*
X157353000Y-110681317D01*
X157445086Y-110663000D01*
X159342560Y-110663000D01*
X159342560Y-111028000D01*
X159391843Y-111275765D01*
X159532191Y-111485809D01*
X159742235Y-111626157D01*
X159990000Y-111675440D01*
X162590000Y-111675440D01*
X162837765Y-111626157D01*
X163047809Y-111485809D01*
X163188157Y-111275765D01*
X163237440Y-111028000D01*
X163237440Y-108428000D01*
X163188157Y-108180235D01*
X163047809Y-107970191D01*
X162837765Y-107829843D01*
X162590000Y-107780560D01*
X159990000Y-107780560D01*
X159742235Y-107829843D01*
X159532191Y-107970191D01*
X159391843Y-108180235D01*
X159342560Y-108428000D01*
X159342560Y-108793000D01*
X157740290Y-108793000D01*
X155269729Y-106322440D01*
X155840000Y-106322440D01*
X156087765Y-106273157D01*
X156297809Y-106132809D01*
X156438157Y-105922765D01*
X156487440Y-105675000D01*
X156487440Y-103875000D01*
X156438157Y-103627235D01*
X156297809Y-103417191D01*
X156087765Y-103276843D01*
X155840000Y-103227560D01*
X154040000Y-103227560D01*
X153792235Y-103276843D01*
X153582191Y-103417191D01*
X153442871Y-103625696D01*
X152998927Y-103329062D01*
X152551182Y-103240000D01*
X152248818Y-103240000D01*
X151801073Y-103329062D01*
X151293327Y-103668327D01*
X151130000Y-103912763D01*
X150966673Y-103668327D01*
X150458927Y-103329062D01*
X150011182Y-103240000D01*
X149708818Y-103240000D01*
X149261073Y-103329062D01*
X148753327Y-103668327D01*
X148590000Y-103912763D01*
X148426673Y-103668327D01*
X147918927Y-103329062D01*
X147471182Y-103240000D01*
X147168818Y-103240000D01*
X146721073Y-103329062D01*
X146213327Y-103668327D01*
X146050000Y-103912763D01*
X145886673Y-103668327D01*
X145378927Y-103329062D01*
X144931182Y-103240000D01*
X144628818Y-103240000D01*
X144181073Y-103329062D01*
X143673327Y-103668327D01*
X143510000Y-103912763D01*
X143346673Y-103668327D01*
X142838927Y-103329062D01*
X142391182Y-103240000D01*
X142088818Y-103240000D01*
X141641073Y-103329062D01*
X141133327Y-103668327D01*
X140970000Y-103912763D01*
X140806673Y-103668327D01*
X140298927Y-103329062D01*
X140206000Y-103310578D01*
X140206000Y-102119000D01*
X140811250Y-102119000D01*
X140970000Y-101960250D01*
X140970000Y-100711000D01*
X141224000Y-100711000D01*
X141224000Y-101960250D01*
X141382750Y-102119000D01*
X142123310Y-102119000D01*
X142356699Y-102022327D01*
X142535327Y-101843698D01*
X142632000Y-101610309D01*
X142632000Y-100869750D01*
X142864000Y-100869750D01*
X142864000Y-101610309D01*
X142960673Y-101843698D01*
X143139301Y-102022327D01*
X143372690Y-102119000D01*
X144113250Y-102119000D01*
X144272000Y-101960250D01*
X144272000Y-100711000D01*
X144526000Y-100711000D01*
X144526000Y-101960250D01*
X144684750Y-102119000D01*
X145425310Y-102119000D01*
X145658699Y-102022327D01*
X145837327Y-101843698D01*
X145934000Y-101610309D01*
X145934000Y-100869750D01*
X146166000Y-100869750D01*
X146166000Y-101610309D01*
X146262673Y-101843698D01*
X146441301Y-102022327D01*
X146674690Y-102119000D01*
X147415250Y-102119000D01*
X147574000Y-101960250D01*
X147574000Y-100711000D01*
X147828000Y-100711000D01*
X147828000Y-101960250D01*
X147986750Y-102119000D01*
X148727310Y-102119000D01*
X148960699Y-102022327D01*
X149139327Y-101843698D01*
X149236000Y-101610309D01*
X149236000Y-100869750D01*
X149468000Y-100869750D01*
X149468000Y-101610309D01*
X149564673Y-101843698D01*
X149743301Y-102022327D01*
X149976690Y-102119000D01*
X150717250Y-102119000D01*
X150876000Y-101960250D01*
X150876000Y-100711000D01*
X151130000Y-100711000D01*
X151130000Y-101960250D01*
X151288750Y-102119000D01*
X152029310Y-102119000D01*
X152262699Y-102022327D01*
X152441327Y-101843698D01*
X152538000Y-101610309D01*
X152538000Y-100869750D01*
X152379250Y-100711000D01*
X151130000Y-100711000D01*
X150876000Y-100711000D01*
X149626750Y-100711000D01*
X149468000Y-100869750D01*
X149236000Y-100869750D01*
X149077250Y-100711000D01*
X147828000Y-100711000D01*
X147574000Y-100711000D01*
X146324750Y-100711000D01*
X146166000Y-100869750D01*
X145934000Y-100869750D01*
X145775250Y-100711000D01*
X144526000Y-100711000D01*
X144272000Y-100711000D01*
X143022750Y-100711000D01*
X142864000Y-100869750D01*
X142632000Y-100869750D01*
X142473250Y-100711000D01*
X141224000Y-100711000D01*
X140970000Y-100711000D01*
X140950000Y-100711000D01*
X140950000Y-100457000D01*
X140970000Y-100457000D01*
X140970000Y-99207750D01*
X141224000Y-99207750D01*
X141224000Y-100457000D01*
X142473250Y-100457000D01*
X142632000Y-100298250D01*
X142632000Y-99557691D01*
X142864000Y-99557691D01*
X142864000Y-100298250D01*
X143022750Y-100457000D01*
X144272000Y-100457000D01*
X144272000Y-99207750D01*
X144526000Y-99207750D01*
X144526000Y-100457000D01*
X145775250Y-100457000D01*
X145934000Y-100298250D01*
X145934000Y-99557691D01*
X146166000Y-99557691D01*
X146166000Y-100298250D01*
X146324750Y-100457000D01*
X147574000Y-100457000D01*
X147574000Y-99207750D01*
X147828000Y-99207750D01*
X147828000Y-100457000D01*
X149077250Y-100457000D01*
X149236000Y-100298250D01*
X149236000Y-99557691D01*
X149468000Y-99557691D01*
X149468000Y-100298250D01*
X149626750Y-100457000D01*
X150876000Y-100457000D01*
X150876000Y-99207750D01*
X151130000Y-99207750D01*
X151130000Y-100457000D01*
X152379250Y-100457000D01*
X152538000Y-100298250D01*
X152538000Y-99684000D01*
X152757560Y-99684000D01*
X152757560Y-101484000D01*
X152806843Y-101731765D01*
X152947191Y-101941809D01*
X153157235Y-102082157D01*
X153405000Y-102131440D01*
X155205000Y-102131440D01*
X155452765Y-102082157D01*
X155662809Y-101941809D01*
X155803157Y-101731765D01*
X155852440Y-101484000D01*
X155852440Y-99684000D01*
X156059560Y-99684000D01*
X156059560Y-101484000D01*
X156108843Y-101731765D01*
X156249191Y-101941809D01*
X156459235Y-102082157D01*
X156707000Y-102131440D01*
X158507000Y-102131440D01*
X158754765Y-102082157D01*
X158964809Y-101941809D01*
X159105157Y-101731765D01*
X159154440Y-101484000D01*
X159154440Y-99684000D01*
X159105157Y-99436235D01*
X158964809Y-99226191D01*
X158754765Y-99085843D01*
X158507000Y-99036560D01*
X156707000Y-99036560D01*
X156459235Y-99085843D01*
X156249191Y-99226191D01*
X156108843Y-99436235D01*
X156059560Y-99684000D01*
X155852440Y-99684000D01*
X155803157Y-99436235D01*
X155662809Y-99226191D01*
X155452765Y-99085843D01*
X155205000Y-99036560D01*
X153405000Y-99036560D01*
X153157235Y-99085843D01*
X152947191Y-99226191D01*
X152806843Y-99436235D01*
X152757560Y-99684000D01*
X152538000Y-99684000D01*
X152538000Y-99557691D01*
X152441327Y-99324302D01*
X152262699Y-99145673D01*
X152029310Y-99049000D01*
X151288750Y-99049000D01*
X151130000Y-99207750D01*
X150876000Y-99207750D01*
X150717250Y-99049000D01*
X149976690Y-99049000D01*
X149743301Y-99145673D01*
X149564673Y-99324302D01*
X149468000Y-99557691D01*
X149236000Y-99557691D01*
X149139327Y-99324302D01*
X148960699Y-99145673D01*
X148727310Y-99049000D01*
X147986750Y-99049000D01*
X147828000Y-99207750D01*
X147574000Y-99207750D01*
X147415250Y-99049000D01*
X146674690Y-99049000D01*
X146441301Y-99145673D01*
X146262673Y-99324302D01*
X146166000Y-99557691D01*
X145934000Y-99557691D01*
X145837327Y-99324302D01*
X145658699Y-99145673D01*
X145425310Y-99049000D01*
X144684750Y-99049000D01*
X144526000Y-99207750D01*
X144272000Y-99207750D01*
X144113250Y-99049000D01*
X143372690Y-99049000D01*
X143139301Y-99145673D01*
X142960673Y-99324302D01*
X142864000Y-99557691D01*
X142632000Y-99557691D01*
X142535327Y-99324302D01*
X142356699Y-99145673D01*
X142123310Y-99049000D01*
X141382750Y-99049000D01*
X141224000Y-99207750D01*
X140970000Y-99207750D01*
X140811250Y-99049000D01*
X140206000Y-99049000D01*
X140206000Y-98231801D01*
X141378051Y-97059750D01*
X159501000Y-97059750D01*
X159501000Y-97800310D01*
X159597673Y-98033699D01*
X159776302Y-98212327D01*
X160009691Y-98309000D01*
X160750250Y-98309000D01*
X160909000Y-98150250D01*
X160909000Y-96901000D01*
X159659750Y-96901000D01*
X159501000Y-97059750D01*
X141378051Y-97059750D01*
X142690111Y-95747690D01*
X159501000Y-95747690D01*
X159501000Y-96488250D01*
X159659750Y-96647000D01*
X160909000Y-96647000D01*
X160909000Y-95397750D01*
X160750250Y-95239000D01*
X160009691Y-95239000D01*
X159776302Y-95335673D01*
X159597673Y-95514301D01*
X159501000Y-95747690D01*
X142690111Y-95747690D01*
X143990071Y-94447731D01*
X144247818Y-94499000D01*
X144550182Y-94499000D01*
X144997927Y-94409938D01*
X145505673Y-94070673D01*
X145844938Y-93562927D01*
X145964072Y-92964000D01*
X145844938Y-92365073D01*
X145505673Y-91857327D01*
X144997927Y-91518062D01*
X144550182Y-91429000D01*
X144247818Y-91429000D01*
X143800073Y-91518062D01*
X143292327Y-91857327D01*
X142953062Y-92365073D01*
X142833928Y-92964000D01*
X142915269Y-93372929D01*
X141859994Y-94428205D01*
X141857000Y-94413154D01*
X141857000Y-94302312D01*
X142203673Y-94070673D01*
X142542938Y-93562927D01*
X142662072Y-92964000D01*
X142542938Y-92365073D01*
X142203673Y-91857327D01*
X141695927Y-91518062D01*
X141248182Y-91429000D01*
X140945818Y-91429000D01*
X140498073Y-91518062D01*
X139990327Y-91857327D01*
X139651062Y-92365073D01*
X139531928Y-92964000D01*
X139651062Y-93562927D01*
X139990327Y-94070673D01*
X140259602Y-94250597D01*
X137310530Y-97199669D01*
X137247071Y-97242071D01*
X137079096Y-97493464D01*
X137035000Y-97715149D01*
X137035000Y-97715153D01*
X137020112Y-97790000D01*
X137035000Y-97864847D01*
X137035000Y-99036560D01*
X136895000Y-99036560D01*
X136647235Y-99085843D01*
X136437191Y-99226191D01*
X136296843Y-99436235D01*
X136247560Y-99684000D01*
X136247560Y-101056638D01*
X136040440Y-101263758D01*
X136040440Y-99684000D01*
X135991157Y-99436235D01*
X135850809Y-99226191D01*
X135640765Y-99085843D01*
X135393000Y-99036560D01*
X133593000Y-99036560D01*
X133345235Y-99085843D01*
X133135191Y-99226191D01*
X132994843Y-99436235D01*
X132945560Y-99684000D01*
X132945560Y-101484000D01*
X132994843Y-101731765D01*
X133135191Y-101941809D01*
X133328334Y-102070864D01*
X129733199Y-105666000D01*
X129106846Y-105666000D01*
X129031999Y-105651112D01*
X128957152Y-105666000D01*
X128957148Y-105666000D01*
X128735463Y-105710096D01*
X128484071Y-105878071D01*
X128441671Y-105941527D01*
X126602639Y-107780560D01*
X124430000Y-107780560D01*
X124182235Y-107829843D01*
X123972191Y-107970191D01*
X123831843Y-108180235D01*
X123782560Y-108428000D01*
X123782560Y-111028000D01*
X123831843Y-111275765D01*
X123972191Y-111485809D01*
X124182235Y-111626157D01*
X124430000Y-111675440D01*
X126228151Y-111675440D01*
X127924741Y-113372031D01*
X127976903Y-113450097D01*
X128054969Y-113502259D01*
X128229684Y-113619000D01*
X125355290Y-113619000D01*
X123744000Y-112007711D01*
X123744000Y-101591745D01*
X127695861Y-101591745D01*
X127769995Y-101837864D01*
X128307223Y-102030965D01*
X128877454Y-102003778D01*
X129278005Y-101837864D01*
X129352139Y-101591745D01*
X128524000Y-100763605D01*
X127695861Y-101591745D01*
X123744000Y-101591745D01*
X123744000Y-100170083D01*
X123897375Y-100399625D01*
X124388582Y-100727839D01*
X124821744Y-100814000D01*
X125114256Y-100814000D01*
X125547418Y-100727839D01*
X126038625Y-100399625D01*
X126060275Y-100367223D01*
X127077035Y-100367223D01*
X127104222Y-100937454D01*
X127270136Y-101338005D01*
X127516255Y-101412139D01*
X128344395Y-100584000D01*
X128703605Y-100584000D01*
X129531745Y-101412139D01*
X129777864Y-101338005D01*
X129780290Y-101331254D01*
X129807466Y-101396862D01*
X130211138Y-101800534D01*
X130738561Y-102019000D01*
X131309439Y-102019000D01*
X131836862Y-101800534D01*
X132240534Y-101396862D01*
X132459000Y-100869439D01*
X132459000Y-100298561D01*
X132240534Y-99771138D01*
X131836862Y-99367466D01*
X131309439Y-99149000D01*
X130738561Y-99149000D01*
X130211138Y-99367466D01*
X129807466Y-99771138D01*
X129780475Y-99836299D01*
X129777864Y-99829995D01*
X129531745Y-99755861D01*
X128703605Y-100584000D01*
X128344395Y-100584000D01*
X127516255Y-99755861D01*
X127270136Y-99829995D01*
X127077035Y-100367223D01*
X126060275Y-100367223D01*
X126366839Y-99908418D01*
X126432910Y-99576255D01*
X127695861Y-99576255D01*
X128524000Y-100404395D01*
X129352139Y-99576255D01*
X129278005Y-99330136D01*
X128740777Y-99137035D01*
X128170546Y-99164222D01*
X127769995Y-99330136D01*
X127695861Y-99576255D01*
X126432910Y-99576255D01*
X126482092Y-99329000D01*
X126366839Y-98749582D01*
X126038625Y-98258375D01*
X125740239Y-98059000D01*
X126038625Y-97859625D01*
X126366839Y-97368418D01*
X126482092Y-96789000D01*
X126366839Y-96209582D01*
X126038625Y-95718375D01*
X126020381Y-95706184D01*
X126065765Y-95697157D01*
X126275809Y-95556809D01*
X126416157Y-95346765D01*
X126465440Y-95099000D01*
X126465440Y-93971745D01*
X127695861Y-93971745D01*
X127769995Y-94217864D01*
X128307223Y-94410965D01*
X128877454Y-94383778D01*
X129278005Y-94217864D01*
X129352139Y-93971745D01*
X128524000Y-93143605D01*
X127695861Y-93971745D01*
X126465440Y-93971745D01*
X126465440Y-93399000D01*
X126416157Y-93151235D01*
X126275809Y-92941191D01*
X126065765Y-92800843D01*
X125818000Y-92751560D01*
X124118000Y-92751560D01*
X123870235Y-92800843D01*
X123744000Y-92885191D01*
X123744000Y-92747223D01*
X127077035Y-92747223D01*
X127104222Y-93317454D01*
X127270136Y-93718005D01*
X127516255Y-93792139D01*
X128344395Y-92964000D01*
X127516255Y-92135861D01*
X127270136Y-92209995D01*
X127077035Y-92747223D01*
X123744000Y-92747223D01*
X123744000Y-91956255D01*
X127695861Y-91956255D01*
X128524000Y-92784395D01*
X129352139Y-91956255D01*
X129278005Y-91710136D01*
X128740777Y-91517035D01*
X128170546Y-91544222D01*
X127769995Y-91710136D01*
X127695861Y-91956255D01*
X123744000Y-91956255D01*
X123744000Y-91573289D01*
X124212290Y-91105000D01*
X129787711Y-91105000D01*
X130089001Y-91406290D01*
X130089001Y-91869603D01*
X129807466Y-92151138D01*
X129780475Y-92216299D01*
X129777864Y-92209995D01*
X129531745Y-92135861D01*
X128703605Y-92964000D01*
X129531745Y-93792139D01*
X129777864Y-93718005D01*
X129780290Y-93711254D01*
X129807466Y-93776862D01*
X130211138Y-94180534D01*
X130738561Y-94399000D01*
X131309439Y-94399000D01*
X131836862Y-94180534D01*
X132118396Y-93899000D01*
X133271619Y-93899000D01*
X133386327Y-94070673D01*
X133894073Y-94409938D01*
X134341818Y-94499000D01*
X134644182Y-94499000D01*
X135091927Y-94409938D01*
X135599673Y-94070673D01*
X135714381Y-93899000D01*
X136573619Y-93899000D01*
X136688327Y-94070673D01*
X137196073Y-94409938D01*
X137643818Y-94499000D01*
X137946182Y-94499000D01*
X138393927Y-94409938D01*
X138901673Y-94070673D01*
X139240938Y-93562927D01*
X139360072Y-92964000D01*
X139240938Y-92365073D01*
X138901673Y-91857327D01*
X138730000Y-91742619D01*
X138730000Y-87119000D01*
X140752560Y-87119000D01*
X140752560Y-87136500D01*
X140801843Y-87384265D01*
X140942191Y-87594309D01*
X141152235Y-87734657D01*
X141400000Y-87783940D01*
X143400000Y-87783940D01*
X143647765Y-87734657D01*
X143857809Y-87594309D01*
X143998157Y-87384265D01*
X144047440Y-87136500D01*
X144047440Y-85941000D01*
X145364560Y-85941000D01*
X145364560Y-87541000D01*
X145413843Y-87788765D01*
X145554191Y-87998809D01*
X145764235Y-88139157D01*
X145877000Y-88161587D01*
X145877000Y-89061914D01*
X145858683Y-89154000D01*
X145877000Y-89246085D01*
X145931250Y-89518818D01*
X146137903Y-89828097D01*
X146215972Y-89880261D01*
X147736739Y-91401028D01*
X147755429Y-91429000D01*
X147549818Y-91429000D01*
X147102073Y-91518062D01*
X146594327Y-91857327D01*
X146255062Y-92365073D01*
X146135928Y-92964000D01*
X146255062Y-93562927D01*
X146594327Y-94070673D01*
X147102073Y-94409938D01*
X147549818Y-94499000D01*
X147852182Y-94499000D01*
X148299927Y-94409938D01*
X148807673Y-94070673D01*
X149146938Y-93562927D01*
X149266072Y-92964000D01*
X149146938Y-92365073D01*
X148807673Y-91857327D01*
X148632081Y-91740000D01*
X150071919Y-91740000D01*
X149896327Y-91857327D01*
X149557062Y-92365073D01*
X149437928Y-92964000D01*
X149557062Y-93562927D01*
X149896327Y-94070673D01*
X150404073Y-94409938D01*
X150851818Y-94499000D01*
X151154182Y-94499000D01*
X151601927Y-94409938D01*
X152109673Y-94070673D01*
X152448938Y-93562927D01*
X152568072Y-92964000D01*
X152465116Y-92446405D01*
X152780208Y-92761498D01*
X152739928Y-92964000D01*
X152859062Y-93562927D01*
X153198327Y-94070673D01*
X153706073Y-94409938D01*
X154153818Y-94499000D01*
X154456182Y-94499000D01*
X154903927Y-94409938D01*
X155411673Y-94070673D01*
X155526381Y-93899000D01*
X156385619Y-93899000D01*
X156500327Y-94070673D01*
X157008073Y-94409938D01*
X157455818Y-94499000D01*
X157758182Y-94499000D01*
X158205927Y-94409938D01*
X158713673Y-94070673D01*
X159052938Y-93562927D01*
X159172072Y-92964000D01*
X159052938Y-92365073D01*
X158713673Y-91857327D01*
X158205927Y-91518062D01*
X157758182Y-91429000D01*
X157455818Y-91429000D01*
X157008073Y-91518062D01*
X156500327Y-91857327D01*
X156385619Y-92029000D01*
X155526381Y-92029000D01*
X155411673Y-91857327D01*
X154903927Y-91518062D01*
X154456182Y-91429000D01*
X154153818Y-91429000D01*
X154102498Y-91439208D01*
X152872261Y-90208972D01*
X152820097Y-90130903D01*
X152510819Y-89924250D01*
X152238086Y-89870000D01*
X152146000Y-89851683D01*
X152053914Y-89870000D01*
X148850289Y-89870000D01*
X147747000Y-88766711D01*
X147747000Y-88161587D01*
X147859765Y-88139157D01*
X148069809Y-87998809D01*
X148210157Y-87788765D01*
X148218117Y-87748745D01*
X148483861Y-87748745D01*
X148557995Y-87994864D01*
X149095223Y-88187965D01*
X149665454Y-88160778D01*
X150066005Y-87994864D01*
X150140139Y-87748745D01*
X149312000Y-86920605D01*
X148483861Y-87748745D01*
X148218117Y-87748745D01*
X148256693Y-87554813D01*
X148304255Y-87569139D01*
X149132395Y-86741000D01*
X149491605Y-86741000D01*
X150319745Y-87569139D01*
X150565864Y-87495005D01*
X150758965Y-86957777D01*
X150731778Y-86387546D01*
X150565864Y-85986995D01*
X150319745Y-85912861D01*
X149491605Y-86741000D01*
X149132395Y-86741000D01*
X148304255Y-85912861D01*
X148256693Y-85927187D01*
X148218118Y-85733255D01*
X148483861Y-85733255D01*
X149312000Y-86561395D01*
X150140139Y-85733255D01*
X150066005Y-85487136D01*
X149528777Y-85294035D01*
X148958546Y-85321222D01*
X148557995Y-85487136D01*
X148483861Y-85733255D01*
X148218118Y-85733255D01*
X148210157Y-85693235D01*
X148069809Y-85483191D01*
X147859765Y-85342843D01*
X147612000Y-85293560D01*
X146012000Y-85293560D01*
X145764235Y-85342843D01*
X145554191Y-85483191D01*
X145413843Y-85693235D01*
X145364560Y-85941000D01*
X144047440Y-85941000D01*
X144047440Y-85231500D01*
X143998157Y-84983735D01*
X143857809Y-84773691D01*
X143652857Y-84636745D01*
X143775973Y-84510924D01*
X143990563Y-84016980D01*
X143870594Y-83771000D01*
X142527000Y-83771000D01*
X142527000Y-83791000D01*
X142273000Y-83791000D01*
X142273000Y-83771000D01*
X140929406Y-83771000D01*
X140809437Y-84016980D01*
X141024027Y-84510924D01*
X141147143Y-84636745D01*
X140942191Y-84773691D01*
X140801843Y-84983735D01*
X140752560Y-85231500D01*
X140752560Y-85249000D01*
X138730000Y-85249000D01*
X138730000Y-81104000D01*
X140733900Y-81104000D01*
X140857109Y-81723411D01*
X141207977Y-82248523D01*
X141409474Y-82383159D01*
X141024027Y-82777076D01*
X140809437Y-83271020D01*
X140929406Y-83517000D01*
X142273000Y-83517000D01*
X142273000Y-83497000D01*
X142527000Y-83497000D01*
X142527000Y-83517000D01*
X143870594Y-83517000D01*
X143990563Y-83271020D01*
X143775973Y-82777076D01*
X143390526Y-82383159D01*
X143592023Y-82248523D01*
X143942891Y-81723411D01*
X144066100Y-81104000D01*
X143942891Y-80484589D01*
X143592023Y-79959477D01*
X143230627Y-79718000D01*
X145364560Y-79718000D01*
X145364560Y-81318000D01*
X145413843Y-81565765D01*
X145554191Y-81775809D01*
X145764235Y-81916157D01*
X145877000Y-81938587D01*
X145877000Y-81949914D01*
X145858683Y-82042000D01*
X145921065Y-82355615D01*
X145931250Y-82406818D01*
X146137903Y-82716097D01*
X146215972Y-82768261D01*
X147736739Y-84289028D01*
X147788903Y-84367097D01*
X148098181Y-84573750D01*
X148357391Y-84625310D01*
X148463000Y-84646317D01*
X148555086Y-84628000D01*
X151885711Y-84628000D01*
X153116001Y-85858291D01*
X153116001Y-86359603D01*
X152834466Y-86641138D01*
X152616000Y-87168561D01*
X152616000Y-87739439D01*
X152834466Y-88266862D01*
X153238138Y-88670534D01*
X153765561Y-88889000D01*
X154336439Y-88889000D01*
X154863862Y-88670534D01*
X155267534Y-88266862D01*
X155486000Y-87739439D01*
X155486000Y-87168561D01*
X155267534Y-86641138D01*
X154986000Y-86359604D01*
X154986000Y-85563086D01*
X155004317Y-85471000D01*
X154981005Y-85353800D01*
X154931750Y-85106181D01*
X154732111Y-84807400D01*
X162641000Y-92716290D01*
X162641001Y-95538182D01*
X162530139Y-95649044D01*
X162474327Y-95514301D01*
X162295698Y-95335673D01*
X162062309Y-95239000D01*
X161321750Y-95239000D01*
X161163000Y-95397750D01*
X161163000Y-96647000D01*
X161183000Y-96647000D01*
X161183000Y-96901000D01*
X161163000Y-96901000D01*
X161163000Y-98150250D01*
X161321750Y-98309000D01*
X162062309Y-98309000D01*
X162295698Y-98212327D01*
X162474327Y-98033699D01*
X162530139Y-97898956D01*
X162706493Y-98075310D01*
X163270670Y-98309000D01*
X163881330Y-98309000D01*
X164445507Y-98075310D01*
X164877310Y-97643507D01*
X165111000Y-97079330D01*
X165111000Y-96789000D01*
X165871908Y-96789000D01*
X165987161Y-97368418D01*
X166315375Y-97859625D01*
X166613761Y-98059000D01*
X166315375Y-98258375D01*
X165987161Y-98749582D01*
X165871908Y-99329000D01*
X165987161Y-99908418D01*
X166315375Y-100399625D01*
X166806582Y-100727839D01*
X167239744Y-100814000D01*
X167532256Y-100814000D01*
X167965418Y-100727839D01*
X168456625Y-100399625D01*
X168784839Y-99908418D01*
X168900092Y-99329000D01*
X168784839Y-98749582D01*
X168456625Y-98258375D01*
X168158239Y-98059000D01*
X168456625Y-97859625D01*
X168784839Y-97368418D01*
X168900092Y-96789000D01*
X168784839Y-96209582D01*
X168456625Y-95718375D01*
X168438381Y-95706184D01*
X168483765Y-95697157D01*
X168693809Y-95556809D01*
X168834157Y-95346765D01*
X168883440Y-95099000D01*
X168883440Y-93399000D01*
X168834157Y-93151235D01*
X168693809Y-92941191D01*
X168483765Y-92800843D01*
X168236000Y-92751560D01*
X166536000Y-92751560D01*
X166288235Y-92800843D01*
X166078191Y-92941191D01*
X165937843Y-93151235D01*
X165888560Y-93399000D01*
X165888560Y-95099000D01*
X165937843Y-95346765D01*
X166078191Y-95556809D01*
X166288235Y-95697157D01*
X166333619Y-95706184D01*
X166315375Y-95718375D01*
X165987161Y-96209582D01*
X165871908Y-96789000D01*
X165111000Y-96789000D01*
X165111000Y-96468670D01*
X164877310Y-95904493D01*
X164511000Y-95538183D01*
X164511000Y-92421081D01*
X164529316Y-92328999D01*
X164511000Y-92236915D01*
X164511000Y-92236914D01*
X164456750Y-91964181D01*
X164250097Y-91654903D01*
X164172031Y-91602741D01*
X154986000Y-82416711D01*
X154986000Y-80935112D01*
X155085577Y-80868577D01*
X155402740Y-80393909D01*
X155514113Y-79834000D01*
X155402740Y-79274091D01*
X155085577Y-78799423D01*
X154610909Y-78482260D01*
X154192333Y-78399000D01*
X153909667Y-78399000D01*
X153491091Y-78482260D01*
X153016423Y-78799423D01*
X152699260Y-79274091D01*
X152587887Y-79834000D01*
X152699260Y-80393909D01*
X153016423Y-80868577D01*
X153116000Y-80935112D01*
X153116001Y-82711910D01*
X153097683Y-82804000D01*
X153170250Y-83168818D01*
X153324741Y-83400030D01*
X153369892Y-83467603D01*
X152999261Y-83096972D01*
X152947097Y-83018903D01*
X152637819Y-82812250D01*
X152365086Y-82758000D01*
X152273000Y-82739683D01*
X152180914Y-82758000D01*
X148850289Y-82758000D01*
X147948892Y-81856603D01*
X148069809Y-81775809D01*
X148210157Y-81565765D01*
X148218117Y-81525745D01*
X148483861Y-81525745D01*
X148557995Y-81771864D01*
X149095223Y-81964965D01*
X149665454Y-81937778D01*
X150066005Y-81771864D01*
X150140139Y-81525745D01*
X149312000Y-80697605D01*
X148483861Y-81525745D01*
X148218117Y-81525745D01*
X148256693Y-81331813D01*
X148304255Y-81346139D01*
X149132395Y-80518000D01*
X149491605Y-80518000D01*
X150319745Y-81346139D01*
X150565864Y-81272005D01*
X150758965Y-80734777D01*
X150731778Y-80164546D01*
X150565864Y-79763995D01*
X150319745Y-79689861D01*
X149491605Y-80518000D01*
X149132395Y-80518000D01*
X148304255Y-79689861D01*
X148256693Y-79704187D01*
X148218118Y-79510255D01*
X148483861Y-79510255D01*
X149312000Y-80338395D01*
X150140139Y-79510255D01*
X150066005Y-79264136D01*
X149528777Y-79071035D01*
X148958546Y-79098222D01*
X148557995Y-79264136D01*
X148483861Y-79510255D01*
X148218118Y-79510255D01*
X148210157Y-79470235D01*
X148069809Y-79260191D01*
X147859765Y-79119843D01*
X147612000Y-79070560D01*
X146012000Y-79070560D01*
X145764235Y-79119843D01*
X145554191Y-79260191D01*
X145413843Y-79470235D01*
X145364560Y-79718000D01*
X143230627Y-79718000D01*
X143066911Y-79608609D01*
X142603850Y-79516500D01*
X142196150Y-79516500D01*
X141733089Y-79608609D01*
X141207977Y-79959477D01*
X140857109Y-80484589D01*
X140733900Y-81104000D01*
X138730000Y-81104000D01*
X138730000Y-80778289D01*
X141357290Y-78151000D01*
X157600711Y-78151000D01*
X159720001Y-80270290D01*
X159720000Y-81631860D01*
X159558910Y-81698586D01*
X159014586Y-82242910D01*
X158720000Y-82954105D01*
X158720000Y-83723895D01*
X159014586Y-84435090D01*
X159558910Y-84979414D01*
X160270105Y-85274000D01*
X161039895Y-85274000D01*
X161751090Y-84979414D01*
X162295414Y-84435090D01*
X162590000Y-83723895D01*
X162590000Y-83624750D01*
X163800000Y-83624750D01*
X163800000Y-84765310D01*
X163896673Y-84998699D01*
X164075302Y-85177327D01*
X164308691Y-85274000D01*
X165449250Y-85274000D01*
X165608000Y-85115250D01*
X165608000Y-83466000D01*
X165862000Y-83466000D01*
X165862000Y-85115250D01*
X166020750Y-85274000D01*
X167161309Y-85274000D01*
X167394698Y-85177327D01*
X167573327Y-84998699D01*
X167670000Y-84765310D01*
X167670000Y-83624750D01*
X167511250Y-83466000D01*
X165862000Y-83466000D01*
X165608000Y-83466000D01*
X163958750Y-83466000D01*
X163800000Y-83624750D01*
X162590000Y-83624750D01*
X162590000Y-82954105D01*
X162295414Y-82242910D01*
X161965194Y-81912690D01*
X163800000Y-81912690D01*
X163800000Y-83053250D01*
X163958750Y-83212000D01*
X165608000Y-83212000D01*
X165608000Y-81562750D01*
X165862000Y-81562750D01*
X165862000Y-83212000D01*
X167511250Y-83212000D01*
X167670000Y-83053250D01*
X167670000Y-81912690D01*
X167573327Y-81679301D01*
X167394698Y-81500673D01*
X167161309Y-81404000D01*
X166020750Y-81404000D01*
X165862000Y-81562750D01*
X165608000Y-81562750D01*
X165449250Y-81404000D01*
X164308691Y-81404000D01*
X164075302Y-81500673D01*
X163896673Y-81679301D01*
X163800000Y-81912690D01*
X161965194Y-81912690D01*
X161751090Y-81698586D01*
X161590000Y-81631860D01*
X161590000Y-79975086D01*
X161608317Y-79883000D01*
X161535750Y-79518181D01*
X161481963Y-79437683D01*
X161329097Y-79208903D01*
X161251028Y-79156739D01*
X158714261Y-76619972D01*
X158662097Y-76541903D01*
X158352819Y-76335250D01*
X158080086Y-76281000D01*
X157988000Y-76262683D01*
X157895914Y-76281000D01*
X141062085Y-76281000D01*
X140969999Y-76262683D01*
X140605181Y-76335250D01*
X140295903Y-76541903D01*
X140243741Y-76619969D01*
X137198972Y-79664739D01*
X137120903Y-79716903D01*
X136925928Y-80008704D01*
X136914250Y-80026182D01*
X136890496Y-80145602D01*
X136873793Y-80129348D01*
X136843634Y-80109785D01*
X136799536Y-80092219D01*
X136781675Y-80079784D01*
X136760867Y-80075230D01*
X136756914Y-80072014D01*
X136731400Y-80064392D01*
X136643837Y-80024181D01*
X136606105Y-80015181D01*
X136560944Y-80013473D01*
X136517646Y-80000539D01*
X136486366Y-79997592D01*
X136460338Y-80000267D01*
X136434742Y-79994825D01*
X136378792Y-79994090D01*
X136302418Y-80008242D01*
X136276362Y-80009106D01*
X136257301Y-80007546D01*
X136249699Y-80009990D01*
X136224789Y-80010816D01*
X136184960Y-80020121D01*
X136148120Y-80036832D01*
X136133256Y-80039586D01*
X136120765Y-80047697D01*
X136099949Y-80058134D01*
X136048760Y-80074592D01*
X136046171Y-80072736D01*
X136040749Y-80071471D01*
X136032306Y-80065391D01*
X136031433Y-80064993D01*
X136022646Y-80062923D01*
X136015176Y-80057852D01*
X135986058Y-80045541D01*
X135955799Y-80039292D01*
X135928695Y-80024456D01*
X135914270Y-80019923D01*
X135868110Y-80014912D01*
X135824604Y-79998699D01*
X135768940Y-80000702D01*
X135741503Y-79995036D01*
X135721050Y-79998949D01*
X135666013Y-79992975D01*
X135630982Y-80003222D01*
X135606324Y-80003089D01*
X135567331Y-79995036D01*
X135546878Y-79998949D01*
X135491841Y-79992975D01*
X135482090Y-79995827D01*
X135471501Y-79993211D01*
X135431642Y-79991381D01*
X135379141Y-79999341D01*
X135358723Y-79997999D01*
X135345625Y-80002443D01*
X135283360Y-80001855D01*
X135211633Y-80015420D01*
X135188365Y-80024802D01*
X135169639Y-80021447D01*
X135163108Y-80018153D01*
X135143283Y-80016675D01*
X135029007Y-79994108D01*
X135023351Y-79995241D01*
X135017674Y-79994224D01*
X134979699Y-79994949D01*
X134947232Y-80002054D01*
X134914084Y-79999582D01*
X134901614Y-80001110D01*
X134880926Y-80003469D01*
X134875382Y-80002904D01*
X134864607Y-80001565D01*
X134849855Y-80002639D01*
X134835615Y-79998630D01*
X134791998Y-79995217D01*
X134688841Y-80007471D01*
X134585101Y-80012810D01*
X134555790Y-80020225D01*
X134547947Y-80023957D01*
X134540930Y-80024506D01*
X134514823Y-80014142D01*
X134445572Y-80001429D01*
X134334857Y-80003067D01*
X134224182Y-79999721D01*
X134154837Y-80011348D01*
X134064633Y-80045556D01*
X134046721Y-80050554D01*
X134028821Y-80052458D01*
X134017183Y-80058796D01*
X133971706Y-80071485D01*
X133970743Y-80071972D01*
X133963363Y-80068476D01*
X133938877Y-80062326D01*
X133917498Y-80048898D01*
X133885238Y-80036590D01*
X133840504Y-80028997D01*
X133829751Y-80024383D01*
X133827258Y-80024351D01*
X133790965Y-80008704D01*
X133771973Y-80004642D01*
X133717253Y-80003856D01*
X133664053Y-79991012D01*
X133639464Y-79994874D01*
X133639044Y-79994803D01*
X133637118Y-79995243D01*
X133593595Y-80002079D01*
X133550077Y-80001454D01*
X133525425Y-79993882D01*
X133524532Y-79993791D01*
X133482361Y-79997796D01*
X133441028Y-79990872D01*
X133403554Y-79999518D01*
X133399613Y-79999335D01*
X133376230Y-79993949D01*
X133325795Y-79992433D01*
X133295413Y-79997533D01*
X133290746Y-79997099D01*
X133282149Y-79999759D01*
X133273178Y-80001265D01*
X133219923Y-79998036D01*
X133167982Y-80005133D01*
X133132662Y-80017316D01*
X133123721Y-80014782D01*
X133075469Y-80010923D01*
X133030048Y-79995678D01*
X133017405Y-79996550D01*
X133005183Y-79992984D01*
X133004659Y-79992938D01*
X132942345Y-79999744D01*
X132921989Y-79997167D01*
X132917799Y-79998312D01*
X132874801Y-79994873D01*
X132829554Y-80009511D01*
X132780925Y-80012866D01*
X132780859Y-80012899D01*
X132746234Y-80010129D01*
X132690830Y-79993444D01*
X132688313Y-79993697D01*
X132685869Y-79992984D01*
X132685345Y-79992938D01*
X132623031Y-79999744D01*
X132602675Y-79997167D01*
X132598485Y-79998312D01*
X132555487Y-79994873D01*
X132500888Y-80012537D01*
X132442366Y-80018419D01*
X132439897Y-80019745D01*
X132437106Y-80020050D01*
X132380938Y-80050843D01*
X132341801Y-80033299D01*
X132220687Y-80005569D01*
X132099341Y-79977595D01*
X132098859Y-79977676D01*
X132098384Y-79977567D01*
X131976026Y-79998271D01*
X131919536Y-80007743D01*
X131859521Y-79997627D01*
X131740307Y-79976093D01*
X131736573Y-79976904D01*
X131732803Y-79976269D01*
X131614732Y-80003382D01*
X131571365Y-80012807D01*
X131529308Y-80008146D01*
X131421654Y-79990696D01*
X131350827Y-79993222D01*
X131239130Y-80019611D01*
X131222387Y-80023003D01*
X131214036Y-80015832D01*
X131212246Y-80012812D01*
X131198635Y-80002610D01*
X131175104Y-79982406D01*
X131140850Y-79946796D01*
X131126709Y-79940614D01*
X131077482Y-79898083D01*
X131076523Y-79897765D01*
X131075756Y-79897107D01*
X131050027Y-79882610D01*
X131029618Y-79875920D01*
X131012432Y-79863038D01*
X131006253Y-79860077D01*
X131006251Y-79860077D01*
X130977709Y-79846376D01*
X130958664Y-79841489D01*
X130949900Y-79835039D01*
X130943600Y-79833485D01*
X130934106Y-79827406D01*
X130911718Y-79818640D01*
X130808877Y-79800261D01*
X130707449Y-79775247D01*
X130690802Y-79774490D01*
X130676688Y-79776636D01*
X130665898Y-79774708D01*
X130612788Y-79786353D01*
X130604380Y-79787632D01*
X130593642Y-79786466D01*
X130573946Y-79792227D01*
X130459144Y-79806738D01*
X130452025Y-79810799D01*
X130443925Y-79812031D01*
X130385459Y-79847365D01*
X130353969Y-79856576D01*
X130310484Y-79891545D01*
X130242242Y-79930476D01*
X130230548Y-79940624D01*
X130199213Y-79981026D01*
X130171625Y-80003211D01*
X130093190Y-80019399D01*
X130065056Y-80031290D01*
X130060759Y-80031393D01*
X130024718Y-80047349D01*
X129962555Y-80061379D01*
X129940696Y-80071097D01*
X129897043Y-80101912D01*
X129895289Y-80102317D01*
X129892797Y-80104094D01*
X129863175Y-80116614D01*
X129859239Y-80120607D01*
X129832419Y-80132480D01*
X129789852Y-80162429D01*
X129745734Y-80208724D01*
X129736690Y-80215108D01*
X129736316Y-80215700D01*
X129691985Y-80247318D01*
X129654626Y-80287028D01*
X129633931Y-80320144D01*
X129631662Y-80321802D01*
X129627357Y-80328872D01*
X129596739Y-80358146D01*
X129593207Y-80363182D01*
X129583075Y-80386169D01*
X129566317Y-80404884D01*
X129551966Y-80429157D01*
X129534230Y-80479681D01*
X129522287Y-80498792D01*
X129521674Y-80502456D01*
X129501802Y-80535095D01*
X129492315Y-80561041D01*
X129483045Y-80620686D01*
X129461838Y-80677202D01*
X129456234Y-80711358D01*
X129457404Y-80746037D01*
X129448766Y-80779644D01*
X129446062Y-80828547D01*
X129448074Y-80842708D01*
X129445126Y-80856705D01*
X129444339Y-80926889D01*
X129444962Y-80930216D01*
X129444299Y-80933536D01*
X129444286Y-80949271D01*
X129444794Y-80951836D01*
X129444303Y-80954401D01*
X129444339Y-80959408D01*
X129444341Y-80959419D01*
X129444339Y-80959430D01*
X129444843Y-81029210D01*
X129447222Y-81040733D01*
X129445429Y-81052363D01*
X129447699Y-81104617D01*
X129454847Y-81133855D01*
X129453045Y-81163903D01*
X129458017Y-81200113D01*
X129476628Y-81253956D01*
X129483297Y-81310530D01*
X129491942Y-81337180D01*
X129523229Y-81393110D01*
X129543207Y-81454006D01*
X129556500Y-81477583D01*
X129572768Y-81496521D01*
X129582353Y-81519572D01*
X129585290Y-81523956D01*
X129609458Y-81548057D01*
X129625810Y-81578013D01*
X129675180Y-81637102D01*
X129751470Y-81698596D01*
X129822226Y-81766384D01*
X129876022Y-81800687D01*
X129983592Y-81842568D01*
X130089838Y-81887655D01*
X130155331Y-81901271D01*
X130211607Y-81901757D01*
X130266445Y-81914382D01*
X130288685Y-81915048D01*
X130344653Y-81905647D01*
X130401337Y-81908469D01*
X130484610Y-81896172D01*
X130585870Y-81860015D01*
X130586679Y-81859775D01*
X130634245Y-81870904D01*
X130730720Y-81901313D01*
X130810456Y-81910038D01*
X130885107Y-81903500D01*
X130959849Y-81908843D01*
X130963657Y-81908365D01*
X130942541Y-81960683D01*
X130909012Y-82010952D01*
X130896259Y-82075348D01*
X130871690Y-82136219D01*
X130872238Y-82196640D01*
X130860500Y-82255910D01*
X130873360Y-82320279D01*
X130873955Y-82385925D01*
X130897585Y-82441539D01*
X130909421Y-82500787D01*
X130945935Y-82555335D01*
X130971606Y-82615755D01*
X131020332Y-82687265D01*
X131019294Y-82687262D01*
X131010077Y-82689066D01*
X131009568Y-82689275D01*
X131009014Y-82689274D01*
X130932814Y-82704314D01*
X130874108Y-82728529D01*
X130811826Y-82740918D01*
X130759805Y-82775677D01*
X130701966Y-82799535D01*
X130656996Y-82844373D01*
X130604195Y-82879653D01*
X130569435Y-82931675D01*
X130525129Y-82975850D01*
X130500741Y-83034482D01*
X130465460Y-83087284D01*
X130453254Y-83148649D01*
X130429226Y-83206415D01*
X130429132Y-83269918D01*
X130416743Y-83332201D01*
X130416743Y-83649508D01*
X130416847Y-83650033D01*
X130416744Y-83650557D01*
X130416915Y-83754895D01*
X130417380Y-83757212D01*
X130416939Y-83759537D01*
X130417641Y-83838478D01*
X130418813Y-83844106D01*
X130417841Y-83849773D01*
X130419359Y-83906948D01*
X130422258Y-83919736D01*
X130420565Y-83932736D01*
X130423180Y-83971775D01*
X130431143Y-84001325D01*
X130430077Y-84031911D01*
X130434074Y-84056445D01*
X130460048Y-84125903D01*
X130474537Y-84198631D01*
X130480200Y-84212291D01*
X130494666Y-84233927D01*
X130494994Y-84235360D01*
X130495878Y-84236605D01*
X130503050Y-84261420D01*
X130517478Y-84279481D01*
X130521539Y-84290341D01*
X130537917Y-84307902D01*
X130541620Y-84317487D01*
X130571490Y-84348828D01*
X130618997Y-84419880D01*
X130632475Y-84428880D01*
X130639617Y-84438933D01*
X130650122Y-84445525D01*
X130658909Y-84456525D01*
X130666520Y-84462941D01*
X130695470Y-84478909D01*
X130713905Y-84498252D01*
X130780535Y-84527745D01*
X130826671Y-84558551D01*
X130831888Y-84559587D01*
X130851135Y-84571665D01*
X130854258Y-84572855D01*
X130870895Y-84575672D01*
X130885178Y-84583550D01*
X130913857Y-84586757D01*
X130942251Y-84599325D01*
X130961086Y-84603544D01*
X130967839Y-84603706D01*
X130974072Y-84606312D01*
X131015682Y-84614730D01*
X131017509Y-84614736D01*
X131019196Y-84615430D01*
X131025240Y-84616618D01*
X131021806Y-84620388D01*
X130992904Y-84668345D01*
X130984832Y-84690733D01*
X130970143Y-84709455D01*
X130953179Y-84742939D01*
X130938230Y-84796414D01*
X130911972Y-84845335D01*
X130905249Y-84867360D01*
X130904048Y-84879336D01*
X130898752Y-84890146D01*
X130894892Y-84951442D01*
X130885949Y-84983434D01*
X130886473Y-84987779D01*
X130882954Y-84998990D01*
X130887227Y-85047138D01*
X130880341Y-85115829D01*
X130882913Y-85124360D01*
X130882290Y-85130699D01*
X130883379Y-85134285D01*
X130883059Y-85139368D01*
X130884882Y-85152946D01*
X130900725Y-85199227D01*
X130905029Y-85247728D01*
X130931499Y-85298422D01*
X130932673Y-85305938D01*
X130938311Y-85315183D01*
X130954848Y-85369640D01*
X130954894Y-85369727D01*
X130962088Y-85378488D01*
X130965756Y-85389203D01*
X130998000Y-85425780D01*
X131020611Y-85469084D01*
X131034961Y-85486917D01*
X131051479Y-85500742D01*
X131062695Y-85519133D01*
X131094432Y-85553613D01*
X131100069Y-85557727D01*
X131103829Y-85563605D01*
X131149516Y-85611154D01*
X131152842Y-85613474D01*
X131155070Y-85616863D01*
X131211264Y-85673909D01*
X131213927Y-85675718D01*
X131215722Y-85678390D01*
X131278986Y-85741357D01*
X131280378Y-85742282D01*
X131281319Y-85743668D01*
X131288453Y-85750696D01*
X131290791Y-85752233D01*
X131292381Y-85754532D01*
X131372109Y-85831739D01*
X131378900Y-85836121D01*
X131383661Y-85842651D01*
X131445188Y-85899341D01*
X131458676Y-85907576D01*
X131468597Y-85919880D01*
X131513161Y-85957100D01*
X131546663Y-85975380D01*
X131573954Y-86002055D01*
X131602790Y-86020850D01*
X131705353Y-86061968D01*
X131732368Y-86076708D01*
X131742924Y-86077840D01*
X131796312Y-86104491D01*
X131813362Y-86105692D01*
X131832182Y-86113320D01*
X131844884Y-86115746D01*
X131945274Y-86114982D01*
X132045411Y-86122034D01*
X132069351Y-86114037D01*
X132094592Y-86113845D01*
X132187042Y-86074723D01*
X132282261Y-86042916D01*
X132300797Y-86032334D01*
X132312413Y-86022246D01*
X132326754Y-86016688D01*
X132365221Y-85992244D01*
X132368612Y-85989005D01*
X132372961Y-85987247D01*
X132384658Y-85979575D01*
X132389944Y-86006769D01*
X132391387Y-86010296D01*
X132391415Y-86014105D01*
X132396583Y-86039127D01*
X132400094Y-86047431D01*
X132400410Y-86056442D01*
X132400500Y-86056824D01*
X132406934Y-86070936D01*
X132407725Y-86083818D01*
X132409273Y-86086990D01*
X132409676Y-86091408D01*
X132412821Y-86102052D01*
X132430567Y-86135837D01*
X132433454Y-86153457D01*
X132469498Y-86211577D01*
X132493832Y-86269128D01*
X132500102Y-86275306D01*
X132504084Y-86284042D01*
X132506589Y-86286377D01*
X132517255Y-86308231D01*
X132523370Y-86316268D01*
X132527046Y-86319519D01*
X132528941Y-86323126D01*
X132549079Y-86339898D01*
X132565065Y-86365675D01*
X132640688Y-86420004D01*
X132710442Y-86481682D01*
X132741335Y-86492310D01*
X132767870Y-86511373D01*
X132780619Y-86517167D01*
X132861000Y-86536011D01*
X132938138Y-86565472D01*
X132961185Y-86569392D01*
X132994594Y-86568460D01*
X133026877Y-86577098D01*
X133063887Y-86579510D01*
X133077366Y-86577730D01*
X133090636Y-86580692D01*
X133145271Y-86581962D01*
X133150641Y-86581023D01*
X133155980Y-86582121D01*
X133231903Y-86582615D01*
X133233715Y-86582267D01*
X133235528Y-86582629D01*
X133336405Y-86582714D01*
X133336675Y-86582661D01*
X133336944Y-86582714D01*
X133350000Y-86582714D01*
X133350191Y-86582676D01*
X133350382Y-86582714D01*
X133454292Y-86582652D01*
X133455853Y-86582340D01*
X133457414Y-86582642D01*
X133535958Y-86582212D01*
X133540744Y-86581233D01*
X133545557Y-86582088D01*
X133602401Y-86580924D01*
X133614409Y-86578279D01*
X133626589Y-86579971D01*
X133665396Y-86577706D01*
X133694611Y-86570101D01*
X133724766Y-86571451D01*
X133749199Y-86567718D01*
X133819557Y-86542198D01*
X133893072Y-86528140D01*
X133906796Y-86522574D01*
X133929157Y-86507871D01*
X133954937Y-86500692D01*
X133973017Y-86486535D01*
X133983949Y-86482570D01*
X134018944Y-86450573D01*
X134024028Y-86446593D01*
X134027767Y-86445080D01*
X134034042Y-86438906D01*
X134115448Y-86385380D01*
X134130480Y-86363240D01*
X134151551Y-86346741D01*
X134158228Y-86338974D01*
X134159614Y-86336519D01*
X134161819Y-86334761D01*
X134181682Y-86298844D01*
X134194333Y-86287129D01*
X134199305Y-86276319D01*
X134205778Y-86269951D01*
X134225647Y-86223069D01*
X134255715Y-86178782D01*
X134259805Y-86158988D01*
X134280961Y-86121501D01*
X134281301Y-86118705D01*
X134282667Y-86116235D01*
X134285963Y-86105903D01*
X134288656Y-86082060D01*
X134298682Y-86060261D01*
X134299002Y-86058923D01*
X134299380Y-86049091D01*
X134303219Y-86040032D01*
X134308225Y-86015896D01*
X134308258Y-86011883D01*
X134309778Y-86008169D01*
X134315348Y-85979548D01*
X134318645Y-85980888D01*
X134321511Y-85983650D01*
X134363899Y-86010843D01*
X134373865Y-86014755D01*
X134381817Y-86021926D01*
X134405166Y-86035842D01*
X134411986Y-86038263D01*
X134416519Y-86042217D01*
X134441186Y-86050517D01*
X134462737Y-86066297D01*
X134464954Y-86067329D01*
X134557395Y-86089884D01*
X134640492Y-86119383D01*
X134645134Y-86119143D01*
X134653195Y-86121856D01*
X134680736Y-86119977D01*
X134707552Y-86126520D01*
X134804474Y-86111536D01*
X134841714Y-86108995D01*
X134860036Y-86108049D01*
X134890277Y-86107402D01*
X134894908Y-86105366D01*
X134902331Y-86104860D01*
X134919299Y-86100266D01*
X134938261Y-86090852D01*
X134954336Y-86088367D01*
X135003726Y-86058352D01*
X135018009Y-86051261D01*
X135118885Y-86006923D01*
X135150576Y-85984752D01*
X135172398Y-85961975D01*
X135199903Y-85946530D01*
X135247554Y-85905738D01*
X135256070Y-85894910D01*
X135267785Y-85887662D01*
X135332631Y-85827204D01*
X135336555Y-85821754D01*
X135342192Y-85818104D01*
X135408391Y-85753782D01*
X135410422Y-85750835D01*
X135413406Y-85748856D01*
X135477223Y-85685471D01*
X135478988Y-85682849D01*
X135481604Y-85681077D01*
X135538718Y-85623238D01*
X135540864Y-85619982D01*
X135544066Y-85617757D01*
X135591042Y-85569034D01*
X135594509Y-85563635D01*
X135599702Y-85559872D01*
X135633100Y-85523837D01*
X135642546Y-85508468D01*
X135656543Y-85497089D01*
X135672925Y-85477316D01*
X135696311Y-85434048D01*
X135729308Y-85397579D01*
X135729917Y-85396561D01*
X135731422Y-85392343D01*
X135734382Y-85388980D01*
X135745110Y-85357558D01*
X135748169Y-85353800D01*
X135758168Y-85320345D01*
X135763855Y-85311091D01*
X135764312Y-85308232D01*
X135791659Y-85257634D01*
X135796606Y-85209682D01*
X135813846Y-85161372D01*
X135813622Y-85156899D01*
X135815070Y-85152659D01*
X135816881Y-85139090D01*
X135816082Y-85126563D01*
X135819675Y-85114541D01*
X135813065Y-85050146D01*
X135817286Y-85009237D01*
X135812521Y-84993263D01*
X135813770Y-84982818D01*
X135804902Y-84951229D01*
X135800990Y-84889881D01*
X135795459Y-84878616D01*
X135794178Y-84866131D01*
X135787356Y-84843971D01*
X135761174Y-84795468D01*
X135746275Y-84742397D01*
X135729132Y-84708652D01*
X135714565Y-84690128D01*
X135706564Y-84667963D01*
X135677417Y-84619641D01*
X135674660Y-84616617D01*
X135701310Y-84611332D01*
X135703871Y-84610273D01*
X135706645Y-84610251D01*
X135739592Y-84603426D01*
X135748599Y-84599611D01*
X135758374Y-84599240D01*
X135766455Y-84597311D01*
X135783381Y-84589535D01*
X135787937Y-84589265D01*
X135850551Y-84558878D01*
X135935020Y-84530685D01*
X135943368Y-84525923D01*
X135963162Y-84508743D01*
X135969536Y-84506043D01*
X135973192Y-84502328D01*
X135993368Y-84493059D01*
X135999249Y-84486713D01*
X136012594Y-84480237D01*
X136068439Y-84417364D01*
X136131953Y-84362236D01*
X136143412Y-84339296D01*
X136156405Y-84326882D01*
X136163902Y-84309889D01*
X136178427Y-84293536D01*
X136184728Y-84282780D01*
X136198632Y-84242655D01*
X136203716Y-84236365D01*
X136216559Y-84192857D01*
X136243542Y-84138839D01*
X136244339Y-84127565D01*
X136257200Y-84098413D01*
X136261739Y-84078033D01*
X136262166Y-84059309D01*
X136266490Y-84046830D01*
X136265350Y-84027575D01*
X136274415Y-83996867D01*
X136277474Y-83963231D01*
X136275631Y-83945851D01*
X136279669Y-83928850D01*
X136281532Y-83878330D01*
X136280319Y-83870787D01*
X136281910Y-83863312D01*
X136282861Y-83792276D01*
X136282267Y-83789068D01*
X136282914Y-83785873D01*
X136283236Y-83690689D01*
X136283052Y-83689747D01*
X136283240Y-83688803D01*
X136283257Y-83649787D01*
X136283229Y-83649647D01*
X136283257Y-83649508D01*
X136283257Y-83332201D01*
X136270868Y-83269916D01*
X136270774Y-83206415D01*
X136246746Y-83148649D01*
X136234540Y-83087284D01*
X136199259Y-83034482D01*
X136174871Y-82975850D01*
X136130565Y-82931675D01*
X136095805Y-82879653D01*
X136043004Y-82844373D01*
X135998034Y-82799535D01*
X135940195Y-82775677D01*
X135888174Y-82740918D01*
X135825892Y-82728529D01*
X135767186Y-82704314D01*
X135690986Y-82689274D01*
X135689417Y-82689276D01*
X135687966Y-82688686D01*
X135679650Y-82687086D01*
X135728625Y-82615048D01*
X135754101Y-82554912D01*
X135790430Y-82500640D01*
X135802333Y-82441060D01*
X135826033Y-82385115D01*
X135826557Y-82319806D01*
X135839351Y-82255763D01*
X135827548Y-82196164D01*
X135828035Y-82135407D01*
X135803527Y-82074871D01*
X135790839Y-82010804D01*
X135757126Y-81960257D01*
X135734326Y-81903941D01*
X135688517Y-81857391D01*
X135676237Y-81838980D01*
X135733814Y-81848230D01*
X135821213Y-81872251D01*
X135890953Y-81877272D01*
X135974240Y-81866851D01*
X136058175Y-81867331D01*
X136123864Y-81854655D01*
X136162755Y-81838806D01*
X136247571Y-81852382D01*
X136351415Y-81875348D01*
X136421835Y-81876849D01*
X136513872Y-81860572D01*
X136607078Y-81853559D01*
X136675200Y-81834599D01*
X136762742Y-81790372D01*
X136853725Y-81753766D01*
X136860000Y-81749665D01*
X136860001Y-86013910D01*
X136841683Y-86106000D01*
X136860000Y-86198086D01*
X136860001Y-91742618D01*
X136688327Y-91857327D01*
X136573619Y-92029000D01*
X135714381Y-92029000D01*
X135599673Y-91857327D01*
X135091927Y-91518062D01*
X134644182Y-91429000D01*
X134341818Y-91429000D01*
X133894073Y-91518062D01*
X133386327Y-91857327D01*
X133271619Y-92029000D01*
X132118396Y-92029000D01*
X131959000Y-91869604D01*
X131959000Y-91111081D01*
X131977316Y-91018999D01*
X131959000Y-90926917D01*
X131959000Y-90926914D01*
X131904750Y-90654181D01*
X131698097Y-90344903D01*
X131620030Y-90292741D01*
X130901261Y-89573972D01*
X130849097Y-89495903D01*
X130539819Y-89289250D01*
X130267086Y-89235000D01*
X130175000Y-89216683D01*
X130082914Y-89235000D01*
X123917086Y-89235000D01*
X123825000Y-89216683D01*
X123732914Y-89235000D01*
X123460181Y-89289250D01*
X123150903Y-89495903D01*
X123098741Y-89573969D01*
X122212972Y-90459739D01*
X122134903Y-90511903D01*
X121965101Y-90766030D01*
X121928250Y-90821182D01*
X121855683Y-91186000D01*
X120090000Y-91186000D01*
X120090000Y-83644000D01*
X123308276Y-83644000D01*
X123493380Y-84574580D01*
X124020511Y-85363489D01*
X124809420Y-85890620D01*
X125505103Y-86029000D01*
X125974897Y-86029000D01*
X126670580Y-85890620D01*
X127459489Y-85363489D01*
X127986620Y-84574580D01*
X128171724Y-83644000D01*
X127986620Y-82713420D01*
X127459489Y-81924511D01*
X126670580Y-81397380D01*
X125974897Y-81259000D01*
X125505103Y-81259000D01*
X124809420Y-81397380D01*
X124020511Y-81924511D01*
X123493380Y-82713420D01*
X123308276Y-83644000D01*
X120090000Y-83644000D01*
X120090000Y-75640000D01*
X172010000Y-75640000D01*
X172010001Y-119940000D01*
G36*
X146177000Y-109728000D02*
X146197000Y-109728000D01*
X146197000Y-109982000D01*
X146177000Y-109982000D01*
X146177000Y-111225997D01*
X146414742Y-111346046D01*
X146957576Y-111092966D01*
X147312376Y-110705826D01*
X147483327Y-110961673D01*
X147991073Y-111300938D01*
X148438818Y-111390000D01*
X148741182Y-111390000D01*
X149188927Y-111300938D01*
X149696673Y-110961673D01*
X149860000Y-110717237D01*
X150023327Y-110961673D01*
X150195000Y-111076382D01*
X150195000Y-111753710D01*
X148329711Y-113619000D01*
X135930316Y-113619000D01*
X136183097Y-113450097D01*
X136235261Y-113372028D01*
X138227498Y-111379792D01*
X138278818Y-111390000D01*
X138581182Y-111390000D01*
X139028927Y-111300938D01*
X139536673Y-110961673D01*
X139700000Y-110717237D01*
X139863327Y-110961673D01*
X140371073Y-111300938D01*
X140818818Y-111390000D01*
X141121182Y-111390000D01*
X141568927Y-111300938D01*
X142076673Y-110961673D01*
X142240000Y-110717237D01*
X142403327Y-110961673D01*
X142911073Y-111300938D01*
X143358818Y-111390000D01*
X143661182Y-111390000D01*
X144108927Y-111300938D01*
X144616673Y-110961673D01*
X144787624Y-110705826D01*
X145142424Y-111092966D01*
X145685258Y-111346046D01*
X145923000Y-111225997D01*
X145923000Y-109982000D01*
X145903000Y-109982000D01*
X145903000Y-109728000D01*
X145923000Y-109728000D01*
X145923000Y-109708000D01*
X146177000Y-109708000D01*
X146177000Y-109728000D01*
X146177000Y-109728000D01*
G37*
X146177000Y-109728000D02*
X146197000Y-109728000D01*
X146197000Y-109982000D01*
X146177000Y-109982000D01*
X146177000Y-111225997D01*
X146414742Y-111346046D01*
X146957576Y-111092966D01*
X147312376Y-110705826D01*
X147483327Y-110961673D01*
X147991073Y-111300938D01*
X148438818Y-111390000D01*
X148741182Y-111390000D01*
X149188927Y-111300938D01*
X149696673Y-110961673D01*
X149860000Y-110717237D01*
X150023327Y-110961673D01*
X150195000Y-111076382D01*
X150195000Y-111753710D01*
X148329711Y-113619000D01*
X135930316Y-113619000D01*
X136183097Y-113450097D01*
X136235261Y-113372028D01*
X138227498Y-111379792D01*
X138278818Y-111390000D01*
X138581182Y-111390000D01*
X139028927Y-111300938D01*
X139536673Y-110961673D01*
X139700000Y-110717237D01*
X139863327Y-110961673D01*
X140371073Y-111300938D01*
X140818818Y-111390000D01*
X141121182Y-111390000D01*
X141568927Y-111300938D01*
X142076673Y-110961673D01*
X142240000Y-110717237D01*
X142403327Y-110961673D01*
X142911073Y-111300938D01*
X143358818Y-111390000D01*
X143661182Y-111390000D01*
X144108927Y-111300938D01*
X144616673Y-110961673D01*
X144787624Y-110705826D01*
X145142424Y-111092966D01*
X145685258Y-111346046D01*
X145923000Y-111225997D01*
X145923000Y-109982000D01*
X145903000Y-109982000D01*
X145903000Y-109728000D01*
X145923000Y-109728000D01*
X145923000Y-109708000D01*
X146177000Y-109708000D01*
X146177000Y-109728000D01*
G04 #@! TD*
M02*
