M48
;DRILL file {KiCad (5.0.2)-1} date 05/10/20 23:04:07
;FORMAT={-:-/ absolute / inch / decimal}
FMAT,2
INCH,TZ
T1C0.0315
T2C0.0354
T3C0.0394
T4C0.0433
T5C0.0512
T6C0.1378
%
G90
G05
T1
X5.78Y-3.17
X5.8784Y-3.17
X5.06Y-3.96
X5.1584Y-3.96
X5.06Y-3.66
X5.1584Y-3.66
X5.78Y-3.415
X5.8784Y-3.415
X6.065Y-3.1431
X6.065Y-3.4431
T2
X5.425Y-3.66
X5.425Y-3.96
X5.555Y-3.66
X5.555Y-3.96
X6.205Y-3.66
X6.205Y-3.96
X6.075Y-3.66
X6.075Y-3.96
X5.945Y-3.66
X5.945Y-3.96
X5.815Y-3.66
X5.815Y-3.96
X5.685Y-3.66
X5.685Y-3.96
X6.34Y-3.81
X6.44Y-3.81
X5.295Y-3.66
X5.295Y-3.96
T3
X5.4Y-4.125
X5.45Y-4.325
X5.5Y-4.125
X5.55Y-4.325
X5.6Y-4.125
X5.65Y-4.325
X5.7Y-4.125
X5.75Y-4.325
X5.8Y-4.125
X5.85Y-4.325
X5.9Y-4.125
X5.95Y-4.325
X6.Y-4.125
X6.05Y-4.325
X6.1Y-4.125
X4.92Y-3.7106
X4.92Y-3.8106
X4.92Y-3.9106
X6.59Y-3.7106
X6.59Y-3.8106
X6.59Y-3.9106
T4
X5.6063Y-3.1931
X5.6063Y-3.2931
X5.6063Y-3.3931
T5
X6.325Y-3.2811
X6.525Y-3.2811
X6.35Y-4.32
X6.55Y-4.32
X4.95Y-4.32
X5.15Y-4.32
T6
X4.9504Y-3.2931
T0
M30
