G04 #@! TF.GenerationSoftware,KiCad,Pcbnew,(5.0.2)-1*
G04 #@! TF.CreationDate,2020-05-10T23:04:12+05:30*
G04 #@! TF.ProjectId,L298 Module,4c323938-204d-46f6-9475-6c652e6b6963,V1.0*
G04 #@! TF.SameCoordinates,Original*
G04 #@! TF.FileFunction,Copper,L1,Top*
G04 #@! TF.FilePolarity,Positive*
%FSLAX46Y46*%
G04 Gerber Fmt 4.6, Leading zero omitted, Abs format (unit mm)*
G04 Created by KiCad (PCBNEW (5.0.2)-1) date 05/10/20 23:04:12*
%MOMM*%
%LPD*%
G01*
G04 APERTURE LIST*
G04 #@! TA.AperFunction,NonConductor*
%ADD10C,0.300000*%
G04 #@! TD*
G04 #@! TA.AperFunction,ComponentPad*
%ADD11O,2.000000X1.905000*%
G04 #@! TD*
G04 #@! TA.AperFunction,ComponentPad*
%ADD12R,2.000000X1.905000*%
G04 #@! TD*
G04 #@! TA.AperFunction,ComponentPad*
%ADD13R,1.600000X1.600000*%
G04 #@! TD*
G04 #@! TA.AperFunction,ComponentPad*
%ADD14C,1.600000*%
G04 #@! TD*
G04 #@! TA.AperFunction,ComponentPad*
%ADD15R,1.800000X1.800000*%
G04 #@! TD*
G04 #@! TA.AperFunction,ComponentPad*
%ADD16C,1.800000*%
G04 #@! TD*
G04 #@! TA.AperFunction,ComponentPad*
%ADD17O,1.800000X1.800000*%
G04 #@! TD*
G04 #@! TA.AperFunction,ComponentPad*
%ADD18R,2.600000X2.600000*%
G04 #@! TD*
G04 #@! TA.AperFunction,ComponentPad*
%ADD19C,2.600000*%
G04 #@! TD*
G04 #@! TA.AperFunction,ComponentPad*
%ADD20R,1.700000X1.700000*%
G04 #@! TD*
G04 #@! TA.AperFunction,ComponentPad*
%ADD21O,1.700000X1.700000*%
G04 #@! TD*
G04 #@! TA.AperFunction,ComponentPad*
%ADD22O,1.600000X1.600000*%
G04 #@! TD*
G04 #@! TA.AperFunction,Conductor*
%ADD23C,0.600000*%
G04 #@! TD*
G04 #@! TA.AperFunction,Conductor*
%ADD24C,0.250000*%
G04 #@! TD*
G04 #@! TA.AperFunction,Conductor*
%ADD25C,0.254000*%
G04 #@! TD*
G04 APERTURE END LIST*
D10*
X131921576Y-117960990D02*
X132207290Y-118960990D01*
X132493005Y-118246704D01*
X132778719Y-118960990D01*
X133064433Y-117960990D01*
X133493005Y-117960990D02*
X133778719Y-118960990D01*
X134064433Y-118246704D01*
X134350148Y-118960990D01*
X134635862Y-117960990D01*
X135064433Y-117960990D02*
X135350148Y-118960990D01*
X135635862Y-118246704D01*
X135921576Y-118960990D01*
X136207290Y-117960990D01*
X136778719Y-118818133D02*
X136850148Y-118889561D01*
X136778719Y-118960990D01*
X136707290Y-118889561D01*
X136778719Y-118818133D01*
X136778719Y-118960990D01*
X137421576Y-118532419D02*
X138135862Y-118532419D01*
X137278719Y-118960990D02*
X137778719Y-117460990D01*
X138278719Y-118960990D01*
X138778719Y-118960990D02*
X138778719Y-117960990D01*
X138778719Y-118246704D02*
X138850148Y-118103847D01*
X138921576Y-118032419D01*
X139064433Y-117960990D01*
X139207290Y-117960990D01*
X139707290Y-117960990D02*
X139707290Y-118960990D01*
X139707290Y-118103847D02*
X139778719Y-118032419D01*
X139921576Y-117960990D01*
X140135862Y-117960990D01*
X140278719Y-118032419D01*
X140350148Y-118175276D01*
X140350148Y-118960990D01*
X141707290Y-118960990D02*
X141707290Y-118175276D01*
X141635862Y-118032419D01*
X141493005Y-117960990D01*
X141207290Y-117960990D01*
X141064433Y-118032419D01*
X141707290Y-118889561D02*
X141564433Y-118960990D01*
X141207290Y-118960990D01*
X141064433Y-118889561D01*
X140993005Y-118746704D01*
X140993005Y-118603847D01*
X141064433Y-118460990D01*
X141207290Y-118389561D01*
X141564433Y-118389561D01*
X141707290Y-118318133D01*
X142421576Y-118960990D02*
X142421576Y-117460990D01*
X142421576Y-118032419D02*
X142564433Y-117960990D01*
X142850148Y-117960990D01*
X142993005Y-118032419D01*
X143064433Y-118103847D01*
X143135862Y-118246704D01*
X143135862Y-118675276D01*
X143064433Y-118818133D01*
X142993005Y-118889561D01*
X142850148Y-118960990D01*
X142564433Y-118960990D01*
X142421576Y-118889561D01*
X143778719Y-118960990D02*
X143778719Y-117460990D01*
X144635862Y-118960990D02*
X143993005Y-118103847D01*
X144635862Y-117460990D02*
X143778719Y-118318133D01*
X145921576Y-117960990D02*
X145921576Y-118960990D01*
X145278719Y-117960990D02*
X145278719Y-118746704D01*
X145350148Y-118889561D01*
X145493005Y-118960990D01*
X145707290Y-118960990D01*
X145850148Y-118889561D01*
X145921576Y-118818133D01*
X146635862Y-118960990D02*
X146635862Y-117960990D01*
X146635862Y-118103847D02*
X146707290Y-118032419D01*
X146850148Y-117960990D01*
X147064433Y-117960990D01*
X147207290Y-118032419D01*
X147278719Y-118175276D01*
X147278719Y-118960990D01*
X147278719Y-118175276D02*
X147350148Y-118032419D01*
X147493005Y-117960990D01*
X147707290Y-117960990D01*
X147850148Y-118032419D01*
X147921576Y-118175276D01*
X147921576Y-118960990D01*
X149278719Y-118960990D02*
X149278719Y-118175276D01*
X149207290Y-118032419D01*
X149064433Y-117960990D01*
X148778719Y-117960990D01*
X148635862Y-118032419D01*
X149278719Y-118889561D02*
X149135862Y-118960990D01*
X148778719Y-118960990D01*
X148635862Y-118889561D01*
X148564433Y-118746704D01*
X148564433Y-118603847D01*
X148635862Y-118460990D01*
X148778719Y-118389561D01*
X149135862Y-118389561D01*
X149278719Y-118318133D01*
X149993005Y-118960990D02*
X149993005Y-117960990D01*
X149993005Y-118246704D02*
X150064433Y-118103847D01*
X150135862Y-118032419D01*
X150278719Y-117960990D01*
X150421576Y-117960990D01*
X150921576Y-118960990D02*
X150921576Y-117460990D01*
X151278719Y-117460990D01*
X151493005Y-117532419D01*
X151635862Y-117675276D01*
X151707290Y-117818133D01*
X151778719Y-118103847D01*
X151778719Y-118318133D01*
X151707290Y-118603847D01*
X151635862Y-118746704D01*
X151493005Y-118889561D01*
X151278719Y-118960990D01*
X150921576Y-118960990D01*
X153064433Y-118960990D02*
X153064433Y-118175276D01*
X152993005Y-118032419D01*
X152850148Y-117960990D01*
X152564433Y-117960990D01*
X152421576Y-118032419D01*
X153064433Y-118889561D02*
X152921576Y-118960990D01*
X152564433Y-118960990D01*
X152421576Y-118889561D01*
X152350148Y-118746704D01*
X152350148Y-118603847D01*
X152421576Y-118460990D01*
X152564433Y-118389561D01*
X152921576Y-118389561D01*
X153064433Y-118318133D01*
X153707290Y-118889561D02*
X153850148Y-118960990D01*
X154135862Y-118960990D01*
X154278719Y-118889561D01*
X154350148Y-118746704D01*
X154350148Y-118675276D01*
X154278719Y-118532419D01*
X154135862Y-118460990D01*
X153921576Y-118460990D01*
X153778719Y-118389561D01*
X153707290Y-118246704D01*
X153707290Y-118175276D01*
X153778719Y-118032419D01*
X153921576Y-117960990D01*
X154135862Y-117960990D01*
X154278719Y-118032419D01*
X154993005Y-118818133D02*
X155064433Y-118889561D01*
X154993005Y-118960990D01*
X154921576Y-118889561D01*
X154993005Y-118818133D01*
X154993005Y-118960990D01*
X156350148Y-118889561D02*
X156207290Y-118960990D01*
X155921576Y-118960990D01*
X155778719Y-118889561D01*
X155707290Y-118818133D01*
X155635862Y-118675276D01*
X155635862Y-118246704D01*
X155707290Y-118103847D01*
X155778719Y-118032419D01*
X155921576Y-117960990D01*
X156207290Y-117960990D01*
X156350148Y-118032419D01*
X157207290Y-118960990D02*
X157064433Y-118889561D01*
X156993005Y-118818133D01*
X156921576Y-118675276D01*
X156921576Y-118246704D01*
X156993005Y-118103847D01*
X157064433Y-118032419D01*
X157207290Y-117960990D01*
X157421576Y-117960990D01*
X157564433Y-118032419D01*
X157635862Y-118103847D01*
X157707290Y-118246704D01*
X157707290Y-118675276D01*
X157635862Y-118818133D01*
X157564433Y-118889561D01*
X157421576Y-118960990D01*
X157207290Y-118960990D01*
X158350148Y-118960990D02*
X158350148Y-117960990D01*
X158350148Y-118103847D02*
X158421576Y-118032419D01*
X158564433Y-117960990D01*
X158778719Y-117960990D01*
X158921576Y-118032419D01*
X158993005Y-118175276D01*
X158993005Y-118960990D01*
X158993005Y-118175276D02*
X159064433Y-118032419D01*
X159207290Y-117960990D01*
X159421576Y-117960990D01*
X159564433Y-118032419D01*
X159635862Y-118175276D01*
X159635862Y-118960990D01*
D11*
G04 #@! TO.P,U1,3*
G04 #@! TO.N,+5V*
X142400000Y-81104000D03*
G04 #@! TO.P,U1,2*
G04 #@! TO.N,GND*
X142400000Y-83644000D03*
D12*
G04 #@! TO.P,U1,1*
G04 #@! TO.N,+BATT*
X142400000Y-86184000D03*
G04 #@! TD*
D13*
G04 #@! TO.P,C1,1*
G04 #@! TO.N,+BATT*
X146812000Y-86741000D03*
D14*
G04 #@! TO.P,C1,2*
G04 #@! TO.N,GND*
X149312000Y-86741000D03*
G04 #@! TD*
G04 #@! TO.P,C2,2*
G04 #@! TO.N,GND*
X149312000Y-80518000D03*
D13*
G04 #@! TO.P,C2,1*
G04 #@! TO.N,+5V*
X146812000Y-80518000D03*
G04 #@! TD*
D14*
G04 #@! TO.P,C3,2*
G04 #@! TO.N,+5V*
X131024000Y-100584000D03*
G04 #@! TO.P,C3,1*
G04 #@! TO.N,GND*
X128524000Y-100584000D03*
G04 #@! TD*
G04 #@! TO.P,C4,1*
G04 #@! TO.N,GND*
X128524000Y-92964000D03*
G04 #@! TO.P,C4,2*
G04 #@! TO.N,+BATT*
X131024000Y-92964000D03*
G04 #@! TD*
D15*
G04 #@! TO.P,D1,1*
G04 #@! TO.N,GND*
X161036000Y-96774000D03*
D16*
G04 #@! TO.P,D1,2*
G04 #@! TO.N,Net-(D1-Pad2)*
X163576000Y-96774000D03*
G04 #@! TD*
D15*
G04 #@! TO.P,D2,1*
G04 #@! TO.N,Net-(D2-Pad1)*
X137795000Y-100584000D03*
D17*
G04 #@! TO.P,D2,2*
G04 #@! TO.N,+BATT*
X137795000Y-92964000D03*
G04 #@! TD*
G04 #@! TO.P,D3,2*
G04 #@! TO.N,Net-(D2-Pad1)*
X141097000Y-92964000D03*
D15*
G04 #@! TO.P,D3,1*
G04 #@! TO.N,GND*
X141097000Y-100584000D03*
G04 #@! TD*
D17*
G04 #@! TO.P,D4,2*
G04 #@! TO.N,+BATT*
X157607000Y-92964000D03*
D15*
G04 #@! TO.P,D4,1*
G04 #@! TO.N,Net-(D4-Pad1)*
X157607000Y-100584000D03*
G04 #@! TD*
G04 #@! TO.P,D5,1*
G04 #@! TO.N,GND*
X144399000Y-100584000D03*
D17*
G04 #@! TO.P,D5,2*
G04 #@! TO.N,Net-(D4-Pad1)*
X144399000Y-92964000D03*
G04 #@! TD*
D15*
G04 #@! TO.P,D6,1*
G04 #@! TO.N,Net-(D6-Pad1)*
X154305000Y-100584000D03*
D17*
G04 #@! TO.P,D6,2*
G04 #@! TO.N,+BATT*
X154305000Y-92964000D03*
G04 #@! TD*
G04 #@! TO.P,D7,2*
G04 #@! TO.N,Net-(D6-Pad1)*
X147701000Y-92964000D03*
D15*
G04 #@! TO.P,D7,1*
G04 #@! TO.N,GND*
X147701000Y-100584000D03*
G04 #@! TD*
D17*
G04 #@! TO.P,D8,2*
G04 #@! TO.N,+BATT*
X134493000Y-92964000D03*
D15*
G04 #@! TO.P,D8,1*
G04 #@! TO.N,Net-(D8-Pad1)*
X134493000Y-100584000D03*
G04 #@! TD*
G04 #@! TO.P,D9,1*
G04 #@! TO.N,GND*
X151003000Y-100584000D03*
D17*
G04 #@! TO.P,D9,2*
G04 #@! TO.N,Net-(D8-Pad1)*
X151003000Y-92964000D03*
G04 #@! TD*
D18*
G04 #@! TO.P,POWER,1*
G04 #@! TO.N,GND*
X165735000Y-83339000D03*
D19*
G04 #@! TO.P,POWER,2*
G04 #@! TO.N,+BATT*
X160655000Y-83339000D03*
G04 #@! TD*
D20*
G04 #@! TO.P,M1,1*
G04 #@! TO.N,Net-(J2-Pad1)*
X167386000Y-94249000D03*
D21*
G04 #@! TO.P,M1,2*
G04 #@! TO.N,Net-(J2-Pad2)*
X167386000Y-96789000D03*
G04 #@! TO.P,M1,3*
G04 #@! TO.N,Net-(J2-Pad3)*
X167386000Y-99329000D03*
G04 #@! TD*
G04 #@! TO.P,M2,3*
G04 #@! TO.N,Net-(J3-Pad3)*
X124968000Y-99329000D03*
G04 #@! TO.P,M2,2*
G04 #@! TO.N,Net-(J3-Pad2)*
X124968000Y-96789000D03*
D20*
G04 #@! TO.P,M2,1*
G04 #@! TO.N,Net-(J3-Pad1)*
X124968000Y-94249000D03*
G04 #@! TD*
D19*
G04 #@! TO.P,M1,2*
G04 #@! TO.N,Net-(D2-Pad1)*
X166370000Y-109728000D03*
D18*
G04 #@! TO.P,M1,1*
G04 #@! TO.N,Net-(D6-Pad1)*
X161290000Y-109728000D03*
G04 #@! TD*
G04 #@! TO.P,M2,1*
G04 #@! TO.N,Net-(D8-Pad1)*
X125730000Y-109728000D03*
D19*
G04 #@! TO.P,M2,2*
G04 #@! TO.N,Net-(D4-Pad1)*
X130810000Y-109728000D03*
G04 #@! TD*
D14*
G04 #@! TO.P,R1,1*
G04 #@! TO.N,+5V*
X154051000Y-87454000D03*
D22*
G04 #@! TO.P,R1,2*
G04 #@! TO.N,Net-(D1-Pad2)*
X154051000Y-79834000D03*
G04 #@! TD*
D15*
G04 #@! TO.P,L298,1*
G04 #@! TO.N,Net-(J6-Pad2)*
X154940000Y-104775000D03*
D17*
G04 #@! TO.P,L298,2*
G04 #@! TO.N,Net-(D2-Pad1)*
X153670000Y-109855000D03*
G04 #@! TO.P,L298,3*
G04 #@! TO.N,Net-(D6-Pad1)*
X152400000Y-104775000D03*
G04 #@! TO.P,L298,4*
G04 #@! TO.N,+BATT*
X151130000Y-109855000D03*
G04 #@! TO.P,L298,5*
G04 #@! TO.N,Net-(J2-Pad3)*
X149860000Y-104775000D03*
G04 #@! TO.P,L298,6*
G04 #@! TO.N,Net-(J2-Pad1)*
X148590000Y-109855000D03*
G04 #@! TO.P,L298,7*
G04 #@! TO.N,Net-(J2-Pad2)*
X147320000Y-104775000D03*
G04 #@! TO.P,L298,8*
G04 #@! TO.N,GND*
X146050000Y-109855000D03*
G04 #@! TO.P,L298,9*
G04 #@! TO.N,+5V*
X144780000Y-104775000D03*
G04 #@! TO.P,L298,10*
G04 #@! TO.N,Net-(J3-Pad3)*
X143510000Y-109855000D03*
G04 #@! TO.P,L298,11*
G04 #@! TO.N,Net-(J3-Pad1)*
X142240000Y-104775000D03*
G04 #@! TO.P,L298,12*
G04 #@! TO.N,Net-(J3-Pad2)*
X140970000Y-109855000D03*
G04 #@! TO.P,L298,13*
G04 #@! TO.N,Net-(D4-Pad1)*
X139700000Y-104775000D03*
G04 #@! TO.P,L298,14*
G04 #@! TO.N,Net-(D8-Pad1)*
X138430000Y-109855000D03*
G04 #@! TO.P,L298,15*
G04 #@! TO.N,Net-(J6-Pad1)*
X137160000Y-104775000D03*
G04 #@! TD*
D23*
G04 #@! TO.N,+BATT*
X144223000Y-86184000D02*
X142400000Y-86184000D01*
X146812000Y-86741000D02*
X144780000Y-86741000D01*
X144780000Y-86741000D02*
X144223000Y-86184000D01*
G04 #@! TO.N,GND*
X149312000Y-80137000D02*
X149312000Y-81268370D01*
X149263000Y-83644000D02*
X149312000Y-83693000D01*
X142400000Y-83644000D02*
X149263000Y-83644000D01*
X149312000Y-81268370D02*
X149312000Y-83693000D01*
X149312000Y-83693000D02*
X149312000Y-86741000D01*
X162179000Y-80772000D02*
X159004000Y-80772000D01*
X156083000Y-83693000D02*
X149312000Y-83693000D01*
X165735000Y-83339000D02*
X164746000Y-83339000D01*
X159004000Y-80772000D02*
X156083000Y-83693000D01*
X164746000Y-83339000D02*
X162179000Y-80772000D01*
X128524000Y-87249000D02*
X128524000Y-92964000D01*
X142400000Y-83644000D02*
X132129000Y-83644000D01*
X132129000Y-83644000D02*
X128524000Y-87249000D01*
G04 #@! TO.N,+5V*
X146431000Y-80518000D02*
X146812000Y-80137000D01*
X144907000Y-80518000D02*
X146431000Y-80518000D01*
X142400000Y-81104000D02*
X144321000Y-81104000D01*
X144321000Y-81104000D02*
X144907000Y-80518000D01*
X143637000Y-102616000D02*
X144780000Y-103759000D01*
X131728109Y-102616000D02*
X143637000Y-102616000D01*
X144780000Y-103759000D02*
X144780000Y-104775000D01*
X131024000Y-100584000D02*
X131024000Y-101911891D01*
X131024000Y-101911891D02*
X131728109Y-102616000D01*
X131024000Y-99227000D02*
X131024000Y-100584000D01*
X132588000Y-97663000D02*
X131024000Y-99227000D01*
X132588000Y-92076000D02*
X132588000Y-97663000D01*
X134494000Y-90170000D02*
X132588000Y-92076000D01*
X154051000Y-87454000D02*
X151335000Y-90170000D01*
X151335000Y-90170000D02*
X134494000Y-90170000D01*
D24*
G04 #@! TO.N,Net-(D4-Pad1)*
X145298999Y-92064001D02*
X144399000Y-92964000D01*
X157607000Y-99695000D02*
X159639000Y-97663000D01*
X159639000Y-91821000D02*
X158623000Y-90805000D01*
X158623000Y-90805000D02*
X146558000Y-90805000D01*
X157607000Y-100584000D02*
X157607000Y-99695000D01*
X159639000Y-97663000D02*
X159639000Y-91821000D01*
X146558000Y-90805000D02*
X145298999Y-92064001D01*
G04 #@! TO.N,Net-(D6-Pad1)*
X154305000Y-102870000D02*
X152400000Y-104775000D01*
X154305000Y-100584000D02*
X154305000Y-102870000D01*
X154305000Y-99568000D02*
X154305000Y-100584000D01*
X159131000Y-94742000D02*
X154305000Y-99568000D01*
X159131000Y-92202000D02*
X159131000Y-94742000D01*
X158242000Y-91313000D02*
X159131000Y-92202000D01*
X147701000Y-92964000D02*
X149352000Y-91313000D01*
X149352000Y-91313000D02*
X158242000Y-91313000D01*
G04 #@! TO.N,Net-(D8-Pad1)*
X134493000Y-97790000D02*
X134493000Y-100584000D01*
X136652000Y-95631000D02*
X134493000Y-97790000D01*
X149987000Y-95631000D02*
X136652000Y-95631000D01*
X151003000Y-92964000D02*
X151003000Y-94615000D01*
X151003000Y-94615000D02*
X149987000Y-95631000D01*
G04 #@! TO.N,Net-(J2-Pad1)*
X149489999Y-108955001D02*
X148590000Y-109855000D01*
X150610978Y-107834022D02*
X149489999Y-108955001D01*
X160153800Y-107834021D02*
X150610978Y-107834022D01*
X168486000Y-94249000D02*
X169672000Y-95435000D01*
X167386000Y-94249000D02*
X168486000Y-94249000D01*
X169672000Y-95435000D02*
X169672000Y-100203000D01*
X168275000Y-101600000D02*
X166387821Y-101600000D01*
X169672000Y-100203000D02*
X168275000Y-101600000D01*
X166387821Y-101600000D02*
X160153800Y-107834021D01*
G04 #@! TO.N,Net-(J2-Pad2)*
X148219999Y-105674999D02*
X147320000Y-104775000D01*
X159967400Y-107384010D02*
X149929011Y-107384011D01*
X166259410Y-101092000D02*
X159967400Y-107384010D01*
X167528000Y-96647000D02*
X167640000Y-96647000D01*
X167386000Y-96789000D02*
X167528000Y-96647000D01*
X169164000Y-99949000D02*
X168021000Y-101092000D01*
X167640000Y-96647000D02*
X169164000Y-98171000D01*
X149929011Y-107384011D02*
X148219999Y-105674999D01*
X169164000Y-98171000D02*
X169164000Y-99949000D01*
X168021000Y-101092000D02*
X166259410Y-101092000D01*
G04 #@! TO.N,Net-(J2-Pad3)*
X166536001Y-100178999D02*
X167386000Y-99329000D01*
X159781000Y-106934000D02*
X166536001Y-100178999D01*
X152019000Y-106934000D02*
X159781000Y-106934000D01*
X149860000Y-104775000D02*
X152019000Y-106934000D01*
G04 #@! TO.N,Net-(J3-Pad3)*
X142610001Y-108955001D02*
X143510000Y-109855000D01*
X132277421Y-107130011D02*
X140785011Y-107130011D01*
X140785011Y-107130011D02*
X142610001Y-108955001D01*
X124968000Y-99329000D02*
X124968000Y-99820590D01*
X124968000Y-99820590D02*
X132277421Y-107130011D01*
G04 #@! TO.N,Net-(J3-Pad2)*
X124445000Y-96789000D02*
X124968000Y-96789000D01*
X123444000Y-97790000D02*
X124445000Y-96789000D01*
X138695022Y-107580022D02*
X132091022Y-107580022D01*
X132091022Y-107580022D02*
X126111000Y-101600000D01*
X140970000Y-109855000D02*
X138695022Y-107580022D01*
X124968000Y-101600000D02*
X123444000Y-100076000D01*
X126111000Y-101600000D02*
X124968000Y-101600000D01*
X123444000Y-100076000D02*
X123444000Y-97790000D01*
G04 #@! TO.N,Net-(J3-Pad1)*
X126746000Y-94927000D02*
X126746000Y-100962180D01*
X132463820Y-106680000D02*
X140335000Y-106680000D01*
X126068000Y-94249000D02*
X126746000Y-94927000D01*
X141340001Y-105674999D02*
X142240000Y-104775000D01*
X140335000Y-106680000D02*
X141340001Y-105674999D01*
X124968000Y-94249000D02*
X126068000Y-94249000D01*
X126746000Y-100962180D02*
X132463820Y-106680000D01*
G04 #@! TD*
D25*
G04 #@! TO.N,GND*
G36*
X172010001Y-119940000D02*
X160778005Y-119940000D01*
X160778005Y-116492419D01*
X130922291Y-116492419D01*
X130922291Y-119940000D01*
X120090000Y-119940000D01*
X120090000Y-108428000D01*
X123782560Y-108428000D01*
X123782560Y-111028000D01*
X123831843Y-111275765D01*
X123972191Y-111485809D01*
X124182235Y-111626157D01*
X124430000Y-111675440D01*
X127030000Y-111675440D01*
X127277765Y-111626157D01*
X127487809Y-111485809D01*
X127628157Y-111275765D01*
X127677440Y-111028000D01*
X127677440Y-108428000D01*
X127628157Y-108180235D01*
X127487809Y-107970191D01*
X127277765Y-107829843D01*
X127030000Y-107780560D01*
X124430000Y-107780560D01*
X124182235Y-107829843D01*
X123972191Y-107970191D01*
X123831843Y-108180235D01*
X123782560Y-108428000D01*
X120090000Y-108428000D01*
X120090000Y-97790000D01*
X122669112Y-97790000D01*
X122684001Y-97864852D01*
X122684000Y-100001153D01*
X122669112Y-100076000D01*
X122684000Y-100150847D01*
X122684000Y-100150851D01*
X122728096Y-100372536D01*
X122896071Y-100623929D01*
X122959530Y-100666331D01*
X124377673Y-102084476D01*
X124420071Y-102147929D01*
X124483524Y-102190327D01*
X124483526Y-102190329D01*
X124574598Y-102251181D01*
X124671463Y-102315904D01*
X124893148Y-102360000D01*
X124893152Y-102360000D01*
X124967999Y-102374888D01*
X125042846Y-102360000D01*
X125796199Y-102360000D01*
X131253454Y-107817256D01*
X131194895Y-107793000D01*
X130425105Y-107793000D01*
X129713910Y-108087586D01*
X129169586Y-108631910D01*
X128875000Y-109343105D01*
X128875000Y-110112895D01*
X129169586Y-110824090D01*
X129713910Y-111368414D01*
X130425105Y-111663000D01*
X131194895Y-111663000D01*
X131906090Y-111368414D01*
X132450414Y-110824090D01*
X132745000Y-110112895D01*
X132745000Y-109343105D01*
X132450414Y-108631910D01*
X132159744Y-108341240D01*
X132165868Y-108340022D01*
X138178161Y-108340022D01*
X137831073Y-108409062D01*
X137323327Y-108748327D01*
X136984062Y-109256073D01*
X136864928Y-109855000D01*
X136984062Y-110453927D01*
X137323327Y-110961673D01*
X137831073Y-111300938D01*
X138278818Y-111390000D01*
X138581182Y-111390000D01*
X139028927Y-111300938D01*
X139536673Y-110961673D01*
X139700000Y-110717237D01*
X139863327Y-110961673D01*
X140371073Y-111300938D01*
X140818818Y-111390000D01*
X141121182Y-111390000D01*
X141568927Y-111300938D01*
X142076673Y-110961673D01*
X142240000Y-110717237D01*
X142403327Y-110961673D01*
X142911073Y-111300938D01*
X143358818Y-111390000D01*
X143661182Y-111390000D01*
X144108927Y-111300938D01*
X144616673Y-110961673D01*
X144787624Y-110705826D01*
X145142424Y-111092966D01*
X145685258Y-111346046D01*
X145923000Y-111225997D01*
X145923000Y-109982000D01*
X145903000Y-109982000D01*
X145903000Y-109728000D01*
X145923000Y-109728000D01*
X145923000Y-108484003D01*
X145685258Y-108363954D01*
X145142424Y-108617034D01*
X144787624Y-109004174D01*
X144616673Y-108748327D01*
X144108927Y-108409062D01*
X143661182Y-108320000D01*
X143358818Y-108320000D01*
X143101071Y-108371269D01*
X141409801Y-106680000D01*
X141831071Y-106258731D01*
X142088818Y-106310000D01*
X142391182Y-106310000D01*
X142838927Y-106220938D01*
X143346673Y-105881673D01*
X143510000Y-105637237D01*
X143673327Y-105881673D01*
X144181073Y-106220938D01*
X144628818Y-106310000D01*
X144931182Y-106310000D01*
X145378927Y-106220938D01*
X145886673Y-105881673D01*
X146050000Y-105637237D01*
X146213327Y-105881673D01*
X146721073Y-106220938D01*
X147168818Y-106310000D01*
X147471182Y-106310000D01*
X147728929Y-106258731D01*
X147735526Y-106265328D01*
X147735529Y-106265330D01*
X149338685Y-107868487D01*
X149381083Y-107931940D01*
X149415357Y-107954841D01*
X149005529Y-108364670D01*
X149005526Y-108364672D01*
X148998929Y-108371269D01*
X148741182Y-108320000D01*
X148438818Y-108320000D01*
X147991073Y-108409062D01*
X147483327Y-108748327D01*
X147312376Y-109004174D01*
X146957576Y-108617034D01*
X146414742Y-108363954D01*
X146177000Y-108484003D01*
X146177000Y-109728000D01*
X146197000Y-109728000D01*
X146197000Y-109982000D01*
X146177000Y-109982000D01*
X146177000Y-111225997D01*
X146414742Y-111346046D01*
X146957576Y-111092966D01*
X147312376Y-110705826D01*
X147483327Y-110961673D01*
X147991073Y-111300938D01*
X148438818Y-111390000D01*
X148741182Y-111390000D01*
X149188927Y-111300938D01*
X149696673Y-110961673D01*
X149860000Y-110717237D01*
X150023327Y-110961673D01*
X150531073Y-111300938D01*
X150978818Y-111390000D01*
X151281182Y-111390000D01*
X151728927Y-111300938D01*
X152236673Y-110961673D01*
X152400000Y-110717237D01*
X152563327Y-110961673D01*
X153071073Y-111300938D01*
X153518818Y-111390000D01*
X153821182Y-111390000D01*
X154268927Y-111300938D01*
X154776673Y-110961673D01*
X155115938Y-110453927D01*
X155235072Y-109855000D01*
X155115938Y-109256073D01*
X154776673Y-108748327D01*
X154545738Y-108594021D01*
X159342560Y-108594020D01*
X159342560Y-111028000D01*
X159391843Y-111275765D01*
X159532191Y-111485809D01*
X159742235Y-111626157D01*
X159990000Y-111675440D01*
X162590000Y-111675440D01*
X162837765Y-111626157D01*
X163047809Y-111485809D01*
X163188157Y-111275765D01*
X163237440Y-111028000D01*
X163237440Y-109343105D01*
X164435000Y-109343105D01*
X164435000Y-110112895D01*
X164729586Y-110824090D01*
X165273910Y-111368414D01*
X165985105Y-111663000D01*
X166754895Y-111663000D01*
X167466090Y-111368414D01*
X168010414Y-110824090D01*
X168305000Y-110112895D01*
X168305000Y-109343105D01*
X168010414Y-108631910D01*
X167466090Y-108087586D01*
X166754895Y-107793000D01*
X165985105Y-107793000D01*
X165273910Y-108087586D01*
X164729586Y-108631910D01*
X164435000Y-109343105D01*
X163237440Y-109343105D01*
X163237440Y-108428000D01*
X163188157Y-108180235D01*
X163047809Y-107970191D01*
X162837765Y-107829843D01*
X162590000Y-107780560D01*
X161282062Y-107780560D01*
X166702623Y-102360000D01*
X168200153Y-102360000D01*
X168275000Y-102374888D01*
X168349847Y-102360000D01*
X168349852Y-102360000D01*
X168571537Y-102315904D01*
X168822929Y-102147929D01*
X168865331Y-102084470D01*
X170156476Y-100793327D01*
X170219929Y-100750929D01*
X170262327Y-100687476D01*
X170262329Y-100687474D01*
X170387903Y-100499538D01*
X170387904Y-100499537D01*
X170432000Y-100277852D01*
X170432000Y-100277848D01*
X170446888Y-100203001D01*
X170432000Y-100128154D01*
X170432000Y-95509846D01*
X170446888Y-95434999D01*
X170432000Y-95360152D01*
X170432000Y-95360148D01*
X170387904Y-95138463D01*
X170219929Y-94887071D01*
X170156473Y-94844671D01*
X169076331Y-93764530D01*
X169033929Y-93701071D01*
X168883440Y-93600517D01*
X168883440Y-93399000D01*
X168834157Y-93151235D01*
X168693809Y-92941191D01*
X168483765Y-92800843D01*
X168236000Y-92751560D01*
X166536000Y-92751560D01*
X166288235Y-92800843D01*
X166078191Y-92941191D01*
X165937843Y-93151235D01*
X165888560Y-93399000D01*
X165888560Y-95099000D01*
X165937843Y-95346765D01*
X166078191Y-95556809D01*
X166288235Y-95697157D01*
X166333619Y-95706184D01*
X166315375Y-95718375D01*
X165987161Y-96209582D01*
X165871908Y-96789000D01*
X165987161Y-97368418D01*
X166315375Y-97859625D01*
X166613761Y-98059000D01*
X166315375Y-98258375D01*
X165987161Y-98749582D01*
X165871908Y-99329000D01*
X165944791Y-99695407D01*
X159466199Y-106174000D01*
X156236163Y-106174000D01*
X156297809Y-106132809D01*
X156438157Y-105922765D01*
X156487440Y-105675000D01*
X156487440Y-103875000D01*
X156438157Y-103627235D01*
X156297809Y-103417191D01*
X156087765Y-103276843D01*
X155840000Y-103227560D01*
X154980130Y-103227560D01*
X155020904Y-103166538D01*
X155037142Y-103084903D01*
X155065000Y-102944852D01*
X155065000Y-102944848D01*
X155079888Y-102870000D01*
X155065000Y-102795152D01*
X155065000Y-102131440D01*
X155205000Y-102131440D01*
X155452765Y-102082157D01*
X155662809Y-101941809D01*
X155803157Y-101731765D01*
X155852440Y-101484000D01*
X155852440Y-99684000D01*
X155803157Y-99436235D01*
X155686362Y-99261440D01*
X158879000Y-96068802D01*
X158879000Y-97348198D01*
X157190639Y-99036560D01*
X156707000Y-99036560D01*
X156459235Y-99085843D01*
X156249191Y-99226191D01*
X156108843Y-99436235D01*
X156059560Y-99684000D01*
X156059560Y-101484000D01*
X156108843Y-101731765D01*
X156249191Y-101941809D01*
X156459235Y-102082157D01*
X156707000Y-102131440D01*
X158507000Y-102131440D01*
X158754765Y-102082157D01*
X158964809Y-101941809D01*
X159105157Y-101731765D01*
X159154440Y-101484000D01*
X159154440Y-99684000D01*
X159105157Y-99436235D01*
X159039231Y-99337570D01*
X160067802Y-98309000D01*
X160750250Y-98309000D01*
X160909000Y-98150250D01*
X160909000Y-96901000D01*
X160889000Y-96901000D01*
X160889000Y-96647000D01*
X160909000Y-96647000D01*
X160909000Y-95397750D01*
X161163000Y-95397750D01*
X161163000Y-96647000D01*
X161183000Y-96647000D01*
X161183000Y-96901000D01*
X161163000Y-96901000D01*
X161163000Y-98150250D01*
X161321750Y-98309000D01*
X162062309Y-98309000D01*
X162295698Y-98212327D01*
X162474327Y-98033699D01*
X162530139Y-97898956D01*
X162706493Y-98075310D01*
X163270670Y-98309000D01*
X163881330Y-98309000D01*
X164445507Y-98075310D01*
X164877310Y-97643507D01*
X165111000Y-97079330D01*
X165111000Y-96468670D01*
X164877310Y-95904493D01*
X164445507Y-95472690D01*
X163881330Y-95239000D01*
X163270670Y-95239000D01*
X162706493Y-95472690D01*
X162530139Y-95649044D01*
X162474327Y-95514301D01*
X162295698Y-95335673D01*
X162062309Y-95239000D01*
X161321750Y-95239000D01*
X161163000Y-95397750D01*
X160909000Y-95397750D01*
X160750250Y-95239000D01*
X160399000Y-95239000D01*
X160399000Y-91895847D01*
X160413888Y-91821000D01*
X160399000Y-91746153D01*
X160399000Y-91746148D01*
X160354904Y-91524463D01*
X160186929Y-91273071D01*
X160123473Y-91230671D01*
X159213331Y-90320530D01*
X159170929Y-90257071D01*
X158919537Y-90089096D01*
X158697852Y-90045000D01*
X158697847Y-90045000D01*
X158623000Y-90030112D01*
X158548153Y-90045000D01*
X152782289Y-90045000D01*
X153938290Y-88889000D01*
X154336439Y-88889000D01*
X154863862Y-88670534D01*
X155267534Y-88266862D01*
X155486000Y-87739439D01*
X155486000Y-87168561D01*
X155267534Y-86641138D01*
X154863862Y-86237466D01*
X154336439Y-86019000D01*
X153765561Y-86019000D01*
X153238138Y-86237466D01*
X152834466Y-86641138D01*
X152616000Y-87168561D01*
X152616000Y-87566710D01*
X150947711Y-89235000D01*
X134586085Y-89235000D01*
X134493999Y-89216683D01*
X134129181Y-89289250D01*
X133819903Y-89495903D01*
X133767741Y-89573969D01*
X131991972Y-91349739D01*
X131913903Y-91401903D01*
X131775167Y-91609537D01*
X131716358Y-91697551D01*
X131309439Y-91529000D01*
X130738561Y-91529000D01*
X130211138Y-91747466D01*
X129807466Y-92151138D01*
X129780475Y-92216299D01*
X129777864Y-92209995D01*
X129531745Y-92135861D01*
X128703605Y-92964000D01*
X129531745Y-93792139D01*
X129777864Y-93718005D01*
X129780290Y-93711254D01*
X129807466Y-93776862D01*
X130211138Y-94180534D01*
X130738561Y-94399000D01*
X131309439Y-94399000D01*
X131653000Y-94256692D01*
X131653001Y-97275709D01*
X130427972Y-98500739D01*
X130349903Y-98552903D01*
X130189402Y-98793111D01*
X130143250Y-98862182D01*
X130070683Y-99227000D01*
X130089000Y-99319086D01*
X130089000Y-99489604D01*
X129807466Y-99771138D01*
X129780475Y-99836299D01*
X129777864Y-99829995D01*
X129531745Y-99755861D01*
X128703605Y-100584000D01*
X129531745Y-101412139D01*
X129777864Y-101338005D01*
X129780290Y-101331254D01*
X129807466Y-101396862D01*
X130089001Y-101678397D01*
X130089001Y-101819801D01*
X130070683Y-101911891D01*
X130143250Y-102276709D01*
X130208851Y-102374888D01*
X130349904Y-102585988D01*
X130427970Y-102638150D01*
X131001850Y-103212030D01*
X131054012Y-103290097D01*
X131363290Y-103496750D01*
X131636023Y-103551000D01*
X131636027Y-103551000D01*
X131728108Y-103569316D01*
X131820189Y-103551000D01*
X136228919Y-103551000D01*
X136053327Y-103668327D01*
X135714062Y-104176073D01*
X135594928Y-104775000D01*
X135714062Y-105373927D01*
X136053327Y-105881673D01*
X136110687Y-105920000D01*
X132778622Y-105920000D01*
X128863084Y-102004463D01*
X128877454Y-102003778D01*
X129278005Y-101837864D01*
X129352139Y-101591745D01*
X128524000Y-100763605D01*
X128509858Y-100777748D01*
X128330253Y-100598143D01*
X128344395Y-100584000D01*
X128330252Y-100569858D01*
X128509858Y-100390252D01*
X128524000Y-100404395D01*
X129352139Y-99576255D01*
X129278005Y-99330136D01*
X128740777Y-99137035D01*
X128170546Y-99164222D01*
X127769995Y-99330136D01*
X127695861Y-99576253D01*
X127580986Y-99461378D01*
X127506000Y-99536364D01*
X127506000Y-95001848D01*
X127520888Y-94927000D01*
X127506000Y-94852152D01*
X127506000Y-94852148D01*
X127461904Y-94630463D01*
X127461904Y-94630462D01*
X127336329Y-94442527D01*
X127293929Y-94379071D01*
X127230473Y-94336671D01*
X126865547Y-93971745D01*
X127695861Y-93971745D01*
X127769995Y-94217864D01*
X128307223Y-94410965D01*
X128877454Y-94383778D01*
X129278005Y-94217864D01*
X129352139Y-93971745D01*
X128524000Y-93143605D01*
X127695861Y-93971745D01*
X126865547Y-93971745D01*
X126658331Y-93764530D01*
X126615929Y-93701071D01*
X126465440Y-93600517D01*
X126465440Y-93399000D01*
X126416157Y-93151235D01*
X126275809Y-92941191D01*
X126065765Y-92800843D01*
X125818000Y-92751560D01*
X124118000Y-92751560D01*
X123870235Y-92800843D01*
X123660191Y-92941191D01*
X123519843Y-93151235D01*
X123470560Y-93399000D01*
X123470560Y-95099000D01*
X123519843Y-95346765D01*
X123660191Y-95556809D01*
X123870235Y-95697157D01*
X123915619Y-95706184D01*
X123897375Y-95718375D01*
X123569161Y-96209582D01*
X123474693Y-96684505D01*
X122959528Y-97199671D01*
X122896072Y-97242071D01*
X122853672Y-97305527D01*
X122853671Y-97305528D01*
X122728097Y-97493463D01*
X122669112Y-97790000D01*
X120090000Y-97790000D01*
X120090000Y-92747223D01*
X127077035Y-92747223D01*
X127104222Y-93317454D01*
X127270136Y-93718005D01*
X127516255Y-93792139D01*
X128344395Y-92964000D01*
X127516255Y-92135861D01*
X127270136Y-92209995D01*
X127077035Y-92747223D01*
X120090000Y-92747223D01*
X120090000Y-91956255D01*
X127695861Y-91956255D01*
X128524000Y-92784395D01*
X129352139Y-91956255D01*
X129278005Y-91710136D01*
X128740777Y-91517035D01*
X128170546Y-91544222D01*
X127769995Y-91710136D01*
X127695861Y-91956255D01*
X120090000Y-91956255D01*
X120090000Y-83644000D01*
X123308276Y-83644000D01*
X123493380Y-84574580D01*
X124020511Y-85363489D01*
X124809420Y-85890620D01*
X125505103Y-86029000D01*
X125974897Y-86029000D01*
X126670580Y-85890620D01*
X127459489Y-85363489D01*
X127547681Y-85231500D01*
X140752560Y-85231500D01*
X140752560Y-87136500D01*
X140801843Y-87384265D01*
X140942191Y-87594309D01*
X141152235Y-87734657D01*
X141400000Y-87783940D01*
X143400000Y-87783940D01*
X143647765Y-87734657D01*
X143857809Y-87594309D01*
X143998157Y-87384265D01*
X144015216Y-87298505D01*
X144053739Y-87337028D01*
X144105903Y-87415097D01*
X144336443Y-87569139D01*
X144415181Y-87621750D01*
X144780000Y-87694317D01*
X144872086Y-87676000D01*
X145391413Y-87676000D01*
X145413843Y-87788765D01*
X145554191Y-87998809D01*
X145764235Y-88139157D01*
X146012000Y-88188440D01*
X147612000Y-88188440D01*
X147859765Y-88139157D01*
X148069809Y-87998809D01*
X148210157Y-87788765D01*
X148218117Y-87748745D01*
X148483861Y-87748745D01*
X148557995Y-87994864D01*
X149095223Y-88187965D01*
X149665454Y-88160778D01*
X150066005Y-87994864D01*
X150140139Y-87748745D01*
X149312000Y-86920605D01*
X148483861Y-87748745D01*
X148218117Y-87748745D01*
X148256693Y-87554813D01*
X148304255Y-87569139D01*
X149132395Y-86741000D01*
X149491605Y-86741000D01*
X150319745Y-87569139D01*
X150565864Y-87495005D01*
X150758965Y-86957777D01*
X150731778Y-86387546D01*
X150565864Y-85986995D01*
X150319745Y-85912861D01*
X149491605Y-86741000D01*
X149132395Y-86741000D01*
X148304255Y-85912861D01*
X148256693Y-85927187D01*
X148218118Y-85733255D01*
X148483861Y-85733255D01*
X149312000Y-86561395D01*
X150140139Y-85733255D01*
X150066005Y-85487136D01*
X149528777Y-85294035D01*
X148958546Y-85321222D01*
X148557995Y-85487136D01*
X148483861Y-85733255D01*
X148218118Y-85733255D01*
X148210157Y-85693235D01*
X148069809Y-85483191D01*
X147859765Y-85342843D01*
X147612000Y-85293560D01*
X146012000Y-85293560D01*
X145764235Y-85342843D01*
X145554191Y-85483191D01*
X145413843Y-85693235D01*
X145391413Y-85806000D01*
X145167289Y-85806000D01*
X144949261Y-85587972D01*
X144897097Y-85509903D01*
X144587819Y-85303250D01*
X144315086Y-85249000D01*
X144223000Y-85230683D01*
X144130914Y-85249000D01*
X144047440Y-85249000D01*
X144047440Y-85231500D01*
X143998157Y-84983735D01*
X143857809Y-84773691D01*
X143652857Y-84636745D01*
X143775973Y-84510924D01*
X143990563Y-84016980D01*
X143870594Y-83771000D01*
X142527000Y-83771000D01*
X142527000Y-83791000D01*
X142273000Y-83791000D01*
X142273000Y-83771000D01*
X140929406Y-83771000D01*
X140809437Y-84016980D01*
X141024027Y-84510924D01*
X141147143Y-84636745D01*
X140942191Y-84773691D01*
X140801843Y-84983735D01*
X140752560Y-85231500D01*
X127547681Y-85231500D01*
X127986620Y-84574580D01*
X128171724Y-83644000D01*
X127986620Y-82713420D01*
X127459489Y-81924511D01*
X126670580Y-81397380D01*
X125974897Y-81259000D01*
X125505103Y-81259000D01*
X124809420Y-81397380D01*
X124020511Y-81924511D01*
X123493380Y-82713420D01*
X123308276Y-83644000D01*
X120090000Y-83644000D01*
X120090000Y-81104000D01*
X140733900Y-81104000D01*
X140857109Y-81723411D01*
X141207977Y-82248523D01*
X141409474Y-82383159D01*
X141024027Y-82777076D01*
X140809437Y-83271020D01*
X140929406Y-83517000D01*
X142273000Y-83517000D01*
X142273000Y-83497000D01*
X142527000Y-83497000D01*
X142527000Y-83517000D01*
X143870594Y-83517000D01*
X143990563Y-83271020D01*
X143852882Y-82954105D01*
X158720000Y-82954105D01*
X158720000Y-83723895D01*
X159014586Y-84435090D01*
X159558910Y-84979414D01*
X160270105Y-85274000D01*
X161039895Y-85274000D01*
X161751090Y-84979414D01*
X162295414Y-84435090D01*
X162590000Y-83723895D01*
X162590000Y-83624750D01*
X163800000Y-83624750D01*
X163800000Y-84765310D01*
X163896673Y-84998699D01*
X164075302Y-85177327D01*
X164308691Y-85274000D01*
X165449250Y-85274000D01*
X165608000Y-85115250D01*
X165608000Y-83466000D01*
X165862000Y-83466000D01*
X165862000Y-85115250D01*
X166020750Y-85274000D01*
X167161309Y-85274000D01*
X167394698Y-85177327D01*
X167573327Y-84998699D01*
X167670000Y-84765310D01*
X167670000Y-83624750D01*
X167511250Y-83466000D01*
X165862000Y-83466000D01*
X165608000Y-83466000D01*
X163958750Y-83466000D01*
X163800000Y-83624750D01*
X162590000Y-83624750D01*
X162590000Y-82954105D01*
X162295414Y-82242910D01*
X161965194Y-81912690D01*
X163800000Y-81912690D01*
X163800000Y-83053250D01*
X163958750Y-83212000D01*
X165608000Y-83212000D01*
X165608000Y-81562750D01*
X165862000Y-81562750D01*
X165862000Y-83212000D01*
X167511250Y-83212000D01*
X167670000Y-83053250D01*
X167670000Y-81912690D01*
X167573327Y-81679301D01*
X167394698Y-81500673D01*
X167161309Y-81404000D01*
X166020750Y-81404000D01*
X165862000Y-81562750D01*
X165608000Y-81562750D01*
X165449250Y-81404000D01*
X164308691Y-81404000D01*
X164075302Y-81500673D01*
X163896673Y-81679301D01*
X163800000Y-81912690D01*
X161965194Y-81912690D01*
X161751090Y-81698586D01*
X161039895Y-81404000D01*
X160270105Y-81404000D01*
X159558910Y-81698586D01*
X159014586Y-82242910D01*
X158720000Y-82954105D01*
X143852882Y-82954105D01*
X143775973Y-82777076D01*
X143390526Y-82383159D01*
X143592023Y-82248523D01*
X143732022Y-82039000D01*
X144228914Y-82039000D01*
X144321000Y-82057317D01*
X144413086Y-82039000D01*
X144685819Y-81984750D01*
X144995097Y-81778097D01*
X145047261Y-81700028D01*
X145294289Y-81453000D01*
X145391413Y-81453000D01*
X145413843Y-81565765D01*
X145554191Y-81775809D01*
X145764235Y-81916157D01*
X146012000Y-81965440D01*
X147612000Y-81965440D01*
X147859765Y-81916157D01*
X148069809Y-81775809D01*
X148210157Y-81565765D01*
X148218117Y-81525745D01*
X148483861Y-81525745D01*
X148557995Y-81771864D01*
X149095223Y-81964965D01*
X149665454Y-81937778D01*
X150066005Y-81771864D01*
X150140139Y-81525745D01*
X149312000Y-80697605D01*
X148483861Y-81525745D01*
X148218117Y-81525745D01*
X148256693Y-81331813D01*
X148304255Y-81346139D01*
X149132395Y-80518000D01*
X149491605Y-80518000D01*
X150319745Y-81346139D01*
X150565864Y-81272005D01*
X150758965Y-80734777D01*
X150731778Y-80164546D01*
X150594862Y-79834000D01*
X152587887Y-79834000D01*
X152699260Y-80393909D01*
X153016423Y-80868577D01*
X153491091Y-81185740D01*
X153909667Y-81269000D01*
X154192333Y-81269000D01*
X154610909Y-81185740D01*
X155085577Y-80868577D01*
X155402740Y-80393909D01*
X155514113Y-79834000D01*
X155402740Y-79274091D01*
X155085577Y-78799423D01*
X154610909Y-78482260D01*
X154192333Y-78399000D01*
X153909667Y-78399000D01*
X153491091Y-78482260D01*
X153016423Y-78799423D01*
X152699260Y-79274091D01*
X152587887Y-79834000D01*
X150594862Y-79834000D01*
X150565864Y-79763995D01*
X150319745Y-79689861D01*
X149491605Y-80518000D01*
X149132395Y-80518000D01*
X148304255Y-79689861D01*
X148256693Y-79704187D01*
X148218118Y-79510255D01*
X148483861Y-79510255D01*
X149312000Y-80338395D01*
X150140139Y-79510255D01*
X150066005Y-79264136D01*
X149528777Y-79071035D01*
X148958546Y-79098222D01*
X148557995Y-79264136D01*
X148483861Y-79510255D01*
X148218118Y-79510255D01*
X148210157Y-79470235D01*
X148069809Y-79260191D01*
X147859765Y-79119843D01*
X147612000Y-79070560D01*
X146012000Y-79070560D01*
X145764235Y-79119843D01*
X145554191Y-79260191D01*
X145413843Y-79470235D01*
X145391413Y-79583000D01*
X144999085Y-79583000D01*
X144906999Y-79564683D01*
X144686169Y-79608609D01*
X144542181Y-79637250D01*
X144232903Y-79843903D01*
X144180739Y-79921972D01*
X143933711Y-80169000D01*
X143732022Y-80169000D01*
X143592023Y-79959477D01*
X143066911Y-79608609D01*
X142603850Y-79516500D01*
X142196150Y-79516500D01*
X141733089Y-79608609D01*
X141207977Y-79959477D01*
X140857109Y-80484589D01*
X140733900Y-81104000D01*
X120090000Y-81104000D01*
X120090000Y-75640000D01*
X172010000Y-75640000D01*
X172010001Y-119940000D01*
X172010001Y-119940000D01*
G37*
X172010001Y-119940000D02*
X160778005Y-119940000D01*
X160778005Y-116492419D01*
X130922291Y-116492419D01*
X130922291Y-119940000D01*
X120090000Y-119940000D01*
X120090000Y-108428000D01*
X123782560Y-108428000D01*
X123782560Y-111028000D01*
X123831843Y-111275765D01*
X123972191Y-111485809D01*
X124182235Y-111626157D01*
X124430000Y-111675440D01*
X127030000Y-111675440D01*
X127277765Y-111626157D01*
X127487809Y-111485809D01*
X127628157Y-111275765D01*
X127677440Y-111028000D01*
X127677440Y-108428000D01*
X127628157Y-108180235D01*
X127487809Y-107970191D01*
X127277765Y-107829843D01*
X127030000Y-107780560D01*
X124430000Y-107780560D01*
X124182235Y-107829843D01*
X123972191Y-107970191D01*
X123831843Y-108180235D01*
X123782560Y-108428000D01*
X120090000Y-108428000D01*
X120090000Y-97790000D01*
X122669112Y-97790000D01*
X122684001Y-97864852D01*
X122684000Y-100001153D01*
X122669112Y-100076000D01*
X122684000Y-100150847D01*
X122684000Y-100150851D01*
X122728096Y-100372536D01*
X122896071Y-100623929D01*
X122959530Y-100666331D01*
X124377673Y-102084476D01*
X124420071Y-102147929D01*
X124483524Y-102190327D01*
X124483526Y-102190329D01*
X124574598Y-102251181D01*
X124671463Y-102315904D01*
X124893148Y-102360000D01*
X124893152Y-102360000D01*
X124967999Y-102374888D01*
X125042846Y-102360000D01*
X125796199Y-102360000D01*
X131253454Y-107817256D01*
X131194895Y-107793000D01*
X130425105Y-107793000D01*
X129713910Y-108087586D01*
X129169586Y-108631910D01*
X128875000Y-109343105D01*
X128875000Y-110112895D01*
X129169586Y-110824090D01*
X129713910Y-111368414D01*
X130425105Y-111663000D01*
X131194895Y-111663000D01*
X131906090Y-111368414D01*
X132450414Y-110824090D01*
X132745000Y-110112895D01*
X132745000Y-109343105D01*
X132450414Y-108631910D01*
X132159744Y-108341240D01*
X132165868Y-108340022D01*
X138178161Y-108340022D01*
X137831073Y-108409062D01*
X137323327Y-108748327D01*
X136984062Y-109256073D01*
X136864928Y-109855000D01*
X136984062Y-110453927D01*
X137323327Y-110961673D01*
X137831073Y-111300938D01*
X138278818Y-111390000D01*
X138581182Y-111390000D01*
X139028927Y-111300938D01*
X139536673Y-110961673D01*
X139700000Y-110717237D01*
X139863327Y-110961673D01*
X140371073Y-111300938D01*
X140818818Y-111390000D01*
X141121182Y-111390000D01*
X141568927Y-111300938D01*
X142076673Y-110961673D01*
X142240000Y-110717237D01*
X142403327Y-110961673D01*
X142911073Y-111300938D01*
X143358818Y-111390000D01*
X143661182Y-111390000D01*
X144108927Y-111300938D01*
X144616673Y-110961673D01*
X144787624Y-110705826D01*
X145142424Y-111092966D01*
X145685258Y-111346046D01*
X145923000Y-111225997D01*
X145923000Y-109982000D01*
X145903000Y-109982000D01*
X145903000Y-109728000D01*
X145923000Y-109728000D01*
X145923000Y-108484003D01*
X145685258Y-108363954D01*
X145142424Y-108617034D01*
X144787624Y-109004174D01*
X144616673Y-108748327D01*
X144108927Y-108409062D01*
X143661182Y-108320000D01*
X143358818Y-108320000D01*
X143101071Y-108371269D01*
X141409801Y-106680000D01*
X141831071Y-106258731D01*
X142088818Y-106310000D01*
X142391182Y-106310000D01*
X142838927Y-106220938D01*
X143346673Y-105881673D01*
X143510000Y-105637237D01*
X143673327Y-105881673D01*
X144181073Y-106220938D01*
X144628818Y-106310000D01*
X144931182Y-106310000D01*
X145378927Y-106220938D01*
X145886673Y-105881673D01*
X146050000Y-105637237D01*
X146213327Y-105881673D01*
X146721073Y-106220938D01*
X147168818Y-106310000D01*
X147471182Y-106310000D01*
X147728929Y-106258731D01*
X147735526Y-106265328D01*
X147735529Y-106265330D01*
X149338685Y-107868487D01*
X149381083Y-107931940D01*
X149415357Y-107954841D01*
X149005529Y-108364670D01*
X149005526Y-108364672D01*
X148998929Y-108371269D01*
X148741182Y-108320000D01*
X148438818Y-108320000D01*
X147991073Y-108409062D01*
X147483327Y-108748327D01*
X147312376Y-109004174D01*
X146957576Y-108617034D01*
X146414742Y-108363954D01*
X146177000Y-108484003D01*
X146177000Y-109728000D01*
X146197000Y-109728000D01*
X146197000Y-109982000D01*
X146177000Y-109982000D01*
X146177000Y-111225997D01*
X146414742Y-111346046D01*
X146957576Y-111092966D01*
X147312376Y-110705826D01*
X147483327Y-110961673D01*
X147991073Y-111300938D01*
X148438818Y-111390000D01*
X148741182Y-111390000D01*
X149188927Y-111300938D01*
X149696673Y-110961673D01*
X149860000Y-110717237D01*
X150023327Y-110961673D01*
X150531073Y-111300938D01*
X150978818Y-111390000D01*
X151281182Y-111390000D01*
X151728927Y-111300938D01*
X152236673Y-110961673D01*
X152400000Y-110717237D01*
X152563327Y-110961673D01*
X153071073Y-111300938D01*
X153518818Y-111390000D01*
X153821182Y-111390000D01*
X154268927Y-111300938D01*
X154776673Y-110961673D01*
X155115938Y-110453927D01*
X155235072Y-109855000D01*
X155115938Y-109256073D01*
X154776673Y-108748327D01*
X154545738Y-108594021D01*
X159342560Y-108594020D01*
X159342560Y-111028000D01*
X159391843Y-111275765D01*
X159532191Y-111485809D01*
X159742235Y-111626157D01*
X159990000Y-111675440D01*
X162590000Y-111675440D01*
X162837765Y-111626157D01*
X163047809Y-111485809D01*
X163188157Y-111275765D01*
X163237440Y-111028000D01*
X163237440Y-109343105D01*
X164435000Y-109343105D01*
X164435000Y-110112895D01*
X164729586Y-110824090D01*
X165273910Y-111368414D01*
X165985105Y-111663000D01*
X166754895Y-111663000D01*
X167466090Y-111368414D01*
X168010414Y-110824090D01*
X168305000Y-110112895D01*
X168305000Y-109343105D01*
X168010414Y-108631910D01*
X167466090Y-108087586D01*
X166754895Y-107793000D01*
X165985105Y-107793000D01*
X165273910Y-108087586D01*
X164729586Y-108631910D01*
X164435000Y-109343105D01*
X163237440Y-109343105D01*
X163237440Y-108428000D01*
X163188157Y-108180235D01*
X163047809Y-107970191D01*
X162837765Y-107829843D01*
X162590000Y-107780560D01*
X161282062Y-107780560D01*
X166702623Y-102360000D01*
X168200153Y-102360000D01*
X168275000Y-102374888D01*
X168349847Y-102360000D01*
X168349852Y-102360000D01*
X168571537Y-102315904D01*
X168822929Y-102147929D01*
X168865331Y-102084470D01*
X170156476Y-100793327D01*
X170219929Y-100750929D01*
X170262327Y-100687476D01*
X170262329Y-100687474D01*
X170387903Y-100499538D01*
X170387904Y-100499537D01*
X170432000Y-100277852D01*
X170432000Y-100277848D01*
X170446888Y-100203001D01*
X170432000Y-100128154D01*
X170432000Y-95509846D01*
X170446888Y-95434999D01*
X170432000Y-95360152D01*
X170432000Y-95360148D01*
X170387904Y-95138463D01*
X170219929Y-94887071D01*
X170156473Y-94844671D01*
X169076331Y-93764530D01*
X169033929Y-93701071D01*
X168883440Y-93600517D01*
X168883440Y-93399000D01*
X168834157Y-93151235D01*
X168693809Y-92941191D01*
X168483765Y-92800843D01*
X168236000Y-92751560D01*
X166536000Y-92751560D01*
X166288235Y-92800843D01*
X166078191Y-92941191D01*
X165937843Y-93151235D01*
X165888560Y-93399000D01*
X165888560Y-95099000D01*
X165937843Y-95346765D01*
X166078191Y-95556809D01*
X166288235Y-95697157D01*
X166333619Y-95706184D01*
X166315375Y-95718375D01*
X165987161Y-96209582D01*
X165871908Y-96789000D01*
X165987161Y-97368418D01*
X166315375Y-97859625D01*
X166613761Y-98059000D01*
X166315375Y-98258375D01*
X165987161Y-98749582D01*
X165871908Y-99329000D01*
X165944791Y-99695407D01*
X159466199Y-106174000D01*
X156236163Y-106174000D01*
X156297809Y-106132809D01*
X156438157Y-105922765D01*
X156487440Y-105675000D01*
X156487440Y-103875000D01*
X156438157Y-103627235D01*
X156297809Y-103417191D01*
X156087765Y-103276843D01*
X155840000Y-103227560D01*
X154980130Y-103227560D01*
X155020904Y-103166538D01*
X155037142Y-103084903D01*
X155065000Y-102944852D01*
X155065000Y-102944848D01*
X155079888Y-102870000D01*
X155065000Y-102795152D01*
X155065000Y-102131440D01*
X155205000Y-102131440D01*
X155452765Y-102082157D01*
X155662809Y-101941809D01*
X155803157Y-101731765D01*
X155852440Y-101484000D01*
X155852440Y-99684000D01*
X155803157Y-99436235D01*
X155686362Y-99261440D01*
X158879000Y-96068802D01*
X158879000Y-97348198D01*
X157190639Y-99036560D01*
X156707000Y-99036560D01*
X156459235Y-99085843D01*
X156249191Y-99226191D01*
X156108843Y-99436235D01*
X156059560Y-99684000D01*
X156059560Y-101484000D01*
X156108843Y-101731765D01*
X156249191Y-101941809D01*
X156459235Y-102082157D01*
X156707000Y-102131440D01*
X158507000Y-102131440D01*
X158754765Y-102082157D01*
X158964809Y-101941809D01*
X159105157Y-101731765D01*
X159154440Y-101484000D01*
X159154440Y-99684000D01*
X159105157Y-99436235D01*
X159039231Y-99337570D01*
X160067802Y-98309000D01*
X160750250Y-98309000D01*
X160909000Y-98150250D01*
X160909000Y-96901000D01*
X160889000Y-96901000D01*
X160889000Y-96647000D01*
X160909000Y-96647000D01*
X160909000Y-95397750D01*
X161163000Y-95397750D01*
X161163000Y-96647000D01*
X161183000Y-96647000D01*
X161183000Y-96901000D01*
X161163000Y-96901000D01*
X161163000Y-98150250D01*
X161321750Y-98309000D01*
X162062309Y-98309000D01*
X162295698Y-98212327D01*
X162474327Y-98033699D01*
X162530139Y-97898956D01*
X162706493Y-98075310D01*
X163270670Y-98309000D01*
X163881330Y-98309000D01*
X164445507Y-98075310D01*
X164877310Y-97643507D01*
X165111000Y-97079330D01*
X165111000Y-96468670D01*
X164877310Y-95904493D01*
X164445507Y-95472690D01*
X163881330Y-95239000D01*
X163270670Y-95239000D01*
X162706493Y-95472690D01*
X162530139Y-95649044D01*
X162474327Y-95514301D01*
X162295698Y-95335673D01*
X162062309Y-95239000D01*
X161321750Y-95239000D01*
X161163000Y-95397750D01*
X160909000Y-95397750D01*
X160750250Y-95239000D01*
X160399000Y-95239000D01*
X160399000Y-91895847D01*
X160413888Y-91821000D01*
X160399000Y-91746153D01*
X160399000Y-91746148D01*
X160354904Y-91524463D01*
X160186929Y-91273071D01*
X160123473Y-91230671D01*
X159213331Y-90320530D01*
X159170929Y-90257071D01*
X158919537Y-90089096D01*
X158697852Y-90045000D01*
X158697847Y-90045000D01*
X158623000Y-90030112D01*
X158548153Y-90045000D01*
X152782289Y-90045000D01*
X153938290Y-88889000D01*
X154336439Y-88889000D01*
X154863862Y-88670534D01*
X155267534Y-88266862D01*
X155486000Y-87739439D01*
X155486000Y-87168561D01*
X155267534Y-86641138D01*
X154863862Y-86237466D01*
X154336439Y-86019000D01*
X153765561Y-86019000D01*
X153238138Y-86237466D01*
X152834466Y-86641138D01*
X152616000Y-87168561D01*
X152616000Y-87566710D01*
X150947711Y-89235000D01*
X134586085Y-89235000D01*
X134493999Y-89216683D01*
X134129181Y-89289250D01*
X133819903Y-89495903D01*
X133767741Y-89573969D01*
X131991972Y-91349739D01*
X131913903Y-91401903D01*
X131775167Y-91609537D01*
X131716358Y-91697551D01*
X131309439Y-91529000D01*
X130738561Y-91529000D01*
X130211138Y-91747466D01*
X129807466Y-92151138D01*
X129780475Y-92216299D01*
X129777864Y-92209995D01*
X129531745Y-92135861D01*
X128703605Y-92964000D01*
X129531745Y-93792139D01*
X129777864Y-93718005D01*
X129780290Y-93711254D01*
X129807466Y-93776862D01*
X130211138Y-94180534D01*
X130738561Y-94399000D01*
X131309439Y-94399000D01*
X131653000Y-94256692D01*
X131653001Y-97275709D01*
X130427972Y-98500739D01*
X130349903Y-98552903D01*
X130189402Y-98793111D01*
X130143250Y-98862182D01*
X130070683Y-99227000D01*
X130089000Y-99319086D01*
X130089000Y-99489604D01*
X129807466Y-99771138D01*
X129780475Y-99836299D01*
X129777864Y-99829995D01*
X129531745Y-99755861D01*
X128703605Y-100584000D01*
X129531745Y-101412139D01*
X129777864Y-101338005D01*
X129780290Y-101331254D01*
X129807466Y-101396862D01*
X130089001Y-101678397D01*
X130089001Y-101819801D01*
X130070683Y-101911891D01*
X130143250Y-102276709D01*
X130208851Y-102374888D01*
X130349904Y-102585988D01*
X130427970Y-102638150D01*
X131001850Y-103212030D01*
X131054012Y-103290097D01*
X131363290Y-103496750D01*
X131636023Y-103551000D01*
X131636027Y-103551000D01*
X131728108Y-103569316D01*
X131820189Y-103551000D01*
X136228919Y-103551000D01*
X136053327Y-103668327D01*
X135714062Y-104176073D01*
X135594928Y-104775000D01*
X135714062Y-105373927D01*
X136053327Y-105881673D01*
X136110687Y-105920000D01*
X132778622Y-105920000D01*
X128863084Y-102004463D01*
X128877454Y-102003778D01*
X129278005Y-101837864D01*
X129352139Y-101591745D01*
X128524000Y-100763605D01*
X128509858Y-100777748D01*
X128330253Y-100598143D01*
X128344395Y-100584000D01*
X128330252Y-100569858D01*
X128509858Y-100390252D01*
X128524000Y-100404395D01*
X129352139Y-99576255D01*
X129278005Y-99330136D01*
X128740777Y-99137035D01*
X128170546Y-99164222D01*
X127769995Y-99330136D01*
X127695861Y-99576253D01*
X127580986Y-99461378D01*
X127506000Y-99536364D01*
X127506000Y-95001848D01*
X127520888Y-94927000D01*
X127506000Y-94852152D01*
X127506000Y-94852148D01*
X127461904Y-94630463D01*
X127461904Y-94630462D01*
X127336329Y-94442527D01*
X127293929Y-94379071D01*
X127230473Y-94336671D01*
X126865547Y-93971745D01*
X127695861Y-93971745D01*
X127769995Y-94217864D01*
X128307223Y-94410965D01*
X128877454Y-94383778D01*
X129278005Y-94217864D01*
X129352139Y-93971745D01*
X128524000Y-93143605D01*
X127695861Y-93971745D01*
X126865547Y-93971745D01*
X126658331Y-93764530D01*
X126615929Y-93701071D01*
X126465440Y-93600517D01*
X126465440Y-93399000D01*
X126416157Y-93151235D01*
X126275809Y-92941191D01*
X126065765Y-92800843D01*
X125818000Y-92751560D01*
X124118000Y-92751560D01*
X123870235Y-92800843D01*
X123660191Y-92941191D01*
X123519843Y-93151235D01*
X123470560Y-93399000D01*
X123470560Y-95099000D01*
X123519843Y-95346765D01*
X123660191Y-95556809D01*
X123870235Y-95697157D01*
X123915619Y-95706184D01*
X123897375Y-95718375D01*
X123569161Y-96209582D01*
X123474693Y-96684505D01*
X122959528Y-97199671D01*
X122896072Y-97242071D01*
X122853672Y-97305527D01*
X122853671Y-97305528D01*
X122728097Y-97493463D01*
X122669112Y-97790000D01*
X120090000Y-97790000D01*
X120090000Y-92747223D01*
X127077035Y-92747223D01*
X127104222Y-93317454D01*
X127270136Y-93718005D01*
X127516255Y-93792139D01*
X128344395Y-92964000D01*
X127516255Y-92135861D01*
X127270136Y-92209995D01*
X127077035Y-92747223D01*
X120090000Y-92747223D01*
X120090000Y-91956255D01*
X127695861Y-91956255D01*
X128524000Y-92784395D01*
X129352139Y-91956255D01*
X129278005Y-91710136D01*
X128740777Y-91517035D01*
X128170546Y-91544222D01*
X127769995Y-91710136D01*
X127695861Y-91956255D01*
X120090000Y-91956255D01*
X120090000Y-83644000D01*
X123308276Y-83644000D01*
X123493380Y-84574580D01*
X124020511Y-85363489D01*
X124809420Y-85890620D01*
X125505103Y-86029000D01*
X125974897Y-86029000D01*
X126670580Y-85890620D01*
X127459489Y-85363489D01*
X127547681Y-85231500D01*
X140752560Y-85231500D01*
X140752560Y-87136500D01*
X140801843Y-87384265D01*
X140942191Y-87594309D01*
X141152235Y-87734657D01*
X141400000Y-87783940D01*
X143400000Y-87783940D01*
X143647765Y-87734657D01*
X143857809Y-87594309D01*
X143998157Y-87384265D01*
X144015216Y-87298505D01*
X144053739Y-87337028D01*
X144105903Y-87415097D01*
X144336443Y-87569139D01*
X144415181Y-87621750D01*
X144780000Y-87694317D01*
X144872086Y-87676000D01*
X145391413Y-87676000D01*
X145413843Y-87788765D01*
X145554191Y-87998809D01*
X145764235Y-88139157D01*
X146012000Y-88188440D01*
X147612000Y-88188440D01*
X147859765Y-88139157D01*
X148069809Y-87998809D01*
X148210157Y-87788765D01*
X148218117Y-87748745D01*
X148483861Y-87748745D01*
X148557995Y-87994864D01*
X149095223Y-88187965D01*
X149665454Y-88160778D01*
X150066005Y-87994864D01*
X150140139Y-87748745D01*
X149312000Y-86920605D01*
X148483861Y-87748745D01*
X148218117Y-87748745D01*
X148256693Y-87554813D01*
X148304255Y-87569139D01*
X149132395Y-86741000D01*
X149491605Y-86741000D01*
X150319745Y-87569139D01*
X150565864Y-87495005D01*
X150758965Y-86957777D01*
X150731778Y-86387546D01*
X150565864Y-85986995D01*
X150319745Y-85912861D01*
X149491605Y-86741000D01*
X149132395Y-86741000D01*
X148304255Y-85912861D01*
X148256693Y-85927187D01*
X148218118Y-85733255D01*
X148483861Y-85733255D01*
X149312000Y-86561395D01*
X150140139Y-85733255D01*
X150066005Y-85487136D01*
X149528777Y-85294035D01*
X148958546Y-85321222D01*
X148557995Y-85487136D01*
X148483861Y-85733255D01*
X148218118Y-85733255D01*
X148210157Y-85693235D01*
X148069809Y-85483191D01*
X147859765Y-85342843D01*
X147612000Y-85293560D01*
X146012000Y-85293560D01*
X145764235Y-85342843D01*
X145554191Y-85483191D01*
X145413843Y-85693235D01*
X145391413Y-85806000D01*
X145167289Y-85806000D01*
X144949261Y-85587972D01*
X144897097Y-85509903D01*
X144587819Y-85303250D01*
X144315086Y-85249000D01*
X144223000Y-85230683D01*
X144130914Y-85249000D01*
X144047440Y-85249000D01*
X144047440Y-85231500D01*
X143998157Y-84983735D01*
X143857809Y-84773691D01*
X143652857Y-84636745D01*
X143775973Y-84510924D01*
X143990563Y-84016980D01*
X143870594Y-83771000D01*
X142527000Y-83771000D01*
X142527000Y-83791000D01*
X142273000Y-83791000D01*
X142273000Y-83771000D01*
X140929406Y-83771000D01*
X140809437Y-84016980D01*
X141024027Y-84510924D01*
X141147143Y-84636745D01*
X140942191Y-84773691D01*
X140801843Y-84983735D01*
X140752560Y-85231500D01*
X127547681Y-85231500D01*
X127986620Y-84574580D01*
X128171724Y-83644000D01*
X127986620Y-82713420D01*
X127459489Y-81924511D01*
X126670580Y-81397380D01*
X125974897Y-81259000D01*
X125505103Y-81259000D01*
X124809420Y-81397380D01*
X124020511Y-81924511D01*
X123493380Y-82713420D01*
X123308276Y-83644000D01*
X120090000Y-83644000D01*
X120090000Y-81104000D01*
X140733900Y-81104000D01*
X140857109Y-81723411D01*
X141207977Y-82248523D01*
X141409474Y-82383159D01*
X141024027Y-82777076D01*
X140809437Y-83271020D01*
X140929406Y-83517000D01*
X142273000Y-83517000D01*
X142273000Y-83497000D01*
X142527000Y-83497000D01*
X142527000Y-83517000D01*
X143870594Y-83517000D01*
X143990563Y-83271020D01*
X143852882Y-82954105D01*
X158720000Y-82954105D01*
X158720000Y-83723895D01*
X159014586Y-84435090D01*
X159558910Y-84979414D01*
X160270105Y-85274000D01*
X161039895Y-85274000D01*
X161751090Y-84979414D01*
X162295414Y-84435090D01*
X162590000Y-83723895D01*
X162590000Y-83624750D01*
X163800000Y-83624750D01*
X163800000Y-84765310D01*
X163896673Y-84998699D01*
X164075302Y-85177327D01*
X164308691Y-85274000D01*
X165449250Y-85274000D01*
X165608000Y-85115250D01*
X165608000Y-83466000D01*
X165862000Y-83466000D01*
X165862000Y-85115250D01*
X166020750Y-85274000D01*
X167161309Y-85274000D01*
X167394698Y-85177327D01*
X167573327Y-84998699D01*
X167670000Y-84765310D01*
X167670000Y-83624750D01*
X167511250Y-83466000D01*
X165862000Y-83466000D01*
X165608000Y-83466000D01*
X163958750Y-83466000D01*
X163800000Y-83624750D01*
X162590000Y-83624750D01*
X162590000Y-82954105D01*
X162295414Y-82242910D01*
X161965194Y-81912690D01*
X163800000Y-81912690D01*
X163800000Y-83053250D01*
X163958750Y-83212000D01*
X165608000Y-83212000D01*
X165608000Y-81562750D01*
X165862000Y-81562750D01*
X165862000Y-83212000D01*
X167511250Y-83212000D01*
X167670000Y-83053250D01*
X167670000Y-81912690D01*
X167573327Y-81679301D01*
X167394698Y-81500673D01*
X167161309Y-81404000D01*
X166020750Y-81404000D01*
X165862000Y-81562750D01*
X165608000Y-81562750D01*
X165449250Y-81404000D01*
X164308691Y-81404000D01*
X164075302Y-81500673D01*
X163896673Y-81679301D01*
X163800000Y-81912690D01*
X161965194Y-81912690D01*
X161751090Y-81698586D01*
X161039895Y-81404000D01*
X160270105Y-81404000D01*
X159558910Y-81698586D01*
X159014586Y-82242910D01*
X158720000Y-82954105D01*
X143852882Y-82954105D01*
X143775973Y-82777076D01*
X143390526Y-82383159D01*
X143592023Y-82248523D01*
X143732022Y-82039000D01*
X144228914Y-82039000D01*
X144321000Y-82057317D01*
X144413086Y-82039000D01*
X144685819Y-81984750D01*
X144995097Y-81778097D01*
X145047261Y-81700028D01*
X145294289Y-81453000D01*
X145391413Y-81453000D01*
X145413843Y-81565765D01*
X145554191Y-81775809D01*
X145764235Y-81916157D01*
X146012000Y-81965440D01*
X147612000Y-81965440D01*
X147859765Y-81916157D01*
X148069809Y-81775809D01*
X148210157Y-81565765D01*
X148218117Y-81525745D01*
X148483861Y-81525745D01*
X148557995Y-81771864D01*
X149095223Y-81964965D01*
X149665454Y-81937778D01*
X150066005Y-81771864D01*
X150140139Y-81525745D01*
X149312000Y-80697605D01*
X148483861Y-81525745D01*
X148218117Y-81525745D01*
X148256693Y-81331813D01*
X148304255Y-81346139D01*
X149132395Y-80518000D01*
X149491605Y-80518000D01*
X150319745Y-81346139D01*
X150565864Y-81272005D01*
X150758965Y-80734777D01*
X150731778Y-80164546D01*
X150594862Y-79834000D01*
X152587887Y-79834000D01*
X152699260Y-80393909D01*
X153016423Y-80868577D01*
X153491091Y-81185740D01*
X153909667Y-81269000D01*
X154192333Y-81269000D01*
X154610909Y-81185740D01*
X155085577Y-80868577D01*
X155402740Y-80393909D01*
X155514113Y-79834000D01*
X155402740Y-79274091D01*
X155085577Y-78799423D01*
X154610909Y-78482260D01*
X154192333Y-78399000D01*
X153909667Y-78399000D01*
X153491091Y-78482260D01*
X153016423Y-78799423D01*
X152699260Y-79274091D01*
X152587887Y-79834000D01*
X150594862Y-79834000D01*
X150565864Y-79763995D01*
X150319745Y-79689861D01*
X149491605Y-80518000D01*
X149132395Y-80518000D01*
X148304255Y-79689861D01*
X148256693Y-79704187D01*
X148218118Y-79510255D01*
X148483861Y-79510255D01*
X149312000Y-80338395D01*
X150140139Y-79510255D01*
X150066005Y-79264136D01*
X149528777Y-79071035D01*
X148958546Y-79098222D01*
X148557995Y-79264136D01*
X148483861Y-79510255D01*
X148218118Y-79510255D01*
X148210157Y-79470235D01*
X148069809Y-79260191D01*
X147859765Y-79119843D01*
X147612000Y-79070560D01*
X146012000Y-79070560D01*
X145764235Y-79119843D01*
X145554191Y-79260191D01*
X145413843Y-79470235D01*
X145391413Y-79583000D01*
X144999085Y-79583000D01*
X144906999Y-79564683D01*
X144686169Y-79608609D01*
X144542181Y-79637250D01*
X144232903Y-79843903D01*
X144180739Y-79921972D01*
X143933711Y-80169000D01*
X143732022Y-80169000D01*
X143592023Y-79959477D01*
X143066911Y-79608609D01*
X142603850Y-79516500D01*
X142196150Y-79516500D01*
X141733089Y-79608609D01*
X141207977Y-79959477D01*
X140857109Y-80484589D01*
X140733900Y-81104000D01*
X120090000Y-81104000D01*
X120090000Y-75640000D01*
X172010000Y-75640000D01*
X172010001Y-119940000D01*
G36*
X152859062Y-92365073D02*
X152739928Y-92964000D01*
X152859062Y-93562927D01*
X153198327Y-94070673D01*
X153706073Y-94409938D01*
X154153818Y-94499000D01*
X154456182Y-94499000D01*
X154903927Y-94409938D01*
X155411673Y-94070673D01*
X155750938Y-93562927D01*
X155870072Y-92964000D01*
X155750938Y-92365073D01*
X155555781Y-92073000D01*
X156356219Y-92073000D01*
X156161062Y-92365073D01*
X156041928Y-92964000D01*
X156161062Y-93562927D01*
X156500327Y-94070673D01*
X157008073Y-94409938D01*
X157455818Y-94499000D01*
X157758182Y-94499000D01*
X158205927Y-94409938D01*
X158371001Y-94299639D01*
X158371001Y-94427197D01*
X153820530Y-98977669D01*
X153757071Y-99020071D01*
X153746053Y-99036560D01*
X153405000Y-99036560D01*
X153157235Y-99085843D01*
X152947191Y-99226191D01*
X152806843Y-99436235D01*
X152757560Y-99684000D01*
X152757560Y-101484000D01*
X152806843Y-101731765D01*
X152947191Y-101941809D01*
X153157235Y-102082157D01*
X153405000Y-102131440D01*
X153545001Y-102131440D01*
X153545001Y-102555197D01*
X152808929Y-103291269D01*
X152551182Y-103240000D01*
X152248818Y-103240000D01*
X151801073Y-103329062D01*
X151293327Y-103668327D01*
X151130000Y-103912763D01*
X150966673Y-103668327D01*
X150458927Y-103329062D01*
X150011182Y-103240000D01*
X149708818Y-103240000D01*
X149261073Y-103329062D01*
X148753327Y-103668327D01*
X148590000Y-103912763D01*
X148426673Y-103668327D01*
X147918927Y-103329062D01*
X147471182Y-103240000D01*
X147168818Y-103240000D01*
X146721073Y-103329062D01*
X146213327Y-103668327D01*
X146050000Y-103912763D01*
X145886673Y-103668327D01*
X145689010Y-103536253D01*
X145660750Y-103394181D01*
X145582347Y-103276843D01*
X145454097Y-103084903D01*
X145376031Y-103032741D01*
X144462289Y-102119000D01*
X144526002Y-102119000D01*
X144526002Y-101960252D01*
X144684750Y-102119000D01*
X145425310Y-102119000D01*
X145658699Y-102022327D01*
X145837327Y-101843698D01*
X145934000Y-101610309D01*
X145934000Y-100869750D01*
X146166000Y-100869750D01*
X146166000Y-101610309D01*
X146262673Y-101843698D01*
X146441301Y-102022327D01*
X146674690Y-102119000D01*
X147415250Y-102119000D01*
X147574000Y-101960250D01*
X147574000Y-100711000D01*
X147828000Y-100711000D01*
X147828000Y-101960250D01*
X147986750Y-102119000D01*
X148727310Y-102119000D01*
X148960699Y-102022327D01*
X149139327Y-101843698D01*
X149236000Y-101610309D01*
X149236000Y-100869750D01*
X149468000Y-100869750D01*
X149468000Y-101610309D01*
X149564673Y-101843698D01*
X149743301Y-102022327D01*
X149976690Y-102119000D01*
X150717250Y-102119000D01*
X150876000Y-101960250D01*
X150876000Y-100711000D01*
X151130000Y-100711000D01*
X151130000Y-101960250D01*
X151288750Y-102119000D01*
X152029310Y-102119000D01*
X152262699Y-102022327D01*
X152441327Y-101843698D01*
X152538000Y-101610309D01*
X152538000Y-100869750D01*
X152379250Y-100711000D01*
X151130000Y-100711000D01*
X150876000Y-100711000D01*
X149626750Y-100711000D01*
X149468000Y-100869750D01*
X149236000Y-100869750D01*
X149077250Y-100711000D01*
X147828000Y-100711000D01*
X147574000Y-100711000D01*
X146324750Y-100711000D01*
X146166000Y-100869750D01*
X145934000Y-100869750D01*
X145775250Y-100711000D01*
X144526000Y-100711000D01*
X144526000Y-100731000D01*
X144272000Y-100731000D01*
X144272000Y-100711000D01*
X143022750Y-100711000D01*
X142864000Y-100869750D01*
X142864000Y-101610309D01*
X142893281Y-101681000D01*
X142602719Y-101681000D01*
X142632000Y-101610309D01*
X142632000Y-100869750D01*
X142473250Y-100711000D01*
X141224000Y-100711000D01*
X141224000Y-100731000D01*
X140970000Y-100731000D01*
X140970000Y-100711000D01*
X139720750Y-100711000D01*
X139562000Y-100869750D01*
X139562000Y-101610309D01*
X139591281Y-101681000D01*
X139303255Y-101681000D01*
X139342440Y-101484000D01*
X139342440Y-99684000D01*
X139317316Y-99557691D01*
X139562000Y-99557691D01*
X139562000Y-100298250D01*
X139720750Y-100457000D01*
X140970000Y-100457000D01*
X140970000Y-99207750D01*
X141224000Y-99207750D01*
X141224000Y-100457000D01*
X142473250Y-100457000D01*
X142632000Y-100298250D01*
X142632000Y-99557691D01*
X142864000Y-99557691D01*
X142864000Y-100298250D01*
X143022750Y-100457000D01*
X144272000Y-100457000D01*
X144272000Y-99207750D01*
X144526000Y-99207750D01*
X144526000Y-100457000D01*
X145775250Y-100457000D01*
X145934000Y-100298250D01*
X145934000Y-99557691D01*
X146166000Y-99557691D01*
X146166000Y-100298250D01*
X146324750Y-100457000D01*
X147574000Y-100457000D01*
X147574000Y-99207750D01*
X147828000Y-99207750D01*
X147828000Y-100457000D01*
X149077250Y-100457000D01*
X149236000Y-100298250D01*
X149236000Y-99557691D01*
X149468000Y-99557691D01*
X149468000Y-100298250D01*
X149626750Y-100457000D01*
X150876000Y-100457000D01*
X150876000Y-99207750D01*
X151130000Y-99207750D01*
X151130000Y-100457000D01*
X152379250Y-100457000D01*
X152538000Y-100298250D01*
X152538000Y-99557691D01*
X152441327Y-99324302D01*
X152262699Y-99145673D01*
X152029310Y-99049000D01*
X151288750Y-99049000D01*
X151130000Y-99207750D01*
X150876000Y-99207750D01*
X150717250Y-99049000D01*
X149976690Y-99049000D01*
X149743301Y-99145673D01*
X149564673Y-99324302D01*
X149468000Y-99557691D01*
X149236000Y-99557691D01*
X149139327Y-99324302D01*
X148960699Y-99145673D01*
X148727310Y-99049000D01*
X147986750Y-99049000D01*
X147828000Y-99207750D01*
X147574000Y-99207750D01*
X147415250Y-99049000D01*
X146674690Y-99049000D01*
X146441301Y-99145673D01*
X146262673Y-99324302D01*
X146166000Y-99557691D01*
X145934000Y-99557691D01*
X145837327Y-99324302D01*
X145658699Y-99145673D01*
X145425310Y-99049000D01*
X144684750Y-99049000D01*
X144526000Y-99207750D01*
X144272000Y-99207750D01*
X144113250Y-99049000D01*
X143372690Y-99049000D01*
X143139301Y-99145673D01*
X142960673Y-99324302D01*
X142864000Y-99557691D01*
X142632000Y-99557691D01*
X142535327Y-99324302D01*
X142356699Y-99145673D01*
X142123310Y-99049000D01*
X141382750Y-99049000D01*
X141224000Y-99207750D01*
X140970000Y-99207750D01*
X140811250Y-99049000D01*
X140070690Y-99049000D01*
X139837301Y-99145673D01*
X139658673Y-99324302D01*
X139562000Y-99557691D01*
X139317316Y-99557691D01*
X139293157Y-99436235D01*
X139152809Y-99226191D01*
X138942765Y-99085843D01*
X138695000Y-99036560D01*
X136895000Y-99036560D01*
X136647235Y-99085843D01*
X136437191Y-99226191D01*
X136296843Y-99436235D01*
X136247560Y-99684000D01*
X136247560Y-101484000D01*
X136286745Y-101681000D01*
X136001255Y-101681000D01*
X136040440Y-101484000D01*
X136040440Y-99684000D01*
X135991157Y-99436235D01*
X135850809Y-99226191D01*
X135640765Y-99085843D01*
X135393000Y-99036560D01*
X135253000Y-99036560D01*
X135253000Y-98104801D01*
X136966802Y-96391000D01*
X149912153Y-96391000D01*
X149987000Y-96405888D01*
X150061847Y-96391000D01*
X150061852Y-96391000D01*
X150283537Y-96346904D01*
X150534929Y-96178929D01*
X150577331Y-96115470D01*
X151487473Y-95205329D01*
X151550929Y-95162929D01*
X151718904Y-94911537D01*
X151763000Y-94689852D01*
X151763000Y-94689847D01*
X151777888Y-94615000D01*
X151763000Y-94540153D01*
X151763000Y-94302312D01*
X152109673Y-94070673D01*
X152448938Y-93562927D01*
X152568072Y-92964000D01*
X152448938Y-92365073D01*
X152253781Y-92073000D01*
X153054219Y-92073000D01*
X152859062Y-92365073D01*
X152859062Y-92365073D01*
G37*
X152859062Y-92365073D02*
X152739928Y-92964000D01*
X152859062Y-93562927D01*
X153198327Y-94070673D01*
X153706073Y-94409938D01*
X154153818Y-94499000D01*
X154456182Y-94499000D01*
X154903927Y-94409938D01*
X155411673Y-94070673D01*
X155750938Y-93562927D01*
X155870072Y-92964000D01*
X155750938Y-92365073D01*
X155555781Y-92073000D01*
X156356219Y-92073000D01*
X156161062Y-92365073D01*
X156041928Y-92964000D01*
X156161062Y-93562927D01*
X156500327Y-94070673D01*
X157008073Y-94409938D01*
X157455818Y-94499000D01*
X157758182Y-94499000D01*
X158205927Y-94409938D01*
X158371001Y-94299639D01*
X158371001Y-94427197D01*
X153820530Y-98977669D01*
X153757071Y-99020071D01*
X153746053Y-99036560D01*
X153405000Y-99036560D01*
X153157235Y-99085843D01*
X152947191Y-99226191D01*
X152806843Y-99436235D01*
X152757560Y-99684000D01*
X152757560Y-101484000D01*
X152806843Y-101731765D01*
X152947191Y-101941809D01*
X153157235Y-102082157D01*
X153405000Y-102131440D01*
X153545001Y-102131440D01*
X153545001Y-102555197D01*
X152808929Y-103291269D01*
X152551182Y-103240000D01*
X152248818Y-103240000D01*
X151801073Y-103329062D01*
X151293327Y-103668327D01*
X151130000Y-103912763D01*
X150966673Y-103668327D01*
X150458927Y-103329062D01*
X150011182Y-103240000D01*
X149708818Y-103240000D01*
X149261073Y-103329062D01*
X148753327Y-103668327D01*
X148590000Y-103912763D01*
X148426673Y-103668327D01*
X147918927Y-103329062D01*
X147471182Y-103240000D01*
X147168818Y-103240000D01*
X146721073Y-103329062D01*
X146213327Y-103668327D01*
X146050000Y-103912763D01*
X145886673Y-103668327D01*
X145689010Y-103536253D01*
X145660750Y-103394181D01*
X145582347Y-103276843D01*
X145454097Y-103084903D01*
X145376031Y-103032741D01*
X144462289Y-102119000D01*
X144526002Y-102119000D01*
X144526002Y-101960252D01*
X144684750Y-102119000D01*
X145425310Y-102119000D01*
X145658699Y-102022327D01*
X145837327Y-101843698D01*
X145934000Y-101610309D01*
X145934000Y-100869750D01*
X146166000Y-100869750D01*
X146166000Y-101610309D01*
X146262673Y-101843698D01*
X146441301Y-102022327D01*
X146674690Y-102119000D01*
X147415250Y-102119000D01*
X147574000Y-101960250D01*
X147574000Y-100711000D01*
X147828000Y-100711000D01*
X147828000Y-101960250D01*
X147986750Y-102119000D01*
X148727310Y-102119000D01*
X148960699Y-102022327D01*
X149139327Y-101843698D01*
X149236000Y-101610309D01*
X149236000Y-100869750D01*
X149468000Y-100869750D01*
X149468000Y-101610309D01*
X149564673Y-101843698D01*
X149743301Y-102022327D01*
X149976690Y-102119000D01*
X150717250Y-102119000D01*
X150876000Y-101960250D01*
X150876000Y-100711000D01*
X151130000Y-100711000D01*
X151130000Y-101960250D01*
X151288750Y-102119000D01*
X152029310Y-102119000D01*
X152262699Y-102022327D01*
X152441327Y-101843698D01*
X152538000Y-101610309D01*
X152538000Y-100869750D01*
X152379250Y-100711000D01*
X151130000Y-100711000D01*
X150876000Y-100711000D01*
X149626750Y-100711000D01*
X149468000Y-100869750D01*
X149236000Y-100869750D01*
X149077250Y-100711000D01*
X147828000Y-100711000D01*
X147574000Y-100711000D01*
X146324750Y-100711000D01*
X146166000Y-100869750D01*
X145934000Y-100869750D01*
X145775250Y-100711000D01*
X144526000Y-100711000D01*
X144526000Y-100731000D01*
X144272000Y-100731000D01*
X144272000Y-100711000D01*
X143022750Y-100711000D01*
X142864000Y-100869750D01*
X142864000Y-101610309D01*
X142893281Y-101681000D01*
X142602719Y-101681000D01*
X142632000Y-101610309D01*
X142632000Y-100869750D01*
X142473250Y-100711000D01*
X141224000Y-100711000D01*
X141224000Y-100731000D01*
X140970000Y-100731000D01*
X140970000Y-100711000D01*
X139720750Y-100711000D01*
X139562000Y-100869750D01*
X139562000Y-101610309D01*
X139591281Y-101681000D01*
X139303255Y-101681000D01*
X139342440Y-101484000D01*
X139342440Y-99684000D01*
X139317316Y-99557691D01*
X139562000Y-99557691D01*
X139562000Y-100298250D01*
X139720750Y-100457000D01*
X140970000Y-100457000D01*
X140970000Y-99207750D01*
X141224000Y-99207750D01*
X141224000Y-100457000D01*
X142473250Y-100457000D01*
X142632000Y-100298250D01*
X142632000Y-99557691D01*
X142864000Y-99557691D01*
X142864000Y-100298250D01*
X143022750Y-100457000D01*
X144272000Y-100457000D01*
X144272000Y-99207750D01*
X144526000Y-99207750D01*
X144526000Y-100457000D01*
X145775250Y-100457000D01*
X145934000Y-100298250D01*
X145934000Y-99557691D01*
X146166000Y-99557691D01*
X146166000Y-100298250D01*
X146324750Y-100457000D01*
X147574000Y-100457000D01*
X147574000Y-99207750D01*
X147828000Y-99207750D01*
X147828000Y-100457000D01*
X149077250Y-100457000D01*
X149236000Y-100298250D01*
X149236000Y-99557691D01*
X149468000Y-99557691D01*
X149468000Y-100298250D01*
X149626750Y-100457000D01*
X150876000Y-100457000D01*
X150876000Y-99207750D01*
X151130000Y-99207750D01*
X151130000Y-100457000D01*
X152379250Y-100457000D01*
X152538000Y-100298250D01*
X152538000Y-99557691D01*
X152441327Y-99324302D01*
X152262699Y-99145673D01*
X152029310Y-99049000D01*
X151288750Y-99049000D01*
X151130000Y-99207750D01*
X150876000Y-99207750D01*
X150717250Y-99049000D01*
X149976690Y-99049000D01*
X149743301Y-99145673D01*
X149564673Y-99324302D01*
X149468000Y-99557691D01*
X149236000Y-99557691D01*
X149139327Y-99324302D01*
X148960699Y-99145673D01*
X148727310Y-99049000D01*
X147986750Y-99049000D01*
X147828000Y-99207750D01*
X147574000Y-99207750D01*
X147415250Y-99049000D01*
X146674690Y-99049000D01*
X146441301Y-99145673D01*
X146262673Y-99324302D01*
X146166000Y-99557691D01*
X145934000Y-99557691D01*
X145837327Y-99324302D01*
X145658699Y-99145673D01*
X145425310Y-99049000D01*
X144684750Y-99049000D01*
X144526000Y-99207750D01*
X144272000Y-99207750D01*
X144113250Y-99049000D01*
X143372690Y-99049000D01*
X143139301Y-99145673D01*
X142960673Y-99324302D01*
X142864000Y-99557691D01*
X142632000Y-99557691D01*
X142535327Y-99324302D01*
X142356699Y-99145673D01*
X142123310Y-99049000D01*
X141382750Y-99049000D01*
X141224000Y-99207750D01*
X140970000Y-99207750D01*
X140811250Y-99049000D01*
X140070690Y-99049000D01*
X139837301Y-99145673D01*
X139658673Y-99324302D01*
X139562000Y-99557691D01*
X139317316Y-99557691D01*
X139293157Y-99436235D01*
X139152809Y-99226191D01*
X138942765Y-99085843D01*
X138695000Y-99036560D01*
X136895000Y-99036560D01*
X136647235Y-99085843D01*
X136437191Y-99226191D01*
X136296843Y-99436235D01*
X136247560Y-99684000D01*
X136247560Y-101484000D01*
X136286745Y-101681000D01*
X136001255Y-101681000D01*
X136040440Y-101484000D01*
X136040440Y-99684000D01*
X135991157Y-99436235D01*
X135850809Y-99226191D01*
X135640765Y-99085843D01*
X135393000Y-99036560D01*
X135253000Y-99036560D01*
X135253000Y-98104801D01*
X136966802Y-96391000D01*
X149912153Y-96391000D01*
X149987000Y-96405888D01*
X150061847Y-96391000D01*
X150061852Y-96391000D01*
X150283537Y-96346904D01*
X150534929Y-96178929D01*
X150577331Y-96115470D01*
X151487473Y-95205329D01*
X151550929Y-95162929D01*
X151718904Y-94911537D01*
X151763000Y-94689852D01*
X151763000Y-94689847D01*
X151777888Y-94615000D01*
X151763000Y-94540153D01*
X151763000Y-94302312D01*
X152109673Y-94070673D01*
X152448938Y-93562927D01*
X152568072Y-92964000D01*
X152448938Y-92365073D01*
X152253781Y-92073000D01*
X153054219Y-92073000D01*
X152859062Y-92365073D01*
G04 #@! TD*
M02*
