G04 #@! TF.GenerationSoftware,KiCad,Pcbnew,(5.0.2)-1*
G04 #@! TF.CreationDate,2020-05-10T23:04:12+05:30*
G04 #@! TF.ProjectId,L298 Module,4c323938-204d-46f6-9475-6c652e6b6963,V1.0*
G04 #@! TF.SameCoordinates,Original*
G04 #@! TF.FileFunction,Soldermask,Bot*
G04 #@! TF.FilePolarity,Negative*
%FSLAX46Y46*%
G04 Gerber Fmt 4.6, Leading zero omitted, Abs format (unit mm)*
G04 Created by KiCad (PCBNEW (5.0.2)-1) date 05/10/20 23:04:12*
%MOMM*%
%LPD*%
G01*
G04 APERTURE LIST*
%ADD10C,0.100000*%
G04 APERTURE END LIST*
D10*
G36*
X166633567Y-108402959D02*
X166764072Y-108428918D01*
X167009939Y-108530759D01*
X167230464Y-108678110D01*
X167231215Y-108678612D01*
X167419388Y-108866785D01*
X167419390Y-108866788D01*
X167567241Y-109088061D01*
X167669082Y-109333928D01*
X167721000Y-109594938D01*
X167721000Y-109861062D01*
X167669082Y-110122072D01*
X167567241Y-110367939D01*
X167419890Y-110588464D01*
X167419388Y-110589215D01*
X167231215Y-110777388D01*
X167231212Y-110777390D01*
X167009939Y-110925241D01*
X166764072Y-111027082D01*
X166633567Y-111053041D01*
X166503063Y-111079000D01*
X166236937Y-111079000D01*
X166106433Y-111053041D01*
X165975928Y-111027082D01*
X165730061Y-110925241D01*
X165508788Y-110777390D01*
X165508785Y-110777388D01*
X165320612Y-110589215D01*
X165320110Y-110588464D01*
X165172759Y-110367939D01*
X165070918Y-110122072D01*
X165019000Y-109861062D01*
X165019000Y-109594938D01*
X165070918Y-109333928D01*
X165172759Y-109088061D01*
X165320610Y-108866788D01*
X165320612Y-108866785D01*
X165508785Y-108678612D01*
X165509536Y-108678110D01*
X165730061Y-108530759D01*
X165975928Y-108428918D01*
X166106433Y-108402959D01*
X166236937Y-108377000D01*
X166503063Y-108377000D01*
X166633567Y-108402959D01*
X166633567Y-108402959D01*
G37*
G36*
X162641000Y-111079000D02*
X159939000Y-111079000D01*
X159939000Y-108377000D01*
X162641000Y-108377000D01*
X162641000Y-111079000D01*
X162641000Y-111079000D01*
G37*
G36*
X131073567Y-108402959D02*
X131204072Y-108428918D01*
X131449939Y-108530759D01*
X131670464Y-108678110D01*
X131671215Y-108678612D01*
X131859388Y-108866785D01*
X131859390Y-108866788D01*
X132007241Y-109088061D01*
X132109082Y-109333928D01*
X132161000Y-109594938D01*
X132161000Y-109861062D01*
X132109082Y-110122072D01*
X132007241Y-110367939D01*
X131859890Y-110588464D01*
X131859388Y-110589215D01*
X131671215Y-110777388D01*
X131671212Y-110777390D01*
X131449939Y-110925241D01*
X131204072Y-111027082D01*
X131073567Y-111053041D01*
X130943063Y-111079000D01*
X130676937Y-111079000D01*
X130546433Y-111053041D01*
X130415928Y-111027082D01*
X130170061Y-110925241D01*
X129948788Y-110777390D01*
X129948785Y-110777388D01*
X129760612Y-110589215D01*
X129760110Y-110588464D01*
X129612759Y-110367939D01*
X129510918Y-110122072D01*
X129459000Y-109861062D01*
X129459000Y-109594938D01*
X129510918Y-109333928D01*
X129612759Y-109088061D01*
X129760610Y-108866788D01*
X129760612Y-108866785D01*
X129948785Y-108678612D01*
X129949536Y-108678110D01*
X130170061Y-108530759D01*
X130415928Y-108428918D01*
X130546433Y-108402959D01*
X130676937Y-108377000D01*
X130943063Y-108377000D01*
X131073567Y-108402959D01*
X131073567Y-108402959D01*
G37*
G36*
X127081000Y-111079000D02*
X124379000Y-111079000D01*
X124379000Y-108377000D01*
X127081000Y-108377000D01*
X127081000Y-111079000D01*
X127081000Y-111079000D01*
G37*
G36*
X146236425Y-108917760D02*
X146236428Y-108917761D01*
X146236429Y-108917761D01*
X146415693Y-108972140D01*
X146415695Y-108972141D01*
X146580905Y-109060448D01*
X146725712Y-109179288D01*
X146844552Y-109324095D01*
X146844553Y-109324097D01*
X146932860Y-109489307D01*
X146987239Y-109668571D01*
X146987240Y-109668575D01*
X147005601Y-109855000D01*
X146987240Y-110041425D01*
X146987239Y-110041428D01*
X146987239Y-110041429D01*
X146962777Y-110122071D01*
X146932859Y-110220695D01*
X146844552Y-110385905D01*
X146725712Y-110530712D01*
X146580905Y-110649552D01*
X146580903Y-110649553D01*
X146415693Y-110737860D01*
X146236429Y-110792239D01*
X146236428Y-110792239D01*
X146236425Y-110792240D01*
X146096718Y-110806000D01*
X146003282Y-110806000D01*
X145863575Y-110792240D01*
X145863572Y-110792239D01*
X145863571Y-110792239D01*
X145684307Y-110737860D01*
X145519097Y-110649553D01*
X145519095Y-110649552D01*
X145374288Y-110530712D01*
X145255448Y-110385905D01*
X145167141Y-110220695D01*
X145137224Y-110122071D01*
X145112761Y-110041429D01*
X145112761Y-110041428D01*
X145112760Y-110041425D01*
X145094399Y-109855000D01*
X145112760Y-109668575D01*
X145112761Y-109668571D01*
X145167140Y-109489307D01*
X145255447Y-109324097D01*
X145255448Y-109324095D01*
X145374288Y-109179288D01*
X145519095Y-109060448D01*
X145684305Y-108972141D01*
X145684307Y-108972140D01*
X145863571Y-108917761D01*
X145863572Y-108917761D01*
X145863575Y-108917760D01*
X146003282Y-108904000D01*
X146096718Y-108904000D01*
X146236425Y-108917760D01*
X146236425Y-108917760D01*
G37*
G36*
X153856425Y-108917760D02*
X153856428Y-108917761D01*
X153856429Y-108917761D01*
X154035693Y-108972140D01*
X154035695Y-108972141D01*
X154200905Y-109060448D01*
X154345712Y-109179288D01*
X154464552Y-109324095D01*
X154464553Y-109324097D01*
X154552860Y-109489307D01*
X154607239Y-109668571D01*
X154607240Y-109668575D01*
X154625601Y-109855000D01*
X154607240Y-110041425D01*
X154607239Y-110041428D01*
X154607239Y-110041429D01*
X154582777Y-110122071D01*
X154552859Y-110220695D01*
X154464552Y-110385905D01*
X154345712Y-110530712D01*
X154200905Y-110649552D01*
X154200903Y-110649553D01*
X154035693Y-110737860D01*
X153856429Y-110792239D01*
X153856428Y-110792239D01*
X153856425Y-110792240D01*
X153716718Y-110806000D01*
X153623282Y-110806000D01*
X153483575Y-110792240D01*
X153483572Y-110792239D01*
X153483571Y-110792239D01*
X153304307Y-110737860D01*
X153139097Y-110649553D01*
X153139095Y-110649552D01*
X152994288Y-110530712D01*
X152875448Y-110385905D01*
X152787141Y-110220695D01*
X152757224Y-110122071D01*
X152732761Y-110041429D01*
X152732761Y-110041428D01*
X152732760Y-110041425D01*
X152714399Y-109855000D01*
X152732760Y-109668575D01*
X152732761Y-109668571D01*
X152787140Y-109489307D01*
X152875447Y-109324097D01*
X152875448Y-109324095D01*
X152994288Y-109179288D01*
X153139095Y-109060448D01*
X153304305Y-108972141D01*
X153304307Y-108972140D01*
X153483571Y-108917761D01*
X153483572Y-108917761D01*
X153483575Y-108917760D01*
X153623282Y-108904000D01*
X153716718Y-108904000D01*
X153856425Y-108917760D01*
X153856425Y-108917760D01*
G37*
G36*
X151316425Y-108917760D02*
X151316428Y-108917761D01*
X151316429Y-108917761D01*
X151495693Y-108972140D01*
X151495695Y-108972141D01*
X151660905Y-109060448D01*
X151805712Y-109179288D01*
X151924552Y-109324095D01*
X151924553Y-109324097D01*
X152012860Y-109489307D01*
X152067239Y-109668571D01*
X152067240Y-109668575D01*
X152085601Y-109855000D01*
X152067240Y-110041425D01*
X152067239Y-110041428D01*
X152067239Y-110041429D01*
X152042777Y-110122071D01*
X152012859Y-110220695D01*
X151924552Y-110385905D01*
X151805712Y-110530712D01*
X151660905Y-110649552D01*
X151660903Y-110649553D01*
X151495693Y-110737860D01*
X151316429Y-110792239D01*
X151316428Y-110792239D01*
X151316425Y-110792240D01*
X151176718Y-110806000D01*
X151083282Y-110806000D01*
X150943575Y-110792240D01*
X150943572Y-110792239D01*
X150943571Y-110792239D01*
X150764307Y-110737860D01*
X150599097Y-110649553D01*
X150599095Y-110649552D01*
X150454288Y-110530712D01*
X150335448Y-110385905D01*
X150247141Y-110220695D01*
X150217224Y-110122071D01*
X150192761Y-110041429D01*
X150192761Y-110041428D01*
X150192760Y-110041425D01*
X150174399Y-109855000D01*
X150192760Y-109668575D01*
X150192761Y-109668571D01*
X150247140Y-109489307D01*
X150335447Y-109324097D01*
X150335448Y-109324095D01*
X150454288Y-109179288D01*
X150599095Y-109060448D01*
X150764305Y-108972141D01*
X150764307Y-108972140D01*
X150943571Y-108917761D01*
X150943572Y-108917761D01*
X150943575Y-108917760D01*
X151083282Y-108904000D01*
X151176718Y-108904000D01*
X151316425Y-108917760D01*
X151316425Y-108917760D01*
G37*
G36*
X148776425Y-108917760D02*
X148776428Y-108917761D01*
X148776429Y-108917761D01*
X148955693Y-108972140D01*
X148955695Y-108972141D01*
X149120905Y-109060448D01*
X149265712Y-109179288D01*
X149384552Y-109324095D01*
X149384553Y-109324097D01*
X149472860Y-109489307D01*
X149527239Y-109668571D01*
X149527240Y-109668575D01*
X149545601Y-109855000D01*
X149527240Y-110041425D01*
X149527239Y-110041428D01*
X149527239Y-110041429D01*
X149502777Y-110122071D01*
X149472859Y-110220695D01*
X149384552Y-110385905D01*
X149265712Y-110530712D01*
X149120905Y-110649552D01*
X149120903Y-110649553D01*
X148955693Y-110737860D01*
X148776429Y-110792239D01*
X148776428Y-110792239D01*
X148776425Y-110792240D01*
X148636718Y-110806000D01*
X148543282Y-110806000D01*
X148403575Y-110792240D01*
X148403572Y-110792239D01*
X148403571Y-110792239D01*
X148224307Y-110737860D01*
X148059097Y-110649553D01*
X148059095Y-110649552D01*
X147914288Y-110530712D01*
X147795448Y-110385905D01*
X147707141Y-110220695D01*
X147677224Y-110122071D01*
X147652761Y-110041429D01*
X147652761Y-110041428D01*
X147652760Y-110041425D01*
X147634399Y-109855000D01*
X147652760Y-109668575D01*
X147652761Y-109668571D01*
X147707140Y-109489307D01*
X147795447Y-109324097D01*
X147795448Y-109324095D01*
X147914288Y-109179288D01*
X148059095Y-109060448D01*
X148224305Y-108972141D01*
X148224307Y-108972140D01*
X148403571Y-108917761D01*
X148403572Y-108917761D01*
X148403575Y-108917760D01*
X148543282Y-108904000D01*
X148636718Y-108904000D01*
X148776425Y-108917760D01*
X148776425Y-108917760D01*
G37*
G36*
X143696425Y-108917760D02*
X143696428Y-108917761D01*
X143696429Y-108917761D01*
X143875693Y-108972140D01*
X143875695Y-108972141D01*
X144040905Y-109060448D01*
X144185712Y-109179288D01*
X144304552Y-109324095D01*
X144304553Y-109324097D01*
X144392860Y-109489307D01*
X144447239Y-109668571D01*
X144447240Y-109668575D01*
X144465601Y-109855000D01*
X144447240Y-110041425D01*
X144447239Y-110041428D01*
X144447239Y-110041429D01*
X144422777Y-110122071D01*
X144392859Y-110220695D01*
X144304552Y-110385905D01*
X144185712Y-110530712D01*
X144040905Y-110649552D01*
X144040903Y-110649553D01*
X143875693Y-110737860D01*
X143696429Y-110792239D01*
X143696428Y-110792239D01*
X143696425Y-110792240D01*
X143556718Y-110806000D01*
X143463282Y-110806000D01*
X143323575Y-110792240D01*
X143323572Y-110792239D01*
X143323571Y-110792239D01*
X143144307Y-110737860D01*
X142979097Y-110649553D01*
X142979095Y-110649552D01*
X142834288Y-110530712D01*
X142715448Y-110385905D01*
X142627141Y-110220695D01*
X142597224Y-110122071D01*
X142572761Y-110041429D01*
X142572761Y-110041428D01*
X142572760Y-110041425D01*
X142554399Y-109855000D01*
X142572760Y-109668575D01*
X142572761Y-109668571D01*
X142627140Y-109489307D01*
X142715447Y-109324097D01*
X142715448Y-109324095D01*
X142834288Y-109179288D01*
X142979095Y-109060448D01*
X143144305Y-108972141D01*
X143144307Y-108972140D01*
X143323571Y-108917761D01*
X143323572Y-108917761D01*
X143323575Y-108917760D01*
X143463282Y-108904000D01*
X143556718Y-108904000D01*
X143696425Y-108917760D01*
X143696425Y-108917760D01*
G37*
G36*
X141156425Y-108917760D02*
X141156428Y-108917761D01*
X141156429Y-108917761D01*
X141335693Y-108972140D01*
X141335695Y-108972141D01*
X141500905Y-109060448D01*
X141645712Y-109179288D01*
X141764552Y-109324095D01*
X141764553Y-109324097D01*
X141852860Y-109489307D01*
X141907239Y-109668571D01*
X141907240Y-109668575D01*
X141925601Y-109855000D01*
X141907240Y-110041425D01*
X141907239Y-110041428D01*
X141907239Y-110041429D01*
X141882777Y-110122071D01*
X141852859Y-110220695D01*
X141764552Y-110385905D01*
X141645712Y-110530712D01*
X141500905Y-110649552D01*
X141500903Y-110649553D01*
X141335693Y-110737860D01*
X141156429Y-110792239D01*
X141156428Y-110792239D01*
X141156425Y-110792240D01*
X141016718Y-110806000D01*
X140923282Y-110806000D01*
X140783575Y-110792240D01*
X140783572Y-110792239D01*
X140783571Y-110792239D01*
X140604307Y-110737860D01*
X140439097Y-110649553D01*
X140439095Y-110649552D01*
X140294288Y-110530712D01*
X140175448Y-110385905D01*
X140087141Y-110220695D01*
X140057224Y-110122071D01*
X140032761Y-110041429D01*
X140032761Y-110041428D01*
X140032760Y-110041425D01*
X140014399Y-109855000D01*
X140032760Y-109668575D01*
X140032761Y-109668571D01*
X140087140Y-109489307D01*
X140175447Y-109324097D01*
X140175448Y-109324095D01*
X140294288Y-109179288D01*
X140439095Y-109060448D01*
X140604305Y-108972141D01*
X140604307Y-108972140D01*
X140783571Y-108917761D01*
X140783572Y-108917761D01*
X140783575Y-108917760D01*
X140923282Y-108904000D01*
X141016718Y-108904000D01*
X141156425Y-108917760D01*
X141156425Y-108917760D01*
G37*
G36*
X138616425Y-108917760D02*
X138616428Y-108917761D01*
X138616429Y-108917761D01*
X138795693Y-108972140D01*
X138795695Y-108972141D01*
X138960905Y-109060448D01*
X139105712Y-109179288D01*
X139224552Y-109324095D01*
X139224553Y-109324097D01*
X139312860Y-109489307D01*
X139367239Y-109668571D01*
X139367240Y-109668575D01*
X139385601Y-109855000D01*
X139367240Y-110041425D01*
X139367239Y-110041428D01*
X139367239Y-110041429D01*
X139342777Y-110122071D01*
X139312859Y-110220695D01*
X139224552Y-110385905D01*
X139105712Y-110530712D01*
X138960905Y-110649552D01*
X138960903Y-110649553D01*
X138795693Y-110737860D01*
X138616429Y-110792239D01*
X138616428Y-110792239D01*
X138616425Y-110792240D01*
X138476718Y-110806000D01*
X138383282Y-110806000D01*
X138243575Y-110792240D01*
X138243572Y-110792239D01*
X138243571Y-110792239D01*
X138064307Y-110737860D01*
X137899097Y-110649553D01*
X137899095Y-110649552D01*
X137754288Y-110530712D01*
X137635448Y-110385905D01*
X137547141Y-110220695D01*
X137517224Y-110122071D01*
X137492761Y-110041429D01*
X137492761Y-110041428D01*
X137492760Y-110041425D01*
X137474399Y-109855000D01*
X137492760Y-109668575D01*
X137492761Y-109668571D01*
X137547140Y-109489307D01*
X137635447Y-109324097D01*
X137635448Y-109324095D01*
X137754288Y-109179288D01*
X137899095Y-109060448D01*
X138064305Y-108972141D01*
X138064307Y-108972140D01*
X138243571Y-108917761D01*
X138243572Y-108917761D01*
X138243575Y-108917760D01*
X138383282Y-108904000D01*
X138476718Y-108904000D01*
X138616425Y-108917760D01*
X138616425Y-108917760D01*
G37*
G36*
X152586425Y-103837760D02*
X152586428Y-103837761D01*
X152586429Y-103837761D01*
X152765693Y-103892140D01*
X152765695Y-103892141D01*
X152930905Y-103980448D01*
X153075712Y-104099288D01*
X153194552Y-104244095D01*
X153282859Y-104409305D01*
X153337240Y-104588575D01*
X153355601Y-104775000D01*
X153337240Y-104961425D01*
X153282859Y-105140695D01*
X153194552Y-105305905D01*
X153075712Y-105450712D01*
X152930905Y-105569552D01*
X152930903Y-105569553D01*
X152765693Y-105657860D01*
X152586429Y-105712239D01*
X152586428Y-105712239D01*
X152586425Y-105712240D01*
X152446718Y-105726000D01*
X152353282Y-105726000D01*
X152213575Y-105712240D01*
X152213572Y-105712239D01*
X152213571Y-105712239D01*
X152034307Y-105657860D01*
X151869097Y-105569553D01*
X151869095Y-105569552D01*
X151724288Y-105450712D01*
X151605448Y-105305905D01*
X151517141Y-105140695D01*
X151462760Y-104961425D01*
X151444399Y-104775000D01*
X151462760Y-104588575D01*
X151517141Y-104409305D01*
X151605448Y-104244095D01*
X151724288Y-104099288D01*
X151869095Y-103980448D01*
X152034305Y-103892141D01*
X152034307Y-103892140D01*
X152213571Y-103837761D01*
X152213572Y-103837761D01*
X152213575Y-103837760D01*
X152353282Y-103824000D01*
X152446718Y-103824000D01*
X152586425Y-103837760D01*
X152586425Y-103837760D01*
G37*
G36*
X137346425Y-103837760D02*
X137346428Y-103837761D01*
X137346429Y-103837761D01*
X137525693Y-103892140D01*
X137525695Y-103892141D01*
X137690905Y-103980448D01*
X137835712Y-104099288D01*
X137954552Y-104244095D01*
X138042859Y-104409305D01*
X138097240Y-104588575D01*
X138115601Y-104775000D01*
X138097240Y-104961425D01*
X138042859Y-105140695D01*
X137954552Y-105305905D01*
X137835712Y-105450712D01*
X137690905Y-105569552D01*
X137690903Y-105569553D01*
X137525693Y-105657860D01*
X137346429Y-105712239D01*
X137346428Y-105712239D01*
X137346425Y-105712240D01*
X137206718Y-105726000D01*
X137113282Y-105726000D01*
X136973575Y-105712240D01*
X136973572Y-105712239D01*
X136973571Y-105712239D01*
X136794307Y-105657860D01*
X136629097Y-105569553D01*
X136629095Y-105569552D01*
X136484288Y-105450712D01*
X136365448Y-105305905D01*
X136277141Y-105140695D01*
X136222760Y-104961425D01*
X136204399Y-104775000D01*
X136222760Y-104588575D01*
X136277141Y-104409305D01*
X136365448Y-104244095D01*
X136484288Y-104099288D01*
X136629095Y-103980448D01*
X136794305Y-103892141D01*
X136794307Y-103892140D01*
X136973571Y-103837761D01*
X136973572Y-103837761D01*
X136973575Y-103837760D01*
X137113282Y-103824000D01*
X137206718Y-103824000D01*
X137346425Y-103837760D01*
X137346425Y-103837760D01*
G37*
G36*
X155891000Y-105726000D02*
X153989000Y-105726000D01*
X153989000Y-103824000D01*
X155891000Y-103824000D01*
X155891000Y-105726000D01*
X155891000Y-105726000D01*
G37*
G36*
X150046425Y-103837760D02*
X150046428Y-103837761D01*
X150046429Y-103837761D01*
X150225693Y-103892140D01*
X150225695Y-103892141D01*
X150390905Y-103980448D01*
X150535712Y-104099288D01*
X150654552Y-104244095D01*
X150742859Y-104409305D01*
X150797240Y-104588575D01*
X150815601Y-104775000D01*
X150797240Y-104961425D01*
X150742859Y-105140695D01*
X150654552Y-105305905D01*
X150535712Y-105450712D01*
X150390905Y-105569552D01*
X150390903Y-105569553D01*
X150225693Y-105657860D01*
X150046429Y-105712239D01*
X150046428Y-105712239D01*
X150046425Y-105712240D01*
X149906718Y-105726000D01*
X149813282Y-105726000D01*
X149673575Y-105712240D01*
X149673572Y-105712239D01*
X149673571Y-105712239D01*
X149494307Y-105657860D01*
X149329097Y-105569553D01*
X149329095Y-105569552D01*
X149184288Y-105450712D01*
X149065448Y-105305905D01*
X148977141Y-105140695D01*
X148922760Y-104961425D01*
X148904399Y-104775000D01*
X148922760Y-104588575D01*
X148977141Y-104409305D01*
X149065448Y-104244095D01*
X149184288Y-104099288D01*
X149329095Y-103980448D01*
X149494305Y-103892141D01*
X149494307Y-103892140D01*
X149673571Y-103837761D01*
X149673572Y-103837761D01*
X149673575Y-103837760D01*
X149813282Y-103824000D01*
X149906718Y-103824000D01*
X150046425Y-103837760D01*
X150046425Y-103837760D01*
G37*
G36*
X147506425Y-103837760D02*
X147506428Y-103837761D01*
X147506429Y-103837761D01*
X147685693Y-103892140D01*
X147685695Y-103892141D01*
X147850905Y-103980448D01*
X147995712Y-104099288D01*
X148114552Y-104244095D01*
X148202859Y-104409305D01*
X148257240Y-104588575D01*
X148275601Y-104775000D01*
X148257240Y-104961425D01*
X148202859Y-105140695D01*
X148114552Y-105305905D01*
X147995712Y-105450712D01*
X147850905Y-105569552D01*
X147850903Y-105569553D01*
X147685693Y-105657860D01*
X147506429Y-105712239D01*
X147506428Y-105712239D01*
X147506425Y-105712240D01*
X147366718Y-105726000D01*
X147273282Y-105726000D01*
X147133575Y-105712240D01*
X147133572Y-105712239D01*
X147133571Y-105712239D01*
X146954307Y-105657860D01*
X146789097Y-105569553D01*
X146789095Y-105569552D01*
X146644288Y-105450712D01*
X146525448Y-105305905D01*
X146437141Y-105140695D01*
X146382760Y-104961425D01*
X146364399Y-104775000D01*
X146382760Y-104588575D01*
X146437141Y-104409305D01*
X146525448Y-104244095D01*
X146644288Y-104099288D01*
X146789095Y-103980448D01*
X146954305Y-103892141D01*
X146954307Y-103892140D01*
X147133571Y-103837761D01*
X147133572Y-103837761D01*
X147133575Y-103837760D01*
X147273282Y-103824000D01*
X147366718Y-103824000D01*
X147506425Y-103837760D01*
X147506425Y-103837760D01*
G37*
G36*
X139886425Y-103837760D02*
X139886428Y-103837761D01*
X139886429Y-103837761D01*
X140065693Y-103892140D01*
X140065695Y-103892141D01*
X140230905Y-103980448D01*
X140375712Y-104099288D01*
X140494552Y-104244095D01*
X140582859Y-104409305D01*
X140637240Y-104588575D01*
X140655601Y-104775000D01*
X140637240Y-104961425D01*
X140582859Y-105140695D01*
X140494552Y-105305905D01*
X140375712Y-105450712D01*
X140230905Y-105569552D01*
X140230903Y-105569553D01*
X140065693Y-105657860D01*
X139886429Y-105712239D01*
X139886428Y-105712239D01*
X139886425Y-105712240D01*
X139746718Y-105726000D01*
X139653282Y-105726000D01*
X139513575Y-105712240D01*
X139513572Y-105712239D01*
X139513571Y-105712239D01*
X139334307Y-105657860D01*
X139169097Y-105569553D01*
X139169095Y-105569552D01*
X139024288Y-105450712D01*
X138905448Y-105305905D01*
X138817141Y-105140695D01*
X138762760Y-104961425D01*
X138744399Y-104775000D01*
X138762760Y-104588575D01*
X138817141Y-104409305D01*
X138905448Y-104244095D01*
X139024288Y-104099288D01*
X139169095Y-103980448D01*
X139334305Y-103892141D01*
X139334307Y-103892140D01*
X139513571Y-103837761D01*
X139513572Y-103837761D01*
X139513575Y-103837760D01*
X139653282Y-103824000D01*
X139746718Y-103824000D01*
X139886425Y-103837760D01*
X139886425Y-103837760D01*
G37*
G36*
X144966425Y-103837760D02*
X144966428Y-103837761D01*
X144966429Y-103837761D01*
X145145693Y-103892140D01*
X145145695Y-103892141D01*
X145310905Y-103980448D01*
X145455712Y-104099288D01*
X145574552Y-104244095D01*
X145662859Y-104409305D01*
X145717240Y-104588575D01*
X145735601Y-104775000D01*
X145717240Y-104961425D01*
X145662859Y-105140695D01*
X145574552Y-105305905D01*
X145455712Y-105450712D01*
X145310905Y-105569552D01*
X145310903Y-105569553D01*
X145145693Y-105657860D01*
X144966429Y-105712239D01*
X144966428Y-105712239D01*
X144966425Y-105712240D01*
X144826718Y-105726000D01*
X144733282Y-105726000D01*
X144593575Y-105712240D01*
X144593572Y-105712239D01*
X144593571Y-105712239D01*
X144414307Y-105657860D01*
X144249097Y-105569553D01*
X144249095Y-105569552D01*
X144104288Y-105450712D01*
X143985448Y-105305905D01*
X143897141Y-105140695D01*
X143842760Y-104961425D01*
X143824399Y-104775000D01*
X143842760Y-104588575D01*
X143897141Y-104409305D01*
X143985448Y-104244095D01*
X144104288Y-104099288D01*
X144249095Y-103980448D01*
X144414305Y-103892141D01*
X144414307Y-103892140D01*
X144593571Y-103837761D01*
X144593572Y-103837761D01*
X144593575Y-103837760D01*
X144733282Y-103824000D01*
X144826718Y-103824000D01*
X144966425Y-103837760D01*
X144966425Y-103837760D01*
G37*
G36*
X142426425Y-103837760D02*
X142426428Y-103837761D01*
X142426429Y-103837761D01*
X142605693Y-103892140D01*
X142605695Y-103892141D01*
X142770905Y-103980448D01*
X142915712Y-104099288D01*
X143034552Y-104244095D01*
X143122859Y-104409305D01*
X143177240Y-104588575D01*
X143195601Y-104775000D01*
X143177240Y-104961425D01*
X143122859Y-105140695D01*
X143034552Y-105305905D01*
X142915712Y-105450712D01*
X142770905Y-105569552D01*
X142770903Y-105569553D01*
X142605693Y-105657860D01*
X142426429Y-105712239D01*
X142426428Y-105712239D01*
X142426425Y-105712240D01*
X142286718Y-105726000D01*
X142193282Y-105726000D01*
X142053575Y-105712240D01*
X142053572Y-105712239D01*
X142053571Y-105712239D01*
X141874307Y-105657860D01*
X141709097Y-105569553D01*
X141709095Y-105569552D01*
X141564288Y-105450712D01*
X141445448Y-105305905D01*
X141357141Y-105140695D01*
X141302760Y-104961425D01*
X141284399Y-104775000D01*
X141302760Y-104588575D01*
X141357141Y-104409305D01*
X141445448Y-104244095D01*
X141564288Y-104099288D01*
X141709095Y-103980448D01*
X141874305Y-103892141D01*
X141874307Y-103892140D01*
X142053571Y-103837761D01*
X142053572Y-103837761D01*
X142053575Y-103837760D01*
X142193282Y-103824000D01*
X142286718Y-103824000D01*
X142426425Y-103837760D01*
X142426425Y-103837760D01*
G37*
G36*
X138746000Y-101535000D02*
X136844000Y-101535000D01*
X136844000Y-99633000D01*
X138746000Y-99633000D01*
X138746000Y-101535000D01*
X138746000Y-101535000D01*
G37*
G36*
X148652000Y-101535000D02*
X146750000Y-101535000D01*
X146750000Y-99633000D01*
X148652000Y-99633000D01*
X148652000Y-101535000D01*
X148652000Y-101535000D01*
G37*
G36*
X142048000Y-101535000D02*
X140146000Y-101535000D01*
X140146000Y-99633000D01*
X142048000Y-99633000D01*
X142048000Y-101535000D01*
X142048000Y-101535000D01*
G37*
G36*
X158558000Y-101535000D02*
X156656000Y-101535000D01*
X156656000Y-99633000D01*
X158558000Y-99633000D01*
X158558000Y-101535000D01*
X158558000Y-101535000D01*
G37*
G36*
X145350000Y-101535000D02*
X143448000Y-101535000D01*
X143448000Y-99633000D01*
X145350000Y-99633000D01*
X145350000Y-101535000D01*
X145350000Y-101535000D01*
G37*
G36*
X155256000Y-101535000D02*
X153354000Y-101535000D01*
X153354000Y-99633000D01*
X155256000Y-99633000D01*
X155256000Y-101535000D01*
X155256000Y-101535000D01*
G37*
G36*
X151954000Y-101535000D02*
X150052000Y-101535000D01*
X150052000Y-99633000D01*
X151954000Y-99633000D01*
X151954000Y-101535000D01*
X151954000Y-101535000D01*
G37*
G36*
X135444000Y-101535000D02*
X133542000Y-101535000D01*
X133542000Y-99633000D01*
X135444000Y-99633000D01*
X135444000Y-101535000D01*
X135444000Y-101535000D01*
G37*
G36*
X131272228Y-99765703D02*
X131427100Y-99829853D01*
X131566481Y-99922985D01*
X131685015Y-100041519D01*
X131778147Y-100180900D01*
X131842297Y-100335772D01*
X131875000Y-100500184D01*
X131875000Y-100667816D01*
X131842297Y-100832228D01*
X131778147Y-100987100D01*
X131685015Y-101126481D01*
X131566481Y-101245015D01*
X131427100Y-101338147D01*
X131272228Y-101402297D01*
X131107816Y-101435000D01*
X130940184Y-101435000D01*
X130775772Y-101402297D01*
X130620900Y-101338147D01*
X130481519Y-101245015D01*
X130362985Y-101126481D01*
X130269853Y-100987100D01*
X130205703Y-100832228D01*
X130173000Y-100667816D01*
X130173000Y-100500184D01*
X130205703Y-100335772D01*
X130269853Y-100180900D01*
X130362985Y-100041519D01*
X130481519Y-99922985D01*
X130620900Y-99829853D01*
X130775772Y-99765703D01*
X130940184Y-99733000D01*
X131107816Y-99733000D01*
X131272228Y-99765703D01*
X131272228Y-99765703D01*
G37*
G36*
X128772228Y-99765703D02*
X128927100Y-99829853D01*
X129066481Y-99922985D01*
X129185015Y-100041519D01*
X129278147Y-100180900D01*
X129342297Y-100335772D01*
X129375000Y-100500184D01*
X129375000Y-100667816D01*
X129342297Y-100832228D01*
X129278147Y-100987100D01*
X129185015Y-101126481D01*
X129066481Y-101245015D01*
X128927100Y-101338147D01*
X128772228Y-101402297D01*
X128607816Y-101435000D01*
X128440184Y-101435000D01*
X128275772Y-101402297D01*
X128120900Y-101338147D01*
X127981519Y-101245015D01*
X127862985Y-101126481D01*
X127769853Y-100987100D01*
X127705703Y-100832228D01*
X127673000Y-100667816D01*
X127673000Y-100500184D01*
X127705703Y-100335772D01*
X127769853Y-100180900D01*
X127862985Y-100041519D01*
X127981519Y-99922985D01*
X128120900Y-99829853D01*
X128275772Y-99765703D01*
X128440184Y-99733000D01*
X128607816Y-99733000D01*
X128772228Y-99765703D01*
X128772228Y-99765703D01*
G37*
G36*
X167496442Y-98434518D02*
X167562627Y-98441037D01*
X167675853Y-98475384D01*
X167732467Y-98492557D01*
X167871087Y-98566652D01*
X167888991Y-98576222D01*
X167924729Y-98605552D01*
X168026186Y-98688814D01*
X168109448Y-98790271D01*
X168138778Y-98826009D01*
X168138779Y-98826011D01*
X168222443Y-98982533D01*
X168222443Y-98982534D01*
X168273963Y-99152373D01*
X168291359Y-99329000D01*
X168273963Y-99505627D01*
X168239616Y-99618853D01*
X168222443Y-99675467D01*
X168148348Y-99814087D01*
X168138778Y-99831991D01*
X168109448Y-99867729D01*
X168026186Y-99969186D01*
X167924729Y-100052448D01*
X167888991Y-100081778D01*
X167888989Y-100081779D01*
X167732467Y-100165443D01*
X167681511Y-100180900D01*
X167562627Y-100216963D01*
X167496443Y-100223481D01*
X167430260Y-100230000D01*
X167341740Y-100230000D01*
X167275557Y-100223481D01*
X167209373Y-100216963D01*
X167090489Y-100180900D01*
X167039533Y-100165443D01*
X166883011Y-100081779D01*
X166883009Y-100081778D01*
X166847271Y-100052448D01*
X166745814Y-99969186D01*
X166662552Y-99867729D01*
X166633222Y-99831991D01*
X166623652Y-99814087D01*
X166549557Y-99675467D01*
X166532384Y-99618853D01*
X166498037Y-99505627D01*
X166480641Y-99329000D01*
X166498037Y-99152373D01*
X166549557Y-98982534D01*
X166549557Y-98982533D01*
X166633221Y-98826011D01*
X166633222Y-98826009D01*
X166662552Y-98790271D01*
X166745814Y-98688814D01*
X166847271Y-98605552D01*
X166883009Y-98576222D01*
X166900913Y-98566652D01*
X167039533Y-98492557D01*
X167096147Y-98475384D01*
X167209373Y-98441037D01*
X167275557Y-98434519D01*
X167341740Y-98428000D01*
X167430260Y-98428000D01*
X167496442Y-98434518D01*
X167496442Y-98434518D01*
G37*
G36*
X125078442Y-98434518D02*
X125144627Y-98441037D01*
X125257853Y-98475384D01*
X125314467Y-98492557D01*
X125453087Y-98566652D01*
X125470991Y-98576222D01*
X125506729Y-98605552D01*
X125608186Y-98688814D01*
X125691448Y-98790271D01*
X125720778Y-98826009D01*
X125720779Y-98826011D01*
X125804443Y-98982533D01*
X125804443Y-98982534D01*
X125855963Y-99152373D01*
X125873359Y-99329000D01*
X125855963Y-99505627D01*
X125821616Y-99618853D01*
X125804443Y-99675467D01*
X125730348Y-99814087D01*
X125720778Y-99831991D01*
X125691448Y-99867729D01*
X125608186Y-99969186D01*
X125506729Y-100052448D01*
X125470991Y-100081778D01*
X125470989Y-100081779D01*
X125314467Y-100165443D01*
X125263511Y-100180900D01*
X125144627Y-100216963D01*
X125078443Y-100223481D01*
X125012260Y-100230000D01*
X124923740Y-100230000D01*
X124857557Y-100223481D01*
X124791373Y-100216963D01*
X124672489Y-100180900D01*
X124621533Y-100165443D01*
X124465011Y-100081779D01*
X124465009Y-100081778D01*
X124429271Y-100052448D01*
X124327814Y-99969186D01*
X124244552Y-99867729D01*
X124215222Y-99831991D01*
X124205652Y-99814087D01*
X124131557Y-99675467D01*
X124114384Y-99618853D01*
X124080037Y-99505627D01*
X124062641Y-99329000D01*
X124080037Y-99152373D01*
X124131557Y-98982534D01*
X124131557Y-98982533D01*
X124215221Y-98826011D01*
X124215222Y-98826009D01*
X124244552Y-98790271D01*
X124327814Y-98688814D01*
X124429271Y-98605552D01*
X124465009Y-98576222D01*
X124482913Y-98566652D01*
X124621533Y-98492557D01*
X124678147Y-98475384D01*
X124791373Y-98441037D01*
X124857557Y-98434519D01*
X124923740Y-98428000D01*
X125012260Y-98428000D01*
X125078442Y-98434518D01*
X125078442Y-98434518D01*
G37*
G36*
X163853396Y-95859546D02*
X164026466Y-95931234D01*
X164182230Y-96035312D01*
X164314688Y-96167770D01*
X164418766Y-96323534D01*
X164490454Y-96496604D01*
X164527000Y-96680333D01*
X164527000Y-96867667D01*
X164490454Y-97051396D01*
X164418766Y-97224466D01*
X164314688Y-97380230D01*
X164182230Y-97512688D01*
X164026466Y-97616766D01*
X163853396Y-97688454D01*
X163669667Y-97725000D01*
X163482333Y-97725000D01*
X163298604Y-97688454D01*
X163125534Y-97616766D01*
X162969770Y-97512688D01*
X162837312Y-97380230D01*
X162733234Y-97224466D01*
X162661546Y-97051396D01*
X162625000Y-96867667D01*
X162625000Y-96680333D01*
X162661546Y-96496604D01*
X162733234Y-96323534D01*
X162837312Y-96167770D01*
X162969770Y-96035312D01*
X163125534Y-95931234D01*
X163298604Y-95859546D01*
X163482333Y-95823000D01*
X163669667Y-95823000D01*
X163853396Y-95859546D01*
X163853396Y-95859546D01*
G37*
G36*
X161987000Y-97725000D02*
X160085000Y-97725000D01*
X160085000Y-95823000D01*
X161987000Y-95823000D01*
X161987000Y-97725000D01*
X161987000Y-97725000D01*
G37*
G36*
X167496443Y-95894519D02*
X167562627Y-95901037D01*
X167675853Y-95935384D01*
X167732467Y-95952557D01*
X167871087Y-96026652D01*
X167888991Y-96036222D01*
X167924729Y-96065552D01*
X168026186Y-96148814D01*
X168109448Y-96250271D01*
X168138778Y-96286009D01*
X168138779Y-96286011D01*
X168222443Y-96442533D01*
X168222443Y-96442534D01*
X168273963Y-96612373D01*
X168291359Y-96789000D01*
X168273963Y-96965627D01*
X168247945Y-97051396D01*
X168222443Y-97135467D01*
X168174871Y-97224466D01*
X168138778Y-97291991D01*
X168109448Y-97327729D01*
X168026186Y-97429186D01*
X167924729Y-97512448D01*
X167888991Y-97541778D01*
X167888989Y-97541779D01*
X167732467Y-97625443D01*
X167675853Y-97642616D01*
X167562627Y-97676963D01*
X167496442Y-97683482D01*
X167430260Y-97690000D01*
X167341740Y-97690000D01*
X167275558Y-97683482D01*
X167209373Y-97676963D01*
X167096147Y-97642616D01*
X167039533Y-97625443D01*
X166883011Y-97541779D01*
X166883009Y-97541778D01*
X166847271Y-97512448D01*
X166745814Y-97429186D01*
X166662552Y-97327729D01*
X166633222Y-97291991D01*
X166597129Y-97224466D01*
X166549557Y-97135467D01*
X166524055Y-97051396D01*
X166498037Y-96965627D01*
X166480641Y-96789000D01*
X166498037Y-96612373D01*
X166549557Y-96442534D01*
X166549557Y-96442533D01*
X166633221Y-96286011D01*
X166633222Y-96286009D01*
X166662552Y-96250271D01*
X166745814Y-96148814D01*
X166847271Y-96065552D01*
X166883009Y-96036222D01*
X166900913Y-96026652D01*
X167039533Y-95952557D01*
X167096147Y-95935384D01*
X167209373Y-95901037D01*
X167275558Y-95894518D01*
X167341740Y-95888000D01*
X167430260Y-95888000D01*
X167496443Y-95894519D01*
X167496443Y-95894519D01*
G37*
G36*
X125078443Y-95894519D02*
X125144627Y-95901037D01*
X125257853Y-95935384D01*
X125314467Y-95952557D01*
X125453087Y-96026652D01*
X125470991Y-96036222D01*
X125506729Y-96065552D01*
X125608186Y-96148814D01*
X125691448Y-96250271D01*
X125720778Y-96286009D01*
X125720779Y-96286011D01*
X125804443Y-96442533D01*
X125804443Y-96442534D01*
X125855963Y-96612373D01*
X125873359Y-96789000D01*
X125855963Y-96965627D01*
X125829945Y-97051396D01*
X125804443Y-97135467D01*
X125756871Y-97224466D01*
X125720778Y-97291991D01*
X125691448Y-97327729D01*
X125608186Y-97429186D01*
X125506729Y-97512448D01*
X125470991Y-97541778D01*
X125470989Y-97541779D01*
X125314467Y-97625443D01*
X125257853Y-97642616D01*
X125144627Y-97676963D01*
X125078442Y-97683482D01*
X125012260Y-97690000D01*
X124923740Y-97690000D01*
X124857558Y-97683482D01*
X124791373Y-97676963D01*
X124678147Y-97642616D01*
X124621533Y-97625443D01*
X124465011Y-97541779D01*
X124465009Y-97541778D01*
X124429271Y-97512448D01*
X124327814Y-97429186D01*
X124244552Y-97327729D01*
X124215222Y-97291991D01*
X124179129Y-97224466D01*
X124131557Y-97135467D01*
X124106055Y-97051396D01*
X124080037Y-96965627D01*
X124062641Y-96789000D01*
X124080037Y-96612373D01*
X124131557Y-96442534D01*
X124131557Y-96442533D01*
X124215221Y-96286011D01*
X124215222Y-96286009D01*
X124244552Y-96250271D01*
X124327814Y-96148814D01*
X124429271Y-96065552D01*
X124465009Y-96036222D01*
X124482913Y-96026652D01*
X124621533Y-95952557D01*
X124678147Y-95935384D01*
X124791373Y-95901037D01*
X124857558Y-95894518D01*
X124923740Y-95888000D01*
X125012260Y-95888000D01*
X125078443Y-95894519D01*
X125078443Y-95894519D01*
G37*
G36*
X168287000Y-95150000D02*
X166485000Y-95150000D01*
X166485000Y-93348000D01*
X168287000Y-93348000D01*
X168287000Y-95150000D01*
X168287000Y-95150000D01*
G37*
G36*
X125869000Y-95150000D02*
X124067000Y-95150000D01*
X124067000Y-93348000D01*
X125869000Y-93348000D01*
X125869000Y-95150000D01*
X125869000Y-95150000D01*
G37*
G36*
X157793425Y-92026760D02*
X157793428Y-92026761D01*
X157793429Y-92026761D01*
X157972693Y-92081140D01*
X157972695Y-92081141D01*
X158137905Y-92169448D01*
X158282712Y-92288288D01*
X158401552Y-92433095D01*
X158489859Y-92598305D01*
X158489860Y-92598307D01*
X158544239Y-92777571D01*
X158544240Y-92777575D01*
X158562601Y-92964000D01*
X158544240Y-93150425D01*
X158544239Y-93150428D01*
X158544239Y-93150429D01*
X158525493Y-93212228D01*
X158489859Y-93329695D01*
X158401552Y-93494905D01*
X158282712Y-93639712D01*
X158137905Y-93758552D01*
X158137903Y-93758553D01*
X157972693Y-93846860D01*
X157793429Y-93901239D01*
X157793428Y-93901239D01*
X157793425Y-93901240D01*
X157653718Y-93915000D01*
X157560282Y-93915000D01*
X157420575Y-93901240D01*
X157420572Y-93901239D01*
X157420571Y-93901239D01*
X157241307Y-93846860D01*
X157076097Y-93758553D01*
X157076095Y-93758552D01*
X156931288Y-93639712D01*
X156812448Y-93494905D01*
X156724141Y-93329695D01*
X156688508Y-93212228D01*
X156669761Y-93150429D01*
X156669761Y-93150428D01*
X156669760Y-93150425D01*
X156651399Y-92964000D01*
X156669760Y-92777575D01*
X156669761Y-92777571D01*
X156724140Y-92598307D01*
X156724141Y-92598305D01*
X156812448Y-92433095D01*
X156931288Y-92288288D01*
X157076095Y-92169448D01*
X157241305Y-92081141D01*
X157241307Y-92081140D01*
X157420571Y-92026761D01*
X157420572Y-92026761D01*
X157420575Y-92026760D01*
X157560282Y-92013000D01*
X157653718Y-92013000D01*
X157793425Y-92026760D01*
X157793425Y-92026760D01*
G37*
G36*
X154491425Y-92026760D02*
X154491428Y-92026761D01*
X154491429Y-92026761D01*
X154670693Y-92081140D01*
X154670695Y-92081141D01*
X154835905Y-92169448D01*
X154980712Y-92288288D01*
X155099552Y-92433095D01*
X155187859Y-92598305D01*
X155187860Y-92598307D01*
X155242239Y-92777571D01*
X155242240Y-92777575D01*
X155260601Y-92964000D01*
X155242240Y-93150425D01*
X155242239Y-93150428D01*
X155242239Y-93150429D01*
X155223493Y-93212228D01*
X155187859Y-93329695D01*
X155099552Y-93494905D01*
X154980712Y-93639712D01*
X154835905Y-93758552D01*
X154835903Y-93758553D01*
X154670693Y-93846860D01*
X154491429Y-93901239D01*
X154491428Y-93901239D01*
X154491425Y-93901240D01*
X154351718Y-93915000D01*
X154258282Y-93915000D01*
X154118575Y-93901240D01*
X154118572Y-93901239D01*
X154118571Y-93901239D01*
X153939307Y-93846860D01*
X153774097Y-93758553D01*
X153774095Y-93758552D01*
X153629288Y-93639712D01*
X153510448Y-93494905D01*
X153422141Y-93329695D01*
X153386508Y-93212228D01*
X153367761Y-93150429D01*
X153367761Y-93150428D01*
X153367760Y-93150425D01*
X153349399Y-92964000D01*
X153367760Y-92777575D01*
X153367761Y-92777571D01*
X153422140Y-92598307D01*
X153422141Y-92598305D01*
X153510448Y-92433095D01*
X153629288Y-92288288D01*
X153774095Y-92169448D01*
X153939305Y-92081141D01*
X153939307Y-92081140D01*
X154118571Y-92026761D01*
X154118572Y-92026761D01*
X154118575Y-92026760D01*
X154258282Y-92013000D01*
X154351718Y-92013000D01*
X154491425Y-92026760D01*
X154491425Y-92026760D01*
G37*
G36*
X151189425Y-92026760D02*
X151189428Y-92026761D01*
X151189429Y-92026761D01*
X151368693Y-92081140D01*
X151368695Y-92081141D01*
X151533905Y-92169448D01*
X151678712Y-92288288D01*
X151797552Y-92433095D01*
X151885859Y-92598305D01*
X151885860Y-92598307D01*
X151940239Y-92777571D01*
X151940240Y-92777575D01*
X151958601Y-92964000D01*
X151940240Y-93150425D01*
X151940239Y-93150428D01*
X151940239Y-93150429D01*
X151921493Y-93212228D01*
X151885859Y-93329695D01*
X151797552Y-93494905D01*
X151678712Y-93639712D01*
X151533905Y-93758552D01*
X151533903Y-93758553D01*
X151368693Y-93846860D01*
X151189429Y-93901239D01*
X151189428Y-93901239D01*
X151189425Y-93901240D01*
X151049718Y-93915000D01*
X150956282Y-93915000D01*
X150816575Y-93901240D01*
X150816572Y-93901239D01*
X150816571Y-93901239D01*
X150637307Y-93846860D01*
X150472097Y-93758553D01*
X150472095Y-93758552D01*
X150327288Y-93639712D01*
X150208448Y-93494905D01*
X150120141Y-93329695D01*
X150084508Y-93212228D01*
X150065761Y-93150429D01*
X150065761Y-93150428D01*
X150065760Y-93150425D01*
X150047399Y-92964000D01*
X150065760Y-92777575D01*
X150065761Y-92777571D01*
X150120140Y-92598307D01*
X150120141Y-92598305D01*
X150208448Y-92433095D01*
X150327288Y-92288288D01*
X150472095Y-92169448D01*
X150637305Y-92081141D01*
X150637307Y-92081140D01*
X150816571Y-92026761D01*
X150816572Y-92026761D01*
X150816575Y-92026760D01*
X150956282Y-92013000D01*
X151049718Y-92013000D01*
X151189425Y-92026760D01*
X151189425Y-92026760D01*
G37*
G36*
X147887425Y-92026760D02*
X147887428Y-92026761D01*
X147887429Y-92026761D01*
X148066693Y-92081140D01*
X148066695Y-92081141D01*
X148231905Y-92169448D01*
X148376712Y-92288288D01*
X148495552Y-92433095D01*
X148583859Y-92598305D01*
X148583860Y-92598307D01*
X148638239Y-92777571D01*
X148638240Y-92777575D01*
X148656601Y-92964000D01*
X148638240Y-93150425D01*
X148638239Y-93150428D01*
X148638239Y-93150429D01*
X148619493Y-93212228D01*
X148583859Y-93329695D01*
X148495552Y-93494905D01*
X148376712Y-93639712D01*
X148231905Y-93758552D01*
X148231903Y-93758553D01*
X148066693Y-93846860D01*
X147887429Y-93901239D01*
X147887428Y-93901239D01*
X147887425Y-93901240D01*
X147747718Y-93915000D01*
X147654282Y-93915000D01*
X147514575Y-93901240D01*
X147514572Y-93901239D01*
X147514571Y-93901239D01*
X147335307Y-93846860D01*
X147170097Y-93758553D01*
X147170095Y-93758552D01*
X147025288Y-93639712D01*
X146906448Y-93494905D01*
X146818141Y-93329695D01*
X146782508Y-93212228D01*
X146763761Y-93150429D01*
X146763761Y-93150428D01*
X146763760Y-93150425D01*
X146745399Y-92964000D01*
X146763760Y-92777575D01*
X146763761Y-92777571D01*
X146818140Y-92598307D01*
X146818141Y-92598305D01*
X146906448Y-92433095D01*
X147025288Y-92288288D01*
X147170095Y-92169448D01*
X147335305Y-92081141D01*
X147335307Y-92081140D01*
X147514571Y-92026761D01*
X147514572Y-92026761D01*
X147514575Y-92026760D01*
X147654282Y-92013000D01*
X147747718Y-92013000D01*
X147887425Y-92026760D01*
X147887425Y-92026760D01*
G37*
G36*
X134679425Y-92026760D02*
X134679428Y-92026761D01*
X134679429Y-92026761D01*
X134858693Y-92081140D01*
X134858695Y-92081141D01*
X135023905Y-92169448D01*
X135168712Y-92288288D01*
X135287552Y-92433095D01*
X135375859Y-92598305D01*
X135375860Y-92598307D01*
X135430239Y-92777571D01*
X135430240Y-92777575D01*
X135448601Y-92964000D01*
X135430240Y-93150425D01*
X135430239Y-93150428D01*
X135430239Y-93150429D01*
X135411493Y-93212228D01*
X135375859Y-93329695D01*
X135287552Y-93494905D01*
X135168712Y-93639712D01*
X135023905Y-93758552D01*
X135023903Y-93758553D01*
X134858693Y-93846860D01*
X134679429Y-93901239D01*
X134679428Y-93901239D01*
X134679425Y-93901240D01*
X134539718Y-93915000D01*
X134446282Y-93915000D01*
X134306575Y-93901240D01*
X134306572Y-93901239D01*
X134306571Y-93901239D01*
X134127307Y-93846860D01*
X133962097Y-93758553D01*
X133962095Y-93758552D01*
X133817288Y-93639712D01*
X133698448Y-93494905D01*
X133610141Y-93329695D01*
X133574508Y-93212228D01*
X133555761Y-93150429D01*
X133555761Y-93150428D01*
X133555760Y-93150425D01*
X133537399Y-92964000D01*
X133555760Y-92777575D01*
X133555761Y-92777571D01*
X133610140Y-92598307D01*
X133610141Y-92598305D01*
X133698448Y-92433095D01*
X133817288Y-92288288D01*
X133962095Y-92169448D01*
X134127305Y-92081141D01*
X134127307Y-92081140D01*
X134306571Y-92026761D01*
X134306572Y-92026761D01*
X134306575Y-92026760D01*
X134446282Y-92013000D01*
X134539718Y-92013000D01*
X134679425Y-92026760D01*
X134679425Y-92026760D01*
G37*
G36*
X137981425Y-92026760D02*
X137981428Y-92026761D01*
X137981429Y-92026761D01*
X138160693Y-92081140D01*
X138160695Y-92081141D01*
X138325905Y-92169448D01*
X138470712Y-92288288D01*
X138589552Y-92433095D01*
X138677859Y-92598305D01*
X138677860Y-92598307D01*
X138732239Y-92777571D01*
X138732240Y-92777575D01*
X138750601Y-92964000D01*
X138732240Y-93150425D01*
X138732239Y-93150428D01*
X138732239Y-93150429D01*
X138713493Y-93212228D01*
X138677859Y-93329695D01*
X138589552Y-93494905D01*
X138470712Y-93639712D01*
X138325905Y-93758552D01*
X138325903Y-93758553D01*
X138160693Y-93846860D01*
X137981429Y-93901239D01*
X137981428Y-93901239D01*
X137981425Y-93901240D01*
X137841718Y-93915000D01*
X137748282Y-93915000D01*
X137608575Y-93901240D01*
X137608572Y-93901239D01*
X137608571Y-93901239D01*
X137429307Y-93846860D01*
X137264097Y-93758553D01*
X137264095Y-93758552D01*
X137119288Y-93639712D01*
X137000448Y-93494905D01*
X136912141Y-93329695D01*
X136876508Y-93212228D01*
X136857761Y-93150429D01*
X136857761Y-93150428D01*
X136857760Y-93150425D01*
X136839399Y-92964000D01*
X136857760Y-92777575D01*
X136857761Y-92777571D01*
X136912140Y-92598307D01*
X136912141Y-92598305D01*
X137000448Y-92433095D01*
X137119288Y-92288288D01*
X137264095Y-92169448D01*
X137429305Y-92081141D01*
X137429307Y-92081140D01*
X137608571Y-92026761D01*
X137608572Y-92026761D01*
X137608575Y-92026760D01*
X137748282Y-92013000D01*
X137841718Y-92013000D01*
X137981425Y-92026760D01*
X137981425Y-92026760D01*
G37*
G36*
X141283425Y-92026760D02*
X141283428Y-92026761D01*
X141283429Y-92026761D01*
X141462693Y-92081140D01*
X141462695Y-92081141D01*
X141627905Y-92169448D01*
X141772712Y-92288288D01*
X141891552Y-92433095D01*
X141979859Y-92598305D01*
X141979860Y-92598307D01*
X142034239Y-92777571D01*
X142034240Y-92777575D01*
X142052601Y-92964000D01*
X142034240Y-93150425D01*
X142034239Y-93150428D01*
X142034239Y-93150429D01*
X142015493Y-93212228D01*
X141979859Y-93329695D01*
X141891552Y-93494905D01*
X141772712Y-93639712D01*
X141627905Y-93758552D01*
X141627903Y-93758553D01*
X141462693Y-93846860D01*
X141283429Y-93901239D01*
X141283428Y-93901239D01*
X141283425Y-93901240D01*
X141143718Y-93915000D01*
X141050282Y-93915000D01*
X140910575Y-93901240D01*
X140910572Y-93901239D01*
X140910571Y-93901239D01*
X140731307Y-93846860D01*
X140566097Y-93758553D01*
X140566095Y-93758552D01*
X140421288Y-93639712D01*
X140302448Y-93494905D01*
X140214141Y-93329695D01*
X140178508Y-93212228D01*
X140159761Y-93150429D01*
X140159761Y-93150428D01*
X140159760Y-93150425D01*
X140141399Y-92964000D01*
X140159760Y-92777575D01*
X140159761Y-92777571D01*
X140214140Y-92598307D01*
X140214141Y-92598305D01*
X140302448Y-92433095D01*
X140421288Y-92288288D01*
X140566095Y-92169448D01*
X140731305Y-92081141D01*
X140731307Y-92081140D01*
X140910571Y-92026761D01*
X140910572Y-92026761D01*
X140910575Y-92026760D01*
X141050282Y-92013000D01*
X141143718Y-92013000D01*
X141283425Y-92026760D01*
X141283425Y-92026760D01*
G37*
G36*
X144585425Y-92026760D02*
X144585428Y-92026761D01*
X144585429Y-92026761D01*
X144764693Y-92081140D01*
X144764695Y-92081141D01*
X144929905Y-92169448D01*
X145074712Y-92288288D01*
X145193552Y-92433095D01*
X145281859Y-92598305D01*
X145281860Y-92598307D01*
X145336239Y-92777571D01*
X145336240Y-92777575D01*
X145354601Y-92964000D01*
X145336240Y-93150425D01*
X145336239Y-93150428D01*
X145336239Y-93150429D01*
X145317493Y-93212228D01*
X145281859Y-93329695D01*
X145193552Y-93494905D01*
X145074712Y-93639712D01*
X144929905Y-93758552D01*
X144929903Y-93758553D01*
X144764693Y-93846860D01*
X144585429Y-93901239D01*
X144585428Y-93901239D01*
X144585425Y-93901240D01*
X144445718Y-93915000D01*
X144352282Y-93915000D01*
X144212575Y-93901240D01*
X144212572Y-93901239D01*
X144212571Y-93901239D01*
X144033307Y-93846860D01*
X143868097Y-93758553D01*
X143868095Y-93758552D01*
X143723288Y-93639712D01*
X143604448Y-93494905D01*
X143516141Y-93329695D01*
X143480508Y-93212228D01*
X143461761Y-93150429D01*
X143461761Y-93150428D01*
X143461760Y-93150425D01*
X143443399Y-92964000D01*
X143461760Y-92777575D01*
X143461761Y-92777571D01*
X143516140Y-92598307D01*
X143516141Y-92598305D01*
X143604448Y-92433095D01*
X143723288Y-92288288D01*
X143868095Y-92169448D01*
X144033305Y-92081141D01*
X144033307Y-92081140D01*
X144212571Y-92026761D01*
X144212572Y-92026761D01*
X144212575Y-92026760D01*
X144352282Y-92013000D01*
X144445718Y-92013000D01*
X144585425Y-92026760D01*
X144585425Y-92026760D01*
G37*
G36*
X128772228Y-92145703D02*
X128927100Y-92209853D01*
X129066481Y-92302985D01*
X129185015Y-92421519D01*
X129278147Y-92560900D01*
X129342297Y-92715772D01*
X129375000Y-92880184D01*
X129375000Y-93047816D01*
X129342297Y-93212228D01*
X129278147Y-93367100D01*
X129185015Y-93506481D01*
X129066481Y-93625015D01*
X128927100Y-93718147D01*
X128772228Y-93782297D01*
X128607816Y-93815000D01*
X128440184Y-93815000D01*
X128275772Y-93782297D01*
X128120900Y-93718147D01*
X127981519Y-93625015D01*
X127862985Y-93506481D01*
X127769853Y-93367100D01*
X127705703Y-93212228D01*
X127673000Y-93047816D01*
X127673000Y-92880184D01*
X127705703Y-92715772D01*
X127769853Y-92560900D01*
X127862985Y-92421519D01*
X127981519Y-92302985D01*
X128120900Y-92209853D01*
X128275772Y-92145703D01*
X128440184Y-92113000D01*
X128607816Y-92113000D01*
X128772228Y-92145703D01*
X128772228Y-92145703D01*
G37*
G36*
X131272228Y-92145703D02*
X131427100Y-92209853D01*
X131566481Y-92302985D01*
X131685015Y-92421519D01*
X131778147Y-92560900D01*
X131842297Y-92715772D01*
X131875000Y-92880184D01*
X131875000Y-93047816D01*
X131842297Y-93212228D01*
X131778147Y-93367100D01*
X131685015Y-93506481D01*
X131566481Y-93625015D01*
X131427100Y-93718147D01*
X131272228Y-93782297D01*
X131107816Y-93815000D01*
X130940184Y-93815000D01*
X130775772Y-93782297D01*
X130620900Y-93718147D01*
X130481519Y-93625015D01*
X130362985Y-93506481D01*
X130269853Y-93367100D01*
X130205703Y-93212228D01*
X130173000Y-93047816D01*
X130173000Y-92880184D01*
X130205703Y-92715772D01*
X130269853Y-92560900D01*
X130362985Y-92421519D01*
X130481519Y-92302985D01*
X130620900Y-92209853D01*
X130775772Y-92145703D01*
X130940184Y-92113000D01*
X131107816Y-92113000D01*
X131272228Y-92145703D01*
X131272228Y-92145703D01*
G37*
G36*
X154299228Y-86635703D02*
X154454100Y-86699853D01*
X154593481Y-86792985D01*
X154712015Y-86911519D01*
X154805147Y-87050900D01*
X154869297Y-87205772D01*
X154902000Y-87370184D01*
X154902000Y-87537816D01*
X154869297Y-87702228D01*
X154805147Y-87857100D01*
X154712015Y-87996481D01*
X154593481Y-88115015D01*
X154454100Y-88208147D01*
X154299228Y-88272297D01*
X154134816Y-88305000D01*
X153967184Y-88305000D01*
X153802772Y-88272297D01*
X153647900Y-88208147D01*
X153508519Y-88115015D01*
X153389985Y-87996481D01*
X153296853Y-87857100D01*
X153232703Y-87702228D01*
X153200000Y-87537816D01*
X153200000Y-87370184D01*
X153232703Y-87205772D01*
X153296853Y-87050900D01*
X153389985Y-86911519D01*
X153508519Y-86792985D01*
X153647900Y-86699853D01*
X153802772Y-86635703D01*
X153967184Y-86603000D01*
X154134816Y-86603000D01*
X154299228Y-86635703D01*
X154299228Y-86635703D01*
G37*
G36*
X147663000Y-87592000D02*
X145961000Y-87592000D01*
X145961000Y-85890000D01*
X147663000Y-85890000D01*
X147663000Y-87592000D01*
X147663000Y-87592000D01*
G37*
G36*
X149560228Y-85922703D02*
X149715100Y-85986853D01*
X149854481Y-86079985D01*
X149973015Y-86198519D01*
X150066147Y-86337900D01*
X150130297Y-86492772D01*
X150163000Y-86657184D01*
X150163000Y-86824816D01*
X150130297Y-86989228D01*
X150066147Y-87144100D01*
X149973015Y-87283481D01*
X149854481Y-87402015D01*
X149715100Y-87495147D01*
X149560228Y-87559297D01*
X149395816Y-87592000D01*
X149228184Y-87592000D01*
X149063772Y-87559297D01*
X148908900Y-87495147D01*
X148769519Y-87402015D01*
X148650985Y-87283481D01*
X148557853Y-87144100D01*
X148493703Y-86989228D01*
X148461000Y-86824816D01*
X148461000Y-86657184D01*
X148493703Y-86492772D01*
X148557853Y-86337900D01*
X148650985Y-86198519D01*
X148769519Y-86079985D01*
X148908900Y-85986853D01*
X149063772Y-85922703D01*
X149228184Y-85890000D01*
X149395816Y-85890000D01*
X149560228Y-85922703D01*
X149560228Y-85922703D01*
G37*
G36*
X143451000Y-87187500D02*
X141349000Y-87187500D01*
X141349000Y-85180500D01*
X143451000Y-85180500D01*
X143451000Y-87187500D01*
X143451000Y-87187500D01*
G37*
G36*
X125916669Y-81851686D02*
X126093058Y-81869059D01*
X126319385Y-81937714D01*
X126432549Y-81972042D01*
X126745425Y-82139279D01*
X127019661Y-82364339D01*
X127244721Y-82638575D01*
X127411958Y-82951451D01*
X127411958Y-82951452D01*
X127514941Y-83290942D01*
X127549714Y-83644000D01*
X127514941Y-83997058D01*
X127453315Y-84200212D01*
X127411958Y-84336549D01*
X127244721Y-84649425D01*
X127019661Y-84923661D01*
X126745425Y-85148721D01*
X126432549Y-85315958D01*
X126319385Y-85350286D01*
X126093058Y-85418941D01*
X125916669Y-85436314D01*
X125828476Y-85445000D01*
X125651524Y-85445000D01*
X125563331Y-85436314D01*
X125386942Y-85418941D01*
X125160615Y-85350286D01*
X125047451Y-85315958D01*
X124734575Y-85148721D01*
X124460339Y-84923661D01*
X124235279Y-84649425D01*
X124068042Y-84336549D01*
X124026685Y-84200212D01*
X123965059Y-83997058D01*
X123930286Y-83644000D01*
X123965059Y-83290942D01*
X124068042Y-82951452D01*
X124068042Y-82951451D01*
X124235279Y-82638575D01*
X124460339Y-82364339D01*
X124734575Y-82139279D01*
X125047451Y-81972042D01*
X125160615Y-81937714D01*
X125386942Y-81869059D01*
X125563331Y-81851686D01*
X125651524Y-81843000D01*
X125828476Y-81843000D01*
X125916669Y-81851686D01*
X125916669Y-81851686D01*
G37*
G36*
X167086000Y-84690000D02*
X164384000Y-84690000D01*
X164384000Y-81988000D01*
X167086000Y-81988000D01*
X167086000Y-84690000D01*
X167086000Y-84690000D01*
G37*
G36*
X160918567Y-82013959D02*
X161049072Y-82039918D01*
X161294939Y-82141759D01*
X161515464Y-82289110D01*
X161516215Y-82289612D01*
X161704388Y-82477785D01*
X161704390Y-82477788D01*
X161852241Y-82699061D01*
X161954082Y-82944928D01*
X162006000Y-83205938D01*
X162006000Y-83472062D01*
X161954082Y-83733072D01*
X161852241Y-83978939D01*
X161704890Y-84199464D01*
X161704388Y-84200215D01*
X161516215Y-84388388D01*
X161516212Y-84388390D01*
X161294939Y-84536241D01*
X161049072Y-84638082D01*
X160918567Y-84664041D01*
X160788063Y-84690000D01*
X160521937Y-84690000D01*
X160391433Y-84664041D01*
X160260928Y-84638082D01*
X160015061Y-84536241D01*
X159793788Y-84388390D01*
X159793785Y-84388388D01*
X159605612Y-84200215D01*
X159605110Y-84199464D01*
X159457759Y-83978939D01*
X159355918Y-83733072D01*
X159304000Y-83472062D01*
X159304000Y-83205938D01*
X159355918Y-82944928D01*
X159457759Y-82699061D01*
X159605610Y-82477788D01*
X159605612Y-82477785D01*
X159793785Y-82289612D01*
X159794536Y-82289110D01*
X160015061Y-82141759D01*
X160260928Y-82039918D01*
X160391433Y-82013959D01*
X160521937Y-81988000D01*
X160788063Y-81988000D01*
X160918567Y-82013959D01*
X160918567Y-82013959D01*
G37*
G36*
X142555764Y-82646308D02*
X142644220Y-82655020D01*
X142833381Y-82712401D01*
X143007712Y-82805583D01*
X143160515Y-82930985D01*
X143285917Y-83083788D01*
X143379099Y-83258119D01*
X143436480Y-83447280D01*
X143455855Y-83644000D01*
X143436480Y-83840720D01*
X143379099Y-84029881D01*
X143285917Y-84204212D01*
X143160515Y-84357015D01*
X143007712Y-84482417D01*
X142833381Y-84575599D01*
X142644220Y-84632980D01*
X142555764Y-84641692D01*
X142496796Y-84647500D01*
X142303204Y-84647500D01*
X142244236Y-84641692D01*
X142155780Y-84632980D01*
X141966619Y-84575599D01*
X141792288Y-84482417D01*
X141639485Y-84357015D01*
X141514083Y-84204212D01*
X141420901Y-84029881D01*
X141363520Y-83840720D01*
X141344145Y-83644000D01*
X141363520Y-83447280D01*
X141420901Y-83258119D01*
X141514083Y-83083788D01*
X141639485Y-82930985D01*
X141792288Y-82805583D01*
X141966619Y-82712401D01*
X142155780Y-82655020D01*
X142244236Y-82646308D01*
X142303204Y-82640500D01*
X142496796Y-82640500D01*
X142555764Y-82646308D01*
X142555764Y-82646308D01*
G37*
G36*
X142555764Y-80106308D02*
X142644220Y-80115020D01*
X142833381Y-80172401D01*
X143007712Y-80265583D01*
X143160515Y-80390985D01*
X143285917Y-80543788D01*
X143379099Y-80718119D01*
X143436480Y-80907280D01*
X143455855Y-81104000D01*
X143436480Y-81300720D01*
X143379099Y-81489881D01*
X143285917Y-81664212D01*
X143160515Y-81817015D01*
X143007712Y-81942417D01*
X142833381Y-82035599D01*
X142644220Y-82092980D01*
X142555764Y-82101692D01*
X142496796Y-82107500D01*
X142303204Y-82107500D01*
X142244236Y-82101692D01*
X142155780Y-82092980D01*
X141966619Y-82035599D01*
X141792288Y-81942417D01*
X141639485Y-81817015D01*
X141514083Y-81664212D01*
X141420901Y-81489881D01*
X141363520Y-81300720D01*
X141344145Y-81104000D01*
X141363520Y-80907280D01*
X141420901Y-80718119D01*
X141514083Y-80543788D01*
X141639485Y-80390985D01*
X141792288Y-80265583D01*
X141966619Y-80172401D01*
X142155780Y-80115020D01*
X142244236Y-80106308D01*
X142303204Y-80100500D01*
X142496796Y-80100500D01*
X142555764Y-80106308D01*
X142555764Y-80106308D01*
G37*
G36*
X149560228Y-79699703D02*
X149715100Y-79763853D01*
X149854481Y-79856985D01*
X149973015Y-79975519D01*
X150066147Y-80114900D01*
X150130297Y-80269772D01*
X150163000Y-80434184D01*
X150163000Y-80601816D01*
X150130297Y-80766228D01*
X150066147Y-80921100D01*
X149973015Y-81060481D01*
X149854481Y-81179015D01*
X149715100Y-81272147D01*
X149560228Y-81336297D01*
X149395816Y-81369000D01*
X149228184Y-81369000D01*
X149063772Y-81336297D01*
X148908900Y-81272147D01*
X148769519Y-81179015D01*
X148650985Y-81060481D01*
X148557853Y-80921100D01*
X148493703Y-80766228D01*
X148461000Y-80601816D01*
X148461000Y-80434184D01*
X148493703Y-80269772D01*
X148557853Y-80114900D01*
X148650985Y-79975519D01*
X148769519Y-79856985D01*
X148908900Y-79763853D01*
X149063772Y-79699703D01*
X149228184Y-79667000D01*
X149395816Y-79667000D01*
X149560228Y-79699703D01*
X149560228Y-79699703D01*
G37*
G36*
X147663000Y-81369000D02*
X145961000Y-81369000D01*
X145961000Y-79667000D01*
X147663000Y-79667000D01*
X147663000Y-81369000D01*
X147663000Y-81369000D01*
G37*
G36*
X154217821Y-78995313D02*
X154217824Y-78995314D01*
X154217825Y-78995314D01*
X154378239Y-79043975D01*
X154378241Y-79043976D01*
X154378244Y-79043977D01*
X154526078Y-79122995D01*
X154655659Y-79229341D01*
X154762005Y-79358922D01*
X154841023Y-79506756D01*
X154889687Y-79667179D01*
X154906117Y-79834000D01*
X154889687Y-80000821D01*
X154889686Y-80000824D01*
X154889686Y-80000825D01*
X154855082Y-80114900D01*
X154841023Y-80161244D01*
X154762005Y-80309078D01*
X154655659Y-80438659D01*
X154526078Y-80545005D01*
X154378244Y-80624023D01*
X154378241Y-80624024D01*
X154378239Y-80624025D01*
X154217825Y-80672686D01*
X154217824Y-80672686D01*
X154217821Y-80672687D01*
X154092804Y-80685000D01*
X154009196Y-80685000D01*
X153884179Y-80672687D01*
X153884176Y-80672686D01*
X153884175Y-80672686D01*
X153723761Y-80624025D01*
X153723759Y-80624024D01*
X153723756Y-80624023D01*
X153575922Y-80545005D01*
X153446341Y-80438659D01*
X153339995Y-80309078D01*
X153260977Y-80161244D01*
X153246919Y-80114900D01*
X153212314Y-80000825D01*
X153212314Y-80000824D01*
X153212313Y-80000821D01*
X153195883Y-79834000D01*
X153212313Y-79667179D01*
X153260977Y-79506756D01*
X153339995Y-79358922D01*
X153446341Y-79229341D01*
X153575922Y-79122995D01*
X153723756Y-79043977D01*
X153723759Y-79043976D01*
X153723761Y-79043975D01*
X153884175Y-78995314D01*
X153884176Y-78995314D01*
X153884179Y-78995313D01*
X154009196Y-78983000D01*
X154092804Y-78983000D01*
X154217821Y-78995313D01*
X154217821Y-78995313D01*
G37*
M02*
