G04 #@! TF.GenerationSoftware,KiCad,Pcbnew,(5.0.2)-1*
G04 #@! TF.CreationDate,2020-05-10T23:04:12+05:30*
G04 #@! TF.ProjectId,L298 Module,4c323938-204d-46f6-9475-6c652e6b6963,V1.0*
G04 #@! TF.SameCoordinates,Original*
G04 #@! TF.FileFunction,Legend,Top*
G04 #@! TF.FilePolarity,Positive*
%FSLAX46Y46*%
G04 Gerber Fmt 4.6, Leading zero omitted, Abs format (unit mm)*
G04 Created by KiCad (PCBNEW (5.0.2)-1) date 05/10/20 23:04:12*
%MOMM*%
%LPD*%
G01*
G04 APERTURE LIST*
%ADD10C,0.300000*%
%ADD11C,0.120000*%
%ADD12C,0.150000*%
G04 APERTURE END LIST*
D10*
X121392142Y-93274000D02*
X121392142Y-93774000D01*
X120606428Y-93988285D02*
X120606428Y-93274000D01*
X122106428Y-93274000D01*
X122106428Y-93988285D01*
X121035000Y-94559714D02*
X121035000Y-95274000D01*
X120606428Y-94416857D02*
X122106428Y-94916857D01*
X120606428Y-95416857D01*
X121035000Y-96988285D02*
X121035000Y-97702571D01*
X120606428Y-96845428D02*
X122106428Y-97345428D01*
X120606428Y-97845428D01*
X121392142Y-99988285D02*
X121320714Y-100202571D01*
X121249285Y-100274000D01*
X121106428Y-100345428D01*
X120892142Y-100345428D01*
X120749285Y-100274000D01*
X120677857Y-100202571D01*
X120606428Y-100059714D01*
X120606428Y-99488285D01*
X122106428Y-99488285D01*
X122106428Y-99988285D01*
X122035000Y-100131142D01*
X121963571Y-100202571D01*
X121820714Y-100274000D01*
X121677857Y-100274000D01*
X121535000Y-100202571D01*
X121463571Y-100131142D01*
X121392142Y-99988285D01*
X121392142Y-99488285D01*
X170922142Y-93274000D02*
X170922142Y-93774000D01*
X170136428Y-93988285D02*
X170136428Y-93274000D01*
X171636428Y-93274000D01*
X171636428Y-93988285D01*
X170565000Y-94559714D02*
X170565000Y-95274000D01*
X170136428Y-94416857D02*
X171636428Y-94916857D01*
X170136428Y-95416857D01*
X170565000Y-96988285D02*
X170565000Y-97702571D01*
X170136428Y-96845428D02*
X171636428Y-97345428D01*
X170136428Y-97845428D01*
X170922142Y-99988285D02*
X170850714Y-100202571D01*
X170779285Y-100274000D01*
X170636428Y-100345428D01*
X170422142Y-100345428D01*
X170279285Y-100274000D01*
X170207857Y-100202571D01*
X170136428Y-100059714D01*
X170136428Y-99488285D01*
X171636428Y-99488285D01*
X171636428Y-99988285D01*
X171565000Y-100131142D01*
X171493571Y-100202571D01*
X171350714Y-100274000D01*
X171207857Y-100274000D01*
X171065000Y-100202571D01*
X170993571Y-100131142D01*
X170922142Y-99988285D01*
X170922142Y-99488285D01*
D11*
G04 #@! TO.C,U1*
X138710000Y-81104000D02*
X141250000Y-81104000D01*
X138710000Y-83644000D02*
X141250000Y-83644000D01*
X138710000Y-86184000D02*
X141250000Y-86184000D01*
X122820000Y-78524000D02*
X138710000Y-78524000D01*
X122820000Y-88764000D02*
X138710000Y-88764000D01*
X122820000Y-88764000D02*
X122820000Y-78524000D01*
X138710000Y-88764000D02*
X138710000Y-78524000D01*
G04 #@! TO.C,C1*
X150682000Y-86741000D02*
G75*
G03X150682000Y-86741000I-2620000J0D01*
G01*
X148062000Y-84161000D02*
X148062000Y-89321000D01*
X148102000Y-84161000D02*
X148102000Y-89321000D01*
X148142000Y-84162000D02*
X148142000Y-89320000D01*
X148182000Y-84163000D02*
X148182000Y-89319000D01*
X148222000Y-84165000D02*
X148222000Y-89317000D01*
X148262000Y-84168000D02*
X148262000Y-89314000D01*
X148302000Y-84172000D02*
X148302000Y-85701000D01*
X148302000Y-87781000D02*
X148302000Y-89310000D01*
X148342000Y-84176000D02*
X148342000Y-85701000D01*
X148342000Y-87781000D02*
X148342000Y-89306000D01*
X148382000Y-84180000D02*
X148382000Y-85701000D01*
X148382000Y-87781000D02*
X148382000Y-89302000D01*
X148422000Y-84185000D02*
X148422000Y-85701000D01*
X148422000Y-87781000D02*
X148422000Y-89297000D01*
X148462000Y-84191000D02*
X148462000Y-85701000D01*
X148462000Y-87781000D02*
X148462000Y-89291000D01*
X148502000Y-84198000D02*
X148502000Y-85701000D01*
X148502000Y-87781000D02*
X148502000Y-89284000D01*
X148542000Y-84205000D02*
X148542000Y-85701000D01*
X148542000Y-87781000D02*
X148542000Y-89277000D01*
X148582000Y-84213000D02*
X148582000Y-85701000D01*
X148582000Y-87781000D02*
X148582000Y-89269000D01*
X148622000Y-84221000D02*
X148622000Y-85701000D01*
X148622000Y-87781000D02*
X148622000Y-89261000D01*
X148662000Y-84230000D02*
X148662000Y-85701000D01*
X148662000Y-87781000D02*
X148662000Y-89252000D01*
X148702000Y-84240000D02*
X148702000Y-85701000D01*
X148702000Y-87781000D02*
X148702000Y-89242000D01*
X148742000Y-84250000D02*
X148742000Y-85701000D01*
X148742000Y-87781000D02*
X148742000Y-89232000D01*
X148783000Y-84261000D02*
X148783000Y-85701000D01*
X148783000Y-87781000D02*
X148783000Y-89221000D01*
X148823000Y-84273000D02*
X148823000Y-85701000D01*
X148823000Y-87781000D02*
X148823000Y-89209000D01*
X148863000Y-84286000D02*
X148863000Y-85701000D01*
X148863000Y-87781000D02*
X148863000Y-89196000D01*
X148903000Y-84299000D02*
X148903000Y-85701000D01*
X148903000Y-87781000D02*
X148903000Y-89183000D01*
X148943000Y-84313000D02*
X148943000Y-85701000D01*
X148943000Y-87781000D02*
X148943000Y-89169000D01*
X148983000Y-84327000D02*
X148983000Y-85701000D01*
X148983000Y-87781000D02*
X148983000Y-89155000D01*
X149023000Y-84343000D02*
X149023000Y-85701000D01*
X149023000Y-87781000D02*
X149023000Y-89139000D01*
X149063000Y-84359000D02*
X149063000Y-85701000D01*
X149063000Y-87781000D02*
X149063000Y-89123000D01*
X149103000Y-84376000D02*
X149103000Y-85701000D01*
X149103000Y-87781000D02*
X149103000Y-89106000D01*
X149143000Y-84393000D02*
X149143000Y-85701000D01*
X149143000Y-87781000D02*
X149143000Y-89089000D01*
X149183000Y-84412000D02*
X149183000Y-85701000D01*
X149183000Y-87781000D02*
X149183000Y-89070000D01*
X149223000Y-84431000D02*
X149223000Y-85701000D01*
X149223000Y-87781000D02*
X149223000Y-89051000D01*
X149263000Y-84451000D02*
X149263000Y-85701000D01*
X149263000Y-87781000D02*
X149263000Y-89031000D01*
X149303000Y-84473000D02*
X149303000Y-85701000D01*
X149303000Y-87781000D02*
X149303000Y-89009000D01*
X149343000Y-84494000D02*
X149343000Y-85701000D01*
X149343000Y-87781000D02*
X149343000Y-88988000D01*
X149383000Y-84517000D02*
X149383000Y-85701000D01*
X149383000Y-87781000D02*
X149383000Y-88965000D01*
X149423000Y-84541000D02*
X149423000Y-85701000D01*
X149423000Y-87781000D02*
X149423000Y-88941000D01*
X149463000Y-84566000D02*
X149463000Y-85701000D01*
X149463000Y-87781000D02*
X149463000Y-88916000D01*
X149503000Y-84592000D02*
X149503000Y-85701000D01*
X149503000Y-87781000D02*
X149503000Y-88890000D01*
X149543000Y-84619000D02*
X149543000Y-85701000D01*
X149543000Y-87781000D02*
X149543000Y-88863000D01*
X149583000Y-84646000D02*
X149583000Y-85701000D01*
X149583000Y-87781000D02*
X149583000Y-88836000D01*
X149623000Y-84676000D02*
X149623000Y-85701000D01*
X149623000Y-87781000D02*
X149623000Y-88806000D01*
X149663000Y-84706000D02*
X149663000Y-85701000D01*
X149663000Y-87781000D02*
X149663000Y-88776000D01*
X149703000Y-84737000D02*
X149703000Y-85701000D01*
X149703000Y-87781000D02*
X149703000Y-88745000D01*
X149743000Y-84770000D02*
X149743000Y-85701000D01*
X149743000Y-87781000D02*
X149743000Y-88712000D01*
X149783000Y-84804000D02*
X149783000Y-85701000D01*
X149783000Y-87781000D02*
X149783000Y-88678000D01*
X149823000Y-84840000D02*
X149823000Y-85701000D01*
X149823000Y-87781000D02*
X149823000Y-88642000D01*
X149863000Y-84877000D02*
X149863000Y-85701000D01*
X149863000Y-87781000D02*
X149863000Y-88605000D01*
X149903000Y-84915000D02*
X149903000Y-85701000D01*
X149903000Y-87781000D02*
X149903000Y-88567000D01*
X149943000Y-84956000D02*
X149943000Y-85701000D01*
X149943000Y-87781000D02*
X149943000Y-88526000D01*
X149983000Y-84998000D02*
X149983000Y-85701000D01*
X149983000Y-87781000D02*
X149983000Y-88484000D01*
X150023000Y-85042000D02*
X150023000Y-85701000D01*
X150023000Y-87781000D02*
X150023000Y-88440000D01*
X150063000Y-85088000D02*
X150063000Y-85701000D01*
X150063000Y-87781000D02*
X150063000Y-88394000D01*
X150103000Y-85136000D02*
X150103000Y-85701000D01*
X150103000Y-87781000D02*
X150103000Y-88346000D01*
X150143000Y-85187000D02*
X150143000Y-85701000D01*
X150143000Y-87781000D02*
X150143000Y-88295000D01*
X150183000Y-85241000D02*
X150183000Y-85701000D01*
X150183000Y-87781000D02*
X150183000Y-88241000D01*
X150223000Y-85298000D02*
X150223000Y-85701000D01*
X150223000Y-87781000D02*
X150223000Y-88184000D01*
X150263000Y-85358000D02*
X150263000Y-85701000D01*
X150263000Y-87781000D02*
X150263000Y-88124000D01*
X150303000Y-85422000D02*
X150303000Y-85701000D01*
X150303000Y-87781000D02*
X150303000Y-88060000D01*
X150343000Y-85490000D02*
X150343000Y-85701000D01*
X150343000Y-87781000D02*
X150343000Y-87992000D01*
X150383000Y-85563000D02*
X150383000Y-87919000D01*
X150423000Y-85643000D02*
X150423000Y-87839000D01*
X150463000Y-85730000D02*
X150463000Y-87752000D01*
X150503000Y-85826000D02*
X150503000Y-87656000D01*
X150543000Y-85936000D02*
X150543000Y-87546000D01*
X150583000Y-86064000D02*
X150583000Y-87418000D01*
X150623000Y-86223000D02*
X150623000Y-87259000D01*
X150663000Y-86457000D02*
X150663000Y-87025000D01*
X145257225Y-85266000D02*
X145757225Y-85266000D01*
X145507225Y-85016000D02*
X145507225Y-85516000D01*
G04 #@! TO.C,C2*
X145507225Y-78793000D02*
X145507225Y-79293000D01*
X145257225Y-79043000D02*
X145757225Y-79043000D01*
X150663000Y-80234000D02*
X150663000Y-80802000D01*
X150623000Y-80000000D02*
X150623000Y-81036000D01*
X150583000Y-79841000D02*
X150583000Y-81195000D01*
X150543000Y-79713000D02*
X150543000Y-81323000D01*
X150503000Y-79603000D02*
X150503000Y-81433000D01*
X150463000Y-79507000D02*
X150463000Y-81529000D01*
X150423000Y-79420000D02*
X150423000Y-81616000D01*
X150383000Y-79340000D02*
X150383000Y-81696000D01*
X150343000Y-81558000D02*
X150343000Y-81769000D01*
X150343000Y-79267000D02*
X150343000Y-79478000D01*
X150303000Y-81558000D02*
X150303000Y-81837000D01*
X150303000Y-79199000D02*
X150303000Y-79478000D01*
X150263000Y-81558000D02*
X150263000Y-81901000D01*
X150263000Y-79135000D02*
X150263000Y-79478000D01*
X150223000Y-81558000D02*
X150223000Y-81961000D01*
X150223000Y-79075000D02*
X150223000Y-79478000D01*
X150183000Y-81558000D02*
X150183000Y-82018000D01*
X150183000Y-79018000D02*
X150183000Y-79478000D01*
X150143000Y-81558000D02*
X150143000Y-82072000D01*
X150143000Y-78964000D02*
X150143000Y-79478000D01*
X150103000Y-81558000D02*
X150103000Y-82123000D01*
X150103000Y-78913000D02*
X150103000Y-79478000D01*
X150063000Y-81558000D02*
X150063000Y-82171000D01*
X150063000Y-78865000D02*
X150063000Y-79478000D01*
X150023000Y-81558000D02*
X150023000Y-82217000D01*
X150023000Y-78819000D02*
X150023000Y-79478000D01*
X149983000Y-81558000D02*
X149983000Y-82261000D01*
X149983000Y-78775000D02*
X149983000Y-79478000D01*
X149943000Y-81558000D02*
X149943000Y-82303000D01*
X149943000Y-78733000D02*
X149943000Y-79478000D01*
X149903000Y-81558000D02*
X149903000Y-82344000D01*
X149903000Y-78692000D02*
X149903000Y-79478000D01*
X149863000Y-81558000D02*
X149863000Y-82382000D01*
X149863000Y-78654000D02*
X149863000Y-79478000D01*
X149823000Y-81558000D02*
X149823000Y-82419000D01*
X149823000Y-78617000D02*
X149823000Y-79478000D01*
X149783000Y-81558000D02*
X149783000Y-82455000D01*
X149783000Y-78581000D02*
X149783000Y-79478000D01*
X149743000Y-81558000D02*
X149743000Y-82489000D01*
X149743000Y-78547000D02*
X149743000Y-79478000D01*
X149703000Y-81558000D02*
X149703000Y-82522000D01*
X149703000Y-78514000D02*
X149703000Y-79478000D01*
X149663000Y-81558000D02*
X149663000Y-82553000D01*
X149663000Y-78483000D02*
X149663000Y-79478000D01*
X149623000Y-81558000D02*
X149623000Y-82583000D01*
X149623000Y-78453000D02*
X149623000Y-79478000D01*
X149583000Y-81558000D02*
X149583000Y-82613000D01*
X149583000Y-78423000D02*
X149583000Y-79478000D01*
X149543000Y-81558000D02*
X149543000Y-82640000D01*
X149543000Y-78396000D02*
X149543000Y-79478000D01*
X149503000Y-81558000D02*
X149503000Y-82667000D01*
X149503000Y-78369000D02*
X149503000Y-79478000D01*
X149463000Y-81558000D02*
X149463000Y-82693000D01*
X149463000Y-78343000D02*
X149463000Y-79478000D01*
X149423000Y-81558000D02*
X149423000Y-82718000D01*
X149423000Y-78318000D02*
X149423000Y-79478000D01*
X149383000Y-81558000D02*
X149383000Y-82742000D01*
X149383000Y-78294000D02*
X149383000Y-79478000D01*
X149343000Y-81558000D02*
X149343000Y-82765000D01*
X149343000Y-78271000D02*
X149343000Y-79478000D01*
X149303000Y-81558000D02*
X149303000Y-82786000D01*
X149303000Y-78250000D02*
X149303000Y-79478000D01*
X149263000Y-81558000D02*
X149263000Y-82808000D01*
X149263000Y-78228000D02*
X149263000Y-79478000D01*
X149223000Y-81558000D02*
X149223000Y-82828000D01*
X149223000Y-78208000D02*
X149223000Y-79478000D01*
X149183000Y-81558000D02*
X149183000Y-82847000D01*
X149183000Y-78189000D02*
X149183000Y-79478000D01*
X149143000Y-81558000D02*
X149143000Y-82866000D01*
X149143000Y-78170000D02*
X149143000Y-79478000D01*
X149103000Y-81558000D02*
X149103000Y-82883000D01*
X149103000Y-78153000D02*
X149103000Y-79478000D01*
X149063000Y-81558000D02*
X149063000Y-82900000D01*
X149063000Y-78136000D02*
X149063000Y-79478000D01*
X149023000Y-81558000D02*
X149023000Y-82916000D01*
X149023000Y-78120000D02*
X149023000Y-79478000D01*
X148983000Y-81558000D02*
X148983000Y-82932000D01*
X148983000Y-78104000D02*
X148983000Y-79478000D01*
X148943000Y-81558000D02*
X148943000Y-82946000D01*
X148943000Y-78090000D02*
X148943000Y-79478000D01*
X148903000Y-81558000D02*
X148903000Y-82960000D01*
X148903000Y-78076000D02*
X148903000Y-79478000D01*
X148863000Y-81558000D02*
X148863000Y-82973000D01*
X148863000Y-78063000D02*
X148863000Y-79478000D01*
X148823000Y-81558000D02*
X148823000Y-82986000D01*
X148823000Y-78050000D02*
X148823000Y-79478000D01*
X148783000Y-81558000D02*
X148783000Y-82998000D01*
X148783000Y-78038000D02*
X148783000Y-79478000D01*
X148742000Y-81558000D02*
X148742000Y-83009000D01*
X148742000Y-78027000D02*
X148742000Y-79478000D01*
X148702000Y-81558000D02*
X148702000Y-83019000D01*
X148702000Y-78017000D02*
X148702000Y-79478000D01*
X148662000Y-81558000D02*
X148662000Y-83029000D01*
X148662000Y-78007000D02*
X148662000Y-79478000D01*
X148622000Y-81558000D02*
X148622000Y-83038000D01*
X148622000Y-77998000D02*
X148622000Y-79478000D01*
X148582000Y-81558000D02*
X148582000Y-83046000D01*
X148582000Y-77990000D02*
X148582000Y-79478000D01*
X148542000Y-81558000D02*
X148542000Y-83054000D01*
X148542000Y-77982000D02*
X148542000Y-79478000D01*
X148502000Y-81558000D02*
X148502000Y-83061000D01*
X148502000Y-77975000D02*
X148502000Y-79478000D01*
X148462000Y-81558000D02*
X148462000Y-83068000D01*
X148462000Y-77968000D02*
X148462000Y-79478000D01*
X148422000Y-81558000D02*
X148422000Y-83074000D01*
X148422000Y-77962000D02*
X148422000Y-79478000D01*
X148382000Y-81558000D02*
X148382000Y-83079000D01*
X148382000Y-77957000D02*
X148382000Y-79478000D01*
X148342000Y-81558000D02*
X148342000Y-83083000D01*
X148342000Y-77953000D02*
X148342000Y-79478000D01*
X148302000Y-81558000D02*
X148302000Y-83087000D01*
X148302000Y-77949000D02*
X148302000Y-79478000D01*
X148262000Y-77945000D02*
X148262000Y-83091000D01*
X148222000Y-77942000D02*
X148222000Y-83094000D01*
X148182000Y-77940000D02*
X148182000Y-83096000D01*
X148142000Y-77939000D02*
X148142000Y-83097000D01*
X148102000Y-77938000D02*
X148102000Y-83098000D01*
X148062000Y-77938000D02*
X148062000Y-83098000D01*
X150682000Y-80518000D02*
G75*
G03X150682000Y-80518000I-2620000J0D01*
G01*
G04 #@! TO.C,C3*
X131394000Y-101639000D02*
X131394000Y-101704000D01*
X131394000Y-99464000D02*
X131394000Y-99529000D01*
X128154000Y-101639000D02*
X128154000Y-101704000D01*
X128154000Y-99464000D02*
X128154000Y-99529000D01*
X128154000Y-101704000D02*
X131394000Y-101704000D01*
X128154000Y-99464000D02*
X131394000Y-99464000D01*
G04 #@! TO.C,C4*
X128154000Y-91844000D02*
X131394000Y-91844000D01*
X128154000Y-94084000D02*
X131394000Y-94084000D01*
X128154000Y-91844000D02*
X128154000Y-91909000D01*
X128154000Y-94019000D02*
X128154000Y-94084000D01*
X131394000Y-91844000D02*
X131394000Y-91909000D01*
X131394000Y-94019000D02*
X131394000Y-94084000D01*
G04 #@! TO.C,D1*
X163978335Y-95695392D02*
G75*
G03X160746000Y-95538484I-1672335J-1078608D01*
G01*
X163978335Y-97852608D02*
G75*
G02X160746000Y-98009516I-1672335J1078608D01*
G01*
X163347130Y-95694163D02*
G75*
G03X161265039Y-95694000I-1041130J-1079837D01*
G01*
X163347130Y-97853837D02*
G75*
G02X161265039Y-97854000I-1041130J1079837D01*
G01*
X160746000Y-95538000D02*
X160746000Y-95694000D01*
X160746000Y-97854000D02*
X160746000Y-98010000D01*
G04 #@! TO.C,D2*
X136655000Y-99494000D02*
X136325000Y-99494000D01*
X136325000Y-99494000D02*
X136325000Y-94054000D01*
X136325000Y-94054000D02*
X136655000Y-94054000D01*
X138935000Y-99494000D02*
X139265000Y-99494000D01*
X139265000Y-99494000D02*
X139265000Y-94054000D01*
X139265000Y-94054000D02*
X138935000Y-94054000D01*
X136325000Y-98594000D02*
X139265000Y-98594000D01*
X136325000Y-98474000D02*
X139265000Y-98474000D01*
X136325000Y-98714000D02*
X139265000Y-98714000D01*
G04 #@! TO.C,D3*
X139627000Y-98714000D02*
X142567000Y-98714000D01*
X139627000Y-98474000D02*
X142567000Y-98474000D01*
X139627000Y-98594000D02*
X142567000Y-98594000D01*
X142567000Y-94054000D02*
X142237000Y-94054000D01*
X142567000Y-99494000D02*
X142567000Y-94054000D01*
X142237000Y-99494000D02*
X142567000Y-99494000D01*
X139627000Y-94054000D02*
X139957000Y-94054000D01*
X139627000Y-99494000D02*
X139627000Y-94054000D01*
X139957000Y-99494000D02*
X139627000Y-99494000D01*
G04 #@! TO.C,D4*
X156137000Y-98714000D02*
X159077000Y-98714000D01*
X156137000Y-98474000D02*
X159077000Y-98474000D01*
X156137000Y-98594000D02*
X159077000Y-98594000D01*
X159077000Y-94054000D02*
X158747000Y-94054000D01*
X159077000Y-99494000D02*
X159077000Y-94054000D01*
X158747000Y-99494000D02*
X159077000Y-99494000D01*
X156137000Y-94054000D02*
X156467000Y-94054000D01*
X156137000Y-99494000D02*
X156137000Y-94054000D01*
X156467000Y-99494000D02*
X156137000Y-99494000D01*
G04 #@! TO.C,D5*
X143259000Y-99494000D02*
X142929000Y-99494000D01*
X142929000Y-99494000D02*
X142929000Y-94054000D01*
X142929000Y-94054000D02*
X143259000Y-94054000D01*
X145539000Y-99494000D02*
X145869000Y-99494000D01*
X145869000Y-99494000D02*
X145869000Y-94054000D01*
X145869000Y-94054000D02*
X145539000Y-94054000D01*
X142929000Y-98594000D02*
X145869000Y-98594000D01*
X142929000Y-98474000D02*
X145869000Y-98474000D01*
X142929000Y-98714000D02*
X145869000Y-98714000D01*
G04 #@! TO.C,D6*
X153165000Y-99494000D02*
X152835000Y-99494000D01*
X152835000Y-99494000D02*
X152835000Y-94054000D01*
X152835000Y-94054000D02*
X153165000Y-94054000D01*
X155445000Y-99494000D02*
X155775000Y-99494000D01*
X155775000Y-99494000D02*
X155775000Y-94054000D01*
X155775000Y-94054000D02*
X155445000Y-94054000D01*
X152835000Y-98594000D02*
X155775000Y-98594000D01*
X152835000Y-98474000D02*
X155775000Y-98474000D01*
X152835000Y-98714000D02*
X155775000Y-98714000D01*
G04 #@! TO.C,D7*
X146231000Y-98714000D02*
X149171000Y-98714000D01*
X146231000Y-98474000D02*
X149171000Y-98474000D01*
X146231000Y-98594000D02*
X149171000Y-98594000D01*
X149171000Y-94054000D02*
X148841000Y-94054000D01*
X149171000Y-99494000D02*
X149171000Y-94054000D01*
X148841000Y-99494000D02*
X149171000Y-99494000D01*
X146231000Y-94054000D02*
X146561000Y-94054000D01*
X146231000Y-99494000D02*
X146231000Y-94054000D01*
X146561000Y-99494000D02*
X146231000Y-99494000D01*
G04 #@! TO.C,D8*
X133023000Y-98714000D02*
X135963000Y-98714000D01*
X133023000Y-98474000D02*
X135963000Y-98474000D01*
X133023000Y-98594000D02*
X135963000Y-98594000D01*
X135963000Y-94054000D02*
X135633000Y-94054000D01*
X135963000Y-99494000D02*
X135963000Y-94054000D01*
X135633000Y-99494000D02*
X135963000Y-99494000D01*
X133023000Y-94054000D02*
X133353000Y-94054000D01*
X133023000Y-99494000D02*
X133023000Y-94054000D01*
X133353000Y-99494000D02*
X133023000Y-99494000D01*
G04 #@! TO.C,D9*
X149863000Y-99494000D02*
X149533000Y-99494000D01*
X149533000Y-99494000D02*
X149533000Y-94054000D01*
X149533000Y-94054000D02*
X149863000Y-94054000D01*
X152143000Y-99494000D02*
X152473000Y-99494000D01*
X152473000Y-99494000D02*
X152473000Y-94054000D01*
X152473000Y-94054000D02*
X152143000Y-94054000D01*
X149533000Y-98594000D02*
X152473000Y-98594000D01*
X149533000Y-98474000D02*
X152473000Y-98474000D01*
X149533000Y-98714000D02*
X152473000Y-98714000D01*
G04 #@! TO.C,POWER*
X165051682Y-81804244D02*
G75*
G02X165735000Y-81659000I683318J-1534756D01*
G01*
X164199574Y-84022042D02*
G75*
G02X164200000Y-82655000I1535426J683042D01*
G01*
X166418042Y-84874426D02*
G75*
G02X165051000Y-84874000I-683042J1535426D01*
G01*
X167270426Y-82655958D02*
G75*
G02X167270000Y-84023000I-1535426J-683042D01*
G01*
X165706195Y-81658747D02*
G75*
G02X166419000Y-81804000I28805J-1680253D01*
G01*
X162335000Y-83339000D02*
G75*
G03X162335000Y-83339000I-1680000J0D01*
G01*
X168335000Y-79239000D02*
X158055000Y-79239000D01*
X168335000Y-80739000D02*
X158055000Y-80739000D01*
X168335000Y-85640000D02*
X158055000Y-85640000D01*
X168335000Y-88600000D02*
X158055000Y-88600000D01*
X168335000Y-78679000D02*
X158055000Y-78679000D01*
X168335000Y-88600000D02*
X168335000Y-78679000D01*
X158055000Y-88600000D02*
X158055000Y-78679000D01*
X159380000Y-84408000D02*
X159427000Y-84362000D01*
X161689000Y-82100000D02*
X161724000Y-82065000D01*
X159585000Y-84614000D02*
X159620000Y-84578000D01*
X161882000Y-82316000D02*
X161929000Y-82270000D01*
X168575000Y-79179000D02*
X168575000Y-78439000D01*
X168575000Y-78439000D02*
X168075000Y-78439000D01*
G04 #@! TO.C,M1*
X166056000Y-100659000D02*
X168716000Y-100659000D01*
X166056000Y-95519000D02*
X166056000Y-100659000D01*
X168716000Y-95519000D02*
X168716000Y-100659000D01*
X166056000Y-95519000D02*
X168716000Y-95519000D01*
X166056000Y-94249000D02*
X166056000Y-92919000D01*
X166056000Y-92919000D02*
X167386000Y-92919000D01*
G04 #@! TO.C,M2*
X123638000Y-92919000D02*
X124968000Y-92919000D01*
X123638000Y-94249000D02*
X123638000Y-92919000D01*
X123638000Y-95519000D02*
X126298000Y-95519000D01*
X126298000Y-95519000D02*
X126298000Y-100659000D01*
X123638000Y-95519000D02*
X123638000Y-100659000D01*
X123638000Y-100659000D02*
X126298000Y-100659000D01*
G04 #@! TO.C,M1*
X158450000Y-114628000D02*
X158950000Y-114628000D01*
X158450000Y-113888000D02*
X158450000Y-114628000D01*
X165143000Y-110751000D02*
X165096000Y-110797000D01*
X167440000Y-108453000D02*
X167405000Y-108489000D01*
X165336000Y-110967000D02*
X165301000Y-111002000D01*
X167645000Y-108659000D02*
X167598000Y-108705000D01*
X168970000Y-104467000D02*
X168970000Y-114388000D01*
X158690000Y-104467000D02*
X158690000Y-114388000D01*
X158690000Y-114388000D02*
X168970000Y-114388000D01*
X158690000Y-104467000D02*
X168970000Y-104467000D01*
X158690000Y-107427000D02*
X168970000Y-107427000D01*
X158690000Y-112328000D02*
X168970000Y-112328000D01*
X158690000Y-113828000D02*
X168970000Y-113828000D01*
X168050000Y-109728000D02*
G75*
G03X168050000Y-109728000I-1680000J0D01*
G01*
X161318805Y-111408253D02*
G75*
G02X160606000Y-111263000I-28805J1680253D01*
G01*
X159754574Y-110411042D02*
G75*
G02X159755000Y-109044000I1535426J683042D01*
G01*
X160606958Y-108192574D02*
G75*
G02X161974000Y-108193000I683042J-1535426D01*
G01*
X162825426Y-109044958D02*
G75*
G02X162825000Y-110412000I-1535426J-683042D01*
G01*
X161973318Y-111262756D02*
G75*
G02X161290000Y-111408000I-683318J1534756D01*
G01*
G04 #@! TO.C,M2*
X126413318Y-111262756D02*
G75*
G02X125730000Y-111408000I-683318J1534756D01*
G01*
X127265426Y-109044958D02*
G75*
G02X127265000Y-110412000I-1535426J-683042D01*
G01*
X125046958Y-108192574D02*
G75*
G02X126414000Y-108193000I683042J-1535426D01*
G01*
X124194574Y-110411042D02*
G75*
G02X124195000Y-109044000I1535426J683042D01*
G01*
X125758805Y-111408253D02*
G75*
G02X125046000Y-111263000I-28805J1680253D01*
G01*
X132490000Y-109728000D02*
G75*
G03X132490000Y-109728000I-1680000J0D01*
G01*
X123130000Y-113828000D02*
X133410000Y-113828000D01*
X123130000Y-112328000D02*
X133410000Y-112328000D01*
X123130000Y-107427000D02*
X133410000Y-107427000D01*
X123130000Y-104467000D02*
X133410000Y-104467000D01*
X123130000Y-114388000D02*
X133410000Y-114388000D01*
X123130000Y-104467000D02*
X123130000Y-114388000D01*
X133410000Y-104467000D02*
X133410000Y-114388000D01*
X132085000Y-108659000D02*
X132038000Y-108705000D01*
X129776000Y-110967000D02*
X129741000Y-111002000D01*
X131880000Y-108453000D02*
X131845000Y-108489000D01*
X129583000Y-110751000D02*
X129536000Y-110797000D01*
X122890000Y-113888000D02*
X122890000Y-114628000D01*
X122890000Y-114628000D02*
X123390000Y-114628000D01*
G04 #@! TO.C,R1*
X153011000Y-86914000D02*
X152681000Y-86914000D01*
X152681000Y-86914000D02*
X152681000Y-80374000D01*
X152681000Y-80374000D02*
X153011000Y-80374000D01*
X155091000Y-86914000D02*
X155421000Y-86914000D01*
X155421000Y-86914000D02*
X155421000Y-80374000D01*
X155421000Y-80374000D02*
X155091000Y-80374000D01*
G04 #@! TO.C,L298*
X156270000Y-114475000D02*
X135830000Y-114475000D01*
X156270000Y-109234000D02*
X154594000Y-109234000D01*
X152745000Y-109234000D02*
X152054000Y-109234000D01*
X150205000Y-109234000D02*
X149514000Y-109234000D01*
X147665000Y-109234000D02*
X146974000Y-109234000D01*
X145125000Y-109234000D02*
X144434000Y-109234000D01*
X142585000Y-109234000D02*
X141894000Y-109234000D01*
X140045000Y-109234000D02*
X139354000Y-109234000D01*
X137505000Y-109234000D02*
X135830000Y-109234000D01*
X156270000Y-114475000D02*
X156270000Y-109234000D01*
X135830000Y-114475000D02*
X135830000Y-109234000D01*
X156270000Y-112635000D02*
X135830000Y-112635000D01*
X147899000Y-114475000D02*
X147899000Y-112635000D01*
X144200000Y-114475000D02*
X144200000Y-112635000D01*
X154940000Y-109234000D02*
X154940000Y-105825000D01*
X152400000Y-109234000D02*
X152400000Y-105840000D01*
X149860000Y-109234000D02*
X149860000Y-105840000D01*
X147320000Y-109234000D02*
X147320000Y-105840000D01*
X144780000Y-109234000D02*
X144780000Y-105840000D01*
X142240000Y-109234000D02*
X142240000Y-105840000D01*
X139700000Y-109234000D02*
X139700000Y-105840000D01*
X137160000Y-109234000D02*
X137160000Y-105840000D01*
G04 #@! TO.C,U1*
D12*
X129246380Y-84405904D02*
X130055904Y-84405904D01*
X130151142Y-84358285D01*
X130198761Y-84310666D01*
X130246380Y-84215428D01*
X130246380Y-84024952D01*
X130198761Y-83929714D01*
X130151142Y-83882095D01*
X130055904Y-83834476D01*
X129246380Y-83834476D01*
X130246380Y-82834476D02*
X130246380Y-83405904D01*
X130246380Y-83120190D02*
X129246380Y-83120190D01*
X129389238Y-83215428D01*
X129484476Y-83310666D01*
X129532095Y-83405904D01*
G04 #@! TO.C,C1*
X146010333Y-83796142D02*
X145962714Y-83843761D01*
X145819857Y-83891380D01*
X145724619Y-83891380D01*
X145581761Y-83843761D01*
X145486523Y-83748523D01*
X145438904Y-83653285D01*
X145391285Y-83462809D01*
X145391285Y-83319952D01*
X145438904Y-83129476D01*
X145486523Y-83034238D01*
X145581761Y-82939000D01*
X145724619Y-82891380D01*
X145819857Y-82891380D01*
X145962714Y-82939000D01*
X146010333Y-82986619D01*
X146962714Y-83891380D02*
X146391285Y-83891380D01*
X146677000Y-83891380D02*
X146677000Y-82891380D01*
X146581761Y-83034238D01*
X146486523Y-83129476D01*
X146391285Y-83177095D01*
G04 #@! TO.C,C2*
X146010333Y-77573142D02*
X145962714Y-77620761D01*
X145819857Y-77668380D01*
X145724619Y-77668380D01*
X145581761Y-77620761D01*
X145486523Y-77525523D01*
X145438904Y-77430285D01*
X145391285Y-77239809D01*
X145391285Y-77096952D01*
X145438904Y-76906476D01*
X145486523Y-76811238D01*
X145581761Y-76716000D01*
X145724619Y-76668380D01*
X145819857Y-76668380D01*
X145962714Y-76716000D01*
X146010333Y-76763619D01*
X146391285Y-76763619D02*
X146438904Y-76716000D01*
X146534142Y-76668380D01*
X146772238Y-76668380D01*
X146867476Y-76716000D01*
X146915095Y-76763619D01*
X146962714Y-76858857D01*
X146962714Y-76954095D01*
X146915095Y-77096952D01*
X146343666Y-77668380D01*
X146962714Y-77668380D01*
G04 #@! TO.C,C3*
X129607333Y-98691142D02*
X129559714Y-98738761D01*
X129416857Y-98786380D01*
X129321619Y-98786380D01*
X129178761Y-98738761D01*
X129083523Y-98643523D01*
X129035904Y-98548285D01*
X128988285Y-98357809D01*
X128988285Y-98214952D01*
X129035904Y-98024476D01*
X129083523Y-97929238D01*
X129178761Y-97834000D01*
X129321619Y-97786380D01*
X129416857Y-97786380D01*
X129559714Y-97834000D01*
X129607333Y-97881619D01*
X129940666Y-97786380D02*
X130559714Y-97786380D01*
X130226380Y-98167333D01*
X130369238Y-98167333D01*
X130464476Y-98214952D01*
X130512095Y-98262571D01*
X130559714Y-98357809D01*
X130559714Y-98595904D01*
X130512095Y-98691142D01*
X130464476Y-98738761D01*
X130369238Y-98786380D01*
X130083523Y-98786380D01*
X129988285Y-98738761D01*
X129940666Y-98691142D01*
G04 #@! TO.C,C4*
X129607333Y-91071142D02*
X129559714Y-91118761D01*
X129416857Y-91166380D01*
X129321619Y-91166380D01*
X129178761Y-91118761D01*
X129083523Y-91023523D01*
X129035904Y-90928285D01*
X128988285Y-90737809D01*
X128988285Y-90594952D01*
X129035904Y-90404476D01*
X129083523Y-90309238D01*
X129178761Y-90214000D01*
X129321619Y-90166380D01*
X129416857Y-90166380D01*
X129559714Y-90214000D01*
X129607333Y-90261619D01*
X130464476Y-90499714D02*
X130464476Y-91166380D01*
X130226380Y-90118761D02*
X129988285Y-90833047D01*
X130607333Y-90833047D01*
G04 #@! TO.C,D1*
X161567904Y-94266380D02*
X161567904Y-93266380D01*
X161806000Y-93266380D01*
X161948857Y-93314000D01*
X162044095Y-93409238D01*
X162091714Y-93504476D01*
X162139333Y-93694952D01*
X162139333Y-93837809D01*
X162091714Y-94028285D01*
X162044095Y-94123523D01*
X161948857Y-94218761D01*
X161806000Y-94266380D01*
X161567904Y-94266380D01*
X163091714Y-94266380D02*
X162520285Y-94266380D01*
X162806000Y-94266380D02*
X162806000Y-93266380D01*
X162710761Y-93409238D01*
X162615523Y-93504476D01*
X162520285Y-93552095D01*
G04 #@! TO.C,D2*
X135777380Y-97512095D02*
X134777380Y-97512095D01*
X134777380Y-97274000D01*
X134825000Y-97131142D01*
X134920238Y-97035904D01*
X135015476Y-96988285D01*
X135205952Y-96940666D01*
X135348809Y-96940666D01*
X135539285Y-96988285D01*
X135634523Y-97035904D01*
X135729761Y-97131142D01*
X135777380Y-97274000D01*
X135777380Y-97512095D01*
X134872619Y-96559714D02*
X134825000Y-96512095D01*
X134777380Y-96416857D01*
X134777380Y-96178761D01*
X134825000Y-96083523D01*
X134872619Y-96035904D01*
X134967857Y-95988285D01*
X135063095Y-95988285D01*
X135205952Y-96035904D01*
X135777380Y-96607333D01*
X135777380Y-95988285D01*
X136347380Y-100845904D02*
X135347380Y-100845904D01*
X136347380Y-100274476D02*
X135775952Y-100703047D01*
X135347380Y-100274476D02*
X135918809Y-100845904D01*
G04 #@! TO.C,D3*
X139079380Y-97512095D02*
X138079380Y-97512095D01*
X138079380Y-97274000D01*
X138127000Y-97131142D01*
X138222238Y-97035904D01*
X138317476Y-96988285D01*
X138507952Y-96940666D01*
X138650809Y-96940666D01*
X138841285Y-96988285D01*
X138936523Y-97035904D01*
X139031761Y-97131142D01*
X139079380Y-97274000D01*
X139079380Y-97512095D01*
X138079380Y-96607333D02*
X138079380Y-95988285D01*
X138460333Y-96321619D01*
X138460333Y-96178761D01*
X138507952Y-96083523D01*
X138555571Y-96035904D01*
X138650809Y-95988285D01*
X138888904Y-95988285D01*
X138984142Y-96035904D01*
X139031761Y-96083523D01*
X139079380Y-96178761D01*
X139079380Y-96464476D01*
X139031761Y-96559714D01*
X138984142Y-96607333D01*
X139649380Y-100845904D02*
X138649380Y-100845904D01*
X139649380Y-100274476D02*
X139077952Y-100703047D01*
X138649380Y-100274476D02*
X139220809Y-100845904D01*
G04 #@! TO.C,D4*
X155589380Y-97512095D02*
X154589380Y-97512095D01*
X154589380Y-97274000D01*
X154637000Y-97131142D01*
X154732238Y-97035904D01*
X154827476Y-96988285D01*
X155017952Y-96940666D01*
X155160809Y-96940666D01*
X155351285Y-96988285D01*
X155446523Y-97035904D01*
X155541761Y-97131142D01*
X155589380Y-97274000D01*
X155589380Y-97512095D01*
X154922714Y-96083523D02*
X155589380Y-96083523D01*
X154541761Y-96321619D02*
X155256047Y-96559714D01*
X155256047Y-95940666D01*
X156159380Y-100845904D02*
X155159380Y-100845904D01*
X156159380Y-100274476D02*
X155587952Y-100703047D01*
X155159380Y-100274476D02*
X155730809Y-100845904D01*
G04 #@! TO.C,D5*
X142381380Y-97512095D02*
X141381380Y-97512095D01*
X141381380Y-97274000D01*
X141429000Y-97131142D01*
X141524238Y-97035904D01*
X141619476Y-96988285D01*
X141809952Y-96940666D01*
X141952809Y-96940666D01*
X142143285Y-96988285D01*
X142238523Y-97035904D01*
X142333761Y-97131142D01*
X142381380Y-97274000D01*
X142381380Y-97512095D01*
X141381380Y-96035904D02*
X141381380Y-96512095D01*
X141857571Y-96559714D01*
X141809952Y-96512095D01*
X141762333Y-96416857D01*
X141762333Y-96178761D01*
X141809952Y-96083523D01*
X141857571Y-96035904D01*
X141952809Y-95988285D01*
X142190904Y-95988285D01*
X142286142Y-96035904D01*
X142333761Y-96083523D01*
X142381380Y-96178761D01*
X142381380Y-96416857D01*
X142333761Y-96512095D01*
X142286142Y-96559714D01*
X142951380Y-100845904D02*
X141951380Y-100845904D01*
X142951380Y-100274476D02*
X142379952Y-100703047D01*
X141951380Y-100274476D02*
X142522809Y-100845904D01*
G04 #@! TO.C,D6*
X152287380Y-97512095D02*
X151287380Y-97512095D01*
X151287380Y-97274000D01*
X151335000Y-97131142D01*
X151430238Y-97035904D01*
X151525476Y-96988285D01*
X151715952Y-96940666D01*
X151858809Y-96940666D01*
X152049285Y-96988285D01*
X152144523Y-97035904D01*
X152239761Y-97131142D01*
X152287380Y-97274000D01*
X152287380Y-97512095D01*
X151287380Y-96083523D02*
X151287380Y-96274000D01*
X151335000Y-96369238D01*
X151382619Y-96416857D01*
X151525476Y-96512095D01*
X151715952Y-96559714D01*
X152096904Y-96559714D01*
X152192142Y-96512095D01*
X152239761Y-96464476D01*
X152287380Y-96369238D01*
X152287380Y-96178761D01*
X152239761Y-96083523D01*
X152192142Y-96035904D01*
X152096904Y-95988285D01*
X151858809Y-95988285D01*
X151763571Y-96035904D01*
X151715952Y-96083523D01*
X151668333Y-96178761D01*
X151668333Y-96369238D01*
X151715952Y-96464476D01*
X151763571Y-96512095D01*
X151858809Y-96559714D01*
X152857380Y-100845904D02*
X151857380Y-100845904D01*
X152857380Y-100274476D02*
X152285952Y-100703047D01*
X151857380Y-100274476D02*
X152428809Y-100845904D01*
G04 #@! TO.C,D7*
X145683380Y-97512095D02*
X144683380Y-97512095D01*
X144683380Y-97274000D01*
X144731000Y-97131142D01*
X144826238Y-97035904D01*
X144921476Y-96988285D01*
X145111952Y-96940666D01*
X145254809Y-96940666D01*
X145445285Y-96988285D01*
X145540523Y-97035904D01*
X145635761Y-97131142D01*
X145683380Y-97274000D01*
X145683380Y-97512095D01*
X144683380Y-96607333D02*
X144683380Y-95940666D01*
X145683380Y-96369238D01*
X146253380Y-100845904D02*
X145253380Y-100845904D01*
X146253380Y-100274476D02*
X145681952Y-100703047D01*
X145253380Y-100274476D02*
X145824809Y-100845904D01*
G04 #@! TO.C,D8*
X132475380Y-97512095D02*
X131475380Y-97512095D01*
X131475380Y-97274000D01*
X131523000Y-97131142D01*
X131618238Y-97035904D01*
X131713476Y-96988285D01*
X131903952Y-96940666D01*
X132046809Y-96940666D01*
X132237285Y-96988285D01*
X132332523Y-97035904D01*
X132427761Y-97131142D01*
X132475380Y-97274000D01*
X132475380Y-97512095D01*
X131903952Y-96369238D02*
X131856333Y-96464476D01*
X131808714Y-96512095D01*
X131713476Y-96559714D01*
X131665857Y-96559714D01*
X131570619Y-96512095D01*
X131523000Y-96464476D01*
X131475380Y-96369238D01*
X131475380Y-96178761D01*
X131523000Y-96083523D01*
X131570619Y-96035904D01*
X131665857Y-95988285D01*
X131713476Y-95988285D01*
X131808714Y-96035904D01*
X131856333Y-96083523D01*
X131903952Y-96178761D01*
X131903952Y-96369238D01*
X131951571Y-96464476D01*
X131999190Y-96512095D01*
X132094428Y-96559714D01*
X132284904Y-96559714D01*
X132380142Y-96512095D01*
X132427761Y-96464476D01*
X132475380Y-96369238D01*
X132475380Y-96178761D01*
X132427761Y-96083523D01*
X132380142Y-96035904D01*
X132284904Y-95988285D01*
X132094428Y-95988285D01*
X131999190Y-96035904D01*
X131951571Y-96083523D01*
X131903952Y-96178761D01*
X133045380Y-100845904D02*
X132045380Y-100845904D01*
X133045380Y-100274476D02*
X132473952Y-100703047D01*
X132045380Y-100274476D02*
X132616809Y-100845904D01*
G04 #@! TO.C,D9*
X148915380Y-97512095D02*
X147915380Y-97512095D01*
X147915380Y-97274000D01*
X147963000Y-97131142D01*
X148058238Y-97035904D01*
X148153476Y-96988285D01*
X148343952Y-96940666D01*
X148486809Y-96940666D01*
X148677285Y-96988285D01*
X148772523Y-97035904D01*
X148867761Y-97131142D01*
X148915380Y-97274000D01*
X148915380Y-97512095D01*
X148915380Y-96464476D02*
X148915380Y-96274000D01*
X148867761Y-96178761D01*
X148820142Y-96131142D01*
X148677285Y-96035904D01*
X148486809Y-95988285D01*
X148105857Y-95988285D01*
X148010619Y-96035904D01*
X147963000Y-96083523D01*
X147915380Y-96178761D01*
X147915380Y-96369238D01*
X147963000Y-96464476D01*
X148010619Y-96512095D01*
X148105857Y-96559714D01*
X148343952Y-96559714D01*
X148439190Y-96512095D01*
X148486809Y-96464476D01*
X148534428Y-96369238D01*
X148534428Y-96178761D01*
X148486809Y-96083523D01*
X148439190Y-96035904D01*
X148343952Y-95988285D01*
X149555380Y-100845904D02*
X148555380Y-100845904D01*
X149555380Y-100274476D02*
X148983952Y-100703047D01*
X148555380Y-100274476D02*
X149126809Y-100845904D01*
G04 #@! TO.C,POWER*
X160885476Y-90368380D02*
X160885476Y-89368380D01*
X161266428Y-89368380D01*
X161361666Y-89416000D01*
X161409285Y-89463619D01*
X161456904Y-89558857D01*
X161456904Y-89701714D01*
X161409285Y-89796952D01*
X161361666Y-89844571D01*
X161266428Y-89892190D01*
X160885476Y-89892190D01*
X162075952Y-89368380D02*
X162266428Y-89368380D01*
X162361666Y-89416000D01*
X162456904Y-89511238D01*
X162504523Y-89701714D01*
X162504523Y-90035047D01*
X162456904Y-90225523D01*
X162361666Y-90320761D01*
X162266428Y-90368380D01*
X162075952Y-90368380D01*
X161980714Y-90320761D01*
X161885476Y-90225523D01*
X161837857Y-90035047D01*
X161837857Y-89701714D01*
X161885476Y-89511238D01*
X161980714Y-89416000D01*
X162075952Y-89368380D01*
X162837857Y-89368380D02*
X163075952Y-90368380D01*
X163266428Y-89654095D01*
X163456904Y-90368380D01*
X163695000Y-89368380D01*
X164075952Y-89844571D02*
X164409285Y-89844571D01*
X164552142Y-90368380D02*
X164075952Y-90368380D01*
X164075952Y-89368380D01*
X164552142Y-89368380D01*
X165552142Y-90368380D02*
X165218809Y-89892190D01*
X164980714Y-90368380D02*
X164980714Y-89368380D01*
X165361666Y-89368380D01*
X165456904Y-89416000D01*
X165504523Y-89463619D01*
X165552142Y-89558857D01*
X165552142Y-89701714D01*
X165504523Y-89796952D01*
X165456904Y-89844571D01*
X165361666Y-89892190D01*
X164980714Y-89892190D01*
G04 #@! TO.C,M1*
X166576476Y-92019380D02*
X166576476Y-91019380D01*
X166909809Y-91733666D01*
X167243142Y-91019380D01*
X167243142Y-92019380D01*
X168243142Y-92019380D02*
X167671714Y-92019380D01*
X167957428Y-92019380D02*
X167957428Y-91019380D01*
X167862190Y-91162238D01*
X167766952Y-91257476D01*
X167671714Y-91305095D01*
G04 #@! TO.C,M2*
X124158476Y-91892380D02*
X124158476Y-90892380D01*
X124491809Y-91606666D01*
X124825142Y-90892380D01*
X124825142Y-91892380D01*
X125253714Y-90987619D02*
X125301333Y-90940000D01*
X125396571Y-90892380D01*
X125634666Y-90892380D01*
X125729904Y-90940000D01*
X125777523Y-90987619D01*
X125825142Y-91082857D01*
X125825142Y-91178095D01*
X125777523Y-91320952D01*
X125206095Y-91892380D01*
X125825142Y-91892380D01*
G04 #@! TO.C,M1*
X163020476Y-116403380D02*
X163020476Y-115403380D01*
X163353809Y-116117666D01*
X163687142Y-115403380D01*
X163687142Y-116403380D01*
X164687142Y-116403380D02*
X164115714Y-116403380D01*
X164401428Y-116403380D02*
X164401428Y-115403380D01*
X164306190Y-115546238D01*
X164210952Y-115641476D01*
X164115714Y-115689095D01*
G04 #@! TO.C,M2*
X127460476Y-116403380D02*
X127460476Y-115403380D01*
X127793809Y-116117666D01*
X128127142Y-115403380D01*
X128127142Y-116403380D01*
X128555714Y-115498619D02*
X128603333Y-115451000D01*
X128698571Y-115403380D01*
X128936666Y-115403380D01*
X129031904Y-115451000D01*
X129079523Y-115498619D01*
X129127142Y-115593857D01*
X129127142Y-115689095D01*
X129079523Y-115831952D01*
X128508095Y-116403380D01*
X129127142Y-116403380D01*
G04 #@! TO.C,R1*
X152133380Y-83810666D02*
X151657190Y-84144000D01*
X152133380Y-84382095D02*
X151133380Y-84382095D01*
X151133380Y-84001142D01*
X151181000Y-83905904D01*
X151228619Y-83858285D01*
X151323857Y-83810666D01*
X151466714Y-83810666D01*
X151561952Y-83858285D01*
X151609571Y-83905904D01*
X151657190Y-84001142D01*
X151657190Y-84382095D01*
X152133380Y-82858285D02*
X152133380Y-83429714D01*
X152133380Y-83144000D02*
X151133380Y-83144000D01*
X151276238Y-83239238D01*
X151371476Y-83334476D01*
X151419095Y-83429714D01*
G04 #@! TO.C,L298*
X144930951Y-116403380D02*
X144454760Y-116403380D01*
X144454760Y-115403380D01*
X145216665Y-115498619D02*
X145264284Y-115451000D01*
X145359522Y-115403380D01*
X145597618Y-115403380D01*
X145692856Y-115451000D01*
X145740475Y-115498619D01*
X145788094Y-115593857D01*
X145788094Y-115689095D01*
X145740475Y-115831952D01*
X145169046Y-116403380D01*
X145788094Y-116403380D01*
X146264284Y-116403380D02*
X146454760Y-116403380D01*
X146549999Y-116355761D01*
X146597618Y-116308142D01*
X146692856Y-116165285D01*
X146740475Y-115974809D01*
X146740475Y-115593857D01*
X146692856Y-115498619D01*
X146645237Y-115451000D01*
X146549999Y-115403380D01*
X146359522Y-115403380D01*
X146264284Y-115451000D01*
X146216665Y-115498619D01*
X146169046Y-115593857D01*
X146169046Y-115831952D01*
X146216665Y-115927190D01*
X146264284Y-115974809D01*
X146359522Y-116022428D01*
X146549999Y-116022428D01*
X146645237Y-115974809D01*
X146692856Y-115927190D01*
X146740475Y-115831952D01*
X147311903Y-115831952D02*
X147216665Y-115784333D01*
X147169046Y-115736714D01*
X147121427Y-115641476D01*
X147121427Y-115593857D01*
X147169046Y-115498619D01*
X147216665Y-115451000D01*
X147311903Y-115403380D01*
X147502379Y-115403380D01*
X147597618Y-115451000D01*
X147645237Y-115498619D01*
X147692856Y-115593857D01*
X147692856Y-115641476D01*
X147645237Y-115736714D01*
X147597618Y-115784333D01*
X147502379Y-115831952D01*
X147311903Y-115831952D01*
X147216665Y-115879571D01*
X147169046Y-115927190D01*
X147121427Y-116022428D01*
X147121427Y-116212904D01*
X147169046Y-116308142D01*
X147216665Y-116355761D01*
X147311903Y-116403380D01*
X147502379Y-116403380D01*
X147597618Y-116355761D01*
X147645237Y-116308142D01*
X147692856Y-116212904D01*
X147692856Y-116022428D01*
X147645237Y-115927190D01*
X147597618Y-115879571D01*
X147502379Y-115831952D01*
G04 #@! TD*
M02*
