G04*
G04 #@! TF.GenerationSoftware,Altium Limited,Altium Designer,21.3.2 (30)*
G04*
G04 Layer_Color=8388736*
%FSLAX25Y25*%
%MOIN*%
G70*
G04*
G04 #@! TF.SameCoordinates,467638F3-B4FA-417D-9A7E-59FD0AE83611*
G04*
G04*
G04 #@! TF.FilePolarity,Negative*
G04*
G01*
G75*
%ADD16R,0.06312X0.18517*%
%ADD17C,0.05556*%
%ADD18C,0.10052*%
%ADD19R,0.05556X0.05556*%
%ADD20C,0.08280*%
%ADD21C,0.16548*%
%ADD22C,0.07099*%
%ADD23R,0.07099X0.07099*%
%ADD24C,0.06181*%
%ADD25R,0.06181X0.06181*%
%ADD26C,0.11811*%
%ADD27R,0.06181X0.06181*%
%ADD28R,0.14580X0.06706*%
%ADD29R,0.06706X0.14580*%
%ADD30R,0.06706X0.16548*%
%ADD31R,0.07099X0.07099*%
%ADD32C,0.12414*%
%ADD33C,0.09068*%
%ADD34C,0.06312*%
%ADD35R,0.06312X0.06312*%
%ADD36C,0.06902*%
%ADD37C,0.03300*%
%ADD38C,0.05800*%
%ADD39C,0.36233*%
G36*
X361614Y175984D02*
X339961D01*
Y187992D01*
X361614D01*
Y175984D01*
D02*
G37*
G36*
X358071Y191732D02*
X344685D01*
Y203740D01*
X358071D01*
Y191732D01*
D02*
G37*
G36*
X385039Y175984D02*
X371654D01*
Y187992D01*
X385039D01*
Y175984D01*
D02*
G37*
G36*
X389961Y192126D02*
X368307D01*
Y204134D01*
X389961D01*
Y192126D01*
D02*
G37*
G36*
X416732Y175984D02*
X395079D01*
Y187992D01*
X416732D01*
Y175984D01*
D02*
G37*
G36*
X413189Y191732D02*
X399803D01*
Y203740D01*
X413189D01*
Y191732D01*
D02*
G37*
G36*
X440158Y175984D02*
X426772D01*
Y187992D01*
X440158D01*
Y175984D01*
D02*
G37*
G36*
X445079Y192126D02*
X423425D01*
Y204134D01*
X445079D01*
Y192126D01*
D02*
G37*
D16*
X570866Y747441D02*
D03*
X590551D02*
D03*
X629921D02*
D03*
X649606D02*
D03*
X610236D02*
D03*
D17*
X516535Y558071D02*
D03*
Y583661D02*
D03*
X512598Y565945D02*
D03*
Y575787D02*
D03*
X508661Y558071D02*
D03*
X504724Y565945D02*
D03*
X508661Y583661D02*
D03*
X504724Y575787D02*
D03*
X500787Y558071D02*
D03*
X496850Y565945D02*
D03*
X500787Y583661D02*
D03*
X496850Y575787D02*
D03*
X492913Y558071D02*
D03*
X488976Y565945D02*
D03*
X492913Y583661D02*
D03*
X488976Y575787D02*
D03*
X485039Y558071D02*
D03*
X481102Y565945D02*
D03*
X485039Y583661D02*
D03*
X481102Y575787D02*
D03*
X477165Y558071D02*
D03*
Y583661D02*
D03*
X473228Y565945D02*
D03*
Y575787D02*
D03*
X469291Y558071D02*
D03*
X465354Y565945D02*
D03*
X469291Y583661D02*
D03*
X465354Y575787D02*
D03*
X461417Y558071D02*
D03*
X457480Y565945D02*
D03*
X461417Y583661D02*
D03*
X457480Y575787D02*
D03*
X453543Y558071D02*
D03*
X449606Y565945D02*
D03*
X453543Y583661D02*
D03*
X449606Y575787D02*
D03*
X445669Y558071D02*
D03*
X441732Y565945D02*
D03*
X445669Y583661D02*
D03*
X441732Y575787D02*
D03*
X437795Y558071D02*
D03*
Y583661D02*
D03*
X433858Y565945D02*
D03*
Y575787D02*
D03*
X429921Y558071D02*
D03*
X425984Y565945D02*
D03*
X429921Y583661D02*
D03*
X425984Y575787D02*
D03*
X422047Y558071D02*
D03*
X418110Y565945D02*
D03*
X422047Y583661D02*
D03*
X418110Y575787D02*
D03*
X414173Y558071D02*
D03*
X410236Y565945D02*
D03*
X414173Y583661D02*
D03*
X410236Y575787D02*
D03*
X406299Y558071D02*
D03*
X402362Y565945D02*
D03*
X406299Y583661D02*
D03*
X402362Y575787D02*
D03*
X398425Y558071D02*
D03*
Y583661D02*
D03*
X394488Y565945D02*
D03*
Y575787D02*
D03*
X390551Y558071D02*
D03*
X386614Y565945D02*
D03*
X390551Y583661D02*
D03*
X386614Y575787D02*
D03*
X382677Y558071D02*
D03*
X378740Y565945D02*
D03*
Y575787D02*
D03*
X374803Y558071D02*
D03*
X370866Y565945D02*
D03*
X374803Y583661D02*
D03*
X370866Y575787D02*
D03*
X366929Y558071D02*
D03*
X362992Y565945D02*
D03*
X366929Y583661D02*
D03*
X362992Y575787D02*
D03*
X359055Y558071D02*
D03*
Y583661D02*
D03*
X355118Y565945D02*
D03*
Y575787D02*
D03*
X351181Y558071D02*
D03*
X347244Y565945D02*
D03*
X351181Y583661D02*
D03*
X347244Y575787D02*
D03*
X343307Y558071D02*
D03*
X339370Y565945D02*
D03*
X343307Y583661D02*
D03*
X339370Y575787D02*
D03*
X335433Y558071D02*
D03*
X331496Y565945D02*
D03*
X335433Y583661D02*
D03*
X331496Y575787D02*
D03*
X327559Y558071D02*
D03*
X323622Y565945D02*
D03*
X327559Y583661D02*
D03*
X323622Y575787D02*
D03*
X319685Y558071D02*
D03*
Y583661D02*
D03*
X315748Y565945D02*
D03*
Y575787D02*
D03*
X311811Y558071D02*
D03*
X307874Y565945D02*
D03*
X311811Y583661D02*
D03*
X307874Y575787D02*
D03*
X303937Y558071D02*
D03*
X300000Y565945D02*
D03*
X303937Y583661D02*
D03*
X300000Y575787D02*
D03*
X296063Y558071D02*
D03*
X292126Y565945D02*
D03*
X296063Y583661D02*
D03*
X292126Y575787D02*
D03*
X288189Y558071D02*
D03*
X284252Y565945D02*
D03*
X288189Y583661D02*
D03*
X284252Y575787D02*
D03*
X280315Y558071D02*
D03*
Y583661D02*
D03*
X276378Y565945D02*
D03*
Y575787D02*
D03*
X272441Y558071D02*
D03*
X268504Y565945D02*
D03*
X272441Y583661D02*
D03*
X268504Y575787D02*
D03*
X264567Y558071D02*
D03*
X260630Y565945D02*
D03*
X264567Y583661D02*
D03*
X260630Y575787D02*
D03*
X256693Y558071D02*
D03*
X252756Y565945D02*
D03*
X256693Y583661D02*
D03*
X252756Y575787D02*
D03*
X248819Y558071D02*
D03*
X244882Y565945D02*
D03*
X248819Y583661D02*
D03*
X244882Y575787D02*
D03*
X240945Y558071D02*
D03*
Y583661D02*
D03*
X229134Y565945D02*
D03*
Y575787D02*
D03*
X225197Y558071D02*
D03*
X221260Y565945D02*
D03*
X225197Y583661D02*
D03*
X221260Y575787D02*
D03*
X217323Y558071D02*
D03*
X213386Y565945D02*
D03*
X217323Y583661D02*
D03*
X213386Y575787D02*
D03*
X209449Y558071D02*
D03*
X205512Y565945D02*
D03*
X209449Y583661D02*
D03*
X205512Y575787D02*
D03*
X201575Y558071D02*
D03*
X197638Y565945D02*
D03*
X201575Y583661D02*
D03*
X197638Y575787D02*
D03*
X193701Y558071D02*
D03*
X189764Y565945D02*
D03*
X193701Y583661D02*
D03*
X382677D02*
D03*
X516535Y105315D02*
D03*
Y130905D02*
D03*
X512598Y113189D02*
D03*
Y123031D02*
D03*
X508661Y105315D02*
D03*
X504724Y113189D02*
D03*
X508661Y130905D02*
D03*
X504724Y123031D02*
D03*
X500787Y105315D02*
D03*
X496850Y113189D02*
D03*
X500787Y130905D02*
D03*
X496850Y123031D02*
D03*
X492913Y105315D02*
D03*
X488976Y113189D02*
D03*
X492913Y130905D02*
D03*
X488976Y123031D02*
D03*
X485039Y105315D02*
D03*
X481102Y113189D02*
D03*
X485039Y130905D02*
D03*
X481102Y123031D02*
D03*
X477165Y105315D02*
D03*
Y130905D02*
D03*
X473228Y113189D02*
D03*
Y123031D02*
D03*
X469291Y105315D02*
D03*
X465354Y113189D02*
D03*
X469291Y130905D02*
D03*
X465354Y123031D02*
D03*
X461417Y105315D02*
D03*
X457480Y113189D02*
D03*
X461417Y130905D02*
D03*
X457480Y123031D02*
D03*
X453543Y105315D02*
D03*
X449606Y113189D02*
D03*
X453543Y130905D02*
D03*
X449606Y123031D02*
D03*
X445669Y105315D02*
D03*
X441732Y113189D02*
D03*
X445669Y130905D02*
D03*
X441732Y123031D02*
D03*
X437795Y105315D02*
D03*
Y130905D02*
D03*
X433858Y113189D02*
D03*
Y123031D02*
D03*
X429921Y105315D02*
D03*
X425984Y113189D02*
D03*
X429921Y130905D02*
D03*
X425984Y123031D02*
D03*
X422047Y105315D02*
D03*
X418110Y113189D02*
D03*
X422047Y130905D02*
D03*
X418110Y123031D02*
D03*
X414173Y105315D02*
D03*
X410236Y113189D02*
D03*
X414173Y130905D02*
D03*
X410236Y123031D02*
D03*
X406299Y105315D02*
D03*
X402362Y113189D02*
D03*
X406299Y130905D02*
D03*
X402362Y123031D02*
D03*
X398425Y105315D02*
D03*
Y130905D02*
D03*
X394488Y113189D02*
D03*
Y123031D02*
D03*
X390551Y105315D02*
D03*
X386614Y113189D02*
D03*
X390551Y130905D02*
D03*
X386614Y123031D02*
D03*
X382677Y105315D02*
D03*
X378740Y113189D02*
D03*
Y123031D02*
D03*
X374803Y105315D02*
D03*
X370866Y113189D02*
D03*
X374803Y130905D02*
D03*
X370866Y123031D02*
D03*
X366929Y105315D02*
D03*
X362992Y113189D02*
D03*
X366929Y130905D02*
D03*
X362992Y123031D02*
D03*
X359055Y105315D02*
D03*
Y130905D02*
D03*
X355118Y113189D02*
D03*
Y123031D02*
D03*
X351181Y105315D02*
D03*
X347244Y113189D02*
D03*
X351181Y130905D02*
D03*
X347244Y123031D02*
D03*
X343307Y105315D02*
D03*
X339370Y113189D02*
D03*
X343307Y130905D02*
D03*
X339370Y123031D02*
D03*
X335433Y105315D02*
D03*
X331496Y113189D02*
D03*
X335433Y130905D02*
D03*
X331496Y123031D02*
D03*
X327559Y105315D02*
D03*
X323622Y113189D02*
D03*
X327559Y130905D02*
D03*
X323622Y123031D02*
D03*
X319685Y105315D02*
D03*
Y130905D02*
D03*
X315748Y113189D02*
D03*
Y123031D02*
D03*
X311811Y105315D02*
D03*
X307874Y113189D02*
D03*
X311811Y130905D02*
D03*
X307874Y123031D02*
D03*
X303937Y105315D02*
D03*
X300000Y113189D02*
D03*
X303937Y130905D02*
D03*
X300000Y123031D02*
D03*
X296063Y105315D02*
D03*
X292126Y113189D02*
D03*
X296063Y130905D02*
D03*
X292126Y123031D02*
D03*
X288189Y105315D02*
D03*
X284252Y113189D02*
D03*
X288189Y130905D02*
D03*
X284252Y123031D02*
D03*
X280315Y105315D02*
D03*
Y130905D02*
D03*
X276378Y113189D02*
D03*
Y123031D02*
D03*
X272441Y105315D02*
D03*
X268504Y113189D02*
D03*
X272441Y130905D02*
D03*
X268504Y123031D02*
D03*
X264567Y105315D02*
D03*
X260630Y113189D02*
D03*
X264567Y130905D02*
D03*
X260630Y123031D02*
D03*
X256693Y105315D02*
D03*
X252756Y113189D02*
D03*
X256693Y130905D02*
D03*
X252756Y123031D02*
D03*
X248819Y105315D02*
D03*
X244882Y113189D02*
D03*
X248819Y130905D02*
D03*
X244882Y123031D02*
D03*
X240945Y105315D02*
D03*
Y130905D02*
D03*
X229134Y113189D02*
D03*
Y123031D02*
D03*
X225197Y105315D02*
D03*
X221260Y113189D02*
D03*
X225197Y130905D02*
D03*
X221260Y123031D02*
D03*
X217323Y105315D02*
D03*
X213386Y113189D02*
D03*
X217323Y130905D02*
D03*
X213386Y123031D02*
D03*
X209449Y105315D02*
D03*
X205512Y113189D02*
D03*
X209449Y130905D02*
D03*
X205512Y123031D02*
D03*
X201575Y105315D02*
D03*
X197638Y113189D02*
D03*
X201575Y130905D02*
D03*
X197638Y123031D02*
D03*
X193701Y105315D02*
D03*
X189764Y113189D02*
D03*
X193701Y130905D02*
D03*
X382677D02*
D03*
X516535Y676181D02*
D03*
Y701772D02*
D03*
X512598Y684055D02*
D03*
Y693898D02*
D03*
X508661Y676181D02*
D03*
X504724Y684055D02*
D03*
X508661Y701772D02*
D03*
X504724Y693898D02*
D03*
X500787Y676181D02*
D03*
X496850Y684055D02*
D03*
X500787Y701772D02*
D03*
X496850Y693898D02*
D03*
X492913Y676181D02*
D03*
X488976Y684055D02*
D03*
X492913Y701772D02*
D03*
X488976Y693898D02*
D03*
X485039Y676181D02*
D03*
X481102Y684055D02*
D03*
X485039Y701772D02*
D03*
X481102Y693898D02*
D03*
X477165Y676181D02*
D03*
Y701772D02*
D03*
X473228Y684055D02*
D03*
Y693898D02*
D03*
X469291Y676181D02*
D03*
X465354Y684055D02*
D03*
X469291Y701772D02*
D03*
X465354Y693898D02*
D03*
X461417Y676181D02*
D03*
X457480Y684055D02*
D03*
X461417Y701772D02*
D03*
X457480Y693898D02*
D03*
X453543Y676181D02*
D03*
X449606Y684055D02*
D03*
X453543Y701772D02*
D03*
X449606Y693898D02*
D03*
X445669Y676181D02*
D03*
X441732Y684055D02*
D03*
X445669Y701772D02*
D03*
X441732Y693898D02*
D03*
X437795Y676181D02*
D03*
Y701772D02*
D03*
X433858Y684055D02*
D03*
Y693898D02*
D03*
X429921Y676181D02*
D03*
X425984Y684055D02*
D03*
X429921Y701772D02*
D03*
X425984Y693898D02*
D03*
X422047Y676181D02*
D03*
X418110Y684055D02*
D03*
X422047Y701772D02*
D03*
X418110Y693898D02*
D03*
X414173Y676181D02*
D03*
X410236Y684055D02*
D03*
X414173Y701772D02*
D03*
X410236Y693898D02*
D03*
X406299Y676181D02*
D03*
X402362Y684055D02*
D03*
X406299Y701772D02*
D03*
X402362Y693898D02*
D03*
X398425Y676181D02*
D03*
Y701772D02*
D03*
X394488Y684055D02*
D03*
Y693898D02*
D03*
X390551Y676181D02*
D03*
X386614Y684055D02*
D03*
X390551Y701772D02*
D03*
X386614Y693898D02*
D03*
X382677Y676181D02*
D03*
X378740Y684055D02*
D03*
Y693898D02*
D03*
X374803Y676181D02*
D03*
X370866Y684055D02*
D03*
X374803Y701772D02*
D03*
X370866Y693898D02*
D03*
X366929Y676181D02*
D03*
X362992Y684055D02*
D03*
X366929Y701772D02*
D03*
X362992Y693898D02*
D03*
X359055Y676181D02*
D03*
Y701772D02*
D03*
X355118Y684055D02*
D03*
Y693898D02*
D03*
X351181Y676181D02*
D03*
X347244Y684055D02*
D03*
X351181Y701772D02*
D03*
X347244Y693898D02*
D03*
X343307Y676181D02*
D03*
X339370Y684055D02*
D03*
X343307Y701772D02*
D03*
X339370Y693898D02*
D03*
X335433Y676181D02*
D03*
X331496Y684055D02*
D03*
X335433Y701772D02*
D03*
X331496Y693898D02*
D03*
X327559Y676181D02*
D03*
X323622Y684055D02*
D03*
X327559Y701772D02*
D03*
X323622Y693898D02*
D03*
X319685Y676181D02*
D03*
Y701772D02*
D03*
X315748Y684055D02*
D03*
Y693898D02*
D03*
X311811Y676181D02*
D03*
X307874Y684055D02*
D03*
X311811Y701772D02*
D03*
X307874Y693898D02*
D03*
X303937Y676181D02*
D03*
X300000Y684055D02*
D03*
X303937Y701772D02*
D03*
X300000Y693898D02*
D03*
X296063Y676181D02*
D03*
X292126Y684055D02*
D03*
X296063Y701772D02*
D03*
X292126Y693898D02*
D03*
X288189Y676181D02*
D03*
X284252Y684055D02*
D03*
X288189Y701772D02*
D03*
X284252Y693898D02*
D03*
X280315Y676181D02*
D03*
Y701772D02*
D03*
X276378Y684055D02*
D03*
Y693898D02*
D03*
X272441Y676181D02*
D03*
X268504Y684055D02*
D03*
X272441Y701772D02*
D03*
X268504Y693898D02*
D03*
X264567Y676181D02*
D03*
X260630Y684055D02*
D03*
X264567Y701772D02*
D03*
X260630Y693898D02*
D03*
X256693Y676181D02*
D03*
X252756Y684055D02*
D03*
X256693Y701772D02*
D03*
X252756Y693898D02*
D03*
X248819Y676181D02*
D03*
X244882Y684055D02*
D03*
X248819Y701772D02*
D03*
X244882Y693898D02*
D03*
X240945Y676181D02*
D03*
Y701772D02*
D03*
X229134Y684055D02*
D03*
Y693898D02*
D03*
X225197Y676181D02*
D03*
X221260Y684055D02*
D03*
X225197Y701772D02*
D03*
X221260Y693898D02*
D03*
X217323Y676181D02*
D03*
X213386Y684055D02*
D03*
X217323Y701772D02*
D03*
X213386Y693898D02*
D03*
X209449Y676181D02*
D03*
X205512Y684055D02*
D03*
X209449Y701772D02*
D03*
X205512Y693898D02*
D03*
X201575Y676181D02*
D03*
X197638Y684055D02*
D03*
X201575Y701772D02*
D03*
X197638Y693898D02*
D03*
X193701Y676181D02*
D03*
X189764Y684055D02*
D03*
X193701Y701772D02*
D03*
X382677D02*
D03*
X516535Y380906D02*
D03*
Y406496D02*
D03*
X512598Y388779D02*
D03*
Y398622D02*
D03*
X508661Y380906D02*
D03*
X504724Y388779D02*
D03*
X508661Y406496D02*
D03*
X504724Y398622D02*
D03*
X500787Y380906D02*
D03*
X496850Y388779D02*
D03*
X500787Y406496D02*
D03*
X496850Y398622D02*
D03*
X492913Y380906D02*
D03*
X488976Y388779D02*
D03*
X492913Y406496D02*
D03*
X488976Y398622D02*
D03*
X485039Y380906D02*
D03*
X481102Y388779D02*
D03*
X485039Y406496D02*
D03*
X481102Y398622D02*
D03*
X477165Y380906D02*
D03*
Y406496D02*
D03*
X473228Y388779D02*
D03*
Y398622D02*
D03*
X469291Y380906D02*
D03*
X465354Y388779D02*
D03*
X469291Y406496D02*
D03*
X465354Y398622D02*
D03*
X461417Y380906D02*
D03*
X457480Y388779D02*
D03*
X461417Y406496D02*
D03*
X457480Y398622D02*
D03*
X453543Y380906D02*
D03*
X449606Y388779D02*
D03*
X453543Y406496D02*
D03*
X449606Y398622D02*
D03*
X445669Y380906D02*
D03*
X441732Y388779D02*
D03*
X445669Y406496D02*
D03*
X441732Y398622D02*
D03*
X437795Y380906D02*
D03*
Y406496D02*
D03*
X433858Y388779D02*
D03*
Y398622D02*
D03*
X429921Y380906D02*
D03*
X425984Y388779D02*
D03*
X429921Y406496D02*
D03*
X425984Y398622D02*
D03*
X422047Y380906D02*
D03*
X418110Y388779D02*
D03*
X422047Y406496D02*
D03*
X418110Y398622D02*
D03*
X414173Y380906D02*
D03*
X410236Y388779D02*
D03*
X414173Y406496D02*
D03*
X410236Y398622D02*
D03*
X406299Y380906D02*
D03*
X402362Y388779D02*
D03*
X406299Y406496D02*
D03*
X402362Y398622D02*
D03*
X398425Y380906D02*
D03*
Y406496D02*
D03*
X394488Y388779D02*
D03*
Y398622D02*
D03*
X390551Y380906D02*
D03*
X386614Y388779D02*
D03*
X390551Y406496D02*
D03*
X386614Y398622D02*
D03*
X382677Y380906D02*
D03*
X378740Y388779D02*
D03*
Y398622D02*
D03*
X374803Y380906D02*
D03*
X370866Y388779D02*
D03*
X374803Y406496D02*
D03*
X370866Y398622D02*
D03*
X366929Y380906D02*
D03*
X362992Y388779D02*
D03*
X366929Y406496D02*
D03*
X362992Y398622D02*
D03*
X359055Y380906D02*
D03*
Y406496D02*
D03*
X355118Y388779D02*
D03*
Y398622D02*
D03*
X351181Y380906D02*
D03*
X347244Y388779D02*
D03*
X351181Y406496D02*
D03*
X347244Y398622D02*
D03*
X343307Y380906D02*
D03*
X339370Y388779D02*
D03*
X343307Y406496D02*
D03*
X339370Y398622D02*
D03*
X335433Y380906D02*
D03*
X331496Y388779D02*
D03*
X335433Y406496D02*
D03*
X331496Y398622D02*
D03*
X327559Y380906D02*
D03*
X323622Y388779D02*
D03*
X327559Y406496D02*
D03*
X323622Y398622D02*
D03*
X319685Y380906D02*
D03*
Y406496D02*
D03*
X315748Y388779D02*
D03*
Y398622D02*
D03*
X311811Y380906D02*
D03*
X307874Y388779D02*
D03*
X311811Y406496D02*
D03*
X307874Y398622D02*
D03*
X303937Y380906D02*
D03*
X300000Y388779D02*
D03*
X303937Y406496D02*
D03*
X300000Y398622D02*
D03*
X296063Y380906D02*
D03*
X292126Y388779D02*
D03*
X296063Y406496D02*
D03*
X292126Y398622D02*
D03*
X288189Y380906D02*
D03*
X284252Y388779D02*
D03*
X288189Y406496D02*
D03*
X284252Y398622D02*
D03*
X280315Y380906D02*
D03*
Y406496D02*
D03*
X276378Y388779D02*
D03*
Y398622D02*
D03*
X272441Y380906D02*
D03*
X268504Y388779D02*
D03*
X272441Y406496D02*
D03*
X268504Y398622D02*
D03*
X264567Y380906D02*
D03*
X260630Y388779D02*
D03*
X264567Y406496D02*
D03*
X260630Y398622D02*
D03*
X256693Y380906D02*
D03*
X252756Y388779D02*
D03*
X256693Y406496D02*
D03*
X252756Y398622D02*
D03*
X248819Y380906D02*
D03*
X244882Y388779D02*
D03*
X248819Y406496D02*
D03*
X244882Y398622D02*
D03*
X240945Y380906D02*
D03*
Y406496D02*
D03*
X229134Y388779D02*
D03*
Y398622D02*
D03*
X225197Y380906D02*
D03*
X221260Y388779D02*
D03*
X225197Y406496D02*
D03*
X221260Y398622D02*
D03*
X217323Y380906D02*
D03*
X213386Y388779D02*
D03*
X217323Y406496D02*
D03*
X213386Y398622D02*
D03*
X209449Y380906D02*
D03*
X205512Y388779D02*
D03*
X209449Y406496D02*
D03*
X205512Y398622D02*
D03*
X201575Y380906D02*
D03*
X197638Y388779D02*
D03*
X201575Y406496D02*
D03*
X197638Y398622D02*
D03*
X193701Y380906D02*
D03*
X189764Y388779D02*
D03*
X193701Y406496D02*
D03*
X382677D02*
D03*
D18*
X523622Y570866D02*
D03*
X235630D02*
D03*
X523622Y118110D02*
D03*
X235630D02*
D03*
X523622Y688976D02*
D03*
X235630D02*
D03*
X523622Y393701D02*
D03*
X235630D02*
D03*
D19*
X189764Y575787D02*
D03*
Y123031D02*
D03*
Y693898D02*
D03*
Y398622D02*
D03*
D20*
X555905Y767717D02*
D03*
X664567D02*
D03*
D21*
X414764Y772795D02*
D03*
X372638Y773701D02*
D03*
X472441Y14606D02*
D03*
X413386D02*
D03*
X531496D02*
D03*
X14606Y629921D02*
D03*
X772795Y717913D02*
D03*
Y699409D02*
D03*
X14606D02*
D03*
Y717913D02*
D03*
Y493504D02*
D03*
X13701Y451378D02*
D03*
X772795Y87992D02*
D03*
Y69488D02*
D03*
X14606D02*
D03*
Y87992D02*
D03*
D22*
X375984Y743976D02*
D03*
Y755787D02*
D03*
X364173Y743976D02*
D03*
X423228D02*
D03*
Y755787D02*
D03*
X411417Y743976D02*
D03*
X399606D02*
D03*
X387795D02*
D03*
X411417Y755787D02*
D03*
X399606D02*
D03*
X387795D02*
D03*
X472441Y43425D02*
D03*
X413386D02*
D03*
X531496D02*
D03*
X43425Y629921D02*
D03*
X755787Y714567D02*
D03*
Y702756D02*
D03*
Y690945D02*
D03*
X743976Y726378D02*
D03*
Y714567D02*
D03*
Y702756D02*
D03*
Y690945D02*
D03*
X31614Y702756D02*
D03*
Y714567D02*
D03*
Y726378D02*
D03*
X43425Y690945D02*
D03*
Y702756D02*
D03*
Y714567D02*
D03*
Y726378D02*
D03*
Y454724D02*
D03*
X31614D02*
D03*
X43425Y442913D02*
D03*
Y501968D02*
D03*
X31614D02*
D03*
X43425Y490158D02*
D03*
Y478346D02*
D03*
Y466535D02*
D03*
X31614Y490158D02*
D03*
Y478346D02*
D03*
Y466535D02*
D03*
X755787Y84646D02*
D03*
Y72835D02*
D03*
Y61024D02*
D03*
X743976Y96457D02*
D03*
Y84646D02*
D03*
Y72835D02*
D03*
Y61024D02*
D03*
X31614Y72835D02*
D03*
Y84646D02*
D03*
Y96457D02*
D03*
X43425Y61024D02*
D03*
Y72835D02*
D03*
Y84646D02*
D03*
Y96457D02*
D03*
D23*
X364173Y755787D02*
D03*
X472441Y31614D02*
D03*
X413386D02*
D03*
X531496D02*
D03*
D24*
X584646Y47106D02*
D03*
X596457D02*
D03*
X584646Y35295D02*
D03*
X47106Y576772D02*
D03*
Y564961D02*
D03*
X35295Y576772D02*
D03*
X740295Y604331D02*
D03*
Y616142D02*
D03*
X752106Y604331D02*
D03*
X320866Y740295D02*
D03*
X309055D02*
D03*
X320866Y752106D02*
D03*
D25*
X596457Y35295D02*
D03*
X309055Y752106D02*
D03*
D26*
X590551Y18287D02*
D03*
X18287Y570866D02*
D03*
X769114Y610236D02*
D03*
X314961Y769114D02*
D03*
D27*
X35295Y564961D02*
D03*
X752106Y616142D02*
D03*
D28*
X748032Y569685D02*
D03*
X748032Y510630D02*
D03*
D29*
X759843Y551181D02*
D03*
X759842Y492126D02*
D03*
D30*
X736221Y551181D02*
D03*
X736221Y492126D02*
D03*
D31*
X31614Y629921D02*
D03*
X755787Y726378D02*
D03*
X31614Y690945D02*
D03*
Y442913D02*
D03*
X755787Y96457D02*
D03*
X31614Y61024D02*
D03*
D32*
X748031Y298091D02*
D03*
Y253091D02*
D03*
X748032Y455571D02*
D03*
Y410571D02*
D03*
X748031Y219350D02*
D03*
Y174350D02*
D03*
X748032Y376831D02*
D03*
Y331831D02*
D03*
D33*
X736024Y245098D02*
D03*
Y306083D02*
D03*
X736024Y402579D02*
D03*
Y463563D02*
D03*
X736024Y166358D02*
D03*
Y227343D02*
D03*
X736024Y323839D02*
D03*
Y384823D02*
D03*
D34*
X713031Y263090D02*
D03*
Y273091D02*
D03*
Y283090D02*
D03*
Y293091D02*
D03*
X723031Y288090D02*
D03*
Y278091D02*
D03*
Y268091D02*
D03*
X713031Y420571D02*
D03*
Y430571D02*
D03*
Y440571D02*
D03*
Y450571D02*
D03*
X723032Y445571D02*
D03*
Y435571D02*
D03*
Y425571D02*
D03*
X713031Y184350D02*
D03*
Y194350D02*
D03*
Y204350D02*
D03*
Y214350D02*
D03*
X723031Y209350D02*
D03*
Y199350D02*
D03*
Y189350D02*
D03*
X713031Y341831D02*
D03*
Y351831D02*
D03*
Y361831D02*
D03*
Y371831D02*
D03*
X723032Y366831D02*
D03*
Y356831D02*
D03*
Y346831D02*
D03*
D35*
X723031Y258090D02*
D03*
X723032Y415571D02*
D03*
X723031Y179350D02*
D03*
X723032Y336831D02*
D03*
D36*
X764016Y259508D02*
D03*
Y249508D02*
D03*
Y301673D02*
D03*
Y291673D02*
D03*
X764016Y416988D02*
D03*
Y406988D02*
D03*
Y459154D02*
D03*
Y449154D02*
D03*
X764016Y180768D02*
D03*
Y170768D02*
D03*
Y222933D02*
D03*
Y212933D02*
D03*
X764016Y338248D02*
D03*
Y328248D02*
D03*
Y380413D02*
D03*
Y370413D02*
D03*
D37*
X520079Y535236D02*
D03*
X533661Y540158D02*
D03*
X543430Y545201D02*
D03*
X278346Y244882D02*
D03*
X265551Y148228D02*
D03*
X236024Y126969D02*
D03*
X390354Y768898D02*
D03*
X283071Y653740D02*
D03*
X278937Y658465D02*
D03*
X239173Y635827D02*
D03*
X185827Y664370D02*
D03*
X237008Y385433D02*
D03*
X248819Y385630D02*
D03*
X269094Y367126D02*
D03*
X228937Y541732D02*
D03*
X400787Y529943D02*
D03*
X653937Y718110D02*
D03*
X662598Y463583D02*
D03*
X233858Y650197D02*
D03*
X448228Y661417D02*
D03*
X530512Y532480D02*
D03*
X524606Y531496D02*
D03*
X525591Y527559D02*
D03*
X522244Y538189D02*
D03*
X586614Y513779D02*
D03*
X583661Y511024D02*
D03*
X581102Y508268D02*
D03*
X578346Y505709D02*
D03*
X575591Y502953D02*
D03*
X572835Y500000D02*
D03*
X570079Y497244D02*
D03*
X567126Y494291D02*
D03*
X563976Y491142D02*
D03*
X243898Y240748D02*
D03*
X572835Y431102D02*
D03*
X576772Y429134D02*
D03*
X580709Y427165D02*
D03*
X584646Y425197D02*
D03*
X588583Y423228D02*
D03*
X592520Y421260D02*
D03*
X596457Y419291D02*
D03*
X604331Y415354D02*
D03*
X600394Y417323D02*
D03*
X537402Y543307D02*
D03*
X527559D02*
D03*
X438976Y541339D02*
D03*
Y545276D02*
D03*
Y549213D02*
D03*
Y537402D02*
D03*
Y533465D02*
D03*
Y529528D02*
D03*
Y525591D02*
D03*
Y521654D02*
D03*
Y517717D02*
D03*
X527362Y552362D02*
D03*
Y557283D02*
D03*
X403543Y526968D02*
D03*
X97441Y385827D02*
D03*
X97244Y391535D02*
D03*
X53937Y423425D02*
D03*
X60630Y423228D02*
D03*
X648819Y709449D02*
D03*
X448228Y665354D02*
D03*
X649016Y713976D02*
D03*
X448228Y669291D02*
D03*
X365158Y624409D02*
D03*
X361811Y628150D02*
D03*
X356890Y631299D02*
D03*
X150197Y662598D02*
D03*
X150394Y667323D02*
D03*
Y671654D02*
D03*
X448228Y657480D02*
D03*
X78150Y634842D02*
D03*
X73819D02*
D03*
X69882Y635039D02*
D03*
X65748D02*
D03*
X61811Y635236D02*
D03*
X58071D02*
D03*
X635827Y221260D02*
D03*
X638779Y212598D02*
D03*
X657677Y462598D02*
D03*
X650984Y461417D02*
D03*
X663583Y468504D02*
D03*
X319685Y212598D02*
D03*
X313976D02*
D03*
X308268Y212795D02*
D03*
X642126Y216339D02*
D03*
X186417Y347244D02*
D03*
X186614Y352165D02*
D03*
Y357283D02*
D03*
X385827Y777559D02*
D03*
X385630Y773228D02*
D03*
X266142Y370472D02*
D03*
X277362Y161614D02*
D03*
X300197Y164567D02*
D03*
X293701Y246850D02*
D03*
X303740Y247441D02*
D03*
X385827Y645669D02*
D03*
X448228Y653543D02*
D03*
X550197Y648228D02*
D03*
X545472D02*
D03*
Y617913D02*
D03*
X550197D02*
D03*
X545472Y586417D02*
D03*
X550197D02*
D03*
X382874Y642323D02*
D03*
X178543Y595472D02*
D03*
Y599803D02*
D03*
Y603937D02*
D03*
Y608465D02*
D03*
Y615354D02*
D03*
X248819Y245866D02*
D03*
X275590Y232677D02*
D03*
X252953Y242126D02*
D03*
X271260Y235827D02*
D03*
X229331Y547244D02*
D03*
X426575Y464173D02*
D03*
X430118Y468701D02*
D03*
X433858Y472244D02*
D03*
X437008Y475394D02*
D03*
X440158Y478346D02*
D03*
X444095Y481102D02*
D03*
X269685Y153543D02*
D03*
X260007Y145472D02*
D03*
X233661Y655709D02*
D03*
X231890Y676181D02*
D03*
X523622Y589961D02*
D03*
Y593504D02*
D03*
Y596850D02*
D03*
Y600197D02*
D03*
Y603740D02*
D03*
Y607283D02*
D03*
D38*
X573425Y698622D02*
D03*
X565354Y695079D02*
D03*
X393110Y663976D02*
D03*
X288386Y711024D02*
D03*
X525984Y613583D02*
D03*
X531102Y734646D02*
D03*
X573425Y625984D02*
D03*
X603740Y667717D02*
D03*
X676181Y288386D02*
D03*
X668307D02*
D03*
X660433D02*
D03*
X652559D02*
D03*
X676181Y296260D02*
D03*
X668307D02*
D03*
X660433D02*
D03*
X652559D02*
D03*
X676181Y304134D02*
D03*
X668307D02*
D03*
X660433D02*
D03*
X652559D02*
D03*
X676181Y312008D02*
D03*
X668307D02*
D03*
X660433D02*
D03*
X652559D02*
D03*
X626968Y252953D02*
D03*
X619095D02*
D03*
X611221D02*
D03*
X603346D02*
D03*
X626968Y260827D02*
D03*
X619095D02*
D03*
X611221D02*
D03*
X603346D02*
D03*
X626968Y268701D02*
D03*
X619095D02*
D03*
X611221D02*
D03*
X603346D02*
D03*
X626968Y276575D02*
D03*
X619095D02*
D03*
X611221D02*
D03*
X603346D02*
D03*
X92520Y280512D02*
D03*
X100394D02*
D03*
X108268D02*
D03*
X116142D02*
D03*
X124016D02*
D03*
X92520Y272638D02*
D03*
X100394D02*
D03*
X108268D02*
D03*
X116142D02*
D03*
X124016D02*
D03*
X92520Y264764D02*
D03*
X100394D02*
D03*
X108268D02*
D03*
X116142D02*
D03*
X124016D02*
D03*
X92520Y256890D02*
D03*
X100394D02*
D03*
X108268D02*
D03*
X116142D02*
D03*
X124016D02*
D03*
X62008Y306102D02*
D03*
X54134D02*
D03*
X46260D02*
D03*
X38386D02*
D03*
X30512D02*
D03*
X62008Y313976D02*
D03*
X54134D02*
D03*
X46260D02*
D03*
X38386D02*
D03*
X30512D02*
D03*
X62008Y321850D02*
D03*
X54134D02*
D03*
X46260D02*
D03*
X38386D02*
D03*
X30512D02*
D03*
X62008Y329724D02*
D03*
X54134D02*
D03*
X46260D02*
D03*
X38386D02*
D03*
X30512D02*
D03*
X62008Y523622D02*
D03*
X53937Y529134D02*
D03*
X47638Y539961D02*
D03*
X100394Y425984D02*
D03*
X84055Y419095D02*
D03*
X68307Y411811D02*
D03*
D39*
X688976Y31496D02*
D03*
X98425D02*
D03*
X688976Y759842D02*
D03*
X98425Y755905D02*
D03*
M02*
