M48
;Layer_Color=9474304
;FILE_FORMAT=2:4
INCH,TZ
;TYPE=PLATED
T1F00S00C0.0140
T2F00S00C0.0276
T3F00S00C0.0280
T4F00S00C0.0350
T6F00S00C0.0402
T7F00S00C0.0421
T8F00S00C0.0618
T9F00S00C0.1181
T10F00S00C0.2362
;TYPE=NON_PLATED
T11F00S00C0.0748
T12F00S00C0.0925
T13F00S00C0.1181
T14F00S00C0.1280
%
T01
X23602Y12697
X26001Y14547
X26555Y14823
X26969Y15354
X27736Y16161
X30020Y16457
X18642Y34724
X18661Y35217
Y35728
X26909Y36713
X27835Y24488
X27559Y23268
X27126Y23583
X25295Y24213
X24882Y24587
X24390Y24075
X29370Y24685
X30374Y24744
X30827Y21280
X31398Y21260
X31969
X63878
X64213Y21634
X63583Y22126
X60433Y41535
X60039Y41732
X59646Y41929
X59252Y42126
X58858Y42323
X58465Y42520
X58071Y42717
X57677Y42913
X57283Y43110
Y50000
X57008Y49724
X56713Y49429
X56398Y49114
X57559Y50295
X57835Y50571
X58110Y50827
X58366Y51102
X58661Y51378
X65098Y46142
X65768Y46260
X66260Y46358
X66358Y46850
X44409Y48110
X44016Y47835
X43701Y47539
X43386Y47224
X43012Y46870
X42657Y46417
X43898Y51772
Y52165
X26614Y37047
X24882Y38563
X23701Y38543
X9744Y38583
X9724Y39154
X6063Y42323
X5394Y42343
X5807Y63524
X6181
X6575Y63504
X6988
X7382Y63484
X7815
X15020Y66260
X15039Y66732
Y67165
X18583Y66437
X17854Y61535
Y60846
Y60394
Y59980
Y59547
X22933Y54724
X22894Y54173
X23917Y63583
X23386Y65020
X23366Y65571
X23189Y67618
X27894Y65846
X28307Y65374
X35689Y63130
X36181Y62815
X36516Y62441
X38287Y64232
X38583Y64567
X44823Y65354
Y65748
Y66142
Y66535
Y66929
X43898Y54921
Y54528
Y54134
Y53740
Y53346
Y52953
Y52559
X40354Y52697
X40079Y52994
X52008Y53524
X52224Y53819
X52461Y53150
X52362Y58996
Y59350
Y59685
Y60020
Y60374
Y60728
X54547Y61791
X55020
Y64823
X54547
Y58642
X55020
X54343Y54520
X53740Y54331
X53366Y54016
X52756Y54331
X52736Y55236
Y55728
X53051Y53248
X52559Y52756
X64882Y70945
X64902Y71398
X65394Y71811
X39035Y76890
X38563Y77323
X38583Y77756
T02
X37480Y10532
X38268
X39055
X39843
X40630
X41417
X42205
X42992
X43780
X44567
X45354
X46142
X46929
X47717
X48504
X49291
X50079
X50866
X51654
X51260Y11319
X50472
X49685
X48898
X48110
X47323
X46535
X45748
X44961
X44173
X43386
X42598
X41811
X41024
X40236
X39449
X38661
X37874
X37087
Y12303
X37874
X38661
X39449
X40236
X41024
X41811
X42598
X43386
X44173
X44961
X45748
X46535
X47323
X48110
X48898
X49685
X50472
X51260
X51654Y13091
X50866
X50079
X49291
X48504
X47717
X46929
X46142
X45354
X44567
X43780
X42992
X42205
X41417
X40630
X39843
X39055
X38268
X37480
X36693
X35906
X35118
X34331
X33543
X32756
X31969
X31181
X30394
X29606
X28819
X28031
X27244
X26457
X25669
X24882
X24094
X24488Y12303
X25276
X26063
X26850
X27638
X28425
X29213
X30000
X30787
X31575
X32362
X33150
X33937
X34724
X35512
X36299
Y11319
X35512
X34724
X33937
X33150
X32362
X31575
X30787
X30000
X29213
X28425
X27638
X26850
X26063
X25276
X24488
X24882Y10532
X25669
X26457
X27244
X28031
X28819
X29606
X30394
X31181
X31969
X32756
X33543
X34331
X35118
X35906
X36693
X24094
X22520
X21732
X22126Y11319
X21339
Y12303
X22126
X22913
Y11319
X22520Y13091
X21732
X20945
X20157
X19370
X19764Y12303
X20551
Y11319
X19764
X18976
Y12303
X19370Y10532
X20157
X20945
X37480Y38091
X38268
X39055
X39843
X40630
X41417
X42205
X42992
X43780
X44567
X45354
X46142
X46929
X47717
X48504
X49291
X50079
X50866
X51654
X51260Y38878
X50472
X49685
X48898
X48110
X47323
X46535
X45748
X44961
X44173
X43386
X42598
X41811
X41024
X40236
X39449
X38661
X37874
X37087
Y39862
X37874
X38661
X39449
X40236
X41024
X41811
X42598
X43386
X44173
X44961
X45748
X46535
X47323
X48110
X48898
X49685
X50472
X51260
X51654Y40650
X50866
X50079
X49291
X48504
X47717
X46929
X46142
X45354
X44567
X43780
X42992
X42205
X41417
X40630
X39843
X39055
X38268
X37480
X36693
X35906
X35118
X34331
X33543
X32756
X31969
X31181
X30394
X29606
X28819
X28031
X27244
X26457
X25669
X24882
X24094
X24488Y39862
X25276
X26063
X26850
X27638
X28425
X29213
X30000
X30787
X31575
X32362
X33150
X33937
X34724
X35512
X36299
Y38878
X35512
X34724
X33937
X33150
X32362
X31575
X30787
X30000
X29213
X28425
X27638
X26850
X26063
X25276
X24488
X24882Y38091
X25669
X26457
X27244
X28031
X28819
X29606
X30394
X31181
X31969
X32756
X33543
X34331
X35118
X35906
X36693
X24094
X22520
X21732
X22126Y38878
X21339
Y39862
X22126
X22913
Y38878
X22520Y40650
X21732
X20945
X20157
X19370
X19764Y39862
X20551
Y38878
X19764
X18976
Y39862
X19370Y38091
X20157
X20945
Y55807
X20157
X19370
X19764Y56594
X20551
Y57579
X19764
X18976
Y56594
X19370Y58366
X20157
X20945
Y67618
X20157
X19370
X21732
X22520
X24094
X24882
X25669
X26457
X27244
X28031
X28819
X29606
X30394
X31181
X31969
X32756
X33543
X34331
X35118
X35906
X36693
Y58366
X35906
X35118
X34331
X33543
X32756
X31969
X31181
X30394
X29606
X28819
X28031
X27244
X26457
X25669
X24882
X24094
X24488Y57579
X25276
X26063
X26850
X27638
X28425
X29213
X30000
X30787
X31575
X32362
X33150
X33937
X34724
X35512
X36299
Y56594
X35512
X34724
X33937
X33150
X32362
X31575
X30787
X30000
X29213
X28425
X27638
X26850
X26063
X25276
X24488
X24882Y55807
X25669
X26457
X27244
X28031
X28819
X29606
X30394
X31181
X31969
X32756
X33543
X34331
X35118
X35906
X36693
X24094
X22520
X21732
X22126Y56594
X21339
Y57579
X22126
X22913
Y56594
X22520Y58366
X21732
X37480
X38268
X39055
X39843
X40630
X41417
X42205
X42992
X43780
X44567
X45354
X46142
X46929
X47717
X48504
X49291
X50079
X50866
X51654
X51260Y57579
X50472
X49685
X48898
X48110
X47323
X46535
X45748
X44961
X44173
X43386
X42598
X41811
X41024
X40236
X39449
X38661
X37874
X37087
Y56594
X37874
X38661
X39449
X40236
X41024
X41811
X42598
X43386
X44173
X44961
X45748
X46535
X47323
X48110
X48898
X49685
X50472
X51260
X51654Y55807
X50866
X50079
X49291
X48504
X47717
X46929
X46142
X45354
X44567
X43780
X42992
X42205
X41417
X40630
X39843
X39055
X38268
X37480
Y67618
X38268
X39055
X39843
X40630
X41417
X42205
X42992
X43780
X44567
X45354
X46142
X46929
X47717
X48504
X49291
X50079
X50866
X51654
X51260Y68406
X50472
X49685
X48898
X48110
X47323
X46535
X45748
X44961
X44173
X43386
X42598
X41811
X41024
X40236
X39449
X38661
X37874
X37087
Y69390
X37874
X38661
X39449
X40236
X41024
X41811
X42598
X43386
X44173
X44961
X45748
X46535
X47323
X48110
X48898
X49685
X50472
X51260
X51654Y70177
X50866
X50079
X49291
X48504
X47717
X46929
X46142
X45354
X44567
X43780
X42992
X42205
X41417
X40630
X39843
X39055
X38268
X37480
X36693
X35906
X35118
X34331
X33543
X32756
X31969
X31181
X30394
X29606
X28819
X28031
X27244
X26457
X25669
X24882
X24094
X24488Y69390
X25276
X26063
X26850
X27638
X28425
X29213
X30000
X30787
X31575
X32362
X33150
X33937
X34724
X35512
X36299
Y68406
X35512
X34724
X33937
X33150
X32362
X31575
X30787
X30000
X29213
X28425
X27638
X26850
X26063
X25276
X24488
X22913
X22126
X21339
Y69390
X22126
X22913
X22520Y70177
X21732
X20945
X20157
X19370
X19764Y69390
X20551
Y68406
X19764
X18976
Y69390
T03
X3051Y30610
X3839
X4626
X5413
Y31398
X4626
X3839
X3051
Y32185
X3839
X4626
X5413
Y32972
X4626
X3839
X3051
X6201
Y32185
Y31398
Y30610
X9252Y28051
X10039
X10827
X11614
X12402
Y27264
X11614
X10827
X10039
X9252
Y26476
X10039
X10827
X11614
X12402
Y25689
X11614
X10827
X10039
X9252
X60335Y26083
Y25295
X61122
X61909
X62697
Y26083
X61909
X61122
Y26870
X61909
X62697
Y27657
X61909
X61122
X60335
Y26870
X65256Y28839
X66043
X66831
X67618
Y29626
X66831
X66043
X65256
Y30413
X66043
X66831
X67618
Y31201
X66831
X66043
X65256
X10039Y42598
X8406Y41909
X6831Y41181
X6201Y52362
X5394Y52913
X4764Y53996
X39311Y66398
X52598Y61358
X57343Y62598
X60374Y66772
X57343Y69862
X56535Y69508
X53110Y73465
X28839Y71102
T04
X71303Y18435
Y19435
Y20435
X72303Y20935
Y19935
Y18935
Y17935
X71303Y21435
X71303Y26309
Y27309
Y28309
Y29309
X72303Y28809
Y27809
Y26809
Y25809
X72303Y33683
Y34683
Y35683
Y36683
X71303Y36183
Y35183
Y34183
Y37183
X71303Y42057
Y43057
Y44057
Y45057
X72303Y44557
Y43557
Y42557
Y41557
T06
X58465Y3530
Y4711
X59646
Y3530
X76402Y17077
Y18077
Y21293
Y22293
X76402Y24951
Y25951
Y29167
Y30167
X76402Y32825
Y33825
Y37041
Y38041
X76402Y40699
Y41699
Y44915
Y45915
X4711Y56496
Y57677
X3530
Y56496
X74030Y60433
Y61614
X75211
Y60433
X32087Y74030
X30906
Y75211
X32087
T07
X41339Y3161
Y4343
X47244
Y3161
X53150
Y4343
X74398Y6102
X75579
Y7283
X74398
Y8465
X75579
Y9646
X74398
X4343Y9646
X3161
Y8465
X4343
Y7283
X3161
Y6102
X4343
Y44291
Y45472
X3161
Y44291
Y46654
X4343
Y47835
Y49016
X3161
Y47835
Y50197
X4343
Y62992
X3161
X74398Y69094
X75579
Y70276
X74398
Y71457
X75579
Y72638
X74398
X42323Y74398
Y75579
X41142
Y74398
X39961
Y75579
X38780
Y74398
X37598
Y75579
X36417
Y74398
X4343Y72638
X3161
Y71457
X4343
Y70276
X3161
Y69094
X4343
T08
X73602Y16636
Y22734
X73602Y24510
Y30608
X73602Y32384
Y38482
X73602Y40258
Y46356
T09
X41339Y1461
X47244
X53150
X77280Y6949
Y8799
X1461
Y6949
X1370Y45138
X1461Y49350
Y62992
X77280Y69941
Y71791
X41476Y77280
X37264Y77370
X1461Y71791
Y69941
T10
X9843Y3150
X68898
Y75984
X9843Y75591
T11
X55591Y76772
X66457
T12
X52362Y11811
X23563
X52362Y39370
X23563
Y57087
X52362
Y68898
X23563
T13
X59055Y1829
X1829Y57087
X76911Y61024
X31496Y76911
T14
X74803Y17435
Y21935
X74803Y25309
Y29809
X74803Y33183
Y37683
X74803Y41057
Y45557
M30
