G04*
G04 #@! TF.GenerationSoftware,Altium Limited,Altium Designer,21.3.2 (30)*
G04*
G04 Layer_Color=65535*
%FSLAX25Y25*%
%MOIN*%
G70*
G04*
G04 #@! TF.SameCoordinates,467638F3-B4FA-417D-9A7E-59FD0AE83611*
G04*
G04*
G04 #@! TF.FilePolarity,Positive*
G04*
G01*
G75*
%ADD10C,0.00787*%
%ADD11C,0.03150*%
%ADD12C,0.00984*%
%ADD13C,0.03937*%
%ADD14C,0.01000*%
G36*
X642570Y687215D02*
X642668D01*
X642783Y687182D01*
X643062Y687133D01*
X643373Y687034D01*
X643734Y686887D01*
X643931Y686805D01*
X644128Y686690D01*
X644325Y686575D01*
X644522Y686427D01*
X644718Y686280D01*
X644915Y686099D01*
X645112Y685886D01*
X645309Y685673D01*
X645489Y685427D01*
X645670Y685148D01*
X645833Y684853D01*
X645981Y684542D01*
X646129Y684181D01*
X646260Y683804D01*
X646375Y683393D01*
X646473Y682951D01*
X646555Y682475D01*
X646604Y681967D01*
X646637Y681409D01*
X646654Y680835D01*
Y674455D01*
X644522D01*
Y681015D01*
X644505Y681114D01*
Y681229D01*
X644489Y681507D01*
X644456Y681819D01*
X644407Y682180D01*
X644341Y682574D01*
X644259Y682967D01*
X644144Y683361D01*
X643997Y683754D01*
X643833Y684115D01*
X643619Y684427D01*
X643373Y684705D01*
X643242Y684820D01*
X643095Y684919D01*
X642931Y685001D01*
X642767Y685050D01*
X642586Y685083D01*
X642389Y685099D01*
X642373D01*
X642291D01*
X642193Y685066D01*
X642062Y685034D01*
X641897Y684968D01*
X641717Y684869D01*
X641520Y684738D01*
X641324Y684574D01*
X641127Y684345D01*
X640930Y684066D01*
X640832Y683902D01*
X640750Y683721D01*
X640667Y683508D01*
X640586Y683295D01*
X640520Y683066D01*
X640454Y682820D01*
X640389Y682541D01*
X640356Y682245D01*
X640307Y681934D01*
X640274Y681590D01*
X640258Y681229D01*
Y674455D01*
X638142D01*
X638126D01*
X638093D01*
X638043D01*
X637961Y674472D01*
X637863Y674488D01*
X637748Y674505D01*
X637469Y674554D01*
X637158Y674652D01*
X636797Y674800D01*
X636404Y674997D01*
X636207Y675111D01*
X636010Y675259D01*
X635813Y675407D01*
X635616Y675587D01*
X635420Y675784D01*
X635223Y676014D01*
X635042Y676260D01*
X634862Y676522D01*
X634698Y676817D01*
X634550Y677145D01*
X634403Y677506D01*
X634271Y677883D01*
X634157Y678293D01*
X634058Y678736D01*
X633976Y679212D01*
X633927Y679720D01*
X633894Y680261D01*
X633878Y680835D01*
Y687231D01*
X636010D01*
Y680556D01*
X636026Y680442D01*
X636043Y680179D01*
X636075Y679851D01*
X636125Y679490D01*
X636190Y679113D01*
X636272Y678720D01*
X636387Y678309D01*
X636518Y677932D01*
X636699Y677571D01*
X636896Y677260D01*
X637142Y676981D01*
X637273Y676866D01*
X637420Y676768D01*
X637584Y676686D01*
X637748Y676637D01*
X637929Y676604D01*
X638126Y676587D01*
Y681114D01*
X638142Y681261D01*
X638158Y681426D01*
X638175Y681622D01*
X638191Y681836D01*
X638224Y682065D01*
X638257Y682311D01*
X638355Y682852D01*
X638486Y683443D01*
X638650Y684033D01*
X638880Y684623D01*
X639159Y685214D01*
X639323Y685476D01*
X639503Y685755D01*
X639716Y686001D01*
X639929Y686231D01*
X640159Y686444D01*
X640405Y686641D01*
X640684Y686805D01*
X640979Y686952D01*
X641291Y687067D01*
X641635Y687165D01*
X641996Y687215D01*
X642389Y687231D01*
X642406D01*
X642439D01*
X642488D01*
X642570Y687215D01*
D02*
G37*
G36*
X646654Y665764D02*
X646637Y665649D01*
X646621Y665518D01*
X646604Y665337D01*
X646588Y665140D01*
X646555Y664927D01*
X646506Y664698D01*
X646457Y664452D01*
X646309Y663910D01*
X646112Y663336D01*
X645997Y663041D01*
X645850Y662746D01*
X645702Y662434D01*
X645522Y662139D01*
X645325Y661844D01*
X645095Y661565D01*
X644849Y661286D01*
X644587Y661024D01*
X644292Y660778D01*
X643964Y660548D01*
X643603Y660335D01*
X643226Y660138D01*
X642816Y659974D01*
X642373Y659827D01*
X641897Y659712D01*
X641389Y659614D01*
X640848Y659564D01*
X640274Y659548D01*
X640258D01*
X640208D01*
X640110D01*
X639995Y659564D01*
X639848Y659581D01*
X639683Y659597D01*
X639487Y659614D01*
X639274Y659646D01*
X639044Y659695D01*
X638798Y659745D01*
X638257Y659892D01*
X637666Y660089D01*
X637371Y660204D01*
X637076Y660352D01*
X636781Y660499D01*
X636485Y660679D01*
X636190Y660876D01*
X635895Y661106D01*
X635633Y661352D01*
X635354Y661614D01*
X635108Y661909D01*
X634878Y662238D01*
X634665Y662598D01*
X634468Y662976D01*
X634304Y663385D01*
X634157Y663828D01*
X634042Y664304D01*
X633944Y664812D01*
X633894Y665353D01*
X633878Y665928D01*
Y672324D01*
X636010D01*
Y665747D01*
X636026Y665649D01*
X636043Y665534D01*
X636075Y665272D01*
X636141Y664944D01*
X636239Y664583D01*
X636371Y664206D01*
X636535Y663812D01*
X636764Y663402D01*
X637043Y663025D01*
X637207Y662844D01*
X637388Y662664D01*
X637601Y662500D01*
X637814Y662352D01*
X638043Y662205D01*
X638289Y662074D01*
X638568Y661959D01*
X638864Y661860D01*
X639175Y661778D01*
X639520Y661729D01*
X639880Y661696D01*
X640274Y661680D01*
X640290D01*
X640323D01*
X640372D01*
X640454Y661696D01*
X640553D01*
X640667Y661713D01*
X640930Y661746D01*
X641258Y661811D01*
X641619Y661909D01*
X641996Y662041D01*
X642389Y662205D01*
X642800Y662434D01*
X643177Y662713D01*
X643357Y662877D01*
X643538Y663058D01*
X643702Y663254D01*
X643849Y663468D01*
X643997Y663714D01*
X644128Y663960D01*
X644243Y664238D01*
X644341Y664534D01*
X644423Y664845D01*
X644472Y665173D01*
X644505Y665534D01*
X644522Y665928D01*
Y672324D01*
X646654D01*
Y665764D01*
D02*
G37*
G36*
Y655284D02*
X633878D01*
Y657416D01*
X646654D01*
Y655284D01*
D02*
G37*
G36*
X636010Y647297D02*
X646654D01*
Y645165D01*
X636010D01*
Y639835D01*
X633878D01*
Y653152D01*
X636010D01*
Y647297D01*
D02*
G37*
G36*
X640553Y637687D02*
X640684D01*
X640864Y637654D01*
X641061Y637638D01*
X641274Y637605D01*
X641504Y637556D01*
X641750Y637506D01*
X642291Y637359D01*
X642570Y637277D01*
X642865Y637162D01*
X643160Y637047D01*
X643456Y636900D01*
X643767Y636752D01*
X644062Y636572D01*
X644357Y636358D01*
X644636Y636145D01*
X644915Y635899D01*
X645178Y635620D01*
X645424Y635325D01*
X645653Y635013D01*
X645866Y634653D01*
X646063Y634275D01*
X646227Y633865D01*
X646375Y633423D01*
X646489Y632947D01*
X646588Y632439D01*
X646637Y631881D01*
X646654Y631307D01*
Y631143D01*
X646637Y631028D01*
X646621Y630897D01*
X646604Y630717D01*
X646588Y630520D01*
X646555Y630307D01*
X646506Y630077D01*
X646457Y629831D01*
X646309Y629290D01*
X646112Y628716D01*
X645997Y628421D01*
X645850Y628125D01*
X645702Y627814D01*
X645522Y627519D01*
X645325Y627223D01*
X645095Y626945D01*
X644849Y626666D01*
X644587Y626404D01*
X644292Y626158D01*
X643964Y625928D01*
X643603Y625715D01*
X643226Y625518D01*
X642816Y625354D01*
X642373Y625206D01*
X641897Y625092D01*
X641389Y624993D01*
X640848Y624944D01*
X640274Y624928D01*
X640258D01*
X640208D01*
X640110D01*
X639995Y624944D01*
X639848Y624960D01*
X639683Y624977D01*
X639487Y624993D01*
X639274Y625026D01*
X639044Y625075D01*
X638798Y625124D01*
X638257Y625272D01*
X637666Y625469D01*
X637371Y625584D01*
X637076Y625731D01*
X636781Y625879D01*
X636485Y626059D01*
X636190Y626256D01*
X635895Y626485D01*
X635633Y626731D01*
X635354Y626994D01*
X635108Y627289D01*
X634878Y627617D01*
X634665Y627978D01*
X634468Y628355D01*
X634304Y628765D01*
X634157Y629208D01*
X634042Y629683D01*
X633944Y630192D01*
X633894Y630733D01*
X633878Y631307D01*
Y631471D01*
X633894Y631586D01*
Y631734D01*
X633927Y631897D01*
X633944Y632094D01*
X633976Y632307D01*
X634025Y632537D01*
X634075Y632783D01*
X634222Y633324D01*
X634304Y633619D01*
X634419Y633915D01*
X634534Y634210D01*
X634682Y634505D01*
X634829Y634800D01*
X635009Y635096D01*
X635223Y635391D01*
X635436Y635686D01*
X635682Y635948D01*
X635961Y636227D01*
X636256Y636473D01*
X636567Y636703D01*
X636928Y636916D01*
X637305Y637113D01*
X637715Y637277D01*
X638158Y637424D01*
X638634Y637539D01*
X639142Y637638D01*
X639700Y637687D01*
X640274Y637703D01*
X640290D01*
X640340D01*
X640438D01*
X640553Y637687D01*
D02*
G37*
G36*
X642570Y622779D02*
X642668D01*
X642783Y622746D01*
X643062Y622697D01*
X643373Y622599D01*
X643734Y622451D01*
X643931Y622369D01*
X644128Y622254D01*
X644325Y622140D01*
X644522Y621992D01*
X644718Y621844D01*
X644915Y621664D01*
X645112Y621451D01*
X645309Y621238D01*
X645489Y620992D01*
X645670Y620713D01*
X645833Y620417D01*
X645981Y620106D01*
X646129Y619745D01*
X646260Y619368D01*
X646375Y618958D01*
X646473Y618515D01*
X646555Y618040D01*
X646604Y617531D01*
X646637Y616973D01*
X646654Y616399D01*
Y610020D01*
X638142D01*
X638126D01*
X638093D01*
X638043D01*
X637961Y610036D01*
X637863Y610053D01*
X637748Y610069D01*
X637469Y610118D01*
X637158Y610217D01*
X636797Y610364D01*
X636404Y610561D01*
X636207Y610676D01*
X636010Y610823D01*
X635813Y610971D01*
X635616Y611152D01*
X635420Y611348D01*
X635223Y611578D01*
X635042Y611824D01*
X634862Y612086D01*
X634698Y612382D01*
X634550Y612710D01*
X634403Y613070D01*
X634271Y613448D01*
X634157Y613858D01*
X634058Y614300D01*
X633976Y614776D01*
X633927Y615284D01*
X633894Y615826D01*
X633878Y616399D01*
Y620663D01*
X636010D01*
Y616121D01*
X636026Y616006D01*
X636043Y615743D01*
X636075Y615415D01*
X636125Y615055D01*
X636190Y614677D01*
X636272Y614284D01*
X636387Y613874D01*
X636535Y613497D01*
X636699Y613136D01*
X636912Y612824D01*
X637158Y612545D01*
X637289Y612431D01*
X637437Y612332D01*
X637601Y612250D01*
X637765Y612201D01*
X637945Y612168D01*
X638142Y612152D01*
X644522D01*
Y616580D01*
X644505Y616678D01*
Y616793D01*
X644489Y617072D01*
X644456Y617383D01*
X644407Y617744D01*
X644341Y618138D01*
X644259Y618532D01*
X644144Y618925D01*
X643997Y619319D01*
X643833Y619679D01*
X643619Y619991D01*
X643373Y620270D01*
X643242Y620385D01*
X643095Y620483D01*
X642931Y620565D01*
X642767Y620614D01*
X642586Y620647D01*
X642389Y620663D01*
X642373D01*
X642291D01*
X642193Y620631D01*
X642062Y620598D01*
X641897Y620532D01*
X641717Y620434D01*
X641520Y620303D01*
X641324Y620139D01*
X641127Y619909D01*
X640930Y619630D01*
X640832Y619466D01*
X640750Y619286D01*
X640667Y619073D01*
X640586Y618859D01*
X640520Y618630D01*
X640454Y618384D01*
X640389Y618105D01*
X640356Y617810D01*
X640307Y617498D01*
X640274Y617154D01*
X640258Y616793D01*
Y614267D01*
X638126D01*
Y616678D01*
X638142Y616826D01*
X638158Y616990D01*
X638175Y617187D01*
X638191Y617400D01*
X638224Y617629D01*
X638257Y617875D01*
X638355Y618417D01*
X638486Y619007D01*
X638650Y619597D01*
X638880Y620188D01*
X639159Y620778D01*
X639323Y621041D01*
X639503Y621319D01*
X639716Y621565D01*
X639929Y621795D01*
X640159Y622008D01*
X640405Y622205D01*
X640684Y622369D01*
X640979Y622517D01*
X641291Y622632D01*
X641635Y622730D01*
X641996Y622779D01*
X642389Y622795D01*
X642406D01*
X642439D01*
X642488D01*
X642570Y622779D01*
D02*
G37*
G36*
X640553Y607871D02*
X640684D01*
X640864Y607839D01*
X641061Y607822D01*
X641274Y607790D01*
X641504Y607740D01*
X641750Y607691D01*
X642291Y607544D01*
X642570Y607462D01*
X642865Y607347D01*
X643160Y607232D01*
X643456Y607084D01*
X643767Y606937D01*
X644062Y606756D01*
X644357Y606543D01*
X644636Y606330D01*
X644915Y606084D01*
X645178Y605805D01*
X645424Y605510D01*
X645653Y605198D01*
X645866Y604838D01*
X646063Y604460D01*
X646227Y604050D01*
X646375Y603608D01*
X646489Y603132D01*
X646588Y602624D01*
X646637Y602066D01*
X646654Y601492D01*
Y601328D01*
X646637Y601213D01*
X646621Y601082D01*
X646604Y600902D01*
X646588Y600705D01*
X646555Y600492D01*
X646506Y600262D01*
X646457Y600016D01*
X646309Y599475D01*
X646112Y598901D01*
X645997Y598605D01*
X645850Y598310D01*
X645702Y597999D01*
X645522Y597704D01*
X645325Y597408D01*
X645095Y597129D01*
X644849Y596851D01*
X644587Y596588D01*
X644292Y596342D01*
X643964Y596113D01*
X643603Y595899D01*
X643226Y595703D01*
X642816Y595539D01*
X642373Y595391D01*
X641897Y595276D01*
X641389Y595178D01*
X640848Y595129D01*
X640274Y595112D01*
X640258D01*
X640208D01*
X640110D01*
X639995Y595129D01*
X639848Y595145D01*
X639683Y595161D01*
X639487Y595178D01*
X639274Y595211D01*
X639044Y595260D01*
X638798Y595309D01*
X638257Y595457D01*
X637666Y595653D01*
X637371Y595768D01*
X637076Y595916D01*
X636781Y596064D01*
X636485Y596244D01*
X636190Y596441D01*
X635895Y596670D01*
X635633Y596916D01*
X635354Y597179D01*
X635108Y597474D01*
X634878Y597802D01*
X634665Y598163D01*
X634468Y598540D01*
X634304Y598950D01*
X634157Y599393D01*
X634042Y599868D01*
X633944Y600377D01*
X633894Y600918D01*
X633878Y601492D01*
Y601656D01*
X633894Y601771D01*
Y601918D01*
X633927Y602082D01*
X633944Y602279D01*
X633976Y602492D01*
X634025Y602722D01*
X634075Y602968D01*
X634222Y603509D01*
X634304Y603804D01*
X634419Y604100D01*
X634534Y604395D01*
X634682Y604690D01*
X634829Y604985D01*
X635009Y605280D01*
X635223Y605576D01*
X635436Y605871D01*
X635682Y606133D01*
X635961Y606412D01*
X636256Y606658D01*
X636567Y606887D01*
X636928Y607101D01*
X637305Y607298D01*
X637715Y607462D01*
X638158Y607609D01*
X638634Y607724D01*
X639142Y607822D01*
X639700Y607871D01*
X640274Y607888D01*
X640290D01*
X640340D01*
X640438D01*
X640553Y607871D01*
D02*
G37*
G36*
X646654Y590848D02*
X644522D01*
X644505D01*
X644423D01*
X644325Y590815D01*
X644194Y590783D01*
X644030Y590717D01*
X643849Y590619D01*
X643652Y590487D01*
X643456Y590323D01*
X643259Y590094D01*
X643062Y589815D01*
X642964Y589651D01*
X642881Y589471D01*
X642800Y589257D01*
X642718Y589044D01*
X642652Y588815D01*
X642586Y588569D01*
X642521Y588290D01*
X642488Y587995D01*
X642439Y587683D01*
X642406Y587339D01*
X642389Y586978D01*
Y580205D01*
X640258D01*
Y586765D01*
X640241Y586863D01*
Y586978D01*
X640225Y587257D01*
X640192Y587568D01*
X640143Y587929D01*
X640077Y588323D01*
X639995Y588716D01*
X639880Y589110D01*
X639733Y589503D01*
X639569Y589864D01*
X639372Y590176D01*
X639126Y590455D01*
X638978Y590569D01*
X638847Y590668D01*
X638683Y590750D01*
X638519Y590799D01*
X638339Y590832D01*
X638142Y590848D01*
X638126D01*
X638043D01*
X637945Y590815D01*
X637814Y590783D01*
X637650Y590717D01*
X637469Y590619D01*
X637273Y590487D01*
X637076Y590323D01*
X636879Y590094D01*
X636682Y589815D01*
X636584Y589651D01*
X636502Y589471D01*
X636420Y589257D01*
X636338Y589044D01*
X636272Y588815D01*
X636207Y588569D01*
X636141Y588290D01*
X636108Y587995D01*
X636059Y587683D01*
X636026Y587339D01*
X636010Y586978D01*
Y580205D01*
X633878D01*
Y586863D01*
X633894Y587011D01*
X633911Y587175D01*
X633927Y587371D01*
X633944Y587585D01*
X633976Y587814D01*
X634009Y588060D01*
X634107Y588601D01*
X634239Y589192D01*
X634403Y589782D01*
X634632Y590373D01*
X634911Y590963D01*
X635075Y591225D01*
X635255Y591504D01*
X635469Y591750D01*
X635682Y591980D01*
X635912Y592193D01*
X636158Y592390D01*
X636436Y592554D01*
X636731Y592701D01*
X637043Y592816D01*
X637388Y592915D01*
X637748Y592964D01*
X638142Y592980D01*
X638158D01*
X638240D01*
X638339Y592964D01*
X638486D01*
X638667Y592931D01*
X638864Y592898D01*
X639093Y592849D01*
X639339Y592783D01*
X639585Y592701D01*
X639848Y592587D01*
X640126Y592455D01*
X640389Y592308D01*
X640635Y592111D01*
X640881Y591898D01*
X641110Y591652D01*
X641324Y591373D01*
X641340Y591390D01*
X641373Y591439D01*
X641438Y591521D01*
X641520Y591619D01*
X641635Y591750D01*
X641766Y591882D01*
X641930Y592029D01*
X642127Y592177D01*
X642340Y592324D01*
X642570Y592472D01*
X642832Y592603D01*
X643127Y592734D01*
X643439Y592833D01*
X643767Y592915D01*
X644128Y592964D01*
X644522Y592980D01*
X646654D01*
Y590848D01*
D02*
G37*
G36*
X642570Y566855D02*
X642668D01*
X642783Y566822D01*
X643062Y566773D01*
X643373Y566675D01*
X643734Y566527D01*
X643931Y566445D01*
X644128Y566330D01*
X644325Y566216D01*
X644522Y566068D01*
X644718Y565920D01*
X644915Y565740D01*
X645112Y565527D01*
X645309Y565313D01*
X645489Y565067D01*
X645670Y564789D01*
X645834Y564494D01*
X645981Y564182D01*
X646129Y563821D01*
X646260Y563444D01*
X646375Y563034D01*
X646473Y562591D01*
X646555Y562115D01*
X646604Y561607D01*
X646637Y561050D01*
X646654Y560475D01*
Y554096D01*
X644522D01*
Y560656D01*
X644505Y560754D01*
Y560869D01*
X644489Y561148D01*
X644456Y561459D01*
X644407Y561820D01*
X644341Y562214D01*
X644259Y562607D01*
X644144Y563001D01*
X643997Y563395D01*
X643833Y563756D01*
X643619Y564067D01*
X643373Y564346D01*
X643242Y564461D01*
X643095Y564559D01*
X642931Y564641D01*
X642767Y564690D01*
X642586Y564723D01*
X642389Y564740D01*
X642373D01*
X642291D01*
X642193Y564707D01*
X642062Y564674D01*
X641897Y564608D01*
X641717Y564510D01*
X641520Y564379D01*
X641324Y564215D01*
X641127Y563985D01*
X640930Y563706D01*
X640832Y563542D01*
X640750Y563362D01*
X640668Y563149D01*
X640586Y562935D01*
X640520Y562706D01*
X640454Y562460D01*
X640389Y562181D01*
X640356Y561886D01*
X640307Y561574D01*
X640274Y561230D01*
X640258Y560869D01*
Y554096D01*
X638142D01*
X638126D01*
X638093D01*
X638043D01*
X637961Y554112D01*
X637863Y554129D01*
X637748Y554145D01*
X637469Y554194D01*
X637158Y554293D01*
X636797Y554440D01*
X636404Y554637D01*
X636207Y554752D01*
X636010Y554900D01*
X635813Y555047D01*
X635616Y555228D01*
X635420Y555424D01*
X635223Y555654D01*
X635042Y555900D01*
X634862Y556162D01*
X634698Y556458D01*
X634550Y556785D01*
X634403Y557146D01*
X634272Y557523D01*
X634157Y557934D01*
X634058Y558376D01*
X633976Y558852D01*
X633927Y559360D01*
X633894Y559902D01*
X633878Y560475D01*
Y566872D01*
X636010D01*
Y560197D01*
X636026Y560082D01*
X636043Y559820D01*
X636076Y559491D01*
X636125Y559131D01*
X636190Y558753D01*
X636272Y558360D01*
X636387Y557950D01*
X636518Y557573D01*
X636699Y557212D01*
X636896Y556900D01*
X637142Y556622D01*
X637273Y556507D01*
X637420Y556408D01*
X637584Y556326D01*
X637748Y556277D01*
X637929Y556244D01*
X638126Y556228D01*
Y560754D01*
X638142Y560902D01*
X638158Y561066D01*
X638175Y561263D01*
X638191Y561476D01*
X638224Y561705D01*
X638257Y561951D01*
X638355Y562493D01*
X638486Y563083D01*
X638650Y563673D01*
X638880Y564264D01*
X639159Y564854D01*
X639323Y565117D01*
X639503Y565395D01*
X639716Y565641D01*
X639930Y565871D01*
X640159Y566084D01*
X640405Y566281D01*
X640684Y566445D01*
X640979Y566593D01*
X641291Y566708D01*
X641635Y566806D01*
X641996Y566855D01*
X642389Y566872D01*
X642406D01*
X642439D01*
X642488D01*
X642570Y566855D01*
D02*
G37*
G36*
X636010Y546109D02*
X646654D01*
Y543977D01*
X636010D01*
Y538647D01*
X633878D01*
Y551964D01*
X636010D01*
Y546109D01*
D02*
G37*
G36*
X646654Y534383D02*
X640274D01*
X640258D01*
X640225D01*
X640176D01*
X640094D01*
X639995Y534367D01*
X639880Y534350D01*
X639602Y534317D01*
X639290Y534252D01*
X638929Y534154D01*
X638535Y534022D01*
X638142Y533858D01*
X637748Y533629D01*
X637355Y533350D01*
X637174Y533186D01*
X636994Y533006D01*
X636830Y532792D01*
X636682Y532579D01*
X636535Y532349D01*
X636404Y532103D01*
X636289Y531825D01*
X636190Y531530D01*
X636108Y531218D01*
X636059Y530873D01*
X636026Y530513D01*
X636010Y530119D01*
Y529939D01*
X636026Y529840D01*
X636043Y529726D01*
X636076Y529463D01*
X636141Y529135D01*
X636239Y528774D01*
X636371Y528397D01*
X636535Y528004D01*
X636764Y527594D01*
X637043Y527216D01*
X637207Y527036D01*
X637388Y526856D01*
X637601Y526691D01*
X637814Y526544D01*
X638043Y526396D01*
X638289Y526265D01*
X638568Y526150D01*
X638864Y526052D01*
X639175Y525970D01*
X639520Y525921D01*
X639880Y525888D01*
X640274Y525872D01*
X646654D01*
Y523739D01*
X640274D01*
X640258D01*
X640208D01*
X640110D01*
X639995Y523756D01*
X639848Y523772D01*
X639684Y523789D01*
X639487Y523805D01*
X639274Y523838D01*
X639044Y523887D01*
X638798Y523936D01*
X638257Y524084D01*
X637666Y524281D01*
X637371Y524396D01*
X637076Y524543D01*
X636781Y524691D01*
X636485Y524871D01*
X636190Y525068D01*
X635895Y525297D01*
X635633Y525543D01*
X635354Y525806D01*
X635108Y526101D01*
X634878Y526429D01*
X634665Y526790D01*
X634468Y527167D01*
X634304Y527577D01*
X634157Y528020D01*
X634042Y528496D01*
X633944Y529004D01*
X633894Y529545D01*
X633878Y530119D01*
Y530283D01*
X633894Y530398D01*
Y530546D01*
X633927Y530710D01*
X633944Y530906D01*
X633976Y531119D01*
X634026Y531349D01*
X634075Y531595D01*
X634222Y532136D01*
X634304Y532432D01*
X634419Y532727D01*
X634534Y533022D01*
X634682Y533317D01*
X634829Y533612D01*
X635010Y533908D01*
X635223Y534203D01*
X635436Y534498D01*
X635682Y534760D01*
X635961Y535039D01*
X636256Y535285D01*
X636568Y535515D01*
X636928Y535728D01*
X637306Y535925D01*
X637715Y536089D01*
X638158Y536236D01*
X638634Y536351D01*
X639142Y536449D01*
X639700Y536499D01*
X640274Y536515D01*
X646654D01*
Y534383D01*
D02*
G37*
G36*
Y519476D02*
X636010D01*
Y515031D01*
X636026Y514933D01*
X636043Y514818D01*
X636076Y514556D01*
X636141Y514227D01*
X636239Y513867D01*
X636371Y513489D01*
X636535Y513096D01*
X636764Y512686D01*
X637043Y512309D01*
X637207Y512128D01*
X637388Y511948D01*
X637601Y511784D01*
X637814Y511636D01*
X638043Y511489D01*
X638289Y511357D01*
X638568Y511243D01*
X638864Y511144D01*
X639175Y511062D01*
X639520Y511013D01*
X639880Y510980D01*
X640274Y510964D01*
X640290D01*
X640323D01*
X640372D01*
X640454Y510980D01*
X640553D01*
X640668Y510997D01*
X640930Y511029D01*
X641258Y511095D01*
X641619Y511194D01*
X641996Y511325D01*
X642389Y511489D01*
X642800Y511718D01*
X643177Y511997D01*
X643357Y512161D01*
X643538Y512341D01*
X643702Y512538D01*
X643849Y512751D01*
X643997Y512997D01*
X644128Y513243D01*
X644243Y513522D01*
X644341Y513818D01*
X644423Y514129D01*
X644472Y514457D01*
X644505Y514818D01*
X644522Y515211D01*
Y517344D01*
X646654D01*
Y515048D01*
X646637Y514933D01*
X646621Y514802D01*
X646604Y514621D01*
X646588Y514424D01*
X646555Y514211D01*
X646506Y513981D01*
X646457Y513735D01*
X646309Y513194D01*
X646112Y512620D01*
X645997Y512325D01*
X645850Y512030D01*
X645702Y511718D01*
X645522Y511423D01*
X645325Y511128D01*
X645096Y510849D01*
X644849Y510570D01*
X644587Y510308D01*
X644292Y510062D01*
X643964Y509832D01*
X643603Y509619D01*
X643226Y509422D01*
X642816Y509258D01*
X642373Y509111D01*
X641897Y508996D01*
X641389Y508897D01*
X640848Y508848D01*
X640274Y508832D01*
X640258D01*
X640208D01*
X640110D01*
X639995Y508848D01*
X639848Y508865D01*
X639684Y508881D01*
X639487Y508897D01*
X639274Y508930D01*
X639044Y508980D01*
X638798Y509029D01*
X638257Y509176D01*
X637666Y509373D01*
X637371Y509488D01*
X637076Y509635D01*
X636781Y509783D01*
X636485Y509964D01*
X636190Y510160D01*
X635895Y510390D01*
X635633Y510636D01*
X635354Y510898D01*
X635108Y511194D01*
X634878Y511521D01*
X634665Y511882D01*
X634468Y512259D01*
X634304Y512670D01*
X634157Y513112D01*
X634042Y513588D01*
X633944Y514096D01*
X633894Y514638D01*
X633878Y515211D01*
Y521607D01*
X646654D01*
Y519476D01*
D02*
G37*
G36*
X657776Y664073D02*
X657842D01*
X657932Y664056D01*
X658031Y664048D01*
X658137Y664032D01*
X658252Y664007D01*
X658375Y663983D01*
X658645Y663909D01*
X658785Y663868D01*
X658932Y663810D01*
X659080Y663753D01*
X659228Y663679D01*
X659383Y663605D01*
X659531Y663515D01*
X659679Y663409D01*
X659818Y663302D01*
X659958Y663179D01*
X660089Y663040D01*
X660212Y662892D01*
X660326Y662736D01*
X660433Y662556D01*
X660532Y662367D01*
X660613Y662162D01*
X660687Y661941D01*
X660745Y661703D01*
X660794Y661449D01*
X660818Y661170D01*
X660827Y660883D01*
X659761D01*
Y660932D01*
X659753Y660973D01*
Y661023D01*
X659744Y661080D01*
X659728Y661219D01*
X659695Y661375D01*
X659646Y661555D01*
X659580Y661752D01*
X659498Y661949D01*
X659383Y662146D01*
X659244Y662343D01*
X659162Y662433D01*
X659072Y662523D01*
X658974Y662605D01*
X658867Y662679D01*
X658744Y662753D01*
X658621Y662818D01*
X658482Y662876D01*
X658334Y662925D01*
X658178Y662966D01*
X658014Y662991D01*
X657834Y663007D01*
X657637Y663015D01*
X657629D01*
X657612D01*
X657588D01*
X657547D01*
X657498Y663007D01*
X657440Y662999D01*
X657301Y662982D01*
X657145Y662950D01*
X656964Y662900D01*
X656768Y662835D01*
X656571Y662753D01*
X656374Y662638D01*
X656177Y662499D01*
X656087Y662417D01*
X655997Y662326D01*
X655915Y662220D01*
X655841Y662113D01*
X655767Y661998D01*
X655702Y661875D01*
X655644Y661736D01*
X655595Y661588D01*
X655554Y661433D01*
X655529Y661260D01*
X655513Y661080D01*
X655505Y660883D01*
X654439D01*
Y660965D01*
X654447Y661023D01*
Y661096D01*
X654463Y661178D01*
X654472Y661277D01*
X654488Y661383D01*
X654513Y661498D01*
X654537Y661621D01*
X654611Y661892D01*
X654652Y662039D01*
X654709Y662187D01*
X654767Y662334D01*
X654841Y662482D01*
X654915Y662630D01*
X655005Y662777D01*
X655111Y662925D01*
X655218Y663072D01*
X655341Y663204D01*
X655480Y663343D01*
X655628Y663466D01*
X655784Y663581D01*
X655964Y663688D01*
X656153Y663786D01*
X656358Y663868D01*
X656579Y663942D01*
X656817Y663999D01*
X657071Y664048D01*
X657350Y664073D01*
X657637Y664081D01*
X657645D01*
X657670D01*
X657719D01*
X657776Y664073D01*
D02*
G37*
G36*
X660827Y658751D02*
X657637D01*
X657629D01*
X657612D01*
X657588D01*
X657547D01*
X657498D01*
X657440Y658743D01*
X657301Y658735D01*
X657145Y658718D01*
X656964Y658694D01*
X656768Y658661D01*
X656571Y658620D01*
X656374Y658563D01*
X656177Y658489D01*
X655997Y658407D01*
X655841Y658300D01*
X655702Y658177D01*
X655644Y658111D01*
X655595Y658038D01*
X655554Y657956D01*
X655529Y657874D01*
X655513Y657784D01*
X655505Y657685D01*
Y657152D01*
X654439D01*
Y657734D01*
X654447Y657775D01*
Y657825D01*
X654463Y657882D01*
X654488Y658021D01*
X654537Y658177D01*
X654611Y658357D01*
X654652Y658456D01*
X654709Y658554D01*
X654767Y658653D01*
X654841Y658751D01*
X654915Y658849D01*
X655005Y658948D01*
X655111Y659046D01*
X655218Y659145D01*
X655341Y659235D01*
X655480Y659325D01*
X655628Y659407D01*
X655784Y659481D01*
X655964Y659555D01*
X656153Y659620D01*
X656358Y659678D01*
X656579Y659727D01*
X656817Y659768D01*
X657071Y659793D01*
X657350Y659809D01*
X657637Y659817D01*
X660827D01*
Y658751D01*
D02*
G37*
G36*
X658785Y656078D02*
X658834D01*
X658891Y656062D01*
X659031Y656037D01*
X659187Y655988D01*
X659367Y655914D01*
X659466Y655873D01*
X659564Y655816D01*
X659662Y655758D01*
X659761Y655684D01*
X659859Y655611D01*
X659958Y655520D01*
X660056Y655414D01*
X660154Y655307D01*
X660245Y655184D01*
X660335Y655045D01*
X660417Y654897D01*
X660491Y654741D01*
X660564Y654561D01*
X660630Y654372D01*
X660687Y654167D01*
X660737Y653946D01*
X660778Y653708D01*
X660802Y653454D01*
X660818Y653175D01*
X660827Y652888D01*
Y649698D01*
X656571D01*
X656563D01*
X656546D01*
X656522D01*
X656481Y649707D01*
X656431Y649715D01*
X656374Y649723D01*
X656235Y649748D01*
X656079Y649797D01*
X655899Y649870D01*
X655702Y649969D01*
X655603Y650026D01*
X655505Y650100D01*
X655407Y650174D01*
X655308Y650264D01*
X655210Y650362D01*
X655111Y650477D01*
X655021Y650600D01*
X654931Y650732D01*
X654849Y650879D01*
X654775Y651043D01*
X654701Y651224D01*
X654636Y651412D01*
X654578Y651617D01*
X654529Y651838D01*
X654488Y652076D01*
X654463Y652330D01*
X654447Y652601D01*
X654439Y652888D01*
Y655020D01*
X655505D01*
Y652749D01*
X655513Y652691D01*
X655521Y652560D01*
X655538Y652396D01*
X655562Y652216D01*
X655595Y652027D01*
X655636Y651830D01*
X655693Y651625D01*
X655767Y651437D01*
X655849Y651256D01*
X655956Y651100D01*
X656079Y650961D01*
X656145Y650904D01*
X656218Y650854D01*
X656300Y650813D01*
X656382Y650789D01*
X656472Y650772D01*
X656571Y650764D01*
X659761D01*
Y652978D01*
X659753Y653027D01*
Y653085D01*
X659744Y653224D01*
X659728Y653380D01*
X659703Y653560D01*
X659670Y653757D01*
X659629Y653954D01*
X659572Y654151D01*
X659498Y654348D01*
X659416Y654528D01*
X659310Y654684D01*
X659187Y654823D01*
X659121Y654881D01*
X659047Y654930D01*
X658965Y654971D01*
X658883Y654995D01*
X658793Y655012D01*
X658695Y655020D01*
X658686D01*
X658645D01*
X658596Y655004D01*
X658531Y654987D01*
X658449Y654954D01*
X658358Y654905D01*
X658260Y654840D01*
X658162Y654758D01*
X658063Y654643D01*
X657965Y654503D01*
X657916Y654422D01*
X657875Y654331D01*
X657834Y654225D01*
X657793Y654118D01*
X657760Y654003D01*
X657727Y653880D01*
X657694Y653741D01*
X657678Y653593D01*
X657653Y653438D01*
X657637Y653265D01*
X657629Y653085D01*
Y651822D01*
X656563D01*
Y653027D01*
X656571Y653101D01*
X656579Y653183D01*
X656587Y653282D01*
X656596Y653388D01*
X656612Y653503D01*
X656628Y653626D01*
X656677Y653897D01*
X656743Y654192D01*
X656825Y654487D01*
X656940Y654782D01*
X657079Y655078D01*
X657161Y655209D01*
X657252Y655348D01*
X657358Y655471D01*
X657465Y655586D01*
X657580Y655692D01*
X657702Y655791D01*
X657842Y655873D01*
X657990Y655947D01*
X658145Y656004D01*
X658318Y656053D01*
X658498Y656078D01*
X658695Y656086D01*
X658703D01*
X658719D01*
X658744D01*
X658785Y656078D01*
D02*
G37*
G36*
X660827Y640367D02*
Y639301D01*
X654439Y636644D01*
Y637989D01*
X659162Y639842D01*
X654439Y641728D01*
X654439Y643032D01*
X660827Y640367D01*
D02*
G37*
G36*
Y632298D02*
X660818Y632240D01*
Y632175D01*
X660810Y632085D01*
X660802Y631986D01*
X660794Y631880D01*
X660778Y631765D01*
X660761Y631642D01*
X660712Y631371D01*
X660646Y631084D01*
X660564Y630789D01*
X660450Y630486D01*
X660310Y630199D01*
X660228Y630059D01*
X660138Y629928D01*
X660040Y629805D01*
X659933Y629690D01*
X659810Y629584D01*
X659687Y629485D01*
X659548Y629403D01*
X659400Y629329D01*
X659244Y629272D01*
X659080Y629223D01*
X658900Y629198D01*
X658703Y629190D01*
X656571D01*
X656563D01*
X656546D01*
X656522D01*
X656481Y629198D01*
X656431Y629207D01*
X656374Y629215D01*
X656235Y629239D01*
X656079Y629288D01*
X655899Y629362D01*
X655702Y629461D01*
X655603Y629518D01*
X655505Y629592D01*
X655407Y629666D01*
X655308Y629756D01*
X655210Y629854D01*
X655111Y629969D01*
X655021Y630092D01*
X654931Y630223D01*
X654849Y630371D01*
X654775Y630535D01*
X654701Y630715D01*
X654636Y630904D01*
X654578Y631109D01*
X654529Y631330D01*
X654488Y631568D01*
X654464Y631822D01*
X654447Y632093D01*
X654439Y632380D01*
Y635578D01*
X655505D01*
Y632240D01*
X655513Y632183D01*
X655521Y632052D01*
X655538Y631888D01*
X655562Y631707D01*
X655595Y631519D01*
X655636Y631322D01*
X655693Y631117D01*
X655767Y630929D01*
X655849Y630748D01*
X655956Y630592D01*
X656079Y630453D01*
X656145Y630396D01*
X656218Y630346D01*
X656300Y630305D01*
X656382Y630281D01*
X656472Y630264D01*
X656571Y630256D01*
X656948D01*
X656940Y630264D01*
X656932Y630289D01*
X656915Y630338D01*
X656891Y630396D01*
X656858Y630478D01*
X656825Y630568D01*
X656792Y630683D01*
X656751Y630814D01*
X656718Y630953D01*
X656686Y631117D01*
X656653Y631289D01*
X656620Y631478D01*
X656596Y631683D01*
X656579Y631904D01*
X656563Y632134D01*
Y634512D01*
X657629D01*
Y632240D01*
X657637Y632191D01*
X657645Y632052D01*
X657661Y631896D01*
X657686Y631724D01*
X657711Y631535D01*
X657752Y631339D01*
X657809Y631142D01*
X657875Y630953D01*
X657957Y630773D01*
X658055Y630609D01*
X658170Y630469D01*
X658236Y630412D01*
X658309Y630363D01*
X658383Y630322D01*
X658465Y630289D01*
X658555Y630264D01*
X658646Y630256D01*
X658695D01*
X658703D01*
X658744Y630264D01*
X658793Y630272D01*
X658859Y630289D01*
X658941Y630322D01*
X659031Y630371D01*
X659129Y630437D01*
X659228Y630518D01*
X659326Y630633D01*
X659424Y630773D01*
X659466Y630855D01*
X659515Y630945D01*
X659556Y631043D01*
X659597Y631150D01*
X659630Y631273D01*
X659662Y631396D01*
X659687Y631535D01*
X659712Y631683D01*
X659736Y631839D01*
X659753Y632003D01*
X659761Y632191D01*
Y635578D01*
X660827D01*
Y632298D01*
D02*
G37*
G36*
Y627058D02*
X659761D01*
X659753D01*
X659712D01*
X659662Y627042D01*
X659597Y627025D01*
X659515Y626993D01*
X659424Y626943D01*
X659326Y626878D01*
X659228Y626796D01*
X659129Y626681D01*
X659031Y626542D01*
X658982Y626460D01*
X658941Y626369D01*
X658900Y626263D01*
X658859Y626156D01*
X658826Y626041D01*
X658793Y625918D01*
X658760Y625779D01*
X658744Y625631D01*
X658719Y625476D01*
X658703Y625303D01*
X658695Y625123D01*
Y621736D01*
X657629D01*
Y625016D01*
X657621Y625066D01*
Y625123D01*
X657612Y625262D01*
X657596Y625418D01*
X657571Y625598D01*
X657539Y625795D01*
X657498Y625992D01*
X657440Y626189D01*
X657366Y626386D01*
X657284Y626566D01*
X657186Y626722D01*
X657063Y626861D01*
X656989Y626919D01*
X656923Y626968D01*
X656842Y627009D01*
X656760Y627034D01*
X656669Y627050D01*
X656571Y627058D01*
X656563D01*
X656522D01*
X656472Y627042D01*
X656407Y627025D01*
X656325Y626993D01*
X656235Y626943D01*
X656136Y626878D01*
X656038Y626796D01*
X655939Y626681D01*
X655841Y626542D01*
X655792Y626460D01*
X655751Y626369D01*
X655710Y626263D01*
X655669Y626156D01*
X655636Y626041D01*
X655603Y625918D01*
X655571Y625779D01*
X655554Y625631D01*
X655530Y625476D01*
X655513Y625303D01*
X655505Y625123D01*
Y621736D01*
X654439D01*
Y625066D01*
X654447Y625139D01*
X654455Y625221D01*
X654464Y625320D01*
X654472Y625426D01*
X654488Y625541D01*
X654505Y625664D01*
X654554Y625935D01*
X654619Y626230D01*
X654701Y626525D01*
X654816Y626820D01*
X654956Y627115D01*
X655038Y627247D01*
X655128Y627386D01*
X655234Y627509D01*
X655341Y627624D01*
X655456Y627731D01*
X655579Y627829D01*
X655718Y627911D01*
X655866Y627985D01*
X656022Y628042D01*
X656194Y628091D01*
X656374Y628116D01*
X656571Y628124D01*
X656579D01*
X656620D01*
X656669Y628116D01*
X656743D01*
X656833Y628099D01*
X656932Y628083D01*
X657047Y628058D01*
X657169Y628026D01*
X657293Y627985D01*
X657424Y627927D01*
X657563Y627862D01*
X657694Y627788D01*
X657817Y627690D01*
X657940Y627583D01*
X658055Y627460D01*
X658162Y627320D01*
X658170Y627329D01*
X658186Y627353D01*
X658219Y627394D01*
X658260Y627444D01*
X658318Y627509D01*
X658383Y627575D01*
X658465Y627648D01*
X658564Y627722D01*
X658670Y627796D01*
X658785Y627870D01*
X658916Y627936D01*
X659064Y628001D01*
X659220Y628050D01*
X659384Y628091D01*
X659564Y628116D01*
X659761Y628124D01*
X660827D01*
Y627058D01*
D02*
G37*
G36*
Y620580D02*
X660818Y620523D01*
X660810Y620457D01*
X660802Y620367D01*
X660794Y620268D01*
X660778Y620162D01*
X660753Y620047D01*
X660728Y619924D01*
X660655Y619654D01*
X660556Y619367D01*
X660499Y619219D01*
X660425Y619071D01*
X660351Y618916D01*
X660261Y618768D01*
X660163Y618620D01*
X660048Y618481D01*
X659925Y618341D01*
X659794Y618210D01*
X659646Y618087D01*
X659482Y617973D01*
X659302Y617866D01*
X659113Y617767D01*
X658908Y617686D01*
X658686Y617612D01*
X658449Y617554D01*
X658194Y617505D01*
X657924Y617481D01*
X657637Y617472D01*
X657629D01*
X657604D01*
X657555D01*
X657498Y617481D01*
X657424Y617489D01*
X657342Y617497D01*
X657243Y617505D01*
X657137Y617521D01*
X657022Y617546D01*
X656899Y617571D01*
X656628Y617645D01*
X656333Y617743D01*
X656185Y617800D01*
X656038Y617874D01*
X655890Y617948D01*
X655743Y618038D01*
X655595Y618137D01*
X655447Y618251D01*
X655316Y618374D01*
X655177Y618505D01*
X655054Y618653D01*
X654939Y618817D01*
X654833Y618997D01*
X654734Y619186D01*
X654652Y619391D01*
X654578Y619613D01*
X654521Y619850D01*
X654472Y620105D01*
X654447Y620375D01*
X654439Y620662D01*
X655505D01*
Y620572D01*
X655513Y620523D01*
X655521Y620465D01*
X655538Y620334D01*
X655571Y620170D01*
X655620Y619990D01*
X655685Y619801D01*
X655767Y619604D01*
X655882Y619399D01*
X656022Y619211D01*
X656104Y619121D01*
X656194Y619030D01*
X656300Y618948D01*
X656407Y618875D01*
X656522Y618801D01*
X656645Y618735D01*
X656784Y618678D01*
X656932Y618629D01*
X657088Y618587D01*
X657260Y618563D01*
X657440Y618546D01*
X657637Y618538D01*
X657645D01*
X657661D01*
X657686D01*
X657727Y618546D01*
X657776D01*
X657834Y618555D01*
X657965Y618571D01*
X658129Y618604D01*
X658309Y618653D01*
X658498Y618719D01*
X658695Y618801D01*
X658900Y618916D01*
X659088Y619055D01*
X659178Y619137D01*
X659269Y619227D01*
X659351Y619325D01*
X659424Y619432D01*
X659498Y619555D01*
X659564Y619678D01*
X659621Y619817D01*
X659671Y619965D01*
X659712Y620121D01*
X659736Y620285D01*
X659753Y620465D01*
X659761Y620662D01*
X660827D01*
Y620580D01*
D02*
G37*
G36*
X657776Y610798D02*
X657842D01*
X657932Y610781D01*
X658031Y610773D01*
X658137Y610756D01*
X658252Y610732D01*
X658375Y610707D01*
X658646Y610634D01*
X658785Y610593D01*
X658932Y610535D01*
X659080Y610478D01*
X659228Y610404D01*
X659384Y610330D01*
X659531Y610240D01*
X659679Y610133D01*
X659818Y610027D01*
X659958Y609904D01*
X660089Y609764D01*
X660212Y609617D01*
X660327Y609461D01*
X660433Y609280D01*
X660532Y609092D01*
X660614Y608887D01*
X660687Y608666D01*
X660745Y608428D01*
X660794Y608174D01*
X660818Y607895D01*
X660827Y607608D01*
Y604418D01*
X659761D01*
Y607657D01*
X659753Y607698D01*
Y607747D01*
X659744Y607804D01*
X659728Y607944D01*
X659695Y608100D01*
X659646Y608280D01*
X659580Y608477D01*
X659498Y608674D01*
X659384Y608871D01*
X659244Y609067D01*
X659162Y609158D01*
X659072Y609248D01*
X658974Y609330D01*
X658867Y609404D01*
X658744Y609477D01*
X658621Y609543D01*
X658482Y609600D01*
X658334Y609650D01*
X658178Y609691D01*
X658014Y609715D01*
X657834Y609731D01*
X657637Y609740D01*
X657629D01*
X657612D01*
X657588D01*
X657547D01*
X657498Y609731D01*
X657440Y609723D01*
X657301Y609707D01*
X657145Y609674D01*
X656964Y609625D01*
X656768Y609559D01*
X656571Y609477D01*
X656374Y609363D01*
X656177Y609223D01*
X656087Y609141D01*
X655997Y609051D01*
X655915Y608944D01*
X655841Y608838D01*
X655767Y608723D01*
X655702Y608600D01*
X655644Y608461D01*
X655595Y608313D01*
X655554Y608157D01*
X655530Y607985D01*
X655513Y607804D01*
X655505Y607608D01*
Y604418D01*
X654439D01*
Y607690D01*
X654447Y607747D01*
Y607821D01*
X654464Y607903D01*
X654472Y608001D01*
X654488Y608108D01*
X654513Y608223D01*
X654537Y608346D01*
X654611Y608616D01*
X654652Y608764D01*
X654710Y608912D01*
X654767Y609059D01*
X654841Y609207D01*
X654915Y609354D01*
X655005Y609502D01*
X655111Y609650D01*
X655218Y609797D01*
X655341Y609928D01*
X655480Y610068D01*
X655628Y610191D01*
X655784Y610306D01*
X655964Y610412D01*
X656153Y610510D01*
X656358Y610593D01*
X656579Y610666D01*
X656817Y610724D01*
X657071Y610773D01*
X657350Y610798D01*
X657637Y610806D01*
X657645D01*
X657670D01*
X657719D01*
X657776Y610798D01*
D02*
G37*
G36*
X660827Y602286D02*
X659761D01*
X659753D01*
X659712D01*
X659662Y602270D01*
X659597Y602253D01*
X659515Y602220D01*
X659424Y602171D01*
X659326Y602106D01*
X659228Y602024D01*
X659129Y601909D01*
X659031Y601769D01*
X658982Y601687D01*
X658941Y601597D01*
X658900Y601490D01*
X658859Y601384D01*
X658826Y601269D01*
X658793Y601146D01*
X658760Y601007D01*
X658744Y600859D01*
X658719Y600703D01*
X658703Y600531D01*
X658695Y600351D01*
Y596964D01*
X657629D01*
Y600244D01*
X657621Y600293D01*
Y600351D01*
X657612Y600490D01*
X657596Y600646D01*
X657571Y600826D01*
X657539Y601023D01*
X657498Y601220D01*
X657440Y601417D01*
X657366Y601614D01*
X657284Y601794D01*
X657186Y601950D01*
X657063Y602089D01*
X656989Y602146D01*
X656923Y602196D01*
X656842Y602237D01*
X656760Y602261D01*
X656669Y602278D01*
X656571Y602286D01*
X656563D01*
X656522D01*
X656472Y602270D01*
X656407Y602253D01*
X656325Y602220D01*
X656235Y602171D01*
X656136Y602106D01*
X656038Y602024D01*
X655939Y601909D01*
X655841Y601769D01*
X655792Y601687D01*
X655751Y601597D01*
X655710Y601490D01*
X655669Y601384D01*
X655636Y601269D01*
X655603Y601146D01*
X655571Y601007D01*
X655554Y600859D01*
X655530Y600703D01*
X655513Y600531D01*
X655505Y600351D01*
Y596964D01*
X654439D01*
Y600293D01*
X654447Y600367D01*
X654455Y600449D01*
X654464Y600548D01*
X654472Y600654D01*
X654488Y600769D01*
X654505Y600892D01*
X654554Y601162D01*
X654619Y601458D01*
X654701Y601753D01*
X654816Y602048D01*
X654956Y602343D01*
X655038Y602474D01*
X655128Y602614D01*
X655234Y602737D01*
X655341Y602852D01*
X655456Y602958D01*
X655579Y603057D01*
X655718Y603139D01*
X655866Y603212D01*
X656022Y603270D01*
X656194Y603319D01*
X656374Y603344D01*
X656571Y603352D01*
X656579D01*
X656620D01*
X656669Y603344D01*
X656743D01*
X656833Y603327D01*
X656932Y603311D01*
X657047Y603286D01*
X657169Y603254D01*
X657293Y603212D01*
X657424Y603155D01*
X657563Y603090D01*
X657694Y603016D01*
X657817Y602917D01*
X657940Y602811D01*
X658055Y602688D01*
X658162Y602548D01*
X658170Y602557D01*
X658186Y602581D01*
X658219Y602622D01*
X658260Y602671D01*
X658318Y602737D01*
X658383Y602803D01*
X658465Y602876D01*
X658564Y602950D01*
X658670Y603024D01*
X658785Y603098D01*
X658916Y603163D01*
X659064Y603229D01*
X659220Y603278D01*
X659384Y603319D01*
X659564Y603344D01*
X659761Y603352D01*
X660827D01*
Y602286D01*
D02*
G37*
G36*
Y594832D02*
X655505D01*
Y592610D01*
X655513Y592561D01*
X655521Y592503D01*
X655538Y592372D01*
X655571Y592208D01*
X655620Y592028D01*
X655685Y591839D01*
X655767Y591642D01*
X655882Y591437D01*
X656022Y591249D01*
X656104Y591158D01*
X656194Y591068D01*
X656300Y590986D01*
X656407Y590912D01*
X656522Y590839D01*
X656645Y590773D01*
X656784Y590716D01*
X656932Y590666D01*
X657088Y590625D01*
X657260Y590601D01*
X657440Y590585D01*
X657637Y590576D01*
X657645D01*
X657661D01*
X657686D01*
X657727Y590585D01*
X657776D01*
X657834Y590593D01*
X657965Y590609D01*
X658129Y590642D01*
X658309Y590691D01*
X658498Y590757D01*
X658695Y590839D01*
X658900Y590953D01*
X659088Y591093D01*
X659178Y591175D01*
X659269Y591265D01*
X659351Y591363D01*
X659424Y591470D01*
X659498Y591593D01*
X659564Y591716D01*
X659621Y591855D01*
X659671Y592003D01*
X659712Y592159D01*
X659736Y592323D01*
X659753Y592503D01*
X659761Y592700D01*
Y593766D01*
X660827D01*
Y592618D01*
X660818Y592561D01*
X660810Y592495D01*
X660802Y592405D01*
X660794Y592307D01*
X660778Y592200D01*
X660753Y592085D01*
X660728Y591962D01*
X660655Y591691D01*
X660556Y591404D01*
X660499Y591257D01*
X660425Y591109D01*
X660351Y590953D01*
X660261Y590806D01*
X660163Y590658D01*
X660048Y590519D01*
X659925Y590379D01*
X659794Y590248D01*
X659646Y590125D01*
X659482Y590010D01*
X659302Y589904D01*
X659113Y589806D01*
X658908Y589723D01*
X658686Y589650D01*
X658449Y589592D01*
X658194Y589543D01*
X657924Y589518D01*
X657637Y589510D01*
X657629D01*
X657604D01*
X657555D01*
X657498Y589518D01*
X657424Y589527D01*
X657342Y589535D01*
X657243Y589543D01*
X657137Y589560D01*
X657022Y589584D01*
X656899Y589609D01*
X656628Y589682D01*
X656333Y589781D01*
X656185Y589838D01*
X656038Y589912D01*
X655890Y589986D01*
X655743Y590076D01*
X655595Y590174D01*
X655447Y590289D01*
X655316Y590412D01*
X655177Y590544D01*
X655054Y590691D01*
X654939Y590855D01*
X654833Y591036D01*
X654734Y591224D01*
X654652Y591429D01*
X654578Y591650D01*
X654521Y591888D01*
X654472Y592142D01*
X654447Y592413D01*
X654439Y592700D01*
Y595898D01*
X660827D01*
Y594832D01*
D02*
G37*
G36*
X657776Y588436D02*
X657842D01*
X657932Y588420D01*
X658031Y588412D01*
X658137Y588395D01*
X658252Y588371D01*
X658375Y588346D01*
X658646Y588272D01*
X658785Y588231D01*
X658932Y588174D01*
X659080Y588116D01*
X659228Y588042D01*
X659384Y587969D01*
X659531Y587879D01*
X659679Y587772D01*
X659818Y587665D01*
X659958Y587542D01*
X660089Y587403D01*
X660212Y587255D01*
X660327Y587100D01*
X660433Y586919D01*
X660532Y586730D01*
X660614Y586525D01*
X660687Y586304D01*
X660745Y586066D01*
X660794Y585812D01*
X660818Y585533D01*
X660827Y585246D01*
Y585164D01*
X660818Y585107D01*
X660810Y585041D01*
X660802Y584951D01*
X660794Y584853D01*
X660778Y584746D01*
X660753Y584631D01*
X660728Y584508D01*
X660655Y584238D01*
X660556Y583951D01*
X660499Y583803D01*
X660425Y583656D01*
X660351Y583500D01*
X660261Y583352D01*
X660163Y583205D01*
X660048Y583065D01*
X659925Y582926D01*
X659794Y582795D01*
X659646Y582671D01*
X659482Y582557D01*
X659302Y582450D01*
X659113Y582352D01*
X658908Y582270D01*
X658686Y582196D01*
X658449Y582138D01*
X658194Y582089D01*
X657924Y582065D01*
X657637Y582057D01*
X657629D01*
X657604D01*
X657555D01*
X657498Y582065D01*
X657424Y582073D01*
X657342Y582081D01*
X657243Y582089D01*
X657137Y582106D01*
X657022Y582130D01*
X656899Y582155D01*
X656628Y582229D01*
X656333Y582327D01*
X656185Y582384D01*
X656038Y582458D01*
X655890Y582532D01*
X655743Y582622D01*
X655595Y582721D01*
X655447Y582835D01*
X655316Y582959D01*
X655177Y583090D01*
X655054Y583237D01*
X654939Y583401D01*
X654833Y583582D01*
X654734Y583770D01*
X654652Y583975D01*
X654578Y584197D01*
X654521Y584435D01*
X654472Y584689D01*
X654447Y584959D01*
X654439Y585246D01*
Y585328D01*
X654447Y585386D01*
Y585460D01*
X654464Y585541D01*
X654472Y585640D01*
X654488Y585746D01*
X654513Y585861D01*
X654537Y585984D01*
X654611Y586255D01*
X654652Y586403D01*
X654710Y586550D01*
X654767Y586698D01*
X654841Y586845D01*
X654915Y586993D01*
X655005Y587141D01*
X655111Y587288D01*
X655218Y587436D01*
X655341Y587567D01*
X655480Y587706D01*
X655628Y587829D01*
X655784Y587944D01*
X655964Y588051D01*
X656153Y588149D01*
X656358Y588231D01*
X656579Y588305D01*
X656817Y588362D01*
X657071Y588412D01*
X657350Y588436D01*
X657637Y588444D01*
X657645D01*
X657670D01*
X657719D01*
X657776Y588436D01*
D02*
G37*
G36*
X658785Y580982D02*
X658834D01*
X658892Y580966D01*
X659031Y580941D01*
X659187Y580892D01*
X659367Y580818D01*
X659466Y580777D01*
X659564Y580720D01*
X659662Y580662D01*
X659761Y580589D01*
X659859Y580515D01*
X659958Y580425D01*
X660056Y580318D01*
X660154Y580211D01*
X660245Y580089D01*
X660335Y579949D01*
X660417Y579802D01*
X660491Y579646D01*
X660564Y579465D01*
X660630Y579277D01*
X660687Y579072D01*
X660737Y578850D01*
X660778Y578613D01*
X660802Y578358D01*
X660818Y578080D01*
X660827Y577793D01*
Y574603D01*
X656571D01*
X656563D01*
X656546D01*
X656522D01*
X656481Y574611D01*
X656431Y574619D01*
X656374Y574627D01*
X656235Y574652D01*
X656079Y574701D01*
X655899Y574775D01*
X655702Y574873D01*
X655603Y574931D01*
X655505Y575004D01*
X655407Y575078D01*
X655308Y575169D01*
X655210Y575267D01*
X655111Y575382D01*
X655021Y575505D01*
X654931Y575636D01*
X654849Y575783D01*
X654775Y575948D01*
X654701Y576128D01*
X654636Y576316D01*
X654578Y576521D01*
X654529Y576743D01*
X654488Y576981D01*
X654464Y577235D01*
X654447Y577505D01*
X654439Y577793D01*
Y579924D01*
X655505D01*
Y577653D01*
X655513Y577596D01*
X655521Y577464D01*
X655538Y577301D01*
X655562Y577120D01*
X655595Y576931D01*
X655636Y576735D01*
X655693Y576530D01*
X655767Y576341D01*
X655849Y576161D01*
X655956Y576005D01*
X656079Y575866D01*
X656145Y575808D01*
X656218Y575759D01*
X656300Y575718D01*
X656382Y575693D01*
X656472Y575677D01*
X656571Y575669D01*
X659761D01*
Y577883D01*
X659753Y577932D01*
Y577989D01*
X659744Y578129D01*
X659728Y578285D01*
X659703Y578465D01*
X659671Y578662D01*
X659630Y578859D01*
X659572Y579055D01*
X659498Y579252D01*
X659416Y579432D01*
X659310Y579588D01*
X659187Y579728D01*
X659121Y579785D01*
X659047Y579834D01*
X658965Y579875D01*
X658883Y579900D01*
X658793Y579916D01*
X658695Y579924D01*
X658686D01*
X658646D01*
X658596Y579908D01*
X658531Y579892D01*
X658449Y579859D01*
X658359Y579810D01*
X658260Y579744D01*
X658162Y579662D01*
X658063Y579547D01*
X657965Y579408D01*
X657916Y579326D01*
X657875Y579236D01*
X657834Y579129D01*
X657793Y579023D01*
X657760Y578908D01*
X657727Y578785D01*
X657694Y578645D01*
X657678Y578498D01*
X657653Y578342D01*
X657637Y578170D01*
X657629Y577989D01*
Y576726D01*
X656563D01*
Y577932D01*
X656571Y578006D01*
X656579Y578088D01*
X656587Y578186D01*
X656596Y578293D01*
X656612Y578407D01*
X656628Y578531D01*
X656677Y578801D01*
X656743Y579096D01*
X656825Y579391D01*
X656940Y579687D01*
X657079Y579982D01*
X657161Y580113D01*
X657252Y580253D01*
X657358Y580375D01*
X657465Y580490D01*
X657580Y580597D01*
X657702Y580695D01*
X657842Y580777D01*
X657990Y580851D01*
X658145Y580908D01*
X658318Y580958D01*
X658498Y580982D01*
X658695Y580991D01*
X658703D01*
X658719D01*
X658744D01*
X658785Y580982D01*
D02*
G37*
G36*
X660827Y572471D02*
X659761D01*
X659753D01*
X659712D01*
X659662Y572454D01*
X659597Y572438D01*
X659515Y572405D01*
X659424Y572356D01*
X659326Y572290D01*
X659228Y572208D01*
X659129Y572093D01*
X659031Y571954D01*
X658982Y571872D01*
X658941Y571782D01*
X658900Y571675D01*
X658859Y571569D01*
X658826Y571454D01*
X658793Y571331D01*
X658760Y571192D01*
X658744Y571044D01*
X658719Y570888D01*
X658703Y570716D01*
X658695Y570536D01*
Y567149D01*
X657629D01*
Y570429D01*
X657621Y570478D01*
Y570536D01*
X657612Y570675D01*
X657596Y570831D01*
X657571Y571011D01*
X657539Y571208D01*
X657498Y571405D01*
X657440Y571601D01*
X657366Y571798D01*
X657284Y571979D01*
X657186Y572134D01*
X657063Y572274D01*
X656989Y572331D01*
X656923Y572380D01*
X656842Y572422D01*
X656760Y572446D01*
X656669Y572463D01*
X656571Y572471D01*
X656563D01*
X656522D01*
X656472Y572454D01*
X656407Y572438D01*
X656325Y572405D01*
X656235Y572356D01*
X656136Y572290D01*
X656038Y572208D01*
X655939Y572093D01*
X655841Y571954D01*
X655792Y571872D01*
X655751Y571782D01*
X655710Y571675D01*
X655669Y571569D01*
X655636Y571454D01*
X655603Y571331D01*
X655571Y571192D01*
X655554Y571044D01*
X655530Y570888D01*
X655513Y570716D01*
X655505Y570536D01*
Y567149D01*
X654439D01*
Y570478D01*
X654447Y570552D01*
X654455Y570634D01*
X654464Y570732D01*
X654472Y570839D01*
X654488Y570954D01*
X654505Y571077D01*
X654554Y571347D01*
X654619Y571642D01*
X654701Y571938D01*
X654816Y572233D01*
X654956Y572528D01*
X655038Y572659D01*
X655128Y572799D01*
X655234Y572922D01*
X655341Y573036D01*
X655456Y573143D01*
X655579Y573242D01*
X655718Y573323D01*
X655866Y573397D01*
X656022Y573455D01*
X656194Y573504D01*
X656374Y573528D01*
X656571Y573537D01*
X656579D01*
X656620D01*
X656669Y573528D01*
X656743D01*
X656833Y573512D01*
X656932Y573496D01*
X657047Y573471D01*
X657169Y573438D01*
X657293Y573397D01*
X657424Y573340D01*
X657563Y573274D01*
X657694Y573201D01*
X657817Y573102D01*
X657940Y572996D01*
X658055Y572872D01*
X658162Y572733D01*
X658170Y572741D01*
X658186Y572766D01*
X658219Y572807D01*
X658260Y572856D01*
X658318Y572922D01*
X658383Y572987D01*
X658465Y573061D01*
X658564Y573135D01*
X658670Y573209D01*
X658785Y573282D01*
X658916Y573348D01*
X659064Y573414D01*
X659220Y573463D01*
X659384Y573504D01*
X659564Y573528D01*
X659761Y573537D01*
X660827D01*
Y572471D01*
D02*
G37*
G36*
Y562803D02*
X660818Y562746D01*
Y562680D01*
X660810Y562590D01*
X660802Y562491D01*
X660794Y562385D01*
X660778Y562270D01*
X660761Y562147D01*
X660712Y561876D01*
X660646Y561589D01*
X660564Y561294D01*
X660450Y560991D01*
X660310Y560704D01*
X660228Y560564D01*
X660138Y560433D01*
X660040Y560310D01*
X659933Y560195D01*
X659810Y560089D01*
X659687Y559990D01*
X659548Y559908D01*
X659400Y559834D01*
X659244Y559777D01*
X659080Y559728D01*
X658900Y559703D01*
X658703Y559695D01*
X656571D01*
X656563D01*
X656546D01*
X656522D01*
X656481Y559703D01*
X656431Y559712D01*
X656374Y559720D01*
X656235Y559744D01*
X656079Y559794D01*
X655899Y559867D01*
X655702Y559966D01*
X655603Y560023D01*
X655505Y560097D01*
X655407Y560171D01*
X655308Y560261D01*
X655210Y560359D01*
X655111Y560474D01*
X655021Y560597D01*
X654931Y560728D01*
X654849Y560876D01*
X654775Y561040D01*
X654701Y561220D01*
X654636Y561409D01*
X654578Y561614D01*
X654529Y561835D01*
X654488Y562073D01*
X654464Y562327D01*
X654447Y562598D01*
X654439Y562885D01*
Y566083D01*
X655505D01*
Y562746D01*
X655513Y562688D01*
X655521Y562557D01*
X655538Y562393D01*
X655562Y562213D01*
X655595Y562024D01*
X655636Y561827D01*
X655693Y561622D01*
X655767Y561434D01*
X655849Y561253D01*
X655956Y561097D01*
X656079Y560958D01*
X656145Y560900D01*
X656218Y560851D01*
X656300Y560810D01*
X656382Y560786D01*
X656472Y560769D01*
X656571Y560761D01*
X656948D01*
X656940Y560769D01*
X656932Y560794D01*
X656915Y560843D01*
X656891Y560900D01*
X656858Y560983D01*
X656825Y561073D01*
X656792Y561188D01*
X656751Y561319D01*
X656718Y561458D01*
X656686Y561622D01*
X656653Y561794D01*
X656620Y561983D01*
X656596Y562188D01*
X656579Y562409D01*
X656563Y562639D01*
Y565017D01*
X657629D01*
Y562746D01*
X657637Y562696D01*
X657645Y562557D01*
X657661Y562401D01*
X657686Y562229D01*
X657711Y562040D01*
X657752Y561843D01*
X657809Y561647D01*
X657875Y561458D01*
X657957Y561278D01*
X658055Y561114D01*
X658170Y560974D01*
X658236Y560917D01*
X658309Y560868D01*
X658383Y560827D01*
X658465Y560794D01*
X658555Y560769D01*
X658646Y560761D01*
X658695D01*
X658703D01*
X658744Y560769D01*
X658793Y560778D01*
X658859Y560794D01*
X658941Y560827D01*
X659031Y560876D01*
X659129Y560942D01*
X659228Y561024D01*
X659326Y561138D01*
X659424Y561278D01*
X659466Y561360D01*
X659515Y561450D01*
X659556Y561548D01*
X659597Y561655D01*
X659630Y561778D01*
X659662Y561901D01*
X659687Y562040D01*
X659712Y562188D01*
X659736Y562344D01*
X659753Y562508D01*
X659761Y562696D01*
Y566083D01*
X660827D01*
Y562803D01*
D02*
G37*
G36*
Y557563D02*
X659761D01*
X659753D01*
X659736D01*
X659712D01*
X659671D01*
X659621Y557555D01*
X659564Y557547D01*
X659424Y557530D01*
X659269Y557498D01*
X659088Y557448D01*
X658892Y557383D01*
X658695Y557301D01*
X658498Y557186D01*
X658301Y557047D01*
X658211Y556964D01*
X658121Y556874D01*
X658039Y556768D01*
X657965Y556661D01*
X657891Y556546D01*
X657826Y556423D01*
X657768Y556284D01*
X657719Y556136D01*
X657678Y555980D01*
X657653Y555808D01*
X657637Y555628D01*
X657629Y555431D01*
Y555341D01*
X657637Y555292D01*
X657645Y555242D01*
X657661Y555103D01*
X657694Y554947D01*
X657735Y554775D01*
X657801Y554587D01*
X657883Y554390D01*
X657990Y554193D01*
X658129Y554004D01*
X658293Y553824D01*
X658383Y553742D01*
X658490Y553660D01*
X658596Y553586D01*
X658719Y553520D01*
X658851Y553463D01*
X658990Y553414D01*
X659146Y553373D01*
X659302Y553340D01*
X659474Y553315D01*
X659662Y553307D01*
X660827D01*
Y552241D01*
X654431D01*
Y553307D01*
X657145Y553299D01*
X657137Y553307D01*
X657120Y553332D01*
X657088Y553381D01*
X657055Y553439D01*
X657014Y553520D01*
X656964Y553619D01*
X656907Y553725D01*
X656850Y553857D01*
X656801Y554004D01*
X656743Y554160D01*
X656694Y554341D01*
X656653Y554529D01*
X656620Y554734D01*
X656587Y554947D01*
X656571Y555185D01*
X656563Y555431D01*
Y555562D01*
X656571Y555653D01*
X656579Y555767D01*
X656596Y555899D01*
X656612Y556046D01*
X656636Y556202D01*
X656669Y556366D01*
X656702Y556546D01*
X656751Y556718D01*
X656809Y556899D01*
X656874Y557071D01*
X656956Y557243D01*
X657038Y557407D01*
X657145Y557563D01*
X654431D01*
Y558629D01*
X660827D01*
Y557563D01*
D02*
G37*
G36*
X655505Y548248D02*
X660827D01*
Y547182D01*
X655505D01*
Y544517D01*
X654439D01*
Y551175D01*
X655505D01*
Y548248D01*
D02*
G37*
G36*
X657776Y543443D02*
X657842D01*
X657932Y543426D01*
X658031Y543418D01*
X658137Y543402D01*
X658252Y543377D01*
X658375Y543353D01*
X658646Y543279D01*
X658785Y543238D01*
X658932Y543180D01*
X659080Y543123D01*
X659228Y543049D01*
X659384Y542975D01*
X659531Y542885D01*
X659679Y542778D01*
X659818Y542672D01*
X659958Y542549D01*
X660089Y542410D01*
X660212Y542262D01*
X660327Y542106D01*
X660433Y541926D01*
X660532Y541737D01*
X660614Y541532D01*
X660687Y541311D01*
X660745Y541073D01*
X660794Y540819D01*
X660818Y540540D01*
X660827Y540253D01*
Y540171D01*
X660818Y540113D01*
X660810Y540048D01*
X660802Y539958D01*
X660794Y539859D01*
X660778Y539753D01*
X660753Y539638D01*
X660728Y539515D01*
X660655Y539244D01*
X660556Y538957D01*
X660499Y538810D01*
X660425Y538662D01*
X660351Y538506D01*
X660261Y538359D01*
X660163Y538211D01*
X660048Y538072D01*
X659925Y537932D01*
X659794Y537801D01*
X659646Y537678D01*
X659482Y537563D01*
X659302Y537457D01*
X659113Y537358D01*
X658908Y537276D01*
X658686Y537203D01*
X658449Y537145D01*
X658194Y537096D01*
X657924Y537071D01*
X657637Y537063D01*
X657629D01*
X657604D01*
X657555D01*
X657498Y537071D01*
X657424Y537079D01*
X657342Y537088D01*
X657243Y537096D01*
X657137Y537112D01*
X657022Y537137D01*
X656899Y537161D01*
X656628Y537235D01*
X656333Y537334D01*
X656185Y537391D01*
X656038Y537465D01*
X655890Y537539D01*
X655743Y537629D01*
X655595Y537727D01*
X655447Y537842D01*
X655316Y537965D01*
X655177Y538096D01*
X655054Y538244D01*
X654939Y538408D01*
X654833Y538588D01*
X654734Y538777D01*
X654652Y538982D01*
X654578Y539203D01*
X654521Y539441D01*
X654472Y539695D01*
X654447Y539966D01*
X654439Y540253D01*
Y540335D01*
X654447Y540392D01*
Y540466D01*
X654464Y540548D01*
X654472Y540647D01*
X654488Y540753D01*
X654513Y540868D01*
X654537Y540991D01*
X654611Y541261D01*
X654652Y541409D01*
X654710Y541557D01*
X654767Y541704D01*
X654841Y541852D01*
X654915Y541999D01*
X655005Y542147D01*
X655111Y542295D01*
X655218Y542442D01*
X655341Y542573D01*
X655480Y542713D01*
X655628Y542836D01*
X655784Y542951D01*
X655964Y543057D01*
X656153Y543156D01*
X656358Y543238D01*
X656579Y543312D01*
X656817Y543369D01*
X657071Y543418D01*
X657350Y543443D01*
X657637Y543451D01*
X657645D01*
X657670D01*
X657719D01*
X657776Y543443D01*
D02*
G37*
G36*
X660827Y534939D02*
X657637D01*
X657629D01*
X657612D01*
X657588D01*
X657547D01*
X657498D01*
X657440Y534931D01*
X657301Y534923D01*
X657145Y534906D01*
X656964Y534882D01*
X656768Y534849D01*
X656571Y534808D01*
X656374Y534751D01*
X656177Y534677D01*
X655997Y534595D01*
X655841Y534488D01*
X655702Y534365D01*
X655644Y534300D01*
X655595Y534226D01*
X655554Y534144D01*
X655530Y534062D01*
X655513Y533972D01*
X655505Y533873D01*
Y533824D01*
X655521Y533775D01*
X655538Y533709D01*
X655571Y533627D01*
X655620Y533537D01*
X655685Y533439D01*
X655767Y533340D01*
X655882Y533242D01*
X656022Y533144D01*
X656104Y533103D01*
X656194Y533053D01*
X656300Y533012D01*
X656407Y532971D01*
X656522Y532938D01*
X656645Y532906D01*
X656784Y532881D01*
X656932Y532857D01*
X657088Y532832D01*
X657260Y532816D01*
X657440Y532807D01*
X657637D01*
X660827D01*
Y531741D01*
X657637D01*
X657539D01*
X657530D01*
X657514D01*
X657489D01*
X657448D01*
X657407Y531733D01*
X657350D01*
X657219Y531717D01*
X657063Y531700D01*
X656891Y531676D01*
X656710Y531643D01*
X656522Y531594D01*
X656333Y531536D01*
X656145Y531471D01*
X655972Y531381D01*
X655825Y531282D01*
X655693Y531159D01*
X655636Y531094D01*
X655595Y531020D01*
X655554Y530938D01*
X655530Y530856D01*
X655513Y530765D01*
X655505Y530675D01*
Y530626D01*
X655521Y530577D01*
X655538Y530511D01*
X655571Y530429D01*
X655620Y530339D01*
X655685Y530241D01*
X655767Y530142D01*
X655882Y530044D01*
X656022Y529946D01*
X656104Y529905D01*
X656194Y529855D01*
X656300Y529814D01*
X656407Y529773D01*
X656522Y529740D01*
X656645Y529708D01*
X656784Y529683D01*
X656932Y529659D01*
X657088Y529634D01*
X657260Y529618D01*
X657440Y529609D01*
X657637D01*
X660827D01*
Y528543D01*
X657637D01*
X657629D01*
X657604D01*
X657555D01*
X657498Y528551D01*
X657424D01*
X657342Y528560D01*
X657243Y528568D01*
X657137Y528576D01*
X657022Y528592D01*
X656899Y528609D01*
X656628Y528658D01*
X656333Y528724D01*
X656038Y528814D01*
X655743Y528921D01*
X655447Y529068D01*
X655316Y529150D01*
X655177Y529240D01*
X655054Y529339D01*
X654939Y529445D01*
X654833Y529560D01*
X654734Y529683D01*
X654652Y529822D01*
X654578Y529970D01*
X654521Y530134D01*
X654472Y530298D01*
X654447Y530478D01*
X654439Y530675D01*
Y530724D01*
X654447Y530774D01*
Y530848D01*
X654464Y530938D01*
X654480Y531044D01*
X654505Y531151D01*
X654537Y531274D01*
X654578Y531405D01*
X654636Y531536D01*
X654701Y531668D01*
X654775Y531799D01*
X654874Y531930D01*
X654980Y532053D01*
X655103Y532168D01*
X655243Y532274D01*
X655234Y532282D01*
X655210Y532299D01*
X655169Y532332D01*
X655120Y532373D01*
X655054Y532430D01*
X654988Y532496D01*
X654915Y532578D01*
X654841Y532676D01*
X654767Y532783D01*
X654693Y532898D01*
X654628Y533029D01*
X654562Y533176D01*
X654513Y533332D01*
X654472Y533496D01*
X654447Y533676D01*
X654439Y533873D01*
Y533922D01*
X654447Y533963D01*
Y534013D01*
X654464Y534070D01*
X654488Y534209D01*
X654537Y534365D01*
X654611Y534546D01*
X654652Y534644D01*
X654710Y534742D01*
X654767Y534841D01*
X654841Y534939D01*
X654915Y535038D01*
X655005Y535136D01*
X655111Y535234D01*
X655218Y535333D01*
X655341Y535423D01*
X655480Y535513D01*
X655628Y535595D01*
X655784Y535669D01*
X655964Y535743D01*
X656153Y535809D01*
X656358Y535866D01*
X656579Y535915D01*
X656817Y535956D01*
X657071Y535981D01*
X657350Y535997D01*
X657637Y536005D01*
X660827D01*
Y534939D01*
D02*
G37*
%LPC*%
G36*
X640274Y635571D02*
X640258D01*
X640225D01*
X640175D01*
X640094D01*
X639995Y635555D01*
X639880Y635538D01*
X639602Y635505D01*
X639290Y635440D01*
X638929Y635342D01*
X638535Y635210D01*
X638142Y635046D01*
X637748Y634817D01*
X637355Y634538D01*
X637174Y634374D01*
X636994Y634194D01*
X636830Y633980D01*
X636682Y633767D01*
X636535Y633537D01*
X636404Y633291D01*
X636289Y633013D01*
X636190Y632718D01*
X636108Y632406D01*
X636059Y632061D01*
X636026Y631701D01*
X636010Y631307D01*
Y631127D01*
X636026Y631028D01*
X636043Y630913D01*
X636075Y630651D01*
X636141Y630323D01*
X636239Y629962D01*
X636371Y629585D01*
X636535Y629191D01*
X636764Y628782D01*
X637043Y628404D01*
X637207Y628224D01*
X637388Y628044D01*
X637601Y627879D01*
X637814Y627732D01*
X638043Y627584D01*
X638289Y627453D01*
X638568Y627338D01*
X638864Y627240D01*
X639175Y627158D01*
X639520Y627109D01*
X639880Y627076D01*
X640274Y627060D01*
X640290D01*
X640323D01*
X640372D01*
X640454Y627076D01*
X640553D01*
X640667Y627092D01*
X640930Y627125D01*
X641258Y627191D01*
X641619Y627289D01*
X641996Y627420D01*
X642389Y627584D01*
X642800Y627814D01*
X643177Y628093D01*
X643357Y628257D01*
X643538Y628437D01*
X643702Y628634D01*
X643849Y628847D01*
X643997Y629093D01*
X644128Y629339D01*
X644243Y629618D01*
X644341Y629913D01*
X644423Y630225D01*
X644472Y630553D01*
X644505Y630913D01*
X644522Y631307D01*
Y631405D01*
X644505Y631488D01*
Y631586D01*
X644489Y631701D01*
X644456Y631980D01*
X644390Y632291D01*
X644292Y632652D01*
X644161Y633045D01*
X643997Y633439D01*
X643767Y633833D01*
X643488Y634226D01*
X643324Y634407D01*
X643144Y634587D01*
X642947Y634751D01*
X642734Y634899D01*
X642488Y635046D01*
X642242Y635178D01*
X641963Y635292D01*
X641668Y635391D01*
X641356Y635473D01*
X641028Y635522D01*
X640667Y635555D01*
X640274Y635571D01*
D02*
G37*
G36*
Y605756D02*
X640258D01*
X640225D01*
X640175D01*
X640094D01*
X639995Y605739D01*
X639880Y605723D01*
X639602Y605690D01*
X639290Y605625D01*
X638929Y605526D01*
X638535Y605395D01*
X638142Y605231D01*
X637748Y605001D01*
X637355Y604723D01*
X637174Y604559D01*
X636994Y604378D01*
X636830Y604165D01*
X636682Y603952D01*
X636535Y603722D01*
X636404Y603476D01*
X636289Y603197D01*
X636190Y602902D01*
X636108Y602591D01*
X636059Y602246D01*
X636026Y601886D01*
X636010Y601492D01*
Y601311D01*
X636026Y601213D01*
X636043Y601098D01*
X636075Y600836D01*
X636141Y600508D01*
X636239Y600147D01*
X636371Y599770D01*
X636535Y599376D01*
X636764Y598966D01*
X637043Y598589D01*
X637207Y598409D01*
X637388Y598228D01*
X637601Y598064D01*
X637814Y597917D01*
X638043Y597769D01*
X638289Y597638D01*
X638568Y597523D01*
X638864Y597425D01*
X639175Y597343D01*
X639520Y597294D01*
X639880Y597261D01*
X640274Y597244D01*
X640290D01*
X640323D01*
X640372D01*
X640454Y597261D01*
X640553D01*
X640667Y597277D01*
X640930Y597310D01*
X641258Y597375D01*
X641619Y597474D01*
X641996Y597605D01*
X642389Y597769D01*
X642800Y597999D01*
X643177Y598278D01*
X643357Y598442D01*
X643538Y598622D01*
X643702Y598819D01*
X643849Y599032D01*
X643997Y599278D01*
X644128Y599524D01*
X644243Y599803D01*
X644341Y600098D01*
X644423Y600410D01*
X644472Y600737D01*
X644505Y601098D01*
X644522Y601492D01*
Y601590D01*
X644505Y601672D01*
Y601771D01*
X644489Y601886D01*
X644456Y602164D01*
X644390Y602476D01*
X644292Y602837D01*
X644161Y603230D01*
X643997Y603624D01*
X643767Y604017D01*
X643488Y604411D01*
X643324Y604592D01*
X643144Y604772D01*
X642947Y604936D01*
X642734Y605084D01*
X642488Y605231D01*
X642242Y605362D01*
X641963Y605477D01*
X641668Y605576D01*
X641356Y605657D01*
X641028Y605707D01*
X640667Y605739D01*
X640274Y605756D01*
D02*
G37*
G36*
X657637Y587378D02*
X657629D01*
X657612D01*
X657588D01*
X657547D01*
X657498Y587370D01*
X657440Y587362D01*
X657301Y587346D01*
X657145Y587313D01*
X656964Y587263D01*
X656768Y587198D01*
X656571Y587116D01*
X656374Y587001D01*
X656177Y586862D01*
X656087Y586780D01*
X655997Y586690D01*
X655915Y586583D01*
X655841Y586476D01*
X655767Y586362D01*
X655702Y586238D01*
X655644Y586099D01*
X655595Y585952D01*
X655554Y585796D01*
X655530Y585624D01*
X655513Y585443D01*
X655505Y585246D01*
Y585156D01*
X655513Y585107D01*
X655521Y585049D01*
X655538Y584918D01*
X655571Y584754D01*
X655620Y584574D01*
X655685Y584385D01*
X655767Y584189D01*
X655882Y583984D01*
X656022Y583795D01*
X656104Y583705D01*
X656194Y583614D01*
X656300Y583532D01*
X656407Y583459D01*
X656522Y583385D01*
X656645Y583319D01*
X656784Y583262D01*
X656932Y583213D01*
X657088Y583172D01*
X657260Y583147D01*
X657440Y583131D01*
X657637Y583122D01*
X657645D01*
X657661D01*
X657686D01*
X657727Y583131D01*
X657776D01*
X657834Y583139D01*
X657965Y583155D01*
X658129Y583188D01*
X658309Y583237D01*
X658498Y583303D01*
X658695Y583385D01*
X658900Y583500D01*
X659088Y583639D01*
X659178Y583721D01*
X659269Y583811D01*
X659351Y583910D01*
X659424Y584016D01*
X659498Y584139D01*
X659564Y584262D01*
X659621Y584402D01*
X659671Y584549D01*
X659712Y584705D01*
X659736Y584869D01*
X659753Y585049D01*
X659761Y585246D01*
Y585295D01*
X659753Y585336D01*
Y585386D01*
X659744Y585443D01*
X659728Y585582D01*
X659695Y585738D01*
X659646Y585919D01*
X659580Y586116D01*
X659498Y586312D01*
X659384Y586509D01*
X659244Y586706D01*
X659162Y586796D01*
X659072Y586886D01*
X658974Y586968D01*
X658867Y587042D01*
X658744Y587116D01*
X658621Y587182D01*
X658482Y587239D01*
X658334Y587288D01*
X658178Y587329D01*
X658014Y587354D01*
X657834Y587370D01*
X657637Y587378D01*
D02*
G37*
G36*
Y542385D02*
X657629D01*
X657612D01*
X657588D01*
X657547D01*
X657498Y542377D01*
X657440Y542369D01*
X657301Y542352D01*
X657145Y542319D01*
X656964Y542270D01*
X656768Y542205D01*
X656571Y542123D01*
X656374Y542008D01*
X656177Y541868D01*
X656087Y541786D01*
X655997Y541696D01*
X655915Y541589D01*
X655841Y541483D01*
X655767Y541368D01*
X655702Y541245D01*
X655644Y541106D01*
X655595Y540958D01*
X655554Y540802D01*
X655530Y540630D01*
X655513Y540450D01*
X655505Y540253D01*
Y540163D01*
X655513Y540113D01*
X655521Y540056D01*
X655538Y539925D01*
X655571Y539761D01*
X655620Y539580D01*
X655685Y539392D01*
X655767Y539195D01*
X655882Y538990D01*
X656022Y538801D01*
X656104Y538711D01*
X656194Y538621D01*
X656300Y538539D01*
X656407Y538465D01*
X656522Y538391D01*
X656645Y538326D01*
X656784Y538269D01*
X656932Y538219D01*
X657088Y538178D01*
X657260Y538154D01*
X657440Y538137D01*
X657637Y538129D01*
X657645D01*
X657661D01*
X657686D01*
X657727Y538137D01*
X657776D01*
X657834Y538145D01*
X657965Y538162D01*
X658129Y538195D01*
X658309Y538244D01*
X658498Y538309D01*
X658695Y538391D01*
X658900Y538506D01*
X659088Y538646D01*
X659178Y538728D01*
X659269Y538818D01*
X659351Y538916D01*
X659424Y539023D01*
X659498Y539146D01*
X659564Y539269D01*
X659621Y539408D01*
X659671Y539556D01*
X659712Y539712D01*
X659736Y539876D01*
X659753Y540056D01*
X659761Y540253D01*
Y540302D01*
X659753Y540343D01*
Y540392D01*
X659744Y540450D01*
X659728Y540589D01*
X659695Y540745D01*
X659646Y540925D01*
X659580Y541122D01*
X659498Y541319D01*
X659384Y541516D01*
X659244Y541713D01*
X659162Y541803D01*
X659072Y541893D01*
X658974Y541975D01*
X658867Y542049D01*
X658744Y542123D01*
X658621Y542188D01*
X658482Y542245D01*
X658334Y542295D01*
X658178Y542336D01*
X658014Y542360D01*
X657834Y542377D01*
X657637Y542385D01*
D02*
G37*
%LPD*%
D10*
X176575Y575591D02*
X175787D01*
X176575D01*
Y122835D02*
X175787D01*
X176575D01*
Y693701D02*
X175787D01*
X176575D01*
Y398425D02*
X175787D01*
X176575D01*
X529528Y551575D02*
Y564567D01*
Y577953D02*
Y585472D01*
X521850D02*
X529528D01*
X179134D02*
X189567D01*
X179134Y551575D02*
Y585472D01*
Y551575D02*
X529528D01*
X560039Y751968D02*
Y783465D01*
Y751968D02*
X566929D01*
X574803D02*
X586614D01*
X594488D02*
X606299D01*
X614173D02*
X625984D01*
X660433D02*
Y783465D01*
X560039D02*
X660433D01*
X653543Y751968D02*
X660433D01*
X633858D02*
X645669D01*
X349410Y784449D02*
X437992D01*
X349410Y736127D02*
X419291D01*
X437992D01*
X349410D02*
Y784449D01*
X437992Y736127D02*
Y784449D01*
X529528Y98819D02*
Y111811D01*
Y125197D02*
Y132717D01*
X521850D02*
X529528D01*
X179134D02*
X189567D01*
X179134Y98819D02*
Y132717D01*
Y98819D02*
X529528D01*
X570079Y-807D02*
Y39193D01*
Y-807D02*
X611024D01*
Y39193D01*
X601024D02*
X611024D01*
X589213D02*
X591890D01*
X570079D02*
X580079D01*
X458661Y51275D02*
X486221D01*
X458661Y2953D02*
Y51275D01*
Y2953D02*
X486221D01*
Y51275D01*
X-807Y591339D02*
X39193D01*
X-807Y550394D02*
Y591339D01*
Y550394D02*
X39193D01*
Y560394D01*
Y569528D02*
Y572205D01*
Y581339D02*
Y591339D01*
X399606Y51275D02*
X427165D01*
X399606Y2953D02*
Y51275D01*
Y2953D02*
X427165D01*
Y51275D01*
X517717D02*
X545276D01*
X517717Y2953D02*
Y51275D01*
Y2953D02*
X545276D01*
Y51275D01*
X748209Y589764D02*
X788209D01*
Y630709D01*
X748209D02*
X788209D01*
X748209Y620709D02*
Y630709D01*
Y608898D02*
Y611575D01*
Y589764D02*
Y599764D01*
X335433Y748209D02*
Y788209D01*
X294488D02*
X335433D01*
X294488Y748209D02*
Y788209D01*
Y748209D02*
X304488D01*
X313622D02*
X316299D01*
X325433D02*
X335433D01*
X733465Y533465D02*
X790158D01*
Y568898D01*
X733465Y533465D02*
Y541732D01*
X756496Y568898D02*
X790158D01*
X733465D02*
X739567D01*
X733465Y560630D02*
Y568898D01*
X733465Y474409D02*
X790158D01*
Y509842D01*
X733465Y474409D02*
Y482677D01*
X756496Y509842D02*
X790158D01*
X733465D02*
X739567D01*
X733465Y501575D02*
Y509842D01*
X51275Y616142D02*
Y643701D01*
X2953D02*
X51275D01*
X2953Y616142D02*
Y643701D01*
Y616142D02*
X51275D01*
X529528Y669685D02*
Y682677D01*
Y696063D02*
Y703583D01*
X521850D02*
X529528D01*
X179134D02*
X189567D01*
X179134Y669685D02*
Y703583D01*
Y669685D02*
X529528D01*
X736127Y676870D02*
X784449D01*
X736127Y740453D02*
X784449D01*
X736127Y676870D02*
Y683071D01*
Y740453D01*
X784449Y676870D02*
Y740453D01*
X2953D02*
X51275D01*
X2953Y676870D02*
X51275D01*
Y734252D02*
Y740453D01*
Y676870D02*
Y734252D01*
X2953Y676870D02*
Y740453D01*
Y428150D02*
Y516732D01*
X51275Y428150D02*
Y498032D01*
Y516732D01*
X2953Y428150D02*
X51275D01*
X2953Y516732D02*
X51275D01*
X736127Y46949D02*
X784449D01*
X736127Y110531D02*
X784449D01*
X736127Y46949D02*
Y53150D01*
Y110531D01*
X784449Y46949D02*
Y110531D01*
X2953D02*
X51275D01*
X2953Y46949D02*
X51275D01*
Y104331D02*
Y110531D01*
Y46949D02*
Y104331D01*
X2953Y46949D02*
Y110531D01*
X529528Y374410D02*
Y387402D01*
Y400787D02*
Y408307D01*
X521850D02*
X529528D01*
X179134D02*
X189567D01*
X179134Y374410D02*
Y408307D01*
Y374410D02*
X529528D01*
X705512Y243839D02*
Y307343D01*
X790512Y243839D02*
Y307343D01*
X741590Y243839D02*
X790512D01*
X705512D02*
X730457D01*
X705512Y307343D02*
X730457D01*
X741590D02*
X790512D01*
X705512Y401319D02*
Y464823D01*
X790512Y401319D02*
Y464823D01*
X741591Y401319D02*
X790512D01*
X705512D02*
X730457D01*
X705512Y464823D02*
X730457D01*
X741591D02*
X790512D01*
X705512Y165098D02*
Y228602D01*
X790512Y165098D02*
Y228602D01*
X741590Y165098D02*
X790512D01*
X705512D02*
X730457D01*
X705512Y228602D02*
X730457D01*
X741590D02*
X790512D01*
X705512Y322579D02*
Y386083D01*
X790512Y322579D02*
Y386083D01*
X741590Y322579D02*
X790512D01*
X705512D02*
X730457D01*
X705512Y386083D02*
X730457D01*
X741590D02*
X790512D01*
D11*
X656666Y748130D02*
X656141Y748853D01*
X655290Y748577D01*
Y747683D01*
X656141Y747407D01*
X656666Y748130D01*
D12*
X376476Y767677D02*
X375738Y768103D01*
Y767251D01*
X376476Y767677D01*
X612894Y35394D02*
X612155Y35820D01*
Y34967D01*
X612894Y35394D01*
X490650Y19724D02*
X489911Y20151D01*
Y19298D01*
X490650Y19724D01*
X35886Y549016D02*
X35148Y549442D01*
Y548590D01*
X35886Y549016D01*
X431595Y19724D02*
X430856Y20151D01*
Y19298D01*
X431595Y19724D01*
X549705D02*
X548967Y20151D01*
Y19298D01*
X549705Y19724D01*
X752500Y632087D02*
X751762Y632513D01*
Y631660D01*
X752500Y632087D01*
X293602Y752008D02*
X292864Y752434D01*
Y751582D01*
X293602Y752008D01*
X731595Y551181D02*
X730856Y551607D01*
Y550755D01*
X731595Y551181D01*
X731595Y492126D02*
X730856Y492552D01*
Y491700D01*
X731595Y492126D01*
X20216Y612205D02*
X19478Y612631D01*
Y611778D01*
X20216Y612205D01*
X768169Y726378D02*
X767431Y726804D01*
Y725952D01*
X768169Y726378D01*
X20216Y690945D02*
X19478Y691371D01*
Y690519D01*
X20216Y690945D01*
Y454724D02*
X19478Y455151D01*
Y454298D01*
X20216Y454724D01*
X768169Y96457D02*
X767431Y96883D01*
Y96030D01*
X768169Y96457D01*
X20216Y61024D02*
X19478Y61450D01*
Y60597D01*
X20216Y61024D01*
D13*
X330709Y173228D02*
Y215551D01*
X448819Y173228D02*
Y215551D01*
X330709Y173228D02*
X448819D01*
X330709Y215551D02*
X448819D01*
X193600Y608922D02*
X190977Y611546D01*
X185729D01*
X183105Y608922D01*
Y606298D01*
X185729Y603674D01*
X190977D01*
X193600Y601050D01*
Y598426D01*
X190977Y595803D01*
X185729D01*
X183105Y598426D01*
X198848Y611546D02*
Y608922D01*
X204096Y603674D01*
X209344Y608922D01*
Y611546D01*
X204096Y603674D02*
Y595803D01*
X225086Y608922D02*
X222463Y611546D01*
X217215D01*
X214591Y608922D01*
Y606298D01*
X217215Y603674D01*
X222463D01*
X225086Y601050D01*
Y598426D01*
X222463Y595803D01*
X217215D01*
X214591Y598426D01*
X230334Y593179D02*
X240829D01*
X256572Y608922D02*
X253948Y611546D01*
X248701D01*
X246077Y608922D01*
Y598426D01*
X248701Y595803D01*
X253948D01*
X256572Y598426D01*
X261820Y595803D02*
Y611546D01*
X272315Y595803D01*
Y611546D01*
X277563D02*
X288058D01*
X282810D01*
Y595803D01*
X293306D02*
Y611546D01*
X301177D01*
X303801Y608922D01*
Y603674D01*
X301177Y601050D01*
X293306D01*
X298553D02*
X303801Y595803D01*
X309049Y611546D02*
Y595803D01*
X319544D01*
X324792Y593179D02*
X335287D01*
X340535Y611546D02*
Y598426D01*
X343159Y595803D01*
X348406D01*
X351030Y598426D01*
Y611546D01*
X356278Y595803D02*
Y611546D01*
X366773Y595803D01*
Y611546D01*
X372021D02*
X377268D01*
X374644D01*
Y595803D01*
X372021D01*
X377268D01*
X385140Y611546D02*
X395635D01*
X390387D01*
Y595803D01*
X183105Y713913D02*
Y729656D01*
X190977D01*
X193600Y727032D01*
Y721784D01*
X190977Y719161D01*
X183105D01*
X198848Y729656D02*
Y713913D01*
X204096Y719161D01*
X209344Y713913D01*
Y729656D01*
X214591Y713913D02*
Y729656D01*
X222463D01*
X225086Y727032D01*
Y721784D01*
X222463Y719161D01*
X214591D01*
X219839D02*
X225086Y713913D01*
X230334Y711289D02*
X240829D01*
X256572Y727032D02*
X253948Y729656D01*
X248701D01*
X246077Y727032D01*
Y716537D01*
X248701Y713913D01*
X253948D01*
X256572Y716537D01*
X261820Y713913D02*
Y729656D01*
X272315Y713913D01*
Y729656D01*
X277563D02*
X288058D01*
X282810D01*
Y713913D01*
X293306D02*
Y729656D01*
X301177D01*
X303801Y727032D01*
Y721784D01*
X301177Y719161D01*
X293306D01*
X298553D02*
X303801Y713913D01*
X309049Y729656D02*
Y713913D01*
X319544D01*
X324792Y711289D02*
X335287D01*
X340535Y729656D02*
Y716537D01*
X343159Y713913D01*
X348406D01*
X351030Y716537D01*
Y729656D01*
X356278Y713913D02*
Y729656D01*
X366773Y713913D01*
Y729656D01*
X372021D02*
X377268D01*
X374644D01*
Y713913D01*
X372021D01*
X377268D01*
X385140Y729656D02*
X395635D01*
X390387D01*
Y713913D01*
X718112Y766911D02*
X729919D01*
X725983Y762975D01*
X729919Y759039D01*
X718112D01*
X729919Y749200D02*
Y753136D01*
X727951Y755103D01*
X720080D01*
X718112Y753136D01*
Y749200D01*
X720080Y747232D01*
X727951D01*
X729919Y749200D01*
Y743296D02*
Y735425D01*
Y739361D01*
X718112D01*
X729919Y725586D02*
Y729521D01*
X727951Y731489D01*
X720080D01*
X718112Y729521D01*
Y725586D01*
X720080Y723618D01*
X727951D01*
X729919Y725586D01*
X718112Y719682D02*
X729919D01*
Y713778D01*
X727951Y711810D01*
X724015D01*
X722048Y713778D01*
Y719682D01*
Y715746D02*
X718112Y711810D01*
Y701971D02*
X729919D01*
X724015Y707875D01*
Y700003D01*
X716144Y696067D02*
Y688196D01*
X729919Y678357D02*
Y682292D01*
X727951Y684260D01*
X720080D01*
X718112Y682292D01*
Y678357D01*
X720080Y676389D01*
X727951D01*
X729919Y678357D01*
Y672453D02*
X720080D01*
X718112Y670485D01*
Y666549D01*
X720080Y664582D01*
X729919D01*
Y660646D02*
Y652774D01*
Y656710D01*
X718112D01*
X717915Y137383D02*
X729722D01*
X725786Y133447D01*
X729722Y129512D01*
X717915D01*
X729722Y119672D02*
Y123608D01*
X727754Y125576D01*
X719883D01*
X717915Y123608D01*
Y119672D01*
X719883Y117704D01*
X727754D01*
X729722Y119672D01*
Y113769D02*
Y105897D01*
Y109833D01*
X717915D01*
X729722Y96058D02*
Y99994D01*
X727754Y101962D01*
X719883D01*
X717915Y99994D01*
Y96058D01*
X719883Y94090D01*
X727754D01*
X729722Y96058D01*
X717915Y90154D02*
X729722D01*
Y84251D01*
X727754Y82283D01*
X723819D01*
X721851Y84251D01*
Y90154D01*
Y86219D02*
X717915Y82283D01*
X727754Y78347D02*
X729722Y76379D01*
Y72443D01*
X727754Y70476D01*
X725786D01*
X723819Y72443D01*
Y74411D01*
Y72443D01*
X721851Y70476D01*
X719883D01*
X717915Y72443D01*
Y76379D01*
X719883Y78347D01*
X715947Y66540D02*
Y58668D01*
X729722Y48829D02*
Y52765D01*
X727754Y54733D01*
X719883D01*
X717915Y52765D01*
Y48829D01*
X719883Y46861D01*
X727754D01*
X729722Y48829D01*
Y42926D02*
X719883D01*
X717915Y40958D01*
Y37022D01*
X719883Y35054D01*
X729722D01*
Y31118D02*
Y23247D01*
Y27183D01*
X717915D01*
X69880Y22459D02*
X58073D01*
X62009Y26395D01*
X58073Y30331D01*
X69880D01*
X58073Y40170D02*
Y36235D01*
X60041Y34267D01*
X67912D01*
X69880Y36235D01*
Y40170D01*
X67912Y42138D01*
X60041D01*
X58073Y40170D01*
Y46074D02*
Y53945D01*
Y50010D01*
X69880D01*
X58073Y63785D02*
Y59849D01*
X60041Y57881D01*
X67912D01*
X69880Y59849D01*
Y63785D01*
X67912Y65753D01*
X60041D01*
X58073Y63785D01*
X69880Y69688D02*
X58073D01*
Y75592D01*
X60041Y77560D01*
X63977D01*
X65945Y75592D01*
Y69688D01*
Y73624D02*
X69880Y77560D01*
Y89367D02*
Y81495D01*
X62009Y89367D01*
X60041D01*
X58073Y87399D01*
Y83463D01*
X60041Y81495D01*
X71848Y93303D02*
Y101174D01*
X58073Y111013D02*
Y107078D01*
X60041Y105110D01*
X67912D01*
X69880Y107078D01*
Y111013D01*
X67912Y112981D01*
X60041D01*
X58073Y111013D01*
Y116917D02*
X67912D01*
X69880Y118885D01*
Y122821D01*
X67912Y124788D01*
X58073D01*
Y128724D02*
Y136596D01*
Y132660D01*
X69880D01*
X69093Y651987D02*
X57286D01*
X61221Y655922D01*
X57286Y659858D01*
X69093D01*
X57286Y669698D02*
Y665762D01*
X59254Y663794D01*
X67125D01*
X69093Y665762D01*
Y669698D01*
X67125Y671665D01*
X59254D01*
X57286Y669698D01*
Y675601D02*
Y683472D01*
Y679537D01*
X69093D01*
X57286Y693312D02*
Y689376D01*
X59254Y687408D01*
X67125D01*
X69093Y689376D01*
Y693312D01*
X67125Y695280D01*
X59254D01*
X57286Y693312D01*
X69093Y699216D02*
X57286D01*
Y705119D01*
X59254Y707087D01*
X63189D01*
X65157Y705119D01*
Y699216D01*
Y703151D02*
X69093Y707087D01*
Y711023D02*
Y714958D01*
Y712991D01*
X57286D01*
X59254Y711023D01*
X71061Y720862D02*
Y728733D01*
X57286Y738573D02*
Y734637D01*
X59254Y732669D01*
X67125D01*
X69093Y734637D01*
Y738573D01*
X67125Y740541D01*
X59254D01*
X57286Y738573D01*
Y744476D02*
X67125D01*
X69093Y746444D01*
Y750380D01*
X67125Y752348D01*
X57286D01*
Y756284D02*
Y764155D01*
Y760219D01*
X69093D01*
X61222Y441939D02*
X59254Y439971D01*
Y436035D01*
X61222Y434067D01*
X69093D01*
X71061Y436035D01*
Y439971D01*
X69093Y441939D01*
X65158D01*
Y438003D01*
X59254Y445875D02*
Y449811D01*
Y447843D01*
X71061D01*
Y445875D01*
Y449811D01*
X61222Y463586D02*
X59254Y461618D01*
Y457682D01*
X61222Y455714D01*
X69093D01*
X71061Y457682D01*
Y461618D01*
X69093Y463586D01*
X65158D01*
Y459650D01*
X71061Y467521D02*
X63190D01*
X59254Y471457D01*
X63190Y475393D01*
X71061D01*
X65158D01*
Y467521D01*
X59254Y479328D02*
X67125D01*
X71061Y483264D01*
X67125Y487200D01*
X59254D01*
X71061Y491136D02*
X63190D01*
X59254Y495071D01*
X63190Y499007D01*
X71061D01*
X65158D01*
Y491136D01*
X61222Y510814D02*
X59254Y508847D01*
Y504911D01*
X61222Y502943D01*
X69093D01*
X71061Y504911D01*
Y508847D01*
X69093Y510814D01*
X186393Y158790D02*
Y143047D01*
X194265D01*
X196889Y145671D01*
Y156166D01*
X194265Y158790D01*
X186393D01*
X202136Y143047D02*
Y158790D01*
X210008D01*
X212632Y156166D01*
Y150918D01*
X210008Y148294D01*
X202136D01*
X207384D02*
X212632Y143047D01*
X217879Y158790D02*
X223127D01*
X220503D01*
Y143047D01*
X217879D01*
X223127D01*
X230998Y158790D02*
Y148294D01*
X236246Y143047D01*
X241494Y148294D01*
Y158790D01*
X257237D02*
X246741D01*
Y143047D01*
X257237D01*
X246741Y150918D02*
X251989D01*
X262484Y140423D02*
X272979D01*
X288722Y156166D02*
X286099Y158790D01*
X280851D01*
X278227Y156166D01*
Y145671D01*
X280851Y143047D01*
X286099D01*
X288722Y145671D01*
X293970Y143047D02*
Y158790D01*
X304465Y143047D01*
Y158790D01*
X309713D02*
X320208D01*
X314961D01*
Y143047D01*
X325456D02*
Y158790D01*
X333327D01*
X335951Y156166D01*
Y150918D01*
X333327Y148294D01*
X325456D01*
X330704D02*
X335951Y143047D01*
X341199Y158790D02*
Y143047D01*
X351694D01*
X356942Y140423D02*
X367437D01*
X372685Y158790D02*
Y145671D01*
X375309Y143047D01*
X380556D01*
X383180Y145671D01*
Y158790D01*
X388428Y143047D02*
Y158790D01*
X398923Y143047D01*
Y158790D01*
X404171D02*
X409418D01*
X406795D01*
Y143047D01*
X404171D01*
X409418D01*
X417290Y158790D02*
X427785D01*
X422537D01*
Y143047D01*
X443528D02*
X433033D01*
X443528Y153542D01*
Y156166D01*
X440904Y158790D01*
X435656D01*
X433033Y156166D01*
X189017Y434380D02*
Y418637D01*
X196889D01*
X199512Y421261D01*
Y431756D01*
X196889Y434380D01*
X189017D01*
X204760Y418637D02*
Y434380D01*
X212632D01*
X215255Y431756D01*
Y426509D01*
X212632Y423885D01*
X204760D01*
X210008D02*
X215255Y418637D01*
X220503Y434380D02*
X225751D01*
X223127D01*
Y418637D01*
X220503D01*
X225751D01*
X233622Y434380D02*
Y423885D01*
X238870Y418637D01*
X244117Y423885D01*
Y434380D01*
X259860D02*
X249365D01*
Y418637D01*
X259860D01*
X249365Y426509D02*
X254613D01*
X265108Y416013D02*
X275603D01*
X291346Y431756D02*
X288722Y434380D01*
X283475D01*
X280851Y431756D01*
Y421261D01*
X283475Y418637D01*
X288722D01*
X291346Y421261D01*
X296594Y418637D02*
Y434380D01*
X307089Y418637D01*
Y434380D01*
X312337D02*
X322832D01*
X317584D01*
Y418637D01*
X328080D02*
Y434380D01*
X335951D01*
X338575Y431756D01*
Y426509D01*
X335951Y423885D01*
X328080D01*
X333327D02*
X338575Y418637D01*
X343823Y434380D02*
Y418637D01*
X354318D01*
X359566Y416013D02*
X370061D01*
X375309Y434380D02*
Y421261D01*
X377932Y418637D01*
X383180D01*
X385804Y421261D01*
Y434380D01*
X391052Y418637D02*
Y434380D01*
X401547Y418637D01*
Y434380D01*
X406795D02*
X412042D01*
X409418D01*
Y418637D01*
X406795D01*
X412042D01*
X419914Y434380D02*
X430409D01*
X425161D01*
Y418637D01*
X435656D02*
X440904D01*
X438280D01*
Y434380D01*
X435656Y431756D01*
D14*
X295224Y227245D02*
X293912Y228556D01*
X291288D01*
X289976Y227245D01*
Y225933D01*
X291288Y224621D01*
X293912D01*
X295224Y223309D01*
Y221997D01*
X293912Y220685D01*
X291288D01*
X289976Y221997D01*
X301784Y228556D02*
X299160D01*
X297848Y227245D01*
Y221997D01*
X299160Y220685D01*
X301784D01*
X303096Y221997D01*
Y227245D01*
X301784Y228556D01*
X305719D02*
Y220685D01*
X310967D01*
X313591Y228556D02*
Y220685D01*
X317527D01*
X318839Y221997D01*
Y227245D01*
X317527Y228556D01*
X313591D01*
X326710D02*
X321462D01*
Y220685D01*
X326710D01*
X321462Y224621D02*
X324086D01*
X329334Y220685D02*
Y228556D01*
X333270D01*
X334581Y227245D01*
Y224621D01*
X333270Y223309D01*
X329334D01*
X331958D02*
X334581Y220685D01*
X345077Y228556D02*
X350324D01*
X347701D01*
Y220685D01*
X356884Y228556D02*
X354260D01*
X352948Y227245D01*
Y221997D01*
X354260Y220685D01*
X356884D01*
X358196Y221997D01*
Y227245D01*
X356884Y228556D01*
X372627D02*
X370003D01*
X368691Y227245D01*
Y221997D01*
X370003Y220685D01*
X372627D01*
X373939Y221997D01*
Y227245D01*
X372627Y228556D01*
X376563Y220685D02*
Y228556D01*
X380498D01*
X381810Y227245D01*
Y224621D01*
X380498Y223309D01*
X376563D01*
X389682Y228556D02*
X384434D01*
Y220685D01*
X389682D01*
X384434Y224621D02*
X387058D01*
X392306Y220685D02*
Y228556D01*
X396241D01*
X397553Y227245D01*
Y224621D01*
X396241Y223309D01*
X392306D01*
X394929D02*
X397553Y220685D01*
X400177D02*
Y225933D01*
X402801Y228556D01*
X405425Y225933D01*
Y220685D01*
Y224621D01*
X400177D01*
X408049Y228556D02*
X413296D01*
X410672D01*
Y220685D01*
X421168Y228556D02*
X415920D01*
Y220685D01*
X421168D01*
X415920Y224621D02*
X418544D01*
X431663Y228556D02*
X434287D01*
X432975D01*
Y220685D01*
X431663D01*
X434287D01*
X438223D02*
Y228556D01*
X443470Y220685D01*
Y228556D01*
X459213Y227245D02*
X457901Y228556D01*
X455277D01*
X453966Y227245D01*
Y225933D01*
X455277Y224621D01*
X457901D01*
X459213Y223309D01*
Y221997D01*
X457901Y220685D01*
X455277D01*
X453966Y221997D01*
X461837Y228556D02*
Y227245D01*
X464461Y224621D01*
X467085Y227245D01*
Y228556D01*
X464461Y224621D02*
Y220685D01*
X469708D02*
Y228556D01*
X474956Y220685D01*
Y228556D01*
X482828Y227245D02*
X481516Y228556D01*
X478892D01*
X477580Y227245D01*
Y221997D01*
X478892Y220685D01*
X481516D01*
X482828Y221997D01*
X493323Y220685D02*
Y228556D01*
X495947Y225933D01*
X498571Y228556D01*
Y220685D01*
X505130Y228556D02*
X502506D01*
X501194Y227245D01*
Y221997D01*
X502506Y220685D01*
X505130D01*
X506442Y221997D01*
Y227245D01*
X505130Y228556D01*
X509066D02*
Y220685D01*
X513002D01*
X514314Y221997D01*
Y227245D01*
X513002Y228556D01*
X509066D01*
X522185D02*
X516937D01*
Y220685D01*
X522185D01*
X516937Y224621D02*
X519561D01*
X555642Y92835D02*
X556954Y94147D01*
Y96770D01*
X555642Y98082D01*
X554330D01*
X553018Y96770D01*
Y94147D01*
X551706Y92835D01*
X550394D01*
X549082Y94147D01*
Y96770D01*
X550394Y98082D01*
X556954Y90211D02*
X555642D01*
X553018Y87587D01*
X555642Y84963D01*
X556954D01*
X553018Y87587D02*
X549082D01*
X555642Y77092D02*
X556954Y78404D01*
Y81027D01*
X555642Y82339D01*
X554330D01*
X553018Y81027D01*
Y78404D01*
X551706Y77092D01*
X550394D01*
X549082Y78404D01*
Y81027D01*
X550394Y82339D01*
X556954Y74468D02*
Y69220D01*
Y71844D01*
X549082D01*
X556954Y61349D02*
Y66596D01*
X549082D01*
Y61349D01*
X553018Y66596D02*
Y63973D01*
X549082Y58725D02*
X556954D01*
X554330Y56101D01*
X556954Y53477D01*
X549082D01*
X556954Y46918D02*
Y49542D01*
X555642Y50853D01*
X550394D01*
X549082Y49542D01*
Y46918D01*
X550394Y45606D01*
X555642D01*
X556954Y46918D01*
X549082Y42982D02*
X556954D01*
X549082Y37734D01*
X556954D01*
X547771Y35111D02*
Y29863D01*
X556954Y27239D02*
X549082D01*
Y23303D01*
X550394Y21991D01*
X551706D01*
X553018Y23303D01*
Y27239D01*
Y23303D01*
X554330Y21991D01*
X555642D01*
X556954Y23303D01*
Y27239D01*
Y19367D02*
Y14120D01*
Y16744D01*
X549082D01*
Y11496D02*
X556954D01*
X549082Y6248D01*
X556954D01*
X624343Y85553D02*
X625655Y86864D01*
Y89488D01*
X624343Y90800D01*
X623031D01*
X621719Y89488D01*
Y86864D01*
X620407Y85553D01*
X619095D01*
X617783Y86864D01*
Y89488D01*
X619095Y90800D01*
X625655Y82929D02*
X624343D01*
X621719Y80305D01*
X624343Y77681D01*
X625655D01*
X621719Y80305D02*
X617783D01*
X624343Y69810D02*
X625655Y71121D01*
Y73745D01*
X624343Y75057D01*
X623031D01*
X621719Y73745D01*
Y71121D01*
X620407Y69810D01*
X619095D01*
X617783Y71121D01*
Y73745D01*
X619095Y75057D01*
X617783Y67186D02*
X625655D01*
X623031Y64562D01*
X625655Y61938D01*
X617783D01*
X625655Y55379D02*
Y58002D01*
X624343Y59314D01*
X619095D01*
X617783Y58002D01*
Y55379D01*
X619095Y54066D01*
X624343D01*
X625655Y55379D01*
Y51443D02*
X617783D01*
Y47507D01*
X619095Y46195D01*
X624343D01*
X625655Y47507D01*
Y51443D01*
Y38324D02*
Y43571D01*
X617783D01*
Y38324D01*
X621719Y43571D02*
Y40947D01*
X616471Y35700D02*
Y30452D01*
X625655Y27828D02*
X617783D01*
Y23892D01*
X619095Y22581D01*
X620407D01*
X621719Y23892D01*
Y27828D01*
Y23892D01*
X623031Y22581D01*
X624343D01*
X625655Y23892D01*
Y27828D01*
Y19957D02*
Y14709D01*
Y17333D01*
X617783D01*
Y12085D02*
X625655D01*
X617783Y6838D01*
X625655D01*
X735899Y582545D02*
X734587Y583857D01*
X731963D01*
X730652Y582545D01*
Y581233D01*
X731963Y579921D01*
X734587D01*
X735899Y578609D01*
Y577297D01*
X734587Y575985D01*
X731963D01*
X730652Y577297D01*
X738523Y575985D02*
Y583857D01*
X742459D01*
X743771Y582545D01*
Y579921D01*
X742459Y578609D01*
X738523D01*
X751642Y583857D02*
X746394D01*
Y575985D01*
X751642D01*
X746394Y579921D02*
X749018D01*
X754266Y575985D02*
Y581233D01*
X756890Y583857D01*
X759514Y581233D01*
Y575985D01*
Y579921D01*
X754266D01*
X762137Y583857D02*
Y575985D01*
Y578609D01*
X767385Y583857D01*
X763449Y579921D01*
X767385Y575985D01*
X775256Y583857D02*
X770009D01*
Y575985D01*
X775256D01*
X770009Y579921D02*
X772633D01*
X777880Y575985D02*
Y583857D01*
X781816D01*
X783128Y582545D01*
Y579921D01*
X781816Y578609D01*
X777880D01*
X780504D02*
X783128Y575985D01*
X735965Y516340D02*
Y524211D01*
X739901D01*
X741213Y522899D01*
Y520276D01*
X739901Y518964D01*
X735965D01*
X738589D02*
X741213Y516340D01*
X747772Y524211D02*
X745149D01*
X743837Y522899D01*
Y517652D01*
X745149Y516340D01*
X747772D01*
X749084Y517652D01*
Y522899D01*
X747772Y524211D01*
X751708D02*
Y517652D01*
X753020Y516340D01*
X755644D01*
X756956Y517652D01*
Y524211D01*
X759580D02*
X764827D01*
X762204D01*
Y516340D01*
X772699Y524211D02*
X767451D01*
Y516340D01*
X772699D01*
X767451Y520276D02*
X770075D01*
X775323Y516340D02*
Y524211D01*
X779258D01*
X780570Y522899D01*
Y520276D01*
X779258Y518964D01*
X775323D01*
X777946D02*
X780570Y516340D01*
X578487Y726576D02*
Y734448D01*
X582423D01*
X583735Y733136D01*
Y730512D01*
X582423Y729200D01*
X578487D01*
X581111D02*
X583735Y726576D01*
X591607Y734448D02*
X586359D01*
Y730512D01*
X588983D01*
X586359D01*
Y726576D01*
X594230Y730512D02*
X599478D01*
X602102Y726576D02*
Y734448D01*
X606038D01*
X607349Y733136D01*
Y730512D01*
X606038Y729200D01*
X602102D01*
X604726D02*
X607349Y726576D01*
X615221Y734448D02*
X609973D01*
Y726576D01*
X615221D01*
X609973Y730512D02*
X612597D01*
X617845Y734448D02*
Y726576D01*
X623093D01*
X625716D02*
Y731824D01*
X628340Y734448D01*
X630964Y731824D01*
Y726576D01*
Y730512D01*
X625716D01*
X633588Y734448D02*
Y733136D01*
X636212Y730512D01*
X638835Y733136D01*
Y734448D01*
X636212Y730512D02*
Y726576D01*
X491405Y73480D02*
X499277D01*
Y69544D01*
X497965Y68232D01*
X495341D01*
X494029Y69544D01*
Y73480D01*
Y70856D02*
X491405Y68232D01*
X499277Y60361D02*
Y65608D01*
X491405D01*
Y60361D01*
X495341Y65608D02*
Y62985D01*
X497965Y52489D02*
X499277Y53801D01*
Y56425D01*
X497965Y57737D01*
X496653D01*
X495341Y56425D01*
Y53801D01*
X494029Y52489D01*
X492717D01*
X491405Y53801D01*
Y56425D01*
X492717Y57737D01*
X499277Y44618D02*
Y49865D01*
X491405D01*
Y44618D01*
X495341Y49865D02*
Y47242D01*
X499277Y41994D02*
Y36746D01*
Y39370D01*
X491405D01*
X490093Y34122D02*
Y28875D01*
X499277Y26251D02*
X491405D01*
Y22315D01*
X492717Y21003D01*
X494029D01*
X495341Y22315D01*
Y26251D01*
Y22315D01*
X496653Y21003D01*
X497965D01*
X499277Y22315D01*
Y26251D01*
Y18380D02*
Y13132D01*
Y15756D01*
X491405D01*
Y10508D02*
X499277D01*
X491405Y5260D01*
X499277D01*
X721795Y635303D02*
Y643174D01*
X725730D01*
X727042Y641862D01*
Y639239D01*
X725730Y637927D01*
X721795D01*
X734914Y641862D02*
X733602Y643174D01*
X730978D01*
X729666Y641862D01*
Y636615D01*
X730978Y635303D01*
X733602D01*
X734914Y636615D01*
X737537Y633991D02*
X742785D01*
X745409Y635303D02*
Y643174D01*
X749345D01*
X750657Y641862D01*
Y639239D01*
X749345Y637927D01*
X745409D01*
X757216Y643174D02*
X754592D01*
X753280Y641862D01*
Y636615D01*
X754592Y635303D01*
X757216D01*
X758528Y636615D01*
Y641862D01*
X757216Y643174D01*
X761152D02*
Y635303D01*
X763776Y637927D01*
X766399Y635303D01*
Y643174D01*
X774271D02*
X769023D01*
Y635303D01*
X774271D01*
X769023Y639239D02*
X771647D01*
X776895Y635303D02*
Y643174D01*
X780831D01*
X782142Y641862D01*
Y639239D01*
X780831Y637927D01*
X776895D01*
X779519D02*
X782142Y635303D01*
X439631Y92113D02*
Y94736D01*
X438319Y96048D01*
X433072D01*
X431760Y94736D01*
Y92113D01*
X433072Y90801D01*
X438319D01*
X439631Y92113D01*
Y88177D02*
X434383D01*
X431760Y85553D01*
X434383Y82929D01*
X439631D01*
Y75058D02*
Y80305D01*
X431760D01*
Y75058D01*
X435695Y80305D02*
Y77682D01*
X431760Y72434D02*
X439631D01*
Y68498D01*
X438319Y67186D01*
X435695D01*
X434383Y68498D01*
Y72434D01*
Y69810D02*
X431760Y67186D01*
Y64562D02*
X439631D01*
Y60627D01*
X438319Y59315D01*
X435695D01*
X434383Y60627D01*
Y64562D01*
Y61939D02*
X431760Y59315D01*
X439631Y56691D02*
Y54067D01*
Y55379D01*
X431760D01*
Y56691D01*
Y54067D01*
X439631Y50131D02*
X431760D01*
Y46196D01*
X433072Y44884D01*
X438319D01*
X439631Y46196D01*
Y50131D01*
Y37012D02*
Y42260D01*
X431760D01*
Y37012D01*
X435695Y42260D02*
Y39636D01*
X430448Y34389D02*
Y29141D01*
X439631Y26517D02*
X431760D01*
Y22581D01*
X433072Y21269D01*
X434383D01*
X435695Y22581D01*
Y26517D01*
Y22581D01*
X437007Y21269D01*
X438319D01*
X439631Y22581D01*
Y26517D01*
Y18645D02*
Y13398D01*
Y16022D01*
X431760D01*
Y10774D02*
X439631D01*
X431760Y5526D01*
X439631D01*
X6243Y603804D02*
Y595933D01*
X11491D01*
X19363Y603804D02*
X14115D01*
Y595933D01*
X19363D01*
X14115Y599869D02*
X16739D01*
X21986Y603804D02*
Y595933D01*
X25922D01*
X27234Y597245D01*
Y602492D01*
X25922Y603804D01*
X21986D01*
X29858Y594621D02*
X35105D01*
X42977Y602492D02*
X41665Y603804D01*
X39041D01*
X37729Y602492D01*
Y597245D01*
X39041Y595933D01*
X41665D01*
X42977Y597245D01*
X49536Y603804D02*
X46913D01*
X45601Y602492D01*
Y597245D01*
X46913Y595933D01*
X49536D01*
X50848Y597245D01*
Y602492D01*
X49536Y603804D01*
X53472Y595933D02*
Y603804D01*
X58720Y595933D01*
Y603804D01*
X61344Y595933D02*
Y603804D01*
X66591Y595933D01*
Y603804D01*
X692652Y332750D02*
Y327502D01*
X700524D01*
Y332750D01*
X696588Y327502D02*
Y330126D01*
X692652Y335373D02*
Y340621D01*
Y337997D01*
X700524D01*
X692652Y343245D02*
X700524D01*
X696588D01*
Y348493D01*
X692652D01*
X700524D01*
X701836Y351116D02*
Y356364D01*
X693964Y364235D02*
X692652Y362924D01*
Y360300D01*
X693964Y358988D01*
X695276D01*
X696588Y360300D01*
Y362924D01*
X697900Y364235D01*
X699212D01*
X700524Y362924D01*
Y360300D01*
X699212Y358988D01*
X693964Y372107D02*
X692652Y370795D01*
Y368171D01*
X693964Y366859D01*
X699212D01*
X700524Y368171D01*
Y370795D01*
X699212Y372107D01*
X692652Y374731D02*
X699212D01*
X700524Y376043D01*
Y378666D01*
X699212Y379978D01*
X692652D01*
X693046Y411883D02*
Y406636D01*
X700918D01*
Y411883D01*
X696982Y406636D02*
Y409260D01*
X693046Y414507D02*
Y419755D01*
Y417131D01*
X700918D01*
X693046Y422379D02*
X700918D01*
X696982D01*
Y427626D01*
X693046D01*
X700918D01*
X702229Y430250D02*
Y435498D01*
X700918Y438122D02*
X693046D01*
Y442057D01*
X694358Y443369D01*
X696982D01*
X698294Y442057D01*
Y438122D01*
X694358Y451241D02*
X693046Y449929D01*
Y447305D01*
X694358Y445993D01*
X699606D01*
X700918Y447305D01*
Y449929D01*
X699606Y451241D01*
X693046Y453865D02*
X699606D01*
X700918Y455177D01*
Y457800D01*
X699606Y459112D01*
X693046D01*
X692455Y173105D02*
Y167858D01*
X700327D01*
Y173105D01*
X696391Y167858D02*
Y170481D01*
X692455Y175729D02*
Y180977D01*
Y178353D01*
X700327D01*
X692455Y183600D02*
X700327D01*
X696391D01*
Y188848D01*
X692455D01*
X700327D01*
X701639Y191472D02*
Y196720D01*
X692455Y199343D02*
X700327D01*
Y203279D01*
X699015Y204591D01*
X693767D01*
X692455Y203279D01*
Y199343D01*
X693767Y212463D02*
X692455Y211151D01*
Y208527D01*
X693767Y207215D01*
X699015D01*
X700327Y208527D01*
Y211151D01*
X699015Y212463D01*
X692455Y215086D02*
X699015D01*
X700327Y216398D01*
Y219022D01*
X699015Y220334D01*
X692455D01*
X700327Y228205D02*
Y222958D01*
X695079Y228205D01*
X693767D01*
X692455Y226894D01*
Y224270D01*
X693767Y222958D01*
X692062Y254141D02*
Y248894D01*
X699933D01*
Y254141D01*
X695998Y248894D02*
Y251518D01*
X692062Y256765D02*
Y262013D01*
Y259389D01*
X699933D01*
X692062Y264637D02*
X699933D01*
X695998D01*
Y269884D01*
X692062D01*
X699933D01*
X701245Y272508D02*
Y277756D01*
X692062Y280380D02*
X699933D01*
Y284315D01*
X698621Y285627D01*
X693374D01*
X692062Y284315D01*
Y280380D01*
X693374Y293499D02*
X692062Y292187D01*
Y289563D01*
X693374Y288251D01*
X698621D01*
X699933Y289563D01*
Y292187D01*
X698621Y293499D01*
X692062Y296123D02*
X698621D01*
X699933Y297435D01*
Y300058D01*
X698621Y301370D01*
X692062D01*
X699933Y303994D02*
Y306618D01*
Y305306D01*
X692062D01*
X693374Y303994D01*
X15424Y654723D02*
X10176D01*
Y646852D01*
X15424D01*
X10176Y650787D02*
X12800D01*
X23296Y653411D02*
X21984Y654723D01*
X19360D01*
X18048Y653411D01*
Y652099D01*
X19360Y650787D01*
X21984D01*
X23296Y649475D01*
Y648164D01*
X21984Y646852D01*
X19360D01*
X18048Y648164D01*
X25919Y654723D02*
X31167D01*
X28543D01*
Y646852D01*
X37727Y654723D02*
X35103D01*
X33791Y653411D01*
Y648164D01*
X35103Y646852D01*
X37727D01*
X39039Y648164D01*
Y653411D01*
X37727Y654723D01*
X41662Y646852D02*
Y654723D01*
X45598D01*
X46910Y653411D01*
Y650787D01*
X45598Y649475D01*
X41662D01*
X203819Y778674D02*
X202507Y779985D01*
X199883D01*
X198571Y778674D01*
Y773426D01*
X199883Y772114D01*
X202507D01*
X203819Y773426D01*
X206443Y779985D02*
Y772114D01*
Y776050D01*
X211690D01*
Y779985D01*
Y772114D01*
X214314D02*
Y777362D01*
X216938Y779985D01*
X219562Y777362D01*
Y772114D01*
Y776050D01*
X214314D01*
X222186Y772114D02*
Y779985D01*
X226121D01*
X227433Y778674D01*
Y776050D01*
X226121Y774738D01*
X222186D01*
X224810D02*
X227433Y772114D01*
X235305Y778674D02*
X233993Y779985D01*
X231369D01*
X230057Y778674D01*
Y773426D01*
X231369Y772114D01*
X233993D01*
X235305Y773426D01*
Y776050D01*
X232681D01*
X243176Y779985D02*
X237929D01*
Y772114D01*
X243176D01*
X237929Y776050D02*
X240552D01*
X245800Y772114D02*
Y779985D01*
X249736D01*
X251048Y778674D01*
Y776050D01*
X249736Y774738D01*
X245800D01*
X248424D02*
X251048Y772114D01*
X253672Y770802D02*
X258919D01*
X266791Y778674D02*
X265479Y779985D01*
X262855D01*
X261543Y778674D01*
Y773426D01*
X262855Y772114D01*
X265479D01*
X266791Y773426D01*
X273350Y779985D02*
X270726D01*
X269415Y778674D01*
Y773426D01*
X270726Y772114D01*
X273350D01*
X274662Y773426D01*
Y778674D01*
X273350Y779985D01*
X277286Y772114D02*
Y779985D01*
X282534Y772114D01*
Y779985D01*
X285157Y772114D02*
Y779985D01*
X290405Y772114D01*
Y779985D01*
X440996Y783026D02*
Y777028D01*
X443995D01*
X444994Y778028D01*
Y779028D01*
X443995Y780027D01*
X440996D01*
X443995D01*
X444994Y781027D01*
Y782027D01*
X443995Y783026D01*
X440996D01*
X446994Y777028D02*
Y781027D01*
X448993Y783026D01*
X450992Y781027D01*
Y777028D01*
Y780027D01*
X446994D01*
X452992Y783026D02*
X456990D01*
X454991D01*
Y777028D01*
X458990Y783026D02*
X462989D01*
X460989D01*
Y777028D01*
X468987Y783026D02*
X464988D01*
Y777028D01*
X468987D01*
X464988Y780027D02*
X466987D01*
X470986Y777028D02*
Y783026D01*
X473985D01*
X474985Y782027D01*
Y780027D01*
X473985Y779028D01*
X470986D01*
X472985D02*
X474985Y777028D01*
X476984Y783026D02*
Y782027D01*
X478983Y780027D01*
X480983Y782027D01*
Y783026D01*
X478983Y780027D02*
Y777028D01*
X482982Y776029D02*
X486981D01*
X492979Y782027D02*
X491979Y783026D01*
X489980D01*
X488980Y782027D01*
Y778028D01*
X489980Y777028D01*
X491979D01*
X492979Y778028D01*
X497977Y783026D02*
X495978D01*
X494978Y782027D01*
Y778028D01*
X495978Y777028D01*
X497977D01*
X498977Y778028D01*
Y782027D01*
X497977Y783026D01*
X500976Y777028D02*
Y783026D01*
X504975Y777028D01*
Y783026D01*
X506974Y777028D02*
Y783026D01*
X510973Y777028D01*
Y783026D01*
M02*
