G04*
G04 #@! TF.GenerationSoftware,Altium Limited,Altium Designer,21.3.2 (30)*
G04*
G04 Layer_Color=128*
%FSLAX25Y25*%
%MOIN*%
G70*
G04*
G04 #@! TF.SameCoordinates,467638F3-B4FA-417D-9A7E-59FD0AE83611*
G04*
G04*
G04 #@! TF.FilePolarity,Positive*
G04*
G01*
G75*
%ADD62R,0.03150X0.04921*%
%ADD63R,0.05512X0.13386*%
%ADD64R,0.03740X0.05315*%
%ADD65R,0.26772X0.21850*%
%ADD66R,0.09449X0.03937*%
D62*
X744882Y188976D02*
D03*
X751181D02*
D03*
X744882Y204724D02*
D03*
X751181D02*
D03*
X744882Y267717D02*
D03*
X751181D02*
D03*
X744882Y283465D02*
D03*
X751181D02*
D03*
X744882Y346457D02*
D03*
X751181D02*
D03*
X744882Y362205D02*
D03*
X751181D02*
D03*
X744882Y440945D02*
D03*
X751181D02*
D03*
X744882Y425197D02*
D03*
X751181D02*
D03*
D63*
X723819Y227362D02*
D03*
X709252D02*
D03*
X723819Y306102D02*
D03*
X709252D02*
D03*
X723819Y384842D02*
D03*
X709252D02*
D03*
X723819Y463583D02*
D03*
X709252D02*
D03*
D64*
X22441Y380906D02*
D03*
X28346D02*
D03*
X22441Y422244D02*
D03*
X28346D02*
D03*
D65*
X47638Y401575D02*
D03*
D66*
X22441Y410551D02*
D03*
Y392598D02*
D03*
M02*
