G04*
G04 #@! TF.GenerationSoftware,Altium Limited,Altium Designer,21.3.2 (30)*
G04*
G04 Layer_Color=32896*
%FSLAX25Y25*%
%MOIN*%
G70*
G04*
G04 #@! TF.SameCoordinates,467638F3-B4FA-417D-9A7E-59FD0AE83611*
G04*
G04*
G04 #@! TF.FilePolarity,Positive*
G04*
G01*
G75*
%ADD10C,0.00787*%
%ADD12C,0.00984*%
%ADD13C,0.03937*%
%ADD14C,0.01000*%
D10*
X747638Y186909D02*
X748425D01*
X747638Y191043D02*
X748425D01*
X747638Y202658D02*
X748425D01*
X747638Y206791D02*
X748425D01*
X747638Y265650D02*
X748425D01*
X747638Y269783D02*
X748425D01*
X747638Y281398D02*
X748425D01*
X747638Y285531D02*
X748425D01*
X747638Y344390D02*
X748425D01*
X747638Y348524D02*
X748425D01*
X747638Y360138D02*
X748425D01*
X747638Y364272D02*
X748425D01*
X747638Y438878D02*
X748425D01*
X747638Y443012D02*
X748425D01*
X747638Y423130D02*
X748425D01*
X747638Y427264D02*
X748425D01*
X713583Y233661D02*
X719488D01*
X713583Y221063D02*
X719488D01*
X713583Y312402D02*
X719488D01*
X713583Y299803D02*
X719488D01*
X713583Y391142D02*
X719488D01*
X713583Y378543D02*
X719488D01*
X713583Y469882D02*
X719488D01*
X713583Y457283D02*
X719488D01*
X21063Y376673D02*
X29724D01*
X21063Y385138D02*
X29724D01*
X21063Y418012D02*
X29724D01*
X21063Y426476D02*
X29724D01*
X31693Y388583D02*
Y414567D01*
X32677D01*
X31693Y388583D02*
X32677D01*
D12*
X22933Y388465D02*
X22195Y388891D01*
Y388038D01*
X22933Y388465D01*
D13*
X442126Y351575D02*
Y374016D01*
X338189Y351575D02*
X442126D01*
X338189D02*
Y374016D01*
X338976Y137795D02*
Y160236D01*
X442913D01*
Y137795D02*
Y160236D01*
X528150Y331693D02*
X570472D01*
X528150Y235236D02*
Y331693D01*
X570472Y235236D02*
Y331693D01*
X528150Y235236D02*
X570472D01*
X285236Y340551D02*
X327559D01*
X285236Y244094D02*
Y340551D01*
X327559Y244094D02*
Y340551D01*
X285236Y244094D02*
X327559D01*
D14*
X443355Y207073D02*
X444667Y208385D01*
X447291D01*
X448602Y207073D01*
Y205761D01*
X447291Y204450D01*
X444667D01*
X443355Y203138D01*
Y201826D01*
X444667Y200514D01*
X447291D01*
X448602Y201826D01*
X436795Y208385D02*
X439419D01*
X440731Y207073D01*
Y201826D01*
X439419Y200514D01*
X436795D01*
X435483Y201826D01*
Y207073D01*
X436795Y208385D01*
X432859D02*
Y200514D01*
X427612D01*
X424988Y208385D02*
Y200514D01*
X421052D01*
X419740Y201826D01*
Y207073D01*
X421052Y208385D01*
X424988D01*
X411869D02*
X417116D01*
Y200514D01*
X411869D01*
X417116Y204450D02*
X414493D01*
X409245Y200514D02*
Y208385D01*
X405309D01*
X403997Y207073D01*
Y204450D01*
X405309Y203138D01*
X409245D01*
X406621D02*
X403997Y200514D01*
X388254Y207073D02*
X389566Y208385D01*
X392190D01*
X393502Y207073D01*
Y201826D01*
X392190Y200514D01*
X389566D01*
X388254Y201826D01*
X385630Y208385D02*
Y200514D01*
Y204450D01*
X380383D01*
Y208385D01*
Y200514D01*
X377759D02*
X375135D01*
X376447D01*
Y208385D01*
X377759Y207073D01*
X358080Y200514D02*
X359392Y201826D01*
X360704Y200514D01*
X362016D01*
X363328Y201826D01*
Y203138D01*
X362016Y204450D01*
X363328Y205761D01*
Y207073D01*
X362016Y208385D01*
X360704D01*
X359392Y207073D01*
Y205761D01*
X360704Y204450D01*
X359392Y203138D01*
Y201826D01*
X358080Y204450D02*
X359392Y203138D01*
X362016Y204450D02*
X360704D01*
X342337Y207073D02*
X343649Y208385D01*
X346273D01*
X347585Y207073D01*
Y201826D01*
X346273Y200514D01*
X343649D01*
X342337Y201826D01*
X339714Y208385D02*
Y200514D01*
Y204450D01*
X334466D01*
Y208385D01*
Y200514D01*
X326594D02*
X331842D01*
X326594Y205761D01*
Y207073D01*
X327906Y208385D01*
X330530D01*
X331842Y207073D01*
X416461Y195228D02*
X417772Y196539D01*
X420396D01*
X421708Y195228D01*
Y189980D01*
X420396Y188668D01*
X417772D01*
X416461Y189980D01*
X413837Y196539D02*
Y188668D01*
Y192604D01*
X408589D01*
Y196539D01*
Y188668D01*
X405965Y195228D02*
X404653Y196539D01*
X402029D01*
X400717Y195228D01*
Y193916D01*
X402029Y192604D01*
X403341D01*
X402029D01*
X400717Y191292D01*
Y189980D01*
X402029Y188668D01*
X404653D01*
X405965Y189980D01*
X384975Y188668D02*
X386286Y189980D01*
X387598Y188668D01*
X388910D01*
X390222Y189980D01*
Y191292D01*
X388910Y192604D01*
X390222Y193916D01*
Y195228D01*
X388910Y196539D01*
X387598D01*
X386286Y195228D01*
Y193916D01*
X387598Y192604D01*
X386286Y191292D01*
Y189980D01*
X384975Y192604D02*
X386286Y191292D01*
X388910Y192604D02*
X387598D01*
X369232Y195228D02*
X370544Y196539D01*
X373167D01*
X374479Y195228D01*
Y189980D01*
X373167Y188668D01*
X370544D01*
X369232Y189980D01*
X366608Y196539D02*
Y188668D01*
Y192604D01*
X361360D01*
Y196539D01*
Y188668D01*
X354801D02*
Y196539D01*
X358736Y192604D01*
X353489D01*
X436795Y184694D02*
X431547D01*
X434171D01*
Y176822D01*
X424988Y184694D02*
X427612D01*
X428924Y183382D01*
Y178134D01*
X427612Y176822D01*
X424988D01*
X423676Y178134D01*
Y183382D01*
X424988Y184694D01*
X409245D02*
X411869D01*
X413181Y183382D01*
Y178134D01*
X411869Y176822D01*
X409245D01*
X407933Y178134D01*
Y183382D01*
X409245Y184694D01*
X405309Y176822D02*
Y184694D01*
X401373D01*
X400062Y183382D01*
Y180758D01*
X401373Y179446D01*
X405309D01*
X392190Y184694D02*
X397438D01*
Y176822D01*
X392190D01*
X397438Y180758D02*
X394814D01*
X389566Y176822D02*
Y184694D01*
X385630D01*
X384319Y183382D01*
Y180758D01*
X385630Y179446D01*
X389566D01*
X386943D02*
X384319Y176822D01*
X381695D02*
Y182070D01*
X379071Y184694D01*
X376447Y182070D01*
Y176822D01*
Y180758D01*
X381695D01*
X373823Y184694D02*
X368576D01*
X371199D01*
Y176822D01*
X360704Y184694D02*
X365952D01*
Y176822D01*
X360704D01*
X365952Y180758D02*
X363328D01*
X350209Y184694D02*
X347585D01*
X348897D01*
Y176822D01*
X350209D01*
X347585D01*
X343649D02*
Y184694D01*
X338402Y176822D01*
Y184694D01*
X425644Y164976D02*
Y170224D01*
X423020Y172848D01*
X420396Y170224D01*
Y164976D01*
Y168912D01*
X425644D01*
X412525Y171536D02*
X413837Y172848D01*
X416461D01*
X417772Y171536D01*
Y170224D01*
X416461Y168912D01*
X413837D01*
X412525Y167600D01*
Y166288D01*
X413837Y164976D01*
X416461D01*
X417772Y166288D01*
X409901Y172848D02*
Y171536D01*
X407277Y168912D01*
X404653Y171536D01*
Y172848D01*
X407277Y168912D02*
Y164976D01*
X402029D02*
Y172848D01*
X396782Y164976D01*
Y172848D01*
X388910Y171536D02*
X390222Y172848D01*
X392846D01*
X394158Y171536D01*
Y166288D01*
X392846Y164976D01*
X390222D01*
X388910Y166288D01*
X378415Y164976D02*
Y172848D01*
X375791Y170224D01*
X373167Y172848D01*
Y164976D01*
X366608Y172848D02*
X369232D01*
X370544Y171536D01*
Y166288D01*
X369232Y164976D01*
X366608D01*
X365296Y166288D01*
Y171536D01*
X366608Y172848D01*
X362672D02*
Y164976D01*
X358736D01*
X357424Y166288D01*
Y171536D01*
X358736Y172848D01*
X362672D01*
X349553D02*
X354801D01*
Y164976D01*
X349553D01*
X354801Y168912D02*
X352177D01*
X262091Y353065D02*
X260779Y354377D01*
Y357000D01*
X262091Y358312D01*
X263403D01*
X264715Y357000D01*
Y354377D01*
X266026Y353065D01*
X267338D01*
X268650Y354377D01*
Y357000D01*
X267338Y358312D01*
X260779Y346505D02*
Y349129D01*
X262091Y350441D01*
X267338D01*
X268650Y349129D01*
Y346505D01*
X267338Y345193D01*
X262091D01*
X260779Y346505D01*
Y342569D02*
X268650D01*
Y337322D01*
X260779Y334698D02*
X268650D01*
Y330762D01*
X267338Y329450D01*
X262091D01*
X260779Y330762D01*
Y334698D01*
Y321579D02*
Y326826D01*
X268650D01*
Y321579D01*
X264715Y326826D02*
Y324202D01*
X268650Y318955D02*
X260779D01*
Y315019D01*
X262091Y313707D01*
X264715D01*
X266026Y315019D01*
Y318955D01*
Y316331D02*
X268650Y313707D01*
X260779Y303212D02*
Y297964D01*
Y300588D01*
X268650D01*
X260779Y291405D02*
Y294028D01*
X262091Y295340D01*
X267338D01*
X268650Y294028D01*
Y291405D01*
X267338Y290093D01*
X262091D01*
X260779Y291405D01*
Y275662D02*
Y278286D01*
X262091Y279597D01*
X267338D01*
X268650Y278286D01*
Y275662D01*
X267338Y274350D01*
X262091D01*
X260779Y275662D01*
X268650Y271726D02*
X260779D01*
Y267790D01*
X262091Y266478D01*
X264715D01*
X266026Y267790D01*
Y271726D01*
X260779Y258607D02*
Y263854D01*
X268650D01*
Y258607D01*
X264715Y263854D02*
Y261231D01*
X268650Y255983D02*
X260779D01*
Y252047D01*
X262091Y250735D01*
X264715D01*
X266026Y252047D01*
Y255983D01*
Y253359D02*
X268650Y250735D01*
Y248112D02*
X263403D01*
X260779Y245488D01*
X263403Y242864D01*
X268650D01*
X264715D01*
Y248112D01*
X260779Y240240D02*
Y234992D01*
Y237616D01*
X268650D01*
X260779Y227121D02*
Y232368D01*
X268650D01*
Y227121D01*
X264715Y232368D02*
Y229745D01*
X272625Y337978D02*
Y335354D01*
Y336666D01*
X280496D01*
Y337978D01*
Y335354D01*
Y331418D02*
X272625D01*
X280496Y326170D01*
X272625D01*
X273937Y310427D02*
X272625Y311739D01*
Y314363D01*
X273937Y315675D01*
X275248D01*
X276560Y314363D01*
Y311739D01*
X277872Y310427D01*
X279184D01*
X280496Y311739D01*
Y314363D01*
X279184Y315675D01*
X272625Y307804D02*
X273937D01*
X276560Y305180D01*
X273937Y302556D01*
X272625D01*
X276560Y305180D02*
X280496D01*
Y299932D02*
X272625D01*
X280496Y294684D01*
X272625D01*
X273937Y286813D02*
X272625Y288125D01*
Y290749D01*
X273937Y292061D01*
X279184D01*
X280496Y290749D01*
Y288125D01*
X279184Y286813D01*
X280496Y276318D02*
X272625D01*
X275248Y273694D01*
X272625Y271070D01*
X280496D01*
X272625Y264510D02*
Y267134D01*
X273937Y268446D01*
X279184D01*
X280496Y267134D01*
Y264510D01*
X279184Y263198D01*
X273937D01*
X272625Y264510D01*
Y260575D02*
X280496D01*
Y256639D01*
X279184Y255327D01*
X273937D01*
X272625Y256639D01*
Y260575D01*
Y247456D02*
Y252703D01*
X280496D01*
Y247456D01*
X276560Y252703D02*
Y250079D01*
X593618Y222723D02*
X594930Y221411D01*
Y218787D01*
X593618Y217475D01*
X592306D01*
X590994Y218787D01*
Y221411D01*
X589682Y222723D01*
X588370D01*
X587058Y221411D01*
Y218787D01*
X588370Y217475D01*
X594930Y229282D02*
Y226659D01*
X593618Y225347D01*
X588370D01*
X587058Y226659D01*
Y229282D01*
X588370Y230594D01*
X593618D01*
X594930Y229282D01*
Y233218D02*
X587058D01*
Y238466D01*
X594930Y241090D02*
X587058D01*
Y245025D01*
X588370Y246337D01*
X593618D01*
X594930Y245025D01*
Y241090D01*
Y254209D02*
Y248961D01*
X587058D01*
Y254209D01*
X590994Y248961D02*
Y251585D01*
X587058Y256833D02*
X594930D01*
Y260768D01*
X593618Y262080D01*
X590994D01*
X589682Y260768D01*
Y256833D01*
Y259456D02*
X587058Y262080D01*
X594930Y272576D02*
Y277823D01*
Y275199D01*
X587058D01*
X594930Y284383D02*
Y281759D01*
X593618Y280447D01*
X588370D01*
X587058Y281759D01*
Y284383D01*
X588370Y285695D01*
X593618D01*
X594930Y284383D01*
Y300126D02*
Y297502D01*
X593618Y296190D01*
X588370D01*
X587058Y297502D01*
Y300126D01*
X588370Y301438D01*
X593618D01*
X594930Y300126D01*
X587058Y304062D02*
X594930D01*
Y307997D01*
X593618Y309309D01*
X590994D01*
X589682Y307997D01*
Y304062D01*
X594930Y317181D02*
Y311933D01*
X587058D01*
Y317181D01*
X590994Y311933D02*
Y314557D01*
X587058Y319805D02*
X594930D01*
Y323740D01*
X593618Y325052D01*
X590994D01*
X589682Y323740D01*
Y319805D01*
Y322428D02*
X587058Y325052D01*
Y327676D02*
X592306D01*
X594930Y330300D01*
X592306Y332924D01*
X587058D01*
X590994D01*
Y327676D01*
X594930Y335547D02*
Y340795D01*
Y338171D01*
X587058D01*
X594930Y348667D02*
Y343419D01*
X587058D01*
Y348667D01*
X590994Y343419D02*
Y346043D01*
X583084Y237810D02*
Y240434D01*
Y239122D01*
X575213D01*
Y237810D01*
Y240434D01*
Y244370D02*
X583084D01*
X575213Y249617D01*
X583084D01*
X581772Y265360D02*
X583084Y264048D01*
Y261424D01*
X581772Y260112D01*
X580460D01*
X579148Y261424D01*
Y264048D01*
X577836Y265360D01*
X576524D01*
X575213Y264048D01*
Y261424D01*
X576524Y260112D01*
X583084Y267984D02*
X581772D01*
X579148Y270608D01*
X581772Y273232D01*
X583084D01*
X579148Y270608D02*
X575213D01*
Y275855D02*
X583084D01*
X575213Y281103D01*
X583084D01*
X581772Y288974D02*
X583084Y287663D01*
Y285039D01*
X581772Y283727D01*
X576524D01*
X575213Y285039D01*
Y287663D01*
X576524Y288974D01*
X575213Y299470D02*
X583084D01*
X580460Y302094D01*
X583084Y304717D01*
X575213D01*
X583084Y311277D02*
Y308653D01*
X581772Y307341D01*
X576524D01*
X575213Y308653D01*
Y311277D01*
X576524Y312589D01*
X581772D01*
X583084Y311277D01*
Y315213D02*
X575213D01*
Y319148D01*
X576524Y320460D01*
X581772D01*
X583084Y319148D01*
Y315213D01*
Y328332D02*
Y323084D01*
X575213D01*
Y328332D01*
X579148Y323084D02*
Y325708D01*
X448276Y343884D02*
X449588Y345196D01*
X452212D01*
X453524Y343884D01*
Y342572D01*
X452212Y341261D01*
X449588D01*
X448276Y339949D01*
Y338637D01*
X449588Y337325D01*
X452212D01*
X453524Y338637D01*
X441716Y345196D02*
X444340D01*
X445652Y343884D01*
Y338637D01*
X444340Y337325D01*
X441716D01*
X440405Y338637D01*
Y343884D01*
X441716Y345196D01*
X437781D02*
Y337325D01*
X432533D01*
X429909Y345196D02*
Y337325D01*
X425974D01*
X424662Y338637D01*
Y343884D01*
X425974Y345196D01*
X429909D01*
X416790D02*
X422038D01*
Y337325D01*
X416790D01*
X422038Y341261D02*
X419414D01*
X414166Y337325D02*
Y345196D01*
X410230D01*
X408919Y343884D01*
Y341261D01*
X410230Y339949D01*
X414166D01*
X411542D02*
X408919Y337325D01*
X393176Y343884D02*
X394488Y345196D01*
X397111D01*
X398423Y343884D01*
Y338637D01*
X397111Y337325D01*
X394488D01*
X393176Y338637D01*
X390552Y345196D02*
Y337325D01*
Y341261D01*
X385304D01*
Y345196D01*
Y337325D01*
X382680D02*
X380057D01*
X381368D01*
Y345196D01*
X382680Y343884D01*
X363002Y337325D02*
X364314Y338637D01*
X365626Y337325D01*
X366937D01*
X368249Y338637D01*
Y339949D01*
X366937Y341261D01*
X368249Y342572D01*
Y343884D01*
X366937Y345196D01*
X365626D01*
X364314Y343884D01*
Y342572D01*
X365626Y341261D01*
X364314Y339949D01*
Y338637D01*
X363002Y341261D02*
X364314Y339949D01*
X366937Y341261D02*
X365626D01*
X347259Y343884D02*
X348571Y345196D01*
X351194D01*
X352506Y343884D01*
Y338637D01*
X351194Y337325D01*
X348571D01*
X347259Y338637D01*
X344635Y345196D02*
Y337325D01*
Y341261D01*
X339387D01*
Y345196D01*
Y337325D01*
X331516D02*
X336763D01*
X331516Y342572D01*
Y343884D01*
X332828Y345196D01*
X335452D01*
X336763Y343884D01*
X421382Y332038D02*
X422694Y333350D01*
X425317D01*
X426629Y332038D01*
Y326791D01*
X425317Y325479D01*
X422694D01*
X421382Y326791D01*
X418758Y333350D02*
Y325479D01*
Y329415D01*
X413510D01*
Y333350D01*
Y325479D01*
X410886Y332038D02*
X409575Y333350D01*
X406951D01*
X405639Y332038D01*
Y330727D01*
X406951Y329415D01*
X408263D01*
X406951D01*
X405639Y328103D01*
Y326791D01*
X406951Y325479D01*
X409575D01*
X410886Y326791D01*
X389896Y325479D02*
X391208Y326791D01*
X392520Y325479D01*
X393832D01*
X395144Y326791D01*
Y328103D01*
X393832Y329415D01*
X395144Y330727D01*
Y332038D01*
X393832Y333350D01*
X392520D01*
X391208Y332038D01*
Y330727D01*
X392520Y329415D01*
X391208Y328103D01*
Y326791D01*
X389896Y329415D02*
X391208Y328103D01*
X393832Y329415D02*
X392520D01*
X374153Y332038D02*
X375465Y333350D01*
X378089D01*
X379401Y332038D01*
Y326791D01*
X378089Y325479D01*
X375465D01*
X374153Y326791D01*
X371529Y333350D02*
Y325479D01*
Y329415D01*
X366281D01*
Y333350D01*
Y325479D01*
X359722D02*
Y333350D01*
X363658Y329415D01*
X358410D01*
X441716Y321505D02*
X436469D01*
X439093D01*
Y313633D01*
X429909Y321505D02*
X432533D01*
X433845Y320193D01*
Y314945D01*
X432533Y313633D01*
X429909D01*
X428597Y314945D01*
Y320193D01*
X429909Y321505D01*
X414166D02*
X416790D01*
X418102Y320193D01*
Y314945D01*
X416790Y313633D01*
X414166D01*
X412854Y314945D01*
Y320193D01*
X414166Y321505D01*
X410230Y313633D02*
Y321505D01*
X406295D01*
X404983Y320193D01*
Y317569D01*
X406295Y316257D01*
X410230D01*
X397111Y321505D02*
X402359D01*
Y313633D01*
X397111D01*
X402359Y317569D02*
X399735D01*
X394488Y313633D02*
Y321505D01*
X390552D01*
X389240Y320193D01*
Y317569D01*
X390552Y316257D01*
X394488D01*
X391864D02*
X389240Y313633D01*
X386616D02*
Y318881D01*
X383992Y321505D01*
X381368Y318881D01*
Y313633D01*
Y317569D01*
X386616D01*
X378745Y321505D02*
X373497D01*
X376121D01*
Y313633D01*
X365626Y321505D02*
X370873D01*
Y313633D01*
X365626D01*
X370873Y317569D02*
X368249D01*
X355130Y321505D02*
X352506D01*
X353818D01*
Y313633D01*
X355130D01*
X352506D01*
X348571D02*
Y321505D01*
X343323Y313633D01*
Y321505D01*
X430565Y301787D02*
Y307035D01*
X427941Y309659D01*
X425317Y307035D01*
Y301787D01*
Y305723D01*
X430565D01*
X417446Y308347D02*
X418758Y309659D01*
X421382D01*
X422694Y308347D01*
Y307035D01*
X421382Y305723D01*
X418758D01*
X417446Y304411D01*
Y303099D01*
X418758Y301787D01*
X421382D01*
X422694Y303099D01*
X414822Y309659D02*
Y308347D01*
X412198Y305723D01*
X409575Y308347D01*
Y309659D01*
X412198Y305723D02*
Y301787D01*
X406951D02*
Y309659D01*
X401703Y301787D01*
Y309659D01*
X393832Y308347D02*
X395144Y309659D01*
X397767D01*
X399079Y308347D01*
Y303099D01*
X397767Y301787D01*
X395144D01*
X393832Y303099D01*
X383336Y301787D02*
Y309659D01*
X380713Y307035D01*
X378089Y309659D01*
Y301787D01*
X371529Y309659D02*
X374153D01*
X375465Y308347D01*
Y303099D01*
X374153Y301787D01*
X371529D01*
X370217Y303099D01*
Y308347D01*
X371529Y309659D01*
X367593D02*
Y301787D01*
X363658D01*
X362346Y303099D01*
Y308347D01*
X363658Y309659D01*
X367593D01*
X354474D02*
X359722D01*
Y301787D01*
X354474D01*
X359722Y305723D02*
X357098D01*
X239028Y235489D02*
X240340Y236801D01*
X242964D01*
X244276Y235489D01*
Y234177D01*
X242964Y232865D01*
X240340D01*
X239028Y231554D01*
Y230242D01*
X240340Y228930D01*
X242964D01*
X244276Y230242D01*
X236404Y236801D02*
Y235489D01*
X233780Y232865D01*
X231156Y235489D01*
Y236801D01*
X233780Y232865D02*
Y228930D01*
X228533D02*
Y236801D01*
X223285Y228930D01*
Y236801D01*
X215413Y235489D02*
X216725Y236801D01*
X219349D01*
X220661Y235489D01*
Y230242D01*
X219349Y228930D01*
X216725D01*
X215413Y230242D01*
X204918Y228930D02*
Y236801D01*
X202294Y234177D01*
X199671Y236801D01*
Y228930D01*
X193111Y236801D02*
X195735D01*
X197047Y235489D01*
Y230242D01*
X195735Y228930D01*
X193111D01*
X191799Y230242D01*
Y235489D01*
X193111Y236801D01*
X189175D02*
Y228930D01*
X185240D01*
X183928Y230242D01*
Y235489D01*
X185240Y236801D01*
X189175D01*
X176056D02*
X181304D01*
Y228930D01*
X176056D01*
X181304Y232865D02*
X178680D01*
X165561D02*
X160313D01*
X157689Y228930D02*
X153754Y232865D01*
X157689Y236801D01*
X239028Y224955D02*
X244276D01*
Y217084D01*
X239028D01*
X244276Y221020D02*
X241652D01*
X236404Y224955D02*
Y219708D01*
X233780Y217084D01*
X231156Y219708D01*
Y224955D01*
X223285D02*
X228533D01*
Y217084D01*
X223285D01*
X228533Y221020D02*
X225909D01*
X220661Y217084D02*
Y224955D01*
X216725D01*
X215413Y223643D01*
Y221020D01*
X216725Y219708D01*
X220661D01*
X218037D02*
X215413Y217084D01*
X212790Y224955D02*
Y223643D01*
X210166Y221020D01*
X207542Y223643D01*
Y224955D01*
X210166Y221020D02*
Y217084D01*
X197047Y224955D02*
Y217084D01*
X193111D01*
X191799Y218396D01*
Y223643D01*
X193111Y224955D01*
X197047D01*
X183928Y223643D02*
X185240Y224955D01*
X187863D01*
X189175Y223643D01*
Y218396D01*
X187863Y217084D01*
X185240D01*
X183928Y218396D01*
X181304Y224955D02*
Y218396D01*
X179992Y217084D01*
X177368D01*
X176056Y218396D01*
Y224955D01*
X160313Y223643D02*
X161625Y224955D01*
X164249D01*
X165561Y223643D01*
Y218396D01*
X164249Y217084D01*
X161625D01*
X160313Y218396D01*
X153754Y224955D02*
X156377D01*
X157689Y223643D01*
Y218396D01*
X156377Y217084D01*
X153754D01*
X152442Y218396D01*
Y223643D01*
X153754Y224955D01*
X149818Y217084D02*
Y224955D01*
X144570Y217084D01*
Y224955D01*
X141946D02*
X136699D01*
X139322D01*
Y217084D01*
X134075D02*
Y224955D01*
X130139D01*
X128827Y223643D01*
Y221020D01*
X130139Y219708D01*
X134075D01*
X131451D02*
X128827Y217084D01*
X122268Y224955D02*
X124891D01*
X126203Y223643D01*
Y218396D01*
X124891Y217084D01*
X122268D01*
X120956Y218396D01*
Y223643D01*
X122268Y224955D01*
X118332D02*
Y217084D01*
X113084D01*
X105213Y223643D02*
X106525Y224955D01*
X109149D01*
X110460Y223643D01*
Y222332D01*
X109149Y221020D01*
X106525D01*
X105213Y219708D01*
Y218396D01*
X106525Y217084D01*
X109149D01*
X110460Y218396D01*
X90782Y217084D02*
Y224955D01*
X94718Y221020D01*
X89470D01*
X78974Y217084D02*
Y224955D01*
X76351Y222332D01*
X73727Y224955D01*
Y217084D01*
X67167Y224955D02*
X69791D01*
X71103Y223643D01*
Y218396D01*
X69791Y217084D01*
X67167D01*
X65855Y218396D01*
Y223643D01*
X67167Y224955D01*
X63232D02*
X57984D01*
X60608D01*
Y217084D01*
X51424Y224955D02*
X54048D01*
X55360Y223643D01*
Y218396D01*
X54048Y217084D01*
X51424D01*
X50112Y218396D01*
Y223643D01*
X51424Y224955D01*
X47489Y217084D02*
Y224955D01*
X43553D01*
X42241Y223643D01*
Y221020D01*
X43553Y219708D01*
X47489D01*
X44865D02*
X42241Y217084D01*
X34370Y223643D02*
X35681Y224955D01*
X38305D01*
X39617Y223643D01*
Y222332D01*
X38305Y221020D01*
X35681D01*
X34370Y219708D01*
Y218396D01*
X35681Y217084D01*
X38305D01*
X39617Y218396D01*
X244276Y193392D02*
Y198640D01*
X241652Y201264D01*
X239028Y198640D01*
Y193392D01*
Y197328D01*
X244276D01*
X231156Y199952D02*
X232468Y201264D01*
X235092D01*
X236404Y199952D01*
Y198640D01*
X235092Y197328D01*
X232468D01*
X231156Y196016D01*
Y194704D01*
X232468Y193392D01*
X235092D01*
X236404Y194704D01*
X228533Y201264D02*
Y199952D01*
X225909Y197328D01*
X223285Y199952D01*
Y201264D01*
X225909Y197328D02*
Y193392D01*
X220661D02*
Y201264D01*
X215413Y193392D01*
Y201264D01*
X207542Y199952D02*
X208854Y201264D01*
X211478D01*
X212790Y199952D01*
Y194704D01*
X211478Y193392D01*
X208854D01*
X207542Y194704D01*
X197047Y193392D02*
Y201264D01*
X194423Y198640D01*
X191799Y201264D01*
Y193392D01*
X185240Y201264D02*
X187863D01*
X189175Y199952D01*
Y194704D01*
X187863Y193392D01*
X185240D01*
X183928Y194704D01*
Y199952D01*
X185240Y201264D01*
X181304D02*
Y193392D01*
X177368D01*
X176056Y194704D01*
Y199952D01*
X177368Y201264D01*
X181304D01*
X168185D02*
X173432D01*
Y193392D01*
X168185D01*
X173432Y197328D02*
X170808D01*
X157689D02*
X152442D01*
X149818Y193392D02*
X145882Y197328D01*
X149818Y201264D01*
X244276Y189418D02*
Y181547D01*
X240340D01*
X239028Y182859D01*
Y188106D01*
X240340Y189418D01*
X244276D01*
X231156Y188106D02*
X232468Y189418D01*
X235092D01*
X236404Y188106D01*
Y182859D01*
X235092Y181547D01*
X232468D01*
X231156Y182859D01*
X228533Y189418D02*
Y182859D01*
X227221Y181547D01*
X224597D01*
X223285Y182859D01*
Y189418D01*
X220661Y181547D02*
X218037D01*
X219349D01*
Y189418D01*
X220661Y188106D01*
X200982Y189418D02*
X206230D01*
Y185482D01*
X203606D01*
X206230D01*
Y181547D01*
X194423Y189418D02*
X197047D01*
X198359Y188106D01*
Y182859D01*
X197047Y181547D01*
X194423D01*
X193111Y182859D01*
Y188106D01*
X194423Y189418D01*
X190487Y181547D02*
Y189418D01*
X186551D01*
X185240Y188106D01*
Y185482D01*
X186551Y184170D01*
X190487D01*
X187863D02*
X185240Y181547D01*
X174744D02*
Y189418D01*
X172120Y186794D01*
X169497Y189418D01*
Y181547D01*
X162937Y189418D02*
X165561D01*
X166873Y188106D01*
Y182859D01*
X165561Y181547D01*
X162937D01*
X161625Y182859D01*
Y188106D01*
X162937Y189418D01*
X159001D02*
X153754D01*
X156377D01*
Y181547D01*
X147194Y189418D02*
X149818D01*
X151130Y188106D01*
Y182859D01*
X149818Y181547D01*
X147194D01*
X145882Y182859D01*
Y188106D01*
X147194Y189418D01*
X143258Y181547D02*
Y189418D01*
X139322D01*
X138011Y188106D01*
Y185482D01*
X139322Y184170D01*
X143258D01*
X140634D02*
X138011Y181547D01*
X127515D02*
X124891D01*
X126203D01*
Y189418D01*
X127515Y188106D01*
X107837Y181547D02*
X109149Y182859D01*
X110460Y181547D01*
X111772D01*
X113084Y182859D01*
Y184170D01*
X111772Y185482D01*
X113084Y186794D01*
Y188106D01*
X111772Y189418D01*
X110460D01*
X109149Y188106D01*
Y186794D01*
X110460Y185482D01*
X109149Y184170D01*
Y182859D01*
X107837Y185482D02*
X109149Y184170D01*
X111772Y185482D02*
X110460D01*
X93406Y181547D02*
Y189418D01*
X97341Y185482D01*
X92094D01*
X244276Y177572D02*
Y169701D01*
X240340D01*
X239028Y171013D01*
Y176260D01*
X240340Y177572D01*
X244276D01*
X231156Y176260D02*
X232468Y177572D01*
X235092D01*
X236404Y176260D01*
Y171013D01*
X235092Y169701D01*
X232468D01*
X231156Y171013D01*
X228533Y177572D02*
Y171013D01*
X227221Y169701D01*
X224597D01*
X223285Y171013D01*
Y177572D01*
X215413Y169701D02*
X220661D01*
X215413Y174948D01*
Y176260D01*
X216725Y177572D01*
X219349D01*
X220661Y176260D01*
X199671Y177572D02*
X204918D01*
Y173636D01*
X202294D01*
X204918D01*
Y169701D01*
X193111Y177572D02*
X195735D01*
X197047Y176260D01*
Y171013D01*
X195735Y169701D01*
X193111D01*
X191799Y171013D01*
Y176260D01*
X193111Y177572D01*
X189175Y169701D02*
Y177572D01*
X185240D01*
X183928Y176260D01*
Y173636D01*
X185240Y172325D01*
X189175D01*
X186551D02*
X183928Y169701D01*
X173432D02*
Y177572D01*
X170808Y174948D01*
X168185Y177572D01*
Y169701D01*
X161625Y177572D02*
X164249D01*
X165561Y176260D01*
Y171013D01*
X164249Y169701D01*
X161625D01*
X160313Y171013D01*
Y176260D01*
X161625Y177572D01*
X157689D02*
X152442D01*
X155066D01*
Y169701D01*
X145882Y177572D02*
X148506D01*
X149818Y176260D01*
Y171013D01*
X148506Y169701D01*
X145882D01*
X144570Y171013D01*
Y176260D01*
X145882Y177572D01*
X141946Y169701D02*
Y177572D01*
X138011D01*
X136699Y176260D01*
Y173636D01*
X138011Y172325D01*
X141946D01*
X139322D02*
X136699Y169701D01*
X120956D02*
X126203D01*
X120956Y174948D01*
Y176260D01*
X122268Y177572D01*
X124891D01*
X126203Y176260D01*
X105213Y169701D02*
X106525Y171013D01*
X107837Y169701D01*
X109149D01*
X110460Y171013D01*
Y172325D01*
X109149Y173636D01*
X110460Y174948D01*
Y176260D01*
X109149Y177572D01*
X107837D01*
X106525Y176260D01*
Y174948D01*
X107837Y173636D01*
X106525Y172325D01*
Y171013D01*
X105213Y173636D02*
X106525Y172325D01*
X109149Y173636D02*
X107837D01*
X94718Y176260D02*
X93406Y177572D01*
X90782D01*
X89470Y176260D01*
Y174948D01*
X90782Y173636D01*
X92094D01*
X90782D01*
X89470Y172325D01*
Y171013D01*
X90782Y169701D01*
X93406D01*
X94718Y171013D01*
X437189Y741354D02*
X435190D01*
X436189D01*
Y747352D01*
X437189Y746353D01*
X428192Y741354D02*
X432191D01*
X428192Y745353D01*
Y746353D01*
X429192Y747352D01*
X431191D01*
X432191Y746353D01*
X429253Y758966D02*
X431253Y757967D01*
X433252Y755968D01*
Y753968D01*
X432252Y752969D01*
X430253D01*
X429253Y753968D01*
Y754968D01*
X430253Y755968D01*
X433252D01*
X357268Y747156D02*
X353269D01*
Y746156D01*
X357268Y742157D01*
Y741157D01*
X357268Y752969D02*
X355268D01*
X356268D01*
Y758967D01*
X357268Y757967D01*
X482361Y45654D02*
X478362D01*
X482361Y41655D01*
Y40655D01*
X481361Y39656D01*
X479362D01*
X478362Y40655D01*
X479347Y34236D02*
X481346D01*
X480346D01*
Y28238D01*
X479347Y29238D01*
X423306Y45654D02*
X419307D01*
X423306Y41655D01*
Y40655D01*
X422306Y39656D01*
X420307D01*
X419307Y40655D01*
X420291Y34236D02*
X422291D01*
X421291D01*
Y28238D01*
X420291Y29238D01*
X541416Y45654D02*
X537417D01*
X541416Y41655D01*
Y40655D01*
X540416Y39656D01*
X538417D01*
X537417Y40655D01*
X538402Y34236D02*
X540401D01*
X539401D01*
Y28238D01*
X538402Y29238D01*
X45654Y620001D02*
Y624000D01*
X41655Y620001D01*
X40655D01*
X39656Y621001D01*
Y623000D01*
X40655Y624000D01*
X34236Y623016D02*
Y621016D01*
Y622016D01*
X28238D01*
X29238Y623016D01*
X753559Y732496D02*
Y734495D01*
Y733496D01*
X759557D01*
X758557Y732496D01*
X747746Y736495D02*
Y732496D01*
X744747D01*
X745747Y734495D01*
Y735495D01*
X744747Y736495D01*
X742748D01*
X741748Y735495D01*
Y733496D01*
X742748Y732496D01*
X753480Y683920D02*
X759478D01*
X756479Y680921D01*
Y684920D01*
X746668Y680921D02*
X747667Y681921D01*
Y683920D01*
X746668Y684920D01*
X745668D01*
X744668Y683920D01*
X743669Y684920D01*
X742669D01*
X741669Y683920D01*
Y681921D01*
X742669Y680921D01*
X743669D01*
X744668Y681921D01*
X745668Y680921D01*
X746668D01*
X744668Y681921D02*
Y683920D01*
X33843Y684827D02*
Y682827D01*
Y683827D01*
X27845D01*
X28844Y684827D01*
X39656Y680828D02*
Y684827D01*
X42654D01*
X41655Y682827D01*
Y681828D01*
X42654Y680828D01*
X44654D01*
X45654Y681828D01*
Y683827D01*
X44654Y684827D01*
X33921Y733402D02*
X27923D01*
X30922Y736402D01*
Y732403D01*
X40734Y736402D02*
X39734Y735402D01*
Y733402D01*
X40734Y732403D01*
X41734D01*
X42733Y733402D01*
X43733Y732403D01*
X44733D01*
X45732Y733402D01*
Y735402D01*
X44733Y736402D01*
X43733D01*
X42733Y735402D01*
X41734Y736402D01*
X40734D01*
X42733Y735402D02*
Y733402D01*
X46047Y515929D02*
Y513930D01*
Y514929D01*
X40049D01*
X41049Y515929D01*
X46047Y506932D02*
Y510931D01*
X42048Y506932D01*
X41049D01*
X40049Y507932D01*
Y509931D01*
X41049Y510931D01*
X28435Y507993D02*
X29435Y509993D01*
X31434Y511992D01*
X33433D01*
X34433Y510992D01*
Y508993D01*
X33433Y507993D01*
X32434D01*
X31434Y508993D01*
Y511992D01*
X40246Y436008D02*
Y432009D01*
X41246D01*
X45244Y436008D01*
X46244D01*
X34433D02*
Y434009D01*
Y435008D01*
X28435D01*
X29435Y436008D01*
X753559Y102575D02*
Y104574D01*
Y103575D01*
X759557D01*
X758557Y102575D01*
X747746Y106573D02*
Y102575D01*
X744747D01*
X745747Y104574D01*
Y105574D01*
X744747Y106573D01*
X742748D01*
X741748Y105574D01*
Y103575D01*
X742748Y102575D01*
X753480Y53999D02*
X759478D01*
X756479Y51000D01*
Y54999D01*
X746668Y51000D02*
X747667Y52000D01*
Y53999D01*
X746668Y54999D01*
X745668D01*
X744668Y53999D01*
X743669Y54999D01*
X742669D01*
X741669Y53999D01*
Y52000D01*
X742669Y51000D01*
X743669D01*
X744668Y52000D01*
X745668Y51000D01*
X746668D01*
X744668Y52000D02*
Y53999D01*
X33843Y54905D02*
Y52906D01*
Y53906D01*
X27845D01*
X28844Y54905D01*
X39656Y50907D02*
Y54905D01*
X42654D01*
X41655Y52906D01*
Y51907D01*
X42654Y50907D01*
X44654D01*
X45654Y51907D01*
Y53906D01*
X44654Y54905D01*
X33921Y103481D02*
X27923D01*
X30922Y106480D01*
Y102482D01*
X40734Y106480D02*
X39734Y105481D01*
Y103481D01*
X40734Y102482D01*
X41734D01*
X42733Y103481D01*
X43733Y102482D01*
X44733D01*
X45732Y103481D01*
Y105481D01*
X44733Y106480D01*
X43733D01*
X42733Y105481D01*
X41734Y106480D01*
X40734D01*
X42733Y105481D02*
Y103481D01*
X25837Y397972D02*
X20839D01*
X19839Y398972D01*
Y400971D01*
X20839Y401971D01*
X25837D01*
X19839Y403970D02*
Y405969D01*
Y404970D01*
X25837D01*
X24837Y403970D01*
X741075Y187009D02*
Y190944D01*
X739107D01*
X738451Y190288D01*
Y188976D01*
X739107Y188320D01*
X741075D01*
X739763D02*
X738451Y187009D01*
X737139Y190288D02*
X736483Y190944D01*
X735172D01*
X734515Y190288D01*
Y189632D01*
X735172Y188976D01*
X734515Y188320D01*
Y187664D01*
X735172Y187009D01*
X736483D01*
X737139Y187664D01*
Y188320D01*
X736483Y188976D01*
X737139Y189632D01*
Y190288D01*
X736483Y188976D02*
X735172D01*
X741272Y202953D02*
Y206889D01*
X739304D01*
X738648Y206233D01*
Y204921D01*
X739304Y204265D01*
X741272D01*
X739960D02*
X738648Y202953D01*
X737336Y206889D02*
X734712D01*
Y206233D01*
X737336Y203609D01*
Y202953D01*
X741272Y265749D02*
Y269684D01*
X739304D01*
X738648Y269028D01*
Y267717D01*
X739304Y267061D01*
X741272D01*
X739960D02*
X738648Y265749D01*
X734712Y269684D02*
X736024Y269028D01*
X737336Y267717D01*
Y266405D01*
X736680Y265749D01*
X735368D01*
X734712Y266405D01*
Y267061D01*
X735368Y267717D01*
X737336D01*
X741075Y281497D02*
Y285432D01*
X739107D01*
X738451Y284776D01*
Y283465D01*
X739107Y282809D01*
X741075D01*
X739763D02*
X738451Y281497D01*
X734515Y285432D02*
X737139D01*
Y283465D01*
X735827Y284120D01*
X735172D01*
X734515Y283465D01*
Y282153D01*
X735172Y281497D01*
X736483D01*
X737139Y282153D01*
X741272Y344489D02*
Y348425D01*
X739304D01*
X738648Y347769D01*
Y346457D01*
X739304Y345801D01*
X741272D01*
X739960D02*
X738648Y344489D01*
X735368D02*
Y348425D01*
X737336Y346457D01*
X734712D01*
X740681Y360434D02*
Y364369D01*
X738714D01*
X738058Y363714D01*
Y362402D01*
X738714Y361746D01*
X740681D01*
X739369D02*
X738058Y360434D01*
X736746Y363714D02*
X736090Y364369D01*
X734778D01*
X734122Y363714D01*
Y363057D01*
X734778Y362402D01*
X735434D01*
X734778D01*
X734122Y361746D01*
Y361090D01*
X734778Y360434D01*
X736090D01*
X736746Y361090D01*
X741075Y423426D02*
Y427362D01*
X739107D01*
X738451Y426706D01*
Y425394D01*
X739107Y424738D01*
X741075D01*
X739763D02*
X738451Y423426D01*
X734515D02*
X737139D01*
X734515Y426050D01*
Y426706D01*
X735172Y427362D01*
X736483D01*
X737139Y426706D01*
X741010Y439174D02*
Y443110D01*
X739042D01*
X738386Y442454D01*
Y441142D01*
X739042Y440486D01*
X741010D01*
X739698D02*
X738386Y439174D01*
X737074D02*
X735762D01*
X736418D01*
Y443110D01*
X737074Y442454D01*
X11008Y420245D02*
X10008Y419245D01*
X8009D01*
X7010Y420245D01*
Y424243D01*
X8009Y425243D01*
X10008D01*
X11008Y424243D01*
X13008Y420245D02*
X14007Y419245D01*
X16007D01*
X17006Y420245D01*
Y421244D01*
X16007Y422244D01*
X17006Y423244D01*
Y424243D01*
X16007Y425243D01*
X14007D01*
X13008Y424243D01*
Y423244D01*
X14007Y422244D01*
X13008Y421244D01*
Y420245D01*
X14007Y422244D02*
X16007D01*
X13598Y383102D02*
X14598Y384101D01*
X16597D01*
X17597Y383102D01*
Y379103D01*
X16597Y378103D01*
X14598D01*
X13598Y379103D01*
X11599Y384101D02*
X7600D01*
Y383102D01*
X11599Y379103D01*
Y378103D01*
X717141Y241763D02*
X718141Y242763D01*
X720140D01*
X721140Y241763D01*
Y237764D01*
X720140Y236765D01*
X718141D01*
X717141Y237764D01*
X712143Y236765D02*
Y242763D01*
X715142Y239764D01*
X711143D01*
X717535Y320503D02*
X718535Y321503D01*
X720534D01*
X721534Y320503D01*
Y316505D01*
X720534Y315505D01*
X718535D01*
X717535Y316505D01*
X715536Y320503D02*
X714536Y321503D01*
X712537D01*
X711537Y320503D01*
Y319504D01*
X712537Y318504D01*
X713536D01*
X712537D01*
X711537Y317504D01*
Y316505D01*
X712537Y315505D01*
X714536D01*
X715536Y316505D01*
X717338Y399440D02*
X718338Y400440D01*
X720337D01*
X721337Y399440D01*
Y395442D01*
X720337Y394442D01*
X718338D01*
X717338Y395442D01*
X711340Y394442D02*
X715339D01*
X711340Y398441D01*
Y399440D01*
X712340Y400440D01*
X714339D01*
X715339Y399440D01*
X716732Y478003D02*
X717732Y479003D01*
X719731D01*
X720731Y478003D01*
Y474005D01*
X719731Y473005D01*
X717732D01*
X716732Y474005D01*
X714733Y473005D02*
X712734D01*
X713733D01*
Y479003D01*
X714733Y478003D01*
M02*
