G04*
G04 #@! TF.GenerationSoftware,Altium Limited,Altium Designer,21.3.2 (30)*
G04*
G04 Layer_Physical_Order=1*
G04 Layer_Color=255*
%FSLAX25Y25*%
%MOIN*%
G70*
G04*
G04 #@! TF.SameCoordinates,7D36CCFB-020A-49C9-B8D2-55C5552AF9BD*
G04*
G04*
G04 #@! TF.FilePolarity,Positive*
G04*
G01*
G75*
%ADD12C,0.01000*%
%ADD13C,0.00394*%
%ADD14C,0.00197*%
%ADD15C,0.00100*%
%ADD22R,0.06299X0.06299*%
%ADD23C,0.06299*%
%ADD24C,0.06496*%
%ADD25R,0.06496X0.06496*%
%ADD26C,0.19685*%
%ADD27C,0.27559*%
G36*
X38350Y193856D02*
Y167323D01*
X38428Y166933D01*
X38649Y166602D01*
X50161Y155089D01*
Y80905D01*
X50239Y80515D01*
X50460Y80185D01*
X50791Y79963D01*
X51181Y79886D01*
X86404Y79886D01*
X86596Y79924D01*
X86787Y79961D01*
X86791Y79963D01*
X86794Y79963D01*
X86956Y80072D01*
X87120Y80180D01*
X87122Y80183D01*
X87125Y80185D01*
X87233Y80347D01*
X87343Y80509D01*
X87344Y80512D01*
X87346Y80515D01*
X87384Y80707D01*
X87423Y80898D01*
X87658Y115189D01*
X87658Y115191D01*
X87658Y115193D01*
X87621Y115385D01*
X87583Y115580D01*
X87582Y115582D01*
X87582Y115583D01*
X87473Y115748D01*
X87365Y115912D01*
X87363Y115913D01*
X87362Y115915D01*
X87010Y116270D01*
X87008Y116271D01*
X87007Y116272D01*
X86843Y116382D01*
X86680Y116492D01*
X86678Y116492D01*
X86677Y116493D01*
X86484Y116531D01*
X86290Y116571D01*
X86288Y116570D01*
X86286Y116571D01*
X69917D01*
Y157058D01*
X79461Y166602D01*
X79682Y166933D01*
X79760Y167323D01*
Y193856D01*
X80260Y193856D01*
X117091D01*
Y167323D01*
X117168Y166933D01*
X117389Y166602D01*
X126933Y157058D01*
Y116571D01*
X110563D01*
X110561Y116570D01*
X110559Y116571D01*
X110455Y116550D01*
X110197Y116684D01*
X109971Y116888D01*
X109955Y116921D01*
Y132744D01*
X110065Y132774D01*
X111033Y133333D01*
X111825Y134124D01*
X112384Y135093D01*
X112673Y136173D01*
Y137292D01*
X112384Y138372D01*
X111825Y139341D01*
X111033Y140131D01*
X110065Y140691D01*
X108984Y140980D01*
X107866D01*
X106786Y140691D01*
X105817Y140131D01*
X105026Y139341D01*
X104467Y138372D01*
X104177Y137292D01*
Y136173D01*
X104467Y135093D01*
X105026Y134124D01*
X105817Y133333D01*
X106786Y132774D01*
X106896Y132744D01*
Y116992D01*
X103249Y113345D01*
X102918Y112849D01*
X102801Y112264D01*
Y106367D01*
X102729Y106347D01*
X101783Y105801D01*
X101010Y105028D01*
X100464Y104082D01*
X100181Y103027D01*
Y101934D01*
X100464Y100879D01*
X101010Y99932D01*
X101783Y99160D01*
X102729Y98614D01*
X103784Y98331D01*
X104877D01*
X105932Y98614D01*
X106879Y99160D01*
X107651Y99932D01*
X108197Y100879D01*
X108480Y101934D01*
Y103027D01*
X108197Y104082D01*
X107651Y105028D01*
X106879Y105801D01*
X105932Y106347D01*
X105860Y106367D01*
Y111630D01*
X108734Y114504D01*
X109197Y114315D01*
X109426Y80898D01*
X109465Y80707D01*
X109503Y80515D01*
X109505Y80512D01*
X109506Y80509D01*
X109616Y80347D01*
X109724Y80185D01*
X109727Y80183D01*
X109729Y80180D01*
X109893Y80072D01*
X110055Y79963D01*
X110058Y79963D01*
X110062Y79961D01*
X110254Y79924D01*
X110445Y79886D01*
X145669D01*
X146060Y79963D01*
X146390Y80185D01*
X146611Y80515D01*
X146689Y80905D01*
Y155089D01*
X158201Y166602D01*
X158422Y166933D01*
X158500Y167323D01*
Y193856D01*
X159000Y193856D01*
X179560D01*
X179639Y193356D01*
X178909Y193119D01*
X177388Y192344D01*
X176007Y191341D01*
X174801Y190134D01*
X173798Y188754D01*
X173023Y187233D01*
X172495Y185610D01*
X172228Y183924D01*
Y182218D01*
X172495Y180532D01*
X173023Y178909D01*
X173798Y177388D01*
X174801Y176007D01*
X176007Y174801D01*
X177388Y173798D01*
X178909Y173023D01*
X180532Y172495D01*
X182218Y172228D01*
X183924D01*
X185610Y172495D01*
X187233Y173023D01*
X188754Y173798D01*
X190134Y174801D01*
X191341Y176007D01*
X192344Y177388D01*
X193119Y178909D01*
X193356Y179639D01*
X193856Y179560D01*
Y17291D01*
X193356Y17211D01*
X193119Y17942D01*
X192344Y19462D01*
X191341Y20843D01*
X190134Y22050D01*
X188754Y23053D01*
X187233Y23828D01*
X185610Y24355D01*
X183924Y24622D01*
X182218D01*
X180532Y24355D01*
X178909Y23828D01*
X177388Y23053D01*
X176007Y22050D01*
X174801Y20843D01*
X173798Y19462D01*
X173023Y17942D01*
X172495Y16319D01*
X172228Y14633D01*
Y12926D01*
X172495Y11241D01*
X173023Y9617D01*
X173798Y8097D01*
X174801Y6716D01*
X176007Y5509D01*
X177388Y4506D01*
X178909Y3731D01*
X179639Y3494D01*
X179560Y2994D01*
X17291Y2994D01*
X17211Y3494D01*
X17942Y3731D01*
X19462Y4506D01*
X20843Y5509D01*
X22050Y6716D01*
X23053Y8097D01*
X23828Y9617D01*
X24355Y11241D01*
X24622Y12926D01*
Y14633D01*
X24355Y16319D01*
X23828Y17942D01*
X23053Y19462D01*
X22050Y20843D01*
X20843Y22050D01*
X19462Y23053D01*
X17942Y23828D01*
X16319Y24355D01*
X14633Y24622D01*
X12926D01*
X11241Y24355D01*
X9617Y23828D01*
X8097Y23053D01*
X6716Y22050D01*
X5509Y20843D01*
X4506Y19462D01*
X3731Y17942D01*
X3494Y17211D01*
X2994Y17291D01*
X2994Y179560D01*
X3494Y179639D01*
X3731Y178909D01*
X4506Y177388D01*
X5509Y176007D01*
X6716Y174801D01*
X8097Y173798D01*
X9617Y173023D01*
X11241Y172495D01*
X12926Y172228D01*
X14633D01*
X16319Y172495D01*
X17942Y173023D01*
X19462Y173798D01*
X20843Y174801D01*
X22050Y176007D01*
X23053Y177388D01*
X23828Y178909D01*
X24355Y180532D01*
X24622Y182218D01*
Y183924D01*
X24355Y185610D01*
X23828Y187233D01*
X23053Y188754D01*
X22050Y190134D01*
X20843Y191341D01*
X19462Y192344D01*
X17942Y193119D01*
X17211Y193356D01*
X17291Y193856D01*
X38350D01*
D02*
G37*
G36*
X157480Y193856D02*
Y167323D01*
X145669Y155512D01*
Y80905D01*
X110445D01*
X110210Y115196D01*
X110563Y115551D01*
X127953D01*
Y157480D01*
X118110Y167323D01*
Y193856D01*
X157480Y193856D01*
D02*
G37*
G36*
X78740Y193856D02*
Y167323D01*
X68898Y157480D01*
Y115551D01*
X86286D01*
X86639Y115196D01*
X86404Y80905D01*
X51181Y80905D01*
Y155512D01*
X39370Y167323D01*
Y193856D01*
X78740Y193856D01*
D02*
G37*
%LPC*%
G36*
X88985Y150980D02*
X88925D01*
Y147232D01*
X92673D01*
Y147292D01*
X92384Y148372D01*
X91825Y149341D01*
X91034Y150131D01*
X90065Y150691D01*
X88985Y150980D01*
D02*
G37*
G36*
X87925D02*
X87866D01*
X86786Y150691D01*
X85817Y150131D01*
X85026Y149341D01*
X84467Y148372D01*
X84177Y147292D01*
Y147232D01*
X87925D01*
Y150980D01*
D02*
G37*
G36*
X118984D02*
X117866D01*
X116786Y150691D01*
X115817Y150131D01*
X115026Y149341D01*
X114467Y148372D01*
X114177Y147292D01*
Y146173D01*
X114467Y145093D01*
X115026Y144124D01*
X115817Y143333D01*
X116786Y142774D01*
X117866Y142484D01*
X118984D01*
X120065Y142774D01*
X121034Y143333D01*
X121825Y144124D01*
X122384Y145093D01*
X122673Y146173D01*
Y147292D01*
X122384Y148372D01*
X121825Y149341D01*
X121034Y150131D01*
X120065Y150691D01*
X118984Y150980D01*
D02*
G37*
G36*
X108984D02*
X107866D01*
X106786Y150691D01*
X105817Y150131D01*
X105026Y149341D01*
X104467Y148372D01*
X104177Y147292D01*
Y146173D01*
X104467Y145093D01*
X105026Y144124D01*
X105817Y143333D01*
X106786Y142774D01*
X107866Y142484D01*
X108984D01*
X110065Y142774D01*
X111033Y143333D01*
X111825Y144124D01*
X112384Y145093D01*
X112673Y146173D01*
Y147292D01*
X112384Y148372D01*
X111825Y149341D01*
X111033Y150131D01*
X110065Y150691D01*
X108984Y150980D01*
D02*
G37*
G36*
X98984D02*
X97866D01*
X96785Y150691D01*
X95817Y150131D01*
X95026Y149341D01*
X94467Y148372D01*
X94177Y147292D01*
Y146173D01*
X94467Y145093D01*
X95026Y144124D01*
X95817Y143333D01*
X96785Y142774D01*
X97866Y142484D01*
X98984D01*
X100065Y142774D01*
X101034Y143333D01*
X101824Y144124D01*
X102384Y145093D01*
X102673Y146173D01*
Y147292D01*
X102384Y148372D01*
X101824Y149341D01*
X101034Y150131D01*
X100065Y150691D01*
X98984Y150980D01*
D02*
G37*
G36*
X92673Y146232D02*
X88925D01*
Y142484D01*
X88985D01*
X90065Y142774D01*
X91034Y143333D01*
X91825Y144124D01*
X92384Y145093D01*
X92673Y146173D01*
Y146232D01*
D02*
G37*
G36*
X87925D02*
X84177D01*
Y146173D01*
X84467Y145093D01*
X85026Y144124D01*
X85817Y143333D01*
X86786Y142774D01*
X87866Y142484D01*
X87925D01*
Y146232D01*
D02*
G37*
G36*
X82673Y150980D02*
X74177D01*
Y142484D01*
X82673D01*
Y150980D01*
D02*
G37*
G36*
X118984Y140980D02*
X117866D01*
X116786Y140691D01*
X115817Y140131D01*
X115026Y139341D01*
X114467Y138372D01*
X114177Y137292D01*
Y136173D01*
X114467Y135093D01*
X115026Y134124D01*
X115817Y133333D01*
X116786Y132774D01*
X117866Y132484D01*
X118984D01*
X120065Y132774D01*
X121034Y133333D01*
X121825Y134124D01*
X122384Y135093D01*
X122673Y136173D01*
Y137292D01*
X122384Y138372D01*
X121825Y139341D01*
X121034Y140131D01*
X120065Y140691D01*
X118984Y140980D01*
D02*
G37*
G36*
X88985D02*
X87866D01*
X86786Y140691D01*
X85817Y140131D01*
X85026Y139341D01*
X84467Y138372D01*
X84177Y137292D01*
Y136173D01*
X84467Y135093D01*
X85026Y134124D01*
X85817Y133333D01*
X86786Y132774D01*
X87866Y132484D01*
X88985D01*
X90065Y132774D01*
X91034Y133333D01*
X91825Y134124D01*
X92384Y135093D01*
X92673Y136173D01*
Y137292D01*
X92384Y138372D01*
X91825Y139341D01*
X91034Y140131D01*
X90065Y140691D01*
X88985Y140980D01*
D02*
G37*
G36*
X78984D02*
X77866D01*
X76785Y140691D01*
X75817Y140131D01*
X75026Y139341D01*
X74467Y138372D01*
X74177Y137292D01*
Y136173D01*
X74467Y135093D01*
X75026Y134124D01*
X75817Y133333D01*
X76785Y132774D01*
X77866Y132484D01*
X78984D01*
X80065Y132774D01*
X81034Y133333D01*
X81824Y134124D01*
X82384Y135093D01*
X82673Y136173D01*
Y137292D01*
X82384Y138372D01*
X81824Y139341D01*
X81034Y140131D01*
X80065Y140691D01*
X78984Y140980D01*
D02*
G37*
G36*
X98984D02*
X97866D01*
X96785Y140691D01*
X95817Y140131D01*
X95026Y139341D01*
X94467Y138372D01*
X94177Y137292D01*
Y136173D01*
X94467Y135093D01*
X95026Y134124D01*
X95817Y133333D01*
X96785Y132774D01*
X96896Y132744D01*
Y118941D01*
X91438Y113483D01*
X91107Y112987D01*
X90990Y112402D01*
Y106367D01*
X90918Y106347D01*
X89972Y105801D01*
X89199Y105028D01*
X88653Y104082D01*
X88370Y103027D01*
Y101934D01*
X88653Y100879D01*
X89199Y99932D01*
X89972Y99160D01*
X90918Y98614D01*
X91973Y98331D01*
X93066D01*
X94121Y98614D01*
X95068Y99160D01*
X95840Y99932D01*
X96386Y100879D01*
X96669Y101934D01*
Y103027D01*
X96386Y104082D01*
X95840Y105028D01*
X95068Y105801D01*
X94121Y106347D01*
X94049Y106367D01*
Y111768D01*
X99507Y117226D01*
X99838Y117722D01*
X99955Y118307D01*
Y132744D01*
X100065Y132774D01*
X101034Y133333D01*
X101824Y134124D01*
X102384Y135093D01*
X102673Y136173D01*
Y137292D01*
X102384Y138372D01*
X101824Y139341D01*
X101034Y140131D01*
X100065Y140691D01*
X98984Y140980D01*
D02*
G37*
G36*
X104877Y94819D02*
X104831D01*
Y91169D01*
X108480D01*
Y91216D01*
X108197Y92271D01*
X107651Y93217D01*
X106879Y93990D01*
X105932Y94536D01*
X104877Y94819D01*
D02*
G37*
G36*
X103831D02*
X103784D01*
X102729Y94536D01*
X101783Y93990D01*
X101010Y93217D01*
X100464Y92271D01*
X100181Y91216D01*
Y91169D01*
X103831D01*
Y94819D01*
D02*
G37*
G36*
X108480Y90169D02*
X104831D01*
Y86520D01*
X104877D01*
X105932Y86803D01*
X106879Y87349D01*
X107651Y88121D01*
X108197Y89068D01*
X108480Y90123D01*
Y90169D01*
D02*
G37*
G36*
X103831D02*
X100181D01*
Y90123D01*
X100464Y89068D01*
X101010Y88121D01*
X101783Y87349D01*
X102729Y86803D01*
X103784Y86520D01*
X103831D01*
Y90169D01*
D02*
G37*
G36*
X93066Y94819D02*
X91973D01*
X90918Y94536D01*
X89972Y93990D01*
X89199Y93217D01*
X88653Y92271D01*
X88370Y91216D01*
Y90123D01*
X88653Y89068D01*
X89199Y88121D01*
X89972Y87349D01*
X90918Y86803D01*
X91973Y86520D01*
X93066D01*
X94121Y86803D01*
X95068Y87349D01*
X95840Y88121D01*
X96386Y89068D01*
X96669Y90123D01*
Y91216D01*
X96386Y92271D01*
X95840Y93217D01*
X95068Y93990D01*
X94121Y94536D01*
X93066Y94819D01*
D02*
G37*
G36*
X83613Y52771D02*
X83013D01*
X82603Y52689D01*
X82517Y52632D01*
X82303Y52589D01*
X82046Y52418D01*
X81903Y52389D01*
X81604Y52189D01*
X81603Y52189D01*
X81475Y52103D01*
X81403Y52089D01*
X81275Y52003D01*
X81203Y51989D01*
X81075Y51903D01*
X81003Y51889D01*
X80875Y51803D01*
X80803Y51789D01*
X80675Y51703D01*
X80603Y51689D01*
X80304Y51489D01*
X80303Y51489D01*
X80175Y51403D01*
X80103Y51389D01*
X79975Y51303D01*
X79903Y51289D01*
X79775Y51203D01*
X79703Y51189D01*
X79575Y51103D01*
X79503Y51089D01*
X79246Y50918D01*
X79103Y50889D01*
X79087Y50879D01*
X78922Y50989D01*
X78921Y50989D01*
X78910Y50997D01*
X78870Y51057D01*
X78810Y51097D01*
X78770Y51157D01*
X78710Y51197D01*
X78670Y51257D01*
X78322Y51489D01*
X78321Y51489D01*
X78310Y51497D01*
X78270Y51557D01*
X78210Y51597D01*
X78170Y51657D01*
X78110Y51697D01*
X78070Y51757D01*
X77722Y51989D01*
X77721Y51989D01*
X77710Y51997D01*
X77670Y52057D01*
X77610Y52097D01*
X77570Y52157D01*
X77510Y52197D01*
X77470Y52257D01*
X77122Y52489D01*
X77051Y52503D01*
X76922Y52589D01*
X76513Y52671D01*
X76313D01*
X75903Y52589D01*
X75875Y52571D01*
X75713D01*
X75303Y52489D01*
X75259Y52460D01*
X74903Y52389D01*
X74875Y52371D01*
X74813D01*
X74403Y52289D01*
X74275Y52203D01*
X74203Y52189D01*
X74075Y52103D01*
X74003Y52089D01*
X73656Y51857D01*
X73615Y51797D01*
X73556Y51757D01*
X73515Y51697D01*
X73456Y51657D01*
X73415Y51597D01*
X73356Y51557D01*
X73316Y51497D01*
X73256Y51457D01*
X73216Y51397D01*
X73156Y51357D01*
X73115Y51297D01*
X73056Y51257D01*
X73015Y51197D01*
X72956Y51157D01*
X72916Y51097D01*
X72856Y51057D01*
X72816Y50997D01*
X72804Y50989D01*
X72803Y50989D01*
X72456Y50757D01*
X72416Y50697D01*
X72356Y50657D01*
X72316Y50597D01*
X72256Y50557D01*
X72215Y50497D01*
X72156Y50457D01*
X72115Y50397D01*
X72104Y50389D01*
X72103Y50389D01*
X71756Y50157D01*
X71715Y50097D01*
X71656Y50057D01*
X71615Y49997D01*
X71556Y49957D01*
X71516Y49897D01*
X71456Y49857D01*
X71416Y49797D01*
X71356Y49757D01*
X71315Y49697D01*
X71256Y49657D01*
X71215Y49597D01*
X71156Y49557D01*
X71115Y49497D01*
X71056Y49457D01*
X71016Y49397D01*
X70956Y49357D01*
X70916Y49297D01*
X70856Y49257D01*
X70815Y49197D01*
X70756Y49157D01*
X70715Y49097D01*
X70704Y49089D01*
X70703Y49089D01*
X70356Y48857D01*
X70315Y48797D01*
X70256Y48757D01*
X70215Y48697D01*
X70156Y48657D01*
X70116Y48597D01*
X70056Y48557D01*
X70016Y48497D01*
X69956Y48457D01*
X69915Y48397D01*
X69856Y48357D01*
X69815Y48297D01*
X69756Y48257D01*
X69715Y48197D01*
X69704Y48189D01*
X69703Y48189D01*
X69356Y47957D01*
X69315Y47897D01*
X69256Y47857D01*
X69216Y47797D01*
X69156Y47757D01*
X69116Y47697D01*
X69056Y47657D01*
X69016Y47597D01*
X68956Y47557D01*
X68915Y47497D01*
X68856Y47457D01*
X68815Y47397D01*
X68756Y47357D01*
X68716Y47297D01*
X68656Y47257D01*
X68616Y47197D01*
X68556Y47157D01*
X68515Y47097D01*
X68504Y47089D01*
X68503Y47089D01*
X68156Y46857D01*
X68116Y46797D01*
X68056Y46757D01*
X68015Y46697D01*
X67956Y46657D01*
X67915Y46597D01*
X67856Y46557D01*
X67816Y46497D01*
X67756Y46457D01*
X67716Y46397D01*
X67656Y46357D01*
X67615Y46297D01*
X67556Y46257D01*
X67515Y46197D01*
X67456Y46157D01*
X67415Y46097D01*
X67356Y46057D01*
X67316Y45997D01*
X67256Y45957D01*
X67216Y45897D01*
X67156Y45857D01*
X67115Y45797D01*
X67056Y45757D01*
X66824Y45410D01*
X66742Y45000D01*
X66752Y44950D01*
X66742Y44900D01*
X66824Y44490D01*
X67056Y44143D01*
X67403Y43911D01*
X67813Y43829D01*
X68013D01*
X68422Y43911D01*
X68770Y44143D01*
X68810Y44203D01*
X68821Y44211D01*
X68822Y44211D01*
X68951Y44297D01*
X69022Y44311D01*
X69370Y44543D01*
X69410Y44603D01*
X69421Y44611D01*
X69422Y44611D01*
X69770Y44843D01*
X69810Y44903D01*
X69870Y44943D01*
X69910Y45003D01*
X69970Y45043D01*
X70010Y45103D01*
X70070Y45143D01*
X70110Y45203D01*
X70121Y45211D01*
X70122Y45211D01*
X70470Y45443D01*
X70510Y45503D01*
X70570Y45543D01*
X70610Y45603D01*
X70670Y45643D01*
X70710Y45703D01*
X70721Y45711D01*
X70722Y45711D01*
X71070Y45943D01*
X71110Y46003D01*
X71170Y46043D01*
X71210Y46103D01*
X71270Y46143D01*
X71310Y46203D01*
X71370Y46243D01*
X71410Y46303D01*
X71421Y46311D01*
X71422Y46311D01*
X71770Y46543D01*
X71810Y46603D01*
X71870Y46643D01*
X71910Y46703D01*
X71970Y46743D01*
X72010Y46803D01*
X72021Y46811D01*
X72022Y46811D01*
X72151Y46897D01*
X72222Y46911D01*
X72570Y47143D01*
X72610Y47203D01*
X72670Y47243D01*
X72710Y47303D01*
X72770Y47343D01*
X72810Y47403D01*
X72870Y47443D01*
X72910Y47503D01*
X72921Y47511D01*
X72922Y47511D01*
X73270Y47743D01*
X73310Y47803D01*
X73321Y47811D01*
X73322Y47811D01*
X73670Y48043D01*
X73710Y48103D01*
X73770Y48143D01*
X73810Y48203D01*
X73870Y48243D01*
X73910Y48303D01*
X73922Y48311D01*
X74040Y48273D01*
X74295Y48018D01*
X74323Y47908D01*
X74124Y47610D01*
X74053Y47253D01*
X74023Y47210D01*
X73981Y46996D01*
X73923Y46910D01*
X73853Y46553D01*
X73823Y46510D01*
X73742Y46100D01*
X73752Y46050D01*
X73742Y46000D01*
X73752Y45950D01*
X73742Y45900D01*
X73752Y45852D01*
X73724Y45810D01*
X73709Y45738D01*
X73624Y45610D01*
X73542Y45200D01*
X73552Y45152D01*
X73523Y45110D01*
X73442Y44700D01*
X73452Y44650D01*
X73442Y44600D01*
X73452Y44552D01*
X73423Y44510D01*
X73353Y44153D01*
X73324Y44110D01*
X73242Y43700D01*
X73252Y43652D01*
X73224Y43610D01*
X73153Y43253D01*
X73124Y43210D01*
X73081Y42996D01*
X73023Y42910D01*
X72942Y42500D01*
X72952Y42450D01*
X72942Y42400D01*
X72952Y42350D01*
X72942Y42300D01*
X72952Y42250D01*
X72942Y42200D01*
X73023Y41790D01*
X73256Y41443D01*
X73316Y41403D01*
X73356Y41343D01*
X73415Y41303D01*
X73456Y41243D01*
X73515Y41203D01*
X73523Y41191D01*
X73523Y41190D01*
X73756Y40843D01*
X73816Y40803D01*
X73856Y40743D01*
X73915Y40703D01*
X73923Y40691D01*
X73923Y40690D01*
X74156Y40343D01*
X74216Y40303D01*
X74256Y40243D01*
X74316Y40203D01*
X74356Y40143D01*
X74415Y40103D01*
X74456Y40043D01*
X74515Y40003D01*
X74523Y39991D01*
X74524Y39990D01*
X74756Y39643D01*
X74815Y39603D01*
X74856Y39543D01*
X75203Y39311D01*
X75613Y39229D01*
X76013D01*
X76422Y39311D01*
X76508Y39368D01*
X76722Y39411D01*
X76851Y39497D01*
X76922Y39511D01*
X76966Y39540D01*
X77322Y39611D01*
X77408Y39668D01*
X77622Y39711D01*
X77708Y39768D01*
X77922Y39811D01*
X78008Y39868D01*
X78222Y39911D01*
X78308Y39968D01*
X78522Y40011D01*
X78608Y40068D01*
X78822Y40111D01*
X78951Y40197D01*
X79022Y40211D01*
X79108Y40268D01*
X79322Y40311D01*
X79366Y40340D01*
X79722Y40411D01*
X79851Y40497D01*
X79922Y40511D01*
X80008Y40568D01*
X80222Y40611D01*
X80308Y40668D01*
X80522Y40711D01*
X80608Y40768D01*
X80822Y40811D01*
X80908Y40868D01*
X81122Y40911D01*
X81251Y40997D01*
X81322Y41011D01*
X81366Y41040D01*
X81722Y41111D01*
X81851Y41197D01*
X81922Y41211D01*
X81966Y41240D01*
X82322Y41311D01*
X82451Y41397D01*
X82522Y41411D01*
X82608Y41468D01*
X82822Y41511D01*
X82908Y41568D01*
X83122Y41611D01*
X83208Y41668D01*
X83422Y41711D01*
X83508Y41768D01*
X83722Y41811D01*
X83808Y41868D01*
X84022Y41911D01*
X84108Y41968D01*
X84322Y42011D01*
X84408Y42068D01*
X84622Y42111D01*
X84708Y42168D01*
X84922Y42211D01*
X85008Y42268D01*
X85222Y42311D01*
X85308Y42368D01*
X85522Y42411D01*
X85651Y42497D01*
X85722Y42511D01*
X85808Y42568D01*
X86022Y42611D01*
X86151Y42697D01*
X86222Y42711D01*
X86266Y42740D01*
X86622Y42811D01*
X86708Y42868D01*
X86910Y42908D01*
X86927Y42911D01*
X87332Y42894D01*
X87524Y42690D01*
X87670Y42471D01*
X87556Y41957D01*
X87515Y41897D01*
X87504Y41889D01*
X87503Y41889D01*
X87156Y41657D01*
X87076Y41537D01*
X86956Y41457D01*
X86915Y41397D01*
X86856Y41357D01*
X86816Y41297D01*
X86756Y41257D01*
X86716Y41197D01*
X86704Y41189D01*
X86703Y41189D01*
X86356Y40957D01*
X86316Y40897D01*
X86256Y40857D01*
X86216Y40797D01*
X86156Y40757D01*
X86115Y40697D01*
X86056Y40657D01*
X86015Y40597D01*
X85956Y40557D01*
X85915Y40497D01*
X85856Y40457D01*
X85816Y40397D01*
X85804Y40389D01*
X85803Y40389D01*
X85456Y40157D01*
X85416Y40097D01*
X85356Y40057D01*
X85316Y39997D01*
X85256Y39957D01*
X85216Y39897D01*
X85156Y39857D01*
X85115Y39797D01*
X85056Y39757D01*
X85015Y39697D01*
X84956Y39657D01*
X84916Y39597D01*
X84856Y39557D01*
X84816Y39497D01*
X84756Y39457D01*
X84715Y39397D01*
X84656Y39357D01*
X84615Y39297D01*
X84556Y39257D01*
X84516Y39197D01*
X84504Y39189D01*
X84503Y39189D01*
X84156Y38957D01*
X84115Y38897D01*
X84056Y38857D01*
X84016Y38797D01*
X83956Y38757D01*
X83916Y38697D01*
X83856Y38657D01*
X83815Y38597D01*
X83756Y38557D01*
X83715Y38497D01*
X83656Y38457D01*
X83615Y38397D01*
X83604Y38389D01*
X83603Y38389D01*
X83256Y38157D01*
X83215Y38097D01*
X83156Y38057D01*
X83116Y37997D01*
X83056Y37957D01*
X83016Y37897D01*
X82956Y37857D01*
X82916Y37797D01*
X82856Y37757D01*
X82815Y37697D01*
X82756Y37657D01*
X82715Y37597D01*
X82656Y37557D01*
X82616Y37497D01*
X82556Y37457D01*
X82516Y37397D01*
X82456Y37357D01*
X82415Y37297D01*
X82404Y37289D01*
X82403Y37289D01*
X82056Y37057D01*
X82016Y36997D01*
X81956Y36957D01*
X81915Y36897D01*
X81856Y36857D01*
X81815Y36797D01*
X81804Y36789D01*
X81803Y36789D01*
X81456Y36557D01*
X81375Y36437D01*
X81256Y36357D01*
X81216Y36297D01*
X81156Y36257D01*
X81116Y36197D01*
X81056Y36157D01*
X81015Y36097D01*
X80956Y36057D01*
X80915Y35997D01*
X80856Y35957D01*
X80816Y35897D01*
X80756Y35857D01*
X80716Y35797D01*
X80704Y35789D01*
X80703Y35789D01*
X80356Y35557D01*
X80124Y35210D01*
X80109Y35138D01*
X80023Y35010D01*
X79942Y34600D01*
X79952Y34550D01*
X79942Y34500D01*
X79952Y34450D01*
X79942Y34400D01*
X79952Y34350D01*
X79942Y34300D01*
X79952Y34250D01*
X79942Y34200D01*
X79952Y34150D01*
X79942Y34100D01*
X79952Y34050D01*
X79942Y34000D01*
X79952Y33950D01*
X79942Y33900D01*
X79952Y33850D01*
X79942Y33800D01*
X79952Y33750D01*
X79942Y33700D01*
X79952Y33650D01*
X79942Y33600D01*
X79952Y33550D01*
X79942Y33500D01*
X79952Y33450D01*
X79942Y33400D01*
X79952Y33350D01*
X79942Y33300D01*
X79952Y33250D01*
X79942Y33200D01*
X79952Y33150D01*
X79942Y33100D01*
X79952Y33050D01*
X79942Y33000D01*
X79952Y32950D01*
X79942Y32900D01*
X79952Y32850D01*
X79942Y32800D01*
X79952Y32750D01*
X79942Y32700D01*
X79952Y32650D01*
X79942Y32600D01*
X79952Y32550D01*
X79942Y32500D01*
X79952Y32450D01*
X79942Y32400D01*
X79952Y32350D01*
X79942Y32300D01*
X79952Y32250D01*
X79942Y32200D01*
X79952Y32150D01*
X79942Y32100D01*
X79952Y32050D01*
X79942Y32000D01*
X79952Y31950D01*
X79942Y31900D01*
X79952Y31850D01*
X79942Y31800D01*
X79952Y31750D01*
X79942Y31700D01*
X79952Y31650D01*
X79942Y31600D01*
X79952Y31550D01*
X79942Y31500D01*
X79952Y31450D01*
X79942Y31400D01*
X79952Y31350D01*
X79942Y31300D01*
X79952Y31250D01*
X79942Y31200D01*
X79952Y31150D01*
X79942Y31100D01*
X79952Y31050D01*
X79942Y31000D01*
X79952Y30950D01*
X79942Y30900D01*
X79952Y30850D01*
X79942Y30800D01*
X79952Y30750D01*
X79942Y30700D01*
X79952Y30650D01*
X79942Y30600D01*
X79952Y30550D01*
X79942Y30500D01*
X79952Y30450D01*
X79942Y30400D01*
X79952Y30350D01*
X79942Y30300D01*
X79952Y30250D01*
X79942Y30200D01*
X79952Y30150D01*
X79942Y30100D01*
X79952Y30050D01*
X79942Y30000D01*
X79952Y29950D01*
X79942Y29900D01*
X79952Y29850D01*
X79942Y29800D01*
X79952Y29750D01*
X79942Y29700D01*
X79952Y29650D01*
X79942Y29600D01*
X79952Y29550D01*
X79942Y29500D01*
X79952Y29450D01*
X79942Y29400D01*
X79952Y29350D01*
X79942Y29300D01*
X79952Y29250D01*
X79942Y29200D01*
X79952Y29150D01*
X79942Y29100D01*
X79952Y29050D01*
X79942Y29000D01*
X79952Y28950D01*
X79942Y28900D01*
X79952Y28850D01*
X79942Y28800D01*
X79952Y28750D01*
X79942Y28700D01*
X79952Y28650D01*
X79942Y28600D01*
X79952Y28550D01*
X79942Y28500D01*
X79952Y28450D01*
X79942Y28400D01*
X79952Y28350D01*
X79942Y28300D01*
X79952Y28250D01*
X79942Y28200D01*
X79952Y28150D01*
X79942Y28100D01*
X79952Y28050D01*
X79942Y28000D01*
X79952Y27952D01*
X79923Y27910D01*
X79842Y27500D01*
X79852Y27450D01*
X79842Y27400D01*
X79923Y26990D01*
X79952Y26948D01*
X79942Y26900D01*
X79952Y26850D01*
X79942Y26800D01*
X79952Y26750D01*
X79942Y26700D01*
X79952Y26652D01*
X79923Y26610D01*
X79842Y26200D01*
X79852Y26150D01*
X79842Y26100D01*
X79852Y26050D01*
X79842Y26000D01*
X79923Y25590D01*
X79952Y25548D01*
X79942Y25500D01*
X79952Y25450D01*
X79942Y25400D01*
X79952Y25350D01*
X79942Y25300D01*
X79952Y25252D01*
X79923Y25210D01*
X79842Y24800D01*
X79852Y24750D01*
X79842Y24700D01*
X79923Y24290D01*
X79952Y24248D01*
X79942Y24200D01*
X79952Y24150D01*
X79942Y24100D01*
X79952Y24050D01*
X79942Y24000D01*
X79952Y23950D01*
X79942Y23900D01*
X79952Y23850D01*
X79942Y23800D01*
X79952Y23750D01*
X79942Y23700D01*
X79952Y23650D01*
X79942Y23600D01*
X79952Y23550D01*
X79942Y23500D01*
X79952Y23450D01*
X79942Y23400D01*
X79952Y23352D01*
X79923Y23310D01*
X79842Y22900D01*
X79852Y22850D01*
X79842Y22800D01*
X79852Y22750D01*
X79842Y22700D01*
X79852Y22650D01*
X79842Y22600D01*
X79852Y22550D01*
X79842Y22500D01*
X79852Y22450D01*
X79842Y22400D01*
X79844Y22390D01*
X79724Y22210D01*
X79709Y22138D01*
X79624Y22010D01*
X79609Y21938D01*
X79523Y21810D01*
X79509Y21738D01*
X79423Y21610D01*
X79423Y21609D01*
X79416Y21597D01*
X79356Y21557D01*
X79124Y21210D01*
X79109Y21138D01*
X79023Y21010D01*
X79023Y21009D01*
X78824Y20710D01*
X78823Y20709D01*
X78623Y20410D01*
X78623Y20409D01*
X78424Y20110D01*
X78423Y20109D01*
X78224Y19810D01*
X78223Y19809D01*
X78023Y19510D01*
X77942Y19100D01*
X77952Y19050D01*
X77942Y19000D01*
X77952Y18950D01*
X77942Y18900D01*
X77952Y18850D01*
X77942Y18800D01*
X78023Y18390D01*
X78256Y18043D01*
X78603Y17811D01*
X79013Y17729D01*
X79213D01*
X79622Y17811D01*
X79970Y18043D01*
X80010Y18103D01*
X80070Y18143D01*
X80110Y18203D01*
X80170Y18243D01*
X80210Y18303D01*
X80270Y18343D01*
X80310Y18403D01*
X80370Y18443D01*
X80410Y18503D01*
X80470Y18543D01*
X80510Y18603D01*
X80570Y18643D01*
X80610Y18703D01*
X80670Y18743D01*
X80710Y18803D01*
X80770Y18843D01*
X80810Y18903D01*
X80870Y18943D01*
X80910Y19003D01*
X80970Y19043D01*
X81202Y19390D01*
X81202Y19391D01*
X81210Y19403D01*
X81270Y19443D01*
X81310Y19503D01*
X81370Y19543D01*
X81410Y19603D01*
X81470Y19643D01*
X81510Y19703D01*
X81570Y19743D01*
X81610Y19803D01*
X81670Y19843D01*
X81710Y19903D01*
X81770Y19943D01*
X81810Y20003D01*
X81870Y20043D01*
X81910Y20103D01*
X81970Y20143D01*
X82010Y20203D01*
X82070Y20243D01*
X82110Y20303D01*
X82170Y20343D01*
X82402Y20690D01*
X82402Y20691D01*
X82410Y20703D01*
X82470Y20743D01*
X82510Y20803D01*
X82570Y20843D01*
X82610Y20903D01*
X82670Y20943D01*
X82710Y21003D01*
X82770Y21043D01*
X82810Y21103D01*
X82870Y21143D01*
X82910Y21203D01*
X82970Y21243D01*
X83202Y21590D01*
X83283Y22000D01*
X83273Y22050D01*
X83283Y22100D01*
X83274Y22148D01*
X83302Y22190D01*
X83383Y22600D01*
X83373Y22650D01*
X83383Y22700D01*
X83373Y22750D01*
X83383Y22800D01*
X83373Y22850D01*
X83383Y22900D01*
X83373Y22950D01*
X83383Y23000D01*
X83373Y23050D01*
X83383Y23100D01*
X83373Y23150D01*
X83383Y23200D01*
X83373Y23250D01*
X83383Y23300D01*
X83373Y23350D01*
X83383Y23400D01*
X83374Y23448D01*
X83402Y23490D01*
X83483Y23900D01*
X83473Y23950D01*
X83483Y24000D01*
X83473Y24050D01*
X83483Y24100D01*
X83473Y24150D01*
X83483Y24200D01*
X83473Y24250D01*
X83483Y24300D01*
X83473Y24350D01*
X83483Y24400D01*
X83473Y24450D01*
X83483Y24500D01*
X83473Y24550D01*
X83483Y24600D01*
X83473Y24650D01*
X83483Y24700D01*
X83473Y24750D01*
X83483Y24800D01*
X83473Y24850D01*
X83483Y24900D01*
X83473Y24950D01*
X83483Y25000D01*
X83474Y25048D01*
X83502Y25090D01*
X83583Y25500D01*
X83573Y25550D01*
X83583Y25600D01*
X83573Y25650D01*
X83583Y25700D01*
X83573Y25750D01*
X83583Y25800D01*
X83573Y25850D01*
X83583Y25900D01*
X83573Y25950D01*
X83583Y26000D01*
X83573Y26050D01*
X83583Y26100D01*
X83573Y26150D01*
X83583Y26200D01*
X83573Y26250D01*
X83583Y26300D01*
X83573Y26350D01*
X83583Y26400D01*
X83573Y26450D01*
X83583Y26500D01*
X83573Y26550D01*
X83583Y26600D01*
X83573Y26650D01*
X83583Y26700D01*
X83573Y26750D01*
X83583Y26800D01*
X83573Y26850D01*
X83583Y26900D01*
X83573Y26950D01*
X83583Y27000D01*
X83573Y27050D01*
X83583Y27100D01*
X83573Y27150D01*
X83583Y27200D01*
X83573Y27250D01*
X83583Y27300D01*
X83573Y27350D01*
X83583Y27400D01*
X83573Y27450D01*
X83583Y27500D01*
X83573Y27550D01*
X83583Y27600D01*
X83573Y27650D01*
X83583Y27700D01*
X83573Y27750D01*
X83583Y27800D01*
X83573Y27850D01*
X83583Y27900D01*
X83573Y27950D01*
X83583Y28000D01*
X83573Y28050D01*
X83583Y28100D01*
X83573Y28150D01*
X83583Y28200D01*
X83573Y28250D01*
X83583Y28300D01*
X83573Y28350D01*
X83583Y28400D01*
X83573Y28450D01*
X83583Y28500D01*
X83574Y28548D01*
X83602Y28590D01*
X83683Y29000D01*
X83673Y29050D01*
X83683Y29100D01*
X83673Y29150D01*
X83683Y29200D01*
X83673Y29250D01*
X83683Y29300D01*
X83673Y29350D01*
X83683Y29400D01*
X83673Y29450D01*
X83683Y29500D01*
X83673Y29550D01*
X83683Y29600D01*
X83673Y29650D01*
X83683Y29700D01*
X83673Y29750D01*
X83683Y29800D01*
X83673Y29850D01*
X83683Y29900D01*
X83673Y29950D01*
X83683Y30000D01*
X83673Y30050D01*
X83683Y30100D01*
X83674Y30148D01*
X83702Y30190D01*
X83783Y30600D01*
X83773Y30650D01*
X83783Y30700D01*
X83773Y30750D01*
X83783Y30800D01*
X83773Y30850D01*
X83783Y30900D01*
X83773Y30950D01*
X83783Y31000D01*
X83773Y31050D01*
X83783Y31100D01*
X83773Y31150D01*
X83783Y31200D01*
X83773Y31250D01*
X83783Y31300D01*
X83773Y31350D01*
X83783Y31400D01*
X83773Y31450D01*
X83783Y31500D01*
X83773Y31550D01*
X83783Y31600D01*
X83773Y31650D01*
X83783Y31700D01*
X83773Y31750D01*
X83783Y31800D01*
X83773Y31850D01*
X83783Y31900D01*
X83773Y31950D01*
X83783Y32000D01*
X83773Y32050D01*
X83783Y32100D01*
X83773Y32150D01*
X83783Y32200D01*
X83773Y32250D01*
X83783Y32300D01*
X83773Y32350D01*
X83783Y32400D01*
X83773Y32450D01*
X83783Y32500D01*
X83773Y32550D01*
X83783Y32600D01*
X83773Y32650D01*
X83783Y32700D01*
X83773Y32750D01*
X83783Y32800D01*
X83773Y32850D01*
X83783Y32900D01*
X83773Y32950D01*
X83783Y33000D01*
X83773Y33050D01*
X83783Y33100D01*
X83774Y33148D01*
X83802Y33190D01*
X83883Y33600D01*
X84122Y34011D01*
X84251Y34097D01*
X84322Y34111D01*
X84621Y34311D01*
X84622Y34311D01*
X84921Y34511D01*
X84922Y34511D01*
X85221Y34711D01*
X85222Y34711D01*
X85351Y34797D01*
X85422Y34811D01*
X85551Y34897D01*
X85622Y34911D01*
X85921Y35111D01*
X85922Y35111D01*
X86051Y35197D01*
X86122Y35211D01*
X86421Y35411D01*
X86422Y35411D01*
X86721Y35611D01*
X86722Y35611D01*
X87021Y35811D01*
X87022Y35811D01*
X87151Y35897D01*
X87222Y35911D01*
X87521Y36111D01*
X87522Y36111D01*
X87821Y36311D01*
X87822Y36311D01*
X87951Y36397D01*
X88022Y36411D01*
X88151Y36497D01*
X88222Y36511D01*
X88521Y36711D01*
X88522Y36711D01*
X88651Y36797D01*
X88722Y36811D01*
X89021Y37011D01*
X89022Y37011D01*
X89321Y37211D01*
X89322Y37211D01*
X89621Y37411D01*
X89622Y37411D01*
X89921Y37611D01*
X89922Y37611D01*
X90051Y37697D01*
X90122Y37711D01*
X90421Y37911D01*
X90422Y37911D01*
X90436Y37920D01*
X90872Y37840D01*
X91053Y37717D01*
X91108Y37631D01*
X91053Y37353D01*
X91023Y37310D01*
X91009Y37238D01*
X90924Y37110D01*
X90909Y37038D01*
X90824Y36910D01*
X90753Y36553D01*
X90724Y36510D01*
X90709Y36438D01*
X90623Y36310D01*
X90542Y35900D01*
X90544Y35890D01*
X90424Y35710D01*
X90342Y35300D01*
X90352Y35252D01*
X90324Y35210D01*
X90309Y35138D01*
X90223Y35010D01*
X90153Y34653D01*
X90123Y34610D01*
X90109Y34538D01*
X90023Y34410D01*
X89981Y34196D01*
X89924Y34110D01*
X89881Y33896D01*
X89824Y33810D01*
X89809Y33738D01*
X89723Y33610D01*
X89642Y33200D01*
X89652Y33150D01*
X89642Y33100D01*
X89652Y33050D01*
X89642Y33000D01*
X89652Y32950D01*
X89642Y32900D01*
X89652Y32850D01*
X89642Y32800D01*
X89652Y32750D01*
X89642Y32700D01*
X89652Y32650D01*
X89642Y32600D01*
X89652Y32550D01*
X89642Y32500D01*
X89652Y32450D01*
X89642Y32400D01*
X89652Y32350D01*
X89642Y32300D01*
X89652Y32250D01*
X89642Y32200D01*
X89652Y32150D01*
X89642Y32100D01*
X89652Y32050D01*
X89642Y32000D01*
X89652Y31950D01*
X89642Y31900D01*
X89652Y31850D01*
X89642Y31800D01*
X89652Y31750D01*
X89642Y31700D01*
X89652Y31650D01*
X89642Y31600D01*
X89652Y31550D01*
X89642Y31500D01*
X89652Y31450D01*
X89642Y31400D01*
X89652Y31350D01*
X89642Y31300D01*
X89652Y31250D01*
X89642Y31200D01*
X89652Y31150D01*
X89642Y31100D01*
X89652Y31050D01*
X89642Y31000D01*
X89652Y30950D01*
X89642Y30900D01*
X89652Y30850D01*
X89642Y30800D01*
X89652Y30750D01*
X89642Y30700D01*
X89652Y30650D01*
X89642Y30600D01*
X89652Y30550D01*
X89642Y30500D01*
X89652Y30450D01*
X89642Y30400D01*
X89652Y30350D01*
X89642Y30300D01*
X89652Y30250D01*
X89642Y30200D01*
X89652Y30150D01*
X89642Y30100D01*
X89652Y30050D01*
X89642Y30000D01*
X89652Y29950D01*
X89642Y29900D01*
X89652Y29850D01*
X89642Y29800D01*
X89652Y29750D01*
X89642Y29700D01*
X89652Y29650D01*
X89642Y29600D01*
X89652Y29550D01*
X89642Y29500D01*
X89652Y29450D01*
X89642Y29400D01*
X89652Y29350D01*
X89642Y29300D01*
X89652Y29250D01*
X89642Y29200D01*
X89652Y29150D01*
X89642Y29100D01*
X89652Y29050D01*
X89642Y29000D01*
X89652Y28950D01*
X89642Y28900D01*
X89652Y28850D01*
X89642Y28800D01*
X89652Y28750D01*
X89642Y28700D01*
X89652Y28650D01*
X89642Y28600D01*
X89652Y28550D01*
X89642Y28500D01*
X89652Y28450D01*
X89642Y28400D01*
X89652Y28350D01*
X89642Y28300D01*
X89652Y28250D01*
X89642Y28200D01*
X89652Y28150D01*
X89642Y28100D01*
X89652Y28050D01*
X89642Y28000D01*
X89652Y27950D01*
X89642Y27900D01*
X89652Y27850D01*
X89642Y27800D01*
X89652Y27750D01*
X89642Y27700D01*
X89652Y27650D01*
X89642Y27600D01*
X89652Y27550D01*
X89642Y27500D01*
X89652Y27450D01*
X89642Y27400D01*
X89652Y27350D01*
X89642Y27300D01*
X89652Y27250D01*
X89642Y27200D01*
X89652Y27150D01*
X89642Y27100D01*
X89652Y27050D01*
X89642Y27000D01*
X89652Y26950D01*
X89642Y26900D01*
X89723Y26490D01*
X89752Y26448D01*
X89742Y26400D01*
X89752Y26350D01*
X89742Y26300D01*
X89752Y26250D01*
X89742Y26200D01*
X89752Y26150D01*
X89742Y26100D01*
X89752Y26050D01*
X89742Y26000D01*
X89752Y25950D01*
X89742Y25900D01*
X89752Y25850D01*
X89742Y25800D01*
X89752Y25750D01*
X89742Y25700D01*
X89752Y25650D01*
X89742Y25600D01*
X89752Y25550D01*
X89742Y25500D01*
X89752Y25450D01*
X89742Y25400D01*
X89752Y25350D01*
X89742Y25300D01*
X89752Y25250D01*
X89742Y25200D01*
X89752Y25150D01*
X89742Y25100D01*
X89752Y25050D01*
X89742Y25000D01*
X89752Y24950D01*
X89742Y24900D01*
X89752Y24850D01*
X89742Y24800D01*
X89752Y24750D01*
X89742Y24700D01*
X89752Y24650D01*
X89742Y24600D01*
X89752Y24550D01*
X89742Y24500D01*
X89752Y24450D01*
X89742Y24400D01*
X89752Y24350D01*
X89742Y24300D01*
X89752Y24250D01*
X89742Y24200D01*
X89752Y24150D01*
X89742Y24100D01*
X89752Y24050D01*
X89742Y24000D01*
X89752Y23950D01*
X89742Y23900D01*
X89752Y23850D01*
X89742Y23800D01*
X89752Y23750D01*
X89742Y23700D01*
X89752Y23650D01*
X89742Y23600D01*
X89752Y23550D01*
X89742Y23500D01*
X89752Y23450D01*
X89742Y23400D01*
X89752Y23350D01*
X89742Y23300D01*
X89762Y23200D01*
X89742Y23100D01*
X89752Y23050D01*
X89742Y23000D01*
X89752Y22950D01*
X89742Y22900D01*
X89752Y22850D01*
X89742Y22800D01*
X89752Y22750D01*
X89742Y22700D01*
X89752Y22650D01*
X89742Y22600D01*
X89752Y22550D01*
X89742Y22500D01*
X89752Y22450D01*
X89742Y22400D01*
X89752Y22350D01*
X89742Y22300D01*
X89752Y22250D01*
X89742Y22200D01*
X89752Y22150D01*
X89742Y22100D01*
X89752Y22050D01*
X89742Y22000D01*
X89752Y21950D01*
X89742Y21900D01*
X89752Y21850D01*
X89742Y21800D01*
X89752Y21750D01*
X89742Y21700D01*
X89752Y21650D01*
X89742Y21600D01*
X89824Y21190D01*
X89853Y21147D01*
X89924Y20790D01*
X89952Y20748D01*
X89942Y20700D01*
X89952Y20650D01*
X89942Y20600D01*
X89952Y20550D01*
X89942Y20500D01*
X89952Y20450D01*
X89942Y20400D01*
X89952Y20350D01*
X89942Y20300D01*
X89952Y20250D01*
X89942Y20200D01*
X89952Y20150D01*
X89942Y20100D01*
X89952Y20050D01*
X89942Y20000D01*
X89952Y19950D01*
X89942Y19900D01*
X89952Y19850D01*
X89942Y19800D01*
X89952Y19750D01*
X89942Y19700D01*
X89952Y19650D01*
X89942Y19600D01*
X89952Y19550D01*
X89942Y19500D01*
X89952Y19450D01*
X89942Y19400D01*
X89952Y19350D01*
X89942Y19300D01*
X89952Y19250D01*
X89942Y19200D01*
X89952Y19150D01*
X89942Y19100D01*
X89952Y19050D01*
X89942Y19000D01*
X89952Y18950D01*
X89942Y18900D01*
X89952Y18850D01*
X89942Y18800D01*
X89952Y18752D01*
X89924Y18710D01*
X89853Y18353D01*
X89824Y18310D01*
X89781Y18096D01*
X89723Y18010D01*
X89642Y17600D01*
X89652Y17552D01*
X89623Y17510D01*
X89542Y17100D01*
X89552Y17052D01*
X89524Y17010D01*
X89509Y16938D01*
X89424Y16810D01*
X89342Y16400D01*
X89352Y16352D01*
X89324Y16310D01*
X89242Y15900D01*
X89252Y15850D01*
X89242Y15800D01*
X89252Y15750D01*
X89242Y15700D01*
X89252Y15650D01*
X89242Y15600D01*
X89252Y15550D01*
X89242Y15500D01*
X89252Y15450D01*
X89242Y15400D01*
X89324Y14990D01*
X89556Y14643D01*
X89903Y14411D01*
X90313Y14329D01*
X90513D01*
X90922Y14411D01*
X91270Y14643D01*
X91502Y14990D01*
X91516Y15062D01*
X91602Y15190D01*
X91630Y15334D01*
X91802Y15590D01*
X91816Y15662D01*
X91902Y15790D01*
X91916Y15862D01*
X92002Y15990D01*
X92044Y16204D01*
X92102Y16290D01*
X92116Y16362D01*
X92202Y16490D01*
X92216Y16562D01*
X92302Y16690D01*
X92316Y16762D01*
X92402Y16890D01*
X92416Y16962D01*
X92502Y17090D01*
X92516Y17162D01*
X92602Y17290D01*
X92602Y17291D01*
X92802Y17590D01*
X92816Y17662D01*
X92902Y17790D01*
X92916Y17862D01*
X93002Y17990D01*
X93016Y18062D01*
X93102Y18190D01*
X93183Y18600D01*
X93173Y18650D01*
X93183Y18700D01*
X93173Y18750D01*
X93183Y18800D01*
X93173Y18850D01*
X93183Y18900D01*
X93173Y18950D01*
X93183Y19000D01*
X93173Y19050D01*
X93183Y19100D01*
X93173Y19150D01*
X93183Y19200D01*
X93173Y19250D01*
X93183Y19300D01*
X93173Y19350D01*
X93183Y19400D01*
X93173Y19450D01*
X93183Y19500D01*
X93173Y19550D01*
X93183Y19600D01*
X93173Y19650D01*
X93183Y19700D01*
X93173Y19750D01*
X93183Y19800D01*
X93173Y19850D01*
X93183Y19900D01*
X93173Y19950D01*
X93183Y20000D01*
X93173Y20050D01*
X93183Y20100D01*
X93173Y20150D01*
X93183Y20200D01*
X93173Y20250D01*
X93183Y20300D01*
X93173Y20350D01*
X93183Y20400D01*
X93173Y20450D01*
X93183Y20500D01*
X93173Y20550D01*
X93183Y20600D01*
X93173Y20650D01*
X93183Y20700D01*
X93173Y20750D01*
X93183Y20800D01*
X93173Y20850D01*
X93183Y20900D01*
X93173Y20950D01*
X93183Y21000D01*
X93174Y21048D01*
X93202Y21090D01*
X93283Y21500D01*
X93273Y21550D01*
X93283Y21600D01*
X93273Y21650D01*
X93283Y21700D01*
X93273Y21750D01*
X93283Y21800D01*
X93273Y21850D01*
X93283Y21900D01*
X93273Y21950D01*
X93283Y22000D01*
X93273Y22050D01*
X93283Y22100D01*
X93273Y22150D01*
X93283Y22200D01*
X93273Y22250D01*
X93283Y22300D01*
X93273Y22350D01*
X93283Y22400D01*
X93273Y22450D01*
X93283Y22500D01*
X93273Y22550D01*
X93283Y22600D01*
X93273Y22650D01*
X93283Y22700D01*
X93274Y22748D01*
X93302Y22790D01*
X93383Y23200D01*
X93373Y23250D01*
X93383Y23300D01*
X93373Y23350D01*
X93383Y23400D01*
X93373Y23450D01*
X93383Y23500D01*
X93373Y23550D01*
X93383Y23600D01*
X93373Y23650D01*
X93383Y23700D01*
X93373Y23750D01*
X93383Y23800D01*
X93373Y23850D01*
X93383Y23900D01*
X93373Y23950D01*
X93383Y24000D01*
X93373Y24050D01*
X93383Y24100D01*
X93373Y24150D01*
X93383Y24200D01*
X93373Y24250D01*
X93383Y24300D01*
X93373Y24350D01*
X93383Y24400D01*
X93373Y24450D01*
X93383Y24500D01*
X93373Y24550D01*
X93383Y24600D01*
X93373Y24650D01*
X93383Y24700D01*
X93373Y24750D01*
X93383Y24800D01*
X93373Y24850D01*
X93383Y24900D01*
X93373Y24950D01*
X93383Y25000D01*
X93373Y25050D01*
X93383Y25100D01*
X93373Y25150D01*
X93383Y25200D01*
X93373Y25250D01*
X93383Y25300D01*
X93374Y25348D01*
X93402Y25390D01*
X93483Y25800D01*
X93473Y25850D01*
X93483Y25900D01*
X93402Y26310D01*
X93374Y26352D01*
X93383Y26400D01*
X93373Y26450D01*
X93383Y26500D01*
X93374Y26548D01*
X93402Y26590D01*
X93483Y27000D01*
X93473Y27050D01*
X93483Y27100D01*
X93473Y27150D01*
X93483Y27200D01*
X93473Y27250D01*
X93483Y27300D01*
X93473Y27350D01*
X93483Y27400D01*
X93473Y27450D01*
X93483Y27500D01*
X93473Y27550D01*
X93483Y27600D01*
X93473Y27650D01*
X93483Y27700D01*
X93473Y27750D01*
X93483Y27800D01*
X93473Y27850D01*
X93483Y27900D01*
X93473Y27950D01*
X93483Y28000D01*
X93473Y28050D01*
X93483Y28100D01*
X93473Y28150D01*
X93483Y28200D01*
X93473Y28250D01*
X93483Y28300D01*
X93474Y28348D01*
X93502Y28390D01*
X93583Y28800D01*
X93573Y28850D01*
X93583Y28900D01*
X93573Y28950D01*
X93583Y29000D01*
X93573Y29050D01*
X93583Y29100D01*
X93573Y29150D01*
X93583Y29200D01*
X93573Y29250D01*
X93583Y29300D01*
X93573Y29350D01*
X93583Y29400D01*
X93573Y29450D01*
X93583Y29500D01*
X93573Y29550D01*
X93583Y29600D01*
X93573Y29650D01*
X93583Y29700D01*
X93573Y29750D01*
X93583Y29800D01*
X93573Y29850D01*
X93583Y29900D01*
X93573Y29950D01*
X93583Y30000D01*
X93573Y30050D01*
X93583Y30100D01*
X93573Y30150D01*
X93583Y30200D01*
X93573Y30250D01*
X93583Y30300D01*
X93573Y30350D01*
X93583Y30400D01*
X93573Y30450D01*
X93583Y30500D01*
X93574Y30548D01*
X93602Y30590D01*
X93683Y31000D01*
X93673Y31050D01*
X93683Y31100D01*
X93673Y31150D01*
X93683Y31200D01*
X93673Y31250D01*
X93683Y31300D01*
X93643Y31500D01*
X93683Y31700D01*
X93673Y31750D01*
X93683Y31800D01*
X93673Y31850D01*
X93683Y31900D01*
X93673Y31950D01*
X93683Y32000D01*
X93673Y32050D01*
X93683Y32100D01*
X93673Y32150D01*
X93683Y32200D01*
X93673Y32250D01*
X93683Y32300D01*
X93658Y32425D01*
X93702Y32490D01*
X93744Y32704D01*
X93802Y32790D01*
X93830Y32934D01*
X94002Y33190D01*
X94073Y33547D01*
X94102Y33590D01*
X94144Y33804D01*
X94202Y33890D01*
X94216Y33962D01*
X94302Y34090D01*
X94373Y34447D01*
X94402Y34490D01*
X94444Y34704D01*
X94502Y34790D01*
X94516Y34862D01*
X94602Y34990D01*
X94616Y35062D01*
X94702Y35190D01*
X94744Y35404D01*
X94802Y35490D01*
X94844Y35704D01*
X94902Y35790D01*
X94944Y36004D01*
X95002Y36090D01*
X95016Y36162D01*
X95102Y36290D01*
X95144Y36504D01*
X95202Y36590D01*
X95244Y36804D01*
X95302Y36890D01*
X95316Y36962D01*
X95402Y37090D01*
X95473Y37447D01*
X95502Y37490D01*
X95516Y37562D01*
X95602Y37690D01*
X95644Y37904D01*
X95702Y37990D01*
X95743Y38199D01*
X96194Y38453D01*
X96313Y38429D01*
X97975D01*
X98003Y38411D01*
X98413Y38329D01*
X98975D01*
X99003Y38311D01*
X99413Y38229D01*
X100875D01*
X100903Y38211D01*
X101313Y38129D01*
X101475D01*
X101503Y38111D01*
X101913Y38029D01*
X102113D01*
X102263Y38059D01*
X102413Y38029D01*
X102613D01*
X102713Y38049D01*
X102813Y38029D01*
X103275D01*
X103303Y38011D01*
X103713Y37929D01*
X104913D01*
X105322Y38011D01*
X105408Y38068D01*
X105622Y38111D01*
X105970Y38343D01*
X106010Y38403D01*
X106021Y38411D01*
X106022Y38411D01*
X106151Y38497D01*
X106222Y38511D01*
X106351Y38597D01*
X106422Y38611D01*
X106721Y38811D01*
X106722Y38811D01*
X107021Y39011D01*
X107022Y39011D01*
X107151Y39097D01*
X107222Y39111D01*
X107521Y39311D01*
X107522Y39311D01*
X107821Y39511D01*
X107822Y39511D01*
X108005Y39633D01*
X108413Y39515D01*
X108519Y39094D01*
X108523Y39010D01*
X108442Y38600D01*
X108452Y38550D01*
X108442Y38500D01*
X108452Y38452D01*
X108423Y38410D01*
X108342Y38000D01*
X108352Y37950D01*
X108342Y37900D01*
X108352Y37850D01*
X108342Y37800D01*
X108352Y37750D01*
X108342Y37700D01*
X108352Y37652D01*
X108324Y37610D01*
X108242Y37200D01*
X108252Y37150D01*
X108242Y37100D01*
X108252Y37050D01*
X108242Y37000D01*
X108252Y36950D01*
X108242Y36900D01*
X108252Y36852D01*
X108223Y36810D01*
X108142Y36400D01*
X108152Y36350D01*
X108142Y36300D01*
X108152Y36252D01*
X108124Y36210D01*
X108042Y35800D01*
X108052Y35750D01*
X108042Y35700D01*
X108052Y35650D01*
X108042Y35600D01*
X108052Y35552D01*
X108024Y35510D01*
X107942Y35100D01*
X107952Y35050D01*
X107942Y35000D01*
X107952Y34950D01*
X107942Y34900D01*
X107952Y34850D01*
X107942Y34800D01*
X107952Y34750D01*
X107942Y34700D01*
X107952Y34650D01*
X107942Y34600D01*
X108024Y34190D01*
X108195Y33934D01*
X108223Y33790D01*
X108456Y33443D01*
X108575Y33363D01*
X108656Y33243D01*
X108715Y33203D01*
X108723Y33191D01*
X108723Y33190D01*
X108956Y32843D01*
X109016Y32803D01*
X109023Y32791D01*
X109023Y32790D01*
X109256Y32443D01*
X109316Y32403D01*
X109356Y32343D01*
X109415Y32303D01*
X109423Y32291D01*
X109423Y32290D01*
X109656Y31943D01*
X109715Y31903D01*
X109756Y31843D01*
X109816Y31803D01*
X109823Y31791D01*
X109824Y31790D01*
X110056Y31443D01*
X110116Y31403D01*
X110123Y31391D01*
X110124Y31390D01*
X110323Y31091D01*
X110324Y31090D01*
X110556Y30743D01*
X110616Y30703D01*
X110656Y30643D01*
X110722Y30599D01*
X110723Y30590D01*
X110956Y30243D01*
X111015Y30203D01*
X111056Y30143D01*
X111116Y30103D01*
X111123Y30091D01*
X111124Y30090D01*
X111356Y29743D01*
X111416Y29703D01*
X111456Y29643D01*
X111515Y29603D01*
X111523Y29591D01*
X111523Y29590D01*
X111756Y29243D01*
X111816Y29203D01*
X111856Y29143D01*
X111916Y29103D01*
X111923Y29091D01*
X111924Y29090D01*
X112156Y28743D01*
X112215Y28703D01*
X112256Y28643D01*
X112315Y28603D01*
X112323Y28591D01*
X112323Y28590D01*
X112556Y28243D01*
X112616Y28203D01*
X112623Y28191D01*
X112624Y28190D01*
X112856Y27843D01*
X112916Y27803D01*
X112956Y27743D01*
X113303Y27511D01*
X113542Y27400D01*
X113552Y27350D01*
X113542Y27300D01*
X113552Y27250D01*
X113542Y27200D01*
X113552Y27150D01*
X113542Y27100D01*
X113552Y27050D01*
X113542Y27000D01*
X113552Y26950D01*
X113542Y26900D01*
X113552Y26850D01*
X113542Y26800D01*
X113552Y26750D01*
X113542Y26700D01*
X113552Y26650D01*
X113542Y26600D01*
X113552Y26550D01*
X113542Y26500D01*
X113623Y26090D01*
X113652Y26048D01*
X113642Y26000D01*
X113652Y25950D01*
X113642Y25900D01*
X113724Y25490D01*
X113752Y25448D01*
X113742Y25400D01*
X113752Y25350D01*
X113742Y25300D01*
X113752Y25250D01*
X113742Y25200D01*
X113752Y25150D01*
X113742Y25100D01*
X113752Y25050D01*
X113742Y25000D01*
X113752Y24950D01*
X113742Y24900D01*
X113752Y24850D01*
X113742Y24800D01*
X113752Y24750D01*
X113742Y24700D01*
X113752Y24650D01*
X113742Y24600D01*
X113752Y24550D01*
X113742Y24500D01*
X113752Y24450D01*
X113742Y24400D01*
X113823Y23990D01*
X113852Y23948D01*
X113842Y23900D01*
X113852Y23850D01*
X113842Y23800D01*
X113852Y23750D01*
X113842Y23700D01*
X113924Y23290D01*
X113952Y23248D01*
X113942Y23200D01*
X113952Y23150D01*
X113942Y23100D01*
X113972Y22950D01*
X113942Y22800D01*
X113952Y22750D01*
X113942Y22700D01*
X113952Y22650D01*
X113942Y22600D01*
X114023Y22190D01*
X114052Y22148D01*
X114042Y22100D01*
X114052Y22050D01*
X114042Y22000D01*
X114052Y21950D01*
X114042Y21900D01*
X114052Y21850D01*
X114042Y21800D01*
X114052Y21750D01*
X114042Y21700D01*
X114052Y21650D01*
X114042Y21600D01*
X114052Y21550D01*
X114042Y21500D01*
X114052Y21450D01*
X114042Y21400D01*
X114123Y20990D01*
X114181Y20904D01*
X114224Y20690D01*
X114252Y20648D01*
X114242Y20600D01*
X114252Y20550D01*
X114242Y20500D01*
X114252Y20450D01*
X114242Y20400D01*
X114252Y20350D01*
X114242Y20300D01*
X114252Y20250D01*
X114242Y20200D01*
X114252Y20150D01*
X114242Y20100D01*
X114252Y20050D01*
X114242Y20000D01*
X114252Y19950D01*
X114242Y19900D01*
X114252Y19850D01*
X114242Y19800D01*
X114252Y19750D01*
X114242Y19700D01*
X114252Y19650D01*
X114242Y19600D01*
X114323Y19190D01*
X114409Y19062D01*
X114424Y18990D01*
X114623Y18691D01*
X114623Y18690D01*
X114823Y18391D01*
X114823Y18390D01*
X115023Y18091D01*
X115024Y18090D01*
X115256Y17743D01*
X115315Y17703D01*
X115323Y17691D01*
X115323Y17690D01*
X115523Y17391D01*
X115524Y17390D01*
X115723Y17091D01*
X115724Y17090D01*
X115923Y16791D01*
X115924Y16790D01*
X116156Y16443D01*
X116216Y16403D01*
X116223Y16391D01*
X116224Y16390D01*
X116456Y16043D01*
X116499Y16014D01*
X116524Y15890D01*
X116756Y15543D01*
X116822Y15499D01*
X116823Y15490D01*
X117023Y15191D01*
X117024Y15190D01*
X117223Y14891D01*
X117224Y14890D01*
X117456Y14543D01*
X117803Y14311D01*
X118213Y14229D01*
X118613D01*
X119022Y14311D01*
X119370Y14543D01*
X119602Y14890D01*
X119683Y15300D01*
X119673Y15350D01*
X119683Y15400D01*
X119673Y15450D01*
X119683Y15500D01*
X119602Y15910D01*
X119544Y15996D01*
X119502Y16210D01*
X119416Y16338D01*
X119402Y16410D01*
X119316Y16538D01*
X119302Y16610D01*
X119216Y16738D01*
X119202Y16810D01*
X119116Y16938D01*
X119102Y17010D01*
X119016Y17138D01*
X119002Y17210D01*
X118944Y17296D01*
X118902Y17510D01*
X118816Y17638D01*
X118802Y17710D01*
X118716Y17838D01*
X118702Y17910D01*
X118644Y17996D01*
X118602Y18210D01*
X118516Y18338D01*
X118502Y18410D01*
X118416Y18538D01*
X118402Y18610D01*
X118316Y18738D01*
X118302Y18810D01*
X118216Y18938D01*
X118202Y19010D01*
X118116Y19138D01*
X118102Y19210D01*
X118016Y19338D01*
X118002Y19410D01*
X117916Y19538D01*
X117902Y19610D01*
X117844Y19696D01*
X117802Y19910D01*
X117716Y20038D01*
X117702Y20110D01*
X117674Y20152D01*
X117683Y20200D01*
X117673Y20250D01*
X117683Y20300D01*
X117673Y20350D01*
X117683Y20400D01*
X117673Y20450D01*
X117683Y20500D01*
X117673Y20550D01*
X117683Y20600D01*
X117673Y20650D01*
X117683Y20700D01*
X117673Y20750D01*
X117683Y20800D01*
X117673Y20850D01*
X117683Y20900D01*
X117673Y20950D01*
X117683Y21000D01*
X117673Y21050D01*
X117683Y21100D01*
X117673Y21150D01*
X117683Y21200D01*
X117673Y21250D01*
X117683Y21300D01*
X117602Y21710D01*
X117574Y21752D01*
X117583Y21800D01*
X117573Y21850D01*
X117583Y21900D01*
X117573Y21950D01*
X117583Y22000D01*
X117573Y22050D01*
X117583Y22100D01*
X117573Y22150D01*
X117583Y22200D01*
X117573Y22250D01*
X117583Y22300D01*
X117573Y22350D01*
X117583Y22400D01*
X117573Y22450D01*
X117583Y22500D01*
X117573Y22550D01*
X117583Y22600D01*
X117573Y22650D01*
X117583Y22700D01*
X117573Y22750D01*
X117583Y22800D01*
X117573Y22850D01*
X117583Y22900D01*
X117573Y22950D01*
X117583Y23000D01*
X117502Y23410D01*
X117474Y23452D01*
X117483Y23500D01*
X117473Y23550D01*
X117483Y23600D01*
X117473Y23650D01*
X117483Y23700D01*
X117473Y23750D01*
X117483Y23800D01*
X117473Y23850D01*
X117483Y23900D01*
X117473Y23950D01*
X117483Y24000D01*
X117473Y24050D01*
X117483Y24100D01*
X117473Y24150D01*
X117483Y24200D01*
X117473Y24250D01*
X117483Y24300D01*
X117473Y24350D01*
X117483Y24400D01*
X117473Y24450D01*
X117483Y24500D01*
X117473Y24550D01*
X117483Y24600D01*
X117473Y24650D01*
X117483Y24700D01*
X117473Y24750D01*
X117483Y24800D01*
X117473Y24850D01*
X117483Y24900D01*
X117473Y24950D01*
X117483Y25000D01*
X117473Y25050D01*
X117483Y25100D01*
X117473Y25150D01*
X117483Y25200D01*
X117473Y25250D01*
X117483Y25300D01*
X117664Y25566D01*
X117747Y25642D01*
X117851Y25699D01*
X117967Y25729D01*
X117975D01*
X118003Y25711D01*
X118413Y25629D01*
X118575D01*
X118603Y25611D01*
X119013Y25529D01*
X119275D01*
X119303Y25511D01*
X119713Y25429D01*
X120075D01*
X120103Y25411D01*
X120513Y25329D01*
X120675D01*
X120703Y25311D01*
X121113Y25229D01*
X121675D01*
X121703Y25211D01*
X122113Y25129D01*
X122275D01*
X122303Y25111D01*
X122713Y25029D01*
X123275D01*
X123303Y25011D01*
X123713Y24929D01*
X124113D01*
X124522Y25011D01*
X124870Y25243D01*
X124910Y25303D01*
X124970Y25343D01*
X125010Y25403D01*
X125070Y25443D01*
X125110Y25503D01*
X125170Y25543D01*
X125210Y25603D01*
X125270Y25643D01*
X125310Y25703D01*
X125370Y25743D01*
X125410Y25803D01*
X125470Y25843D01*
X125550Y25963D01*
X125670Y26043D01*
X125902Y26390D01*
X125902Y26391D01*
X125910Y26403D01*
X125970Y26443D01*
X126202Y26790D01*
X126202Y26791D01*
X126250Y26863D01*
X126370Y26943D01*
X126410Y27003D01*
X126470Y27043D01*
X126702Y27390D01*
X126702Y27391D01*
X126902Y27690D01*
X126902Y27691D01*
X126910Y27703D01*
X126970Y27743D01*
X127010Y27803D01*
X127070Y27843D01*
X127302Y28190D01*
X127302Y28191D01*
X127310Y28203D01*
X127370Y28243D01*
X127450Y28363D01*
X127570Y28443D01*
X127802Y28790D01*
X127802Y28791D01*
X128002Y29090D01*
X128002Y29091D01*
X128010Y29103D01*
X128070Y29143D01*
X128110Y29203D01*
X128170Y29243D01*
X128210Y29303D01*
X128270Y29343D01*
X128502Y29690D01*
X128502Y29691D01*
X128510Y29703D01*
X128570Y29743D01*
X128802Y30090D01*
X128802Y30091D01*
X128850Y30163D01*
X128970Y30243D01*
X129202Y30590D01*
X129202Y30591D01*
X129210Y30603D01*
X129270Y30643D01*
X129502Y30990D01*
X129502Y30991D01*
X129702Y31290D01*
X129702Y31291D01*
X129710Y31303D01*
X129770Y31343D01*
X129810Y31403D01*
X129870Y31443D01*
X130102Y31790D01*
X130102Y31791D01*
X130302Y32090D01*
X130383Y32500D01*
X130373Y32550D01*
X130383Y32600D01*
X130373Y32650D01*
X130383Y32700D01*
X130373Y32750D01*
X130383Y32800D01*
X130302Y33210D01*
X130102Y33509D01*
X130102Y33510D01*
X129870Y33857D01*
X129810Y33897D01*
X129770Y33957D01*
X129710Y33997D01*
X129670Y34057D01*
X129610Y34097D01*
X129602Y34109D01*
X129602Y34110D01*
X129516Y34238D01*
X129502Y34310D01*
X129270Y34657D01*
X129210Y34697D01*
X129170Y34757D01*
X129110Y34797D01*
X129070Y34857D01*
X129010Y34897D01*
X128970Y34957D01*
X128910Y34997D01*
X128902Y35009D01*
X128902Y35010D01*
X128702Y35309D01*
X128702Y35310D01*
X128502Y35609D01*
X128502Y35610D01*
X128270Y35957D01*
X128210Y35997D01*
X128170Y36057D01*
X128110Y36097D01*
X128102Y36109D01*
X128102Y36110D01*
X127870Y36457D01*
X127810Y36497D01*
X127802Y36509D01*
X127802Y36510D01*
X127570Y36857D01*
X127510Y36897D01*
X127470Y36957D01*
X127410Y36997D01*
X127370Y37057D01*
X127310Y37097D01*
X127302Y37109D01*
X127302Y37110D01*
X127070Y37457D01*
X127010Y37497D01*
X127002Y37509D01*
X127002Y37510D01*
X126802Y37809D01*
X126802Y37810D01*
X126570Y38157D01*
X126510Y38197D01*
X126470Y38257D01*
X126410Y38297D01*
X126402Y38309D01*
X126402Y38310D01*
X126202Y38609D01*
X126202Y38610D01*
X125970Y38957D01*
X125910Y38997D01*
X125870Y39057D01*
X125810Y39097D01*
X125770Y39157D01*
X125710Y39197D01*
X125702Y39209D01*
X125702Y39210D01*
X125470Y39557D01*
X125410Y39597D01*
X125402Y39609D01*
X125402Y39610D01*
X125170Y39957D01*
X125110Y39997D01*
X125070Y40057D01*
X125010Y40097D01*
X124970Y40157D01*
X124910Y40197D01*
X124902Y40209D01*
X124902Y40210D01*
X124702Y40509D01*
X124702Y40510D01*
X124502Y40809D01*
X124502Y40810D01*
X124270Y41157D01*
X124210Y41197D01*
X124170Y41257D01*
X124110Y41297D01*
X124070Y41357D01*
X124010Y41397D01*
X124002Y41409D01*
X124002Y41410D01*
X123770Y41757D01*
X123710Y41797D01*
X123702Y41809D01*
X123702Y41810D01*
X123470Y42157D01*
X123410Y42197D01*
X123370Y42257D01*
X123310Y42297D01*
X123270Y42357D01*
X123210Y42397D01*
X123202Y42409D01*
X123202Y42410D01*
X123002Y42709D01*
X123002Y42710D01*
X122770Y43057D01*
X122710Y43097D01*
X122670Y43157D01*
X122610Y43197D01*
X122570Y43257D01*
X122222Y43489D01*
X122151Y43503D01*
X122022Y43589D01*
X121808Y43632D01*
X121722Y43689D01*
X121313Y43771D01*
X121250D01*
X121222Y43789D01*
X121151Y43803D01*
X121022Y43889D01*
X120666Y43960D01*
X120622Y43989D01*
X120408Y44032D01*
X120322Y44089D01*
X120108Y44132D01*
X120022Y44189D01*
X119666Y44260D01*
X119622Y44289D01*
X119408Y44332D01*
X119322Y44389D01*
X119108Y44432D01*
X119022Y44489D01*
X118613Y44571D01*
X118550D01*
X118522Y44589D01*
X118451Y44603D01*
X118322Y44689D01*
X117966Y44760D01*
X117922Y44789D01*
X117851Y44803D01*
X117722Y44889D01*
X117313Y44971D01*
X117250D01*
X117222Y44989D01*
X117008Y45032D01*
X116922Y45089D01*
X116566Y45160D01*
X116522Y45189D01*
X116308Y45232D01*
X116222Y45289D01*
X116008Y45332D01*
X115922Y45389D01*
X115566Y45460D01*
X115522Y45489D01*
X115083Y45600D01*
X115002Y46010D01*
X114973Y46053D01*
X114902Y46410D01*
X114873Y46453D01*
X114802Y46810D01*
X114773Y46853D01*
X114702Y47210D01*
X114673Y47253D01*
X114602Y47610D01*
X114574Y47652D01*
X114583Y47700D01*
X114502Y48110D01*
X114473Y48153D01*
X114402Y48510D01*
X114344Y48596D01*
X114302Y48810D01*
X114274Y48852D01*
X114283Y48900D01*
X114273Y48950D01*
X114283Y49000D01*
X114202Y49410D01*
X113970Y49757D01*
X113622Y49989D01*
X113408Y50032D01*
X113322Y50089D01*
X113108Y50132D01*
X113022Y50189D01*
X112666Y50260D01*
X112622Y50289D01*
X112408Y50332D01*
X112322Y50389D01*
X112108Y50432D01*
X112022Y50489D01*
X111808Y50532D01*
X111722Y50589D01*
X111508Y50632D01*
X111422Y50689D01*
X111066Y50760D01*
X111022Y50789D01*
X110613Y50871D01*
X110413D01*
X110113Y50811D01*
X109813Y50871D01*
X109313D01*
X108903Y50789D01*
X108817Y50732D01*
X108603Y50689D01*
X108517Y50632D01*
X108303Y50589D01*
X108217Y50532D01*
X108003Y50489D01*
X107917Y50432D01*
X107703Y50389D01*
X107575Y50303D01*
X107503Y50289D01*
X107417Y50232D01*
X107203Y50189D01*
X107075Y50103D01*
X107003Y50089D01*
X106959Y50060D01*
X106603Y49989D01*
X106475Y49903D01*
X106403Y49889D01*
X106317Y49832D01*
X106103Y49789D01*
X106017Y49732D01*
X105803Y49689D01*
X105675Y49603D01*
X105603Y49589D01*
X105517Y49532D01*
X105303Y49489D01*
X105175Y49403D01*
X105103Y49389D01*
X105017Y49332D01*
X104803Y49289D01*
X104717Y49232D01*
X104503Y49189D01*
X104413Y49129D01*
X104322Y49189D01*
X104108Y49232D01*
X104022Y49289D01*
X103737Y49346D01*
X103522Y49489D01*
X103166Y49560D01*
X103122Y49589D01*
X103051Y49603D01*
X102922Y49689D01*
X102708Y49732D01*
X102622Y49789D01*
X102408Y49832D01*
X102322Y49889D01*
X102108Y49932D01*
X102022Y49989D01*
X101951Y50003D01*
X101822Y50089D01*
X101608Y50132D01*
X101522Y50189D01*
X101308Y50232D01*
X101222Y50289D01*
X101151Y50303D01*
X101022Y50389D01*
X100666Y50460D01*
X100622Y50489D01*
X100551Y50503D01*
X100422Y50589D01*
X100136Y50646D01*
X99922Y50789D01*
X99513Y50871D01*
X99313D01*
X98903Y50789D01*
X98700Y50653D01*
X98613Y50671D01*
X98413D01*
X98210Y50630D01*
X98122Y50689D01*
X97713Y50771D01*
X97213D01*
X96803Y50689D01*
X96775Y50671D01*
X96413D01*
X96003Y50589D01*
X95959Y50560D01*
X95603Y50489D01*
X95575Y50471D01*
X95413D01*
X95003Y50389D01*
X94975Y50371D01*
X94813D01*
X94403Y50289D01*
X94375Y50271D01*
X94213D01*
X93803Y50189D01*
X93775Y50171D01*
X93413D01*
X93003Y50089D01*
X92959Y50060D01*
X92603Y49989D01*
X92475Y49903D01*
X92403Y49889D01*
X92076Y49671D01*
X92013D01*
X91663Y49601D01*
X91313Y49671D01*
X90513D01*
X90103Y49589D01*
X90075Y49571D01*
X89913D01*
X89503Y49489D01*
X89475Y49471D01*
X89113D01*
X88703Y49389D01*
X88662Y49362D01*
X88610Y49397D01*
X88570Y49457D01*
X88222Y49689D01*
X88151Y49703D01*
X88022Y49789D01*
X88021Y49789D01*
X88010Y49797D01*
X87970Y49857D01*
X87622Y50089D01*
X87621Y50089D01*
X87610Y50097D01*
X87570Y50157D01*
X87222Y50389D01*
X87221Y50389D01*
X86922Y50589D01*
X86921Y50589D01*
X86910Y50597D01*
X86870Y50657D01*
X86522Y50889D01*
X86521Y50889D01*
X86222Y51089D01*
X86221Y51089D01*
X86210Y51097D01*
X86170Y51157D01*
X85822Y51389D01*
X85821Y51389D01*
X85522Y51589D01*
X85521Y51589D01*
X85510Y51597D01*
X85470Y51657D01*
X85122Y51889D01*
X85121Y51889D01*
X84822Y52089D01*
X84821Y52089D01*
X84810Y52097D01*
X84770Y52157D01*
X84422Y52389D01*
X84421Y52389D01*
X84410Y52397D01*
X84370Y52457D01*
X84022Y52689D01*
X83613Y52771D01*
D02*
G37*
G36*
X135313Y13371D02*
X131613D01*
X131203Y13289D01*
X131117Y13232D01*
X130903Y13189D01*
X130817Y13132D01*
X130603Y13089D01*
X130475Y13003D01*
X130403Y12989D01*
X130275Y12903D01*
X130203Y12889D01*
X130119Y12833D01*
X129970Y13057D01*
X129622Y13289D01*
X129213Y13371D01*
X125613D01*
X125203Y13289D01*
X125117Y13232D01*
X124903Y13189D01*
X124775Y13103D01*
X124703Y13089D01*
X124575Y13003D01*
X124503Y12989D01*
X124503Y12989D01*
X123896Y13018D01*
X123870Y13057D01*
X123522Y13289D01*
X123113Y13371D01*
X122113D01*
X121713Y13291D01*
X121313Y13371D01*
X115713D01*
X115303Y13289D01*
X114956Y13057D01*
X114322Y12989D01*
X114251Y13003D01*
X114122Y13089D01*
X114051Y13103D01*
X113922Y13189D01*
X113566Y13260D01*
X113522Y13289D01*
X113113Y13371D01*
X111413D01*
X111003Y13289D01*
X110917Y13232D01*
X110703Y13189D01*
X110617Y13132D01*
X110403Y13089D01*
X110275Y13003D01*
X110203Y12989D01*
X109856Y12757D01*
X109816Y12697D01*
X109804Y12689D01*
X109803Y12689D01*
X109456Y12457D01*
X108930Y12570D01*
X108902Y12710D01*
X108670Y13057D01*
X108322Y13289D01*
X107913Y13371D01*
X105113D01*
X104703Y13289D01*
X104659Y13260D01*
X104303Y13189D01*
X104217Y13132D01*
X104003Y13089D01*
X103875Y13003D01*
X103803Y12989D01*
X103504Y12789D01*
X103503Y12789D01*
X103156Y12557D01*
X102670Y12557D01*
X102322Y12789D01*
X102321Y12789D01*
X102022Y12989D01*
X101951Y13003D01*
X101822Y13089D01*
X101608Y13132D01*
X101522Y13189D01*
X101308Y13232D01*
X101222Y13289D01*
X100813Y13371D01*
X99113D01*
X98703Y13289D01*
X98617Y13232D01*
X98403Y13189D01*
X98317Y13132D01*
X98103Y13089D01*
X97975Y13003D01*
X97903Y12989D01*
X97604Y12789D01*
X97603Y12789D01*
X97256Y12557D01*
X96770Y12557D01*
X96422Y12789D01*
X96421Y12789D01*
X96122Y12989D01*
X96051Y13003D01*
X95922Y13089D01*
X95708Y13132D01*
X95622Y13189D01*
X95266Y13260D01*
X95222Y13289D01*
X94813Y13371D01*
X91113D01*
X90703Y13289D01*
X90356Y13057D01*
X90123Y12710D01*
X90042Y12300D01*
X90052Y12250D01*
X90042Y12200D01*
X90052Y12150D01*
X90042Y12100D01*
X90052Y12050D01*
X90042Y12000D01*
X90052Y11950D01*
X90042Y11900D01*
X90052Y11850D01*
X90042Y11800D01*
X90052Y11750D01*
X90042Y11700D01*
X90052Y11650D01*
X90042Y11600D01*
X90052Y11550D01*
X90042Y11500D01*
X90052Y11450D01*
X90042Y11400D01*
X90123Y10990D01*
X90164Y10930D01*
X90318Y10550D01*
X90164Y10170D01*
X90123Y10110D01*
X90042Y9700D01*
X90052Y9650D01*
X90042Y9600D01*
X90052Y9550D01*
X90042Y9500D01*
X90052Y9450D01*
X90042Y9400D01*
X90052Y9350D01*
X90042Y9300D01*
X90052Y9250D01*
X90042Y9200D01*
X90052Y9150D01*
X90042Y9100D01*
X90052Y9050D01*
X90042Y9000D01*
X90052Y8950D01*
X90042Y8900D01*
X90052Y8850D01*
X90042Y8800D01*
X90123Y8390D01*
X90356Y8043D01*
X90703Y7811D01*
X91113Y7729D01*
X93975D01*
X94003Y7711D01*
X94004Y7711D01*
X94240Y7597D01*
X94442Y7200D01*
X94452Y7150D01*
X94442Y7100D01*
X94524Y6690D01*
X94756Y6343D01*
X95103Y6111D01*
X95513Y6029D01*
X96513D01*
X96922Y6111D01*
X97270Y6343D01*
X97897Y6382D01*
X98003Y6311D01*
X98075Y6297D01*
X98203Y6211D01*
X98417Y6168D01*
X98503Y6111D01*
X98913Y6029D01*
X101013D01*
X101422Y6111D01*
X101508Y6168D01*
X101722Y6211D01*
X101851Y6297D01*
X101922Y6311D01*
X102029Y6382D01*
X102656Y6343D01*
X103003Y6111D01*
X103413Y6029D01*
X107313D01*
X107722Y6111D01*
X107808Y6168D01*
X108022Y6211D01*
X108108Y6268D01*
X108322Y6311D01*
X108451Y6397D01*
X108522Y6411D01*
X108870Y6643D01*
X108910Y6703D01*
X108970Y6743D01*
X108971Y6745D01*
X109024Y6786D01*
X109181Y6843D01*
X109445D01*
X109601Y6786D01*
X109654Y6745D01*
X109656Y6743D01*
X110003Y6511D01*
X110004Y6511D01*
X110303Y6311D01*
X110517Y6268D01*
X110603Y6211D01*
X110817Y6168D01*
X110903Y6111D01*
X111313Y6029D01*
X113313D01*
X113722Y6111D01*
X113808Y6168D01*
X114022Y6211D01*
X114151Y6297D01*
X114222Y6311D01*
X114351Y6397D01*
X114422Y6411D01*
X114770Y6643D01*
X114810Y6703D01*
X114870Y6743D01*
X114910Y6803D01*
X114970Y6843D01*
X115010Y6903D01*
X115070Y6943D01*
X115110Y7003D01*
X115170Y7043D01*
X115210Y7103D01*
X115270Y7143D01*
X115310Y7203D01*
X115370Y7243D01*
X115602Y7590D01*
X115616Y7662D01*
X115702Y7790D01*
X115716Y7862D01*
X115802Y7990D01*
X115844Y8204D01*
X115902Y8290D01*
X115983Y8700D01*
X115973Y8750D01*
X115983Y8800D01*
X115974Y8848D01*
X116002Y8890D01*
X116083Y9300D01*
X116073Y9350D01*
X116083Y9400D01*
X116073Y9450D01*
X116083Y9500D01*
X116073Y9550D01*
X116083Y9600D01*
X116073Y9650D01*
X116083Y9700D01*
X116302Y9958D01*
X116351Y9993D01*
X116481Y10060D01*
X116842Y9800D01*
X116852Y9750D01*
X116842Y9700D01*
X116852Y9650D01*
X116842Y9600D01*
X116852Y9550D01*
X116842Y9500D01*
X116852Y9450D01*
X116842Y9400D01*
X116852Y9350D01*
X116842Y9300D01*
X116852Y9250D01*
X116842Y9200D01*
X116852Y9150D01*
X116842Y9100D01*
X116852Y9050D01*
X116842Y9000D01*
X116852Y8950D01*
X116842Y8900D01*
X116852Y8850D01*
X116842Y8800D01*
X116852Y8750D01*
X116842Y8700D01*
X116852Y8650D01*
X116842Y8600D01*
X116852Y8550D01*
X116842Y8500D01*
X116852Y8450D01*
X116842Y8400D01*
X116852Y8350D01*
X116842Y8300D01*
X116852Y8250D01*
X116842Y8200D01*
X116852Y8150D01*
X116842Y8100D01*
X116852Y8050D01*
X116842Y8000D01*
X116852Y7950D01*
X116842Y7900D01*
X116852Y7850D01*
X116842Y7800D01*
X116852Y7750D01*
X116842Y7700D01*
X116852Y7650D01*
X116842Y7600D01*
X116852Y7550D01*
X116842Y7500D01*
X116852Y7450D01*
X116842Y7400D01*
X116852Y7350D01*
X116842Y7300D01*
X116852Y7250D01*
X116842Y7200D01*
X116852Y7150D01*
X116842Y7100D01*
X116923Y6690D01*
X117156Y6343D01*
X117503Y6111D01*
X117913Y6029D01*
X118913D01*
X119322Y6111D01*
X119670Y6343D01*
X119902Y6690D01*
X119983Y7100D01*
X119973Y7150D01*
X119983Y7200D01*
X119973Y7250D01*
X119983Y7300D01*
X119973Y7350D01*
X119983Y7400D01*
X119973Y7450D01*
X119983Y7500D01*
X119973Y7550D01*
X119983Y7600D01*
X119973Y7650D01*
X119983Y7700D01*
X119973Y7750D01*
X119983Y7800D01*
X119973Y7850D01*
X119983Y7900D01*
X119973Y7950D01*
X119983Y8000D01*
X119973Y8050D01*
X119983Y8100D01*
X119973Y8150D01*
X119983Y8200D01*
X119973Y8250D01*
X119983Y8300D01*
X119973Y8350D01*
X119983Y8400D01*
X119973Y8450D01*
X119983Y8500D01*
X119973Y8550D01*
X119983Y8600D01*
X119973Y8650D01*
X119983Y8700D01*
X119973Y8750D01*
X119983Y8800D01*
X119973Y8850D01*
X119983Y8900D01*
X119973Y8950D01*
X119983Y9000D01*
X119973Y9050D01*
X119983Y9100D01*
X119973Y9150D01*
X119983Y9200D01*
X119973Y9250D01*
X119983Y9300D01*
X119973Y9350D01*
X119983Y9400D01*
X119973Y9450D01*
X119983Y9500D01*
X119973Y9550D01*
X119983Y9600D01*
X119973Y9650D01*
X119983Y9700D01*
X119973Y9750D01*
X119983Y9800D01*
X119973Y9850D01*
X119983Y9900D01*
X120164Y10166D01*
X120247Y10242D01*
X120352Y10299D01*
X120467Y10329D01*
X120558D01*
X120674Y10299D01*
X120778Y10242D01*
X120861Y10166D01*
X121042Y9900D01*
X121052Y9850D01*
X121042Y9800D01*
X121052Y9750D01*
X121042Y9700D01*
X121052Y9650D01*
X121042Y9600D01*
X121052Y9550D01*
X121042Y9500D01*
X121052Y9450D01*
X121042Y9400D01*
X121052Y9350D01*
X121042Y9300D01*
X121052Y9250D01*
X121042Y9200D01*
X121052Y9150D01*
X121042Y9100D01*
X121052Y9050D01*
X121042Y9000D01*
X121052Y8950D01*
X121042Y8900D01*
X121052Y8850D01*
X121042Y8800D01*
X121052Y8750D01*
X121042Y8700D01*
X121052Y8650D01*
X121042Y8600D01*
X121052Y8550D01*
X121042Y8500D01*
X121052Y8450D01*
X121042Y8400D01*
X121052Y8350D01*
X121042Y8300D01*
X121052Y8250D01*
X121042Y8200D01*
X121052Y8150D01*
X121042Y8100D01*
X121052Y8050D01*
X121042Y8000D01*
X121052Y7950D01*
X121042Y7900D01*
X121052Y7850D01*
X121042Y7800D01*
X121052Y7750D01*
X121042Y7700D01*
X121052Y7650D01*
X121042Y7600D01*
X121052Y7550D01*
X121042Y7500D01*
X121052Y7450D01*
X121042Y7400D01*
X121052Y7350D01*
X121042Y7300D01*
X121052Y7250D01*
X121042Y7200D01*
X121052Y7150D01*
X121042Y7100D01*
X121124Y6690D01*
X121356Y6343D01*
X121703Y6111D01*
X122113Y6029D01*
X123113D01*
X123522Y6111D01*
X123870Y6343D01*
X124403Y6411D01*
X124467Y6398D01*
X124487Y6388D01*
X124603Y6311D01*
X124675Y6297D01*
X124803Y6211D01*
X125017Y6168D01*
X125103Y6111D01*
X125513Y6029D01*
X129213D01*
X129613Y6109D01*
X130013Y6029D01*
X133913D01*
X134322Y6111D01*
X134408Y6168D01*
X134622Y6211D01*
X134708Y6268D01*
X134922Y6311D01*
X135221Y6511D01*
X135222Y6511D01*
X135570Y6743D01*
X135610Y6803D01*
X135670Y6843D01*
X135710Y6903D01*
X135770Y6943D01*
X135810Y7003D01*
X135870Y7043D01*
X136102Y7390D01*
X136102Y7391D01*
X136302Y7690D01*
X136383Y8100D01*
X136373Y8150D01*
X136383Y8200D01*
X136373Y8250D01*
X136383Y8300D01*
X136373Y8350D01*
X136383Y8400D01*
X136373Y8450D01*
X136383Y8500D01*
X136373Y8550D01*
X136383Y8600D01*
X136373Y8650D01*
X136383Y8700D01*
X136373Y8750D01*
X136383Y8800D01*
X136373Y8850D01*
X136383Y8900D01*
X136373Y8950D01*
X136383Y9000D01*
X136373Y9050D01*
X136383Y9100D01*
X136373Y9150D01*
X136383Y9200D01*
X136373Y9250D01*
X136383Y9300D01*
X136373Y9350D01*
X136383Y9400D01*
X136373Y9450D01*
X136383Y9500D01*
X136302Y9910D01*
X136216Y10038D01*
X136202Y10110D01*
X136192Y10124D01*
X136070Y10643D01*
X136302Y10990D01*
X136383Y11400D01*
X136373Y11450D01*
X136383Y11500D01*
X136373Y11550D01*
X136383Y11600D01*
X136373Y11650D01*
X136383Y11700D01*
X136373Y11750D01*
X136383Y11800D01*
X136373Y11850D01*
X136383Y11900D01*
X136373Y11950D01*
X136383Y12000D01*
X136373Y12050D01*
X136383Y12100D01*
X136373Y12150D01*
X136383Y12200D01*
X136373Y12250D01*
X136383Y12300D01*
X136302Y12710D01*
X136070Y13057D01*
X135722Y13289D01*
X135313Y13371D01*
D02*
G37*
G36*
X85713D02*
X82013D01*
X81603Y13289D01*
X81559Y13260D01*
X81203Y13189D01*
X81075Y13103D01*
X81003Y13089D01*
X80875Y13003D01*
X80803Y12989D01*
X80675Y12903D01*
X80603Y12889D01*
X80519Y12833D01*
X80370Y13057D01*
X80022Y13289D01*
X79613Y13371D01*
X74013D01*
X73603Y13289D01*
X73256Y13057D01*
X72622Y12989D01*
X72551Y13003D01*
X72422Y13089D01*
X72208Y13132D01*
X72122Y13189D01*
X71908Y13232D01*
X71822Y13289D01*
X71413Y13371D01*
X69713D01*
X69303Y13289D01*
X69259Y13260D01*
X68903Y13189D01*
X68775Y13103D01*
X68703Y13089D01*
X68575Y13003D01*
X68503Y12989D01*
X67870Y13057D01*
X67522Y13289D01*
X67113Y13371D01*
X63513D01*
X63103Y13289D01*
X63017Y13232D01*
X62803Y13189D01*
X62717Y13132D01*
X62503Y13089D01*
X62204Y12889D01*
X62203Y12889D01*
X61856Y12657D01*
X61816Y12597D01*
X61756Y12557D01*
X61716Y12497D01*
X61656Y12457D01*
X61616Y12397D01*
X61556Y12357D01*
X61515Y12297D01*
X61456Y12257D01*
X61415Y12197D01*
X61356Y12157D01*
X61124Y11810D01*
X61123Y11809D01*
X60923Y11510D01*
X60881Y11296D01*
X60824Y11210D01*
X60742Y10800D01*
X60752Y10750D01*
X60742Y10700D01*
X60752Y10650D01*
X60742Y10600D01*
X60752Y10550D01*
X60742Y10500D01*
X60752Y10450D01*
X60742Y10400D01*
X60752Y10350D01*
X60742Y10300D01*
X60752Y10250D01*
X60742Y10200D01*
X60752Y10150D01*
X60742Y10100D01*
X60752Y10050D01*
X60742Y10000D01*
X60752Y9950D01*
X60742Y9900D01*
X60752Y9850D01*
X60742Y9800D01*
X60752Y9750D01*
X60742Y9700D01*
X60752Y9650D01*
X60742Y9600D01*
X60752Y9550D01*
X60742Y9500D01*
X60752Y9450D01*
X60742Y9400D01*
X60752Y9350D01*
X60742Y9300D01*
X60752Y9250D01*
X60742Y9200D01*
X60752Y9150D01*
X60742Y9100D01*
X60752Y9050D01*
X60742Y9000D01*
X60752Y8950D01*
X60742Y8900D01*
X60752Y8850D01*
X60742Y8800D01*
X60752Y8750D01*
X60742Y8700D01*
X60752Y8650D01*
X60742Y8600D01*
X60752Y8550D01*
X60742Y8500D01*
X60824Y8090D01*
X60909Y7962D01*
X60923Y7890D01*
X61009Y7762D01*
X61023Y7690D01*
X61223Y7391D01*
X61224Y7390D01*
X61456Y7043D01*
X61515Y7003D01*
X61556Y6943D01*
X61616Y6903D01*
X61656Y6843D01*
X62003Y6611D01*
X62004Y6611D01*
X62303Y6411D01*
X62375Y6397D01*
X62503Y6311D01*
X62575Y6297D01*
X62703Y6211D01*
X62917Y6168D01*
X63003Y6111D01*
X63413Y6029D01*
X65313D01*
X65713Y6109D01*
X66113Y6029D01*
X67113D01*
X67463Y6099D01*
X67813Y6029D01*
X68913D01*
X69322Y6111D01*
X69670Y6343D01*
X69902Y6690D01*
X69983Y7100D01*
X69973Y7150D01*
X69983Y7200D01*
X69973Y7250D01*
X69983Y7300D01*
X69973Y7350D01*
X69983Y7400D01*
X69973Y7450D01*
X69983Y7500D01*
X69973Y7550D01*
X69983Y7600D01*
X69973Y7650D01*
X69983Y7700D01*
X69973Y7750D01*
X69983Y7800D01*
X69973Y7850D01*
X69983Y7900D01*
X69973Y7950D01*
X69983Y8000D01*
X69973Y8050D01*
X69983Y8100D01*
X69973Y8150D01*
X69983Y8200D01*
X69973Y8250D01*
X69983Y8300D01*
X69973Y8350D01*
X69983Y8400D01*
X69973Y8450D01*
X69983Y8500D01*
X69973Y8550D01*
X69983Y8600D01*
X69973Y8650D01*
X69983Y8700D01*
X69973Y8750D01*
X69983Y8800D01*
X69973Y8850D01*
X69983Y8900D01*
X69973Y8950D01*
X69983Y9000D01*
X69973Y9050D01*
X69983Y9100D01*
X69973Y9150D01*
X69983Y9200D01*
X69973Y9250D01*
X69983Y9300D01*
X69973Y9350D01*
X69983Y9400D01*
X69973Y9450D01*
X69983Y9500D01*
X69973Y9550D01*
X69983Y9600D01*
X69973Y9650D01*
X69983Y9700D01*
X69973Y9750D01*
X69983Y9800D01*
X70041Y9969D01*
X70303Y10287D01*
X70422Y10311D01*
X70450Y10329D01*
X70675D01*
X70703Y10311D01*
X70823Y10287D01*
X71085Y9969D01*
X71142Y9800D01*
X71152Y9750D01*
X71142Y9700D01*
X71152Y9650D01*
X71142Y9600D01*
X71152Y9550D01*
X71142Y9500D01*
X71152Y9450D01*
X71142Y9400D01*
X71152Y9350D01*
X71142Y9300D01*
X71152Y9250D01*
X71142Y9200D01*
X71152Y9150D01*
X71142Y9100D01*
X71152Y9050D01*
X71142Y9000D01*
X71152Y8950D01*
X71142Y8900D01*
X71152Y8850D01*
X71142Y8800D01*
X71152Y8750D01*
X71142Y8700D01*
X71152Y8650D01*
X71142Y8600D01*
X71152Y8550D01*
X71142Y8500D01*
X71152Y8450D01*
X71142Y8400D01*
X71152Y8350D01*
X71142Y8300D01*
X71152Y8250D01*
X71142Y8200D01*
X71152Y8150D01*
X71142Y8100D01*
X71152Y8050D01*
X71142Y8000D01*
X71152Y7950D01*
X71142Y7900D01*
X71152Y7850D01*
X71142Y7800D01*
X71152Y7750D01*
X71142Y7700D01*
X71152Y7650D01*
X71142Y7600D01*
X71152Y7550D01*
X71142Y7500D01*
X71152Y7450D01*
X71142Y7400D01*
X71152Y7350D01*
X71142Y7300D01*
X71152Y7250D01*
X71142Y7200D01*
X71152Y7150D01*
X71142Y7100D01*
X71223Y6690D01*
X71456Y6343D01*
X71803Y6111D01*
X72213Y6029D01*
X73313D01*
X73722Y6111D01*
X74070Y6343D01*
X74302Y6690D01*
X74383Y7100D01*
X74373Y7150D01*
X74383Y7200D01*
X74373Y7250D01*
X74383Y7300D01*
X74373Y7350D01*
X74383Y7400D01*
X74373Y7450D01*
X74383Y7500D01*
X74373Y7550D01*
X74383Y7600D01*
X74373Y7650D01*
X74383Y7700D01*
X74373Y7750D01*
X74383Y7800D01*
X74373Y7850D01*
X74383Y7900D01*
X74373Y7950D01*
X74383Y8000D01*
X74373Y8050D01*
X74383Y8100D01*
X74373Y8150D01*
X74383Y8200D01*
X74373Y8250D01*
X74383Y8300D01*
X74373Y8350D01*
X74383Y8400D01*
X74373Y8450D01*
X74383Y8500D01*
X74373Y8550D01*
X74383Y8600D01*
X74373Y8650D01*
X74383Y8700D01*
X74373Y8750D01*
X74383Y8800D01*
X74373Y8850D01*
X74383Y8900D01*
X74373Y8950D01*
X74383Y9000D01*
X74373Y9050D01*
X74383Y9100D01*
X74373Y9150D01*
X74383Y9200D01*
X74373Y9250D01*
X74383Y9300D01*
X74373Y9350D01*
X74383Y9400D01*
X74373Y9450D01*
X74383Y9500D01*
X74373Y9550D01*
X74383Y9600D01*
X74359Y9722D01*
X74724Y10083D01*
X74751Y10081D01*
X74909Y9967D01*
X75025Y9834D01*
X75146Y9618D01*
X75142Y9600D01*
X75152Y9550D01*
X75142Y9500D01*
X75152Y9450D01*
X75142Y9400D01*
X75152Y9350D01*
X75142Y9300D01*
X75152Y9250D01*
X75142Y9200D01*
X75152Y9150D01*
X75142Y9100D01*
X75152Y9050D01*
X75142Y9000D01*
X75152Y8950D01*
X75142Y8900D01*
X75152Y8850D01*
X75142Y8800D01*
X75152Y8750D01*
X75142Y8700D01*
X75152Y8650D01*
X75142Y8600D01*
X75152Y8550D01*
X75142Y8500D01*
X75152Y8450D01*
X75142Y8400D01*
X75152Y8350D01*
X75142Y8300D01*
X75152Y8250D01*
X75142Y8200D01*
X75152Y8150D01*
X75142Y8100D01*
X75152Y8050D01*
X75142Y8000D01*
X75152Y7950D01*
X75142Y7900D01*
X75152Y7850D01*
X75142Y7800D01*
X75152Y7750D01*
X75142Y7700D01*
X75152Y7650D01*
X75142Y7600D01*
X75152Y7550D01*
X75142Y7500D01*
X75152Y7450D01*
X75142Y7400D01*
X75152Y7350D01*
X75142Y7300D01*
X75152Y7250D01*
X75142Y7200D01*
X75152Y7150D01*
X75142Y7100D01*
X75223Y6690D01*
X75456Y6343D01*
X75803Y6111D01*
X76213Y6029D01*
X77213D01*
X77622Y6111D01*
X77970Y6343D01*
X78202Y6690D01*
X78283Y7100D01*
X78273Y7150D01*
X78283Y7200D01*
X78273Y7250D01*
X78283Y7300D01*
X78273Y7350D01*
X78283Y7400D01*
X78273Y7450D01*
X78283Y7500D01*
X78273Y7550D01*
X78283Y7600D01*
X78273Y7650D01*
X78283Y7700D01*
X78273Y7750D01*
X78283Y7800D01*
X78273Y7850D01*
X78283Y7900D01*
X78273Y7950D01*
X78283Y8000D01*
X78273Y8050D01*
X78283Y8100D01*
X78273Y8150D01*
X78283Y8200D01*
X78273Y8250D01*
X78283Y8300D01*
X78273Y8350D01*
X78283Y8400D01*
X78273Y8450D01*
X78283Y8500D01*
X78273Y8550D01*
X78283Y8600D01*
X78273Y8650D01*
X78283Y8700D01*
X78273Y8750D01*
X78283Y8800D01*
X78273Y8850D01*
X78283Y8900D01*
X78273Y8950D01*
X78283Y9000D01*
X78273Y9050D01*
X78283Y9100D01*
X78273Y9150D01*
X78283Y9200D01*
X78273Y9250D01*
X78283Y9300D01*
X78273Y9350D01*
X78283Y9400D01*
X78273Y9450D01*
X78283Y9500D01*
X78273Y9550D01*
X78283Y9600D01*
X78273Y9650D01*
X78283Y9700D01*
X78273Y9750D01*
X78283Y9800D01*
X78273Y9850D01*
X78283Y9900D01*
X78464Y10166D01*
X78547Y10242D01*
X78651Y10299D01*
X78763Y10328D01*
X78874Y10299D01*
X78978Y10242D01*
X79061Y10166D01*
X79242Y9900D01*
X79252Y9850D01*
X79242Y9800D01*
X79252Y9750D01*
X79242Y9700D01*
X79324Y9290D01*
X79556Y8943D01*
Y8657D01*
X79324Y8310D01*
X79242Y7900D01*
X79252Y7850D01*
X79242Y7800D01*
X79252Y7750D01*
X79242Y7700D01*
X79252Y7650D01*
X79242Y7600D01*
X79252Y7550D01*
X79242Y7500D01*
X79252Y7450D01*
X79242Y7400D01*
X79252Y7350D01*
X79242Y7300D01*
X79252Y7250D01*
X79242Y7200D01*
X79252Y7150D01*
X79242Y7100D01*
X79324Y6690D01*
X79556Y6343D01*
X79903Y6111D01*
X80313Y6029D01*
X84213D01*
X84622Y6111D01*
X84666Y6140D01*
X85022Y6211D01*
X85151Y6297D01*
X85222Y6311D01*
X85351Y6397D01*
X85422Y6411D01*
X85721Y6611D01*
X85722Y6611D01*
X86070Y6843D01*
X86110Y6903D01*
X86170Y6943D01*
X86402Y7290D01*
X86402Y7291D01*
X86602Y7590D01*
X86616Y7662D01*
X86702Y7790D01*
X86783Y8200D01*
X86773Y8250D01*
X86783Y8300D01*
X86773Y8350D01*
X86783Y8400D01*
X86773Y8450D01*
X86783Y8500D01*
X86773Y8550D01*
X86783Y8600D01*
X86773Y8650D01*
X86783Y8700D01*
X86773Y8750D01*
X86783Y8800D01*
X86773Y8850D01*
X86783Y8900D01*
X86773Y8950D01*
X86783Y9000D01*
X86773Y9050D01*
X86783Y9100D01*
X86773Y9150D01*
X86783Y9200D01*
X86773Y9250D01*
X86783Y9300D01*
X86773Y9350D01*
X86783Y9400D01*
X86702Y9810D01*
X86616Y9938D01*
X86602Y10010D01*
X86540Y10102D01*
X86378Y10582D01*
X86470Y10643D01*
X86702Y10990D01*
X86783Y11400D01*
X86773Y11450D01*
X86783Y11500D01*
X86773Y11550D01*
X86783Y11600D01*
X86773Y11650D01*
X86783Y11700D01*
X86773Y11750D01*
X86783Y11800D01*
X86773Y11850D01*
X86783Y11900D01*
X86773Y11950D01*
X86783Y12000D01*
X86773Y12050D01*
X86783Y12100D01*
X86773Y12150D01*
X86783Y12200D01*
X86773Y12250D01*
X86783Y12300D01*
X86702Y12710D01*
X86470Y13057D01*
X86122Y13289D01*
X85713Y13371D01*
D02*
G37*
G36*
X138958Y191945D02*
X138295D01*
Y177665D01*
X152575D01*
Y178329D01*
X152211Y180626D01*
X151492Y182839D01*
X150436Y184912D01*
X149068Y186794D01*
X147424Y188438D01*
X145541Y189806D01*
X143469Y190862D01*
X141256Y191581D01*
X138958Y191945D01*
D02*
G37*
G36*
X137295D02*
X136632D01*
X134334Y191581D01*
X132122Y190862D01*
X130049Y189806D01*
X128167Y188438D01*
X126522Y186794D01*
X125155Y184912D01*
X124099Y182839D01*
X123380Y180626D01*
X123016Y178329D01*
Y177665D01*
X137295D01*
Y191945D01*
D02*
G37*
G36*
X152575Y176665D02*
X138295D01*
Y162386D01*
X138958D01*
X141256Y162750D01*
X143469Y163469D01*
X145541Y164525D01*
X147424Y165892D01*
X149068Y167537D01*
X150436Y169419D01*
X151492Y171492D01*
X152211Y173705D01*
X152575Y176002D01*
Y176665D01*
D02*
G37*
G36*
X137295D02*
X123016D01*
Y176002D01*
X123380Y173705D01*
X124099Y171492D01*
X125155Y169419D01*
X126522Y167537D01*
X128167Y165892D01*
X130049Y164525D01*
X132122Y163469D01*
X134334Y162750D01*
X136632Y162386D01*
X137295D01*
Y176665D01*
D02*
G37*
G36*
X116688Y106630D02*
X116642D01*
Y102980D01*
X120291D01*
Y103027D01*
X120009Y104082D01*
X119462Y105028D01*
X118690Y105801D01*
X117743Y106347D01*
X116688Y106630D01*
D02*
G37*
G36*
X115642D02*
X115595D01*
X114540Y106347D01*
X113594Y105801D01*
X112821Y105028D01*
X112275Y104082D01*
X111992Y103027D01*
Y102980D01*
X115642D01*
Y106630D01*
D02*
G37*
G36*
X128499Y110331D02*
X127406D01*
X126351Y110048D01*
X125405Y109502D01*
X124632Y108729D01*
X124086Y107783D01*
X123803Y106727D01*
Y105635D01*
X124086Y104579D01*
X124632Y103633D01*
X125405Y102861D01*
X126351Y102314D01*
X127406Y102032D01*
X128499D01*
X129554Y102314D01*
X130501Y102861D01*
X131273Y103633D01*
X131820Y104579D01*
X132102Y105635D01*
Y106727D01*
X131820Y107783D01*
X131273Y108729D01*
X130501Y109502D01*
X129554Y110048D01*
X128499Y110331D01*
D02*
G37*
G36*
X120291Y101980D02*
X116642D01*
Y98331D01*
X116688D01*
X117743Y98614D01*
X118690Y99160D01*
X119462Y99932D01*
X120009Y100879D01*
X120291Y101934D01*
Y101980D01*
D02*
G37*
G36*
X115642D02*
X111992D01*
Y101934D01*
X112275Y100879D01*
X112821Y99932D01*
X113594Y99160D01*
X114540Y98614D01*
X115595Y98331D01*
X115642D01*
Y101980D01*
D02*
G37*
G36*
X120291Y94819D02*
X116642D01*
Y91169D01*
X120291D01*
Y94819D01*
D02*
G37*
G36*
X115642D02*
X111992D01*
Y91169D01*
X115642D01*
Y94819D01*
D02*
G37*
G36*
X120291Y90169D02*
X116642D01*
Y86520D01*
X120291D01*
Y90169D01*
D02*
G37*
G36*
X115642D02*
X111992D01*
Y86520D01*
X115642D01*
Y90169D01*
D02*
G37*
G36*
X60218Y191945D02*
X59555D01*
Y177665D01*
X73835D01*
Y178329D01*
X73471Y180626D01*
X72752Y182839D01*
X71696Y184912D01*
X70328Y186794D01*
X68683Y188438D01*
X66801Y189806D01*
X64728Y190862D01*
X62516Y191581D01*
X60218Y191945D01*
D02*
G37*
G36*
X58555D02*
X57892D01*
X55594Y191581D01*
X53382Y190862D01*
X51309Y189806D01*
X49427Y188438D01*
X47782Y186794D01*
X46415Y184912D01*
X45358Y182839D01*
X44640Y180626D01*
X44276Y178329D01*
Y177665D01*
X58555D01*
Y191945D01*
D02*
G37*
G36*
X73835Y176665D02*
X59555D01*
Y162386D01*
X60218D01*
X62516Y162750D01*
X64728Y163469D01*
X66801Y164525D01*
X68683Y165892D01*
X70328Y167537D01*
X71696Y169419D01*
X72752Y171492D01*
X73471Y173705D01*
X73835Y176002D01*
Y176665D01*
D02*
G37*
G36*
X58555D02*
X44276D01*
Y176002D01*
X44640Y173705D01*
X45358Y171492D01*
X46415Y169419D01*
X47782Y167537D01*
X49427Y165892D01*
X51309Y164525D01*
X53382Y163469D01*
X55594Y162750D01*
X57892Y162386D01*
X58555D01*
Y176665D01*
D02*
G37*
G36*
X81255Y106630D02*
X81209D01*
Y102980D01*
X84858D01*
Y103027D01*
X84575Y104082D01*
X84029Y105028D01*
X83257Y105801D01*
X82310Y106347D01*
X81255Y106630D01*
D02*
G37*
G36*
X80209D02*
X80162D01*
X79107Y106347D01*
X78161Y105801D01*
X77388Y105028D01*
X76842Y104082D01*
X76559Y103027D01*
Y102980D01*
X80209D01*
Y106630D01*
D02*
G37*
G36*
X69444Y110331D02*
X68351D01*
X67296Y110048D01*
X66350Y109502D01*
X65577Y108729D01*
X65031Y107783D01*
X64748Y106727D01*
Y105635D01*
X65031Y104579D01*
X65577Y103633D01*
X66350Y102861D01*
X67296Y102314D01*
X68351Y102032D01*
X69444D01*
X70499Y102314D01*
X71446Y102861D01*
X72218Y103633D01*
X72764Y104579D01*
X73047Y105635D01*
Y106727D01*
X72764Y107783D01*
X72218Y108729D01*
X71446Y109502D01*
X70499Y110048D01*
X69444Y110331D01*
D02*
G37*
G36*
X84858Y101980D02*
X81209D01*
Y98331D01*
X81255D01*
X82310Y98614D01*
X83257Y99160D01*
X84029Y99932D01*
X84575Y100879D01*
X84858Y101934D01*
Y101980D01*
D02*
G37*
G36*
X80209D02*
X76559D01*
Y101934D01*
X76842Y100879D01*
X77388Y99932D01*
X78161Y99160D01*
X79107Y98614D01*
X80162Y98331D01*
X80209D01*
Y101980D01*
D02*
G37*
G36*
X81255Y94819D02*
X81209D01*
Y91169D01*
X84858D01*
Y91216D01*
X84575Y92271D01*
X84029Y93217D01*
X83257Y93990D01*
X82310Y94536D01*
X81255Y94819D01*
D02*
G37*
G36*
X80209D02*
X80162D01*
X79107Y94536D01*
X78161Y93990D01*
X77388Y93217D01*
X76842Y92271D01*
X76559Y91216D01*
Y91169D01*
X80209D01*
Y94819D01*
D02*
G37*
G36*
X84858Y90169D02*
X81209D01*
Y86520D01*
X81255D01*
X82310Y86803D01*
X83257Y87349D01*
X84029Y88121D01*
X84575Y89068D01*
X84858Y90123D01*
Y90169D01*
D02*
G37*
G36*
X80209D02*
X76559D01*
Y90123D01*
X76842Y89068D01*
X77388Y88121D01*
X78161Y87349D01*
X79107Y86803D01*
X80162Y86520D01*
X80209D01*
Y90169D01*
D02*
G37*
%LPD*%
D12*
X78228Y136732D02*
X78425Y136535D01*
X108425Y116358D02*
Y136732D01*
X104331Y102618D02*
Y112264D01*
X108425Y116358D01*
X92520Y112402D02*
X98425Y118307D01*
Y136732D01*
X92520Y102756D02*
X92520Y102756D01*
X92520Y102756D02*
Y112402D01*
Y102756D02*
X92520Y102756D01*
X92520Y102480D02*
Y102756D01*
X78150Y136811D02*
X78228Y136732D01*
X78425D01*
D13*
X66634Y80945D02*
X130217D01*
Y115472D01*
X66634D02*
X130217D01*
X66634Y80945D02*
Y115472D01*
X73425Y131732D02*
Y151732D01*
X123425D01*
Y131732D02*
Y151732D01*
X73425Y131732D02*
X123425D01*
X96457Y98425D02*
X100394D01*
X98425Y96457D02*
Y100394D01*
D14*
X65354Y80551D02*
X131496D01*
X65354D02*
Y115866D01*
X131496D01*
Y80551D02*
Y115866D01*
X72047Y130650D02*
X124803D01*
Y152815D01*
X72047D02*
X124803D01*
X72047Y130650D02*
Y152815D01*
X98425Y139764D02*
Y143701D01*
X96457Y141732D02*
X100394D01*
D15*
X83013Y51700D02*
X83613D01*
X76313Y51600D02*
X76513D01*
X82713D02*
X83713D01*
X75713Y51500D02*
X76713D01*
X82613D02*
X83813D01*
X75313Y51400D02*
X76813D01*
X82313D02*
X84013D01*
X74813Y51300D02*
X76913D01*
X82213D02*
X84113D01*
X74613Y51200D02*
X77013D01*
X82013D02*
X84213D01*
X74413Y51100D02*
X77113D01*
X81813D02*
X84413D01*
X74313Y51000D02*
X77313D01*
X81613D02*
X84513D01*
X74213Y50900D02*
X77413D01*
X81413D02*
X84713D01*
X74113Y50800D02*
X77513D01*
X81213D02*
X84813D01*
X74013Y50700D02*
X75313D01*
X75813D02*
X77613D01*
X81013D02*
X84913D01*
X73913Y50600D02*
X75213D01*
X75913D02*
X77713D01*
X80913D02*
X85113D01*
X73813Y50500D02*
X75013D01*
X76013D02*
X77913D01*
X80713D02*
X85213D01*
X73713Y50400D02*
X74913D01*
X76113D02*
X78013D01*
X80513D02*
X85413D01*
X73613Y50300D02*
X74713D01*
X76213D02*
X78113D01*
X80313D02*
X85513D01*
X73513Y50200D02*
X74613D01*
X76213D02*
X78213D01*
X80113D02*
X85613D01*
X73413Y50100D02*
X74413D01*
X76313D02*
X78313D01*
X79913D02*
X85813D01*
X73213Y50000D02*
X74313D01*
X76413D02*
X78513D01*
X79813D02*
X85913D01*
X73113Y49900D02*
X74213D01*
X76513D02*
X78613D01*
X79513D02*
X86113D01*
X73013Y49800D02*
X74113D01*
X76613D02*
X78713D01*
X79313D02*
X86213D01*
X99313D02*
X99513D01*
X109313D02*
X109813D01*
X110413D02*
X110613D01*
X72913Y49700D02*
X73913D01*
X76713D02*
X78813D01*
X79213D02*
X86313D01*
X97213D02*
X97713D01*
X99313D02*
X99613D01*
X109013D02*
X109813D01*
X110313D02*
X111013D01*
X72813Y49600D02*
X73813D01*
X76813D02*
X86513D01*
X96413D02*
X97713D01*
X98413D02*
X98613D01*
X99313D02*
X100013D01*
X108713D02*
X109813D01*
X110313D02*
X111313D01*
X72713Y49500D02*
X73713D01*
X76913D02*
X86613D01*
X96013D02*
X97613D01*
X98313D02*
X98613D01*
X99213D02*
X100213D01*
X108413D02*
X109813D01*
X110313D02*
X111613D01*
X72513Y49400D02*
X73613D01*
X76913D02*
X86813D01*
X95413D02*
X97613D01*
X98213D02*
X98613D01*
X99113D02*
X100613D01*
X108113D02*
X109813D01*
X110413D02*
X111913D01*
X72413Y49300D02*
X73413D01*
X77113D02*
X86913D01*
X94813D02*
X97413D01*
X98113D02*
X98613D01*
X99113D02*
X100813D01*
X107913D02*
X109913D01*
X110413D02*
X112213D01*
X72313Y49200D02*
X73313D01*
X77213D02*
X87013D01*
X94213D02*
X97313D01*
X98013D02*
X98613D01*
X99113D02*
X101113D01*
X107613D02*
X109913D01*
X110413D02*
X112613D01*
X72213Y49100D02*
X73213D01*
X77113D02*
X87213D01*
X93413D02*
X97213D01*
X97913D02*
X98613D01*
X99113D02*
X101413D01*
X107413D02*
X110013D01*
X110513D02*
X112913D01*
X72113Y49000D02*
X73113D01*
X77113D02*
X87313D01*
X93013D02*
X97013D01*
X97713D02*
X98513D01*
X99013D02*
X101613D01*
X107013D02*
X110013D01*
X110513D02*
X113213D01*
X72013Y48900D02*
X73013D01*
X77213D02*
X87413D01*
X92813D02*
X96913D01*
X97613D02*
X98513D01*
X98913D02*
X101913D01*
X106813D02*
X110013D01*
X110513D02*
X113213D01*
X71913Y48800D02*
X72913D01*
X77213D02*
X87613D01*
X92713D02*
X96813D01*
X97513D02*
X98513D01*
X98913D02*
X102213D01*
X106513D02*
X110013D01*
X110513D02*
X113213D01*
X71813Y48700D02*
X72713D01*
X77013D02*
X87813D01*
X92713D02*
X96713D01*
X97413D02*
X98413D01*
X98913D02*
X102513D01*
X106213D02*
X110113D01*
X110513D02*
X113213D01*
X71713Y48600D02*
X72613D01*
X76913D02*
X87913D01*
X90513D02*
X91313D01*
X92013D02*
X92313D01*
X92713D02*
X96613D01*
X97213D02*
X98313D01*
X98913D02*
X102713D01*
X106013D02*
X110113D01*
X110513D02*
X113213D01*
X71613Y48500D02*
X72513D01*
X76713D02*
X88013D01*
X89913D02*
X91313D01*
X91913D02*
X92313D01*
X92813D02*
X96413D01*
X97113D02*
X98313D01*
X98813D02*
X103113D01*
X105713D02*
X110113D01*
X110613D02*
X113213D01*
X71513Y48400D02*
X72313D01*
X76613D02*
X88113D01*
X89113D02*
X91213D01*
X91913D02*
X92313D01*
X92813D02*
X96313D01*
X97013D02*
X98313D01*
X98813D02*
X103213D01*
X105513D02*
X110113D01*
X110613D02*
X113313D01*
X71413Y48300D02*
X72213D01*
X76513D02*
X88313D01*
X88713D02*
X91113D01*
X91713D02*
X92313D01*
X92713D02*
X96213D01*
X96913D02*
X98213D01*
X98713D02*
X103613D01*
X105213D02*
X110113D01*
X110713D02*
X113313D01*
X71313Y48200D02*
X72113D01*
X76413D02*
X91013D01*
X91713D02*
X92313D01*
X92713D02*
X96113D01*
X96713D02*
X98213D01*
X98713D02*
X103913D01*
X104913D02*
X110213D01*
X110713D02*
X113313D01*
X71113Y48100D02*
X72013D01*
X76213D02*
X90913D01*
X91513D02*
X92313D01*
X92713D02*
X96013D01*
X96613D02*
X98213D01*
X98713D02*
X104113D01*
X104713D02*
X110213D01*
X110713D02*
X113413D01*
X71013Y48000D02*
X71913D01*
X76113D02*
X90813D01*
X91413D02*
X92313D01*
X92713D02*
X95913D01*
X96613D02*
X98113D01*
X98613D02*
X104313D01*
X104513D02*
X110213D01*
X110713D02*
X113413D01*
X70913Y47900D02*
X71813D01*
X76013D02*
X90713D01*
X91313D02*
X92313D01*
X92713D02*
X95813D01*
X96413D02*
X98113D01*
X98613D02*
X110313D01*
X110813D02*
X113413D01*
X70813Y47800D02*
X71613D01*
X75913D02*
X90613D01*
X91213D02*
X92313D01*
X92713D02*
X95613D01*
X96313D02*
X98113D01*
X98613D02*
X110313D01*
X110813D02*
X113413D01*
X70713Y47700D02*
X71413D01*
X75713D02*
X90513D01*
X91113D02*
X92213D01*
X92713D02*
X95513D01*
X96213D02*
X98013D01*
X98513D02*
X110313D01*
X110813D02*
X113513D01*
X70613Y47600D02*
X71313D01*
X75613D02*
X90413D01*
X91013D02*
X92213D01*
X92713D02*
X95413D01*
X96113D02*
X98013D01*
X98513D02*
X110313D01*
X110813D02*
X113513D01*
X70513Y47500D02*
X71213D01*
X75413D02*
X90413D01*
X90913D02*
X92213D01*
X92713D02*
X95313D01*
X96013D02*
X98013D01*
X98413D02*
X110313D01*
X110813D02*
X113513D01*
X70413Y47400D02*
X71113D01*
X75313D02*
X90313D01*
X90813D02*
X92213D01*
X92713D02*
X95213D01*
X95913D02*
X97913D01*
X98413D02*
X110413D01*
X110813D02*
X113513D01*
X70313Y47300D02*
X71013D01*
X75213D02*
X90313D01*
X90713D02*
X92213D01*
X92713D02*
X95013D01*
X95713D02*
X97913D01*
X98413D02*
X110413D01*
X110913D02*
X113513D01*
X70113Y47200D02*
X70813D01*
X75113D02*
X90213D01*
X90713D02*
X92213D01*
X92713D02*
X95013D01*
X95613D02*
X97913D01*
X98413D02*
X110413D01*
X110913D02*
X113613D01*
X70013Y47100D02*
X70713D01*
X75113D02*
X90213D01*
X90613D02*
X92213D01*
X92713D02*
X95013D01*
X95513D02*
X97813D01*
X98313D02*
X110513D01*
X110913D02*
X113613D01*
X69913Y47000D02*
X70613D01*
X75113D02*
X90113D01*
X90613D02*
X92213D01*
X92713D02*
X94913D01*
X95413D02*
X97813D01*
X98313D02*
X110513D01*
X111013D02*
X113613D01*
X69813Y46900D02*
X70513D01*
X75113D02*
X90113D01*
X90613D02*
X92213D01*
X92713D02*
X94913D01*
X95313D02*
X97813D01*
X98213D02*
X110513D01*
X111013D02*
X113613D01*
X69713Y46800D02*
X70413D01*
X75013D02*
X90113D01*
X90513D02*
X92213D01*
X92713D02*
X94813D01*
X95313D02*
X97713D01*
X98213D02*
X110613D01*
X111013D02*
X113713D01*
X69613Y46700D02*
X70313D01*
X75013D02*
X90113D01*
X90513D02*
X92213D01*
X92713D02*
X94813D01*
X95313D02*
X97713D01*
X98113D02*
X110613D01*
X111013D02*
X113713D01*
X69513Y46600D02*
X70113D01*
X75013D02*
X90013D01*
X90513D02*
X92113D01*
X92713D02*
X94713D01*
X95213D02*
X97613D01*
X98113D02*
X110613D01*
X111013D02*
X113713D01*
X69413Y46500D02*
X70013D01*
X74913D02*
X89913D01*
X90413D02*
X92113D01*
X92613D02*
X94713D01*
X95213D02*
X97613D01*
X98113D02*
X110613D01*
X111013D02*
X113713D01*
X69313Y46400D02*
X69913D01*
X74913D02*
X89913D01*
X90413D02*
X92113D01*
X92613D02*
X94713D01*
X95213D02*
X97513D01*
X98113D02*
X110613D01*
X111113D02*
X113813D01*
X69213Y46300D02*
X69813D01*
X74913D02*
X89913D01*
X90413D02*
X92113D01*
X92613D02*
X94713D01*
X95213D02*
X97513D01*
X98013D02*
X110613D01*
X111113D02*
X113813D01*
X69113Y46200D02*
X69713D01*
X74913D02*
X89813D01*
X90313D02*
X92113D01*
X92613D02*
X94613D01*
X95113D02*
X97513D01*
X97913D02*
X110713D01*
X111213D02*
X113813D01*
X68913Y46100D02*
X69513D01*
X74813D02*
X89813D01*
X90313D02*
X92113D01*
X92613D02*
X94613D01*
X95113D02*
X97413D01*
X97913D02*
X110713D01*
X111213D02*
X113813D01*
X68813Y46000D02*
X69413D01*
X74813D02*
X89813D01*
X90213D02*
X92113D01*
X92613D02*
X94513D01*
X95013D02*
X97413D01*
X97913D02*
X110713D01*
X111213D02*
X113913D01*
X68713Y45900D02*
X69313D01*
X74813D02*
X89713D01*
X90213D02*
X92113D01*
X92613D02*
X94513D01*
X95013D02*
X97413D01*
X97913D02*
X110713D01*
X111213D02*
X113913D01*
X68613Y45800D02*
X69213D01*
X74813D02*
X89713D01*
X90213D02*
X92113D01*
X92613D02*
X94513D01*
X95013D02*
X97413D01*
X97913D02*
X110813D01*
X111213D02*
X113913D01*
X68513Y45700D02*
X69113D01*
X74813D02*
X89713D01*
X90113D02*
X92113D01*
X92513D02*
X94513D01*
X94913D02*
X97313D01*
X97813D02*
X110813D01*
X111213D02*
X113913D01*
X68413Y45600D02*
X69013D01*
X74813D02*
X89613D01*
X90113D02*
X92113D01*
X92513D02*
X94413D01*
X94913D02*
X97313D01*
X97813D02*
X110813D01*
X111313D02*
X114013D01*
X68313Y45500D02*
X68813D01*
X74813D02*
X89613D01*
X90013D02*
X92113D01*
X92513D02*
X94413D01*
X94913D02*
X97313D01*
X97713D02*
X110813D01*
X111313D02*
X114013D01*
X68213Y45400D02*
X68713D01*
X74713D02*
X89613D01*
X90013D02*
X92113D01*
X92513D02*
X94413D01*
X94813D02*
X97213D01*
X97713D02*
X110813D01*
X111313D02*
X114013D01*
X68113Y45300D02*
X68613D01*
X74713D02*
X89513D01*
X90013D02*
X92113D01*
X92513D02*
X94313D01*
X94813D02*
X97213D01*
X97713D02*
X110913D01*
X111413D02*
X114013D01*
X68013Y45200D02*
X68413D01*
X74613D02*
X89513D01*
X89913D02*
X92113D01*
X92513D02*
X94313D01*
X94813D02*
X97113D01*
X97613D02*
X110913D01*
X111413D02*
X114013D01*
X67913Y45100D02*
X68213D01*
X74613D02*
X89413D01*
X89913D02*
X92113D01*
X92513D02*
X94313D01*
X94713D02*
X97113D01*
X97613D02*
X110913D01*
X111413D02*
X114113D01*
X67813Y45000D02*
X68113D01*
X74613D02*
X89413D01*
X89913D02*
X92113D01*
X92513D02*
X94213D01*
X94713D02*
X97013D01*
X97613D02*
X111013D01*
X111513D02*
X114113D01*
X67813Y44900D02*
X68013D01*
X74613D02*
X89413D01*
X89813D02*
X92113D01*
X92513D02*
X94213D01*
X94713D02*
X97013D01*
X97513D02*
X111013D01*
X111513D02*
X114113D01*
X74613Y44800D02*
X89313D01*
X89813D02*
X92013D01*
X92513D02*
X94213D01*
X94613D02*
X97013D01*
X97413D02*
X111113D01*
X111513D02*
X114113D01*
X74513Y44700D02*
X89313D01*
X89813D02*
X92013D01*
X92513D02*
X94113D01*
X94613D02*
X96913D01*
X97413D02*
X111113D01*
X111513D02*
X114213D01*
X74513Y44600D02*
X89213D01*
X89713D02*
X92013D01*
X92513D02*
X94113D01*
X94513D02*
X96913D01*
X97413D02*
X111113D01*
X111513D02*
X114213D01*
X74513Y44500D02*
X88113D01*
X88313D02*
X89213D01*
X89713D02*
X92013D01*
X92513D02*
X94013D01*
X94513D02*
X96913D01*
X97413D02*
X111113D01*
X111513D02*
X114213D01*
X114813D02*
X115113D01*
X74513Y44400D02*
X88013D01*
X88413D02*
X89213D01*
X89613D02*
X92013D01*
X92513D02*
X94013D01*
X94513D02*
X96813D01*
X97413D02*
X111113D01*
X111613D02*
X114213D01*
X114813D02*
X115513D01*
X74513Y44300D02*
X87613D01*
X88413D02*
X89113D01*
X89613D02*
X92013D01*
X92513D02*
X94013D01*
X94513D02*
X96813D01*
X97313D02*
X111113D01*
X111613D02*
X114213D01*
X114813D02*
X115813D01*
X74513Y44200D02*
X87413D01*
X88413D02*
X89113D01*
X89513D02*
X92013D01*
X92513D02*
X94013D01*
X94413D02*
X96813D01*
X97213D02*
X111213D01*
X111613D02*
X114213D01*
X114813D02*
X116113D01*
X74413Y44100D02*
X87113D01*
X88413D02*
X89113D01*
X89513D02*
X92013D01*
X92513D02*
X93913D01*
X94413D02*
X96713D01*
X97213D02*
X111213D01*
X111713D02*
X114313D01*
X114813D02*
X116513D01*
X74413Y44000D02*
X86813D01*
X88413D02*
X89013D01*
X89513D02*
X92013D01*
X92513D02*
X93913D01*
X94413D02*
X96713D01*
X97213D02*
X111213D01*
X111713D02*
X114313D01*
X114813D02*
X116813D01*
X74413Y43900D02*
X86513D01*
X88413D02*
X89013D01*
X89513D02*
X92013D01*
X92513D02*
X93913D01*
X94313D02*
X96713D01*
X97213D02*
X111313D01*
X111713D02*
X114313D01*
X114813D02*
X117313D01*
X74413Y43800D02*
X86213D01*
X88413D02*
X89013D01*
X89413D02*
X91913D01*
X92513D02*
X93813D01*
X94313D02*
X96613D01*
X97113D02*
X111313D01*
X111713D02*
X114413D01*
X114913D02*
X117513D01*
X74313Y43700D02*
X85813D01*
X88413D02*
X88913D01*
X89413D02*
X91913D01*
X92513D02*
X93813D01*
X94213D02*
X96613D01*
X97113D02*
X111313D01*
X111713D02*
X114413D01*
X114913D02*
X117913D01*
X74313Y43600D02*
X85613D01*
X88413D02*
X88913D01*
X89313D02*
X91913D01*
X92513D02*
X93813D01*
X94213D02*
X96613D01*
X97013D02*
X111313D01*
X111713D02*
X114413D01*
X114913D02*
X118113D01*
X74313Y43500D02*
X85313D01*
X88413D02*
X88813D01*
X89313D02*
X91913D01*
X92513D02*
X93713D01*
X94213D02*
X96513D01*
X97013D02*
X111313D01*
X111813D02*
X114413D01*
X114913D02*
X118613D01*
X74313Y43400D02*
X85113D01*
X88413D02*
X88813D01*
X89313D02*
X91913D01*
X92413D02*
X93713D01*
X94113D02*
X96413D01*
X97013D02*
X111313D01*
X111813D02*
X114413D01*
X114913D02*
X118913D01*
X74313Y43300D02*
X84813D01*
X88413D02*
X88813D01*
X89213D02*
X91913D01*
X92413D02*
X93713D01*
X94113D02*
X96413D01*
X96913D02*
X111413D01*
X111913D02*
X114413D01*
X115013D02*
X119213D01*
X74213Y43200D02*
X84513D01*
X88513D02*
X88713D01*
X89213D02*
X91913D01*
X92413D02*
X93613D01*
X94113D02*
X96413D01*
X96913D02*
X111413D01*
X111913D02*
X114513D01*
X115013D02*
X119613D01*
X74213Y43100D02*
X84213D01*
X88513D02*
X88713D01*
X89213D02*
X91913D01*
X92413D02*
X93613D01*
X94113D02*
X96313D01*
X96913D02*
X111413D01*
X111913D02*
X114513D01*
X115013D02*
X119913D01*
X74213Y43000D02*
X83913D01*
X89213D02*
X91813D01*
X92413D02*
X93613D01*
X94013D02*
X96313D01*
X96813D02*
X111513D01*
X111913D02*
X114513D01*
X115113D02*
X120213D01*
X74213Y42900D02*
X83613D01*
X89113D02*
X91813D01*
X92413D02*
X93513D01*
X94013D02*
X96313D01*
X96813D02*
X111513D01*
X111913D02*
X114513D01*
X115113D02*
X120613D01*
X74113Y42800D02*
X83313D01*
X89013D02*
X91813D01*
X92413D02*
X93513D01*
X94013D02*
X96313D01*
X96713D02*
X111513D01*
X111913D02*
X114513D01*
X115113D02*
X120813D01*
X74113Y42700D02*
X83013D01*
X89013D02*
X91813D01*
X92313D02*
X93513D01*
X93913D02*
X96213D01*
X96713D02*
X111613D01*
X112013D02*
X114613D01*
X115113D02*
X121313D01*
X74113Y42600D02*
X82713D01*
X88913D02*
X91813D01*
X92313D02*
X93413D01*
X93913D02*
X96213D01*
X96713D02*
X111613D01*
X112013D02*
X114613D01*
X115113D02*
X121613D01*
X74013Y42500D02*
X82413D01*
X88913D02*
X91813D01*
X92313D02*
X93413D01*
X93813D02*
X96113D01*
X96713D02*
X111513D01*
X112013D02*
X114613D01*
X115113D02*
X121813D01*
X74013Y42400D02*
X82113D01*
X88913D02*
X91813D01*
X92313D02*
X93313D01*
X93813D02*
X96113D01*
X96613D02*
X111613D01*
X112113D02*
X114613D01*
X115113D02*
X121913D01*
X74013Y42300D02*
X81913D01*
X88913D02*
X91813D01*
X92313D02*
X93313D01*
X93813D02*
X96113D01*
X96613D02*
X111613D01*
X112113D02*
X114713D01*
X115113D02*
X122013D01*
X74013Y42200D02*
X81513D01*
X88913D02*
X91813D01*
X92313D02*
X93313D01*
X93813D02*
X96113D01*
X96513D02*
X111713D01*
X112113D02*
X114713D01*
X115113D02*
X122013D01*
X74113Y42100D02*
X81313D01*
X88813D02*
X91813D01*
X92313D02*
X93313D01*
X93713D02*
X96013D01*
X96513D02*
X111713D01*
X112213D02*
X114713D01*
X115213D02*
X122113D01*
X74213Y42000D02*
X80913D01*
X88713D02*
X91813D01*
X92313D02*
X93213D01*
X93713D02*
X96013D01*
X96513D02*
X111713D01*
X112213D02*
X114713D01*
X115213D02*
X122213D01*
X74313Y41900D02*
X80713D01*
X88713D02*
X91813D01*
X92313D02*
X93213D01*
X93613D02*
X95913D01*
X96413D02*
X109613D01*
X110013D02*
X111813D01*
X112213D02*
X114713D01*
X115313D02*
X122213D01*
X74413Y41800D02*
X80413D01*
X88713D02*
X91813D01*
X92313D02*
X93213D01*
X93613D02*
X95913D01*
X96413D02*
X109513D01*
X110013D02*
X111813D01*
X112213D02*
X114813D01*
X115313D02*
X122313D01*
X74513Y41700D02*
X80113D01*
X88613D02*
X91813D01*
X92313D02*
X93113D01*
X93613D02*
X95813D01*
X96413D02*
X109313D01*
X110013D02*
X111813D01*
X112213D02*
X114813D01*
X115313D02*
X122413D01*
X74513Y41600D02*
X79813D01*
X88613D02*
X91813D01*
X92313D02*
X93113D01*
X93613D02*
X95813D01*
X96313D02*
X109213D01*
X110013D02*
X111813D01*
X112213D02*
X114813D01*
X115313D02*
X122513D01*
X74613Y41500D02*
X79513D01*
X88613D02*
X91813D01*
X92313D02*
X93113D01*
X93513D02*
X95813D01*
X96313D02*
X109013D01*
X110013D02*
X111813D01*
X112313D02*
X114813D01*
X115313D02*
X122613D01*
X74713Y41400D02*
X79313D01*
X88513D02*
X91713D01*
X92313D02*
X93013D01*
X93513D02*
X95713D01*
X96213D02*
X108913D01*
X110013D02*
X111813D01*
X112313D02*
X114913D01*
X115313D02*
X122713D01*
X74813Y41300D02*
X78913D01*
X88413D02*
X91713D01*
X92313D02*
X93013D01*
X93413D02*
X95713D01*
X96213D02*
X108713D01*
X110013D02*
X111913D01*
X112313D02*
X114913D01*
X115313D02*
X122713D01*
X74913Y41200D02*
X78613D01*
X88313D02*
X91713D01*
X92313D02*
X93013D01*
X93413D02*
X95713D01*
X96213D02*
X108513D01*
X110013D02*
X111913D01*
X112313D02*
X114913D01*
X115413D02*
X122813D01*
X74913Y41100D02*
X78413D01*
X88213D02*
X91713D01*
X92213D02*
X92913D01*
X93413D02*
X95713D01*
X96213D02*
X108413D01*
X109913D02*
X112013D01*
X112413D02*
X114913D01*
X115413D02*
X122913D01*
X75013Y41000D02*
X78113D01*
X88113D02*
X91713D01*
X92213D02*
X92913D01*
X93313D02*
X95613D01*
X96113D02*
X108213D01*
X109913D02*
X112013D01*
X112413D02*
X114913D01*
X115413D02*
X123013D01*
X75113Y40900D02*
X77813D01*
X87913D02*
X91713D01*
X92213D02*
X92813D01*
X93313D02*
X95613D01*
X96113D02*
X108013D01*
X109913D02*
X112013D01*
X112413D02*
X114913D01*
X115413D02*
X123013D01*
X75213Y40800D02*
X77513D01*
X87913D02*
X91713D01*
X92213D02*
X92813D01*
X93313D02*
X95613D01*
X96013D02*
X107913D01*
X109913D02*
X112013D01*
X112413D02*
X114913D01*
X115513D02*
X123113D01*
X75313Y40700D02*
X77213D01*
X87713D02*
X91713D01*
X92213D02*
X92813D01*
X93313D02*
X95513D01*
X96013D02*
X107713D01*
X109913D02*
X112013D01*
X112513D02*
X115013D01*
X115513D02*
X123213D01*
X75413Y40600D02*
X76913D01*
X87613D02*
X91713D01*
X92213D02*
X92813D01*
X93213D02*
X95513D01*
X96013D02*
X107513D01*
X109813D02*
X112013D01*
X112513D02*
X115013D01*
X115513D02*
X123313D01*
X75513Y40500D02*
X76513D01*
X87513D02*
X91713D01*
X92213D02*
X92813D01*
X93213D02*
X95413D01*
X95913D02*
X107413D01*
X109813D02*
X112013D01*
X112513D02*
X115013D01*
X115513D02*
X123413D01*
X75513Y40400D02*
X76313D01*
X87413D02*
X91713D01*
X92213D02*
X92713D01*
X93113D02*
X95413D01*
X95913D02*
X107213D01*
X109813D02*
X112113D01*
X112613D02*
X115113D01*
X115613D02*
X123513D01*
X75613Y40300D02*
X76013D01*
X87313D02*
X91713D01*
X92213D02*
X92713D01*
X93113D02*
X95413D01*
X95913D02*
X107113D01*
X109813D02*
X112113D01*
X112613D02*
X115113D01*
X115613D02*
X123513D01*
X87113Y40200D02*
X91713D01*
X92213D02*
X92613D01*
X93113D02*
X95313D01*
X95813D02*
X106913D01*
X109813D02*
X112113D01*
X112613D02*
X115113D01*
X115613D02*
X123613D01*
X87013Y40100D02*
X91613D01*
X92213D02*
X92613D01*
X93113D02*
X95313D01*
X95813D02*
X106813D01*
X109813D02*
X112213D01*
X112713D02*
X115113D01*
X115613D02*
X123713D01*
X86913Y40000D02*
X91613D01*
X92213D02*
X92613D01*
X93013D02*
X95213D01*
X95713D02*
X106613D01*
X109813D02*
X112213D01*
X112713D02*
X115113D01*
X115613D02*
X123713D01*
X86813Y39900D02*
X91613D01*
X92213D02*
X92513D01*
X93013D02*
X95213D01*
X95713D02*
X106413D01*
X109813D02*
X112313D01*
X112613D02*
X115113D01*
X115613D02*
X123813D01*
X86713Y39800D02*
X91513D01*
X92213D02*
X92513D01*
X93013D02*
X95113D01*
X95713D02*
X106313D01*
X109813D02*
X112313D01*
X112713D02*
X115113D01*
X115613D02*
X123913D01*
X86613Y39700D02*
X91313D01*
X92913D02*
X95113D01*
X95613D02*
X106113D01*
X109713D02*
X112213D01*
X112713D02*
X115213D01*
X115713D02*
X123913D01*
X86513Y39600D02*
X91113D01*
X92913D02*
X95113D01*
X95613D02*
X106013D01*
X109713D02*
X112313D01*
X112713D02*
X115213D01*
X115713D02*
X124013D01*
X86413Y39500D02*
X91013D01*
X92913D02*
X95013D01*
X95613D02*
X96013D01*
X96313D02*
X105813D01*
X109713D02*
X112313D01*
X112713D02*
X115213D01*
X115713D02*
X124113D01*
X86213Y39400D02*
X90813D01*
X92813D02*
X95013D01*
X98413D02*
X105613D01*
X109713D02*
X112313D01*
X112813D02*
X115213D01*
X115813D02*
X124213D01*
X86113Y39300D02*
X90613D01*
X92813D02*
X95013D01*
X99413D02*
X105413D01*
X109713D02*
X112313D01*
X112813D02*
X115313D01*
X115813D02*
X124313D01*
X86013Y39200D02*
X90513D01*
X92813D02*
X95013D01*
X101313D02*
X105313D01*
X109613D02*
X112413D01*
X112913D02*
X115313D01*
X115813D02*
X124413D01*
X85913Y39100D02*
X90313D01*
X92713D02*
X94913D01*
X101913D02*
X102113D01*
X102413D02*
X102613D01*
X102813D02*
X105213D01*
X109613D02*
X112413D01*
X112913D02*
X115313D01*
X115813D02*
X124413D01*
X85813Y39000D02*
X90213D01*
X92713D02*
X94913D01*
X103713D02*
X104913D01*
X109613D02*
X112413D01*
X112913D02*
X115313D01*
X115813D02*
X124513D01*
X85713Y38900D02*
X90013D01*
X92613D02*
X94913D01*
X109613D02*
X112513D01*
X112913D02*
X115413D01*
X115813D02*
X124613D01*
X85613Y38800D02*
X89813D01*
X92613D02*
X94813D01*
X109613D02*
X112513D01*
X112913D02*
X115413D01*
X115813D02*
X124713D01*
X85513Y38700D02*
X89713D01*
X92613D02*
X94713D01*
X109613D02*
X112513D01*
X112913D02*
X115413D01*
X115813D02*
X124713D01*
X85413Y38600D02*
X89513D01*
X92613D02*
X94713D01*
X109513D02*
X112513D01*
X113013D02*
X115413D01*
X115913D02*
X124813D01*
X85313Y38500D02*
X89313D01*
X92613D02*
X94713D01*
X109513D02*
X112513D01*
X113013D02*
X115413D01*
X115913D02*
X124913D01*
X85213Y38400D02*
X89213D01*
X92513D02*
X94713D01*
X109513D02*
X112613D01*
X113113D02*
X115413D01*
X115913D02*
X125013D01*
X85113Y38300D02*
X89013D01*
X92513D02*
X94613D01*
X109513D02*
X112613D01*
X113113D02*
X115513D01*
X116013D02*
X125113D01*
X84913Y38200D02*
X88913D01*
X92413D02*
X94613D01*
X109513D02*
X112613D01*
X113113D02*
X115513D01*
X116013D02*
X125213D01*
X84813Y38100D02*
X88713D01*
X92413D02*
X94613D01*
X109513D02*
X112713D01*
X113113D02*
X115513D01*
X116013D02*
X125213D01*
X84713Y38000D02*
X88613D01*
X92313D02*
X94513D01*
X109413D02*
X112713D01*
X113113D02*
X115513D01*
X116013D02*
X125313D01*
X84613Y37900D02*
X88413D01*
X92313D02*
X94513D01*
X109413D02*
X112713D01*
X113113D02*
X115613D01*
X116013D02*
X125413D01*
X84513Y37800D02*
X88313D01*
X92313D02*
X94413D01*
X109413D02*
X112713D01*
X113213D02*
X115613D01*
X116013D02*
X125413D01*
X84413Y37700D02*
X88113D01*
X92313D02*
X94413D01*
X109413D02*
X112713D01*
X113213D02*
X115613D01*
X116013D02*
X125513D01*
X84313Y37600D02*
X87913D01*
X92313D02*
X94413D01*
X109413D02*
X112713D01*
X113213D02*
X115613D01*
X116113D02*
X125613D01*
X84213Y37500D02*
X87813D01*
X92213D02*
X94413D01*
X109413D02*
X112813D01*
X113313D02*
X115613D01*
X116113D02*
X125713D01*
X84013Y37400D02*
X87613D01*
X92213D02*
X94313D01*
X109413D02*
X112813D01*
X113313D02*
X115613D01*
X116113D02*
X125813D01*
X83913Y37300D02*
X87413D01*
X92113D02*
X94313D01*
X109413D02*
X112813D01*
X113313D02*
X115613D01*
X116213D02*
X125813D01*
X83813Y37200D02*
X87213D01*
X92113D02*
X94213D01*
X109313D02*
X112913D01*
X113413D02*
X115713D01*
X116213D02*
X125913D01*
X83713Y37100D02*
X87113D01*
X92113D02*
X94213D01*
X109313D02*
X112913D01*
X113413D02*
X115713D01*
X116213D02*
X126013D01*
X83613Y37000D02*
X86913D01*
X92113D02*
X94213D01*
X109313D02*
X112913D01*
X113413D02*
X115713D01*
X116313D02*
X126013D01*
X83513Y36900D02*
X86813D01*
X92013D02*
X94113D01*
X109313D02*
X113013D01*
X113413D02*
X115713D01*
X116313D02*
X126113D01*
X83413Y36800D02*
X86613D01*
X92013D02*
X94113D01*
X109313D02*
X113013D01*
X113413D02*
X115813D01*
X116313D02*
X126213D01*
X83313Y36700D02*
X86413D01*
X91913D02*
X94113D01*
X109313D02*
X113013D01*
X113413D02*
X115813D01*
X116313D02*
X126313D01*
X83213Y36600D02*
X86313D01*
X91913D02*
X94013D01*
X109313D02*
X113013D01*
X113413D02*
X115813D01*
X116313D02*
X126313D01*
X83113Y36500D02*
X86113D01*
X91813D02*
X94013D01*
X109313D02*
X113013D01*
X113513D02*
X115913D01*
X116313D02*
X126413D01*
X83013Y36400D02*
X86013D01*
X91813D02*
X93913D01*
X109213D02*
X113113D01*
X113613D02*
X115913D01*
X116313D02*
X126513D01*
X82813Y36300D02*
X85813D01*
X91813D02*
X93913D01*
X109213D02*
X113113D01*
X113613D02*
X115913D01*
X116313D02*
X126613D01*
X82713Y36200D02*
X85713D01*
X91813D02*
X93913D01*
X109213D02*
X113113D01*
X113613D02*
X115913D01*
X116413D02*
X126713D01*
X82613Y36100D02*
X85513D01*
X91713D02*
X93813D01*
X109213D02*
X113213D01*
X113613D02*
X115913D01*
X116413D02*
X126813D01*
X82513Y36000D02*
X85313D01*
X91713D02*
X93813D01*
X109213D02*
X113213D01*
X113613D02*
X115913D01*
X116513D02*
X126813D01*
X82413Y35900D02*
X85213D01*
X91613D02*
X93813D01*
X109213D02*
X113213D01*
X113613D02*
X116013D01*
X116513D02*
X126913D01*
X82213Y35800D02*
X85013D01*
X91613D02*
X93713D01*
X109113D02*
X113213D01*
X113613D02*
X116013D01*
X116513D02*
X127013D01*
X82213Y35700D02*
X84813D01*
X91613D02*
X93713D01*
X109113D02*
X113213D01*
X113713D02*
X116013D01*
X116513D02*
X127113D01*
X82013Y35600D02*
X84613D01*
X91613D02*
X93713D01*
X109113D02*
X113213D01*
X113713D02*
X116013D01*
X116513D02*
X127113D01*
X81913Y35500D02*
X84513D01*
X91613D02*
X93613D01*
X109113D02*
X113313D01*
X113813D02*
X116013D01*
X116513D02*
X127213D01*
X81813Y35400D02*
X84313D01*
X91513D02*
X93613D01*
X109113D02*
X113313D01*
X113813D02*
X116113D01*
X116513D02*
X127313D01*
X81713Y35300D02*
X84213D01*
X91413D02*
X93513D01*
X109113D02*
X113313D01*
X113813D02*
X116113D01*
X116513D02*
X127413D01*
X81613Y35200D02*
X84013D01*
X91413D02*
X93513D01*
X109113D02*
X113313D01*
X113813D02*
X116113D01*
X116513D02*
X127513D01*
X81513Y35100D02*
X83913D01*
X91413D02*
X93413D01*
X109013D02*
X113313D01*
X113813D02*
X116113D01*
X116513D02*
X127513D01*
X81413Y35000D02*
X83713D01*
X91413D02*
X93413D01*
X109013D02*
X113313D01*
X113813D02*
X116113D01*
X116513D02*
X127613D01*
X81313Y34900D02*
X83513D01*
X91413D02*
X93413D01*
X109013D02*
X113413D01*
X113913D02*
X116113D01*
X116513D02*
X127713D01*
X81113Y34800D02*
X83413D01*
X91313D02*
X93313D01*
X109013D02*
X113413D01*
X113913D02*
X116113D01*
X116513D02*
X127713D01*
X81113Y34700D02*
X83213D01*
X91313D02*
X93313D01*
X109013D02*
X113413D01*
X113913D02*
X116113D01*
X116513D02*
X127813D01*
X81013Y34600D02*
X83013D01*
X91213D02*
X93313D01*
X109013D02*
X113413D01*
X113913D02*
X116113D01*
X116513D02*
X127913D01*
X81013Y34500D02*
X82913D01*
X91213D02*
X93313D01*
X109113D02*
X113413D01*
X113913D02*
X116113D01*
X116513D02*
X127913D01*
X81013Y34400D02*
X82913D01*
X91213D02*
X93213D01*
X109213D02*
X113413D01*
X113913D02*
X116113D01*
X116513D02*
X128013D01*
X81013Y34300D02*
X82813D01*
X91213D02*
X93213D01*
X109213D02*
X113413D01*
X113913D02*
X116113D01*
X116513D02*
X128113D01*
X81013Y34200D02*
X82813D01*
X91113D02*
X93113D01*
X109213D02*
X113513D01*
X113913D02*
X116113D01*
X116513D02*
X128213D01*
X81013Y34100D02*
X82813D01*
X91113D02*
X93113D01*
X109413D02*
X113513D01*
X113913D02*
X116113D01*
X116513D02*
X128313D01*
X81013Y34000D02*
X82813D01*
X91013D02*
X93113D01*
X109413D02*
X113513D01*
X113913D02*
X116113D01*
X116513D02*
X128413D01*
X81013Y33900D02*
X82813D01*
X91013D02*
X93013D01*
X109513D02*
X113513D01*
X113913D02*
X116113D01*
X116513D02*
X128513D01*
X81013Y33800D02*
X82813D01*
X91013D02*
X93013D01*
X109613D02*
X113513D01*
X113913D02*
X116113D01*
X116513D02*
X128513D01*
X81013Y33700D02*
X82813D01*
X90913D02*
X93013D01*
X109713D02*
X113513D01*
X113913D02*
X116113D01*
X116513D02*
X128613D01*
X81013Y33600D02*
X82813D01*
X90913D02*
X93013D01*
X109713D02*
X113513D01*
X113913D02*
X116113D01*
X116513D02*
X128613D01*
X81013Y33500D02*
X82713D01*
X90913D02*
X92913D01*
X109813D02*
X113513D01*
X113913D02*
X116113D01*
X116513D02*
X128713D01*
X81013Y33400D02*
X82713D01*
X90813D02*
X92813D01*
X109913D02*
X113513D01*
X114013D02*
X116113D01*
X116613D02*
X128813D01*
X81013Y33300D02*
X82713D01*
X90813D02*
X92813D01*
X110013D02*
X113513D01*
X114013D02*
X116113D01*
X116613D02*
X128913D01*
X81013Y33200D02*
X82713D01*
X90713D02*
X92813D01*
X110013D02*
X113513D01*
X114013D02*
X116113D01*
X116613D02*
X129013D01*
X81013Y33100D02*
X82713D01*
X90713D02*
X92713D01*
X110113D02*
X113513D01*
X114013D02*
X116113D01*
X116613D02*
X129113D01*
X81013Y33000D02*
X82713D01*
X90713D02*
X92713D01*
X110213D02*
X113613D01*
X114113D02*
X116113D01*
X116613D02*
X129113D01*
X81013Y32900D02*
X82713D01*
X90713D02*
X92713D01*
X110313D02*
X113613D01*
X114113D02*
X116113D01*
X116613D02*
X129213D01*
X81013Y32800D02*
X82713D01*
X90713D02*
X92613D01*
X110413D02*
X113613D01*
X114113D02*
X116113D01*
X116613D02*
X129313D01*
X81013Y32700D02*
X82713D01*
X90713D02*
X92613D01*
X110413D02*
X113613D01*
X114113D02*
X116113D01*
X116613D02*
X129313D01*
X81013Y32600D02*
X82713D01*
X90713D02*
X92613D01*
X110513D02*
X113613D01*
X114113D02*
X116113D01*
X116613D02*
X129313D01*
X81013Y32500D02*
X82713D01*
X90713D02*
X92513D01*
X110613D02*
X113613D01*
X114113D02*
X116113D01*
X116613D02*
X129313D01*
X81013Y32400D02*
X82713D01*
X90713D02*
X92513D01*
X110713D02*
X113613D01*
X114113D02*
X116113D01*
X116613D02*
X129213D01*
X81013Y32300D02*
X82713D01*
X90713D02*
X92613D01*
X110813D02*
X113613D01*
X114113D02*
X116113D01*
X116613D02*
X129113D01*
X81013Y32200D02*
X82713D01*
X90713D02*
X92613D01*
X110813D02*
X113713D01*
X114113D02*
X116113D01*
X116713D02*
X129113D01*
X81013Y32100D02*
X82713D01*
X90713D02*
X92613D01*
X110913D02*
X113713D01*
X114113D02*
X116113D01*
X116713D02*
X129013D01*
X81013Y32000D02*
X82713D01*
X90713D02*
X92613D01*
X111013D02*
X113713D01*
X114113D02*
X116113D01*
X116713D02*
X128913D01*
X81013Y31900D02*
X82713D01*
X90713D02*
X92613D01*
X111113D02*
X113713D01*
X114113D02*
X116113D01*
X116713D02*
X128813D01*
X81013Y31800D02*
X82713D01*
X90713D02*
X92613D01*
X111113D02*
X113713D01*
X114113D02*
X116113D01*
X116713D02*
X128713D01*
X81013Y31700D02*
X82713D01*
X90713D02*
X92613D01*
X111213D02*
X113713D01*
X114113D02*
X116113D01*
X116713D02*
X128713D01*
X81013Y31600D02*
X82713D01*
X90713D02*
X92513D01*
X111313D02*
X113713D01*
X114113D02*
X116113D01*
X116713D02*
X128613D01*
X81013Y31500D02*
X82713D01*
X90713D02*
X92513D01*
X111313D02*
X113713D01*
X114113D02*
X116113D01*
X116713D02*
X128513D01*
X81013Y31400D02*
X82713D01*
X90713D02*
X92513D01*
X111413D02*
X113713D01*
X114113D02*
X116113D01*
X116713D02*
X128513D01*
X81013Y31300D02*
X82713D01*
X90713D02*
X92613D01*
X111613D02*
X113713D01*
X114113D02*
X116113D01*
X116713D02*
X128413D01*
X81013Y31200D02*
X82713D01*
X90713D02*
X92613D01*
X111613D02*
X113713D01*
X114213D02*
X116113D01*
X116713D02*
X128313D01*
X81013Y31100D02*
X82713D01*
X90713D02*
X92613D01*
X111713D02*
X113713D01*
X114213D02*
X116113D01*
X116713D02*
X128213D01*
X81013Y31000D02*
X82713D01*
X90713D02*
X92613D01*
X111713D02*
X113713D01*
X114213D02*
X116113D01*
X116713D02*
X128213D01*
X81013Y30900D02*
X82713D01*
X90713D02*
X92513D01*
X111813D02*
X113713D01*
X114213D02*
X116113D01*
X116713D02*
X128013D01*
X81013Y30800D02*
X82713D01*
X90713D02*
X92513D01*
X111913D02*
X113813D01*
X114213D02*
X116113D01*
X116713D02*
X128013D01*
X81013Y30700D02*
X82713D01*
X90713D02*
X92513D01*
X112013D02*
X113813D01*
X114313D02*
X116213D01*
X116713D02*
X127913D01*
X81013Y30600D02*
X82713D01*
X90713D02*
X92513D01*
X112113D02*
X113813D01*
X114313D02*
X116213D01*
X116713D02*
X127813D01*
X81013Y30500D02*
X82613D01*
X90713D02*
X92513D01*
X112113D02*
X113813D01*
X114313D02*
X116213D01*
X116713D02*
X127813D01*
X81013Y30400D02*
X82613D01*
X90713D02*
X92513D01*
X112213D02*
X113813D01*
X114313D02*
X116213D01*
X116713D02*
X127713D01*
X81013Y30300D02*
X82613D01*
X90713D02*
X92513D01*
X112313D02*
X113813D01*
X114313D02*
X116213D01*
X116713D02*
X127613D01*
X81013Y30200D02*
X82613D01*
X90713D02*
X92513D01*
X112413D02*
X113813D01*
X114313D02*
X116213D01*
X116713D02*
X127513D01*
X81013Y30100D02*
X82613D01*
X90713D02*
X92513D01*
X112513D02*
X113913D01*
X114313D02*
X116213D01*
X116713D02*
X127513D01*
X81013Y30000D02*
X82613D01*
X90713D02*
X92513D01*
X112513D02*
X113913D01*
X114313D02*
X116213D01*
X116813D02*
X127413D01*
X81013Y29900D02*
X82613D01*
X90713D02*
X92513D01*
X112613D02*
X113913D01*
X114313D02*
X116313D01*
X116813D02*
X127313D01*
X81013Y29800D02*
X82613D01*
X90713D02*
X92513D01*
X112713D02*
X113913D01*
X114313D02*
X116313D01*
X116813D02*
X127213D01*
X81013Y29700D02*
X82613D01*
X90713D02*
X92513D01*
X112813D02*
X113913D01*
X114313D02*
X116313D01*
X116813D02*
X127113D01*
X81013Y29600D02*
X82613D01*
X90713D02*
X92513D01*
X112913D02*
X113913D01*
X114413D02*
X116213D01*
X116813D02*
X127013D01*
X81013Y29500D02*
X82613D01*
X90713D02*
X92513D01*
X112913D02*
X113913D01*
X114413D02*
X116313D01*
X116813D02*
X127013D01*
X81013Y29400D02*
X82613D01*
X90713D02*
X92513D01*
X113013D02*
X113913D01*
X114413D02*
X116313D01*
X116813D02*
X126913D01*
X81013Y29300D02*
X82613D01*
X90713D02*
X92513D01*
X113113D02*
X113913D01*
X114413D02*
X116313D01*
X116813D02*
X126813D01*
X81013Y29200D02*
X82613D01*
X90713D02*
X92513D01*
X113213D02*
X113913D01*
X114413D02*
X116313D01*
X116813D02*
X126813D01*
X81013Y29100D02*
X82613D01*
X90713D02*
X92513D01*
X113313D02*
X113913D01*
X114413D02*
X116313D01*
X116813D02*
X126613D01*
X81013Y29000D02*
X82613D01*
X90713D02*
X92513D01*
X113313D02*
X113913D01*
X114413D02*
X116313D01*
X116813D02*
X126613D01*
X81013Y28900D02*
X82513D01*
X90713D02*
X92513D01*
X113413D02*
X114013D01*
X114413D02*
X116313D01*
X116813D02*
X126513D01*
X81013Y28800D02*
X82513D01*
X90713D02*
X92513D01*
X113513D02*
X114013D01*
X114413D02*
X116313D01*
X116813D02*
X126413D01*
X81013Y28700D02*
X82513D01*
X90713D02*
X92413D01*
X113613D02*
X114013D01*
X114413D02*
X116313D01*
X116813D02*
X126313D01*
X81013Y28600D02*
X82513D01*
X90713D02*
X92413D01*
X113613D02*
X114013D01*
X114413D02*
X116313D01*
X116813D02*
X126313D01*
X81013Y28500D02*
X82513D01*
X90713D02*
X92413D01*
X113713D02*
X114013D01*
X114413D02*
X116313D01*
X116813D02*
X126213D01*
X81013Y28400D02*
X82513D01*
X90713D02*
X92413D01*
X114513D02*
X116313D01*
X116813D02*
X126113D01*
X81013Y28300D02*
X82513D01*
X90713D02*
X92413D01*
X114513D02*
X116313D01*
X116813D02*
X126013D01*
X81013Y28200D02*
X82513D01*
X90713D02*
X92413D01*
X114613D02*
X116313D01*
X116813D02*
X125913D01*
X81013Y28100D02*
X82513D01*
X90713D02*
X92413D01*
X114613D02*
X116313D01*
X116813D02*
X125913D01*
X81013Y28000D02*
X82513D01*
X90713D02*
X92413D01*
X114613D02*
X116313D01*
X116813D02*
X125813D01*
X81013Y27900D02*
X82513D01*
X90713D02*
X92413D01*
X114613D02*
X116313D01*
X116813D02*
X125713D01*
X81013Y27800D02*
X82513D01*
X90713D02*
X92413D01*
X114613D02*
X116313D01*
X116813D02*
X125713D01*
X81013Y27700D02*
X82513D01*
X90713D02*
X92413D01*
X114613D02*
X116313D01*
X116813D02*
X125613D01*
X81013Y27600D02*
X82513D01*
X90713D02*
X92413D01*
X114613D02*
X116313D01*
X116813D02*
X125413D01*
X80913Y27500D02*
X82513D01*
X90713D02*
X92413D01*
X114613D02*
X116313D01*
X116813D02*
X125413D01*
X80913Y27400D02*
X82513D01*
X90713D02*
X92413D01*
X114613D02*
X116313D01*
X116813D02*
X125313D01*
X81013Y27300D02*
X82513D01*
X90713D02*
X92413D01*
X114613D02*
X116313D01*
X116813D02*
X125213D01*
X81013Y27200D02*
X82513D01*
X90713D02*
X92413D01*
X114613D02*
X116313D01*
X116813D02*
X125213D01*
X81013Y27100D02*
X82513D01*
X90713D02*
X92413D01*
X114613D02*
X116313D01*
X116813D02*
X125113D01*
X81013Y27000D02*
X82513D01*
X90713D02*
X92413D01*
X114613D02*
X116313D01*
X116813D02*
X125013D01*
X81013Y26900D02*
X82513D01*
X90713D02*
X92313D01*
X114613D02*
X116313D01*
X116813D02*
X124913D01*
X81013Y26800D02*
X82513D01*
X90813D02*
X92313D01*
X114613D02*
X116313D01*
X117413D02*
X124913D01*
X81013Y26700D02*
X82513D01*
X90813D02*
X92313D01*
X114613D02*
X116313D01*
X118413D02*
X124713D01*
X81013Y26600D02*
X82513D01*
X90813D02*
X92313D01*
X114613D02*
X116313D01*
X119013D02*
X124713D01*
X81013Y26500D02*
X82513D01*
X90813D02*
X92313D01*
X114613D02*
X116313D01*
X119713D02*
X124613D01*
X81013Y26400D02*
X82513D01*
X90813D02*
X92313D01*
X114713D02*
X116313D01*
X120513D02*
X124513D01*
X81013Y26300D02*
X82513D01*
X90813D02*
X92313D01*
X114713D02*
X116313D01*
X121113D02*
X124413D01*
X80913Y26200D02*
X82513D01*
X90813D02*
X92313D01*
X114713D02*
X116313D01*
X122113D02*
X124313D01*
X80913Y26100D02*
X82513D01*
X90813D02*
X92313D01*
X114713D02*
X116313D01*
X122713D02*
X124213D01*
X80913Y26000D02*
X82513D01*
X90813D02*
X92313D01*
X114713D02*
X116413D01*
X123713D02*
X124113D01*
X81013Y25900D02*
X82513D01*
X90813D02*
X92413D01*
X114713D02*
X116413D01*
X81013Y25800D02*
X82513D01*
X90813D02*
X92413D01*
X114813D02*
X116413D01*
X81013Y25700D02*
X82513D01*
X90813D02*
X92313D01*
X114813D02*
X116413D01*
X81013Y25600D02*
X82513D01*
X90813D02*
X92313D01*
X114813D02*
X116413D01*
X81013Y25500D02*
X82513D01*
X90813D02*
X92313D01*
X114813D02*
X116413D01*
X81013Y25400D02*
X82413D01*
X90813D02*
X92313D01*
X114813D02*
X116413D01*
X81013Y25300D02*
X82413D01*
X90813D02*
X92313D01*
X114813D02*
X116413D01*
X81013Y25200D02*
X82413D01*
X90813D02*
X92313D01*
X114813D02*
X116413D01*
X81013Y25100D02*
X82413D01*
X90813D02*
X92313D01*
X114813D02*
X116413D01*
X81013Y25000D02*
X82413D01*
X90813D02*
X92313D01*
X114813D02*
X116413D01*
X81013Y24900D02*
X82413D01*
X90813D02*
X92313D01*
X114813D02*
X116413D01*
X80913Y24800D02*
X82413D01*
X90813D02*
X92313D01*
X114813D02*
X116413D01*
X80913Y24700D02*
X82413D01*
X90813D02*
X92313D01*
X114813D02*
X116413D01*
X81013Y24600D02*
X82413D01*
X90813D02*
X92313D01*
X114813D02*
X116413D01*
X81013Y24500D02*
X82413D01*
X90813D02*
X92313D01*
X114813D02*
X116413D01*
X81013Y24400D02*
X82413D01*
X90813D02*
X92313D01*
X114813D02*
X116413D01*
X81013Y24300D02*
X82413D01*
X90813D02*
X92313D01*
X114913D02*
X116413D01*
X81013Y24200D02*
X82413D01*
X90813D02*
X92313D01*
X114913D02*
X116413D01*
X81013Y24100D02*
X82413D01*
X90813D02*
X92313D01*
X114913D02*
X116413D01*
X81013Y24000D02*
X82413D01*
X90813D02*
X92313D01*
X114913D02*
X116413D01*
X81013Y23900D02*
X82413D01*
X90813D02*
X92313D01*
X114913D02*
X116413D01*
X81013Y23800D02*
X82313D01*
X90813D02*
X92313D01*
X114913D02*
X116413D01*
X81013Y23700D02*
X82313D01*
X90813D02*
X92313D01*
X114913D02*
X116413D01*
X81013Y23600D02*
X82313D01*
X90813D02*
X92313D01*
X115013D02*
X116413D01*
X81013Y23500D02*
X82313D01*
X90813D02*
X92313D01*
X115013D02*
X116413D01*
X81013Y23400D02*
X82313D01*
X90813D02*
X92313D01*
X115013D02*
X116413D01*
X81013Y23300D02*
X82313D01*
X90813D02*
X92313D01*
X115013D02*
X116413D01*
X81013Y23200D02*
X82313D01*
X90913D02*
X92313D01*
X115013D02*
X116413D01*
X81013Y23100D02*
X82313D01*
X90813D02*
X92213D01*
X115013D02*
X116413D01*
X81013Y23000D02*
X82313D01*
X90813D02*
X92213D01*
X115113D02*
X116513D01*
X80913Y22900D02*
X82313D01*
X90813D02*
X92213D01*
X115113D02*
X116513D01*
X80913Y22800D02*
X82313D01*
X90813D02*
X92213D01*
X115013D02*
X116513D01*
X80913Y22700D02*
X82313D01*
X90813D02*
X92213D01*
X115013D02*
X116513D01*
X80913Y22600D02*
X82313D01*
X90813D02*
X92213D01*
X115013D02*
X116513D01*
X80913Y22500D02*
X82213D01*
X90813D02*
X92213D01*
X115113D02*
X116513D01*
X80913Y22400D02*
X82213D01*
X90813D02*
X92213D01*
X115113D02*
X116513D01*
X80913Y22300D02*
X82213D01*
X90813D02*
X92213D01*
X115113D02*
X116513D01*
X80913Y22200D02*
X82213D01*
X90813D02*
X92213D01*
X115113D02*
X116513D01*
X80913Y22100D02*
X82213D01*
X90813D02*
X92213D01*
X115113D02*
X116513D01*
X80913Y22000D02*
X82213D01*
X90813D02*
X92213D01*
X115113D02*
X116513D01*
X80813Y21900D02*
X82113D01*
X90813D02*
X92213D01*
X115113D02*
X116513D01*
X80713Y21800D02*
X82013D01*
X90813D02*
X92213D01*
X115113D02*
X116513D01*
X80713Y21700D02*
X81913D01*
X90813D02*
X92213D01*
X115113D02*
X116513D01*
X80613Y21600D02*
X81813D01*
X90813D02*
X92213D01*
X115113D02*
X116513D01*
X80613Y21500D02*
X81713D01*
X90913D02*
X92213D01*
X115113D02*
X116513D01*
X80513Y21400D02*
X81613D01*
X90913D02*
X92113D01*
X115113D02*
X116513D01*
X80513Y21300D02*
X81513D01*
X90913D02*
X92113D01*
X115213D02*
X116613D01*
X80413Y21200D02*
X81413D01*
X90913D02*
X92113D01*
X115213D02*
X116613D01*
X80413Y21100D02*
X81413D01*
X91013D02*
X92113D01*
X115213D02*
X116613D01*
X80313Y21000D02*
X81313D01*
X91013D02*
X92113D01*
X115313D02*
X116613D01*
X80213Y20900D02*
X81213D01*
X91013D02*
X92113D01*
X115313D02*
X116613D01*
X80113Y20800D02*
X81113D01*
X91013D02*
X92113D01*
X115313D02*
X116613D01*
X80113Y20700D02*
X81013D01*
X91013D02*
X92113D01*
X115313D02*
X116613D01*
X80013Y20600D02*
X80913D01*
X91013D02*
X92113D01*
X115313D02*
X116613D01*
X80013Y20500D02*
X80813D01*
X91013D02*
X92113D01*
X115313D02*
X116613D01*
X79913Y20400D02*
X80713D01*
X91013D02*
X92113D01*
X115313D02*
X116613D01*
X79813Y20300D02*
X80613D01*
X91013D02*
X92113D01*
X115313D02*
X116613D01*
X79813Y20200D02*
X80513D01*
X91013D02*
X92113D01*
X115313D02*
X116613D01*
X79713Y20100D02*
X80413D01*
X91013D02*
X92113D01*
X115313D02*
X116613D01*
X79613Y20000D02*
X80313D01*
X91013D02*
X92113D01*
X115313D02*
X116613D01*
X79613Y19900D02*
X80213D01*
X91013D02*
X92113D01*
X115313D02*
X116613D01*
X79513Y19800D02*
X80213D01*
X91013D02*
X92113D01*
X115313D02*
X116613D01*
X79413Y19700D02*
X80113D01*
X91013D02*
X92113D01*
X115313D02*
X116713D01*
X79413Y19600D02*
X80013D01*
X91013D02*
X92113D01*
X115313D02*
X116713D01*
X79313Y19500D02*
X79913D01*
X91013D02*
X92113D01*
X115413D02*
X116813D01*
X79213Y19400D02*
X79813D01*
X91013D02*
X92113D01*
X115413D02*
X116813D01*
X79213Y19300D02*
X79713D01*
X91013D02*
X92113D01*
X115513D02*
X116813D01*
X79113Y19200D02*
X79613D01*
X91013D02*
X92113D01*
X115613D02*
X116913D01*
X79013Y19100D02*
X79513D01*
X91013D02*
X92113D01*
X115613D02*
X116913D01*
X79013Y19000D02*
X79413D01*
X91013D02*
X92113D01*
X115713D02*
X117013D01*
X79013Y18900D02*
X79313D01*
X91013D02*
X92113D01*
X115813D02*
X117013D01*
X79013Y18800D02*
X79213D01*
X91013D02*
X92113D01*
X115813D02*
X117113D01*
X91013Y18700D02*
X92113D01*
X115913D02*
X117113D01*
X91013Y18600D02*
X92113D01*
X116013D02*
X117213D01*
X91013Y18500D02*
X92013D01*
X116013D02*
X117213D01*
X91013Y18400D02*
X92013D01*
X116113D02*
X117313D01*
X90913Y18300D02*
X91913D01*
X116213D02*
X117313D01*
X90913Y18200D02*
X91913D01*
X116313D02*
X117413D01*
X90913Y18100D02*
X91813D01*
X116313D02*
X117413D01*
X90913Y18000D02*
X91813D01*
X116413D02*
X117513D01*
X90813Y17900D02*
X91713D01*
X116513D02*
X117513D01*
X90813Y17800D02*
X91613D01*
X116513D02*
X117613D01*
X90813Y17700D02*
X91613D01*
X116613D02*
X117613D01*
X90713Y17600D02*
X91513D01*
X116713D02*
X117613D01*
X90713Y17500D02*
X91513D01*
X116713D02*
X117713D01*
X90713Y17400D02*
X91413D01*
X116813D02*
X117713D01*
X90713Y17300D02*
X91413D01*
X116913D02*
X117813D01*
X90713Y17200D02*
X91313D01*
X116913D02*
X117813D01*
X90613Y17100D02*
X91313D01*
X117013D02*
X117913D01*
X90613Y17000D02*
X91213D01*
X117113D02*
X117913D01*
X90613Y16900D02*
X91213D01*
X117213D02*
X117913D01*
X90613Y16800D02*
X91113D01*
X117213D02*
X118013D01*
X90613Y16700D02*
X91113D01*
X117313D02*
X118013D01*
X90513Y16600D02*
X91013D01*
X117413D02*
X118113D01*
X90513Y16500D02*
X91013D01*
X117513D02*
X118113D01*
X90413Y16400D02*
X91013D01*
X117513D02*
X118213D01*
X90413Y16300D02*
X90913D01*
X117513D02*
X118213D01*
X90413Y16200D02*
X90913D01*
X117713D02*
X118313D01*
X90413Y16100D02*
X90813D01*
X117713D02*
X118313D01*
X90413Y16000D02*
X90813D01*
X117813D02*
X118413D01*
X90313Y15900D02*
X90713D01*
X117813D02*
X118413D01*
X90313Y15800D02*
X90613D01*
X117913D02*
X118513D01*
X90313Y15700D02*
X90613D01*
X118013D02*
X118513D01*
X90313Y15600D02*
X90613D01*
X118013D02*
X118513D01*
X90313Y15500D02*
X90513D01*
X118113D02*
X118613D01*
X90313Y15400D02*
X90513D01*
X118213D02*
X118613D01*
X118213Y15300D02*
X118613D01*
X63513Y12300D02*
X67113D01*
X69713D02*
X71413D01*
X74013D02*
X79613D01*
X82013D02*
X85713D01*
X91113D02*
X94813D01*
X99113D02*
X100813D01*
X105113D02*
X107913D01*
X111413D02*
X113113D01*
X115713D02*
X121313D01*
X122113D02*
X123113D01*
X125613D02*
X129213D01*
X131613D02*
X135313D01*
X63213Y12200D02*
X67113D01*
X69313D02*
X71713D01*
X74013D02*
X79613D01*
X81613D02*
X85713D01*
X91113D02*
X95213D01*
X98813D02*
X101113D01*
X104713D02*
X107913D01*
X111113D02*
X113513D01*
X115713D02*
X121313D01*
X122113D02*
X123113D01*
X125313D02*
X129213D01*
X131313D02*
X135313D01*
X62913Y12100D02*
X67113D01*
X69113D02*
X72013D01*
X74013D02*
X79613D01*
X81413D02*
X85713D01*
X91113D02*
X95513D01*
X98513D02*
X101413D01*
X104413D02*
X107913D01*
X110813D02*
X113713D01*
X115713D02*
X121313D01*
X122113D02*
X123113D01*
X125113D02*
X129213D01*
X131013D02*
X135313D01*
X62813Y12000D02*
X67113D01*
X68913D02*
X72213D01*
X74013D02*
X79613D01*
X81213D02*
X85713D01*
X91113D02*
X95713D01*
X98313D02*
X101613D01*
X104213D02*
X107913D01*
X110613D02*
X113913D01*
X115713D02*
X121313D01*
X122113D02*
X123113D01*
X124913D02*
X129213D01*
X130813D02*
X135313D01*
X62613Y11900D02*
X67113D01*
X68813D02*
X72313D01*
X74013D02*
X79613D01*
X81013D02*
X85713D01*
X91113D02*
X95813D01*
X98213D02*
X101713D01*
X104113D02*
X107913D01*
X110513D02*
X114013D01*
X115713D02*
X121313D01*
X122113D02*
X123113D01*
X124713D02*
X129213D01*
X130613D02*
X135313D01*
X62513Y11800D02*
X67113D01*
X68613D02*
X72513D01*
X74013D02*
X79613D01*
X80913D02*
X85713D01*
X91113D02*
X96013D01*
X98013D02*
X101913D01*
X103913D02*
X107913D01*
X110413D02*
X114213D01*
X115713D02*
X121313D01*
X122113D02*
X123113D01*
X124613D02*
X129213D01*
X130513D02*
X135313D01*
X62413Y11700D02*
X67113D01*
X68513D02*
X72613D01*
X74013D02*
X79613D01*
X80813D02*
X85713D01*
X91113D02*
X96113D01*
X97913D02*
X102013D01*
X103813D02*
X107913D01*
X110213D02*
X114313D01*
X115713D02*
X121313D01*
X122113D02*
X123113D01*
X124513D02*
X129213D01*
X130413D02*
X135313D01*
X62313Y11600D02*
X67113D01*
X68413D02*
X72713D01*
X74013D02*
X79613D01*
X80713D02*
X85713D01*
X91113D02*
X96213D01*
X97813D02*
X102113D01*
X103713D02*
X107913D01*
X110213D02*
X114413D01*
X115713D02*
X121313D01*
X122113D02*
X123113D01*
X124413D02*
X129213D01*
X130313D02*
X135313D01*
X62213Y11500D02*
X67113D01*
X68313D02*
X72713D01*
X74013D02*
X79613D01*
X80613D02*
X85713D01*
X91113D02*
X96213D01*
X97813D02*
X102113D01*
X103713D02*
X107913D01*
X110113D02*
X114513D01*
X115713D02*
X121313D01*
X122113D02*
X123113D01*
X124313D02*
X129213D01*
X130213D02*
X135313D01*
X62113Y11400D02*
X67113D01*
X68313D02*
X72813D01*
X74013D02*
X79613D01*
X80513D02*
X85713D01*
X91113D02*
X96313D01*
X97713D02*
X102213D01*
X103613D02*
X107913D01*
X110013D02*
X114513D01*
X115713D02*
X121313D01*
X122113D02*
X123113D01*
X124313D02*
X129213D01*
X130213D02*
X135313D01*
X62113Y11300D02*
X63913D01*
X66113D02*
X67113D01*
X68213D02*
X70013D01*
X71113D02*
X72913D01*
X76213D02*
X77213D01*
X80513D02*
X82313D01*
X94513D02*
X96413D01*
X97613D02*
X99413D01*
X100513D02*
X102313D01*
X103513D02*
X105413D01*
X109913D02*
X111813D01*
X112813D02*
X114613D01*
X117913D02*
X118913D01*
X122113D02*
X123113D01*
X124213D02*
X126013D01*
X130113D02*
X132013D01*
X62013Y11200D02*
X63513D01*
X66113D02*
X67113D01*
X68213D02*
X69713D01*
X71413D02*
X72913D01*
X76213D02*
X77213D01*
X80413D02*
X81913D01*
X94913D02*
X96413D01*
X97613D02*
X99113D01*
X100813D02*
X102313D01*
X103513D02*
X105013D01*
X109913D02*
X111413D01*
X113113D02*
X114713D01*
X117913D02*
X118913D01*
X122113D02*
X123113D01*
X124113D02*
X125713D01*
X130113D02*
X131513D01*
X61913Y11100D02*
X63313D01*
X66113D02*
X67113D01*
X68113D02*
X69513D01*
X71613D02*
X73013D01*
X76213D02*
X77213D01*
X80413D02*
X81713D01*
X95113D02*
X96413D01*
X97513D02*
X98913D01*
X101013D02*
X102413D01*
X103513D02*
X104813D01*
X109813D02*
X111213D01*
X113313D02*
X114713D01*
X117913D02*
X118913D01*
X122113D02*
X123113D01*
X124113D02*
X125513D01*
X130013D02*
X131313D01*
X61913Y11000D02*
X63213D01*
X66113D02*
X67113D01*
X68113D02*
X69413D01*
X71713D02*
X73013D01*
X76213D02*
X77213D01*
X80413D02*
X81513D01*
X95313D02*
X96513D01*
X97513D02*
X98813D01*
X101113D02*
X102413D01*
X103513D02*
X104613D01*
X109813D02*
X111113D01*
X113513D02*
X114713D01*
X117913D02*
X118913D01*
X122113D02*
X123113D01*
X124013D02*
X125313D01*
X130013D02*
X131213D01*
X61913Y10900D02*
X63113D01*
X66113D02*
X67113D01*
X68013D02*
X69213D01*
X71813D02*
X73113D01*
X76213D02*
X77213D01*
X80413D02*
X81513D01*
X95413D02*
X96513D01*
X97413D02*
X98613D01*
X101213D02*
X102513D01*
X103413D02*
X104513D01*
X109713D02*
X111013D01*
X113613D02*
X114813D01*
X117913D02*
X118913D01*
X122113D02*
X123113D01*
X124013D02*
X125213D01*
X130013D02*
X131113D01*
X61813Y10800D02*
X63013D01*
X66113D02*
X67113D01*
X68013D02*
X69213D01*
X71913D02*
X73113D01*
X76213D02*
X77213D01*
X80413D02*
X81413D01*
X95413D02*
X96513D01*
X97413D02*
X98613D01*
X101313D02*
X102513D01*
X103413D02*
X104513D01*
X109713D02*
X110913D01*
X113713D02*
X114813D01*
X117913D02*
X118913D01*
X122113D02*
X123113D01*
X124013D02*
X125113D01*
X130013D02*
X131013D01*
X61813Y10700D02*
X62913D01*
X66113D02*
X67113D01*
X68013D02*
X69113D01*
X72013D02*
X73113D01*
X76213D02*
X77213D01*
X80313D02*
X81413D01*
X95513D02*
X96513D01*
X97413D02*
X98513D01*
X101413D02*
X102513D01*
X103413D02*
X104413D01*
X109713D02*
X110813D01*
X113713D02*
X114913D01*
X117913D02*
X118913D01*
X122113D02*
X123113D01*
X123913D02*
X125113D01*
X130013D02*
X131013D01*
X61813Y10600D02*
X62913D01*
X66113D02*
X67113D01*
X67913D02*
X69013D01*
X72013D02*
X73213D01*
X76213D02*
X77213D01*
X80313D02*
X83713D01*
X95513D02*
X96513D01*
X97313D02*
X98413D01*
X101513D02*
X102613D01*
X103413D02*
X104413D01*
X105213D02*
X106713D01*
X109713D02*
X110813D01*
X113813D02*
X114913D01*
X117913D02*
X118913D01*
X122113D02*
X123113D01*
X123913D02*
X125013D01*
X130013D02*
X133313D01*
X61813Y10500D02*
X62813D01*
X66113D02*
X67113D01*
X67913D02*
X69013D01*
X72113D02*
X73213D01*
X76213D02*
X77213D01*
X80313D02*
X84313D01*
X95513D02*
X96513D01*
X97313D02*
X98413D01*
X101513D02*
X102613D01*
X103413D02*
X104413D01*
X105213D02*
X107313D01*
X109613D02*
X110713D01*
X113813D02*
X114913D01*
X117913D02*
X118913D01*
X122113D02*
X123113D01*
X123913D02*
X125013D01*
X130013D02*
X133913D01*
X61813Y10400D02*
X62813D01*
X66113D02*
X67113D01*
X67913D02*
X69013D01*
X72113D02*
X73213D01*
X76213D02*
X77213D01*
X80313D02*
X84613D01*
X95513D02*
X96513D01*
X97313D02*
X98413D01*
X101513D02*
X102613D01*
X103413D02*
X104413D01*
X105213D02*
X107713D01*
X109613D02*
X110713D01*
X113913D02*
X114913D01*
X117913D02*
X118913D01*
X122113D02*
X123113D01*
X123913D02*
X124913D01*
X130013D02*
X134213D01*
X61813Y10300D02*
X62813D01*
X66113D02*
X67113D01*
X67913D02*
X68913D01*
X72213D02*
X73213D01*
X76213D02*
X77213D01*
X80313D02*
X84813D01*
X95413D02*
X96513D01*
X97313D02*
X98313D01*
X101613D02*
X102613D01*
X103413D02*
X104413D01*
X105213D02*
X107913D01*
X109613D02*
X110713D01*
X113913D02*
X114913D01*
X117913D02*
X118913D01*
X122113D02*
X123113D01*
X123913D02*
X124913D01*
X130013D02*
X134513D01*
X61813Y10200D02*
X62713D01*
X66113D02*
X67113D01*
X67913D02*
X68913D01*
X72213D02*
X73213D01*
X76213D02*
X77213D01*
X80313D02*
X85013D01*
X95413D02*
X96513D01*
X97313D02*
X98313D01*
X101613D02*
X102613D01*
X103413D02*
X104413D01*
X105213D02*
X108113D01*
X109613D02*
X110613D01*
X113913D02*
X114913D01*
X117913D02*
X118913D01*
X122113D02*
X123113D01*
X123813D02*
X124913D01*
X130013D02*
X134613D01*
X61813Y10100D02*
X62713D01*
X66113D02*
X67113D01*
X67913D02*
X68913D01*
X72213D02*
X73213D01*
X76213D02*
X77213D01*
X80313D02*
X85213D01*
X95313D02*
X96413D01*
X97313D02*
X98313D01*
X101613D02*
X102613D01*
X103413D02*
X104413D01*
X105213D02*
X108213D01*
X109613D02*
X110613D01*
X113913D02*
X115013D01*
X117913D02*
X118913D01*
X122113D02*
X123113D01*
X123813D02*
X124913D01*
X130013D02*
X134813D01*
X61813Y10000D02*
X62713D01*
X66113D02*
X67113D01*
X67913D02*
X68913D01*
X72213D02*
X73213D01*
X76213D02*
X77213D01*
X80313D02*
X85313D01*
X95113D02*
X96413D01*
X97313D02*
X98313D01*
X101613D02*
X102613D01*
X103413D02*
X104413D01*
X105213D02*
X108313D01*
X109613D02*
X110613D01*
X113913D02*
X115013D01*
X117913D02*
X118913D01*
X122113D02*
X123113D01*
X123813D02*
X124813D01*
X130013D02*
X134913D01*
X61813Y9900D02*
X62713D01*
X66113D02*
X67113D01*
X67913D02*
X68913D01*
X72213D02*
X73213D01*
X76213D02*
X77213D01*
X80313D02*
X85413D01*
X94913D02*
X96413D01*
X97313D02*
X98313D01*
X101613D02*
X102613D01*
X103413D02*
X104413D01*
X105213D02*
X108413D01*
X109613D02*
X110613D01*
X113913D02*
X115013D01*
X117913D02*
X118913D01*
X122113D02*
X123113D01*
X123813D02*
X124813D01*
X130013D02*
X135013D01*
X61813Y9800D02*
X62713D01*
X66113D02*
X67113D01*
X67813D02*
X68913D01*
X72213D02*
X73213D01*
X76213D02*
X77213D01*
X80313D02*
X85513D01*
X94313D02*
X96313D01*
X97313D02*
X98313D01*
X101613D02*
X102613D01*
X103413D02*
X104413D01*
X105213D02*
X108513D01*
X109613D02*
X110613D01*
X113913D02*
X115013D01*
X117913D02*
X118913D01*
X122113D02*
X123113D01*
X123813D02*
X124813D01*
X130013D02*
X135113D01*
X61813Y9700D02*
X62713D01*
X66113D02*
X67113D01*
X67813D02*
X68913D01*
X72213D02*
X73213D01*
X76213D02*
X77213D01*
X80313D02*
X85513D01*
X91113D02*
X96313D01*
X97313D02*
X98313D01*
X101613D02*
X102613D01*
X103413D02*
X104413D01*
X105213D02*
X108613D01*
X109613D02*
X110613D01*
X113913D02*
X115013D01*
X117913D02*
X118913D01*
X122113D02*
X123113D01*
X123813D02*
X124813D01*
X130013D02*
X135213D01*
X61813Y9600D02*
X62713D01*
X66113D02*
X67113D01*
X67813D02*
X68913D01*
X72213D02*
X73313D01*
X76213D02*
X77213D01*
X80413D02*
X85613D01*
X91113D02*
X96213D01*
X97313D02*
X98313D01*
X101613D02*
X102613D01*
X103413D02*
X104413D01*
X105213D02*
X108613D01*
X109613D02*
X110613D01*
X113913D02*
X115013D01*
X117913D02*
X118913D01*
X122113D02*
X123113D01*
X123813D02*
X124813D01*
X130013D02*
X135213D01*
X61813Y9500D02*
X62713D01*
X66113D02*
X67113D01*
X67813D02*
X68913D01*
X72213D02*
X73313D01*
X76213D02*
X77213D01*
X84013D02*
X85613D01*
X91113D02*
X96113D01*
X97313D02*
X98313D01*
X101613D02*
X102613D01*
X103413D02*
X104413D01*
X107113D02*
X108713D01*
X109613D02*
X110613D01*
X113913D02*
X115013D01*
X117913D02*
X118913D01*
X122113D02*
X123113D01*
X123813D02*
X124813D01*
X133613D02*
X135313D01*
X61813Y9400D02*
X62713D01*
X66113D02*
X67113D01*
X67813D02*
X68913D01*
X72213D02*
X73313D01*
X76213D02*
X77213D01*
X84313D02*
X85713D01*
X91113D02*
X96013D01*
X97313D02*
X98313D01*
X101613D02*
X102613D01*
X103413D02*
X104413D01*
X107413D02*
X108713D01*
X109613D02*
X110613D01*
X113913D02*
X115013D01*
X117913D02*
X118913D01*
X122113D02*
X123113D01*
X123813D02*
X124813D01*
X133913D02*
X135313D01*
X61813Y9300D02*
X62713D01*
X66113D02*
X67113D01*
X67813D02*
X68913D01*
X72213D02*
X73313D01*
X76213D02*
X77213D01*
X84513D02*
X85713D01*
X91113D02*
X95913D01*
X97313D02*
X98313D01*
X101613D02*
X102613D01*
X103413D02*
X104413D01*
X107513D02*
X108713D01*
X109613D02*
X110613D01*
X113913D02*
X115013D01*
X117913D02*
X118913D01*
X122113D02*
X123113D01*
X123813D02*
X124913D01*
X134113D02*
X135313D01*
X61813Y9200D02*
X62713D01*
X66113D02*
X67113D01*
X67813D02*
X68913D01*
X72213D02*
X73313D01*
X76213D02*
X77213D01*
X84613D02*
X85713D01*
X91113D02*
X95913D01*
X97313D02*
X98313D01*
X101613D02*
X102613D01*
X103413D02*
X104413D01*
X107713D02*
X108813D01*
X109613D02*
X110613D01*
X113913D02*
X114913D01*
X117913D02*
X118913D01*
X122113D02*
X123113D01*
X123813D02*
X124913D01*
X134213D02*
X135313D01*
X61813Y9100D02*
X62813D01*
X66113D02*
X67113D01*
X67813D02*
X68913D01*
X72213D02*
X73313D01*
X76213D02*
X77213D01*
X84713D02*
X85713D01*
X91113D02*
X96113D01*
X97313D02*
X98313D01*
X101613D02*
X102613D01*
X103413D02*
X104413D01*
X107713D02*
X108813D01*
X109613D02*
X110613D01*
X113913D02*
X114913D01*
X117913D02*
X118913D01*
X122113D02*
X123113D01*
X123813D02*
X124913D01*
X134313D02*
X135313D01*
X61813Y9000D02*
X62813D01*
X66113D02*
X67113D01*
X67813D02*
X68913D01*
X72213D02*
X73313D01*
X76213D02*
X77213D01*
X84713D02*
X85713D01*
X91113D02*
X96113D01*
X97313D02*
X98413D01*
X101513D02*
X102613D01*
X103413D02*
X104413D01*
X107813D02*
X108813D01*
X109613D02*
X110713D01*
X113913D02*
X114913D01*
X117913D02*
X118913D01*
X122113D02*
X123113D01*
X123913D02*
X124913D01*
X134313D02*
X135313D01*
X61813Y8900D02*
X62813D01*
X66113D02*
X67113D01*
X67813D02*
X68913D01*
X72213D02*
X73313D01*
X76213D02*
X77213D01*
X84713D02*
X85713D01*
X91113D02*
X96213D01*
X97313D02*
X98413D01*
X101513D02*
X102613D01*
X103413D02*
X104413D01*
X107813D02*
X108813D01*
X109613D02*
X110713D01*
X113813D02*
X114913D01*
X117913D02*
X118913D01*
X122113D02*
X123113D01*
X123913D02*
X125013D01*
X134413D02*
X135313D01*
X61813Y8800D02*
X62913D01*
X66113D02*
X67113D01*
X67813D02*
X68913D01*
X72213D02*
X73313D01*
X76213D02*
X77213D01*
X84713D02*
X85713D01*
X91113D02*
X96313D01*
X97313D02*
X98413D01*
X101513D02*
X102613D01*
X103413D02*
X104413D01*
X107813D02*
X108813D01*
X109613D02*
X110713D01*
X113813D02*
X114913D01*
X117913D02*
X118913D01*
X122113D02*
X123113D01*
X123913D02*
X125013D01*
X134413D02*
X135313D01*
X61813Y8700D02*
X62913D01*
X66113D02*
X67113D01*
X67813D02*
X68913D01*
X72213D02*
X73313D01*
X76213D02*
X77213D01*
X84713D02*
X85713D01*
X94413D02*
X96313D01*
X97413D02*
X98513D01*
X101413D02*
X102513D01*
X103413D02*
X104413D01*
X107813D02*
X108813D01*
X109713D02*
X110813D01*
X113713D02*
X114913D01*
X117913D02*
X118913D01*
X122113D02*
X123113D01*
X123913D02*
X125013D01*
X134413D02*
X135313D01*
X61813Y8600D02*
X63013D01*
X66113D02*
X67113D01*
X67813D02*
X68913D01*
X72213D02*
X73313D01*
X76213D02*
X77213D01*
X84713D02*
X85713D01*
X94913D02*
X96413D01*
X97413D02*
X98513D01*
X101413D02*
X102513D01*
X103413D02*
X104413D01*
X107813D02*
X108813D01*
X109713D02*
X110913D01*
X113713D02*
X114813D01*
X117913D02*
X118913D01*
X122113D02*
X123113D01*
X124013D02*
X125113D01*
X134313D02*
X135313D01*
X61813Y8500D02*
X63013D01*
X66113D02*
X67113D01*
X67813D02*
X68913D01*
X72213D02*
X73313D01*
X76213D02*
X77213D01*
X84713D02*
X85713D01*
X95113D02*
X96413D01*
X97413D02*
X98613D01*
X101313D02*
X102513D01*
X103413D02*
X104413D01*
X107713D02*
X108813D01*
X109713D02*
X110913D01*
X113613D02*
X114813D01*
X117913D02*
X118913D01*
X122113D02*
X123113D01*
X124013D02*
X125213D01*
X134313D02*
X135313D01*
X61913Y8400D02*
X63113D01*
X66113D02*
X67113D01*
X67813D02*
X68913D01*
X72213D02*
X73313D01*
X76213D02*
X77213D01*
X84613D02*
X85713D01*
X95313D02*
X96413D01*
X97413D02*
X98713D01*
X101213D02*
X102413D01*
X103413D02*
X104413D01*
X107613D02*
X108813D01*
X109813D02*
X111013D01*
X113513D02*
X114813D01*
X117913D02*
X118913D01*
X122113D02*
X123113D01*
X124013D02*
X125313D01*
X134213D02*
X135313D01*
X61913Y8300D02*
X63313D01*
X66113D02*
X67113D01*
X67813D02*
X68913D01*
X72213D02*
X73313D01*
X76213D02*
X77213D01*
X84513D02*
X85713D01*
X95413D02*
X96513D01*
X97513D02*
X98813D01*
X101113D02*
X102413D01*
X103413D02*
X104413D01*
X107513D02*
X108713D01*
X109813D02*
X111213D01*
X113413D02*
X114713D01*
X117913D02*
X118913D01*
X122113D02*
X123113D01*
X124113D02*
X125413D01*
X134113D02*
X135313D01*
X62013Y8200D02*
X63413D01*
X66113D02*
X67113D01*
X67813D02*
X68913D01*
X72213D02*
X73313D01*
X76213D02*
X77213D01*
X84313D02*
X85713D01*
X95413D02*
X96513D01*
X97513D02*
X99013D01*
X100913D02*
X102413D01*
X103413D02*
X104413D01*
X107313D02*
X108713D01*
X109913D02*
X111313D01*
X113213D02*
X114713D01*
X117913D02*
X118913D01*
X122113D02*
X123113D01*
X124113D02*
X125613D01*
X133913D02*
X135313D01*
X62013Y8100D02*
X63713D01*
X66113D02*
X67113D01*
X67813D02*
X68913D01*
X72213D02*
X73313D01*
X76213D02*
X77213D01*
X84013D02*
X85613D01*
X95513D02*
X96513D01*
X97613D02*
X99313D01*
X100613D02*
X102313D01*
X103413D02*
X104413D01*
X107013D02*
X108713D01*
X109913D02*
X111613D01*
X112913D02*
X114613D01*
X117913D02*
X118913D01*
X122113D02*
X123113D01*
X124213D02*
X125813D01*
X133613D02*
X135313D01*
X62113Y8000D02*
X65313D01*
X66113D02*
X67113D01*
X67813D02*
X68913D01*
X72213D02*
X73313D01*
X76213D02*
X77213D01*
X80413D02*
X85613D01*
X95513D02*
X96513D01*
X97713D02*
X102213D01*
X103413D02*
X108613D01*
X110013D02*
X114613D01*
X117913D02*
X118913D01*
X122113D02*
X123113D01*
X124213D02*
X129213D01*
X130013D02*
X135213D01*
X62213Y7900D02*
X65313D01*
X66113D02*
X67113D01*
X67813D02*
X68913D01*
X72213D02*
X73313D01*
X76213D02*
X77213D01*
X80313D02*
X85513D01*
X95513D02*
X96513D01*
X97713D02*
X102213D01*
X103413D02*
X108613D01*
X110013D02*
X114513D01*
X117913D02*
X118913D01*
X122113D02*
X123113D01*
X124313D02*
X129213D01*
X130013D02*
X135113D01*
X62213Y7800D02*
X65313D01*
X66113D02*
X67113D01*
X67813D02*
X68913D01*
X72213D02*
X73313D01*
X76213D02*
X77213D01*
X80313D02*
X85413D01*
X95513D02*
X96513D01*
X97813D02*
X102113D01*
X103413D02*
X108513D01*
X110113D02*
X114413D01*
X117913D02*
X118913D01*
X122113D02*
X123113D01*
X124413D02*
X129213D01*
X130013D02*
X135113D01*
X62313Y7700D02*
X65313D01*
X66113D02*
X67113D01*
X67813D02*
X68913D01*
X72213D02*
X73313D01*
X76213D02*
X77213D01*
X80313D02*
X85413D01*
X95513D02*
X96513D01*
X97913D02*
X102013D01*
X103413D02*
X108413D01*
X110213D02*
X114313D01*
X117913D02*
X118913D01*
X122113D02*
X123113D01*
X124513D02*
X129213D01*
X130013D02*
X135013D01*
X62413Y7600D02*
X65313D01*
X66113D02*
X67113D01*
X67813D02*
X68913D01*
X72213D02*
X73313D01*
X76213D02*
X77213D01*
X80313D02*
X85313D01*
X95513D02*
X96513D01*
X98013D02*
X101913D01*
X103413D02*
X108313D01*
X110313D02*
X114213D01*
X117913D02*
X118913D01*
X122113D02*
X123113D01*
X124613D02*
X129213D01*
X130013D02*
X134913D01*
X62613Y7500D02*
X65313D01*
X66113D02*
X67113D01*
X67813D02*
X68913D01*
X72213D02*
X73313D01*
X76213D02*
X77213D01*
X80313D02*
X85113D01*
X95513D02*
X96513D01*
X98113D02*
X101813D01*
X103413D02*
X108213D01*
X110413D02*
X114113D01*
X117913D02*
X118913D01*
X122113D02*
X123113D01*
X124713D02*
X129213D01*
X130013D02*
X134813D01*
X62713Y7400D02*
X65313D01*
X66113D02*
X67113D01*
X67813D02*
X68913D01*
X72213D02*
X73313D01*
X76213D02*
X77213D01*
X80313D02*
X85013D01*
X95513D02*
X96513D01*
X98313D02*
X101613D01*
X103413D02*
X108113D01*
X110613D02*
X114013D01*
X117913D02*
X118913D01*
X122113D02*
X123113D01*
X124813D02*
X129213D01*
X130013D02*
X134613D01*
X62913Y7300D02*
X65313D01*
X66113D02*
X67113D01*
X67813D02*
X68913D01*
X72213D02*
X73313D01*
X76213D02*
X77213D01*
X80313D02*
X84813D01*
X95513D02*
X96513D01*
X98413D02*
X101513D01*
X103413D02*
X107913D01*
X110713D02*
X113813D01*
X117913D02*
X118913D01*
X122113D02*
X123113D01*
X125013D02*
X129213D01*
X130013D02*
X134513D01*
X63113Y7200D02*
X65313D01*
X66113D02*
X67113D01*
X67813D02*
X68913D01*
X72213D02*
X73313D01*
X76213D02*
X77213D01*
X80313D02*
X84613D01*
X95513D02*
X96513D01*
X98613D02*
X101313D01*
X103413D02*
X107613D01*
X111013D02*
X113613D01*
X117913D02*
X118913D01*
X122113D02*
X123113D01*
X125213D02*
X129213D01*
X130013D02*
X134213D01*
X63413Y7100D02*
X65313D01*
X66113D02*
X67113D01*
X67813D02*
X68913D01*
X72213D02*
X73313D01*
X76213D02*
X77213D01*
X80313D02*
X84213D01*
X95513D02*
X96513D01*
X98913D02*
X101013D01*
X103413D02*
X107313D01*
X111313D02*
X113313D01*
X117913D02*
X118913D01*
X122113D02*
X123113D01*
X125513D02*
X129213D01*
X130013D02*
X133913D01*
D22*
X116142Y90669D02*
D03*
D23*
X104331D02*
D03*
X92520D02*
D03*
X80709D02*
D03*
X116142Y102480D02*
D03*
X104331D02*
D03*
X92520D02*
D03*
X80709D02*
D03*
X127953Y106181D02*
D03*
X68898D02*
D03*
D24*
X88425Y136732D02*
D03*
Y146732D02*
D03*
X78425Y136732D02*
D03*
X98425Y146732D02*
D03*
Y136732D02*
D03*
X108425Y146732D02*
D03*
X118425D02*
D03*
X108425Y136732D02*
D03*
X118425D02*
D03*
D25*
X78425Y146732D02*
D03*
D26*
X13780Y183071D02*
D03*
X183071D02*
D03*
Y13780D02*
D03*
X13780D02*
D03*
D27*
X137795Y177165D02*
D03*
X59055D02*
D03*
M02*
