M48
;Layer_Color=9474304
;FILE_FORMAT=2:4
INCH,TZ
;TYPE=PLATED
T1F00S00C0.0421
T2F00S00C0.0433
T3F00S00C0.1378
%
T01
X8071Y9067
X9252
Y10248
X8071
X6890Y10618
X10433Y10248
Y9067
X11614
Y10248
X12795Y10618
T02
X7843Y13673
X8843
Y14673
X7843
X9843
Y13673
X10843
Y14673
X11843
Y13673
T03
X1378Y1378
X18307
Y18307
X13780Y17717
X5906
X1378Y18307
M30
