G04*
G04 #@! TF.GenerationSoftware,Altium Limited,Altium Designer,21.3.2 (30)*
G04*
G04 Layer_Color=16711935*
%FSLAX25Y25*%
%MOIN*%
G70*
G04*
G04 #@! TF.SameCoordinates,7D36CCFB-020A-49C9-B8D2-55C5552AF9BD*
G04*
G04*
G04 #@! TF.FilePolarity,Positive*
G04*
G01*
G75*
%ADD13C,0.00394*%
%ADD14C,0.00197*%
%ADD30C,0.03937*%
D13*
X66634Y80945D02*
X130217D01*
Y115472D01*
X66634D02*
X130217D01*
X66634Y80945D02*
Y115472D01*
X73425Y131732D02*
Y151732D01*
X123425D01*
Y131732D02*
Y151732D01*
X73425Y131732D02*
X123425D01*
X96457Y98425D02*
X100394D01*
X98425Y96457D02*
Y100394D01*
D14*
X65354Y80551D02*
X131496D01*
X65354D02*
Y115866D01*
X131496D01*
Y80551D02*
Y115866D01*
X72047Y130650D02*
X124803D01*
Y152815D01*
X72047D02*
X124803D01*
X72047Y130650D02*
Y152815D01*
X98425Y139764D02*
Y143701D01*
X96457Y141732D02*
X100394D01*
D30*
X0Y10000D02*
X48Y9020D01*
X192Y8049D01*
X431Y7097D01*
X761Y6173D01*
X1181Y5286D01*
X1685Y4444D01*
X2270Y3656D01*
X2929Y2929D01*
X3656Y2270D01*
X4444Y1685D01*
X5286Y1181D01*
X6173Y761D01*
X7097Y431D01*
X8049Y192D01*
X9020Y48D01*
X10000Y0D01*
X10000Y196850D02*
X9020Y196802D01*
X8049Y196658D01*
X7097Y196420D01*
X6173Y196089D01*
X5286Y195670D01*
X4444Y195165D01*
X3656Y194580D01*
X2929Y193921D01*
X2270Y193194D01*
X1685Y192406D01*
X1181Y191564D01*
X761Y190677D01*
X431Y189753D01*
X192Y188801D01*
X48Y187831D01*
X0Y186850D01*
X196850Y186850D02*
X196802Y187831D01*
X196658Y188801D01*
X196420Y189753D01*
X196089Y190677D01*
X195670Y191564D01*
X195165Y192406D01*
X194580Y193194D01*
X193921Y193921D01*
X193194Y194580D01*
X192406Y195165D01*
X191564Y195670D01*
X190677Y196089D01*
X189753Y196420D01*
X188801Y196658D01*
X187830Y196802D01*
X186850Y196850D01*
X186850Y-0D02*
X187831Y48D01*
X188801Y192D01*
X189753Y431D01*
X190677Y761D01*
X191564Y1181D01*
X192406Y1685D01*
X193194Y2270D01*
X193921Y2929D01*
X194580Y3656D01*
X195165Y4444D01*
X195670Y5286D01*
X196089Y6173D01*
X196420Y7097D01*
X196658Y8049D01*
X196802Y9020D01*
X196850Y10000D01*
X11811Y0D02*
X185039Y-0D01*
X10000Y0D02*
X11811D01*
X0Y186850D02*
X0Y10000D01*
X10000Y196850D02*
X11811Y196850D01*
X185039Y196850D01*
X186850Y196850D01*
X196850Y11811D02*
Y186850D01*
Y11811D02*
X196850Y10000D01*
X185039Y-0D02*
X186850D01*
M02*
