G04*
G04 #@! TF.GenerationSoftware,Altium Limited,Altium Designer,21.3.2 (30)*
G04*
G04 Layer_Color=8388736*
%FSLAX25Y25*%
%MOIN*%
G70*
G04*
G04 #@! TF.SameCoordinates,7D36CCFB-020A-49C9-B8D2-55C5552AF9BD*
G04*
G04*
G04 #@! TF.FilePolarity,Negative*
G04*
G01*
G75*
%ADD13C,0.00394*%
%ADD14C,0.00197*%
%ADD15C,0.00100*%
%ADD16R,0.07099X0.07099*%
%ADD17C,0.07099*%
%ADD18C,0.07296*%
%ADD19R,0.07296X0.07296*%
%ADD20C,0.20485*%
%ADD21C,0.28359*%
D13*
X66634Y80945D02*
X130217D01*
Y115472D01*
X66634D02*
X130217D01*
X66634Y80945D02*
Y115472D01*
X73425Y131732D02*
Y151732D01*
X123425D01*
Y131732D02*
Y151732D01*
X73425Y131732D02*
X123425D01*
X96457Y98425D02*
X100394D01*
X98425Y96457D02*
Y100394D01*
D14*
X65354Y80551D02*
X131496D01*
X65354D02*
Y115866D01*
X131496D01*
Y80551D02*
Y115866D01*
X72047Y130650D02*
X124803D01*
Y152815D01*
X72047D02*
X124803D01*
X72047Y130650D02*
Y152815D01*
X98425Y139764D02*
Y143701D01*
X96457Y141732D02*
X100394D01*
D15*
X130013Y7100D02*
X133913D01*
X125513D02*
X129213D01*
X122113D02*
X123113D01*
X117913D02*
X118913D01*
X111313D02*
X113313D01*
X103413D02*
X107313D01*
X98913D02*
X101013D01*
X95513D02*
X96513D01*
X80313D02*
X84213D01*
X76213D02*
X77213D01*
X72213D02*
X73313D01*
X67813D02*
X68913D01*
X66113D02*
X67113D01*
X63413D02*
X65313D01*
X130013Y7200D02*
X134213D01*
X125213D02*
X129213D01*
X122113D02*
X123113D01*
X117913D02*
X118913D01*
X111013D02*
X113613D01*
X103413D02*
X107613D01*
X98613D02*
X101313D01*
X95513D02*
X96513D01*
X80313D02*
X84613D01*
X76213D02*
X77213D01*
X72213D02*
X73313D01*
X67813D02*
X68913D01*
X66113D02*
X67113D01*
X63113D02*
X65313D01*
X130013Y7300D02*
X134513D01*
X125013D02*
X129213D01*
X122113D02*
X123113D01*
X117913D02*
X118913D01*
X110713D02*
X113813D01*
X103413D02*
X107913D01*
X98413D02*
X101513D01*
X95513D02*
X96513D01*
X80313D02*
X84813D01*
X76213D02*
X77213D01*
X72213D02*
X73313D01*
X67813D02*
X68913D01*
X66113D02*
X67113D01*
X62913D02*
X65313D01*
X130013Y7400D02*
X134613D01*
X124813D02*
X129213D01*
X122113D02*
X123113D01*
X117913D02*
X118913D01*
X110613D02*
X114013D01*
X103413D02*
X108113D01*
X98313D02*
X101613D01*
X95513D02*
X96513D01*
X80313D02*
X85013D01*
X76213D02*
X77213D01*
X72213D02*
X73313D01*
X67813D02*
X68913D01*
X66113D02*
X67113D01*
X62713D02*
X65313D01*
X130013Y7500D02*
X134813D01*
X124713D02*
X129213D01*
X122113D02*
X123113D01*
X117913D02*
X118913D01*
X110413D02*
X114113D01*
X103413D02*
X108213D01*
X98113D02*
X101813D01*
X95513D02*
X96513D01*
X80313D02*
X85113D01*
X76213D02*
X77213D01*
X72213D02*
X73313D01*
X67813D02*
X68913D01*
X66113D02*
X67113D01*
X62613D02*
X65313D01*
X130013Y7600D02*
X134913D01*
X124613D02*
X129213D01*
X122113D02*
X123113D01*
X117913D02*
X118913D01*
X110313D02*
X114213D01*
X103413D02*
X108313D01*
X98013D02*
X101913D01*
X95513D02*
X96513D01*
X80313D02*
X85313D01*
X76213D02*
X77213D01*
X72213D02*
X73313D01*
X67813D02*
X68913D01*
X66113D02*
X67113D01*
X62413D02*
X65313D01*
X130013Y7700D02*
X135013D01*
X124513D02*
X129213D01*
X122113D02*
X123113D01*
X117913D02*
X118913D01*
X110213D02*
X114313D01*
X103413D02*
X108413D01*
X97913D02*
X102013D01*
X95513D02*
X96513D01*
X80313D02*
X85413D01*
X76213D02*
X77213D01*
X72213D02*
X73313D01*
X67813D02*
X68913D01*
X66113D02*
X67113D01*
X62313D02*
X65313D01*
X130013Y7800D02*
X135113D01*
X124413D02*
X129213D01*
X122113D02*
X123113D01*
X117913D02*
X118913D01*
X110113D02*
X114413D01*
X103413D02*
X108513D01*
X97813D02*
X102113D01*
X95513D02*
X96513D01*
X80313D02*
X85413D01*
X76213D02*
X77213D01*
X72213D02*
X73313D01*
X67813D02*
X68913D01*
X66113D02*
X67113D01*
X62213D02*
X65313D01*
X130013Y7900D02*
X135113D01*
X124313D02*
X129213D01*
X122113D02*
X123113D01*
X117913D02*
X118913D01*
X110013D02*
X114513D01*
X103413D02*
X108613D01*
X97713D02*
X102213D01*
X95513D02*
X96513D01*
X80313D02*
X85513D01*
X76213D02*
X77213D01*
X72213D02*
X73313D01*
X67813D02*
X68913D01*
X66113D02*
X67113D01*
X62213D02*
X65313D01*
X130013Y8000D02*
X135213D01*
X124213D02*
X129213D01*
X122113D02*
X123113D01*
X117913D02*
X118913D01*
X110013D02*
X114613D01*
X103413D02*
X108613D01*
X97713D02*
X102213D01*
X95513D02*
X96513D01*
X80413D02*
X85613D01*
X76213D02*
X77213D01*
X72213D02*
X73313D01*
X67813D02*
X68913D01*
X66113D02*
X67113D01*
X62113D02*
X65313D01*
X133613Y8100D02*
X135313D01*
X124213D02*
X125813D01*
X122113D02*
X123113D01*
X117913D02*
X118913D01*
X112913D02*
X114613D01*
X109913D02*
X111613D01*
X107013D02*
X108713D01*
X103413D02*
X104413D01*
X100613D02*
X102313D01*
X97613D02*
X99313D01*
X95513D02*
X96513D01*
X84013D02*
X85613D01*
X76213D02*
X77213D01*
X72213D02*
X73313D01*
X67813D02*
X68913D01*
X66113D02*
X67113D01*
X62013D02*
X63713D01*
X133913Y8200D02*
X135313D01*
X124113D02*
X125613D01*
X122113D02*
X123113D01*
X117913D02*
X118913D01*
X113213D02*
X114713D01*
X109913D02*
X111313D01*
X107313D02*
X108713D01*
X103413D02*
X104413D01*
X100913D02*
X102413D01*
X97513D02*
X99013D01*
X95413D02*
X96513D01*
X84313D02*
X85713D01*
X76213D02*
X77213D01*
X72213D02*
X73313D01*
X67813D02*
X68913D01*
X66113D02*
X67113D01*
X62013D02*
X63413D01*
X134113Y8300D02*
X135313D01*
X124113D02*
X125413D01*
X122113D02*
X123113D01*
X117913D02*
X118913D01*
X113413D02*
X114713D01*
X109813D02*
X111213D01*
X107513D02*
X108713D01*
X103413D02*
X104413D01*
X101113D02*
X102413D01*
X97513D02*
X98813D01*
X95413D02*
X96513D01*
X84513D02*
X85713D01*
X76213D02*
X77213D01*
X72213D02*
X73313D01*
X67813D02*
X68913D01*
X66113D02*
X67113D01*
X61913D02*
X63313D01*
X134213Y8400D02*
X135313D01*
X124013D02*
X125313D01*
X122113D02*
X123113D01*
X117913D02*
X118913D01*
X113513D02*
X114813D01*
X109813D02*
X111013D01*
X107613D02*
X108813D01*
X103413D02*
X104413D01*
X101213D02*
X102413D01*
X97413D02*
X98713D01*
X95313D02*
X96413D01*
X84613D02*
X85713D01*
X76213D02*
X77213D01*
X72213D02*
X73313D01*
X67813D02*
X68913D01*
X66113D02*
X67113D01*
X61913D02*
X63113D01*
X134313Y8500D02*
X135313D01*
X124013D02*
X125213D01*
X122113D02*
X123113D01*
X117913D02*
X118913D01*
X113613D02*
X114813D01*
X109713D02*
X110913D01*
X107713D02*
X108813D01*
X103413D02*
X104413D01*
X101313D02*
X102513D01*
X97413D02*
X98613D01*
X95113D02*
X96413D01*
X84713D02*
X85713D01*
X76213D02*
X77213D01*
X72213D02*
X73313D01*
X67813D02*
X68913D01*
X66113D02*
X67113D01*
X61813D02*
X63013D01*
X134313Y8600D02*
X135313D01*
X124013D02*
X125113D01*
X122113D02*
X123113D01*
X117913D02*
X118913D01*
X113713D02*
X114813D01*
X109713D02*
X110913D01*
X107813D02*
X108813D01*
X103413D02*
X104413D01*
X101413D02*
X102513D01*
X97413D02*
X98513D01*
X94913D02*
X96413D01*
X84713D02*
X85713D01*
X76213D02*
X77213D01*
X72213D02*
X73313D01*
X67813D02*
X68913D01*
X66113D02*
X67113D01*
X61813D02*
X63013D01*
X134413Y8700D02*
X135313D01*
X123913D02*
X125013D01*
X122113D02*
X123113D01*
X117913D02*
X118913D01*
X113713D02*
X114913D01*
X109713D02*
X110813D01*
X107813D02*
X108813D01*
X103413D02*
X104413D01*
X101413D02*
X102513D01*
X97413D02*
X98513D01*
X94413D02*
X96313D01*
X84713D02*
X85713D01*
X76213D02*
X77213D01*
X72213D02*
X73313D01*
X67813D02*
X68913D01*
X66113D02*
X67113D01*
X61813D02*
X62913D01*
X134413Y8800D02*
X135313D01*
X123913D02*
X125013D01*
X122113D02*
X123113D01*
X117913D02*
X118913D01*
X113813D02*
X114913D01*
X109613D02*
X110713D01*
X107813D02*
X108813D01*
X103413D02*
X104413D01*
X101513D02*
X102613D01*
X97313D02*
X98413D01*
X91113D02*
X96313D01*
X84713D02*
X85713D01*
X76213D02*
X77213D01*
X72213D02*
X73313D01*
X67813D02*
X68913D01*
X66113D02*
X67113D01*
X61813D02*
X62913D01*
X134413Y8900D02*
X135313D01*
X123913D02*
X125013D01*
X122113D02*
X123113D01*
X117913D02*
X118913D01*
X113813D02*
X114913D01*
X109613D02*
X110713D01*
X107813D02*
X108813D01*
X103413D02*
X104413D01*
X101513D02*
X102613D01*
X97313D02*
X98413D01*
X91113D02*
X96213D01*
X84713D02*
X85713D01*
X76213D02*
X77213D01*
X72213D02*
X73313D01*
X67813D02*
X68913D01*
X66113D02*
X67113D01*
X61813D02*
X62813D01*
X134313Y9000D02*
X135313D01*
X123913D02*
X124913D01*
X122113D02*
X123113D01*
X117913D02*
X118913D01*
X113913D02*
X114913D01*
X109613D02*
X110713D01*
X107813D02*
X108813D01*
X103413D02*
X104413D01*
X101513D02*
X102613D01*
X97313D02*
X98413D01*
X91113D02*
X96113D01*
X84713D02*
X85713D01*
X76213D02*
X77213D01*
X72213D02*
X73313D01*
X67813D02*
X68913D01*
X66113D02*
X67113D01*
X61813D02*
X62813D01*
X134313Y9100D02*
X135313D01*
X123813D02*
X124913D01*
X122113D02*
X123113D01*
X117913D02*
X118913D01*
X113913D02*
X114913D01*
X109613D02*
X110613D01*
X107713D02*
X108813D01*
X103413D02*
X104413D01*
X101613D02*
X102613D01*
X97313D02*
X98313D01*
X91113D02*
X96113D01*
X84713D02*
X85713D01*
X76213D02*
X77213D01*
X72213D02*
X73313D01*
X67813D02*
X68913D01*
X66113D02*
X67113D01*
X61813D02*
X62813D01*
X134213Y9200D02*
X135313D01*
X123813D02*
X124913D01*
X122113D02*
X123113D01*
X117913D02*
X118913D01*
X113913D02*
X114913D01*
X109613D02*
X110613D01*
X107713D02*
X108813D01*
X103413D02*
X104413D01*
X101613D02*
X102613D01*
X97313D02*
X98313D01*
X91113D02*
X95913D01*
X84613D02*
X85713D01*
X76213D02*
X77213D01*
X72213D02*
X73313D01*
X67813D02*
X68913D01*
X66113D02*
X67113D01*
X61813D02*
X62713D01*
X134113Y9300D02*
X135313D01*
X123813D02*
X124913D01*
X122113D02*
X123113D01*
X117913D02*
X118913D01*
X113913D02*
X115013D01*
X109613D02*
X110613D01*
X107513D02*
X108713D01*
X103413D02*
X104413D01*
X101613D02*
X102613D01*
X97313D02*
X98313D01*
X91113D02*
X95913D01*
X84513D02*
X85713D01*
X76213D02*
X77213D01*
X72213D02*
X73313D01*
X67813D02*
X68913D01*
X66113D02*
X67113D01*
X61813D02*
X62713D01*
X133913Y9400D02*
X135313D01*
X123813D02*
X124813D01*
X122113D02*
X123113D01*
X117913D02*
X118913D01*
X113913D02*
X115013D01*
X109613D02*
X110613D01*
X107413D02*
X108713D01*
X103413D02*
X104413D01*
X101613D02*
X102613D01*
X97313D02*
X98313D01*
X91113D02*
X96013D01*
X84313D02*
X85713D01*
X76213D02*
X77213D01*
X72213D02*
X73313D01*
X67813D02*
X68913D01*
X66113D02*
X67113D01*
X61813D02*
X62713D01*
X133613Y9500D02*
X135313D01*
X123813D02*
X124813D01*
X122113D02*
X123113D01*
X117913D02*
X118913D01*
X113913D02*
X115013D01*
X109613D02*
X110613D01*
X107113D02*
X108713D01*
X103413D02*
X104413D01*
X101613D02*
X102613D01*
X97313D02*
X98313D01*
X91113D02*
X96113D01*
X84013D02*
X85613D01*
X76213D02*
X77213D01*
X72213D02*
X73313D01*
X67813D02*
X68913D01*
X66113D02*
X67113D01*
X61813D02*
X62713D01*
X130013Y9600D02*
X135213D01*
X123813D02*
X124813D01*
X122113D02*
X123113D01*
X117913D02*
X118913D01*
X113913D02*
X115013D01*
X109613D02*
X110613D01*
X105213D02*
X108613D01*
X103413D02*
X104413D01*
X101613D02*
X102613D01*
X97313D02*
X98313D01*
X91113D02*
X96213D01*
X80413D02*
X85613D01*
X76213D02*
X77213D01*
X72213D02*
X73313D01*
X67813D02*
X68913D01*
X66113D02*
X67113D01*
X61813D02*
X62713D01*
X130013Y9700D02*
X135213D01*
X123813D02*
X124813D01*
X122113D02*
X123113D01*
X117913D02*
X118913D01*
X113913D02*
X115013D01*
X109613D02*
X110613D01*
X105213D02*
X108613D01*
X103413D02*
X104413D01*
X101613D02*
X102613D01*
X97313D02*
X98313D01*
X91113D02*
X96313D01*
X80313D02*
X85513D01*
X76213D02*
X77213D01*
X72213D02*
X73213D01*
X67813D02*
X68913D01*
X66113D02*
X67113D01*
X61813D02*
X62713D01*
X130013Y9800D02*
X135113D01*
X123813D02*
X124813D01*
X122113D02*
X123113D01*
X117913D02*
X118913D01*
X113913D02*
X115013D01*
X109613D02*
X110613D01*
X105213D02*
X108513D01*
X103413D02*
X104413D01*
X101613D02*
X102613D01*
X97313D02*
X98313D01*
X94313D02*
X96313D01*
X80313D02*
X85513D01*
X76213D02*
X77213D01*
X72213D02*
X73213D01*
X67813D02*
X68913D01*
X66113D02*
X67113D01*
X61813D02*
X62713D01*
X130013Y9900D02*
X135013D01*
X123813D02*
X124813D01*
X122113D02*
X123113D01*
X117913D02*
X118913D01*
X113913D02*
X115013D01*
X109613D02*
X110613D01*
X105213D02*
X108413D01*
X103413D02*
X104413D01*
X101613D02*
X102613D01*
X97313D02*
X98313D01*
X94913D02*
X96413D01*
X80313D02*
X85413D01*
X76213D02*
X77213D01*
X72213D02*
X73213D01*
X67913D02*
X68913D01*
X66113D02*
X67113D01*
X61813D02*
X62713D01*
X130013Y10000D02*
X134913D01*
X123813D02*
X124813D01*
X122113D02*
X123113D01*
X117913D02*
X118913D01*
X113913D02*
X115013D01*
X109613D02*
X110613D01*
X105213D02*
X108313D01*
X103413D02*
X104413D01*
X101613D02*
X102613D01*
X97313D02*
X98313D01*
X95113D02*
X96413D01*
X80313D02*
X85313D01*
X76213D02*
X77213D01*
X72213D02*
X73213D01*
X67913D02*
X68913D01*
X66113D02*
X67113D01*
X61813D02*
X62713D01*
X130013Y10100D02*
X134813D01*
X123813D02*
X124913D01*
X122113D02*
X123113D01*
X117913D02*
X118913D01*
X113913D02*
X115013D01*
X109613D02*
X110613D01*
X105213D02*
X108213D01*
X103413D02*
X104413D01*
X101613D02*
X102613D01*
X97313D02*
X98313D01*
X95313D02*
X96413D01*
X80313D02*
X85213D01*
X76213D02*
X77213D01*
X72213D02*
X73213D01*
X67913D02*
X68913D01*
X66113D02*
X67113D01*
X61813D02*
X62713D01*
X130013Y10200D02*
X134613D01*
X123813D02*
X124913D01*
X122113D02*
X123113D01*
X117913D02*
X118913D01*
X113913D02*
X114913D01*
X109613D02*
X110613D01*
X105213D02*
X108113D01*
X103413D02*
X104413D01*
X101613D02*
X102613D01*
X97313D02*
X98313D01*
X95413D02*
X96513D01*
X80313D02*
X85013D01*
X76213D02*
X77213D01*
X72213D02*
X73213D01*
X67913D02*
X68913D01*
X66113D02*
X67113D01*
X61813D02*
X62713D01*
X130013Y10300D02*
X134513D01*
X123913D02*
X124913D01*
X122113D02*
X123113D01*
X117913D02*
X118913D01*
X113913D02*
X114913D01*
X109613D02*
X110713D01*
X105213D02*
X107913D01*
X103413D02*
X104413D01*
X101613D02*
X102613D01*
X97313D02*
X98313D01*
X95413D02*
X96513D01*
X80313D02*
X84813D01*
X76213D02*
X77213D01*
X72213D02*
X73213D01*
X67913D02*
X68913D01*
X66113D02*
X67113D01*
X61813D02*
X62813D01*
X130013Y10400D02*
X134213D01*
X123913D02*
X124913D01*
X122113D02*
X123113D01*
X117913D02*
X118913D01*
X113913D02*
X114913D01*
X109613D02*
X110713D01*
X105213D02*
X107713D01*
X103413D02*
X104413D01*
X101513D02*
X102613D01*
X97313D02*
X98413D01*
X95513D02*
X96513D01*
X80313D02*
X84613D01*
X76213D02*
X77213D01*
X72113D02*
X73213D01*
X67913D02*
X69013D01*
X66113D02*
X67113D01*
X61813D02*
X62813D01*
X130013Y10500D02*
X133913D01*
X123913D02*
X125013D01*
X122113D02*
X123113D01*
X117913D02*
X118913D01*
X113813D02*
X114913D01*
X109613D02*
X110713D01*
X105213D02*
X107313D01*
X103413D02*
X104413D01*
X101513D02*
X102613D01*
X97313D02*
X98413D01*
X95513D02*
X96513D01*
X80313D02*
X84313D01*
X76213D02*
X77213D01*
X72113D02*
X73213D01*
X67913D02*
X69013D01*
X66113D02*
X67113D01*
X61813D02*
X62813D01*
X130013Y10600D02*
X133313D01*
X123913D02*
X125013D01*
X122113D02*
X123113D01*
X117913D02*
X118913D01*
X113813D02*
X114913D01*
X109713D02*
X110813D01*
X105213D02*
X106713D01*
X103413D02*
X104413D01*
X101513D02*
X102613D01*
X97313D02*
X98413D01*
X95513D02*
X96513D01*
X80313D02*
X83713D01*
X76213D02*
X77213D01*
X72013D02*
X73213D01*
X67913D02*
X69013D01*
X66113D02*
X67113D01*
X61813D02*
X62913D01*
X130013Y10700D02*
X131013D01*
X123913D02*
X125113D01*
X122113D02*
X123113D01*
X117913D02*
X118913D01*
X113713D02*
X114913D01*
X109713D02*
X110813D01*
X103413D02*
X104413D01*
X101413D02*
X102513D01*
X97413D02*
X98513D01*
X95513D02*
X96513D01*
X80313D02*
X81413D01*
X76213D02*
X77213D01*
X72013D02*
X73113D01*
X68013D02*
X69113D01*
X66113D02*
X67113D01*
X61813D02*
X62913D01*
X130013Y10800D02*
X131013D01*
X124013D02*
X125113D01*
X122113D02*
X123113D01*
X117913D02*
X118913D01*
X113713D02*
X114813D01*
X109713D02*
X110913D01*
X103413D02*
X104513D01*
X101313D02*
X102513D01*
X97413D02*
X98613D01*
X95413D02*
X96513D01*
X80413D02*
X81413D01*
X76213D02*
X77213D01*
X71913D02*
X73113D01*
X68013D02*
X69213D01*
X66113D02*
X67113D01*
X61813D02*
X63013D01*
X130013Y10900D02*
X131113D01*
X124013D02*
X125213D01*
X122113D02*
X123113D01*
X117913D02*
X118913D01*
X113613D02*
X114813D01*
X109713D02*
X111013D01*
X103413D02*
X104513D01*
X101213D02*
X102513D01*
X97413D02*
X98613D01*
X95413D02*
X96513D01*
X80413D02*
X81513D01*
X76213D02*
X77213D01*
X71813D02*
X73113D01*
X68013D02*
X69213D01*
X66113D02*
X67113D01*
X61913D02*
X63113D01*
X130013Y11000D02*
X131213D01*
X124013D02*
X125313D01*
X122113D02*
X123113D01*
X117913D02*
X118913D01*
X113513D02*
X114713D01*
X109813D02*
X111113D01*
X103513D02*
X104613D01*
X101113D02*
X102413D01*
X97513D02*
X98813D01*
X95313D02*
X96513D01*
X80413D02*
X81513D01*
X76213D02*
X77213D01*
X71713D02*
X73013D01*
X68113D02*
X69413D01*
X66113D02*
X67113D01*
X61913D02*
X63213D01*
X130013Y11100D02*
X131313D01*
X124113D02*
X125513D01*
X122113D02*
X123113D01*
X117913D02*
X118913D01*
X113313D02*
X114713D01*
X109813D02*
X111213D01*
X103513D02*
X104813D01*
X101013D02*
X102413D01*
X97513D02*
X98913D01*
X95113D02*
X96413D01*
X80413D02*
X81713D01*
X76213D02*
X77213D01*
X71613D02*
X73013D01*
X68113D02*
X69513D01*
X66113D02*
X67113D01*
X61913D02*
X63313D01*
X130113Y11200D02*
X131513D01*
X124113D02*
X125713D01*
X122113D02*
X123113D01*
X117913D02*
X118913D01*
X113113D02*
X114713D01*
X109913D02*
X111413D01*
X103513D02*
X105013D01*
X100813D02*
X102313D01*
X97613D02*
X99113D01*
X94913D02*
X96413D01*
X80413D02*
X81913D01*
X76213D02*
X77213D01*
X71413D02*
X72913D01*
X68213D02*
X69713D01*
X66113D02*
X67113D01*
X62013D02*
X63513D01*
X130113Y11300D02*
X132013D01*
X124213D02*
X126013D01*
X122113D02*
X123113D01*
X117913D02*
X118913D01*
X112813D02*
X114613D01*
X109913D02*
X111813D01*
X103513D02*
X105413D01*
X100513D02*
X102313D01*
X97613D02*
X99413D01*
X94513D02*
X96413D01*
X80513D02*
X82313D01*
X76213D02*
X77213D01*
X71113D02*
X72913D01*
X68213D02*
X70013D01*
X66113D02*
X67113D01*
X62113D02*
X63913D01*
X130213Y11400D02*
X135313D01*
X124313D02*
X129213D01*
X122113D02*
X123113D01*
X115713D02*
X121313D01*
X110013D02*
X114513D01*
X103613D02*
X107913D01*
X97713D02*
X102213D01*
X91113D02*
X96313D01*
X80513D02*
X85713D01*
X74013D02*
X79613D01*
X68313D02*
X72813D01*
X62113D02*
X67113D01*
X130213Y11500D02*
X135313D01*
X124313D02*
X129213D01*
X122113D02*
X123113D01*
X115713D02*
X121313D01*
X110113D02*
X114513D01*
X103713D02*
X107913D01*
X97813D02*
X102113D01*
X91113D02*
X96213D01*
X80613D02*
X85713D01*
X74013D02*
X79613D01*
X68313D02*
X72713D01*
X62213D02*
X67113D01*
X130313Y11600D02*
X135313D01*
X124413D02*
X129213D01*
X122113D02*
X123113D01*
X115713D02*
X121313D01*
X110213D02*
X114413D01*
X103713D02*
X107913D01*
X97813D02*
X102113D01*
X91113D02*
X96213D01*
X80713D02*
X85713D01*
X74013D02*
X79613D01*
X68413D02*
X72713D01*
X62313D02*
X67113D01*
X130413Y11700D02*
X135313D01*
X124513D02*
X129213D01*
X122113D02*
X123113D01*
X115713D02*
X121313D01*
X110213D02*
X114313D01*
X103813D02*
X107913D01*
X97913D02*
X102013D01*
X91113D02*
X96113D01*
X80813D02*
X85713D01*
X74013D02*
X79613D01*
X68513D02*
X72613D01*
X62413D02*
X67113D01*
X130513Y11800D02*
X135313D01*
X124613D02*
X129213D01*
X122113D02*
X123113D01*
X115713D02*
X121313D01*
X110413D02*
X114213D01*
X103913D02*
X107913D01*
X98013D02*
X101913D01*
X91113D02*
X96013D01*
X80913D02*
X85713D01*
X74013D02*
X79613D01*
X68613D02*
X72513D01*
X62513D02*
X67113D01*
X130613Y11900D02*
X135313D01*
X124713D02*
X129213D01*
X122113D02*
X123113D01*
X115713D02*
X121313D01*
X110513D02*
X114013D01*
X104113D02*
X107913D01*
X98213D02*
X101713D01*
X91113D02*
X95813D01*
X81013D02*
X85713D01*
X74013D02*
X79613D01*
X68813D02*
X72313D01*
X62613D02*
X67113D01*
X130813Y12000D02*
X135313D01*
X124913D02*
X129213D01*
X122113D02*
X123113D01*
X115713D02*
X121313D01*
X110613D02*
X113913D01*
X104213D02*
X107913D01*
X98313D02*
X101613D01*
X91113D02*
X95713D01*
X81213D02*
X85713D01*
X74013D02*
X79613D01*
X68913D02*
X72213D01*
X62813D02*
X67113D01*
X131013Y12100D02*
X135313D01*
X125113D02*
X129213D01*
X122113D02*
X123113D01*
X115713D02*
X121313D01*
X110813D02*
X113713D01*
X104413D02*
X107913D01*
X98513D02*
X101413D01*
X91113D02*
X95513D01*
X81413D02*
X85713D01*
X74013D02*
X79613D01*
X69113D02*
X72013D01*
X62913D02*
X67113D01*
X131313Y12200D02*
X135313D01*
X125313D02*
X129213D01*
X122113D02*
X123113D01*
X115713D02*
X121313D01*
X111113D02*
X113513D01*
X104713D02*
X107913D01*
X98813D02*
X101113D01*
X91113D02*
X95213D01*
X81613D02*
X85713D01*
X74013D02*
X79613D01*
X69313D02*
X71713D01*
X63213D02*
X67113D01*
X131613Y12300D02*
X135313D01*
X125613D02*
X129213D01*
X122113D02*
X123113D01*
X115713D02*
X121313D01*
X111413D02*
X113113D01*
X105113D02*
X107913D01*
X99113D02*
X100813D01*
X91113D02*
X94813D01*
X82013D02*
X85713D01*
X74013D02*
X79613D01*
X69713D02*
X71413D01*
X63513D02*
X67113D01*
X118213Y15300D02*
X118613D01*
X118213Y15400D02*
X118613D01*
X90313D02*
X90513D01*
X118113Y15500D02*
X118613D01*
X90313D02*
X90513D01*
X118013Y15600D02*
X118513D01*
X90313D02*
X90613D01*
X118013Y15700D02*
X118513D01*
X90313D02*
X90613D01*
X117913Y15800D02*
X118513D01*
X90313D02*
X90613D01*
X117813Y15900D02*
X118413D01*
X90313D02*
X90713D01*
X117813Y16000D02*
X118413D01*
X90413D02*
X90813D01*
X117713Y16100D02*
X118313D01*
X90413D02*
X90813D01*
X117713Y16200D02*
X118313D01*
X90413D02*
X90913D01*
X117513Y16300D02*
X118213D01*
X90413D02*
X90913D01*
X117513Y16400D02*
X118213D01*
X90413D02*
X91013D01*
X117513Y16500D02*
X118113D01*
X90513D02*
X91013D01*
X117413Y16600D02*
X118113D01*
X90513D02*
X91013D01*
X117313Y16700D02*
X118013D01*
X90613D02*
X91113D01*
X117213Y16800D02*
X118013D01*
X90613D02*
X91113D01*
X117213Y16900D02*
X117913D01*
X90613D02*
X91213D01*
X117113Y17000D02*
X117913D01*
X90613D02*
X91213D01*
X117013Y17100D02*
X117913D01*
X90613D02*
X91313D01*
X116913Y17200D02*
X117813D01*
X90713D02*
X91313D01*
X116913Y17300D02*
X117813D01*
X90713D02*
X91413D01*
X116813Y17400D02*
X117713D01*
X90713D02*
X91413D01*
X116713Y17500D02*
X117713D01*
X90713D02*
X91513D01*
X116713Y17600D02*
X117613D01*
X90713D02*
X91513D01*
X116613Y17700D02*
X117613D01*
X90813D02*
X91613D01*
X116513Y17800D02*
X117613D01*
X90813D02*
X91613D01*
X116513Y17900D02*
X117513D01*
X90813D02*
X91713D01*
X116413Y18000D02*
X117513D01*
X90913D02*
X91813D01*
X116313Y18100D02*
X117413D01*
X90913D02*
X91813D01*
X116313Y18200D02*
X117413D01*
X90913D02*
X91913D01*
X116213Y18300D02*
X117313D01*
X90913D02*
X91913D01*
X116113Y18400D02*
X117313D01*
X91013D02*
X92013D01*
X116013Y18500D02*
X117213D01*
X91013D02*
X92013D01*
X116013Y18600D02*
X117213D01*
X91013D02*
X92113D01*
X115913Y18700D02*
X117113D01*
X91013D02*
X92113D01*
X115813Y18800D02*
X117113D01*
X91013D02*
X92113D01*
X79013D02*
X79213D01*
X115813Y18900D02*
X117013D01*
X91013D02*
X92113D01*
X79013D02*
X79313D01*
X115713Y19000D02*
X117013D01*
X91013D02*
X92113D01*
X79013D02*
X79413D01*
X115613Y19100D02*
X116913D01*
X91013D02*
X92113D01*
X79013D02*
X79513D01*
X115613Y19200D02*
X116913D01*
X91013D02*
X92113D01*
X79113D02*
X79613D01*
X115513Y19300D02*
X116813D01*
X91013D02*
X92113D01*
X79213D02*
X79713D01*
X115413Y19400D02*
X116813D01*
X91013D02*
X92113D01*
X79213D02*
X79813D01*
X115413Y19500D02*
X116813D01*
X91013D02*
X92113D01*
X79313D02*
X79913D01*
X115313Y19600D02*
X116713D01*
X91013D02*
X92113D01*
X79413D02*
X80013D01*
X115313Y19700D02*
X116713D01*
X91013D02*
X92113D01*
X79413D02*
X80113D01*
X115313Y19800D02*
X116613D01*
X91013D02*
X92113D01*
X79513D02*
X80213D01*
X115313Y19900D02*
X116613D01*
X91013D02*
X92113D01*
X79613D02*
X80213D01*
X115313Y20000D02*
X116613D01*
X91013D02*
X92113D01*
X79613D02*
X80313D01*
X115313Y20100D02*
X116613D01*
X91013D02*
X92113D01*
X79713D02*
X80413D01*
X115313Y20200D02*
X116613D01*
X91013D02*
X92113D01*
X79813D02*
X80513D01*
X115313Y20300D02*
X116613D01*
X91013D02*
X92113D01*
X79813D02*
X80613D01*
X115313Y20400D02*
X116613D01*
X91013D02*
X92113D01*
X79913D02*
X80713D01*
X115313Y20500D02*
X116613D01*
X91013D02*
X92113D01*
X80013D02*
X80813D01*
X115313Y20600D02*
X116613D01*
X91013D02*
X92113D01*
X80013D02*
X80913D01*
X115313Y20700D02*
X116613D01*
X91013D02*
X92113D01*
X80113D02*
X81013D01*
X115313Y20800D02*
X116613D01*
X91013D02*
X92113D01*
X80113D02*
X81113D01*
X115313Y20900D02*
X116613D01*
X91013D02*
X92113D01*
X80213D02*
X81213D01*
X115313Y21000D02*
X116613D01*
X91013D02*
X92113D01*
X80313D02*
X81313D01*
X115213Y21100D02*
X116613D01*
X91013D02*
X92113D01*
X80413D02*
X81413D01*
X115213Y21200D02*
X116613D01*
X90913D02*
X92113D01*
X80413D02*
X81413D01*
X115213Y21300D02*
X116613D01*
X90913D02*
X92113D01*
X80513D02*
X81513D01*
X115113Y21400D02*
X116513D01*
X90913D02*
X92113D01*
X80513D02*
X81613D01*
X115113Y21500D02*
X116513D01*
X90913D02*
X92213D01*
X80613D02*
X81713D01*
X115113Y21600D02*
X116513D01*
X90813D02*
X92213D01*
X80613D02*
X81813D01*
X115113Y21700D02*
X116513D01*
X90813D02*
X92213D01*
X80713D02*
X81913D01*
X115113Y21800D02*
X116513D01*
X90813D02*
X92213D01*
X80713D02*
X82013D01*
X115113Y21900D02*
X116513D01*
X90813D02*
X92213D01*
X80813D02*
X82113D01*
X115113Y22000D02*
X116513D01*
X90813D02*
X92213D01*
X80913D02*
X82213D01*
X115113Y22100D02*
X116513D01*
X90813D02*
X92213D01*
X80913D02*
X82213D01*
X115113Y22200D02*
X116513D01*
X90813D02*
X92213D01*
X80913D02*
X82213D01*
X115113Y22300D02*
X116513D01*
X90813D02*
X92213D01*
X80913D02*
X82213D01*
X115113Y22400D02*
X116513D01*
X90813D02*
X92213D01*
X80913D02*
X82213D01*
X115113Y22500D02*
X116513D01*
X90813D02*
X92213D01*
X80913D02*
X82213D01*
X115013Y22600D02*
X116513D01*
X90813D02*
X92213D01*
X80913D02*
X82313D01*
X115013Y22700D02*
X116513D01*
X90813D02*
X92213D01*
X80913D02*
X82313D01*
X115013Y22800D02*
X116513D01*
X90813D02*
X92213D01*
X80913D02*
X82313D01*
X115113Y22900D02*
X116513D01*
X90813D02*
X92213D01*
X80913D02*
X82313D01*
X115113Y23000D02*
X116513D01*
X90813D02*
X92213D01*
X81013D02*
X82313D01*
X115013Y23100D02*
X116413D01*
X90813D02*
X92213D01*
X81013D02*
X82313D01*
X115013Y23200D02*
X116413D01*
X90913D02*
X92313D01*
X81013D02*
X82313D01*
X115013Y23300D02*
X116413D01*
X90813D02*
X92313D01*
X81013D02*
X82313D01*
X115013Y23400D02*
X116413D01*
X90813D02*
X92313D01*
X81013D02*
X82313D01*
X115013Y23500D02*
X116413D01*
X90813D02*
X92313D01*
X81013D02*
X82313D01*
X115013Y23600D02*
X116413D01*
X90813D02*
X92313D01*
X81013D02*
X82313D01*
X114913Y23700D02*
X116413D01*
X90813D02*
X92313D01*
X81013D02*
X82313D01*
X114913Y23800D02*
X116413D01*
X90813D02*
X92313D01*
X81013D02*
X82313D01*
X114913Y23900D02*
X116413D01*
X90813D02*
X92313D01*
X81013D02*
X82413D01*
X114913Y24000D02*
X116413D01*
X90813D02*
X92313D01*
X81013D02*
X82413D01*
X114913Y24100D02*
X116413D01*
X90813D02*
X92313D01*
X81013D02*
X82413D01*
X114913Y24200D02*
X116413D01*
X90813D02*
X92313D01*
X81013D02*
X82413D01*
X114913Y24300D02*
X116413D01*
X90813D02*
X92313D01*
X81013D02*
X82413D01*
X114813Y24400D02*
X116413D01*
X90813D02*
X92313D01*
X81013D02*
X82413D01*
X114813Y24500D02*
X116413D01*
X90813D02*
X92313D01*
X81013D02*
X82413D01*
X114813Y24600D02*
X116413D01*
X90813D02*
X92313D01*
X81013D02*
X82413D01*
X114813Y24700D02*
X116413D01*
X90813D02*
X92313D01*
X80913D02*
X82413D01*
X114813Y24800D02*
X116413D01*
X90813D02*
X92313D01*
X80913D02*
X82413D01*
X114813Y24900D02*
X116413D01*
X90813D02*
X92313D01*
X81013D02*
X82413D01*
X114813Y25000D02*
X116413D01*
X90813D02*
X92313D01*
X81013D02*
X82413D01*
X114813Y25100D02*
X116413D01*
X90813D02*
X92313D01*
X81013D02*
X82413D01*
X114813Y25200D02*
X116413D01*
X90813D02*
X92313D01*
X81013D02*
X82413D01*
X114813Y25300D02*
X116413D01*
X90813D02*
X92313D01*
X81013D02*
X82413D01*
X114813Y25400D02*
X116413D01*
X90813D02*
X92313D01*
X81013D02*
X82413D01*
X114813Y25500D02*
X116413D01*
X90813D02*
X92313D01*
X81013D02*
X82513D01*
X114813Y25600D02*
X116413D01*
X90813D02*
X92313D01*
X81013D02*
X82513D01*
X114813Y25700D02*
X116413D01*
X90813D02*
X92313D01*
X81013D02*
X82513D01*
X114813Y25800D02*
X116413D01*
X90813D02*
X92413D01*
X81013D02*
X82513D01*
X114713Y25900D02*
X116413D01*
X90813D02*
X92413D01*
X81013D02*
X82513D01*
X123713Y26000D02*
X124113D01*
X114713D02*
X116413D01*
X90813D02*
X92313D01*
X80913D02*
X82513D01*
X122713Y26100D02*
X124213D01*
X114713D02*
X116313D01*
X90813D02*
X92313D01*
X80913D02*
X82513D01*
X122113Y26200D02*
X124313D01*
X114713D02*
X116313D01*
X90813D02*
X92313D01*
X80913D02*
X82513D01*
X121113Y26300D02*
X124413D01*
X114713D02*
X116313D01*
X90813D02*
X92313D01*
X81013D02*
X82513D01*
X120513Y26400D02*
X124513D01*
X114713D02*
X116313D01*
X90813D02*
X92313D01*
X81013D02*
X82513D01*
X119713Y26500D02*
X124613D01*
X114613D02*
X116313D01*
X90813D02*
X92313D01*
X81013D02*
X82513D01*
X119013Y26600D02*
X124713D01*
X114613D02*
X116313D01*
X90813D02*
X92313D01*
X81013D02*
X82513D01*
X118413Y26700D02*
X124713D01*
X114613D02*
X116313D01*
X90813D02*
X92313D01*
X81013D02*
X82513D01*
X117413Y26800D02*
X124913D01*
X114613D02*
X116313D01*
X90813D02*
X92313D01*
X81013D02*
X82513D01*
X116813Y26900D02*
X124913D01*
X114613D02*
X116313D01*
X90713D02*
X92313D01*
X81013D02*
X82513D01*
X116813Y27000D02*
X125013D01*
X114613D02*
X116313D01*
X90713D02*
X92413D01*
X81013D02*
X82513D01*
X116813Y27100D02*
X125113D01*
X114613D02*
X116313D01*
X90713D02*
X92413D01*
X81013D02*
X82513D01*
X116813Y27200D02*
X125213D01*
X114613D02*
X116313D01*
X90713D02*
X92413D01*
X81013D02*
X82513D01*
X116813Y27300D02*
X125213D01*
X114613D02*
X116313D01*
X90713D02*
X92413D01*
X81013D02*
X82513D01*
X116813Y27400D02*
X125313D01*
X114613D02*
X116313D01*
X90713D02*
X92413D01*
X80913D02*
X82513D01*
X116813Y27500D02*
X125413D01*
X114613D02*
X116313D01*
X90713D02*
X92413D01*
X80913D02*
X82513D01*
X116813Y27600D02*
X125413D01*
X114613D02*
X116313D01*
X90713D02*
X92413D01*
X81013D02*
X82513D01*
X116813Y27700D02*
X125613D01*
X114613D02*
X116313D01*
X90713D02*
X92413D01*
X81013D02*
X82513D01*
X116813Y27800D02*
X125713D01*
X114613D02*
X116313D01*
X90713D02*
X92413D01*
X81013D02*
X82513D01*
X116813Y27900D02*
X125713D01*
X114613D02*
X116313D01*
X90713D02*
X92413D01*
X81013D02*
X82513D01*
X116813Y28000D02*
X125813D01*
X114613D02*
X116313D01*
X90713D02*
X92413D01*
X81013D02*
X82513D01*
X116813Y28100D02*
X125913D01*
X114613D02*
X116313D01*
X90713D02*
X92413D01*
X81013D02*
X82513D01*
X116813Y28200D02*
X125913D01*
X114613D02*
X116313D01*
X90713D02*
X92413D01*
X81013D02*
X82513D01*
X116813Y28300D02*
X126013D01*
X114513D02*
X116313D01*
X90713D02*
X92413D01*
X81013D02*
X82513D01*
X116813Y28400D02*
X126113D01*
X114513D02*
X116313D01*
X90713D02*
X92413D01*
X81013D02*
X82513D01*
X116813Y28500D02*
X126213D01*
X114413D02*
X116313D01*
X113713D02*
X114013D01*
X90713D02*
X92413D01*
X81013D02*
X82513D01*
X116813Y28600D02*
X126313D01*
X114413D02*
X116313D01*
X113613D02*
X114013D01*
X90713D02*
X92413D01*
X81013D02*
X82513D01*
X116813Y28700D02*
X126313D01*
X114413D02*
X116313D01*
X113613D02*
X114013D01*
X90713D02*
X92413D01*
X81013D02*
X82513D01*
X116813Y28800D02*
X126413D01*
X114413D02*
X116313D01*
X113513D02*
X114013D01*
X90713D02*
X92513D01*
X81013D02*
X82513D01*
X116813Y28900D02*
X126513D01*
X114413D02*
X116313D01*
X113413D02*
X114013D01*
X90713D02*
X92513D01*
X81013D02*
X82513D01*
X116813Y29000D02*
X126613D01*
X114413D02*
X116313D01*
X113313D02*
X113913D01*
X90713D02*
X92513D01*
X81013D02*
X82613D01*
X116813Y29100D02*
X126613D01*
X114413D02*
X116313D01*
X113313D02*
X113913D01*
X90713D02*
X92513D01*
X81013D02*
X82613D01*
X116813Y29200D02*
X126813D01*
X114413D02*
X116313D01*
X113213D02*
X113913D01*
X90713D02*
X92513D01*
X81013D02*
X82613D01*
X116813Y29300D02*
X126813D01*
X114413D02*
X116313D01*
X113113D02*
X113913D01*
X90713D02*
X92513D01*
X81013D02*
X82613D01*
X116813Y29400D02*
X126913D01*
X114413D02*
X116313D01*
X113013D02*
X113913D01*
X90713D02*
X92513D01*
X81013D02*
X82613D01*
X116813Y29500D02*
X127013D01*
X114413D02*
X116313D01*
X112913D02*
X113913D01*
X90713D02*
X92513D01*
X81013D02*
X82613D01*
X116813Y29600D02*
X127013D01*
X114413D02*
X116213D01*
X112913D02*
X113913D01*
X90713D02*
X92513D01*
X81013D02*
X82613D01*
X116813Y29700D02*
X127113D01*
X114313D02*
X116313D01*
X112813D02*
X113913D01*
X90713D02*
X92513D01*
X81013D02*
X82613D01*
X116813Y29800D02*
X127213D01*
X114313D02*
X116313D01*
X112713D02*
X113913D01*
X90713D02*
X92513D01*
X81013D02*
X82613D01*
X116813Y29900D02*
X127313D01*
X114313D02*
X116313D01*
X112613D02*
X113913D01*
X90713D02*
X92513D01*
X81013D02*
X82613D01*
X116813Y30000D02*
X127413D01*
X114313D02*
X116213D01*
X112513D02*
X113913D01*
X90713D02*
X92513D01*
X81013D02*
X82613D01*
X116713Y30100D02*
X127513D01*
X114313D02*
X116213D01*
X112513D02*
X113913D01*
X90713D02*
X92513D01*
X81013D02*
X82613D01*
X116713Y30200D02*
X127513D01*
X114313D02*
X116213D01*
X112413D02*
X113813D01*
X90713D02*
X92513D01*
X81013D02*
X82613D01*
X116713Y30300D02*
X127613D01*
X114313D02*
X116213D01*
X112313D02*
X113813D01*
X90713D02*
X92513D01*
X81013D02*
X82613D01*
X116713Y30400D02*
X127713D01*
X114313D02*
X116213D01*
X112213D02*
X113813D01*
X90713D02*
X92513D01*
X81013D02*
X82613D01*
X116713Y30500D02*
X127813D01*
X114313D02*
X116213D01*
X112113D02*
X113813D01*
X90713D02*
X92513D01*
X81013D02*
X82613D01*
X116713Y30600D02*
X127813D01*
X114313D02*
X116213D01*
X112113D02*
X113813D01*
X90713D02*
X92513D01*
X81013D02*
X82713D01*
X116713Y30700D02*
X127913D01*
X114313D02*
X116213D01*
X112013D02*
X113813D01*
X90713D02*
X92513D01*
X81013D02*
X82713D01*
X116713Y30800D02*
X128013D01*
X114213D02*
X116113D01*
X111913D02*
X113813D01*
X90713D02*
X92513D01*
X81013D02*
X82713D01*
X116713Y30900D02*
X128013D01*
X114213D02*
X116113D01*
X111813D02*
X113713D01*
X90713D02*
X92513D01*
X81013D02*
X82713D01*
X116713Y31000D02*
X128213D01*
X114213D02*
X116113D01*
X111713D02*
X113713D01*
X90713D02*
X92613D01*
X81013D02*
X82713D01*
X116713Y31100D02*
X128213D01*
X114213D02*
X116113D01*
X111713D02*
X113713D01*
X90713D02*
X92613D01*
X81013D02*
X82713D01*
X116713Y31200D02*
X128313D01*
X114213D02*
X116113D01*
X111613D02*
X113713D01*
X90713D02*
X92613D01*
X81013D02*
X82713D01*
X116713Y31300D02*
X128413D01*
X114113D02*
X116113D01*
X111613D02*
X113713D01*
X90713D02*
X92613D01*
X81013D02*
X82713D01*
X116713Y31400D02*
X128513D01*
X114113D02*
X116113D01*
X111413D02*
X113713D01*
X90713D02*
X92513D01*
X81013D02*
X82713D01*
X116713Y31500D02*
X128513D01*
X114113D02*
X116113D01*
X111313D02*
X113713D01*
X90713D02*
X92513D01*
X81013D02*
X82713D01*
X116713Y31600D02*
X128613D01*
X114113D02*
X116113D01*
X111313D02*
X113713D01*
X90713D02*
X92513D01*
X81013D02*
X82713D01*
X116713Y31700D02*
X128713D01*
X114113D02*
X116113D01*
X111213D02*
X113713D01*
X90713D02*
X92613D01*
X81013D02*
X82713D01*
X116713Y31800D02*
X128713D01*
X114113D02*
X116113D01*
X111113D02*
X113713D01*
X90713D02*
X92613D01*
X81013D02*
X82713D01*
X116713Y31900D02*
X128813D01*
X114113D02*
X116113D01*
X111113D02*
X113713D01*
X90713D02*
X92613D01*
X81013D02*
X82713D01*
X116713Y32000D02*
X128913D01*
X114113D02*
X116113D01*
X111013D02*
X113713D01*
X90713D02*
X92613D01*
X81013D02*
X82713D01*
X116713Y32100D02*
X129013D01*
X114113D02*
X116113D01*
X110913D02*
X113713D01*
X90713D02*
X92613D01*
X81013D02*
X82713D01*
X116713Y32200D02*
X129113D01*
X114113D02*
X116113D01*
X110813D02*
X113713D01*
X90713D02*
X92613D01*
X81013D02*
X82713D01*
X116613Y32300D02*
X129113D01*
X114113D02*
X116113D01*
X110813D02*
X113613D01*
X90713D02*
X92613D01*
X81013D02*
X82713D01*
X116613Y32400D02*
X129213D01*
X114113D02*
X116113D01*
X110713D02*
X113613D01*
X90713D02*
X92513D01*
X81013D02*
X82713D01*
X116613Y32500D02*
X129313D01*
X114113D02*
X116113D01*
X110613D02*
X113613D01*
X90713D02*
X92513D01*
X81013D02*
X82713D01*
X116613Y32600D02*
X129313D01*
X114113D02*
X116113D01*
X110513D02*
X113613D01*
X90713D02*
X92613D01*
X81013D02*
X82713D01*
X116613Y32700D02*
X129313D01*
X114113D02*
X116113D01*
X110413D02*
X113613D01*
X90713D02*
X92613D01*
X81013D02*
X82713D01*
X116613Y32800D02*
X129313D01*
X114113D02*
X116113D01*
X110413D02*
X113613D01*
X90713D02*
X92613D01*
X81013D02*
X82713D01*
X116613Y32900D02*
X129213D01*
X114113D02*
X116113D01*
X110313D02*
X113613D01*
X90713D02*
X92713D01*
X81013D02*
X82713D01*
X116613Y33000D02*
X129113D01*
X114113D02*
X116113D01*
X110213D02*
X113613D01*
X90713D02*
X92713D01*
X81013D02*
X82713D01*
X116613Y33100D02*
X129113D01*
X114013D02*
X116113D01*
X110113D02*
X113513D01*
X90713D02*
X92713D01*
X81013D02*
X82713D01*
X116613Y33200D02*
X129013D01*
X114013D02*
X116113D01*
X110013D02*
X113513D01*
X90713D02*
X92813D01*
X81013D02*
X82713D01*
X116613Y33300D02*
X128913D01*
X114013D02*
X116113D01*
X110013D02*
X113513D01*
X90813D02*
X92813D01*
X81013D02*
X82713D01*
X116613Y33400D02*
X128813D01*
X114013D02*
X116113D01*
X109913D02*
X113513D01*
X90813D02*
X92813D01*
X81013D02*
X82713D01*
X116513Y33500D02*
X128713D01*
X113913D02*
X116113D01*
X109813D02*
X113513D01*
X90913D02*
X92913D01*
X81013D02*
X82713D01*
X116513Y33600D02*
X128613D01*
X113913D02*
X116113D01*
X109713D02*
X113513D01*
X90913D02*
X93013D01*
X81013D02*
X82813D01*
X116513Y33700D02*
X128613D01*
X113913D02*
X116113D01*
X109713D02*
X113513D01*
X90913D02*
X93013D01*
X81013D02*
X82813D01*
X116513Y33800D02*
X128513D01*
X113913D02*
X116113D01*
X109613D02*
X113513D01*
X91013D02*
X93013D01*
X81013D02*
X82813D01*
X116513Y33900D02*
X128513D01*
X113913D02*
X116113D01*
X109513D02*
X113513D01*
X91013D02*
X93013D01*
X81013D02*
X82813D01*
X116513Y34000D02*
X128413D01*
X113913D02*
X116113D01*
X109413D02*
X113513D01*
X91013D02*
X93113D01*
X81013D02*
X82813D01*
X116513Y34100D02*
X128313D01*
X113913D02*
X116113D01*
X109413D02*
X113513D01*
X91113D02*
X93113D01*
X81013D02*
X82813D01*
X116513Y34200D02*
X128213D01*
X113913D02*
X116113D01*
X109213D02*
X113513D01*
X91113D02*
X93113D01*
X81013D02*
X82813D01*
X116513Y34300D02*
X128113D01*
X113913D02*
X116113D01*
X109213D02*
X113413D01*
X91213D02*
X93213D01*
X81013D02*
X82813D01*
X116513Y34400D02*
X128013D01*
X113913D02*
X116113D01*
X109213D02*
X113413D01*
X91213D02*
X93213D01*
X81013D02*
X82913D01*
X116513Y34500D02*
X127913D01*
X113913D02*
X116113D01*
X109113D02*
X113413D01*
X91213D02*
X93313D01*
X81013D02*
X82913D01*
X116513Y34600D02*
X127913D01*
X113913D02*
X116113D01*
X109013D02*
X113413D01*
X91213D02*
X93313D01*
X81013D02*
X83013D01*
X116513Y34700D02*
X127813D01*
X113913D02*
X116113D01*
X109013D02*
X113413D01*
X91313D02*
X93313D01*
X81113D02*
X83213D01*
X116513Y34800D02*
X127713D01*
X113913D02*
X116113D01*
X109013D02*
X113413D01*
X91313D02*
X93313D01*
X81113D02*
X83413D01*
X116513Y34900D02*
X127713D01*
X113913D02*
X116113D01*
X109013D02*
X113413D01*
X91413D02*
X93413D01*
X81313D02*
X83513D01*
X116513Y35000D02*
X127613D01*
X113813D02*
X116113D01*
X109013D02*
X113313D01*
X91413D02*
X93413D01*
X81413D02*
X83713D01*
X116513Y35100D02*
X127513D01*
X113813D02*
X116113D01*
X109013D02*
X113313D01*
X91413D02*
X93413D01*
X81513D02*
X83913D01*
X116513Y35200D02*
X127513D01*
X113813D02*
X116113D01*
X109113D02*
X113313D01*
X91413D02*
X93513D01*
X81613D02*
X84013D01*
X116513Y35300D02*
X127413D01*
X113813D02*
X116113D01*
X109113D02*
X113313D01*
X91413D02*
X93513D01*
X81713D02*
X84213D01*
X116513Y35400D02*
X127313D01*
X113813D02*
X116113D01*
X109113D02*
X113313D01*
X91513D02*
X93613D01*
X81813D02*
X84313D01*
X116513Y35500D02*
X127213D01*
X113813D02*
X116013D01*
X109113D02*
X113313D01*
X91613D02*
X93613D01*
X81913D02*
X84513D01*
X116513Y35600D02*
X127113D01*
X113713D02*
X116013D01*
X109113D02*
X113213D01*
X91613D02*
X93713D01*
X82013D02*
X84613D01*
X116513Y35700D02*
X127113D01*
X113713D02*
X116013D01*
X109113D02*
X113213D01*
X91613D02*
X93713D01*
X82213D02*
X84813D01*
X116513Y35800D02*
X127013D01*
X113613D02*
X116013D01*
X109113D02*
X113213D01*
X91613D02*
X93713D01*
X82213D02*
X85013D01*
X116513Y35900D02*
X126913D01*
X113613D02*
X116013D01*
X109213D02*
X113213D01*
X91613D02*
X93813D01*
X82413D02*
X85213D01*
X116513Y36000D02*
X126813D01*
X113613D02*
X115913D01*
X109213D02*
X113213D01*
X91713D02*
X93813D01*
X82513D02*
X85313D01*
X116413Y36100D02*
X126813D01*
X113613D02*
X115913D01*
X109213D02*
X113213D01*
X91713D02*
X93813D01*
X82613D02*
X85513D01*
X116413Y36200D02*
X126713D01*
X113613D02*
X115913D01*
X109213D02*
X113113D01*
X91813D02*
X93913D01*
X82713D02*
X85713D01*
X116313Y36300D02*
X126613D01*
X113613D02*
X115913D01*
X109213D02*
X113113D01*
X91813D02*
X93913D01*
X82813D02*
X85813D01*
X116313Y36400D02*
X126513D01*
X113613D02*
X115913D01*
X109213D02*
X113113D01*
X91813D02*
X93913D01*
X83013D02*
X86013D01*
X116313Y36500D02*
X126413D01*
X113513D02*
X115913D01*
X109313D02*
X113013D01*
X91813D02*
X94013D01*
X83113D02*
X86113D01*
X116313Y36600D02*
X126313D01*
X113413D02*
X115813D01*
X109313D02*
X113013D01*
X91913D02*
X94013D01*
X83213D02*
X86313D01*
X116313Y36700D02*
X126313D01*
X113413D02*
X115813D01*
X109313D02*
X113013D01*
X91913D02*
X94113D01*
X83313D02*
X86413D01*
X116313Y36800D02*
X126213D01*
X113413D02*
X115813D01*
X109313D02*
X113013D01*
X92013D02*
X94113D01*
X83413D02*
X86613D01*
X116313Y36900D02*
X126113D01*
X113413D02*
X115713D01*
X109313D02*
X113013D01*
X92013D02*
X94113D01*
X83513D02*
X86813D01*
X116313Y37000D02*
X126013D01*
X113413D02*
X115713D01*
X109313D02*
X112913D01*
X92113D02*
X94213D01*
X83613D02*
X86913D01*
X116213Y37100D02*
X126013D01*
X113413D02*
X115713D01*
X109313D02*
X112913D01*
X92113D02*
X94213D01*
X83713D02*
X87113D01*
X116213Y37200D02*
X125913D01*
X113413D02*
X115713D01*
X109313D02*
X112913D01*
X92113D02*
X94213D01*
X83813D02*
X87213D01*
X116213Y37300D02*
X125813D01*
X113313D02*
X115613D01*
X109413D02*
X112813D01*
X92113D02*
X94313D01*
X83913D02*
X87413D01*
X116113Y37400D02*
X125813D01*
X113313D02*
X115613D01*
X109413D02*
X112813D01*
X92213D02*
X94313D01*
X84013D02*
X87613D01*
X116113Y37500D02*
X125713D01*
X113313D02*
X115613D01*
X109413D02*
X112813D01*
X92213D02*
X94413D01*
X84213D02*
X87813D01*
X116113Y37600D02*
X125613D01*
X113213D02*
X115613D01*
X109413D02*
X112713D01*
X92313D02*
X94413D01*
X84313D02*
X87913D01*
X116013Y37700D02*
X125513D01*
X113213D02*
X115613D01*
X109413D02*
X112713D01*
X92313D02*
X94413D01*
X84413D02*
X88113D01*
X116013Y37800D02*
X125413D01*
X113213D02*
X115613D01*
X109413D02*
X112713D01*
X92313D02*
X94413D01*
X84513D02*
X88313D01*
X116013Y37900D02*
X125413D01*
X113113D02*
X115613D01*
X109413D02*
X112713D01*
X92313D02*
X94513D01*
X84613D02*
X88413D01*
X116013Y38000D02*
X125313D01*
X113113D02*
X115513D01*
X109413D02*
X112713D01*
X92313D02*
X94513D01*
X84713D02*
X88613D01*
X116013Y38100D02*
X125213D01*
X113113D02*
X115513D01*
X109513D02*
X112713D01*
X92413D02*
X94613D01*
X84813D02*
X88713D01*
X116013Y38200D02*
X125213D01*
X113113D02*
X115513D01*
X109513D02*
X112613D01*
X92413D02*
X94613D01*
X84913D02*
X88913D01*
X116013Y38300D02*
X125113D01*
X113113D02*
X115513D01*
X109513D02*
X112613D01*
X92513D02*
X94613D01*
X85113D02*
X89013D01*
X115913Y38400D02*
X125013D01*
X113113D02*
X115413D01*
X109513D02*
X112613D01*
X92513D02*
X94713D01*
X85213D02*
X89213D01*
X115913Y38500D02*
X124913D01*
X113013D02*
X115413D01*
X109513D02*
X112513D01*
X92613D02*
X94713D01*
X85313D02*
X89313D01*
X115913Y38600D02*
X124813D01*
X113013D02*
X115413D01*
X109513D02*
X112513D01*
X92613D02*
X94713D01*
X85413D02*
X89513D01*
X115813Y38700D02*
X124713D01*
X112913D02*
X115413D01*
X109613D02*
X112513D01*
X92613D02*
X94713D01*
X85513D02*
X89713D01*
X115813Y38800D02*
X124713D01*
X112913D02*
X115413D01*
X109613D02*
X112513D01*
X92613D02*
X94813D01*
X85613D02*
X89813D01*
X115813Y38900D02*
X124613D01*
X112913D02*
X115413D01*
X109613D02*
X112513D01*
X92613D02*
X94913D01*
X85713D02*
X90013D01*
X115813Y39000D02*
X124513D01*
X112913D02*
X115313D01*
X109613D02*
X112413D01*
X103713D02*
X104913D01*
X92713D02*
X94913D01*
X85813D02*
X90213D01*
X115813Y39100D02*
X124413D01*
X112913D02*
X115313D01*
X109613D02*
X112413D01*
X102813D02*
X105213D01*
X102413D02*
X102613D01*
X101913D02*
X102113D01*
X92713D02*
X94913D01*
X85913D02*
X90313D01*
X115813Y39200D02*
X124413D01*
X112913D02*
X115313D01*
X109613D02*
X112413D01*
X101313D02*
X105313D01*
X92813D02*
X95013D01*
X86013D02*
X90513D01*
X115813Y39300D02*
X124313D01*
X112813D02*
X115313D01*
X109713D02*
X112313D01*
X99413D02*
X105413D01*
X92813D02*
X95013D01*
X86113D02*
X90613D01*
X115813Y39400D02*
X124213D01*
X112813D02*
X115213D01*
X109713D02*
X112313D01*
X98413D02*
X105613D01*
X92813D02*
X95013D01*
X86213D02*
X90813D01*
X115713Y39500D02*
X124113D01*
X112713D02*
X115213D01*
X109713D02*
X112313D01*
X96313D02*
X105813D01*
X95613D02*
X96013D01*
X92913D02*
X95013D01*
X86413D02*
X91013D01*
X115713Y39600D02*
X124013D01*
X112713D02*
X115213D01*
X109713D02*
X112313D01*
X95613D02*
X106013D01*
X92913D02*
X95113D01*
X86513D02*
X91113D01*
X115713Y39700D02*
X123913D01*
X112713D02*
X115213D01*
X109713D02*
X112213D01*
X95613D02*
X106113D01*
X92913D02*
X95113D01*
X86613D02*
X91313D01*
X115613Y39800D02*
X123913D01*
X112713D02*
X115113D01*
X109813D02*
X112313D01*
X95713D02*
X106313D01*
X93013D02*
X95113D01*
X92213D02*
X92513D01*
X86713D02*
X91513D01*
X115613Y39900D02*
X123813D01*
X112613D02*
X115113D01*
X109813D02*
X112313D01*
X95713D02*
X106413D01*
X93013D02*
X95213D01*
X92213D02*
X92513D01*
X86813D02*
X91613D01*
X115613Y40000D02*
X123713D01*
X112713D02*
X115113D01*
X109813D02*
X112213D01*
X95713D02*
X106613D01*
X93013D02*
X95213D01*
X92213D02*
X92613D01*
X86913D02*
X91613D01*
X115613Y40100D02*
X123713D01*
X112713D02*
X115113D01*
X109813D02*
X112213D01*
X95813D02*
X106813D01*
X93113D02*
X95313D01*
X92213D02*
X92613D01*
X87013D02*
X91613D01*
X115613Y40200D02*
X123613D01*
X112613D02*
X115113D01*
X109813D02*
X112113D01*
X95813D02*
X106913D01*
X93113D02*
X95313D01*
X92213D02*
X92613D01*
X87113D02*
X91713D01*
X115613Y40300D02*
X123513D01*
X112613D02*
X115113D01*
X109813D02*
X112113D01*
X95913D02*
X107113D01*
X93113D02*
X95413D01*
X92213D02*
X92713D01*
X87313D02*
X91713D01*
X75613D02*
X76013D01*
X115613Y40400D02*
X123513D01*
X112613D02*
X115113D01*
X109813D02*
X112113D01*
X95913D02*
X107213D01*
X93113D02*
X95413D01*
X92213D02*
X92713D01*
X87413D02*
X91713D01*
X75513D02*
X76313D01*
X115513Y40500D02*
X123413D01*
X112513D02*
X115013D01*
X109813D02*
X112013D01*
X95913D02*
X107413D01*
X93213D02*
X95413D01*
X92213D02*
X92813D01*
X87513D02*
X91713D01*
X75513D02*
X76513D01*
X115513Y40600D02*
X123313D01*
X112513D02*
X115013D01*
X109813D02*
X112013D01*
X96013D02*
X107513D01*
X93213D02*
X95513D01*
X92213D02*
X92813D01*
X87613D02*
X91713D01*
X75413D02*
X76913D01*
X115513Y40700D02*
X123213D01*
X112513D02*
X115013D01*
X109913D02*
X112013D01*
X96013D02*
X107713D01*
X93313D02*
X95513D01*
X92213D02*
X92813D01*
X87713D02*
X91713D01*
X75313D02*
X77213D01*
X115513Y40800D02*
X123113D01*
X112413D02*
X114913D01*
X109913D02*
X112013D01*
X96013D02*
X107913D01*
X93313D02*
X95613D01*
X92213D02*
X92813D01*
X87913D02*
X91713D01*
X75213D02*
X77513D01*
X115413Y40900D02*
X123013D01*
X112413D02*
X114913D01*
X109913D02*
X112013D01*
X96113D02*
X108013D01*
X93313D02*
X95613D01*
X92213D02*
X92813D01*
X87913D02*
X91713D01*
X75113D02*
X77813D01*
X115413Y41000D02*
X123013D01*
X112413D02*
X114913D01*
X109913D02*
X112013D01*
X96113D02*
X108213D01*
X93313D02*
X95613D01*
X92213D02*
X92913D01*
X88113D02*
X91713D01*
X75013D02*
X78113D01*
X115413Y41100D02*
X122913D01*
X112413D02*
X114913D01*
X109913D02*
X112013D01*
X96213D02*
X108413D01*
X93413D02*
X95713D01*
X92213D02*
X92913D01*
X88213D02*
X91713D01*
X74913D02*
X78413D01*
X115413Y41200D02*
X122813D01*
X112313D02*
X114913D01*
X110013D02*
X111913D01*
X96213D02*
X108513D01*
X93413D02*
X95713D01*
X92313D02*
X93013D01*
X88313D02*
X91713D01*
X74913D02*
X78613D01*
X115313Y41300D02*
X122713D01*
X112313D02*
X114913D01*
X110013D02*
X111913D01*
X96213D02*
X108713D01*
X93413D02*
X95713D01*
X92313D02*
X93013D01*
X88413D02*
X91713D01*
X74813D02*
X78913D01*
X115313Y41400D02*
X122713D01*
X112313D02*
X114913D01*
X110013D02*
X111813D01*
X96213D02*
X108913D01*
X93513D02*
X95713D01*
X92313D02*
X93013D01*
X88513D02*
X91713D01*
X74713D02*
X79313D01*
X115313Y41500D02*
X122613D01*
X112313D02*
X114813D01*
X110013D02*
X111813D01*
X96313D02*
X109013D01*
X93513D02*
X95813D01*
X92313D02*
X93113D01*
X88613D02*
X91813D01*
X74613D02*
X79513D01*
X115313Y41600D02*
X122513D01*
X112213D02*
X114813D01*
X110013D02*
X111813D01*
X96313D02*
X109213D01*
X93613D02*
X95813D01*
X92313D02*
X93113D01*
X88613D02*
X91813D01*
X74513D02*
X79813D01*
X115313Y41700D02*
X122413D01*
X112213D02*
X114813D01*
X110013D02*
X111813D01*
X96413D02*
X109313D01*
X93613D02*
X95813D01*
X92313D02*
X93113D01*
X88613D02*
X91813D01*
X74513D02*
X80113D01*
X115313Y41800D02*
X122313D01*
X112213D02*
X114813D01*
X110013D02*
X111813D01*
X96413D02*
X109513D01*
X93613D02*
X95913D01*
X92313D02*
X93213D01*
X88713D02*
X91813D01*
X74413D02*
X80413D01*
X115313Y41900D02*
X122213D01*
X112213D02*
X114713D01*
X110013D02*
X111813D01*
X96413D02*
X109613D01*
X93613D02*
X95913D01*
X92313D02*
X93213D01*
X88713D02*
X91813D01*
X74313D02*
X80713D01*
X115213Y42000D02*
X122213D01*
X112213D02*
X114713D01*
X96513D02*
X111713D01*
X93713D02*
X96013D01*
X92313D02*
X93213D01*
X88713D02*
X91813D01*
X74213D02*
X80913D01*
X115213Y42100D02*
X122113D01*
X112213D02*
X114713D01*
X96513D02*
X111713D01*
X93713D02*
X96013D01*
X92313D02*
X93313D01*
X88813D02*
X91813D01*
X74113D02*
X81313D01*
X115113Y42200D02*
X122013D01*
X112113D02*
X114713D01*
X96513D02*
X111713D01*
X93813D02*
X96113D01*
X92313D02*
X93313D01*
X88913D02*
X91813D01*
X74013D02*
X81513D01*
X115113Y42300D02*
X122013D01*
X112113D02*
X114713D01*
X96613D02*
X111613D01*
X93813D02*
X96113D01*
X92313D02*
X93313D01*
X88913D02*
X91813D01*
X74013D02*
X81913D01*
X115113Y42400D02*
X121913D01*
X112113D02*
X114613D01*
X96613D02*
X111613D01*
X93813D02*
X96113D01*
X92313D02*
X93313D01*
X88913D02*
X91813D01*
X74013D02*
X82113D01*
X115113Y42500D02*
X121813D01*
X112013D02*
X114613D01*
X96713D02*
X111513D01*
X93813D02*
X96113D01*
X92313D02*
X93413D01*
X88913D02*
X91813D01*
X74013D02*
X82413D01*
X115113Y42600D02*
X121613D01*
X112013D02*
X114613D01*
X96713D02*
X111613D01*
X93913D02*
X96213D01*
X92313D02*
X93413D01*
X88913D02*
X91813D01*
X74113D02*
X82713D01*
X115113Y42700D02*
X121313D01*
X112013D02*
X114613D01*
X96713D02*
X111613D01*
X93913D02*
X96213D01*
X92313D02*
X93513D01*
X89013D02*
X91813D01*
X74113D02*
X83013D01*
X115113Y42800D02*
X120813D01*
X111913D02*
X114513D01*
X96713D02*
X111513D01*
X94013D02*
X96313D01*
X92413D02*
X93513D01*
X89013D02*
X91813D01*
X74113D02*
X83313D01*
X115113Y42900D02*
X120613D01*
X111913D02*
X114513D01*
X96813D02*
X111513D01*
X94013D02*
X96313D01*
X92413D02*
X93513D01*
X89113D02*
X91813D01*
X74213D02*
X83613D01*
X115113Y43000D02*
X120213D01*
X111913D02*
X114513D01*
X96813D02*
X111513D01*
X94013D02*
X96313D01*
X92413D02*
X93613D01*
X89213D02*
X91813D01*
X74213D02*
X83913D01*
X115013Y43100D02*
X119913D01*
X111913D02*
X114513D01*
X96913D02*
X111413D01*
X94113D02*
X96313D01*
X92413D02*
X93613D01*
X89213D02*
X91913D01*
X88513D02*
X88713D01*
X74213D02*
X84213D01*
X115013Y43200D02*
X119613D01*
X111913D02*
X114513D01*
X96913D02*
X111413D01*
X94113D02*
X96413D01*
X92413D02*
X93613D01*
X89213D02*
X91913D01*
X88513D02*
X88713D01*
X74213D02*
X84513D01*
X115013Y43300D02*
X119213D01*
X111913D02*
X114413D01*
X96913D02*
X111413D01*
X94113D02*
X96413D01*
X92413D02*
X93713D01*
X89213D02*
X91913D01*
X88413D02*
X88813D01*
X74313D02*
X84813D01*
X114913Y43400D02*
X118913D01*
X111813D02*
X114413D01*
X97013D02*
X111313D01*
X94113D02*
X96413D01*
X92413D02*
X93713D01*
X89313D02*
X91913D01*
X88413D02*
X88813D01*
X74313D02*
X85113D01*
X114913Y43500D02*
X118613D01*
X111813D02*
X114413D01*
X97013D02*
X111313D01*
X94213D02*
X96513D01*
X92513D02*
X93713D01*
X89313D02*
X91913D01*
X88413D02*
X88813D01*
X74313D02*
X85313D01*
X114913Y43600D02*
X118113D01*
X111713D02*
X114413D01*
X97013D02*
X111313D01*
X94213D02*
X96613D01*
X92513D02*
X93813D01*
X89313D02*
X91913D01*
X88413D02*
X88913D01*
X74313D02*
X85613D01*
X114913Y43700D02*
X117913D01*
X111713D02*
X114413D01*
X97113D02*
X111313D01*
X94213D02*
X96613D01*
X92513D02*
X93813D01*
X89413D02*
X91913D01*
X88413D02*
X88913D01*
X74313D02*
X85813D01*
X114913Y43800D02*
X117513D01*
X111713D02*
X114413D01*
X97113D02*
X111313D01*
X94313D02*
X96613D01*
X92513D02*
X93813D01*
X89413D02*
X91913D01*
X88413D02*
X89013D01*
X74413D02*
X86213D01*
X114813Y43900D02*
X117313D01*
X111713D02*
X114313D01*
X97213D02*
X111313D01*
X94313D02*
X96713D01*
X92513D02*
X93913D01*
X89513D02*
X92013D01*
X88413D02*
X89013D01*
X74413D02*
X86513D01*
X114813Y44000D02*
X116813D01*
X111713D02*
X114313D01*
X97213D02*
X111213D01*
X94413D02*
X96713D01*
X92513D02*
X93913D01*
X89513D02*
X92013D01*
X88413D02*
X89013D01*
X74413D02*
X86813D01*
X114813Y44100D02*
X116513D01*
X111713D02*
X114313D01*
X97213D02*
X111213D01*
X94413D02*
X96713D01*
X92513D02*
X93913D01*
X89513D02*
X92013D01*
X88413D02*
X89113D01*
X74413D02*
X87113D01*
X114813Y44200D02*
X116113D01*
X111613D02*
X114213D01*
X97213D02*
X111213D01*
X94413D02*
X96813D01*
X92513D02*
X94013D01*
X89513D02*
X92013D01*
X88413D02*
X89113D01*
X74513D02*
X87413D01*
X114813Y44300D02*
X115813D01*
X111613D02*
X114213D01*
X97313D02*
X111113D01*
X94513D02*
X96813D01*
X92513D02*
X94013D01*
X89613D02*
X92013D01*
X88413D02*
X89113D01*
X74513D02*
X87613D01*
X114813Y44400D02*
X115513D01*
X111613D02*
X114213D01*
X97413D02*
X111113D01*
X94513D02*
X96813D01*
X92513D02*
X94013D01*
X89613D02*
X92013D01*
X88413D02*
X89213D01*
X74513D02*
X88013D01*
X114813Y44500D02*
X115113D01*
X111513D02*
X114213D01*
X97413D02*
X111113D01*
X94513D02*
X96913D01*
X92513D02*
X94013D01*
X89713D02*
X92013D01*
X88313D02*
X89213D01*
X74513D02*
X88113D01*
X111513Y44600D02*
X114213D01*
X97413D02*
X111113D01*
X94513D02*
X96913D01*
X92513D02*
X94113D01*
X89713D02*
X92013D01*
X74513D02*
X89213D01*
X111513Y44700D02*
X114213D01*
X97413D02*
X111113D01*
X94613D02*
X96913D01*
X92513D02*
X94113D01*
X89813D02*
X92013D01*
X74513D02*
X89313D01*
X111513Y44800D02*
X114113D01*
X97413D02*
X111113D01*
X94613D02*
X97013D01*
X92513D02*
X94213D01*
X89813D02*
X92013D01*
X74613D02*
X89313D01*
X111513Y44900D02*
X114113D01*
X97513D02*
X111013D01*
X94713D02*
X97013D01*
X92513D02*
X94213D01*
X89813D02*
X92113D01*
X74613D02*
X89413D01*
X67813D02*
X68013D01*
X111513Y45000D02*
X114113D01*
X97613D02*
X111013D01*
X94713D02*
X97013D01*
X92513D02*
X94213D01*
X89913D02*
X92113D01*
X74613D02*
X89413D01*
X67813D02*
X68113D01*
X111413Y45100D02*
X114113D01*
X97613D02*
X110913D01*
X94713D02*
X97113D01*
X92513D02*
X94313D01*
X89913D02*
X92113D01*
X74613D02*
X89413D01*
X67913D02*
X68213D01*
X111413Y45200D02*
X114013D01*
X97613D02*
X110913D01*
X94813D02*
X97113D01*
X92513D02*
X94313D01*
X89913D02*
X92113D01*
X74613D02*
X89513D01*
X68013D02*
X68413D01*
X111413Y45300D02*
X114013D01*
X97713D02*
X110913D01*
X94813D02*
X97213D01*
X92513D02*
X94313D01*
X90013D02*
X92113D01*
X74713D02*
X89513D01*
X68113D02*
X68613D01*
X111313Y45400D02*
X114013D01*
X97713D02*
X110813D01*
X94813D02*
X97213D01*
X92513D02*
X94413D01*
X90013D02*
X92113D01*
X74713D02*
X89613D01*
X68213D02*
X68713D01*
X111313Y45500D02*
X114013D01*
X97713D02*
X110813D01*
X94913D02*
X97313D01*
X92513D02*
X94413D01*
X90013D02*
X92113D01*
X74813D02*
X89613D01*
X68313D02*
X68813D01*
X111313Y45600D02*
X114013D01*
X97813D02*
X110813D01*
X94913D02*
X97313D01*
X92513D02*
X94413D01*
X90113D02*
X92113D01*
X74813D02*
X89613D01*
X68413D02*
X69013D01*
X111213Y45700D02*
X113913D01*
X97813D02*
X110813D01*
X94913D02*
X97313D01*
X92513D02*
X94513D01*
X90113D02*
X92113D01*
X74813D02*
X89713D01*
X68513D02*
X69113D01*
X111213Y45800D02*
X113913D01*
X97913D02*
X110813D01*
X95013D02*
X97413D01*
X92613D02*
X94513D01*
X90213D02*
X92113D01*
X74813D02*
X89713D01*
X68613D02*
X69213D01*
X111213Y45900D02*
X113913D01*
X97913D02*
X110713D01*
X95013D02*
X97413D01*
X92613D02*
X94513D01*
X90213D02*
X92113D01*
X74813D02*
X89713D01*
X68713D02*
X69313D01*
X111213Y46000D02*
X113913D01*
X97913D02*
X110713D01*
X95013D02*
X97413D01*
X92613D02*
X94513D01*
X90213D02*
X92113D01*
X74813D02*
X89813D01*
X68813D02*
X69413D01*
X111213Y46100D02*
X113813D01*
X97913D02*
X110713D01*
X95113D02*
X97413D01*
X92613D02*
X94613D01*
X90313D02*
X92113D01*
X74813D02*
X89813D01*
X68913D02*
X69513D01*
X111213Y46200D02*
X113813D01*
X97913D02*
X110713D01*
X95113D02*
X97513D01*
X92613D02*
X94613D01*
X90313D02*
X92113D01*
X74913D02*
X89813D01*
X69113D02*
X69713D01*
X111113Y46300D02*
X113813D01*
X98013D02*
X110613D01*
X95213D02*
X97513D01*
X92613D02*
X94713D01*
X90413D02*
X92113D01*
X74913D02*
X89913D01*
X69213D02*
X69813D01*
X111113Y46400D02*
X113813D01*
X98113D02*
X110613D01*
X95213D02*
X97513D01*
X92613D02*
X94713D01*
X90413D02*
X92113D01*
X74913D02*
X89913D01*
X69313D02*
X69913D01*
X111013Y46500D02*
X113713D01*
X98113D02*
X110613D01*
X95213D02*
X97613D01*
X92613D02*
X94713D01*
X90413D02*
X92113D01*
X74913D02*
X89913D01*
X69413D02*
X70013D01*
X111013Y46600D02*
X113713D01*
X98113D02*
X110613D01*
X95213D02*
X97613D01*
X92713D02*
X94713D01*
X90513D02*
X92113D01*
X75013D02*
X90013D01*
X69513D02*
X70113D01*
X111013Y46700D02*
X113713D01*
X98113D02*
X110613D01*
X95313D02*
X97713D01*
X92713D02*
X94813D01*
X90513D02*
X92213D01*
X75013D02*
X90113D01*
X69613D02*
X70313D01*
X111013Y46800D02*
X113713D01*
X98213D02*
X110613D01*
X95313D02*
X97713D01*
X92713D02*
X94813D01*
X90513D02*
X92213D01*
X75013D02*
X90113D01*
X69713D02*
X70413D01*
X111013Y46900D02*
X113613D01*
X98213D02*
X110513D01*
X95313D02*
X97813D01*
X92713D02*
X94913D01*
X90613D02*
X92213D01*
X75113D02*
X90113D01*
X69813D02*
X70513D01*
X111013Y47000D02*
X113613D01*
X98313D02*
X110513D01*
X95413D02*
X97813D01*
X92713D02*
X94913D01*
X90613D02*
X92213D01*
X75113D02*
X90113D01*
X69913D02*
X70613D01*
X110913Y47100D02*
X113613D01*
X98313D02*
X110513D01*
X95513D02*
X97813D01*
X92713D02*
X95013D01*
X90613D02*
X92213D01*
X75113D02*
X90213D01*
X70013D02*
X70713D01*
X110913Y47200D02*
X113613D01*
X98413D02*
X110413D01*
X95613D02*
X97913D01*
X92713D02*
X95013D01*
X90713D02*
X92213D01*
X75113D02*
X90213D01*
X70113D02*
X70813D01*
X110913Y47300D02*
X113513D01*
X98413D02*
X110413D01*
X95713D02*
X97913D01*
X92713D02*
X95013D01*
X90713D02*
X92213D01*
X75213D02*
X90313D01*
X70313D02*
X71013D01*
X110813Y47400D02*
X113513D01*
X98413D02*
X110413D01*
X95913D02*
X97913D01*
X92713D02*
X95213D01*
X90813D02*
X92213D01*
X75313D02*
X90313D01*
X70413D02*
X71113D01*
X110813Y47500D02*
X113513D01*
X98413D02*
X110313D01*
X96013D02*
X98013D01*
X92713D02*
X95313D01*
X90913D02*
X92213D01*
X75413D02*
X90413D01*
X70513D02*
X71213D01*
X110813Y47600D02*
X113513D01*
X98513D02*
X110313D01*
X96113D02*
X98013D01*
X92713D02*
X95413D01*
X91013D02*
X92213D01*
X75613D02*
X90413D01*
X70613D02*
X71313D01*
X110813Y47700D02*
X113513D01*
X98513D02*
X110313D01*
X96213D02*
X98013D01*
X92713D02*
X95513D01*
X91113D02*
X92213D01*
X75713D02*
X90513D01*
X70713D02*
X71413D01*
X110813Y47800D02*
X113413D01*
X98613D02*
X110313D01*
X96313D02*
X98113D01*
X92713D02*
X95613D01*
X91213D02*
X92313D01*
X75913D02*
X90613D01*
X70813D02*
X71613D01*
X110813Y47900D02*
X113413D01*
X98613D02*
X110313D01*
X96413D02*
X98113D01*
X92713D02*
X95813D01*
X91313D02*
X92313D01*
X76013D02*
X90713D01*
X70913D02*
X71813D01*
X110713Y48000D02*
X113413D01*
X104513D02*
X110213D01*
X98613D02*
X104313D01*
X96613D02*
X98113D01*
X92713D02*
X95913D01*
X91413D02*
X92313D01*
X76113D02*
X90813D01*
X71013D02*
X71913D01*
X110713Y48100D02*
X113413D01*
X104713D02*
X110213D01*
X98713D02*
X104113D01*
X96613D02*
X98213D01*
X92713D02*
X96013D01*
X91513D02*
X92313D01*
X76213D02*
X90913D01*
X71113D02*
X72013D01*
X110713Y48200D02*
X113313D01*
X104913D02*
X110213D01*
X98713D02*
X103913D01*
X96713D02*
X98213D01*
X92713D02*
X96113D01*
X91713D02*
X92313D01*
X76413D02*
X91013D01*
X71313D02*
X72113D01*
X110713Y48300D02*
X113313D01*
X105213D02*
X110113D01*
X98713D02*
X103613D01*
X96913D02*
X98213D01*
X92713D02*
X96213D01*
X91713D02*
X92313D01*
X88713D02*
X91113D01*
X76513D02*
X88313D01*
X71413D02*
X72213D01*
X110613Y48400D02*
X113313D01*
X105513D02*
X110113D01*
X98813D02*
X103213D01*
X97013D02*
X98313D01*
X92813D02*
X96313D01*
X91913D02*
X92313D01*
X89113D02*
X91213D01*
X76613D02*
X88113D01*
X71513D02*
X72313D01*
X110613Y48500D02*
X113213D01*
X105713D02*
X110113D01*
X98813D02*
X103113D01*
X97113D02*
X98313D01*
X92813D02*
X96413D01*
X91913D02*
X92313D01*
X89913D02*
X91313D01*
X76713D02*
X88013D01*
X71613D02*
X72513D01*
X110513Y48600D02*
X113213D01*
X106013D02*
X110113D01*
X98913D02*
X102713D01*
X97213D02*
X98313D01*
X92713D02*
X96613D01*
X92013D02*
X92313D01*
X90513D02*
X91313D01*
X76913D02*
X87913D01*
X71713D02*
X72613D01*
X110513Y48700D02*
X113213D01*
X106213D02*
X110113D01*
X98913D02*
X102513D01*
X97413D02*
X98413D01*
X92713D02*
X96713D01*
X77013D02*
X87813D01*
X71813D02*
X72713D01*
X110513Y48800D02*
X113213D01*
X106513D02*
X110013D01*
X98913D02*
X102213D01*
X97513D02*
X98513D01*
X92713D02*
X96813D01*
X77213D02*
X87613D01*
X71913D02*
X72913D01*
X110513Y48900D02*
X113213D01*
X106813D02*
X110013D01*
X98913D02*
X101913D01*
X97613D02*
X98513D01*
X92813D02*
X96913D01*
X77213D02*
X87413D01*
X72013D02*
X73013D01*
X110513Y49000D02*
X113213D01*
X107013D02*
X110013D01*
X99013D02*
X101613D01*
X97713D02*
X98513D01*
X93013D02*
X97013D01*
X77113D02*
X87313D01*
X72113D02*
X73113D01*
X110513Y49100D02*
X112913D01*
X107413D02*
X110013D01*
X99113D02*
X101413D01*
X97913D02*
X98613D01*
X93413D02*
X97213D01*
X77113D02*
X87213D01*
X72213D02*
X73213D01*
X110413Y49200D02*
X112613D01*
X107613D02*
X109913D01*
X99113D02*
X101113D01*
X98013D02*
X98613D01*
X94213D02*
X97313D01*
X77213D02*
X87013D01*
X72313D02*
X73313D01*
X110413Y49300D02*
X112213D01*
X107913D02*
X109913D01*
X99113D02*
X100813D01*
X98113D02*
X98613D01*
X94813D02*
X97413D01*
X77113D02*
X86913D01*
X72413D02*
X73413D01*
X110413Y49400D02*
X111913D01*
X108113D02*
X109813D01*
X99113D02*
X100613D01*
X98213D02*
X98613D01*
X95413D02*
X97613D01*
X76913D02*
X86813D01*
X72513D02*
X73613D01*
X110313Y49500D02*
X111613D01*
X108413D02*
X109813D01*
X99213D02*
X100213D01*
X98313D02*
X98613D01*
X96013D02*
X97613D01*
X76913D02*
X86613D01*
X72713D02*
X73713D01*
X110313Y49600D02*
X111313D01*
X108713D02*
X109813D01*
X99313D02*
X100013D01*
X98413D02*
X98613D01*
X96413D02*
X97713D01*
X76813D02*
X86513D01*
X72813D02*
X73813D01*
X110313Y49700D02*
X111013D01*
X109013D02*
X109813D01*
X99313D02*
X99613D01*
X97213D02*
X97713D01*
X79213D02*
X86313D01*
X76713D02*
X78813D01*
X72913D02*
X73913D01*
X110413Y49800D02*
X110613D01*
X109313D02*
X109813D01*
X99313D02*
X99513D01*
X79313D02*
X86213D01*
X76613D02*
X78713D01*
X73013D02*
X74113D01*
X79513Y49900D02*
X86113D01*
X76513D02*
X78613D01*
X73113D02*
X74213D01*
X79813Y50000D02*
X85913D01*
X76413D02*
X78513D01*
X73213D02*
X74313D01*
X79913Y50100D02*
X85813D01*
X76313D02*
X78313D01*
X73413D02*
X74413D01*
X80113Y50200D02*
X85613D01*
X76213D02*
X78213D01*
X73513D02*
X74613D01*
X80313Y50300D02*
X85513D01*
X76213D02*
X78113D01*
X73613D02*
X74713D01*
X80513Y50400D02*
X85413D01*
X76113D02*
X78013D01*
X73713D02*
X74913D01*
X80713Y50500D02*
X85213D01*
X76013D02*
X77913D01*
X73813D02*
X75013D01*
X80913Y50600D02*
X85113D01*
X75913D02*
X77713D01*
X73913D02*
X75213D01*
X81013Y50700D02*
X84913D01*
X75813D02*
X77613D01*
X74013D02*
X75313D01*
X81213Y50800D02*
X84813D01*
X74113D02*
X77513D01*
X81413Y50900D02*
X84713D01*
X74213D02*
X77413D01*
X81613Y51000D02*
X84513D01*
X74313D02*
X77313D01*
X81813Y51100D02*
X84413D01*
X74413D02*
X77113D01*
X82013Y51200D02*
X84213D01*
X74613D02*
X77013D01*
X82213Y51300D02*
X84113D01*
X74813D02*
X76913D01*
X82313Y51400D02*
X84013D01*
X75313D02*
X76813D01*
X82613Y51500D02*
X83813D01*
X75713D02*
X76713D01*
X82713Y51600D02*
X83713D01*
X76313D02*
X76513D01*
X83013Y51700D02*
X83613D01*
D16*
X116142Y90669D02*
D03*
D17*
X104331D02*
D03*
X92520D02*
D03*
X80709D02*
D03*
X116142Y102480D02*
D03*
X104331D02*
D03*
X92520D02*
D03*
X80709D02*
D03*
X127953Y106181D02*
D03*
X68898D02*
D03*
D18*
X88425Y136732D02*
D03*
Y146732D02*
D03*
X78425Y136732D02*
D03*
X98425Y146732D02*
D03*
Y136732D02*
D03*
X108425Y146732D02*
D03*
X118425D02*
D03*
X108425Y136732D02*
D03*
X118425D02*
D03*
D19*
X78425Y146732D02*
D03*
D20*
X13780Y183071D02*
D03*
X183071D02*
D03*
Y13780D02*
D03*
X13780D02*
D03*
D21*
X137795Y177165D02*
D03*
X59055D02*
D03*
M02*
