G04*
G04 #@! TF.GenerationSoftware,Altium Limited,Altium Designer,21.3.2 (30)*
G04*
G04 Layer_Color=32896*
%FSLAX25Y25*%
%MOIN*%
G70*
G04*
G04 #@! TF.SameCoordinates,7D36CCFB-020A-49C9-B8D2-55C5552AF9BD*
G04*
G04*
G04 #@! TF.FilePolarity,Positive*
G04*
G01*
G75*
%ADD11C,0.00787*%
%ADD12C,0.01000*%
%ADD13C,0.00394*%
%ADD14C,0.00197*%
%ADD28C,0.00600*%
%ADD29C,0.00500*%
G36*
X134572Y113628D02*
X134720Y113601D01*
X134851Y113557D01*
X134960Y113513D01*
X135009Y113491D01*
X135053Y113470D01*
X135091Y113448D01*
X135124Y113426D01*
X135145Y113409D01*
X135162Y113399D01*
X135173Y113393D01*
X135178Y113388D01*
X135293Y113289D01*
X135386Y113175D01*
X135468Y113060D01*
X135528Y112945D01*
X135577Y112847D01*
X135593Y112803D01*
X135609Y112765D01*
X135620Y112732D01*
X135631Y112711D01*
X135637Y112694D01*
Y112689D01*
X135708Y112814D01*
X135784Y112918D01*
X135861Y113011D01*
X135932Y113082D01*
X135997Y113142D01*
X136046Y113180D01*
X136068Y113197D01*
X136084Y113207D01*
X136090Y113213D01*
X136095D01*
X136205Y113273D01*
X136308Y113317D01*
X136412Y113349D01*
X136505Y113371D01*
X136587Y113382D01*
X136647Y113393D01*
X136669D01*
X136685D01*
X136696D01*
X136702D01*
X136832Y113382D01*
X136953Y113360D01*
X137067Y113328D01*
X137166Y113295D01*
X137248Y113257D01*
X137286Y113240D01*
X137313Y113224D01*
X137335Y113207D01*
X137351Y113202D01*
X137362Y113191D01*
X137368D01*
X137477Y113109D01*
X137575Y113022D01*
X137657Y112934D01*
X137723Y112847D01*
X137772Y112765D01*
X137810Y112705D01*
X137821Y112678D01*
X137832Y112661D01*
X137837Y112651D01*
Y112645D01*
X137892Y112503D01*
X137930Y112356D01*
X137957Y112197D01*
X137974Y112055D01*
X137985Y111984D01*
X137990Y111924D01*
Y111864D01*
X137996Y111815D01*
Y109833D01*
X132956D01*
Y111750D01*
X132961Y111924D01*
X132967Y112083D01*
X132983Y112219D01*
X132989Y112285D01*
X133000Y112339D01*
X133005Y112388D01*
X133010Y112432D01*
X133021Y112470D01*
X133027Y112503D01*
X133032Y112530D01*
Y112547D01*
X133038Y112558D01*
Y112563D01*
X133071Y112683D01*
X133109Y112793D01*
X133152Y112885D01*
X133191Y112962D01*
X133229Y113027D01*
X133256Y113076D01*
X133278Y113104D01*
X133283Y113115D01*
X133354Y113197D01*
X133431Y113268D01*
X133507Y113333D01*
X133584Y113382D01*
X133649Y113426D01*
X133704Y113459D01*
X133726Y113470D01*
X133742Y113480D01*
X133748Y113486D01*
X133753D01*
X133868Y113535D01*
X133988Y113573D01*
X134097Y113601D01*
X134201Y113622D01*
X134288Y113633D01*
X134321D01*
X134354Y113639D01*
X134381D01*
X134397D01*
X134408D01*
X134414D01*
X134496D01*
X134572Y113628D01*
D02*
G37*
G36*
X135091Y107196D02*
X134468D01*
Y109101D01*
X135091D01*
Y107196D01*
D02*
G37*
G36*
X134326Y106006D02*
X134468Y105907D01*
X134599Y105809D01*
X134714Y105716D01*
X134812Y105634D01*
X134889Y105563D01*
X134922Y105531D01*
X134949Y105503D01*
X134971Y105482D01*
X134987Y105465D01*
X134993Y105460D01*
X134998Y105454D01*
X135042Y105400D01*
X135091Y105334D01*
X135129Y105269D01*
X135167Y105203D01*
X135200Y105143D01*
X135227Y105094D01*
X135244Y105061D01*
X135249Y105056D01*
Y105050D01*
X135271Y105181D01*
X135298Y105307D01*
X135331Y105421D01*
X135364Y105525D01*
X135402Y105623D01*
X135440Y105711D01*
X135478Y105787D01*
X135517Y105858D01*
X135555Y105924D01*
X135593Y105978D01*
X135626Y106022D01*
X135653Y106060D01*
X135680Y106088D01*
X135697Y106109D01*
X135708Y106120D01*
X135713Y106126D01*
X135784Y106186D01*
X135855Y106240D01*
X135932Y106290D01*
X136008Y106328D01*
X136084Y106361D01*
X136161Y106388D01*
X136303Y106432D01*
X136368Y106448D01*
X136428Y106459D01*
X136483Y106464D01*
X136532Y106470D01*
X136565Y106475D01*
X136598D01*
X136614D01*
X136620D01*
X136773Y106464D01*
X136914Y106442D01*
X137040Y106410D01*
X137155Y106371D01*
X137204Y106350D01*
X137248Y106328D01*
X137286Y106312D01*
X137319Y106295D01*
X137346Y106284D01*
X137362Y106273D01*
X137373Y106262D01*
X137379D01*
X137499Y106180D01*
X137597Y106088D01*
X137684Y105995D01*
X137750Y105902D01*
X137799Y105825D01*
X137832Y105760D01*
X137843Y105733D01*
X137854Y105716D01*
X137859Y105705D01*
Y105700D01*
X137881Y105629D01*
X137903Y105558D01*
X137935Y105394D01*
X137963Y105225D01*
X137979Y105061D01*
X137985Y104979D01*
X137990Y104908D01*
Y104848D01*
X137996Y104788D01*
Y102446D01*
X132956D01*
Y103112D01*
X135195D01*
Y103969D01*
X135189Y104046D01*
X135184Y104111D01*
Y104166D01*
X135178Y104204D01*
X135173Y104231D01*
X135167Y104248D01*
Y104253D01*
X135151Y104313D01*
X135129Y104368D01*
X135107Y104417D01*
X135085Y104466D01*
X135064Y104504D01*
X135047Y104532D01*
X135036Y104553D01*
X135031Y104559D01*
X134993Y104613D01*
X134938Y104674D01*
X134883Y104734D01*
X134829Y104783D01*
X134780Y104832D01*
X134736Y104865D01*
X134709Y104886D01*
X134703Y104897D01*
X134698D01*
X134599Y104974D01*
X134490Y105056D01*
X134376Y105132D01*
X134261Y105209D01*
X134163Y105274D01*
X134119Y105307D01*
X134081Y105329D01*
X134048Y105350D01*
X134026Y105367D01*
X134010Y105372D01*
X134004Y105378D01*
X132956Y106044D01*
Y106879D01*
X134326Y106006D01*
D02*
G37*
G36*
X135609Y101572D02*
X135740Y101567D01*
X135872Y101550D01*
X135997Y101534D01*
X136112Y101512D01*
X136226Y101485D01*
X136330Y101458D01*
X136423Y101430D01*
X136510Y101403D01*
X136587Y101376D01*
X136658Y101354D01*
X136712Y101327D01*
X136756Y101310D01*
X136789Y101294D01*
X136811Y101288D01*
X136816Y101283D01*
X136925Y101223D01*
X137029Y101163D01*
X137127Y101092D01*
X137215Y101026D01*
X137297Y100955D01*
X137373Y100884D01*
X137444Y100813D01*
X137510Y100742D01*
X137564Y100677D01*
X137613Y100617D01*
X137657Y100567D01*
X137690Y100518D01*
X137717Y100480D01*
X137733Y100453D01*
X137744Y100431D01*
X137750Y100426D01*
X137810Y100316D01*
X137859Y100213D01*
X137903Y100103D01*
X137941Y99994D01*
X137974Y99885D01*
X138001Y99781D01*
X138023Y99683D01*
X138039Y99585D01*
X138056Y99497D01*
X138066Y99421D01*
X138072Y99350D01*
X138077Y99284D01*
X138083Y99235D01*
Y99170D01*
X138077Y98973D01*
X138050Y98788D01*
X138017Y98613D01*
X137974Y98449D01*
X137919Y98291D01*
X137859Y98149D01*
X137794Y98018D01*
X137728Y97898D01*
X137662Y97788D01*
X137597Y97696D01*
X137537Y97619D01*
X137482Y97548D01*
X137439Y97499D01*
X137406Y97461D01*
X137379Y97434D01*
X137373Y97428D01*
X137237Y97308D01*
X137084Y97204D01*
X136931Y97117D01*
X136767Y97040D01*
X136603Y96975D01*
X136439Y96920D01*
X136281Y96877D01*
X136123Y96838D01*
X135975Y96811D01*
X135844Y96795D01*
X135719Y96778D01*
X135615Y96767D01*
X135528Y96762D01*
X135495D01*
X135462Y96757D01*
X135440D01*
X135424D01*
X135413D01*
X135407D01*
X135287Y96762D01*
X135162Y96767D01*
X134932Y96800D01*
X134823Y96822D01*
X134720Y96844D01*
X134621Y96871D01*
X134534Y96898D01*
X134447Y96926D01*
X134376Y96953D01*
X134310Y96975D01*
X134255Y96997D01*
X134212Y97013D01*
X134179Y97030D01*
X134157Y97035D01*
X134152Y97040D01*
X134043Y97100D01*
X133939Y97161D01*
X133846Y97226D01*
X133753Y97297D01*
X133671Y97368D01*
X133595Y97439D01*
X133524Y97505D01*
X133458Y97575D01*
X133404Y97641D01*
X133354Y97701D01*
X133311Y97756D01*
X133278Y97799D01*
X133251Y97838D01*
X133229Y97870D01*
X133218Y97887D01*
X133212Y97892D01*
X133152Y98001D01*
X133103Y98111D01*
X133054Y98220D01*
X133016Y98329D01*
X132983Y98438D01*
X132956Y98542D01*
X132934Y98646D01*
X132918Y98738D01*
X132901Y98831D01*
X132890Y98908D01*
X132885Y98984D01*
X132879Y99044D01*
X132874Y99093D01*
Y99164D01*
X132879Y99284D01*
X132885Y99405D01*
X132923Y99634D01*
X132945Y99738D01*
X132972Y99841D01*
X133000Y99934D01*
X133027Y100022D01*
X133054Y100103D01*
X133081Y100174D01*
X133109Y100234D01*
X133131Y100289D01*
X133152Y100333D01*
X133169Y100360D01*
X133174Y100382D01*
X133180Y100387D01*
X133240Y100491D01*
X133311Y100589D01*
X133382Y100682D01*
X133453Y100764D01*
X133529Y100840D01*
X133606Y100917D01*
X133682Y100982D01*
X133753Y101043D01*
X133824Y101092D01*
X133890Y101141D01*
X133950Y101179D01*
X133999Y101212D01*
X134037Y101234D01*
X134070Y101250D01*
X134092Y101261D01*
X134097Y101266D01*
X134212Y101321D01*
X134332Y101370D01*
X134447Y101408D01*
X134567Y101447D01*
X134681Y101479D01*
X134796Y101501D01*
X134905Y101523D01*
X135009Y101539D01*
X135107Y101550D01*
X135195Y101561D01*
X135271Y101567D01*
X135336Y101572D01*
X135391Y101578D01*
X135435D01*
X135457D01*
X135468D01*
X135609Y101572D01*
D02*
G37*
G36*
X137996Y92285D02*
X137400D01*
Y93945D01*
X132956D01*
Y94611D01*
X137400D01*
Y96271D01*
X137996D01*
Y92285D01*
D02*
G37*
G36*
X135609Y91799D02*
X135740Y91793D01*
X135872Y91777D01*
X135997Y91761D01*
X136112Y91739D01*
X136226Y91711D01*
X136330Y91684D01*
X136423Y91657D01*
X136510Y91629D01*
X136587Y91602D01*
X136658Y91580D01*
X136712Y91553D01*
X136756Y91537D01*
X136789Y91520D01*
X136811Y91515D01*
X136816Y91509D01*
X136925Y91449D01*
X137029Y91389D01*
X137127Y91318D01*
X137215Y91253D01*
X137297Y91182D01*
X137373Y91111D01*
X137444Y91040D01*
X137510Y90969D01*
X137564Y90903D01*
X137613Y90843D01*
X137657Y90794D01*
X137690Y90745D01*
X137717Y90707D01*
X137733Y90680D01*
X137744Y90658D01*
X137750Y90652D01*
X137810Y90543D01*
X137859Y90439D01*
X137903Y90330D01*
X137941Y90221D01*
X137974Y90112D01*
X138001Y90008D01*
X138023Y89910D01*
X138039Y89811D01*
X138056Y89724D01*
X138066Y89648D01*
X138072Y89577D01*
X138077Y89511D01*
X138083Y89462D01*
Y89396D01*
X138077Y89200D01*
X138050Y89014D01*
X138017Y88840D01*
X137974Y88676D01*
X137919Y88517D01*
X137859Y88375D01*
X137794Y88244D01*
X137728Y88124D01*
X137662Y88015D01*
X137597Y87922D01*
X137537Y87846D01*
X137482Y87775D01*
X137439Y87726D01*
X137406Y87687D01*
X137379Y87660D01*
X137373Y87655D01*
X137237Y87534D01*
X137084Y87431D01*
X136931Y87343D01*
X136767Y87267D01*
X136603Y87201D01*
X136439Y87147D01*
X136281Y87103D01*
X136123Y87065D01*
X135975Y87038D01*
X135844Y87021D01*
X135719Y87005D01*
X135615Y86994D01*
X135528Y86989D01*
X135495D01*
X135462Y86983D01*
X135440D01*
X135424D01*
X135413D01*
X135407D01*
X135287Y86989D01*
X135162Y86994D01*
X134932Y87027D01*
X134823Y87049D01*
X134720Y87070D01*
X134621Y87098D01*
X134534Y87125D01*
X134447Y87152D01*
X134376Y87180D01*
X134310Y87201D01*
X134255Y87223D01*
X134212Y87240D01*
X134179Y87256D01*
X134157Y87261D01*
X134152Y87267D01*
X134043Y87327D01*
X133939Y87387D01*
X133846Y87453D01*
X133753Y87524D01*
X133671Y87595D01*
X133595Y87666D01*
X133524Y87731D01*
X133458Y87802D01*
X133404Y87868D01*
X133354Y87928D01*
X133311Y87982D01*
X133278Y88026D01*
X133251Y88064D01*
X133229Y88097D01*
X133218Y88113D01*
X133212Y88119D01*
X133152Y88228D01*
X133103Y88337D01*
X133054Y88446D01*
X133016Y88556D01*
X132983Y88665D01*
X132956Y88769D01*
X132934Y88872D01*
X132918Y88965D01*
X132901Y89058D01*
X132890Y89134D01*
X132885Y89211D01*
X132879Y89271D01*
X132874Y89320D01*
Y89391D01*
X132879Y89511D01*
X132885Y89631D01*
X132923Y89860D01*
X132945Y89964D01*
X132972Y90068D01*
X133000Y90161D01*
X133027Y90248D01*
X133054Y90330D01*
X133081Y90401D01*
X133109Y90461D01*
X133131Y90516D01*
X133152Y90559D01*
X133169Y90587D01*
X133174Y90609D01*
X133180Y90614D01*
X133240Y90718D01*
X133311Y90816D01*
X133382Y90909D01*
X133453Y90991D01*
X133529Y91067D01*
X133606Y91144D01*
X133682Y91209D01*
X133753Y91269D01*
X133824Y91318D01*
X133890Y91367D01*
X133950Y91406D01*
X133999Y91438D01*
X134037Y91460D01*
X134070Y91477D01*
X134092Y91488D01*
X134097Y91493D01*
X134212Y91548D01*
X134332Y91597D01*
X134447Y91635D01*
X134567Y91673D01*
X134681Y91706D01*
X134796Y91728D01*
X134905Y91750D01*
X135009Y91766D01*
X135107Y91777D01*
X135195Y91788D01*
X135271Y91793D01*
X135336Y91799D01*
X135391Y91804D01*
X135435D01*
X135457D01*
X135468D01*
X135609Y91799D01*
D02*
G37*
G36*
X137996Y85214D02*
X134490Y84002D01*
X134392Y83969D01*
X134304Y83936D01*
X134217Y83909D01*
X134141Y83882D01*
X134064Y83860D01*
X133999Y83838D01*
X133939Y83816D01*
X133884Y83800D01*
X133840Y83784D01*
X133797Y83773D01*
X133764Y83762D01*
X133731Y83751D01*
X133709Y83745D01*
X133693Y83740D01*
X133688Y83734D01*
X133682D01*
X133731Y83718D01*
X133786Y83702D01*
X133900Y83663D01*
X134026Y83625D01*
X134146Y83587D01*
X134255Y83549D01*
X134304Y83532D01*
X134343Y83521D01*
X134376Y83511D01*
X134403Y83500D01*
X134419Y83494D01*
X134425D01*
X137996Y82298D01*
Y81299D01*
X132956D01*
Y81944D01*
X137248D01*
X132956Y83396D01*
Y83996D01*
X137177Y85471D01*
X132956D01*
Y86115D01*
X137996D01*
Y85214D01*
D02*
G37*
G36*
X45517Y161842D02*
X45705Y161826D01*
X45877Y161801D01*
X46041Y161760D01*
X46197Y161719D01*
X46337Y161670D01*
X46468Y161620D01*
X46583Y161571D01*
X46689Y161514D01*
X46779Y161465D01*
X46861Y161416D01*
X46927Y161374D01*
X46976Y161333D01*
X47009Y161309D01*
X47034Y161293D01*
X47042Y161284D01*
X47157Y161178D01*
X47255Y161055D01*
X47345Y160932D01*
X47427Y160792D01*
X47493Y160661D01*
X47558Y160530D01*
X47608Y160390D01*
X47649Y160267D01*
X47690Y160144D01*
X47714Y160030D01*
X47739Y159923D01*
X47755Y159833D01*
X47763Y159759D01*
X47772Y159710D01*
X47780Y159677D01*
Y159661D01*
X46829Y159562D01*
X46820Y159694D01*
X46812Y159817D01*
X46763Y160030D01*
X46697Y160226D01*
X46665Y160308D01*
X46624Y160382D01*
X46591Y160448D01*
X46550Y160505D01*
X46517Y160554D01*
X46492Y160596D01*
X46460Y160628D01*
X46443Y160653D01*
X46435Y160661D01*
X46427Y160669D01*
X46345Y160743D01*
X46263Y160809D01*
X46173Y160858D01*
X46082Y160907D01*
X45902Y160981D01*
X45730Y161030D01*
X45582Y161055D01*
X45517Y161071D01*
X45459D01*
X45410Y161079D01*
X45230D01*
X45115Y161063D01*
X44910Y161022D01*
X44738Y160956D01*
X44582Y160891D01*
X44467Y160817D01*
X44418Y160784D01*
X44377Y160751D01*
X44344Y160727D01*
X44319Y160710D01*
X44311Y160702D01*
X44303Y160694D01*
X44229Y160620D01*
X44172Y160546D01*
X44114Y160473D01*
X44073Y160390D01*
X44000Y160235D01*
X43950Y160087D01*
X43926Y159964D01*
X43909Y159907D01*
Y159857D01*
X43901Y159825D01*
Y159792D01*
Y159775D01*
Y159767D01*
X43909Y159669D01*
X43918Y159571D01*
X43967Y159374D01*
X44041Y159185D01*
X44123Y159013D01*
X44205Y158865D01*
X44237Y158808D01*
X44278Y158750D01*
X44303Y158709D01*
X44328Y158677D01*
X44336Y158660D01*
X44344Y158652D01*
X44434Y158537D01*
X44541Y158414D01*
X44664Y158283D01*
X44795Y158152D01*
X45066Y157881D01*
X45344Y157627D01*
X45476Y157504D01*
X45607Y157397D01*
X45722Y157299D01*
X45820Y157217D01*
X45902Y157143D01*
X45959Y157094D01*
X46000Y157053D01*
X46017Y157045D01*
X46164Y156922D01*
X46296Y156807D01*
X46427Y156701D01*
X46542Y156594D01*
X46656Y156495D01*
X46755Y156397D01*
X46845Y156315D01*
X46927Y156233D01*
X47001Y156159D01*
X47058Y156094D01*
X47116Y156036D01*
X47157Y155995D01*
X47198Y155954D01*
X47222Y155930D01*
X47230Y155913D01*
X47239Y155905D01*
X47386Y155725D01*
X47509Y155544D01*
X47616Y155372D01*
X47698Y155216D01*
X47763Y155085D01*
X47788Y155028D01*
X47813Y154987D01*
X47829Y154946D01*
X47837Y154921D01*
X47845Y154905D01*
Y154896D01*
X47886Y154782D01*
X47911Y154667D01*
X47936Y154560D01*
X47944Y154462D01*
X47952Y154380D01*
Y154314D01*
Y154273D01*
Y154257D01*
X42942D01*
Y155151D01*
X46673D01*
X46542Y155331D01*
X46476Y155413D01*
X46410Y155487D01*
X46353Y155552D01*
X46312Y155602D01*
X46279Y155634D01*
X46271Y155643D01*
X46222Y155692D01*
X46156Y155757D01*
X46082Y155823D01*
X46000Y155897D01*
X45828Y156061D01*
X45648Y156217D01*
X45476Y156364D01*
X45402Y156430D01*
X45328Y156487D01*
X45279Y156536D01*
X45230Y156569D01*
X45205Y156594D01*
X45197Y156602D01*
X45016Y156758D01*
X44844Y156905D01*
X44688Y157037D01*
X44549Y157168D01*
X44418Y157283D01*
X44303Y157397D01*
X44196Y157496D01*
X44098Y157586D01*
X44016Y157660D01*
X43950Y157734D01*
X43893Y157791D01*
X43844Y157840D01*
X43811Y157881D01*
X43778Y157906D01*
X43770Y157922D01*
X43762Y157930D01*
X43606Y158111D01*
X43483Y158275D01*
X43376Y158431D01*
X43286Y158570D01*
X43221Y158685D01*
X43171Y158775D01*
X43155Y158808D01*
X43147Y158832D01*
X43139Y158841D01*
Y158849D01*
X43073Y159013D01*
X43032Y159177D01*
X42999Y159325D01*
X42975Y159464D01*
X42958Y159579D01*
X42950Y159669D01*
Y159702D01*
Y159726D01*
Y159734D01*
Y159743D01*
X42958Y159907D01*
X42975Y160062D01*
X43007Y160210D01*
X43048Y160358D01*
X43098Y160489D01*
X43155Y160612D01*
X43212Y160727D01*
X43270Y160825D01*
X43327Y160924D01*
X43385Y161005D01*
X43442Y161079D01*
X43491Y161137D01*
X43532Y161178D01*
X43565Y161219D01*
X43581Y161235D01*
X43590Y161243D01*
X43713Y161350D01*
X43844Y161440D01*
X43983Y161522D01*
X44131Y161596D01*
X44270Y161653D01*
X44418Y161702D01*
X44557Y161743D01*
X44697Y161776D01*
X44820Y161801D01*
X44943Y161817D01*
X45049Y161834D01*
X45139Y161842D01*
X45213Y161850D01*
X45320D01*
X45517Y161842D01*
D02*
G37*
G36*
X26804Y158423D02*
X28862D01*
Y157553D01*
X26804D01*
Y155479D01*
X25927D01*
Y157553D01*
X23869D01*
Y158423D01*
X25927D01*
Y160481D01*
X26804D01*
Y158423D01*
D02*
G37*
G36*
X89764Y154257D02*
X88796D01*
Y160702D01*
X86615Y154257D01*
X85713D01*
X83499Y160596D01*
Y154257D01*
X82531D01*
Y161826D01*
X83884D01*
X85705Y156561D01*
X85754Y156413D01*
X85803Y156282D01*
X85844Y156151D01*
X85885Y156036D01*
X85918Y155921D01*
X85951Y155823D01*
X85984Y155733D01*
X86008Y155651D01*
X86033Y155585D01*
X86049Y155520D01*
X86066Y155471D01*
X86082Y155421D01*
X86090Y155388D01*
X86098Y155364D01*
X86107Y155356D01*
Y155348D01*
X86131Y155421D01*
X86156Y155503D01*
X86213Y155675D01*
X86271Y155864D01*
X86328Y156044D01*
X86385Y156209D01*
X86410Y156282D01*
X86426Y156340D01*
X86443Y156389D01*
X86459Y156430D01*
X86467Y156455D01*
Y156463D01*
X88263Y161826D01*
X89764D01*
Y154257D01*
D02*
G37*
G36*
X33528Y154257D02*
X32495D01*
X29543Y161826D01*
X30560D01*
X32602Y156323D01*
X32684Y156094D01*
X32766Y155872D01*
X32839Y155659D01*
X32897Y155471D01*
X32921Y155388D01*
X32946Y155315D01*
X32962Y155249D01*
X32979Y155192D01*
X32995Y155151D01*
X33003Y155110D01*
X33012Y155093D01*
Y155085D01*
X33077Y155306D01*
X33143Y155528D01*
X33208Y155733D01*
X33266Y155921D01*
X33299Y156012D01*
X33323Y156085D01*
X33348Y156151D01*
X33364Y156208D01*
X33381Y156258D01*
X33397Y156290D01*
X33405Y156315D01*
Y156323D01*
X35373Y161826D01*
X36464D01*
X33528Y154257D01*
D02*
G37*
G36*
X73265Y160932D02*
X70773D01*
Y154257D01*
X69772D01*
Y160932D01*
X67279D01*
Y161826D01*
X73265D01*
Y160932D01*
D02*
G37*
G36*
X58005Y154257D02*
X57005D01*
Y157619D01*
X55717D01*
X55603Y157611D01*
X55504Y157602D01*
X55422D01*
X55365Y157594D01*
X55324Y157586D01*
X55299Y157578D01*
X55291D01*
X55201Y157553D01*
X55119Y157520D01*
X55045Y157488D01*
X54971Y157455D01*
X54914Y157422D01*
X54873Y157397D01*
X54840Y157381D01*
X54832Y157373D01*
X54750Y157316D01*
X54660Y157233D01*
X54569Y157151D01*
X54496Y157070D01*
X54422Y156996D01*
X54373Y156930D01*
X54340Y156889D01*
X54323Y156881D01*
Y156873D01*
X54209Y156725D01*
X54086Y156561D01*
X53971Y156389D01*
X53856Y156217D01*
X53758Y156069D01*
X53708Y156003D01*
X53676Y155946D01*
X53643Y155897D01*
X53618Y155864D01*
X53610Y155840D01*
X53602Y155831D01*
X52601Y154257D01*
X51347D01*
X52659Y156315D01*
X52806Y156528D01*
X52954Y156725D01*
X53093Y156897D01*
X53216Y157045D01*
X53323Y157160D01*
X53372Y157209D01*
X53413Y157250D01*
X53446Y157283D01*
X53471Y157307D01*
X53479Y157316D01*
X53487Y157324D01*
X53569Y157389D01*
X53667Y157463D01*
X53766Y157520D01*
X53864Y157578D01*
X53954Y157627D01*
X54028Y157668D01*
X54077Y157693D01*
X54086Y157701D01*
X54094D01*
X53897Y157734D01*
X53708Y157775D01*
X53536Y157824D01*
X53380Y157873D01*
X53233Y157930D01*
X53102Y157988D01*
X52987Y158045D01*
X52880Y158103D01*
X52782Y158160D01*
X52700Y158218D01*
X52634Y158267D01*
X52577Y158308D01*
X52536Y158349D01*
X52503Y158373D01*
X52487Y158390D01*
X52478Y158398D01*
X52388Y158504D01*
X52306Y158611D01*
X52232Y158726D01*
X52175Y158841D01*
X52126Y158955D01*
X52085Y159070D01*
X52019Y159283D01*
X51995Y159382D01*
X51978Y159472D01*
X51970Y159554D01*
X51962Y159628D01*
X51954Y159677D01*
Y159726D01*
Y159751D01*
Y159759D01*
X51970Y159989D01*
X52003Y160202D01*
X52052Y160390D01*
X52109Y160563D01*
X52142Y160636D01*
X52175Y160702D01*
X52200Y160759D01*
X52224Y160809D01*
X52241Y160850D01*
X52257Y160874D01*
X52273Y160891D01*
Y160899D01*
X52396Y161079D01*
X52536Y161227D01*
X52675Y161358D01*
X52815Y161456D01*
X52929Y161530D01*
X53028Y161579D01*
X53069Y161596D01*
X53093Y161612D01*
X53110Y161620D01*
X53118D01*
X53225Y161653D01*
X53331Y161686D01*
X53577Y161735D01*
X53831Y161776D01*
X54077Y161801D01*
X54200Y161809D01*
X54307Y161817D01*
X54397D01*
X54487Y161826D01*
X58005D01*
Y154257D01*
D02*
G37*
G36*
X42261Y156922D02*
Y156069D01*
X38965D01*
Y154257D01*
X38038D01*
Y156069D01*
X37013D01*
Y156922D01*
X38038D01*
Y161826D01*
X38801D01*
X42261Y156922D01*
D02*
G37*
G36*
X77898Y161949D02*
X78177Y161907D01*
X78440Y161858D01*
X78686Y161793D01*
X78923Y161711D01*
X79137Y161620D01*
X79333Y161522D01*
X79514Y161424D01*
X79678Y161325D01*
X79817Y161227D01*
X79932Y161137D01*
X80039Y161055D01*
X80112Y160989D01*
X80170Y160940D01*
X80211Y160899D01*
X80219Y160891D01*
X80399Y160686D01*
X80555Y160456D01*
X80686Y160227D01*
X80801Y159980D01*
X80900Y159734D01*
X80982Y159488D01*
X81047Y159251D01*
X81105Y159013D01*
X81146Y158791D01*
X81170Y158595D01*
X81195Y158406D01*
X81211Y158250D01*
X81219Y158119D01*
Y158070D01*
X81228Y158021D01*
Y157988D01*
Y157963D01*
Y157947D01*
Y157939D01*
X81219Y157758D01*
X81211Y157570D01*
X81162Y157225D01*
X81129Y157061D01*
X81096Y156905D01*
X81055Y156758D01*
X81014Y156627D01*
X80973Y156495D01*
X80932Y156389D01*
X80900Y156290D01*
X80867Y156209D01*
X80842Y156143D01*
X80818Y156094D01*
X80809Y156061D01*
X80801Y156053D01*
X80711Y155889D01*
X80621Y155733D01*
X80522Y155594D01*
X80416Y155454D01*
X80309Y155331D01*
X80203Y155216D01*
X80104Y155110D01*
X79998Y155011D01*
X79899Y154929D01*
X79809Y154856D01*
X79727Y154790D01*
X79661Y154741D01*
X79604Y154700D01*
X79555Y154667D01*
X79530Y154650D01*
X79522Y154642D01*
X79358Y154552D01*
X79194Y154478D01*
X79030Y154404D01*
X78866Y154347D01*
X78702Y154298D01*
X78546Y154257D01*
X78390Y154224D01*
X78251Y154200D01*
X78112Y154175D01*
X77997Y154158D01*
X77882Y154150D01*
X77792Y154142D01*
X77718Y154134D01*
X77611D01*
X77431Y154142D01*
X77251Y154150D01*
X76906Y154208D01*
X76750Y154241D01*
X76595Y154281D01*
X76455Y154323D01*
X76324Y154364D01*
X76201Y154404D01*
X76094Y154446D01*
X76004Y154487D01*
X75922Y154519D01*
X75857Y154552D01*
X75816Y154577D01*
X75783Y154585D01*
X75775Y154593D01*
X75619Y154683D01*
X75471Y154790D01*
X75332Y154896D01*
X75209Y155003D01*
X75094Y155118D01*
X74979Y155233D01*
X74881Y155348D01*
X74791Y155454D01*
X74717Y155561D01*
X74643Y155659D01*
X74586Y155749D01*
X74536Y155823D01*
X74504Y155880D01*
X74479Y155930D01*
X74463Y155963D01*
X74454Y155971D01*
X74372Y156143D01*
X74299Y156323D01*
X74241Y156495D01*
X74184Y156676D01*
X74135Y156848D01*
X74102Y157020D01*
X74069Y157184D01*
X74044Y157340D01*
X74028Y157488D01*
X74012Y157619D01*
X74003Y157734D01*
X73995Y157832D01*
X73987Y157914D01*
Y157980D01*
Y158012D01*
Y158029D01*
X73995Y158242D01*
X74003Y158439D01*
X74028Y158636D01*
X74053Y158824D01*
X74085Y158996D01*
X74126Y159169D01*
X74167Y159325D01*
X74208Y159464D01*
X74249Y159595D01*
X74290Y159710D01*
X74323Y159817D01*
X74364Y159898D01*
X74389Y159964D01*
X74413Y160013D01*
X74422Y160046D01*
X74430Y160054D01*
X74520Y160218D01*
X74610Y160374D01*
X74717Y160522D01*
X74815Y160653D01*
X74922Y160776D01*
X75028Y160891D01*
X75135Y160997D01*
X75242Y161096D01*
X75340Y161178D01*
X75430Y161251D01*
X75504Y161317D01*
X75578Y161366D01*
X75635Y161407D01*
X75676Y161432D01*
X75709Y161448D01*
X75717Y161457D01*
X75881Y161547D01*
X76037Y161620D01*
X76201Y161686D01*
X76365Y161743D01*
X76529Y161793D01*
X76685Y161834D01*
X76832Y161866D01*
X76980Y161891D01*
X77111Y161916D01*
X77226Y161932D01*
X77333Y161940D01*
X77431Y161949D01*
X77505Y161957D01*
X77603D01*
X77898Y161949D01*
D02*
G37*
G36*
X63220D02*
X63499Y161907D01*
X63762Y161858D01*
X64008Y161793D01*
X64245Y161711D01*
X64459Y161620D01*
X64655Y161522D01*
X64836Y161424D01*
X65000Y161325D01*
X65139Y161227D01*
X65254Y161137D01*
X65361Y161055D01*
X65434Y160989D01*
X65492Y160940D01*
X65533Y160899D01*
X65541Y160891D01*
X65721Y160686D01*
X65877Y160456D01*
X66008Y160227D01*
X66123Y159980D01*
X66222Y159734D01*
X66304Y159488D01*
X66369Y159251D01*
X66427Y159013D01*
X66468Y158791D01*
X66492Y158595D01*
X66517Y158406D01*
X66533Y158250D01*
X66541Y158119D01*
Y158070D01*
X66550Y158021D01*
Y157988D01*
Y157963D01*
Y157947D01*
Y157939D01*
X66541Y157758D01*
X66533Y157570D01*
X66484Y157225D01*
X66451Y157061D01*
X66418Y156905D01*
X66377Y156758D01*
X66336Y156627D01*
X66295Y156495D01*
X66254Y156389D01*
X66222Y156290D01*
X66189Y156209D01*
X66164Y156143D01*
X66140Y156094D01*
X66131Y156061D01*
X66123Y156053D01*
X66033Y155889D01*
X65943Y155733D01*
X65844Y155594D01*
X65738Y155454D01*
X65631Y155331D01*
X65525Y155216D01*
X65426Y155110D01*
X65320Y155011D01*
X65221Y154929D01*
X65131Y154856D01*
X65049Y154790D01*
X64983Y154741D01*
X64926Y154700D01*
X64877Y154667D01*
X64852Y154650D01*
X64844Y154642D01*
X64680Y154552D01*
X64516Y154478D01*
X64352Y154404D01*
X64188Y154347D01*
X64024Y154298D01*
X63868Y154257D01*
X63712Y154224D01*
X63573Y154200D01*
X63434Y154175D01*
X63319Y154158D01*
X63204Y154150D01*
X63114Y154142D01*
X63040Y154134D01*
X62933D01*
X62753Y154142D01*
X62573Y154150D01*
X62228Y154208D01*
X62072Y154241D01*
X61917Y154281D01*
X61777Y154323D01*
X61646Y154364D01*
X61523Y154404D01*
X61416Y154446D01*
X61326Y154487D01*
X61244Y154519D01*
X61179Y154552D01*
X61138Y154577D01*
X61105Y154585D01*
X61097Y154593D01*
X60941Y154683D01*
X60793Y154790D01*
X60654Y154896D01*
X60531Y155003D01*
X60416Y155118D01*
X60301Y155233D01*
X60203Y155348D01*
X60113Y155454D01*
X60039Y155561D01*
X59965Y155659D01*
X59908Y155749D01*
X59858Y155823D01*
X59826Y155880D01*
X59801Y155930D01*
X59785Y155962D01*
X59776Y155971D01*
X59694Y156143D01*
X59621Y156323D01*
X59563Y156495D01*
X59506Y156676D01*
X59457Y156848D01*
X59424Y157020D01*
X59391Y157184D01*
X59366Y157340D01*
X59350Y157488D01*
X59334Y157619D01*
X59325Y157734D01*
X59317Y157832D01*
X59309Y157914D01*
Y157980D01*
Y158012D01*
Y158029D01*
X59317Y158242D01*
X59325Y158439D01*
X59350Y158636D01*
X59375Y158824D01*
X59407Y158996D01*
X59448Y159169D01*
X59489Y159325D01*
X59530Y159464D01*
X59571Y159595D01*
X59612Y159710D01*
X59645Y159817D01*
X59686Y159898D01*
X59711Y159964D01*
X59735Y160013D01*
X59744Y160046D01*
X59752Y160054D01*
X59842Y160218D01*
X59932Y160374D01*
X60039Y160522D01*
X60137Y160653D01*
X60244Y160776D01*
X60350Y160891D01*
X60457Y160997D01*
X60564Y161096D01*
X60662Y161178D01*
X60752Y161251D01*
X60826Y161317D01*
X60900Y161366D01*
X60957Y161407D01*
X60998Y161432D01*
X61031Y161448D01*
X61039Y161456D01*
X61203Y161547D01*
X61359Y161620D01*
X61523Y161686D01*
X61687Y161743D01*
X61851Y161793D01*
X62007Y161834D01*
X62154Y161866D01*
X62302Y161891D01*
X62433Y161916D01*
X62548Y161932D01*
X62655Y161940D01*
X62753Y161949D01*
X62827Y161957D01*
X62925D01*
X63220Y161949D01*
D02*
G37*
G36*
X124257Y161842D02*
X124445Y161826D01*
X124618Y161801D01*
X124782Y161760D01*
X124937Y161719D01*
X125077Y161670D01*
X125208Y161620D01*
X125323Y161571D01*
X125429Y161514D01*
X125520Y161465D01*
X125601Y161416D01*
X125667Y161374D01*
X125716Y161333D01*
X125749Y161309D01*
X125774Y161293D01*
X125782Y161284D01*
X125897Y161178D01*
X125995Y161055D01*
X126085Y160932D01*
X126167Y160792D01*
X126233Y160661D01*
X126298Y160530D01*
X126348Y160390D01*
X126389Y160267D01*
X126430Y160144D01*
X126454Y160030D01*
X126479Y159923D01*
X126495Y159833D01*
X126504Y159759D01*
X126512Y159710D01*
X126520Y159677D01*
Y159661D01*
X125569Y159562D01*
X125560Y159694D01*
X125552Y159817D01*
X125503Y160030D01*
X125437Y160226D01*
X125405Y160308D01*
X125364Y160382D01*
X125331Y160448D01*
X125290Y160505D01*
X125257Y160554D01*
X125233Y160596D01*
X125200Y160628D01*
X125183Y160653D01*
X125175Y160661D01*
X125167Y160669D01*
X125085Y160743D01*
X125003Y160809D01*
X124913Y160858D01*
X124822Y160907D01*
X124642Y160981D01*
X124470Y161030D01*
X124322Y161055D01*
X124257Y161071D01*
X124199D01*
X124150Y161079D01*
X123970D01*
X123855Y161063D01*
X123650Y161022D01*
X123478Y160956D01*
X123322Y160891D01*
X123207Y160817D01*
X123158Y160784D01*
X123117Y160751D01*
X123084Y160727D01*
X123059Y160710D01*
X123051Y160702D01*
X123043Y160694D01*
X122969Y160620D01*
X122912Y160546D01*
X122854Y160473D01*
X122813Y160390D01*
X122740Y160235D01*
X122690Y160087D01*
X122666Y159964D01*
X122650Y159907D01*
Y159857D01*
X122641Y159825D01*
Y159792D01*
Y159775D01*
Y159767D01*
X122650Y159669D01*
X122658Y159571D01*
X122707Y159374D01*
X122781Y159185D01*
X122863Y159013D01*
X122945Y158865D01*
X122977Y158808D01*
X123019Y158750D01*
X123043Y158709D01*
X123068Y158677D01*
X123076Y158660D01*
X123084Y158652D01*
X123174Y158537D01*
X123281Y158414D01*
X123404Y158283D01*
X123535Y158152D01*
X123806Y157881D01*
X124084Y157627D01*
X124216Y157504D01*
X124347Y157397D01*
X124462Y157299D01*
X124560Y157217D01*
X124642Y157143D01*
X124699Y157094D01*
X124741Y157053D01*
X124757Y157045D01*
X124905Y156922D01*
X125036Y156807D01*
X125167Y156701D01*
X125282Y156594D01*
X125397Y156495D01*
X125495Y156397D01*
X125585Y156315D01*
X125667Y156233D01*
X125741Y156159D01*
X125798Y156094D01*
X125856Y156036D01*
X125897Y155995D01*
X125938Y155954D01*
X125962Y155930D01*
X125970Y155913D01*
X125979Y155905D01*
X126126Y155725D01*
X126249Y155544D01*
X126356Y155372D01*
X126438Y155216D01*
X126504Y155085D01*
X126528Y155028D01*
X126553Y154987D01*
X126569Y154946D01*
X126577Y154921D01*
X126585Y154905D01*
Y154896D01*
X126627Y154782D01*
X126651Y154667D01*
X126676Y154560D01*
X126684Y154462D01*
X126692Y154380D01*
Y154314D01*
Y154273D01*
Y154257D01*
X121682D01*
Y155151D01*
X125413D01*
X125282Y155331D01*
X125216Y155413D01*
X125151Y155487D01*
X125093Y155552D01*
X125052Y155602D01*
X125019Y155634D01*
X125011Y155643D01*
X124962Y155692D01*
X124896Y155757D01*
X124822Y155823D01*
X124741Y155897D01*
X124568Y156061D01*
X124388Y156217D01*
X124216Y156364D01*
X124142Y156430D01*
X124068Y156487D01*
X124019Y156536D01*
X123970Y156569D01*
X123945Y156594D01*
X123937Y156602D01*
X123757Y156758D01*
X123584Y156905D01*
X123428Y157037D01*
X123289Y157168D01*
X123158Y157283D01*
X123043Y157397D01*
X122936Y157496D01*
X122838Y157586D01*
X122756Y157660D01*
X122690Y157734D01*
X122633Y157791D01*
X122584Y157840D01*
X122551Y157881D01*
X122518Y157906D01*
X122510Y157922D01*
X122502Y157930D01*
X122346Y158111D01*
X122223Y158275D01*
X122116Y158431D01*
X122026Y158570D01*
X121961Y158685D01*
X121912Y158775D01*
X121895Y158808D01*
X121887Y158832D01*
X121879Y158841D01*
Y158849D01*
X121813Y159013D01*
X121772Y159177D01*
X121739Y159325D01*
X121715Y159464D01*
X121698Y159579D01*
X121690Y159669D01*
Y159702D01*
Y159726D01*
Y159734D01*
Y159743D01*
X121698Y159907D01*
X121715Y160062D01*
X121748Y160210D01*
X121789Y160358D01*
X121838Y160489D01*
X121895Y160612D01*
X121952Y160727D01*
X122010Y160825D01*
X122067Y160924D01*
X122125Y161005D01*
X122182Y161079D01*
X122231Y161137D01*
X122272Y161178D01*
X122305Y161219D01*
X122321Y161235D01*
X122330Y161243D01*
X122453Y161350D01*
X122584Y161440D01*
X122723Y161522D01*
X122871Y161596D01*
X123010Y161653D01*
X123158Y161702D01*
X123297Y161743D01*
X123437Y161776D01*
X123560Y161801D01*
X123683Y161817D01*
X123789Y161834D01*
X123880Y161842D01*
X123953Y161850D01*
X124060D01*
X124257Y161842D01*
D02*
G37*
G36*
X107865Y156528D02*
X105003D01*
Y157463D01*
X107865D01*
Y156528D01*
D02*
G37*
G36*
X168504Y154257D02*
X167536D01*
Y160702D01*
X165355Y154257D01*
X164453D01*
X162239Y160596D01*
Y154257D01*
X161272D01*
Y161826D01*
X162625D01*
X164445Y156561D01*
X164494Y156413D01*
X164543Y156282D01*
X164584Y156151D01*
X164625Y156036D01*
X164658Y155921D01*
X164691Y155823D01*
X164724Y155733D01*
X164748Y155651D01*
X164773Y155585D01*
X164789Y155520D01*
X164806Y155471D01*
X164822Y155421D01*
X164830Y155388D01*
X164839Y155364D01*
X164847Y155356D01*
Y155348D01*
X164871Y155421D01*
X164896Y155503D01*
X164953Y155675D01*
X165011Y155864D01*
X165068Y156044D01*
X165126Y156209D01*
X165150Y156282D01*
X165166Y156340D01*
X165183Y156389D01*
X165199Y156430D01*
X165208Y156455D01*
Y156463D01*
X167003Y161826D01*
X168504D01*
Y154257D01*
D02*
G37*
G36*
X112268Y154257D02*
X111235D01*
X108283Y161826D01*
X109300D01*
X111342Y156323D01*
X111424Y156094D01*
X111506Y155872D01*
X111580Y155659D01*
X111637Y155471D01*
X111662Y155388D01*
X111686Y155315D01*
X111703Y155249D01*
X111719Y155192D01*
X111735Y155151D01*
X111743Y155110D01*
X111752Y155093D01*
Y155085D01*
X111817Y155306D01*
X111883Y155528D01*
X111949Y155733D01*
X112006Y155921D01*
X112039Y156012D01*
X112063Y156085D01*
X112088Y156151D01*
X112104Y156208D01*
X112121Y156258D01*
X112137Y156290D01*
X112145Y156315D01*
Y156323D01*
X114113Y161826D01*
X115204D01*
X112268Y154257D01*
D02*
G37*
G36*
X152006Y160932D02*
X149513D01*
Y154257D01*
X148512D01*
Y160932D01*
X146019D01*
Y161826D01*
X152006D01*
Y160932D01*
D02*
G37*
G36*
X136745Y154257D02*
X135745D01*
Y157619D01*
X134458D01*
X134343Y157611D01*
X134244Y157602D01*
X134162D01*
X134105Y157594D01*
X134064Y157586D01*
X134039Y157578D01*
X134031D01*
X133941Y157553D01*
X133859Y157520D01*
X133785Y157488D01*
X133711Y157455D01*
X133654Y157422D01*
X133613Y157397D01*
X133580Y157381D01*
X133572Y157373D01*
X133490Y157316D01*
X133400Y157233D01*
X133309Y157151D01*
X133236Y157070D01*
X133162Y156996D01*
X133113Y156930D01*
X133080Y156889D01*
X133063Y156881D01*
Y156873D01*
X132949Y156725D01*
X132826Y156561D01*
X132711Y156389D01*
X132596Y156217D01*
X132498Y156069D01*
X132448Y156003D01*
X132416Y155946D01*
X132383Y155897D01*
X132358Y155864D01*
X132350Y155840D01*
X132342Y155831D01*
X131342Y154257D01*
X130087D01*
X131399Y156315D01*
X131546Y156528D01*
X131694Y156725D01*
X131834Y156897D01*
X131957Y157045D01*
X132063Y157160D01*
X132112Y157209D01*
X132153Y157250D01*
X132186Y157283D01*
X132211Y157307D01*
X132219Y157316D01*
X132227Y157324D01*
X132309Y157389D01*
X132407Y157463D01*
X132506Y157520D01*
X132604Y157578D01*
X132694Y157627D01*
X132768Y157668D01*
X132817Y157693D01*
X132826Y157701D01*
X132834D01*
X132637Y157734D01*
X132448Y157775D01*
X132276Y157824D01*
X132121Y157873D01*
X131973Y157930D01*
X131842Y157988D01*
X131727Y158045D01*
X131620Y158103D01*
X131522Y158160D01*
X131440Y158218D01*
X131374Y158267D01*
X131317Y158308D01*
X131276Y158349D01*
X131243Y158373D01*
X131227Y158390D01*
X131219Y158398D01*
X131128Y158504D01*
X131046Y158611D01*
X130973Y158726D01*
X130915Y158841D01*
X130866Y158955D01*
X130825Y159070D01*
X130759Y159283D01*
X130735Y159382D01*
X130718Y159472D01*
X130710Y159554D01*
X130702Y159628D01*
X130694Y159677D01*
Y159726D01*
Y159751D01*
Y159759D01*
X130710Y159989D01*
X130743Y160202D01*
X130792Y160390D01*
X130850Y160563D01*
X130882Y160636D01*
X130915Y160702D01*
X130940Y160759D01*
X130964Y160809D01*
X130981Y160850D01*
X130997Y160874D01*
X131014Y160891D01*
Y160899D01*
X131137Y161079D01*
X131276Y161227D01*
X131415Y161358D01*
X131555Y161456D01*
X131669Y161530D01*
X131768Y161579D01*
X131809Y161596D01*
X131834Y161612D01*
X131850Y161620D01*
X131858D01*
X131965Y161653D01*
X132071Y161686D01*
X132317Y161735D01*
X132571Y161776D01*
X132817Y161801D01*
X132940Y161809D01*
X133047Y161817D01*
X133137D01*
X133228Y161826D01*
X136745D01*
Y154257D01*
D02*
G37*
G36*
X121001Y156922D02*
Y156069D01*
X117705D01*
Y154257D01*
X116778D01*
Y156069D01*
X115753D01*
Y156922D01*
X116778D01*
Y161826D01*
X117541D01*
X121001Y156922D01*
D02*
G37*
G36*
X156639Y161949D02*
X156917Y161907D01*
X157180Y161858D01*
X157426Y161793D01*
X157664Y161711D01*
X157877Y161620D01*
X158073Y161522D01*
X158254Y161424D01*
X158418Y161325D01*
X158557Y161227D01*
X158672Y161137D01*
X158779Y161055D01*
X158853Y160989D01*
X158910Y160940D01*
X158951Y160899D01*
X158959Y160891D01*
X159140Y160686D01*
X159295Y160456D01*
X159426Y160227D01*
X159541Y159980D01*
X159640Y159734D01*
X159722Y159488D01*
X159787Y159251D01*
X159845Y159013D01*
X159886Y158791D01*
X159910Y158595D01*
X159935Y158406D01*
X159951Y158250D01*
X159959Y158119D01*
Y158070D01*
X159968Y158021D01*
Y157988D01*
Y157963D01*
Y157947D01*
Y157939D01*
X159959Y157758D01*
X159951Y157570D01*
X159902Y157225D01*
X159869Y157061D01*
X159836Y156905D01*
X159795Y156758D01*
X159755Y156627D01*
X159713Y156495D01*
X159672Y156389D01*
X159640Y156290D01*
X159607Y156209D01*
X159582Y156143D01*
X159558Y156094D01*
X159549Y156061D01*
X159541Y156053D01*
X159451Y155889D01*
X159361Y155733D01*
X159263Y155594D01*
X159156Y155454D01*
X159049Y155331D01*
X158943Y155216D01*
X158844Y155110D01*
X158738Y155011D01*
X158639Y154929D01*
X158549Y154856D01*
X158467Y154790D01*
X158402Y154741D01*
X158344Y154700D01*
X158295Y154667D01*
X158270Y154650D01*
X158262Y154642D01*
X158098Y154552D01*
X157934Y154478D01*
X157770Y154404D01*
X157606Y154347D01*
X157442Y154298D01*
X157286Y154257D01*
X157131Y154224D01*
X156991Y154200D01*
X156852Y154175D01*
X156737Y154158D01*
X156622Y154150D01*
X156532Y154142D01*
X156458Y154134D01*
X156351D01*
X156171Y154142D01*
X155991Y154150D01*
X155646Y154208D01*
X155491Y154241D01*
X155335Y154281D01*
X155195Y154323D01*
X155064Y154364D01*
X154941Y154404D01*
X154834Y154446D01*
X154744Y154487D01*
X154662Y154519D01*
X154597Y154552D01*
X154556Y154577D01*
X154523Y154585D01*
X154515Y154593D01*
X154359Y154683D01*
X154211Y154790D01*
X154072Y154896D01*
X153949Y155003D01*
X153834Y155118D01*
X153719Y155233D01*
X153621Y155348D01*
X153531Y155454D01*
X153457Y155561D01*
X153383Y155659D01*
X153326Y155749D01*
X153277Y155823D01*
X153244Y155880D01*
X153219Y155930D01*
X153203Y155963D01*
X153194Y155971D01*
X153112Y156143D01*
X153039Y156323D01*
X152981Y156495D01*
X152924Y156676D01*
X152875Y156848D01*
X152842Y157020D01*
X152809Y157184D01*
X152785Y157340D01*
X152768Y157488D01*
X152752Y157619D01*
X152743Y157734D01*
X152735Y157832D01*
X152727Y157914D01*
Y157980D01*
Y158012D01*
Y158029D01*
X152735Y158242D01*
X152743Y158439D01*
X152768Y158636D01*
X152793Y158824D01*
X152825Y158996D01*
X152866Y159169D01*
X152908Y159325D01*
X152948Y159464D01*
X152989Y159595D01*
X153031Y159710D01*
X153063Y159817D01*
X153104Y159898D01*
X153129Y159964D01*
X153154Y160013D01*
X153162Y160046D01*
X153170Y160054D01*
X153260Y160218D01*
X153350Y160374D01*
X153457Y160522D01*
X153555Y160653D01*
X153662Y160776D01*
X153769Y160891D01*
X153875Y160997D01*
X153982Y161096D01*
X154080Y161178D01*
X154170Y161251D01*
X154244Y161317D01*
X154318Y161366D01*
X154375Y161407D01*
X154416Y161432D01*
X154449Y161448D01*
X154457Y161457D01*
X154621Y161547D01*
X154777Y161620D01*
X154941Y161686D01*
X155105Y161743D01*
X155269Y161793D01*
X155425Y161834D01*
X155572Y161866D01*
X155720Y161891D01*
X155851Y161916D01*
X155966Y161932D01*
X156073Y161940D01*
X156171Y161949D01*
X156245Y161957D01*
X156343D01*
X156639Y161949D01*
D02*
G37*
G36*
X141961D02*
X142239Y161907D01*
X142502Y161858D01*
X142748Y161793D01*
X142985Y161711D01*
X143199Y161620D01*
X143395Y161522D01*
X143576Y161424D01*
X143740Y161325D01*
X143879Y161227D01*
X143994Y161137D01*
X144101Y161055D01*
X144175Y160989D01*
X144232Y160940D01*
X144273Y160899D01*
X144281Y160891D01*
X144462Y160686D01*
X144617Y160456D01*
X144748Y160227D01*
X144863Y159980D01*
X144962Y159734D01*
X145044Y159488D01*
X145109Y159251D01*
X145167Y159013D01*
X145208Y158791D01*
X145232Y158595D01*
X145257Y158406D01*
X145273Y158250D01*
X145282Y158119D01*
Y158070D01*
X145290Y158021D01*
Y157988D01*
Y157963D01*
Y157947D01*
Y157939D01*
X145282Y157758D01*
X145273Y157570D01*
X145224Y157225D01*
X145191Y157061D01*
X145159Y156905D01*
X145117Y156758D01*
X145077Y156627D01*
X145036Y156495D01*
X144994Y156389D01*
X144962Y156290D01*
X144929Y156209D01*
X144904Y156143D01*
X144880Y156094D01*
X144871Y156061D01*
X144863Y156053D01*
X144773Y155889D01*
X144683Y155733D01*
X144585Y155594D01*
X144478Y155454D01*
X144371Y155331D01*
X144265Y155216D01*
X144166Y155110D01*
X144060Y155011D01*
X143961Y154929D01*
X143871Y154856D01*
X143789Y154790D01*
X143723Y154741D01*
X143666Y154700D01*
X143617Y154667D01*
X143592Y154650D01*
X143584Y154642D01*
X143420Y154552D01*
X143256Y154478D01*
X143092Y154404D01*
X142928Y154347D01*
X142764Y154298D01*
X142608Y154257D01*
X142453Y154224D01*
X142313Y154200D01*
X142174Y154175D01*
X142059Y154158D01*
X141944Y154150D01*
X141854Y154142D01*
X141780Y154134D01*
X141674D01*
X141493Y154142D01*
X141313Y154150D01*
X140968Y154208D01*
X140813Y154241D01*
X140657Y154281D01*
X140517Y154323D01*
X140386Y154364D01*
X140263Y154404D01*
X140156Y154446D01*
X140066Y154487D01*
X139984Y154519D01*
X139919Y154552D01*
X139878Y154577D01*
X139845Y154585D01*
X139837Y154593D01*
X139681Y154683D01*
X139533Y154790D01*
X139394Y154896D01*
X139271Y155003D01*
X139156Y155118D01*
X139041Y155233D01*
X138943Y155348D01*
X138853Y155454D01*
X138779Y155561D01*
X138705Y155659D01*
X138648Y155749D01*
X138599Y155823D01*
X138566Y155880D01*
X138541Y155930D01*
X138525Y155962D01*
X138516Y155971D01*
X138435Y156143D01*
X138361Y156323D01*
X138303Y156495D01*
X138246Y156676D01*
X138197Y156848D01*
X138164Y157020D01*
X138131Y157184D01*
X138107Y157340D01*
X138090Y157488D01*
X138074Y157619D01*
X138066Y157734D01*
X138057Y157832D01*
X138049Y157914D01*
Y157980D01*
Y158012D01*
Y158029D01*
X138057Y158242D01*
X138066Y158439D01*
X138090Y158636D01*
X138115Y158824D01*
X138147Y158996D01*
X138189Y159169D01*
X138230Y159325D01*
X138270Y159464D01*
X138312Y159595D01*
X138353Y159710D01*
X138385Y159817D01*
X138426Y159898D01*
X138451Y159964D01*
X138476Y160013D01*
X138484Y160046D01*
X138492Y160054D01*
X138582Y160218D01*
X138672Y160374D01*
X138779Y160522D01*
X138877Y160653D01*
X138984Y160776D01*
X139091Y160891D01*
X139197Y160997D01*
X139304Y161096D01*
X139402Y161178D01*
X139492Y161251D01*
X139566Y161317D01*
X139640Y161366D01*
X139697Y161407D01*
X139738Y161432D01*
X139771Y161448D01*
X139779Y161456D01*
X139943Y161547D01*
X140099Y161620D01*
X140263Y161686D01*
X140427Y161743D01*
X140591Y161793D01*
X140747Y161834D01*
X140894Y161866D01*
X141042Y161891D01*
X141173Y161916D01*
X141288Y161932D01*
X141395Y161940D01*
X141493Y161949D01*
X141567Y161957D01*
X141665D01*
X141961Y161949D01*
D02*
G37*
G36*
X104449Y85231D02*
X104586Y85225D01*
X104711Y85209D01*
X104837Y85187D01*
X104952Y85165D01*
X105066Y85138D01*
X105170Y85111D01*
X105263Y85083D01*
X105350Y85056D01*
X105427Y85029D01*
X105492Y85001D01*
X105552Y84980D01*
X105596Y84958D01*
X105629Y84941D01*
X105650Y84936D01*
X105656Y84930D01*
X105765Y84870D01*
X105869Y84799D01*
X105962Y84728D01*
X106054Y84658D01*
X106136Y84581D01*
X106207Y84505D01*
X106278Y84428D01*
X106338Y84357D01*
X106393Y84286D01*
X106442Y84221D01*
X106480Y84161D01*
X106513Y84111D01*
X106540Y84073D01*
X106557Y84040D01*
X106568Y84019D01*
X106573Y84013D01*
X106628Y83899D01*
X106677Y83778D01*
X106720Y83664D01*
X106753Y83549D01*
X106786Y83429D01*
X106813Y83320D01*
X106835Y83211D01*
X106851Y83112D01*
X106862Y83020D01*
X106873Y82932D01*
X106879Y82856D01*
X106884Y82790D01*
X106890Y82736D01*
Y82665D01*
X106879Y82463D01*
X106857Y82266D01*
X106830Y82086D01*
X106808Y82004D01*
X106791Y81922D01*
X106775Y81851D01*
X106753Y81791D01*
X106737Y81731D01*
X106726Y81687D01*
X106710Y81643D01*
X106704Y81616D01*
X106693Y81600D01*
Y81594D01*
X106611Y81398D01*
X106518Y81212D01*
X106420Y81043D01*
X106371Y80961D01*
X106327Y80890D01*
X106284Y80825D01*
X106240Y80765D01*
X106207Y80710D01*
X106175Y80666D01*
X106147Y80628D01*
X106125Y80601D01*
X106114Y80584D01*
X106109Y80579D01*
X104236D01*
Y82714D01*
X104831D01*
Y81234D01*
X105776D01*
X105847Y81321D01*
X105907Y81420D01*
X105967Y81523D01*
X106022Y81627D01*
X106065Y81720D01*
X106087Y81758D01*
X106104Y81791D01*
X106114Y81824D01*
X106125Y81846D01*
X106131Y81857D01*
Y81862D01*
X106185Y82015D01*
X106224Y82168D01*
X106256Y82310D01*
X106273Y82435D01*
X106278Y82495D01*
X106284Y82544D01*
X106289Y82588D01*
Y82626D01*
X106295Y82659D01*
Y82703D01*
X106284Y82888D01*
X106262Y83063D01*
X106224Y83222D01*
X106207Y83298D01*
X106185Y83363D01*
X106164Y83424D01*
X106147Y83478D01*
X106125Y83527D01*
X106109Y83571D01*
X106098Y83604D01*
X106087Y83626D01*
X106076Y83642D01*
Y83647D01*
X106033Y83729D01*
X105983Y83806D01*
X105880Y83937D01*
X105765Y84051D01*
X105656Y84150D01*
X105558Y84221D01*
X105514Y84253D01*
X105481Y84275D01*
X105448Y84297D01*
X105427Y84308D01*
X105410Y84313D01*
X105405Y84319D01*
X105225Y84395D01*
X105033Y84450D01*
X104848Y84494D01*
X104667Y84521D01*
X104586Y84526D01*
X104509Y84537D01*
X104444Y84543D01*
X104384D01*
X104340Y84548D01*
X104302D01*
X104280D01*
X104274D01*
X104072Y84537D01*
X103881Y84516D01*
X103712Y84488D01*
X103630Y84472D01*
X103559Y84450D01*
X103494Y84434D01*
X103434Y84417D01*
X103384Y84401D01*
X103341Y84385D01*
X103303Y84373D01*
X103281Y84363D01*
X103264Y84357D01*
X103259D01*
X103161Y84313D01*
X103068Y84264D01*
X102980Y84210D01*
X102909Y84161D01*
X102849Y84117D01*
X102800Y84079D01*
X102773Y84057D01*
X102762Y84046D01*
X102680Y83964D01*
X102609Y83871D01*
X102544Y83784D01*
X102489Y83697D01*
X102445Y83620D01*
X102418Y83560D01*
X102407Y83538D01*
X102396Y83522D01*
X102391Y83511D01*
Y83505D01*
X102342Y83374D01*
X102309Y83243D01*
X102281Y83107D01*
X102265Y82987D01*
X102260Y82927D01*
X102254Y82877D01*
Y82828D01*
X102249Y82790D01*
Y82714D01*
X102254Y82577D01*
X102271Y82446D01*
X102292Y82332D01*
X102314Y82228D01*
X102342Y82146D01*
X102352Y82108D01*
X102363Y82080D01*
X102374Y82059D01*
X102380Y82042D01*
X102385Y82031D01*
Y82026D01*
X102440Y81916D01*
X102495Y81818D01*
X102555Y81736D01*
X102609Y81665D01*
X102664Y81616D01*
X102702Y81578D01*
X102729Y81551D01*
X102740Y81545D01*
X102828Y81485D01*
X102926Y81431D01*
X103024Y81381D01*
X103122Y81338D01*
X103210Y81305D01*
X103248Y81294D01*
X103275Y81283D01*
X103303Y81272D01*
X103324Y81267D01*
X103335Y81261D01*
X103341D01*
X103177Y80655D01*
X102997Y80710D01*
X102833Y80770D01*
X102762Y80803D01*
X102691Y80835D01*
X102631Y80863D01*
X102576Y80896D01*
X102522Y80923D01*
X102478Y80950D01*
X102440Y80977D01*
X102407Y80994D01*
X102385Y81016D01*
X102369Y81027D01*
X102358Y81032D01*
X102352Y81037D01*
X102238Y81141D01*
X102140Y81250D01*
X102058Y81365D01*
X101987Y81480D01*
X101932Y81578D01*
X101910Y81622D01*
X101894Y81660D01*
X101877Y81687D01*
X101867Y81709D01*
X101861Y81725D01*
Y81731D01*
X101801Y81900D01*
X101757Y82069D01*
X101725Y82239D01*
X101703Y82392D01*
X101697Y82463D01*
X101692Y82523D01*
X101686Y82577D01*
X101681Y82626D01*
Y82719D01*
X101686Y82856D01*
X101692Y82992D01*
X101708Y83123D01*
X101730Y83243D01*
X101752Y83363D01*
X101779Y83473D01*
X101806Y83576D01*
X101834Y83669D01*
X101867Y83751D01*
X101894Y83828D01*
X101921Y83893D01*
X101943Y83948D01*
X101965Y83991D01*
X101981Y84024D01*
X101987Y84046D01*
X101992Y84051D01*
X102052Y84155D01*
X102123Y84253D01*
X102194Y84346D01*
X102271Y84428D01*
X102352Y84510D01*
X102429Y84581D01*
X102505Y84646D01*
X102582Y84707D01*
X102658Y84756D01*
X102724Y84805D01*
X102784Y84843D01*
X102838Y84876D01*
X102882Y84898D01*
X102915Y84914D01*
X102937Y84925D01*
X102942Y84930D01*
X103062Y84985D01*
X103182Y85029D01*
X103303Y85072D01*
X103423Y85105D01*
X103652Y85160D01*
X103761Y85182D01*
X103865Y85198D01*
X103958Y85209D01*
X104045Y85220D01*
X104121Y85225D01*
X104187Y85231D01*
X104242Y85236D01*
X104280D01*
X104302D01*
X104313D01*
X104449Y85231D01*
D02*
G37*
G36*
X106808Y78963D02*
X102855D01*
X106808Y76320D01*
Y75632D01*
X101768D01*
Y76271D01*
X105727D01*
X101768Y78919D01*
Y79602D01*
X106808D01*
Y78963D01*
D02*
G37*
G36*
Y72695D02*
X106802Y72531D01*
X106797Y72378D01*
X106781Y72241D01*
X106764Y72121D01*
X106759Y72072D01*
X106753Y72028D01*
X106742Y71985D01*
X106737Y71952D01*
X106731Y71925D01*
Y71908D01*
X106726Y71897D01*
Y71892D01*
X106688Y71766D01*
X106649Y71646D01*
X106606Y71543D01*
X106568Y71455D01*
X106529Y71384D01*
X106502Y71330D01*
X106480Y71297D01*
X106475Y71291D01*
Y71286D01*
X106404Y71193D01*
X106333Y71106D01*
X106256Y71029D01*
X106180Y70964D01*
X106114Y70904D01*
X106065Y70865D01*
X106044Y70849D01*
X106027Y70838D01*
X106022Y70827D01*
X106016D01*
X105902Y70751D01*
X105781Y70685D01*
X105656Y70625D01*
X105541Y70576D01*
X105437Y70538D01*
X105394Y70521D01*
X105356Y70505D01*
X105328Y70500D01*
X105306Y70489D01*
X105290Y70483D01*
X105285D01*
X105110Y70440D01*
X104935Y70407D01*
X104766Y70380D01*
X104607Y70363D01*
X104536Y70358D01*
X104471Y70352D01*
X104411D01*
X104362Y70347D01*
X104318D01*
X104291D01*
X104269D01*
X104263D01*
X104018Y70358D01*
X103903Y70363D01*
X103794Y70380D01*
X103690Y70396D01*
X103592Y70412D01*
X103499Y70429D01*
X103412Y70445D01*
X103335Y70467D01*
X103270Y70483D01*
X103210Y70500D01*
X103161Y70516D01*
X103122Y70532D01*
X103090Y70538D01*
X103073Y70549D01*
X103068D01*
X102882Y70631D01*
X102713Y70723D01*
X102636Y70773D01*
X102565Y70822D01*
X102500Y70871D01*
X102440Y70920D01*
X102385Y70964D01*
X102342Y71008D01*
X102298Y71046D01*
X102265Y71078D01*
X102238Y71106D01*
X102222Y71128D01*
X102210Y71139D01*
X102205Y71144D01*
X102112Y71264D01*
X102036Y71390D01*
X101976Y71510D01*
X101927Y71624D01*
X101888Y71728D01*
X101877Y71772D01*
X101867Y71810D01*
X101856Y71837D01*
X101850Y71859D01*
X101845Y71876D01*
Y71881D01*
X101834Y71941D01*
X101817Y72007D01*
X101801Y72154D01*
X101785Y72302D01*
X101779Y72449D01*
X101774Y72514D01*
Y72580D01*
X101768Y72635D01*
Y74513D01*
X106808D01*
Y72695D01*
D02*
G37*
G36*
X92605Y83472D02*
X93986D01*
Y82888D01*
X92605D01*
Y81517D01*
X92026D01*
Y82888D01*
X90656D01*
Y83472D01*
X92026D01*
Y84842D01*
X92605D01*
Y83472D01*
D02*
G37*
G36*
X93593Y80813D02*
X93708Y80791D01*
X93812Y80764D01*
X93910Y80726D01*
X93997Y80687D01*
X94085Y80649D01*
X94161Y80606D01*
X94227Y80562D01*
X94292Y80518D01*
X94347Y80480D01*
X94390Y80442D01*
X94429Y80404D01*
X94462Y80376D01*
X94483Y80354D01*
X94494Y80344D01*
X94500Y80338D01*
X94565Y80251D01*
X94625Y80163D01*
X94674Y80071D01*
X94718Y79978D01*
X94756Y79885D01*
X94789Y79792D01*
X94816Y79699D01*
X94833Y79612D01*
X94849Y79530D01*
X94860Y79453D01*
X94871Y79388D01*
X94876Y79328D01*
X94882Y79279D01*
Y79213D01*
X94876Y79060D01*
X94855Y78918D01*
X94827Y78782D01*
X94784Y78656D01*
X94740Y78536D01*
X94691Y78427D01*
X94631Y78329D01*
X94576Y78241D01*
X94521Y78159D01*
X94462Y78088D01*
X94412Y78028D01*
X94363Y77979D01*
X94325Y77941D01*
X94298Y77914D01*
X94276Y77897D01*
X94270Y77892D01*
X94178Y77821D01*
X94079Y77761D01*
X93976Y77706D01*
X93877Y77663D01*
X93779Y77624D01*
X93681Y77592D01*
X93582Y77564D01*
X93495Y77543D01*
X93408Y77526D01*
X93331Y77515D01*
X93266Y77504D01*
X93206Y77499D01*
X93156Y77493D01*
X93124D01*
X93097D01*
X93091D01*
X92960Y77499D01*
X92834Y77515D01*
X92714Y77537D01*
X92605Y77564D01*
X92496Y77597D01*
X92403Y77641D01*
X92310Y77679D01*
X92228Y77723D01*
X92157Y77766D01*
X92097Y77805D01*
X92037Y77843D01*
X91993Y77881D01*
X91961Y77908D01*
X91934Y77930D01*
X91917Y77947D01*
X91912Y77952D01*
X91830Y78039D01*
X91759Y78132D01*
X91699Y78225D01*
X91644Y78318D01*
X91600Y78411D01*
X91562Y78503D01*
X91535Y78591D01*
X91508Y78678D01*
X91491Y78755D01*
X91475Y78831D01*
X91469Y78897D01*
X91458Y78951D01*
Y78995D01*
X91453Y79033D01*
Y79060D01*
X91458Y79153D01*
X91464Y79246D01*
X91480Y79333D01*
X91502Y79421D01*
X91551Y79579D01*
X91584Y79655D01*
X91611Y79721D01*
X91639Y79786D01*
X91671Y79841D01*
X91699Y79890D01*
X91720Y79934D01*
X91742Y79967D01*
X91753Y79989D01*
X91764Y80005D01*
X91770Y80010D01*
X90416Y79743D01*
Y77728D01*
X89826D01*
Y80234D01*
X92414Y80720D01*
X92496Y80141D01*
X92419Y80087D01*
X92348Y80027D01*
X92288Y79961D01*
X92234Y79907D01*
X92196Y79852D01*
X92163Y79808D01*
X92146Y79781D01*
X92141Y79770D01*
X92092Y79677D01*
X92059Y79584D01*
X92032Y79492D01*
X92015Y79404D01*
X92005Y79333D01*
X91999Y79273D01*
Y79224D01*
X92005Y79137D01*
X92010Y79055D01*
X92026Y78973D01*
X92048Y78902D01*
X92097Y78765D01*
X92125Y78711D01*
X92152Y78656D01*
X92185Y78607D01*
X92212Y78569D01*
X92239Y78531D01*
X92261Y78503D01*
X92283Y78482D01*
X92299Y78460D01*
X92305Y78454D01*
X92310Y78449D01*
X92370Y78394D01*
X92436Y78351D01*
X92501Y78307D01*
X92567Y78274D01*
X92709Y78219D01*
X92840Y78187D01*
X92905Y78176D01*
X92960Y78165D01*
X93015Y78159D01*
X93058Y78154D01*
X93097Y78149D01*
X93124D01*
X93140D01*
X93146D01*
X93249Y78154D01*
X93342Y78159D01*
X93435Y78176D01*
X93522Y78198D01*
X93599Y78219D01*
X93675Y78247D01*
X93741Y78274D01*
X93801Y78301D01*
X93855Y78334D01*
X93905Y78361D01*
X93943Y78389D01*
X93981Y78411D01*
X94008Y78433D01*
X94025Y78449D01*
X94036Y78454D01*
X94041Y78460D01*
X94101Y78520D01*
X94150Y78580D01*
X94194Y78640D01*
X94232Y78706D01*
X94265Y78771D01*
X94292Y78831D01*
X94330Y78951D01*
X94358Y79055D01*
X94363Y79099D01*
X94369Y79137D01*
X94374Y79170D01*
Y79213D01*
X94369Y79284D01*
X94363Y79350D01*
X94336Y79470D01*
X94298Y79579D01*
X94254Y79672D01*
X94216Y79748D01*
X94178Y79803D01*
X94161Y79825D01*
X94150Y79841D01*
X94139Y79847D01*
Y79852D01*
X94090Y79896D01*
X94041Y79939D01*
X93932Y80010D01*
X93812Y80071D01*
X93697Y80114D01*
X93593Y80141D01*
X93544Y80158D01*
X93506Y80163D01*
X93473Y80169D01*
X93451Y80174D01*
X93435Y80180D01*
X93429D01*
X93479Y80829D01*
X93593Y80813D01*
D02*
G37*
G36*
X94800Y75227D02*
Y74540D01*
X89760Y72574D01*
Y73251D01*
X93424Y74611D01*
X93577Y74665D01*
X93724Y74720D01*
X93866Y74769D01*
X93992Y74807D01*
X94046Y74823D01*
X94096Y74840D01*
X94139Y74851D01*
X94178Y74862D01*
X94205Y74873D01*
X94232Y74878D01*
X94243Y74884D01*
X94248D01*
X94101Y74927D01*
X93954Y74971D01*
X93817Y75015D01*
X93692Y75053D01*
X93632Y75075D01*
X93582Y75091D01*
X93539Y75107D01*
X93501Y75118D01*
X93468Y75129D01*
X93446Y75140D01*
X93429Y75146D01*
X93424D01*
X89760Y76456D01*
Y77182D01*
X94800Y75227D01*
D02*
G37*
G36*
X63501Y113726D02*
X59209D01*
X63501Y112273D01*
Y111673D01*
X59280Y110199D01*
X63501D01*
Y109554D01*
X58461D01*
Y110455D01*
X61967Y111667D01*
X62065Y111700D01*
X62152Y111733D01*
X62239Y111760D01*
X62316Y111787D01*
X62392Y111809D01*
X62458Y111831D01*
X62518Y111853D01*
X62573Y111869D01*
X62616Y111886D01*
X62660Y111897D01*
X62693Y111908D01*
X62726Y111918D01*
X62747Y111924D01*
X62764Y111930D01*
X62769Y111935D01*
X62775D01*
X62726Y111951D01*
X62671Y111968D01*
X62556Y112006D01*
X62431Y112044D01*
X62310Y112082D01*
X62201Y112121D01*
X62152Y112137D01*
X62114Y112148D01*
X62081Y112159D01*
X62054Y112170D01*
X62037Y112175D01*
X62032D01*
X58461Y113371D01*
Y114370D01*
X63501D01*
Y113726D01*
D02*
G37*
G36*
X61169Y108681D02*
X61295Y108675D01*
X61524Y108642D01*
X61633Y108621D01*
X61737Y108599D01*
X61835Y108572D01*
X61923Y108544D01*
X62010Y108517D01*
X62081Y108490D01*
X62147Y108468D01*
X62201Y108446D01*
X62245Y108430D01*
X62278Y108413D01*
X62300Y108408D01*
X62305Y108402D01*
X62414Y108342D01*
X62518Y108282D01*
X62611Y108217D01*
X62704Y108146D01*
X62786Y108075D01*
X62862Y108004D01*
X62933Y107938D01*
X62998Y107867D01*
X63053Y107802D01*
X63102Y107742D01*
X63146Y107687D01*
X63179Y107643D01*
X63206Y107605D01*
X63228Y107572D01*
X63239Y107556D01*
X63244Y107551D01*
X63304Y107441D01*
X63353Y107332D01*
X63402Y107223D01*
X63441Y107114D01*
X63473Y107004D01*
X63501Y106901D01*
X63523Y106797D01*
X63539Y106704D01*
X63555Y106611D01*
X63566Y106535D01*
X63572Y106458D01*
X63577Y106398D01*
X63583Y106349D01*
Y106278D01*
X63577Y106158D01*
X63572Y106038D01*
X63534Y105809D01*
X63512Y105705D01*
X63484Y105601D01*
X63457Y105508D01*
X63430Y105421D01*
X63402Y105339D01*
X63375Y105268D01*
X63348Y105208D01*
X63326Y105154D01*
X63304Y105110D01*
X63288Y105083D01*
X63282Y105061D01*
X63277Y105055D01*
X63217Y104952D01*
X63146Y104853D01*
X63075Y104761D01*
X63004Y104679D01*
X62928Y104602D01*
X62851Y104526D01*
X62775Y104460D01*
X62704Y104400D01*
X62633Y104351D01*
X62567Y104302D01*
X62507Y104264D01*
X62458Y104231D01*
X62420Y104209D01*
X62387Y104193D01*
X62365Y104182D01*
X62360Y104176D01*
X62245Y104122D01*
X62125Y104072D01*
X62010Y104034D01*
X61890Y103996D01*
X61775Y103963D01*
X61661Y103942D01*
X61552Y103920D01*
X61448Y103903D01*
X61349Y103892D01*
X61262Y103881D01*
X61186Y103876D01*
X61120Y103870D01*
X61066Y103865D01*
X61022D01*
X61000D01*
X60989D01*
X60847Y103870D01*
X60716Y103876D01*
X60585Y103892D01*
X60460Y103909D01*
X60345Y103931D01*
X60230Y103958D01*
X60127Y103985D01*
X60034Y104013D01*
X59946Y104040D01*
X59870Y104067D01*
X59799Y104089D01*
X59744Y104116D01*
X59701Y104133D01*
X59668Y104149D01*
X59646Y104154D01*
X59641Y104160D01*
X59531Y104220D01*
X59428Y104280D01*
X59329Y104351D01*
X59242Y104417D01*
X59160Y104488D01*
X59084Y104559D01*
X59013Y104629D01*
X58947Y104700D01*
X58893Y104766D01*
X58843Y104826D01*
X58800Y104875D01*
X58767Y104924D01*
X58740Y104963D01*
X58723Y104990D01*
X58712Y105012D01*
X58707Y105017D01*
X58647Y105126D01*
X58598Y105230D01*
X58554Y105339D01*
X58516Y105448D01*
X58483Y105558D01*
X58456Y105661D01*
X58434Y105760D01*
X58417Y105858D01*
X58401Y105945D01*
X58390Y106022D01*
X58385Y106093D01*
X58379Y106158D01*
X58374Y106207D01*
Y106273D01*
X58379Y106470D01*
X58407Y106655D01*
X58439Y106830D01*
X58483Y106994D01*
X58538Y107152D01*
X58598Y107294D01*
X58663Y107425D01*
X58729Y107545D01*
X58794Y107654D01*
X58860Y107747D01*
X58920Y107824D01*
X58974Y107895D01*
X59018Y107944D01*
X59051Y107982D01*
X59078Y108009D01*
X59084Y108015D01*
X59220Y108135D01*
X59373Y108238D01*
X59526Y108326D01*
X59690Y108402D01*
X59854Y108468D01*
X60017Y108522D01*
X60176Y108566D01*
X60334Y108604D01*
X60481Y108632D01*
X60612Y108648D01*
X60738Y108664D01*
X60842Y108675D01*
X60929Y108681D01*
X60962D01*
X60995Y108686D01*
X61016D01*
X61033D01*
X61044D01*
X61049D01*
X61169Y108681D01*
D02*
G37*
G36*
X59056Y101725D02*
X63501D01*
Y101059D01*
X59056D01*
Y99399D01*
X58461D01*
Y103385D01*
X59056D01*
Y101725D01*
D02*
G37*
G36*
X61169Y98907D02*
X61295Y98902D01*
X61524Y98869D01*
X61633Y98847D01*
X61737Y98826D01*
X61835Y98798D01*
X61923Y98771D01*
X62010Y98744D01*
X62081Y98716D01*
X62147Y98694D01*
X62201Y98673D01*
X62245Y98656D01*
X62278Y98640D01*
X62300Y98634D01*
X62305Y98629D01*
X62414Y98569D01*
X62518Y98509D01*
X62611Y98443D01*
X62704Y98372D01*
X62786Y98301D01*
X62862Y98230D01*
X62933Y98165D01*
X62998Y98094D01*
X63053Y98028D01*
X63102Y97968D01*
X63146Y97914D01*
X63179Y97870D01*
X63206Y97832D01*
X63228Y97799D01*
X63239Y97783D01*
X63244Y97777D01*
X63304Y97668D01*
X63353Y97559D01*
X63402Y97449D01*
X63441Y97340D01*
X63473Y97231D01*
X63501Y97127D01*
X63523Y97024D01*
X63539Y96931D01*
X63555Y96838D01*
X63566Y96762D01*
X63572Y96685D01*
X63577Y96625D01*
X63583Y96576D01*
Y96505D01*
X63577Y96385D01*
X63572Y96265D01*
X63534Y96035D01*
X63512Y95932D01*
X63484Y95828D01*
X63457Y95735D01*
X63430Y95648D01*
X63402Y95566D01*
X63375Y95495D01*
X63348Y95435D01*
X63326Y95380D01*
X63304Y95337D01*
X63288Y95309D01*
X63282Y95287D01*
X63277Y95282D01*
X63217Y95178D01*
X63146Y95080D01*
X63075Y94987D01*
X63004Y94905D01*
X62928Y94829D01*
X62851Y94752D01*
X62775Y94687D01*
X62704Y94627D01*
X62633Y94578D01*
X62567Y94528D01*
X62507Y94490D01*
X62458Y94458D01*
X62420Y94436D01*
X62387Y94419D01*
X62365Y94408D01*
X62360Y94403D01*
X62245Y94348D01*
X62125Y94299D01*
X62010Y94261D01*
X61890Y94223D01*
X61775Y94190D01*
X61661Y94168D01*
X61552Y94146D01*
X61448Y94130D01*
X61349Y94119D01*
X61262Y94108D01*
X61186Y94103D01*
X61120Y94097D01*
X61066Y94092D01*
X61022D01*
X61000D01*
X60989D01*
X60847Y94097D01*
X60716Y94103D01*
X60585Y94119D01*
X60460Y94135D01*
X60345Y94157D01*
X60230Y94184D01*
X60127Y94212D01*
X60034Y94239D01*
X59946Y94266D01*
X59870Y94294D01*
X59799Y94315D01*
X59744Y94343D01*
X59701Y94359D01*
X59668Y94376D01*
X59646Y94381D01*
X59641Y94387D01*
X59531Y94446D01*
X59428Y94507D01*
X59329Y94578D01*
X59242Y94643D01*
X59160Y94714D01*
X59084Y94785D01*
X59013Y94856D01*
X58947Y94927D01*
X58893Y94993D01*
X58843Y95053D01*
X58800Y95102D01*
X58767Y95151D01*
X58740Y95189D01*
X58723Y95216D01*
X58712Y95238D01*
X58707Y95244D01*
X58647Y95353D01*
X58598Y95457D01*
X58554Y95566D01*
X58516Y95675D01*
X58483Y95784D01*
X58456Y95888D01*
X58434Y95986D01*
X58417Y96084D01*
X58401Y96172D01*
X58390Y96248D01*
X58385Y96319D01*
X58379Y96385D01*
X58374Y96434D01*
Y96500D01*
X58379Y96696D01*
X58407Y96882D01*
X58439Y97056D01*
X58483Y97220D01*
X58538Y97379D01*
X58598Y97521D01*
X58663Y97652D01*
X58729Y97772D01*
X58794Y97881D01*
X58860Y97974D01*
X58920Y98050D01*
X58974Y98121D01*
X59018Y98170D01*
X59051Y98208D01*
X59078Y98236D01*
X59084Y98241D01*
X59220Y98361D01*
X59373Y98465D01*
X59526Y98553D01*
X59690Y98629D01*
X59854Y98694D01*
X60017Y98749D01*
X60176Y98793D01*
X60334Y98831D01*
X60481Y98858D01*
X60612Y98875D01*
X60738Y98891D01*
X60842Y98902D01*
X60929Y98907D01*
X60962D01*
X60995Y98913D01*
X61016D01*
X61033D01*
X61044D01*
X61049D01*
X61169Y98907D01*
D02*
G37*
G36*
X63501Y92557D02*
X61262D01*
Y91700D01*
X61268Y91624D01*
X61273Y91558D01*
Y91504D01*
X61279Y91465D01*
X61284Y91438D01*
X61290Y91422D01*
Y91416D01*
X61306Y91356D01*
X61328Y91302D01*
X61349Y91252D01*
X61371Y91203D01*
X61393Y91165D01*
X61410Y91138D01*
X61421Y91116D01*
X61426Y91110D01*
X61464Y91056D01*
X61519Y90996D01*
X61573Y90936D01*
X61628Y90887D01*
X61677Y90838D01*
X61721Y90805D01*
X61748Y90783D01*
X61754Y90772D01*
X61759D01*
X61857Y90696D01*
X61967Y90614D01*
X62081Y90537D01*
X62196Y90461D01*
X62294Y90395D01*
X62338Y90363D01*
X62376Y90341D01*
X62409Y90319D01*
X62431Y90302D01*
X62447Y90297D01*
X62453Y90292D01*
X63501Y89625D01*
Y88790D01*
X62130Y89664D01*
X61988Y89762D01*
X61857Y89860D01*
X61743Y89953D01*
X61644Y90035D01*
X61568Y90106D01*
X61535Y90139D01*
X61508Y90166D01*
X61486Y90188D01*
X61470Y90204D01*
X61464Y90210D01*
X61459Y90215D01*
X61415Y90270D01*
X61366Y90335D01*
X61328Y90401D01*
X61290Y90466D01*
X61257Y90526D01*
X61229Y90575D01*
X61213Y90608D01*
X61208Y90614D01*
Y90619D01*
X61186Y90488D01*
X61158Y90363D01*
X61126Y90248D01*
X61093Y90144D01*
X61055Y90046D01*
X61016Y89958D01*
X60978Y89882D01*
X60940Y89811D01*
X60902Y89745D01*
X60864Y89691D01*
X60831Y89647D01*
X60804Y89609D01*
X60776Y89582D01*
X60760Y89560D01*
X60749Y89549D01*
X60743Y89543D01*
X60672Y89483D01*
X60602Y89429D01*
X60525Y89380D01*
X60449Y89341D01*
X60372Y89309D01*
X60296Y89281D01*
X60154Y89238D01*
X60088Y89221D01*
X60028Y89210D01*
X59974Y89205D01*
X59925Y89200D01*
X59892Y89194D01*
X59859D01*
X59843D01*
X59837D01*
X59684Y89205D01*
X59542Y89227D01*
X59417Y89259D01*
X59302Y89298D01*
X59253Y89320D01*
X59209Y89341D01*
X59171Y89358D01*
X59138Y89374D01*
X59111Y89385D01*
X59095Y89396D01*
X59084Y89407D01*
X59078D01*
X58958Y89489D01*
X58860Y89582D01*
X58772Y89675D01*
X58707Y89767D01*
X58658Y89844D01*
X58625Y89909D01*
X58614Y89937D01*
X58603Y89953D01*
X58598Y89964D01*
Y89969D01*
X58576Y90040D01*
X58554Y90111D01*
X58521Y90275D01*
X58494Y90444D01*
X58478Y90608D01*
X58472Y90690D01*
X58467Y90761D01*
Y90821D01*
X58461Y90881D01*
Y93224D01*
X63501D01*
Y92557D01*
D02*
G37*
G36*
X61988Y86568D02*
X61366D01*
Y88473D01*
X61988D01*
Y86568D01*
D02*
G37*
G36*
X63501Y85650D02*
X61977Y85105D01*
Y82986D01*
X63501Y82402D01*
Y81643D01*
X58461Y83707D01*
Y84427D01*
X63501Y86355D01*
Y85650D01*
D02*
G37*
G36*
X104256Y113774D02*
X104415Y113769D01*
X104551Y113752D01*
X104617Y113747D01*
X104672Y113736D01*
X104721Y113730D01*
X104764Y113725D01*
X104803Y113714D01*
X104835Y113708D01*
X104863Y113703D01*
X104879D01*
X104890Y113698D01*
X104895D01*
X105016Y113665D01*
X105125Y113627D01*
X105218Y113583D01*
X105294Y113545D01*
X105359Y113506D01*
X105409Y113479D01*
X105436Y113457D01*
X105447Y113452D01*
X105529Y113381D01*
X105600Y113304D01*
X105665Y113228D01*
X105714Y113152D01*
X105758Y113086D01*
X105791Y113031D01*
X105802Y113010D01*
X105813Y112993D01*
X105818Y112988D01*
Y112982D01*
X105867Y112868D01*
X105905Y112748D01*
X105933Y112638D01*
X105955Y112535D01*
X105965Y112447D01*
Y112415D01*
X105971Y112382D01*
Y112354D01*
Y112338D01*
Y112327D01*
Y112322D01*
Y112240D01*
X105960Y112163D01*
X105933Y112016D01*
X105889Y111885D01*
X105845Y111776D01*
X105824Y111726D01*
X105802Y111683D01*
X105780Y111645D01*
X105758Y111612D01*
X105742Y111590D01*
X105731Y111574D01*
X105725Y111563D01*
X105720Y111557D01*
X105622Y111443D01*
X105507Y111350D01*
X105392Y111268D01*
X105278Y111208D01*
X105179Y111159D01*
X105136Y111142D01*
X105097Y111126D01*
X105065Y111115D01*
X105043Y111104D01*
X105026Y111099D01*
X105021D01*
X105147Y111028D01*
X105250Y110951D01*
X105343Y110875D01*
X105414Y110804D01*
X105474Y110738D01*
X105512Y110689D01*
X105529Y110667D01*
X105540Y110651D01*
X105545Y110645D01*
Y110640D01*
X105605Y110531D01*
X105649Y110427D01*
X105682Y110323D01*
X105703Y110231D01*
X105714Y110149D01*
X105725Y110089D01*
Y110067D01*
Y110050D01*
Y110039D01*
Y110034D01*
X105714Y109903D01*
X105693Y109783D01*
X105660Y109668D01*
X105627Y109570D01*
X105589Y109488D01*
X105572Y109450D01*
X105556Y109422D01*
X105540Y109401D01*
X105534Y109384D01*
X105523Y109373D01*
Y109368D01*
X105441Y109259D01*
X105354Y109160D01*
X105267Y109078D01*
X105179Y109013D01*
X105097Y108964D01*
X105037Y108926D01*
X105010Y108915D01*
X104994Y108904D01*
X104983Y108898D01*
X104977D01*
X104835Y108844D01*
X104688Y108805D01*
X104530Y108778D01*
X104388Y108762D01*
X104317Y108751D01*
X104256Y108745D01*
X104197D01*
X104147Y108740D01*
X102165D01*
Y113779D01*
X104082D01*
X104256Y113774D01*
D02*
G37*
G36*
X94291Y108661D02*
X93587D01*
X93041Y110185D01*
X90922D01*
X90338Y108661D01*
X89579D01*
X91643Y113701D01*
X92364D01*
X94291Y108661D01*
D02*
G37*
%LPC*%
G36*
X136669Y112738D02*
X136636D01*
X136630D01*
X136625D01*
X136527Y112732D01*
X136445Y112716D01*
X136368Y112694D01*
X136303Y112672D01*
X136254Y112651D01*
X136215Y112629D01*
X136194Y112612D01*
X136183Y112607D01*
X136123Y112552D01*
X136068Y112492D01*
X136024Y112427D01*
X135992Y112367D01*
X135964Y112312D01*
X135948Y112268D01*
X135937Y112236D01*
X135932Y112230D01*
Y112225D01*
X135921Y112186D01*
X135915Y112143D01*
X135899Y112045D01*
X135888Y111935D01*
X135882Y111831D01*
Y111739D01*
X135877Y111695D01*
Y110499D01*
X137400D01*
Y111602D01*
X137395Y111695D01*
Y111777D01*
X137389Y111853D01*
X137384Y111924D01*
X137379Y111984D01*
X137373Y112045D01*
X137368Y112094D01*
X137357Y112132D01*
X137351Y112170D01*
X137346Y112203D01*
X137340Y112225D01*
X137335Y112247D01*
Y112257D01*
X137329Y112268D01*
X137297Y112350D01*
X137258Y112416D01*
X137215Y112476D01*
X137171Y112525D01*
X137133Y112563D01*
X137100Y112591D01*
X137078Y112607D01*
X137067Y112612D01*
X136996Y112656D01*
X136920Y112683D01*
X136843Y112705D01*
X136773Y112722D01*
X136712Y112732D01*
X136669Y112738D01*
D02*
G37*
G36*
X134463Y112951D02*
X134441D01*
X134425D01*
X134419D01*
X134414D01*
X134326Y112945D01*
X134245Y112934D01*
X134174Y112918D01*
X134113Y112902D01*
X134059Y112880D01*
X134021Y112864D01*
X133999Y112853D01*
X133988Y112847D01*
X133922Y112809D01*
X133868Y112765D01*
X133819Y112722D01*
X133780Y112683D01*
X133748Y112645D01*
X133726Y112618D01*
X133715Y112596D01*
X133709Y112591D01*
X133677Y112530D01*
X133649Y112465D01*
X133622Y112405D01*
X133606Y112345D01*
X133589Y112290D01*
X133578Y112247D01*
X133573Y112219D01*
Y112208D01*
X133567Y112154D01*
X133562Y112083D01*
X133556Y112006D01*
Y111935D01*
X133551Y111864D01*
Y110499D01*
X135282D01*
Y111662D01*
X135276Y111831D01*
X135271Y111979D01*
X135260Y112045D01*
X135255Y112104D01*
X135249Y112159D01*
X135238Y112214D01*
X135233Y112257D01*
X135222Y112296D01*
X135216Y112323D01*
X135211Y112350D01*
X135205Y112372D01*
X135200Y112388D01*
X135195Y112394D01*
Y112399D01*
X135156Y112492D01*
X135113Y112569D01*
X135069Y112640D01*
X135020Y112700D01*
X134976Y112743D01*
X134938Y112776D01*
X134916Y112798D01*
X134905Y112803D01*
X134823Y112853D01*
X134741Y112891D01*
X134659Y112913D01*
X134583Y112934D01*
X134512Y112945D01*
X134463Y112951D01*
D02*
G37*
G36*
X136652Y105787D02*
X136636D01*
X136625D01*
X136620D01*
X136532Y105782D01*
X136445Y105765D01*
X136368Y105744D01*
X136303Y105722D01*
X136243Y105694D01*
X136205Y105673D01*
X136177Y105656D01*
X136166Y105651D01*
X136095Y105596D01*
X136030Y105531D01*
X135981Y105465D01*
X135937Y105405D01*
X135904Y105345D01*
X135882Y105301D01*
X135872Y105269D01*
X135866Y105263D01*
Y105258D01*
X135833Y105154D01*
X135811Y105039D01*
X135795Y104919D01*
X135784Y104805D01*
X135779Y104701D01*
Y104657D01*
X135773Y104619D01*
Y103112D01*
X137439D01*
Y104810D01*
X137428Y104903D01*
X137417Y104990D01*
X137400Y105072D01*
X137384Y105143D01*
X137362Y105209D01*
X137346Y105269D01*
X137324Y105323D01*
X137302Y105372D01*
X137280Y105411D01*
X137258Y105449D01*
X137242Y105476D01*
X137226Y105498D01*
X137215Y105514D01*
X137209Y105520D01*
X137204Y105525D01*
X137160Y105569D01*
X137111Y105613D01*
X137018Y105678D01*
X136920Y105722D01*
X136827Y105754D01*
X136745Y105776D01*
X136707Y105782D01*
X136680D01*
X136652Y105787D01*
D02*
G37*
G36*
X135528Y100890D02*
X135495D01*
X135473D01*
X135468D01*
X135293Y100884D01*
X135124Y100868D01*
X134971Y100846D01*
X134823Y100813D01*
X134687Y100775D01*
X134567Y100737D01*
X134452Y100688D01*
X134354Y100644D01*
X134261Y100600D01*
X134184Y100557D01*
X134119Y100513D01*
X134064Y100475D01*
X134021Y100442D01*
X133993Y100420D01*
X133972Y100404D01*
X133966Y100398D01*
X133873Y100305D01*
X133791Y100207D01*
X133726Y100103D01*
X133666Y100000D01*
X133611Y99896D01*
X133567Y99792D01*
X133535Y99694D01*
X133507Y99596D01*
X133485Y99508D01*
X133469Y99421D01*
X133458Y99350D01*
X133453Y99284D01*
X133447Y99230D01*
X133442Y99192D01*
Y99159D01*
X133447Y99022D01*
X133464Y98897D01*
X133491Y98771D01*
X133524Y98656D01*
X133562Y98547D01*
X133606Y98449D01*
X133655Y98351D01*
X133704Y98269D01*
X133748Y98192D01*
X133797Y98127D01*
X133840Y98067D01*
X133879Y98018D01*
X133911Y97979D01*
X133939Y97952D01*
X133955Y97936D01*
X133960Y97930D01*
X134064Y97843D01*
X134174Y97772D01*
X134288Y97707D01*
X134408Y97652D01*
X134528Y97603D01*
X134643Y97565D01*
X134763Y97532D01*
X134878Y97505D01*
X134982Y97483D01*
X135080Y97472D01*
X135167Y97461D01*
X135244Y97450D01*
X135309D01*
X135358Y97444D01*
X135386D01*
X135397D01*
X135604Y97450D01*
X135795Y97466D01*
X135970Y97494D01*
X136128Y97526D01*
X136276Y97565D01*
X136407Y97603D01*
X136527Y97652D01*
X136636Y97701D01*
X136723Y97745D01*
X136805Y97794D01*
X136871Y97832D01*
X136925Y97876D01*
X136964Y97903D01*
X136996Y97930D01*
X137013Y97947D01*
X137018Y97952D01*
X137106Y98050D01*
X137182Y98154D01*
X137248Y98258D01*
X137302Y98362D01*
X137351Y98460D01*
X137389Y98564D01*
X137422Y98662D01*
X137450Y98755D01*
X137466Y98842D01*
X137482Y98919D01*
X137493Y98990D01*
X137504Y99050D01*
Y99104D01*
X137510Y99137D01*
Y99263D01*
X137499Y99355D01*
X137471Y99525D01*
X137428Y99678D01*
X137406Y99743D01*
X137384Y99809D01*
X137357Y99869D01*
X137335Y99918D01*
X137313Y99962D01*
X137291Y100000D01*
X137275Y100032D01*
X137264Y100054D01*
X137258Y100065D01*
X137253Y100071D01*
X137149Y100213D01*
X137034Y100333D01*
X136920Y100436D01*
X136805Y100524D01*
X136702Y100589D01*
X136658Y100617D01*
X136620Y100638D01*
X136587Y100655D01*
X136565Y100666D01*
X136549Y100677D01*
X136543D01*
X136363Y100748D01*
X136183Y100802D01*
X136003Y100840D01*
X135833Y100862D01*
X135757Y100873D01*
X135686Y100879D01*
X135626Y100884D01*
X135571D01*
X135528Y100890D01*
D02*
G37*
G36*
Y91116D02*
X135495D01*
X135473D01*
X135468D01*
X135293Y91111D01*
X135124Y91094D01*
X134971Y91073D01*
X134823Y91040D01*
X134687Y91002D01*
X134567Y90963D01*
X134452Y90914D01*
X134354Y90871D01*
X134261Y90827D01*
X134184Y90783D01*
X134119Y90740D01*
X134064Y90701D01*
X134021Y90669D01*
X133993Y90647D01*
X133972Y90630D01*
X133966Y90625D01*
X133873Y90532D01*
X133791Y90434D01*
X133726Y90330D01*
X133666Y90226D01*
X133611Y90123D01*
X133567Y90019D01*
X133535Y89921D01*
X133507Y89822D01*
X133485Y89735D01*
X133469Y89648D01*
X133458Y89577D01*
X133453Y89511D01*
X133447Y89456D01*
X133442Y89418D01*
Y89385D01*
X133447Y89249D01*
X133464Y89123D01*
X133491Y88998D01*
X133524Y88883D01*
X133562Y88774D01*
X133606Y88676D01*
X133655Y88577D01*
X133704Y88495D01*
X133748Y88419D01*
X133797Y88354D01*
X133840Y88293D01*
X133879Y88244D01*
X133911Y88206D01*
X133939Y88179D01*
X133955Y88162D01*
X133960Y88157D01*
X134064Y88070D01*
X134174Y87999D01*
X134288Y87933D01*
X134408Y87879D01*
X134528Y87829D01*
X134643Y87791D01*
X134763Y87758D01*
X134878Y87731D01*
X134982Y87709D01*
X135080Y87698D01*
X135167Y87687D01*
X135244Y87677D01*
X135309D01*
X135358Y87671D01*
X135386D01*
X135397D01*
X135604Y87677D01*
X135795Y87693D01*
X135970Y87720D01*
X136128Y87753D01*
X136276Y87791D01*
X136407Y87829D01*
X136527Y87879D01*
X136636Y87928D01*
X136723Y87971D01*
X136805Y88020D01*
X136871Y88059D01*
X136925Y88102D01*
X136964Y88130D01*
X136996Y88157D01*
X137013Y88173D01*
X137018Y88179D01*
X137106Y88277D01*
X137182Y88381D01*
X137248Y88485D01*
X137302Y88588D01*
X137351Y88687D01*
X137389Y88790D01*
X137422Y88889D01*
X137450Y88981D01*
X137466Y89069D01*
X137482Y89145D01*
X137493Y89216D01*
X137504Y89276D01*
Y89331D01*
X137510Y89364D01*
Y89489D01*
X137499Y89582D01*
X137471Y89751D01*
X137428Y89904D01*
X137406Y89970D01*
X137384Y90035D01*
X137357Y90095D01*
X137335Y90144D01*
X137313Y90188D01*
X137291Y90226D01*
X137275Y90259D01*
X137264Y90281D01*
X137258Y90292D01*
X137253Y90297D01*
X137149Y90439D01*
X137034Y90559D01*
X136920Y90663D01*
X136805Y90750D01*
X136702Y90816D01*
X136658Y90843D01*
X136620Y90865D01*
X136587Y90882D01*
X136565Y90892D01*
X136549Y90903D01*
X136543D01*
X136363Y90974D01*
X136183Y91029D01*
X136003Y91067D01*
X135833Y91089D01*
X135757Y91100D01*
X135686Y91105D01*
X135626Y91111D01*
X135571D01*
X135528Y91116D01*
D02*
G37*
G36*
X57005Y160989D02*
X54455D01*
X54315Y160973D01*
X54184Y160956D01*
X54061Y160932D01*
X53954Y160907D01*
X53856Y160874D01*
X53766Y160850D01*
X53684Y160817D01*
X53610Y160784D01*
X53553Y160751D01*
X53495Y160719D01*
X53454Y160694D01*
X53421Y160669D01*
X53397Y160653D01*
X53389Y160645D01*
X53380Y160636D01*
X53315Y160571D01*
X53249Y160497D01*
X53151Y160358D01*
X53085Y160210D01*
X53036Y160071D01*
X53003Y159948D01*
X52995Y159890D01*
Y159849D01*
X52987Y159808D01*
Y159784D01*
Y159767D01*
Y159759D01*
X52995Y159628D01*
X53020Y159497D01*
X53052Y159382D01*
X53085Y159283D01*
X53126Y159193D01*
X53159Y159136D01*
X53184Y159095D01*
X53192Y159078D01*
X53274Y158972D01*
X53372Y158873D01*
X53471Y158800D01*
X53561Y158734D01*
X53651Y158685D01*
X53717Y158652D01*
X53766Y158636D01*
X53774Y158627D01*
X53782D01*
X53938Y158578D01*
X54110Y158545D01*
X54291Y158521D01*
X54463Y158504D01*
X54619Y158496D01*
X54684D01*
X54742Y158488D01*
X57005D01*
Y160989D01*
D02*
G37*
G36*
X38965Y160333D02*
Y156922D01*
X41351D01*
X38965Y160333D01*
D02*
G37*
G36*
X77652Y161096D02*
X77464D01*
X77324Y161079D01*
X77070Y161038D01*
X76841Y160973D01*
X76742Y160940D01*
X76644Y160907D01*
X76554Y160866D01*
X76480Y160833D01*
X76414Y160801D01*
X76357Y160768D01*
X76308Y160743D01*
X76275Y160727D01*
X76258Y160719D01*
X76250Y160710D01*
X76037Y160555D01*
X75857Y160382D01*
X75701Y160210D01*
X75570Y160038D01*
X75471Y159882D01*
X75430Y159817D01*
X75397Y159759D01*
X75373Y159710D01*
X75356Y159677D01*
X75340Y159652D01*
Y159644D01*
X75233Y159374D01*
X75151Y159103D01*
X75094Y158833D01*
X75061Y158578D01*
X75045Y158464D01*
X75037Y158357D01*
X75028Y158267D01*
Y158185D01*
X75020Y158119D01*
Y158070D01*
Y158037D01*
Y158029D01*
X75028Y157766D01*
X75053Y157512D01*
X75086Y157283D01*
X75135Y157061D01*
X75192Y156856D01*
X75250Y156676D01*
X75324Y156504D01*
X75389Y156356D01*
X75455Y156217D01*
X75520Y156102D01*
X75586Y156003D01*
X75643Y155921D01*
X75693Y155856D01*
X75725Y155815D01*
X75750Y155782D01*
X75758Y155774D01*
X75898Y155634D01*
X76045Y155511D01*
X76201Y155413D01*
X76357Y155323D01*
X76513Y155241D01*
X76668Y155175D01*
X76816Y155126D01*
X76964Y155085D01*
X77095Y155052D01*
X77226Y155028D01*
X77333Y155011D01*
X77431Y155003D01*
X77513Y154995D01*
X77570Y154987D01*
X77620D01*
X77825Y154995D01*
X78013Y155019D01*
X78202Y155061D01*
X78374Y155110D01*
X78538Y155167D01*
X78686Y155233D01*
X78833Y155306D01*
X78956Y155380D01*
X79071Y155446D01*
X79169Y155520D01*
X79260Y155585D01*
X79333Y155643D01*
X79391Y155692D01*
X79432Y155733D01*
X79456Y155757D01*
X79465Y155766D01*
X79596Y155921D01*
X79702Y156086D01*
X79801Y156258D01*
X79883Y156438D01*
X79957Y156618D01*
X80014Y156791D01*
X80063Y156971D01*
X80104Y157143D01*
X80137Y157299D01*
X80153Y157447D01*
X80170Y157578D01*
X80186Y157693D01*
Y157791D01*
X80194Y157865D01*
Y157906D01*
Y157922D01*
X80186Y158234D01*
X80162Y158521D01*
X80121Y158783D01*
X80071Y159021D01*
X80014Y159242D01*
X79957Y159439D01*
X79883Y159620D01*
X79809Y159784D01*
X79743Y159915D01*
X79670Y160038D01*
X79612Y160136D01*
X79547Y160218D01*
X79506Y160276D01*
X79465Y160325D01*
X79440Y160350D01*
X79432Y160358D01*
X79284Y160489D01*
X79128Y160604D01*
X78973Y160702D01*
X78817Y160784D01*
X78669Y160858D01*
X78513Y160915D01*
X78366Y160965D01*
X78226Y161005D01*
X78095Y161030D01*
X77980Y161055D01*
X77874Y161071D01*
X77784Y161088D01*
X77702D01*
X77652Y161096D01*
D02*
G37*
G36*
X62974D02*
X62786D01*
X62646Y161079D01*
X62392Y161038D01*
X62163Y160973D01*
X62064Y160940D01*
X61966Y160907D01*
X61876Y160866D01*
X61802Y160833D01*
X61736Y160801D01*
X61679Y160768D01*
X61630Y160743D01*
X61597Y160727D01*
X61580Y160719D01*
X61572Y160710D01*
X61359Y160555D01*
X61179Y160382D01*
X61023Y160210D01*
X60892Y160038D01*
X60793Y159882D01*
X60752Y159817D01*
X60719Y159759D01*
X60695Y159710D01*
X60678Y159677D01*
X60662Y159652D01*
Y159644D01*
X60555Y159374D01*
X60473Y159103D01*
X60416Y158832D01*
X60383Y158578D01*
X60367Y158463D01*
X60359Y158357D01*
X60350Y158267D01*
Y158185D01*
X60342Y158119D01*
Y158070D01*
Y158037D01*
Y158029D01*
X60350Y157766D01*
X60375Y157512D01*
X60408Y157283D01*
X60457Y157061D01*
X60514Y156856D01*
X60572Y156676D01*
X60646Y156504D01*
X60711Y156356D01*
X60777Y156217D01*
X60842Y156102D01*
X60908Y156003D01*
X60965Y155921D01*
X61015Y155856D01*
X61047Y155815D01*
X61072Y155782D01*
X61080Y155774D01*
X61220Y155634D01*
X61367Y155511D01*
X61523Y155413D01*
X61679Y155323D01*
X61835Y155241D01*
X61990Y155175D01*
X62138Y155126D01*
X62286Y155085D01*
X62417Y155052D01*
X62548Y155028D01*
X62655Y155011D01*
X62753Y155003D01*
X62835Y154995D01*
X62892Y154987D01*
X62942D01*
X63147Y154995D01*
X63335Y155019D01*
X63524Y155061D01*
X63696Y155110D01*
X63860Y155167D01*
X64008Y155233D01*
X64155Y155306D01*
X64278Y155380D01*
X64393Y155446D01*
X64491Y155520D01*
X64582Y155585D01*
X64655Y155643D01*
X64713Y155692D01*
X64754Y155733D01*
X64778Y155757D01*
X64787Y155766D01*
X64918Y155921D01*
X65024Y156086D01*
X65123Y156258D01*
X65205Y156438D01*
X65279Y156618D01*
X65336Y156791D01*
X65385Y156971D01*
X65426Y157143D01*
X65459Y157299D01*
X65475Y157447D01*
X65492Y157578D01*
X65508Y157693D01*
Y157791D01*
X65516Y157865D01*
Y157906D01*
Y157922D01*
X65508Y158234D01*
X65484Y158521D01*
X65443Y158783D01*
X65393Y159021D01*
X65336Y159242D01*
X65279Y159439D01*
X65205Y159620D01*
X65131Y159784D01*
X65065Y159915D01*
X64992Y160038D01*
X64934Y160136D01*
X64869Y160218D01*
X64828Y160276D01*
X64787Y160325D01*
X64762Y160350D01*
X64754Y160358D01*
X64606Y160489D01*
X64450Y160604D01*
X64295Y160702D01*
X64139Y160784D01*
X63991Y160858D01*
X63835Y160915D01*
X63688Y160965D01*
X63548Y161005D01*
X63417Y161030D01*
X63302Y161055D01*
X63196Y161071D01*
X63106Y161088D01*
X63024D01*
X62974Y161096D01*
D02*
G37*
G36*
X135745Y160989D02*
X133195D01*
X133055Y160973D01*
X132924Y160956D01*
X132801Y160932D01*
X132694Y160907D01*
X132596Y160874D01*
X132506Y160850D01*
X132424Y160817D01*
X132350Y160784D01*
X132293Y160751D01*
X132235Y160719D01*
X132194Y160694D01*
X132161Y160669D01*
X132137Y160653D01*
X132129Y160645D01*
X132121Y160636D01*
X132055Y160571D01*
X131989Y160497D01*
X131891Y160358D01*
X131825Y160210D01*
X131776Y160071D01*
X131743Y159948D01*
X131735Y159890D01*
Y159849D01*
X131727Y159808D01*
Y159784D01*
Y159767D01*
Y159759D01*
X131735Y159628D01*
X131760Y159497D01*
X131792Y159382D01*
X131825Y159283D01*
X131866Y159193D01*
X131899Y159136D01*
X131924Y159095D01*
X131932Y159078D01*
X132014Y158972D01*
X132112Y158873D01*
X132211Y158800D01*
X132301Y158734D01*
X132391Y158685D01*
X132457Y158652D01*
X132506Y158636D01*
X132514Y158627D01*
X132522D01*
X132678Y158578D01*
X132850Y158545D01*
X133031Y158521D01*
X133203Y158504D01*
X133359Y158496D01*
X133424D01*
X133482Y158488D01*
X135745D01*
Y160989D01*
D02*
G37*
G36*
X117705Y160333D02*
Y156922D01*
X120091D01*
X117705Y160333D01*
D02*
G37*
G36*
X156393Y161096D02*
X156204D01*
X156064Y161079D01*
X155810Y161038D01*
X155581Y160973D01*
X155482Y160940D01*
X155384Y160907D01*
X155294Y160866D01*
X155220Y160833D01*
X155154Y160801D01*
X155097Y160768D01*
X155048Y160743D01*
X155015Y160727D01*
X154999Y160719D01*
X154990Y160710D01*
X154777Y160555D01*
X154597Y160382D01*
X154441Y160210D01*
X154310Y160038D01*
X154211Y159882D01*
X154170Y159817D01*
X154138Y159759D01*
X154113Y159710D01*
X154096Y159677D01*
X154080Y159652D01*
Y159644D01*
X153973Y159374D01*
X153892Y159103D01*
X153834Y158833D01*
X153801Y158578D01*
X153785Y158464D01*
X153777Y158357D01*
X153769Y158267D01*
Y158185D01*
X153760Y158119D01*
Y158070D01*
Y158037D01*
Y158029D01*
X153769Y157766D01*
X153793Y157512D01*
X153826Y157283D01*
X153875Y157061D01*
X153932Y156856D01*
X153990Y156676D01*
X154064Y156504D01*
X154129Y156356D01*
X154195Y156217D01*
X154261Y156102D01*
X154326Y156003D01*
X154384Y155921D01*
X154433Y155856D01*
X154465Y155815D01*
X154490Y155782D01*
X154498Y155774D01*
X154638Y155634D01*
X154785Y155511D01*
X154941Y155413D01*
X155097Y155323D01*
X155253Y155241D01*
X155409Y155175D01*
X155556Y155126D01*
X155704Y155085D01*
X155835Y155052D01*
X155966Y155028D01*
X156073Y155011D01*
X156171Y155003D01*
X156253Y154995D01*
X156310Y154987D01*
X156360D01*
X156565Y154995D01*
X156753Y155019D01*
X156942Y155061D01*
X157114Y155110D01*
X157278Y155167D01*
X157426Y155233D01*
X157573Y155306D01*
X157696Y155380D01*
X157811Y155446D01*
X157910Y155520D01*
X158000Y155585D01*
X158073Y155643D01*
X158131Y155692D01*
X158172Y155733D01*
X158196Y155757D01*
X158205Y155766D01*
X158336Y155921D01*
X158442Y156086D01*
X158541Y156258D01*
X158623Y156438D01*
X158697Y156618D01*
X158754Y156791D01*
X158803Y156971D01*
X158844Y157143D01*
X158877Y157299D01*
X158894Y157447D01*
X158910Y157578D01*
X158926Y157693D01*
Y157791D01*
X158934Y157865D01*
Y157906D01*
Y157922D01*
X158926Y158234D01*
X158902Y158521D01*
X158861Y158783D01*
X158811Y159021D01*
X158754Y159242D01*
X158697Y159439D01*
X158623Y159620D01*
X158549Y159784D01*
X158484Y159915D01*
X158410Y160038D01*
X158352Y160136D01*
X158287Y160218D01*
X158246Y160276D01*
X158205Y160325D01*
X158180Y160350D01*
X158172Y160358D01*
X158024Y160489D01*
X157869Y160604D01*
X157713Y160702D01*
X157557Y160784D01*
X157409Y160858D01*
X157254Y160915D01*
X157106Y160965D01*
X156966Y161005D01*
X156835Y161030D01*
X156720Y161055D01*
X156614Y161071D01*
X156524Y161088D01*
X156442D01*
X156393Y161096D01*
D02*
G37*
G36*
X141715D02*
X141526D01*
X141386Y161079D01*
X141132Y161038D01*
X140903Y160973D01*
X140804Y160940D01*
X140706Y160907D01*
X140616Y160866D01*
X140542Y160833D01*
X140476Y160801D01*
X140419Y160768D01*
X140370Y160743D01*
X140337Y160727D01*
X140321Y160719D01*
X140312Y160710D01*
X140099Y160555D01*
X139919Y160382D01*
X139763Y160210D01*
X139632Y160038D01*
X139533Y159882D01*
X139492Y159817D01*
X139460Y159759D01*
X139435Y159710D01*
X139418Y159677D01*
X139402Y159652D01*
Y159644D01*
X139295Y159374D01*
X139214Y159103D01*
X139156Y158832D01*
X139123Y158578D01*
X139107Y158463D01*
X139099Y158357D01*
X139091Y158267D01*
Y158185D01*
X139082Y158119D01*
Y158070D01*
Y158037D01*
Y158029D01*
X139091Y157766D01*
X139115Y157512D01*
X139148Y157283D01*
X139197Y157061D01*
X139254Y156856D01*
X139312Y156676D01*
X139386Y156504D01*
X139451Y156356D01*
X139517Y156217D01*
X139583Y156102D01*
X139648Y156003D01*
X139706Y155921D01*
X139755Y155856D01*
X139787Y155815D01*
X139812Y155782D01*
X139820Y155774D01*
X139960Y155634D01*
X140107Y155511D01*
X140263Y155413D01*
X140419Y155323D01*
X140575Y155241D01*
X140731Y155175D01*
X140878Y155126D01*
X141026Y155085D01*
X141157Y155052D01*
X141288Y155028D01*
X141395Y155011D01*
X141493Y155003D01*
X141575Y154995D01*
X141632Y154987D01*
X141682D01*
X141887Y154995D01*
X142075Y155019D01*
X142264Y155061D01*
X142436Y155110D01*
X142600Y155167D01*
X142748Y155233D01*
X142895Y155306D01*
X143018Y155380D01*
X143133Y155446D01*
X143231Y155520D01*
X143322Y155585D01*
X143395Y155643D01*
X143453Y155692D01*
X143494Y155733D01*
X143518Y155757D01*
X143527Y155766D01*
X143658Y155921D01*
X143764Y156086D01*
X143863Y156258D01*
X143945Y156438D01*
X144019Y156618D01*
X144076Y156791D01*
X144125Y156971D01*
X144166Y157143D01*
X144199Y157299D01*
X144216Y157447D01*
X144232Y157578D01*
X144248Y157693D01*
Y157791D01*
X144256Y157865D01*
Y157906D01*
Y157922D01*
X144248Y158234D01*
X144224Y158521D01*
X144183Y158783D01*
X144133Y159021D01*
X144076Y159242D01*
X144019Y159439D01*
X143945Y159620D01*
X143871Y159784D01*
X143806Y159915D01*
X143732Y160038D01*
X143674Y160136D01*
X143609Y160218D01*
X143568Y160276D01*
X143527Y160325D01*
X143502Y160350D01*
X143494Y160358D01*
X143346Y160489D01*
X143191Y160604D01*
X143035Y160702D01*
X142879Y160784D01*
X142731Y160858D01*
X142576Y160915D01*
X142428Y160965D01*
X142288Y161005D01*
X142157Y161030D01*
X142043Y161055D01*
X141936Y161071D01*
X141846Y161088D01*
X141764D01*
X141715Y161096D01*
D02*
G37*
G36*
X106213Y73847D02*
X102363D01*
Y72684D01*
X102369Y72585D01*
X102374Y72493D01*
X102380Y72405D01*
X102385Y72329D01*
X102396Y72258D01*
X102407Y72192D01*
X102413Y72138D01*
X102424Y72088D01*
X102434Y72045D01*
X102445Y72012D01*
X102451Y71979D01*
X102456Y71957D01*
X102462Y71941D01*
X102467Y71936D01*
Y71930D01*
X102500Y71859D01*
X102533Y71794D01*
X102620Y71674D01*
X102713Y71564D01*
X102811Y71472D01*
X102899Y71401D01*
X102937Y71368D01*
X102970Y71346D01*
X103002Y71324D01*
X103024Y71308D01*
X103035Y71302D01*
X103041Y71297D01*
X103122Y71253D01*
X103215Y71210D01*
X103406Y71144D01*
X103608Y71100D01*
X103805Y71068D01*
X103898Y71057D01*
X103980Y71046D01*
X104056Y71040D01*
X104121D01*
X104176Y71035D01*
X104220D01*
X104242D01*
X104253D01*
X104460Y71040D01*
X104646Y71057D01*
X104733Y71068D01*
X104809Y71078D01*
X104886Y71089D01*
X104952Y71100D01*
X105011Y71117D01*
X105066Y71128D01*
X105115Y71139D01*
X105154Y71149D01*
X105186Y71160D01*
X105208Y71166D01*
X105219Y71171D01*
X105225D01*
X105366Y71226D01*
X105492Y71286D01*
X105601Y71346D01*
X105694Y71401D01*
X105765Y71455D01*
X105820Y71499D01*
X105852Y71526D01*
X105858Y71532D01*
X105863Y71537D01*
X105923Y71603D01*
X105978Y71679D01*
X106022Y71755D01*
X106060Y71826D01*
X106087Y71892D01*
X106109Y71941D01*
X106114Y71963D01*
X106120Y71979D01*
X106125Y71985D01*
Y71990D01*
X106153Y72105D01*
X106175Y72230D01*
X106191Y72361D01*
X106202Y72487D01*
X106207Y72596D01*
Y72645D01*
X106213Y72689D01*
Y73847D01*
D02*
G37*
G36*
X61098Y107998D02*
X61071D01*
X61060D01*
X60853Y107993D01*
X60662Y107976D01*
X60487Y107949D01*
X60329Y107916D01*
X60181Y107878D01*
X60050Y107840D01*
X59930Y107791D01*
X59821Y107742D01*
X59733Y107698D01*
X59651Y107649D01*
X59586Y107611D01*
X59531Y107567D01*
X59493Y107540D01*
X59460Y107512D01*
X59444Y107496D01*
X59439Y107491D01*
X59351Y107392D01*
X59275Y107289D01*
X59209Y107185D01*
X59155Y107081D01*
X59105Y106983D01*
X59067Y106879D01*
X59035Y106781D01*
X59007Y106688D01*
X58991Y106600D01*
X58974Y106524D01*
X58964Y106453D01*
X58953Y106393D01*
Y106338D01*
X58947Y106306D01*
Y106180D01*
X58958Y106087D01*
X58985Y105918D01*
X59029Y105765D01*
X59051Y105700D01*
X59073Y105634D01*
X59100Y105574D01*
X59122Y105525D01*
X59144Y105481D01*
X59166Y105443D01*
X59182Y105410D01*
X59193Y105388D01*
X59198Y105377D01*
X59204Y105372D01*
X59307Y105230D01*
X59422Y105110D01*
X59537Y105006D01*
X59651Y104919D01*
X59755Y104853D01*
X59799Y104826D01*
X59837Y104804D01*
X59870Y104788D01*
X59892Y104777D01*
X59908Y104766D01*
X59914D01*
X60094Y104695D01*
X60274Y104640D01*
X60454Y104602D01*
X60623Y104580D01*
X60700Y104569D01*
X60771Y104564D01*
X60831Y104559D01*
X60885D01*
X60929Y104553D01*
X60962D01*
X60984D01*
X60989D01*
X61164Y104559D01*
X61333Y104575D01*
X61486Y104597D01*
X61633Y104629D01*
X61770Y104668D01*
X61890Y104706D01*
X62005Y104755D01*
X62103Y104799D01*
X62196Y104842D01*
X62272Y104886D01*
X62338Y104930D01*
X62392Y104968D01*
X62436Y105001D01*
X62463Y105023D01*
X62485Y105039D01*
X62491Y105044D01*
X62584Y105137D01*
X62665Y105236D01*
X62731Y105339D01*
X62791Y105443D01*
X62846Y105547D01*
X62889Y105650D01*
X62922Y105749D01*
X62949Y105847D01*
X62971Y105934D01*
X62988Y106022D01*
X62998Y106093D01*
X63004Y106158D01*
X63009Y106213D01*
X63015Y106251D01*
Y106284D01*
X63009Y106420D01*
X62993Y106546D01*
X62966Y106672D01*
X62933Y106786D01*
X62895Y106895D01*
X62851Y106994D01*
X62802Y107092D01*
X62753Y107174D01*
X62709Y107250D01*
X62660Y107316D01*
X62616Y107376D01*
X62578Y107425D01*
X62545Y107463D01*
X62518Y107491D01*
X62502Y107507D01*
X62496Y107512D01*
X62392Y107600D01*
X62283Y107671D01*
X62169Y107736D01*
X62048Y107791D01*
X61928Y107840D01*
X61814Y107878D01*
X61694Y107911D01*
X61579Y107938D01*
X61475Y107960D01*
X61377Y107971D01*
X61290Y107982D01*
X61213Y107993D01*
X61147D01*
X61098Y107998D01*
D02*
G37*
G36*
Y98225D02*
X61071D01*
X61060D01*
X60853Y98219D01*
X60662Y98203D01*
X60487Y98176D01*
X60329Y98143D01*
X60181Y98105D01*
X60050Y98067D01*
X59930Y98017D01*
X59821Y97968D01*
X59733Y97925D01*
X59651Y97875D01*
X59586Y97837D01*
X59531Y97794D01*
X59493Y97766D01*
X59460Y97739D01*
X59444Y97723D01*
X59439Y97717D01*
X59351Y97619D01*
X59275Y97515D01*
X59209Y97411D01*
X59155Y97308D01*
X59105Y97209D01*
X59067Y97106D01*
X59035Y97007D01*
X59007Y96914D01*
X58991Y96827D01*
X58974Y96751D01*
X58964Y96680D01*
X58953Y96620D01*
Y96565D01*
X58947Y96532D01*
Y96407D01*
X58958Y96314D01*
X58985Y96145D01*
X59029Y95992D01*
X59051Y95926D01*
X59073Y95861D01*
X59100Y95801D01*
X59122Y95752D01*
X59144Y95708D01*
X59166Y95670D01*
X59182Y95637D01*
X59193Y95615D01*
X59198Y95604D01*
X59204Y95599D01*
X59307Y95457D01*
X59422Y95337D01*
X59537Y95233D01*
X59651Y95145D01*
X59755Y95080D01*
X59799Y95053D01*
X59837Y95031D01*
X59870Y95014D01*
X59892Y95003D01*
X59908Y94993D01*
X59914D01*
X60094Y94922D01*
X60274Y94867D01*
X60454Y94829D01*
X60623Y94807D01*
X60700Y94796D01*
X60771Y94791D01*
X60831Y94785D01*
X60885D01*
X60929Y94780D01*
X60962D01*
X60984D01*
X60989D01*
X61164Y94785D01*
X61333Y94801D01*
X61486Y94823D01*
X61633Y94856D01*
X61770Y94894D01*
X61890Y94933D01*
X62005Y94982D01*
X62103Y95025D01*
X62196Y95069D01*
X62272Y95113D01*
X62338Y95156D01*
X62392Y95195D01*
X62436Y95227D01*
X62463Y95249D01*
X62485Y95266D01*
X62491Y95271D01*
X62584Y95364D01*
X62665Y95462D01*
X62731Y95566D01*
X62791Y95670D01*
X62846Y95773D01*
X62889Y95877D01*
X62922Y95975D01*
X62949Y96074D01*
X62971Y96161D01*
X62988Y96248D01*
X62998Y96319D01*
X63004Y96385D01*
X63009Y96439D01*
X63015Y96478D01*
Y96510D01*
X63009Y96647D01*
X62993Y96772D01*
X62966Y96898D01*
X62933Y97013D01*
X62895Y97122D01*
X62851Y97220D01*
X62802Y97319D01*
X62753Y97400D01*
X62709Y97477D01*
X62660Y97542D01*
X62616Y97602D01*
X62578Y97652D01*
X62545Y97690D01*
X62518Y97717D01*
X62502Y97733D01*
X62496Y97739D01*
X62392Y97826D01*
X62283Y97897D01*
X62169Y97963D01*
X62048Y98017D01*
X61928Y98067D01*
X61814Y98105D01*
X61694Y98137D01*
X61579Y98165D01*
X61475Y98187D01*
X61377Y98198D01*
X61290Y98208D01*
X61213Y98219D01*
X61147D01*
X61098Y98225D01*
D02*
G37*
G36*
X60683Y92557D02*
X59018D01*
Y90859D01*
X59029Y90767D01*
X59040Y90679D01*
X59056Y90597D01*
X59073Y90526D01*
X59095Y90461D01*
X59111Y90401D01*
X59133Y90346D01*
X59155Y90297D01*
X59176Y90259D01*
X59198Y90220D01*
X59215Y90193D01*
X59231Y90171D01*
X59242Y90155D01*
X59247Y90149D01*
X59253Y90144D01*
X59297Y90100D01*
X59346Y90057D01*
X59439Y89991D01*
X59537Y89947D01*
X59630Y89915D01*
X59711Y89893D01*
X59750Y89887D01*
X59777D01*
X59804Y89882D01*
X59821D01*
X59832D01*
X59837D01*
X59925Y89887D01*
X60012Y89904D01*
X60088Y89926D01*
X60154Y89947D01*
X60214Y89975D01*
X60252Y89997D01*
X60279Y90013D01*
X60290Y90018D01*
X60361Y90073D01*
X60427Y90139D01*
X60476Y90204D01*
X60520Y90264D01*
X60552Y90324D01*
X60574Y90368D01*
X60585Y90401D01*
X60591Y90406D01*
Y90412D01*
X60623Y90515D01*
X60645Y90630D01*
X60662Y90750D01*
X60672Y90865D01*
X60678Y90969D01*
Y91012D01*
X60683Y91050D01*
Y92557D01*
D02*
G37*
G36*
X61437Y84913D02*
X59957Y84356D01*
X59777Y84296D01*
X59602Y84242D01*
X59439Y84193D01*
X59362Y84171D01*
X59291Y84154D01*
X59226Y84138D01*
X59166Y84122D01*
X59116Y84111D01*
X59067Y84100D01*
X59035Y84094D01*
X59007Y84089D01*
X58991Y84083D01*
X58985D01*
X59149Y84034D01*
X59324Y83974D01*
X59499Y83914D01*
X59668Y83860D01*
X59744Y83832D01*
X59815Y83805D01*
X59881Y83783D01*
X59930Y83761D01*
X59979Y83745D01*
X60012Y83734D01*
X60034Y83723D01*
X60039D01*
X61437Y83193D01*
Y84913D01*
D02*
G37*
G36*
X104197Y113184D02*
X102831D01*
Y111453D01*
X103994D01*
X104164Y111459D01*
X104311Y111465D01*
X104377Y111475D01*
X104437Y111481D01*
X104491Y111486D01*
X104546Y111497D01*
X104590Y111503D01*
X104628Y111514D01*
X104655Y111519D01*
X104682Y111524D01*
X104704Y111530D01*
X104721Y111535D01*
X104726Y111541D01*
X104732D01*
X104824Y111579D01*
X104901Y111623D01*
X104972Y111667D01*
X105032Y111716D01*
X105076Y111759D01*
X105108Y111797D01*
X105130Y111819D01*
X105136Y111830D01*
X105185Y111912D01*
X105223Y111994D01*
X105245Y112076D01*
X105267Y112152D01*
X105278Y112223D01*
X105283Y112273D01*
Y112294D01*
Y112311D01*
Y112316D01*
Y112322D01*
X105278Y112409D01*
X105267Y112491D01*
X105250Y112562D01*
X105234Y112622D01*
X105212Y112677D01*
X105196Y112715D01*
X105185Y112737D01*
X105179Y112748D01*
X105141Y112813D01*
X105097Y112868D01*
X105054Y112917D01*
X105016Y112955D01*
X104977Y112988D01*
X104950Y113010D01*
X104928Y113021D01*
X104923Y113026D01*
X104863Y113059D01*
X104797Y113086D01*
X104737Y113113D01*
X104677Y113130D01*
X104622Y113146D01*
X104579Y113157D01*
X104551Y113163D01*
X104540D01*
X104486Y113168D01*
X104415Y113173D01*
X104338Y113179D01*
X104267D01*
X104197Y113184D01*
D02*
G37*
G36*
X104027Y110858D02*
X102831D01*
Y109335D01*
X103934D01*
X104027Y109341D01*
X104109D01*
X104185Y109346D01*
X104256Y109351D01*
X104317Y109357D01*
X104377Y109362D01*
X104426Y109368D01*
X104464Y109379D01*
X104502Y109384D01*
X104535Y109390D01*
X104557Y109395D01*
X104579Y109401D01*
X104590D01*
X104601Y109406D01*
X104682Y109439D01*
X104748Y109477D01*
X104808Y109521D01*
X104857Y109564D01*
X104895Y109603D01*
X104923Y109635D01*
X104939Y109657D01*
X104945Y109668D01*
X104988Y109739D01*
X105016Y109816D01*
X105037Y109892D01*
X105054Y109963D01*
X105065Y110023D01*
X105070Y110067D01*
Y110099D01*
Y110105D01*
Y110110D01*
X105065Y110209D01*
X105048Y110291D01*
X105026Y110367D01*
X105005Y110433D01*
X104983Y110482D01*
X104961Y110520D01*
X104945Y110542D01*
X104939Y110553D01*
X104884Y110613D01*
X104824Y110667D01*
X104759Y110711D01*
X104699Y110744D01*
X104644Y110771D01*
X104601Y110787D01*
X104568Y110798D01*
X104562Y110804D01*
X104557D01*
X104519Y110815D01*
X104475Y110820D01*
X104377Y110837D01*
X104267Y110847D01*
X104164Y110853D01*
X104071D01*
X104027Y110858D01*
D02*
G37*
G36*
X92020Y113177D02*
X91971Y113013D01*
X91911Y112838D01*
X91851Y112664D01*
X91796Y112494D01*
X91769Y112418D01*
X91742Y112347D01*
X91720Y112281D01*
X91698Y112232D01*
X91681Y112183D01*
X91671Y112150D01*
X91660Y112128D01*
Y112123D01*
X91130Y110725D01*
X92850D01*
X92293Y112205D01*
X92233Y112385D01*
X92178Y112560D01*
X92129Y112724D01*
X92107Y112800D01*
X92091Y112871D01*
X92075Y112937D01*
X92058Y112997D01*
X92047Y113046D01*
X92036Y113095D01*
X92031Y113128D01*
X92025Y113155D01*
X92020Y113171D01*
Y113177D01*
D02*
G37*
%LPD*%
D11*
X72835Y131437D02*
Y152028D01*
X124016D01*
X72835Y131437D02*
X124016D01*
Y152028D01*
D12*
X103150Y152165D02*
Y156102D01*
X93307D02*
X103150D01*
X93307Y152165D02*
Y156102D01*
D13*
X66634Y80945D02*
X130217D01*
Y115472D01*
X66634D02*
X130217D01*
X66634Y80945D02*
Y115472D01*
X73425Y131732D02*
Y151732D01*
X123425D01*
Y131732D02*
Y151732D01*
X73425Y131732D02*
X123425D01*
X96457Y98425D02*
X100394D01*
X98425Y96457D02*
Y100394D01*
D14*
X65354Y80551D02*
X131496D01*
X65354D02*
Y115866D01*
X131496D01*
Y80551D02*
Y115866D01*
X72047Y130650D02*
X124803D01*
Y152815D01*
X72047D02*
X124803D01*
X72047Y130650D02*
Y152815D01*
X98425Y139764D02*
Y143701D01*
X96457Y141732D02*
X100394D01*
D28*
X125236Y138189D02*
X126569D01*
X125903D01*
Y134190D01*
X125236Y134857D01*
X128568D02*
X129235Y134190D01*
X130568D01*
X131234Y134857D01*
Y137522D01*
X130568Y138189D01*
X129235D01*
X128568Y137522D01*
Y134857D01*
X125236Y148152D02*
X125903Y148819D01*
X127236D01*
X127902Y148152D01*
Y145487D01*
X127236Y144820D01*
X125903D01*
X125236Y145487D01*
Y146153D01*
X125903Y146819D01*
X127902D01*
X70039Y148819D02*
X71372D01*
X70706D01*
Y144820D01*
X70039Y145487D01*
X71524Y138189D02*
X68858D01*
X71524Y135523D01*
Y134857D01*
X70858Y134190D01*
X69525D01*
X68858Y134857D01*
D29*
X109578Y142716D02*
X110890D01*
Y140748D01*
X109578D01*
X110890Y141732D02*
X110234D01*
X108922Y140748D02*
Y142716D01*
X107610Y140748D01*
Y142716D01*
X105643Y142388D02*
X105971Y142716D01*
X106626D01*
X106955Y142388D01*
Y141076D01*
X106626Y140748D01*
X105971D01*
X105643Y141076D01*
X104003Y142716D02*
X104659D01*
X104987Y142388D01*
Y141076D01*
X104659Y140748D01*
X104003D01*
X103675Y141076D01*
Y142388D01*
X104003Y142716D01*
X103019D02*
Y140748D01*
X102035D01*
X101707Y141076D01*
Y142388D01*
X102035Y142716D01*
X103019D01*
X99739D02*
X101051D01*
Y140748D01*
X99739D01*
X101051Y141732D02*
X100395D01*
X99083Y140748D02*
Y142716D01*
X98099D01*
X97771Y142388D01*
Y141732D01*
X98099Y141404D01*
X99083D01*
X98427D02*
X97771Y140748D01*
M02*
