G04*
G04 #@! TF.GenerationSoftware,Altium Limited,Altium Designer,21.3.2 (30)*
G04*
G04 Layer_Color=8421504*
%FSLAX25Y25*%
%MOIN*%
G70*
G04*
G04 #@! TF.SameCoordinates,B38D24C8-20F9-4C12-AD3A-4427D22FBD9A*
G04*
G04*
G04 #@! TF.FilePolarity,Positive*
G04*
G01*
G75*
%ADD19R,0.02756X0.16535*%
%ADD20R,0.02756X0.12598*%
%ADD21R,0.12598X0.06299*%
%ADD22R,0.03150X0.04921*%
%ADD23R,0.04724X0.05709*%
%ADD24R,0.05709X0.04724*%
%ADD25R,0.05544X0.04747*%
%ADD26R,0.05315X0.03740*%
%ADD27O,0.09055X0.02362*%
%ADD28R,0.07087X0.04921*%
%ADD29O,0.08858X0.02756*%
%ADD30R,0.24410X0.62992*%
%ADD31R,0.09843X0.06693*%
%ADD32R,0.04747X0.05544*%
%ADD33O,0.02362X0.09055*%
%ADD34R,0.05512X0.05906*%
%ADD35R,0.02126X0.03386*%
G04:AMPARAMS|DCode=36|XSize=124.02mil|YSize=57.09mil|CornerRadius=2mil|HoleSize=0mil|Usage=FLASHONLY|Rotation=90.000|XOffset=0mil|YOffset=0mil|HoleType=Round|Shape=RoundedRectangle|*
%AMROUNDEDRECTD36*
21,1,0.12402,0.05309,0,0,90.0*
21,1,0.12002,0.05709,0,0,90.0*
1,1,0.00400,0.02655,0.06001*
1,1,0.00400,0.02655,-0.06001*
1,1,0.00400,-0.02655,-0.06001*
1,1,0.00400,-0.02655,0.06001*
%
%ADD36ROUNDEDRECTD36*%
G04:AMPARAMS|DCode=37|XSize=35.43mil|YSize=57.09mil|CornerRadius=1.95mil|HoleSize=0mil|Usage=FLASHONLY|Rotation=90.000|XOffset=0mil|YOffset=0mil|HoleType=Round|Shape=RoundedRectangle|*
%AMROUNDEDRECTD37*
21,1,0.03543,0.05319,0,0,90.0*
21,1,0.03154,0.05709,0,0,90.0*
1,1,0.00390,0.02659,0.01577*
1,1,0.00390,0.02659,-0.01577*
1,1,0.00390,-0.02659,-0.01577*
1,1,0.00390,-0.02659,0.01577*
%
%ADD37ROUNDEDRECTD37*%
%ADD38R,0.05315X0.03937*%
%ADD39R,0.04528X0.05315*%
%ADD40R,0.06102X0.06102*%
%ADD41R,0.04134X0.03150*%
%ADD42R,0.05709X0.05118*%
%ADD43R,0.05709X0.04528*%
%ADD44R,0.09449X0.07480*%
%ADD45R,0.04969X0.03771*%
%ADD46R,0.06102X0.06102*%
%ADD47R,0.03937X0.05315*%
%ADD48R,0.05727X0.06127*%
%ADD49R,0.05315X0.06102*%
%ADD50R,0.06693X0.03150*%
%ADD51R,0.06102X0.05512*%
%ADD52R,0.03740X0.05315*%
%ADD53R,0.05512X0.06102*%
%ADD54R,0.26772X0.21850*%
%ADD55R,0.09449X0.03937*%
%ADD56R,0.02000X0.01402*%
%ADD57R,0.05118X0.01181*%
%ADD58R,0.01181X0.05118*%
%ADD59R,0.04724X0.04331*%
%ADD60R,0.03150X0.04134*%
G04:AMPARAMS|DCode=61|XSize=88.58mil|YSize=15.75mil|CornerRadius=7.87mil|HoleSize=0mil|Usage=FLASHONLY|Rotation=270.000|XOffset=0mil|YOffset=0mil|HoleType=Round|Shape=RoundedRectangle|*
%AMROUNDEDRECTD61*
21,1,0.08858,0.00000,0,0,270.0*
21,1,0.07284,0.01575,0,0,270.0*
1,1,0.01575,0.00000,-0.03642*
1,1,0.01575,0.00000,0.03642*
1,1,0.01575,0.00000,0.03642*
1,1,0.01575,0.00000,-0.03642*
%
%ADD61ROUNDEDRECTD61*%
%ADD62R,0.12400X0.07700*%
%ADD63R,0.05151X0.03960*%
%ADD64R,0.07874X0.03543*%
%ADD65R,0.03543X0.07874*%
%ADD66R,0.05236X0.05236*%
D19*
X289961Y13780D02*
D03*
X282087D02*
D03*
X270276D02*
D03*
X297835D02*
D03*
X278150D02*
D03*
X286024D02*
D03*
X293898D02*
D03*
X301772D02*
D03*
X274213D02*
D03*
X258465D02*
D03*
X262402D02*
D03*
X266339D02*
D03*
X309646D02*
D03*
X179724D02*
D03*
X183661D02*
D03*
X211221D02*
D03*
X199409D02*
D03*
X187598D02*
D03*
X207283D02*
D03*
X191535D02*
D03*
X195472D02*
D03*
X203346D02*
D03*
X215158D02*
D03*
X234842D02*
D03*
X254528D02*
D03*
X238779D02*
D03*
X246654D02*
D03*
X242717D02*
D03*
X325394D02*
D03*
X352953D02*
D03*
X360827D02*
D03*
X329331D02*
D03*
X321457D02*
D03*
X313583D02*
D03*
X341142D02*
D03*
X317520D02*
D03*
X345079D02*
D03*
X349016D02*
D03*
X364764D02*
D03*
X376575D02*
D03*
X368701D02*
D03*
X356890D02*
D03*
X333268D02*
D03*
X337205D02*
D03*
X380512D02*
D03*
X384449D02*
D03*
X388386D02*
D03*
X392323D02*
D03*
X396260D02*
D03*
X400197D02*
D03*
X404134D02*
D03*
X408071D02*
D03*
X412008D02*
D03*
X415945D02*
D03*
X419882D02*
D03*
X423819D02*
D03*
X427756D02*
D03*
X431693D02*
D03*
X435630D02*
D03*
X439567D02*
D03*
X443504D02*
D03*
X447441D02*
D03*
X451378D02*
D03*
X455315D02*
D03*
X459252D02*
D03*
X463189D02*
D03*
X467126D02*
D03*
X471063D02*
D03*
X475000D02*
D03*
X478937D02*
D03*
X482874D02*
D03*
X486811D02*
D03*
X490748D02*
D03*
X494685D02*
D03*
X498622D02*
D03*
X506496D02*
D03*
D20*
X305709Y15748D02*
D03*
X250590D02*
D03*
X372638D02*
D03*
X502559D02*
D03*
D21*
X215158Y39370D02*
D03*
X195472D02*
D03*
X204724Y98425D02*
D03*
X185039D02*
D03*
D22*
X471850Y307087D02*
D03*
X465551D02*
D03*
X452559D02*
D03*
X446260D02*
D03*
X428543D02*
D03*
X434842D02*
D03*
X249213Y250000D02*
D03*
X242913D02*
D03*
X249213Y257874D02*
D03*
X242913D02*
D03*
D23*
X465551Y299213D02*
D03*
X473425D02*
D03*
X446260D02*
D03*
X454134D02*
D03*
X434842D02*
D03*
X426968D02*
D03*
X379528Y271063D02*
D03*
X387402D02*
D03*
D24*
X423228Y281280D02*
D03*
Y273406D02*
D03*
X265748Y39370D02*
D03*
Y47244D02*
D03*
X255906Y39370D02*
D03*
Y47244D02*
D03*
X242126Y106299D02*
D03*
Y98425D02*
D03*
X135827Y125984D02*
D03*
Y118110D02*
D03*
X125984Y125984D02*
D03*
Y118110D02*
D03*
X116142Y125984D02*
D03*
Y118110D02*
D03*
X219685Y90551D02*
D03*
Y98425D02*
D03*
D25*
X482283Y263405D02*
D03*
Y256900D02*
D03*
D26*
X708661Y146201D02*
D03*
Y140295D02*
D03*
X590551Y146201D02*
D03*
Y140295D02*
D03*
X708661Y283996D02*
D03*
Y278091D02*
D03*
X590551Y284055D02*
D03*
Y278150D02*
D03*
X629921Y161201D02*
D03*
Y155295D02*
D03*
Y299016D02*
D03*
Y293110D02*
D03*
X511811Y155295D02*
D03*
Y161201D02*
D03*
Y293110D02*
D03*
Y299016D02*
D03*
X234252Y138779D02*
D03*
Y144685D02*
D03*
X234252Y121063D02*
D03*
Y115157D02*
D03*
D27*
X434842Y288405D02*
D03*
Y283405D02*
D03*
Y278405D02*
D03*
Y273406D02*
D03*
Y268406D02*
D03*
Y263405D02*
D03*
Y258405D02*
D03*
Y253405D02*
D03*
Y248406D02*
D03*
Y243406D02*
D03*
Y238405D02*
D03*
Y233405D02*
D03*
Y228405D02*
D03*
Y223406D02*
D03*
X470669Y288405D02*
D03*
Y283405D02*
D03*
Y278405D02*
D03*
Y273406D02*
D03*
Y268406D02*
D03*
Y263405D02*
D03*
Y258405D02*
D03*
Y253405D02*
D03*
Y248406D02*
D03*
Y243406D02*
D03*
Y238405D02*
D03*
Y233405D02*
D03*
Y228405D02*
D03*
Y223406D02*
D03*
D28*
X708661Y108169D02*
D03*
Y120177D02*
D03*
X629921Y108169D02*
D03*
Y120177D02*
D03*
X708661Y245965D02*
D03*
Y257972D02*
D03*
X629921Y245965D02*
D03*
Y257972D02*
D03*
X511811Y120177D02*
D03*
Y108169D02*
D03*
X590551Y120177D02*
D03*
Y108169D02*
D03*
Y257972D02*
D03*
Y245965D02*
D03*
X511811Y257972D02*
D03*
Y245965D02*
D03*
D29*
X695571Y115295D02*
D03*
Y120295D02*
D03*
Y125295D02*
D03*
Y130295D02*
D03*
Y135295D02*
D03*
Y140295D02*
D03*
Y145295D02*
D03*
Y150295D02*
D03*
Y155295D02*
D03*
Y160295D02*
D03*
X643012Y115295D02*
D03*
Y120295D02*
D03*
Y125295D02*
D03*
Y130295D02*
D03*
Y135295D02*
D03*
Y140295D02*
D03*
Y145295D02*
D03*
Y150295D02*
D03*
Y155295D02*
D03*
Y160295D02*
D03*
X695571Y253091D02*
D03*
Y258090D02*
D03*
Y263090D02*
D03*
Y268091D02*
D03*
Y273091D02*
D03*
Y278091D02*
D03*
Y283090D02*
D03*
Y288090D02*
D03*
Y293091D02*
D03*
Y298091D02*
D03*
X643012Y253091D02*
D03*
Y258090D02*
D03*
Y263090D02*
D03*
Y268091D02*
D03*
Y273091D02*
D03*
Y278091D02*
D03*
Y283090D02*
D03*
Y288090D02*
D03*
Y293091D02*
D03*
Y298091D02*
D03*
X577461Y115295D02*
D03*
Y120295D02*
D03*
Y125295D02*
D03*
Y130295D02*
D03*
Y135295D02*
D03*
Y140295D02*
D03*
Y145295D02*
D03*
Y150295D02*
D03*
Y155295D02*
D03*
Y160295D02*
D03*
X524902Y115295D02*
D03*
Y120295D02*
D03*
Y125295D02*
D03*
Y130295D02*
D03*
Y135295D02*
D03*
Y140295D02*
D03*
Y145295D02*
D03*
Y150295D02*
D03*
Y155295D02*
D03*
Y160295D02*
D03*
X577461Y253091D02*
D03*
Y258090D02*
D03*
Y263090D02*
D03*
Y268091D02*
D03*
Y273091D02*
D03*
Y278091D02*
D03*
Y283090D02*
D03*
Y288090D02*
D03*
Y293091D02*
D03*
Y298091D02*
D03*
X524902Y253091D02*
D03*
Y258090D02*
D03*
Y263090D02*
D03*
Y268091D02*
D03*
Y273091D02*
D03*
Y278091D02*
D03*
Y283090D02*
D03*
Y288090D02*
D03*
Y293091D02*
D03*
Y298091D02*
D03*
D30*
X669291Y137795D02*
D03*
Y275590D02*
D03*
X551181Y137795D02*
D03*
X551181Y275590D02*
D03*
D31*
X519685Y76772D02*
D03*
X503937D02*
D03*
X559055D02*
D03*
X543307D02*
D03*
Y90551D02*
D03*
X559055D02*
D03*
X503937D02*
D03*
X519685D02*
D03*
X559055Y214567D02*
D03*
X543307D02*
D03*
X519685D02*
D03*
X503937D02*
D03*
X543307Y228346D02*
D03*
X559055D02*
D03*
X503937D02*
D03*
X519685D02*
D03*
D32*
X275891Y131890D02*
D03*
X269385D02*
D03*
D33*
X315965Y120276D02*
D03*
X310965D02*
D03*
X305965D02*
D03*
X300965D02*
D03*
X295965D02*
D03*
X290965D02*
D03*
X285965D02*
D03*
X280965D02*
D03*
X275965D02*
D03*
X270965D02*
D03*
X265965D02*
D03*
X260965D02*
D03*
X255965D02*
D03*
X250965D02*
D03*
X315965Y84449D02*
D03*
X310965D02*
D03*
X305965D02*
D03*
X300965D02*
D03*
X295965D02*
D03*
X290965D02*
D03*
X285965D02*
D03*
X280965D02*
D03*
X275965D02*
D03*
X270965D02*
D03*
X265965D02*
D03*
X260965D02*
D03*
X255965D02*
D03*
X250965D02*
D03*
D34*
X396063Y271063D02*
D03*
X407874D02*
D03*
X135827Y253937D02*
D03*
X147638D02*
D03*
X135827Y261811D02*
D03*
X147638D02*
D03*
D35*
X230315Y90551D02*
D03*
Y98976D02*
D03*
Y77323D02*
D03*
Y68898D02*
D03*
D36*
X219587Y68898D02*
D03*
D37*
X195374Y59842D02*
D03*
Y68898D02*
D03*
Y77953D02*
D03*
D38*
X104331Y114567D02*
D03*
Y121653D02*
D03*
D39*
X173031Y106299D02*
D03*
X167323D02*
D03*
X173031Y72835D02*
D03*
X167323D02*
D03*
D40*
X100689Y61024D02*
D03*
X107972D02*
D03*
D41*
X117323Y64665D02*
D03*
Y57382D02*
D03*
D42*
X125000Y57874D02*
D03*
Y64173D02*
D03*
D43*
X156496Y93012D02*
D03*
Y86122D02*
D03*
D44*
X167323Y81496D02*
D03*
Y97638D02*
D03*
D45*
X155512Y76485D02*
D03*
Y70759D02*
D03*
D46*
X143701Y69193D02*
D03*
Y76476D02*
D03*
D47*
X91535Y108268D02*
D03*
X85630D02*
D03*
X91535Y116142D02*
D03*
X85630D02*
D03*
X84744Y61024D02*
D03*
X90650D02*
D03*
X84744Y68898D02*
D03*
X90650D02*
D03*
D48*
X75095Y128937D02*
D03*
X82385D02*
D03*
D49*
X92421Y82677D02*
D03*
X84744D02*
D03*
X92421Y92520D02*
D03*
X84744D02*
D03*
D50*
X120079Y213386D02*
D03*
Y200000D02*
D03*
X139764Y213386D02*
D03*
Y200000D02*
D03*
X120079Y152362D02*
D03*
Y138976D02*
D03*
Y172047D02*
D03*
Y158661D02*
D03*
D51*
X136221Y143898D02*
D03*
Y151378D02*
D03*
X106299Y259646D02*
D03*
Y252165D02*
D03*
X96457Y259646D02*
D03*
Y252165D02*
D03*
D52*
X46260Y192913D02*
D03*
X40354D02*
D03*
X46260Y202756D02*
D03*
X40354D02*
D03*
X83661Y210630D02*
D03*
X89567D02*
D03*
X59055Y251969D02*
D03*
X53150D02*
D03*
D53*
X119095Y261811D02*
D03*
X126575D02*
D03*
X119095Y253937D02*
D03*
X126575D02*
D03*
X111614Y230315D02*
D03*
X119095D02*
D03*
X111614Y240551D02*
D03*
X119095D02*
D03*
D54*
X194488Y129921D02*
D03*
D55*
X219685Y138898D02*
D03*
Y120945D02*
D03*
D56*
X128159Y230315D02*
D03*
Y226378D02*
D03*
X133258Y228346D02*
D03*
X128159Y240551D02*
D03*
Y236614D02*
D03*
X133258Y238583D02*
D03*
D57*
X101181Y100394D02*
D03*
Y98425D02*
D03*
Y96457D02*
D03*
Y94488D02*
D03*
Y92520D02*
D03*
Y90551D02*
D03*
Y78740D02*
D03*
Y80709D02*
D03*
Y82677D02*
D03*
Y84646D02*
D03*
Y86614D02*
D03*
Y88583D02*
D03*
X135039Y78740D02*
D03*
Y80709D02*
D03*
Y82677D02*
D03*
Y84646D02*
D03*
Y86614D02*
D03*
Y88583D02*
D03*
Y100394D02*
D03*
Y98425D02*
D03*
Y96457D02*
D03*
Y94488D02*
D03*
Y92520D02*
D03*
Y90551D02*
D03*
X109449Y144685D02*
D03*
Y146653D02*
D03*
Y148622D02*
D03*
Y150591D02*
D03*
Y152559D02*
D03*
Y154527D02*
D03*
Y166339D02*
D03*
Y164370D02*
D03*
Y162402D02*
D03*
Y160433D02*
D03*
Y158465D02*
D03*
Y156496D02*
D03*
X75591Y166339D02*
D03*
Y164370D02*
D03*
Y162402D02*
D03*
Y160433D02*
D03*
Y158465D02*
D03*
Y156496D02*
D03*
Y144685D02*
D03*
Y146653D02*
D03*
Y148622D02*
D03*
Y150591D02*
D03*
Y152559D02*
D03*
Y154527D02*
D03*
D58*
X107283Y72638D02*
D03*
X109252D02*
D03*
X111221D02*
D03*
X113189D02*
D03*
X115157D02*
D03*
X117126D02*
D03*
X128937D02*
D03*
X126969D02*
D03*
X125000D02*
D03*
X123031D02*
D03*
X121063D02*
D03*
X119095D02*
D03*
X128937Y106496D02*
D03*
X126969D02*
D03*
X125000D02*
D03*
X123031D02*
D03*
X121063D02*
D03*
X119095D02*
D03*
X107283D02*
D03*
X109252D02*
D03*
X111221D02*
D03*
X113189D02*
D03*
X115157D02*
D03*
X117126D02*
D03*
X103347Y172441D02*
D03*
X101378D02*
D03*
X99410D02*
D03*
X97441D02*
D03*
X95473D02*
D03*
X93504D02*
D03*
X81693D02*
D03*
X83661D02*
D03*
X85630D02*
D03*
X87598D02*
D03*
X89567D02*
D03*
X91535D02*
D03*
X81693Y138583D02*
D03*
X83661D02*
D03*
X85630D02*
D03*
X87598D02*
D03*
X89567D02*
D03*
X91535D02*
D03*
X103347D02*
D03*
X101378D02*
D03*
X99410D02*
D03*
X97441D02*
D03*
X95473D02*
D03*
X93504D02*
D03*
D59*
X82677Y251772D02*
D03*
Y260039D02*
D03*
X70866Y251772D02*
D03*
Y260039D02*
D03*
D60*
X59744Y261811D02*
D03*
X52461D02*
D03*
D61*
X98848Y240650D02*
D03*
X96348D02*
D03*
X93848D02*
D03*
X91348D02*
D03*
X88848D02*
D03*
X86348D02*
D03*
X83848D02*
D03*
X81348D02*
D03*
X78848D02*
D03*
X76348D02*
D03*
Y221949D02*
D03*
X78848D02*
D03*
X81348D02*
D03*
X83848D02*
D03*
X86348D02*
D03*
X88848D02*
D03*
X91348D02*
D03*
X93848D02*
D03*
X96348D02*
D03*
X98848D02*
D03*
D62*
X59055Y221555D02*
D03*
Y240855D02*
D03*
D63*
X39370Y221550D02*
D03*
Y227269D02*
D03*
D64*
X163386Y241181D02*
D03*
Y236181D02*
D03*
Y231181D02*
D03*
Y226181D02*
D03*
Y221181D02*
D03*
Y216181D02*
D03*
Y211181D02*
D03*
Y206181D02*
D03*
Y201181D02*
D03*
Y196181D02*
D03*
Y191181D02*
D03*
Y186181D02*
D03*
Y181181D02*
D03*
Y176181D02*
D03*
X230315D02*
D03*
Y181181D02*
D03*
Y186181D02*
D03*
Y191181D02*
D03*
Y196181D02*
D03*
Y201181D02*
D03*
Y206181D02*
D03*
Y211181D02*
D03*
Y216181D02*
D03*
Y221181D02*
D03*
Y226181D02*
D03*
Y231181D02*
D03*
Y236181D02*
D03*
Y241181D02*
D03*
D65*
X174350Y172244D02*
D03*
X179350D02*
D03*
X184350D02*
D03*
X189350D02*
D03*
X194350D02*
D03*
X199350D02*
D03*
X204350D02*
D03*
X209350D02*
D03*
X214350D02*
D03*
X219350D02*
D03*
D66*
X185689Y218878D02*
D03*
X192913D02*
D03*
X200138D02*
D03*
X185689Y211653D02*
D03*
X192913D02*
D03*
X200138D02*
D03*
X185689Y204429D02*
D03*
X192913D02*
D03*
X200138D02*
D03*
M02*
