G04*
G04 #@! TF.GenerationSoftware,Altium Limited,Altium Designer,21.3.2 (30)*
G04*
G04 Layer_Color=65535*
%FSLAX25Y25*%
%MOIN*%
G70*
G04*
G04 #@! TF.SameCoordinates,B38D24C8-20F9-4C12-AD3A-4427D22FBD9A*
G04*
G04*
G04 #@! TF.FilePolarity,Positive*
G04*
G01*
G75*
%ADD10C,0.00984*%
%ADD11C,0.02362*%
%ADD12C,0.00787*%
%ADD13C,0.00394*%
%ADD14C,0.01000*%
%ADD15C,0.01575*%
%ADD16C,0.00500*%
%ADD17R,0.07284X0.03866*%
%ADD18R,0.00803X0.05118*%
G36*
X688503Y322638D02*
X687260D01*
X684163Y330085D01*
X685731D01*
X687891Y324578D01*
X690090Y330085D01*
X691610D01*
X688503Y322638D01*
D02*
G37*
G36*
X539167Y322638D02*
X537924D01*
X534826Y330085D01*
X536394D01*
X538555Y324578D01*
X540754Y330085D01*
X542274D01*
X539167Y322638D01*
D02*
G37*
G36*
X633858Y326357D02*
Y326347D01*
Y326318D01*
Y326261D01*
X633849Y326194D01*
Y326118D01*
X633830Y326012D01*
X633820Y325898D01*
X633801Y325774D01*
X633772Y325640D01*
X633744Y325496D01*
X633658Y325181D01*
X633610Y325018D01*
X633543Y324846D01*
X633476Y324674D01*
X633390Y324502D01*
X633304Y324320D01*
X633199Y324148D01*
X633074Y323976D01*
X632950Y323814D01*
X632807Y323651D01*
X632644Y323498D01*
X632472Y323355D01*
X632291Y323221D01*
X632080Y323097D01*
X631860Y322982D01*
X631621Y322886D01*
X631363Y322800D01*
X631086Y322733D01*
X630790Y322676D01*
X630465Y322647D01*
X630130Y322638D01*
X630034D01*
X629967Y322647D01*
X629891Y322657D01*
X629786Y322667D01*
X629671Y322676D01*
X629547Y322695D01*
X629413Y322724D01*
X629270Y322752D01*
X628954Y322839D01*
X628619Y322953D01*
X628447Y323020D01*
X628275Y323106D01*
X628094Y323192D01*
X627922Y323298D01*
X627749Y323412D01*
X627587Y323546D01*
X627424Y323689D01*
X627272Y323842D01*
X627128Y324014D01*
X626994Y324206D01*
X626870Y324416D01*
X626755Y324636D01*
X626660Y324875D01*
X626574Y325133D01*
X626507Y325410D01*
X626449Y325707D01*
X626421Y326022D01*
X626411Y326357D01*
Y330085D01*
X627654D01*
Y326357D01*
Y326347D01*
Y326328D01*
Y326299D01*
X627664Y326252D01*
Y326194D01*
X627673Y326127D01*
X627692Y325965D01*
X627730Y325783D01*
X627788Y325573D01*
X627864Y325343D01*
X627960Y325114D01*
X628094Y324884D01*
X628256Y324655D01*
X628352Y324550D01*
X628457Y324445D01*
X628572Y324349D01*
X628696Y324263D01*
X628839Y324177D01*
X628983Y324100D01*
X629145Y324034D01*
X629317Y323976D01*
X629499Y323928D01*
X629690Y323900D01*
X629901Y323881D01*
X630130Y323871D01*
X630187D01*
X630235Y323881D01*
X630293D01*
X630359Y323890D01*
X630522Y323909D01*
X630703Y323948D01*
X630914Y324005D01*
X631143Y324081D01*
X631373Y324186D01*
X631602Y324311D01*
X631832Y324483D01*
X631937Y324578D01*
X632042Y324684D01*
X632138Y324798D01*
X632224Y324923D01*
X632310Y325057D01*
X632386Y325200D01*
X632453Y325362D01*
X632510Y325535D01*
X632558Y325726D01*
X632587Y325917D01*
X632606Y326127D01*
X632616Y326357D01*
Y330085D01*
X633858D01*
Y326357D01*
D02*
G37*
G36*
X712585Y330076D02*
X712671D01*
X712767Y330056D01*
X712881Y330047D01*
X713006Y330028D01*
X713139Y329999D01*
X713283Y329970D01*
X713598Y329884D01*
X713770Y329837D01*
X713942Y329770D01*
X714115Y329703D01*
X714287Y329617D01*
X714459Y329531D01*
X714631Y329425D01*
X714803Y329301D01*
X714975Y329177D01*
X715128Y329033D01*
X715290Y328871D01*
X715434Y328699D01*
X715568Y328517D01*
X715692Y328307D01*
X715807Y328087D01*
X715902Y327848D01*
X715988Y327590D01*
X716055Y327313D01*
X716113Y327016D01*
X716141Y326691D01*
X716151Y326357D01*
Y326347D01*
Y326318D01*
Y326261D01*
X716141Y326194D01*
Y326118D01*
X716122Y326012D01*
X716113Y325898D01*
X716093Y325774D01*
X716065Y325640D01*
X716036Y325496D01*
X715950Y325181D01*
X715902Y325018D01*
X715835Y324846D01*
X715768Y324674D01*
X715682Y324502D01*
X715596Y324320D01*
X715491Y324148D01*
X715367Y323976D01*
X715243Y323814D01*
X715099Y323651D01*
X714937Y323498D01*
X714765Y323355D01*
X714583Y323221D01*
X714373Y323097D01*
X714153Y322982D01*
X713914Y322886D01*
X713656Y322800D01*
X713378Y322733D01*
X713082Y322676D01*
X712757Y322647D01*
X712422Y322638D01*
Y323881D01*
X712480D01*
X712528Y323890D01*
X712585D01*
X712652Y323900D01*
X712814Y323919D01*
X712996Y323957D01*
X713206Y324014D01*
X713436Y324091D01*
X713665Y324186D01*
X713895Y324320D01*
X714124Y324483D01*
X714229Y324578D01*
X714334Y324684D01*
X714430Y324798D01*
X714516Y324923D01*
X714602Y325066D01*
X714679Y325209D01*
X714746Y325372D01*
X714803Y325544D01*
X714851Y325726D01*
X714879Y325917D01*
X714898Y326127D01*
X714908Y326357D01*
Y326366D01*
Y326385D01*
Y326414D01*
Y326462D01*
X714898Y326519D01*
X714889Y326586D01*
X714870Y326749D01*
X714831Y326930D01*
X714774Y327141D01*
X714698Y327370D01*
X714602Y327600D01*
X714468Y327829D01*
X714306Y328058D01*
X714210Y328164D01*
X714105Y328269D01*
X713981Y328364D01*
X713856Y328450D01*
X713723Y328536D01*
X713579Y328613D01*
X713417Y328680D01*
X713245Y328737D01*
X713063Y328785D01*
X712862Y328814D01*
X712652Y328833D01*
X712422Y328842D01*
Y330085D01*
X712518D01*
X712585Y330076D01*
D02*
G37*
G36*
X708799D02*
X708856D01*
X708923Y330056D01*
X709086Y330028D01*
X709268Y329970D01*
X709478Y329884D01*
X709593Y329837D01*
X709707Y329770D01*
X709822Y329703D01*
X709937Y329617D01*
X710052Y329531D01*
X710166Y329425D01*
X710281Y329301D01*
X710396Y329177D01*
X710501Y329033D01*
X710606Y328871D01*
X710702Y328699D01*
X710788Y328517D01*
X710874Y328307D01*
X710950Y328087D01*
X711017Y327848D01*
X711074Y327590D01*
X711122Y327313D01*
X711151Y327016D01*
X711170Y326691D01*
X711180Y326357D01*
Y322638D01*
X709937D01*
Y326357D01*
Y326366D01*
Y326385D01*
Y326414D01*
Y326462D01*
Y326519D01*
X709927Y326586D01*
X709918Y326749D01*
X709899Y326930D01*
X709870Y327141D01*
X709832Y327370D01*
X709784Y327600D01*
X709717Y327829D01*
X709631Y328058D01*
X709535Y328269D01*
X709411Y328450D01*
X709268Y328613D01*
X709191Y328680D01*
X709105Y328737D01*
X709010Y328785D01*
X708914Y328814D01*
X708809Y328833D01*
X708694Y328842D01*
X708073D01*
Y330085D01*
X708751D01*
X708799Y330076D01*
D02*
G37*
G36*
X705587Y328842D02*
X702939D01*
X702872Y328833D01*
X702719Y328823D01*
X702528Y328804D01*
X702317Y328775D01*
X702098Y328737D01*
X701868Y328689D01*
X701629Y328622D01*
X701409Y328536D01*
X701199Y328441D01*
X701017Y328316D01*
X700855Y328173D01*
X700788Y328097D01*
X700731Y328011D01*
X700683Y327915D01*
X700654Y327819D01*
X700635Y327714D01*
X700625Y327600D01*
Y323881D01*
X703207D01*
X703264Y323890D01*
X703331D01*
X703493Y323900D01*
X703675Y323919D01*
X703885Y323948D01*
X704115Y323986D01*
X704344Y324034D01*
X704574Y324100D01*
X704803Y324186D01*
X705013Y324282D01*
X705195Y324406D01*
X705358Y324550D01*
X705424Y324626D01*
X705482Y324712D01*
X705530Y324808D01*
X705558Y324903D01*
X705578Y325009D01*
X705587Y325123D01*
Y325133D01*
Y325181D01*
X705568Y325238D01*
X705549Y325315D01*
X705511Y325410D01*
X705453Y325515D01*
X705377Y325630D01*
X705281Y325745D01*
X705147Y325859D01*
X704985Y325974D01*
X704889Y326032D01*
X704784Y326079D01*
X704660Y326127D01*
X704535Y326175D01*
X704402Y326213D01*
X704258Y326252D01*
X704096Y326290D01*
X703924Y326309D01*
X703742Y326338D01*
X703541Y326357D01*
X703331Y326366D01*
X701859D01*
Y327609D01*
X703264D01*
X703350Y327600D01*
X703446Y327590D01*
X703560Y327580D01*
X703685Y327571D01*
X703818Y327552D01*
X703962Y327533D01*
X704277Y327475D01*
X704622Y327399D01*
X704966Y327303D01*
X705310Y327169D01*
X705654Y327007D01*
X705807Y326911D01*
X705969Y326806D01*
X706113Y326682D01*
X706247Y326557D01*
X706371Y326424D01*
X706486Y326280D01*
X706581Y326118D01*
X706667Y325946D01*
X706734Y325764D01*
X706792Y325563D01*
X706820Y325353D01*
X706830Y325123D01*
Y325114D01*
Y325095D01*
Y325066D01*
X706820Y325018D01*
Y324961D01*
X706801Y324894D01*
X706773Y324731D01*
X706715Y324550D01*
X706629Y324340D01*
X706581Y324225D01*
X706514Y324110D01*
X706447Y323995D01*
X706361Y323881D01*
X706275Y323766D01*
X706170Y323651D01*
X706046Y323536D01*
X705922Y323422D01*
X705778Y323317D01*
X705616Y323211D01*
X705444Y323116D01*
X705262Y323030D01*
X705052Y322944D01*
X704832Y322867D01*
X704593Y322800D01*
X704335Y322743D01*
X704057Y322695D01*
X703761Y322667D01*
X703436Y322647D01*
X703101Y322638D01*
X699383D01*
Y327600D01*
Y327609D01*
Y327628D01*
Y327657D01*
X699392Y327705D01*
X699402Y327762D01*
X699411Y327829D01*
X699440Y327991D01*
X699497Y328173D01*
X699583Y328383D01*
X699698Y328613D01*
X699765Y328728D01*
X699851Y328842D01*
X699937Y328957D01*
X700042Y329072D01*
X700157Y329186D01*
X700291Y329301D01*
X700434Y329406D01*
X700587Y329511D01*
X700759Y329607D01*
X700950Y329693D01*
X701161Y329779D01*
X701381Y329856D01*
X701620Y329923D01*
X701878Y329980D01*
X702155Y330028D01*
X702451Y330056D01*
X702767Y330076D01*
X703101Y330085D01*
X705587D01*
Y328842D01*
D02*
G37*
G36*
X682920D02*
X679029D01*
X678962Y328833D01*
X678809Y328823D01*
X678618Y328804D01*
X678408Y328775D01*
X678188Y328737D01*
X677959Y328689D01*
X677720Y328622D01*
X677500Y328536D01*
X677289Y328441D01*
X677108Y328316D01*
X676945Y328173D01*
X676878Y328097D01*
X676821Y328011D01*
X676773Y327915D01*
X676745Y327819D01*
X676725Y327714D01*
X676716Y327600D01*
Y327160D01*
X676725Y327169D01*
X676754Y327179D01*
X676811Y327198D01*
X676878Y327227D01*
X676974Y327265D01*
X677079Y327303D01*
X677213Y327341D01*
X677366Y327389D01*
X677528Y327427D01*
X677720Y327466D01*
X677920Y327504D01*
X678140Y327542D01*
X678379Y327571D01*
X678637Y327590D01*
X678905Y327609D01*
X681677D01*
Y326366D01*
X679029D01*
X678972Y326357D01*
X678809Y326347D01*
X678628Y326328D01*
X678427Y326299D01*
X678207Y326271D01*
X677978Y326223D01*
X677748Y326156D01*
X677528Y326079D01*
X677318Y325984D01*
X677127Y325869D01*
X676964Y325735D01*
X676897Y325659D01*
X676840Y325573D01*
X676792Y325487D01*
X676754Y325391D01*
X676725Y325286D01*
X676716Y325181D01*
Y325123D01*
Y325114D01*
X676725Y325066D01*
X676735Y325009D01*
X676754Y324932D01*
X676792Y324837D01*
X676850Y324731D01*
X676926Y324617D01*
X677022Y324502D01*
X677156Y324387D01*
X677318Y324273D01*
X677414Y324225D01*
X677519Y324167D01*
X677634Y324120D01*
X677758Y324072D01*
X677901Y324034D01*
X678045Y323995D01*
X678207Y323967D01*
X678379Y323938D01*
X678561Y323909D01*
X678752Y323890D01*
X678972Y323881D01*
X682920D01*
Y322638D01*
X679096D01*
X679029Y322647D01*
X678953D01*
X678848Y322657D01*
X678733Y322667D01*
X678609Y322676D01*
X678475Y322695D01*
X678332Y322714D01*
X678016Y322772D01*
X677681Y322848D01*
X677337Y322944D01*
X676983Y323078D01*
X676649Y323240D01*
X676486Y323336D01*
X676333Y323441D01*
X676190Y323556D01*
X676056Y323680D01*
X675932Y323823D01*
X675817Y323967D01*
X675722Y324129D01*
X675635Y324301D01*
X675569Y324483D01*
X675511Y324674D01*
X675483Y324884D01*
X675473Y325114D01*
Y327600D01*
Y327609D01*
Y327628D01*
Y327657D01*
X675483Y327705D01*
X675492Y327762D01*
X675502Y327829D01*
X675530Y327991D01*
X675588Y328173D01*
X675674Y328383D01*
X675788Y328613D01*
X675855Y328728D01*
X675942Y328842D01*
X676027Y328957D01*
X676133Y329072D01*
X676247Y329186D01*
X676381Y329301D01*
X676525Y329406D01*
X676678Y329511D01*
X676850Y329607D01*
X677041Y329693D01*
X677251Y329779D01*
X677471Y329856D01*
X677710Y329923D01*
X677968Y329980D01*
X678245Y330028D01*
X678542Y330056D01*
X678857Y330076D01*
X679192Y330085D01*
X682920D01*
Y328842D01*
D02*
G37*
G36*
X670750Y330076D02*
X670846Y330066D01*
X670961Y330056D01*
X671085Y330047D01*
X671219Y330028D01*
X671362Y330009D01*
X671678Y329951D01*
X672022Y329875D01*
X672366Y329779D01*
X672710Y329645D01*
X673054Y329483D01*
X673207Y329387D01*
X673370Y329282D01*
X673513Y329158D01*
X673647Y329033D01*
X673771Y328900D01*
X673886Y328756D01*
X673982Y328594D01*
X674068Y328422D01*
X674135Y328240D01*
X674192Y328039D01*
X674221Y327829D01*
X674230Y327600D01*
Y327590D01*
Y327542D01*
X674221Y327485D01*
Y327399D01*
X674202Y327294D01*
X674182Y327179D01*
X674154Y327045D01*
X674116Y326902D01*
X674068Y326758D01*
X674001Y326605D01*
X673924Y326443D01*
X673838Y326290D01*
X673724Y326146D01*
X673599Y326003D01*
X673456Y325869D01*
X673293Y325745D01*
X673303Y325735D01*
X673332Y325716D01*
X673379Y325678D01*
X673437Y325630D01*
X673513Y325563D01*
X673590Y325487D01*
X673676Y325391D01*
X673762Y325276D01*
X673848Y325152D01*
X673934Y325018D01*
X674010Y324865D01*
X674087Y324693D01*
X674144Y324512D01*
X674192Y324320D01*
X674221Y324110D01*
X674230Y323881D01*
Y322638D01*
X672987D01*
Y323881D01*
Y323890D01*
Y323938D01*
X672968Y323995D01*
X672949Y324072D01*
X672911Y324167D01*
X672854Y324273D01*
X672777Y324387D01*
X672682Y324502D01*
X672548Y324617D01*
X672385Y324731D01*
X672290Y324789D01*
X672184Y324837D01*
X672060Y324884D01*
X671936Y324932D01*
X671802Y324971D01*
X671659Y325009D01*
X671496Y325047D01*
X671324Y325066D01*
X671142Y325095D01*
X670942Y325114D01*
X670731Y325123D01*
X666783D01*
Y326366D01*
X670607D01*
X670664Y326376D01*
X670731D01*
X670894Y326385D01*
X671075Y326405D01*
X671286Y326433D01*
X671515Y326471D01*
X671745Y326519D01*
X671974Y326586D01*
X672203Y326672D01*
X672414Y326768D01*
X672596Y326883D01*
X672758Y327026D01*
X672825Y327112D01*
X672882Y327188D01*
X672930Y327284D01*
X672959Y327380D01*
X672978Y327485D01*
X672987Y327600D01*
Y327609D01*
Y327657D01*
X672968Y327714D01*
X672949Y327791D01*
X672911Y327886D01*
X672854Y327991D01*
X672777Y328106D01*
X672682Y328221D01*
X672548Y328336D01*
X672385Y328450D01*
X672290Y328508D01*
X672184Y328555D01*
X672060Y328603D01*
X671936Y328651D01*
X671802Y328689D01*
X671659Y328728D01*
X671496Y328766D01*
X671324Y328785D01*
X671142Y328814D01*
X670942Y328833D01*
X670731Y328842D01*
X666783D01*
Y330085D01*
X670664D01*
X670750Y330076D01*
D02*
G37*
G36*
X665531Y328842D02*
X665425D01*
X665368Y328833D01*
X665301Y328823D01*
X665148Y328804D01*
X664957Y328766D01*
X664747Y328708D01*
X664527Y328632D01*
X664297Y328536D01*
X664058Y328402D01*
X663838Y328240D01*
X663733Y328144D01*
X663628Y328039D01*
X663533Y327915D01*
X663447Y327791D01*
X663361Y327657D01*
X663284Y327513D01*
X663217Y327351D01*
X663160Y327179D01*
X663112Y326997D01*
X663083Y326796D01*
X663064Y326586D01*
X663055Y326357D01*
Y326347D01*
Y326328D01*
Y326299D01*
X663064Y326252D01*
Y326194D01*
X663074Y326127D01*
X663093Y325974D01*
X663131Y325783D01*
X663188Y325573D01*
X663265Y325353D01*
X663361Y325123D01*
X663494Y324884D01*
X663657Y324665D01*
X663753Y324559D01*
X663858Y324454D01*
X663972Y324359D01*
X664097Y324273D01*
X664240Y324186D01*
X664383Y324110D01*
X664546Y324043D01*
X664718Y323986D01*
X664900Y323938D01*
X665091Y323909D01*
X665301Y323890D01*
X665531Y323881D01*
Y322638D01*
X665435D01*
X665368Y322647D01*
X665292Y322657D01*
X665187Y322667D01*
X665072Y322676D01*
X664948Y322695D01*
X664814Y322724D01*
X664670Y322753D01*
X664355Y322839D01*
X664020Y322953D01*
X663848Y323020D01*
X663676Y323106D01*
X663494Y323192D01*
X663322Y323298D01*
X663150Y323412D01*
X662988Y323546D01*
X662825Y323689D01*
X662672Y323842D01*
X662529Y324014D01*
X662395Y324206D01*
X662271Y324416D01*
X662156Y324636D01*
X662060Y324875D01*
X661974Y325133D01*
X661907Y325410D01*
X661850Y325707D01*
X661821Y326022D01*
X661812Y326357D01*
Y326366D01*
Y326395D01*
Y326452D01*
X661821Y326519D01*
X661831Y326605D01*
X661840Y326701D01*
X661850Y326816D01*
X661869Y326940D01*
X661898Y327074D01*
X661927Y327217D01*
X662013Y327533D01*
X662127Y327877D01*
X662194Y328049D01*
X662280Y328221D01*
X662366Y328393D01*
X662471Y328565D01*
X662586Y328737D01*
X662720Y328909D01*
X662863Y329062D01*
X663016Y329225D01*
X663188Y329368D01*
X663380Y329502D01*
X663590Y329626D01*
X663810Y329741D01*
X664049Y329837D01*
X664307Y329923D01*
X664584Y329990D01*
X664881Y330047D01*
X665196Y330076D01*
X665531Y330085D01*
Y328842D01*
D02*
G37*
G36*
X654039Y328842D02*
X650627D01*
Y322638D01*
X649384D01*
Y328842D01*
X646277D01*
Y330085D01*
X654039D01*
Y328842D01*
D02*
G37*
G36*
X645034Y322638D02*
X643791D01*
Y330085D01*
X645034D01*
Y322638D01*
D02*
G37*
G36*
X638982Y330076D02*
X639069D01*
X639164Y330056D01*
X639279Y330047D01*
X639403Y330028D01*
X639537Y329999D01*
X639680Y329970D01*
X639996Y329884D01*
X640168Y329837D01*
X640340Y329770D01*
X640512Y329703D01*
X640684Y329617D01*
X640856Y329531D01*
X641028Y329425D01*
X641200Y329301D01*
X641372Y329177D01*
X641526Y329033D01*
X641688Y328871D01*
X641831Y328699D01*
X641965Y328517D01*
X642090Y328307D01*
X642204Y328087D01*
X642300Y327848D01*
X642386Y327590D01*
X642453Y327313D01*
X642510Y327016D01*
X642539Y326691D01*
X642548Y326357D01*
Y322638D01*
X641306D01*
Y326357D01*
Y326366D01*
Y326385D01*
Y326414D01*
Y326462D01*
X641296Y326519D01*
X641287Y326586D01*
X641267Y326749D01*
X641229Y326930D01*
X641172Y327141D01*
X641095Y327370D01*
X641000Y327600D01*
X640866Y327829D01*
X640703Y328058D01*
X640608Y328164D01*
X640503Y328269D01*
X640378Y328364D01*
X640254Y328450D01*
X640120Y328536D01*
X639977Y328613D01*
X639814Y328680D01*
X639642Y328737D01*
X639461Y328785D01*
X639260Y328814D01*
X639049Y328833D01*
X638820Y328842D01*
X638715D01*
X638658Y328833D01*
X638590Y328823D01*
X638438Y328804D01*
X638246Y328766D01*
X638036Y328708D01*
X637816Y328632D01*
X637587Y328536D01*
X637348Y328402D01*
X637128Y328240D01*
X637023Y328144D01*
X636918Y328039D01*
X636822Y327915D01*
X636736Y327791D01*
X636650Y327657D01*
X636573Y327513D01*
X636507Y327351D01*
X636449Y327179D01*
X636401Y326997D01*
X636373Y326796D01*
X636353Y326586D01*
X636344Y326357D01*
Y322638D01*
X635101D01*
Y326357D01*
Y326366D01*
Y326395D01*
Y326452D01*
X635111Y326519D01*
X635120Y326605D01*
X635130Y326701D01*
X635139Y326816D01*
X635158Y326940D01*
X635187Y327074D01*
X635216Y327217D01*
X635302Y327533D01*
X635417Y327877D01*
X635484Y328049D01*
X635570Y328221D01*
X635656Y328393D01*
X635761Y328565D01*
X635876Y328737D01*
X636009Y328909D01*
X636153Y329062D01*
X636306Y329225D01*
X636478Y329368D01*
X636669Y329502D01*
X636879Y329626D01*
X637099Y329741D01*
X637338Y329837D01*
X637596Y329923D01*
X637874Y329990D01*
X638170Y330047D01*
X638485Y330076D01*
X638820Y330085D01*
X638916D01*
X638982Y330076D01*
D02*
G37*
G36*
X612434Y326357D02*
Y326347D01*
Y326328D01*
Y326299D01*
X612444Y326252D01*
Y326194D01*
X612454Y326127D01*
X612473Y325974D01*
X612511Y325783D01*
X612568Y325573D01*
X612645Y325353D01*
X612740Y325123D01*
X612874Y324884D01*
X613037Y324664D01*
X613132Y324559D01*
X613237Y324454D01*
X613352Y324359D01*
X613476Y324273D01*
X613620Y324186D01*
X613763Y324110D01*
X613926Y324043D01*
X614098Y323986D01*
X614280Y323938D01*
X614471Y323909D01*
X614681Y323890D01*
X614910Y323881D01*
X614968D01*
X615016Y323890D01*
X615073D01*
X615140Y323900D01*
X615302Y323919D01*
X615484Y323957D01*
X615694Y324014D01*
X615924Y324091D01*
X616153Y324186D01*
X616383Y324320D01*
X616612Y324483D01*
X616717Y324578D01*
X616822Y324684D01*
X616918Y324798D01*
X617004Y324923D01*
X617090Y325066D01*
X617167Y325209D01*
X617234Y325372D01*
X617291Y325544D01*
X617339Y325726D01*
X617367Y325917D01*
X617386Y326127D01*
X617396Y326357D01*
X618639D01*
Y326347D01*
Y326318D01*
Y326261D01*
X618629Y326194D01*
Y326118D01*
X618610Y326012D01*
X618601Y325898D01*
X618581Y325774D01*
X618553Y325640D01*
X618524Y325496D01*
X618438Y325181D01*
X618390Y325018D01*
X618323Y324846D01*
X618256Y324674D01*
X618170Y324502D01*
X618084Y324320D01*
X617979Y324148D01*
X617855Y323976D01*
X617731Y323814D01*
X617587Y323651D01*
X617425Y323498D01*
X617253Y323355D01*
X617071Y323221D01*
X616861Y323097D01*
X616641Y322982D01*
X616402Y322886D01*
X616144Y322800D01*
X615866Y322733D01*
X615570Y322676D01*
X615245Y322647D01*
X614910Y322638D01*
X614815D01*
X614748Y322647D01*
X614671Y322657D01*
X614566Y322667D01*
X614452Y322676D01*
X614327Y322695D01*
X614193Y322724D01*
X614050Y322752D01*
X613735Y322839D01*
X613400Y322953D01*
X613228Y323020D01*
X613056Y323106D01*
X612874Y323192D01*
X612702Y323298D01*
X612530Y323412D01*
X612367Y323546D01*
X612205Y323689D01*
X612052Y323842D01*
X611909Y324014D01*
X611775Y324206D01*
X611651Y324416D01*
X611536Y324636D01*
X611440Y324875D01*
X611354Y325133D01*
X611287Y325410D01*
X611230Y325707D01*
X611201Y326022D01*
X611192Y326357D01*
Y330085D01*
X612434D01*
Y326357D01*
D02*
G37*
G36*
X606383Y330076D02*
X606469D01*
X606565Y330056D01*
X606679Y330047D01*
X606804Y330028D01*
X606937Y329999D01*
X607081Y329970D01*
X607396Y329884D01*
X607568Y329837D01*
X607740Y329770D01*
X607912Y329703D01*
X608085Y329617D01*
X608257Y329531D01*
X608429Y329425D01*
X608601Y329301D01*
X608773Y329177D01*
X608926Y329033D01*
X609088Y328871D01*
X609232Y328699D01*
X609366Y328517D01*
X609490Y328307D01*
X609605Y328087D01*
X609700Y327848D01*
X609786Y327590D01*
X609853Y327313D01*
X609910Y327016D01*
X609939Y326691D01*
X609949Y326357D01*
Y326347D01*
Y326318D01*
Y326261D01*
X609939Y326194D01*
Y326118D01*
X609920Y326012D01*
X609910Y325898D01*
X609891Y325774D01*
X609863Y325640D01*
X609834Y325496D01*
X609748Y325181D01*
X609700Y325018D01*
X609633Y324846D01*
X609566Y324674D01*
X609480Y324502D01*
X609394Y324320D01*
X609289Y324148D01*
X609165Y323976D01*
X609041Y323814D01*
X608897Y323651D01*
X608735Y323498D01*
X608563Y323355D01*
X608381Y323221D01*
X608171Y323097D01*
X607951Y322982D01*
X607712Y322886D01*
X607454Y322800D01*
X607176Y322733D01*
X606880Y322676D01*
X606555Y322647D01*
X606220Y322638D01*
X606125D01*
X606058Y322647D01*
X605981Y322657D01*
X605876Y322667D01*
X605761Y322676D01*
X605637Y322695D01*
X605503Y322724D01*
X605360Y322752D01*
X605045Y322839D01*
X604710Y322953D01*
X604538Y323020D01*
X604366Y323106D01*
X604184Y323192D01*
X604012Y323298D01*
X603840Y323412D01*
X603677Y323546D01*
X603515Y323689D01*
X603362Y323842D01*
X603219Y324014D01*
X603085Y324206D01*
X602960Y324416D01*
X602846Y324636D01*
X602750Y324875D01*
X602664Y325133D01*
X602597Y325410D01*
X602540Y325707D01*
X602511Y326022D01*
X602502Y326357D01*
Y326366D01*
Y326395D01*
Y326452D01*
X602511Y326519D01*
X602521Y326605D01*
X602530Y326701D01*
X602540Y326816D01*
X602559Y326940D01*
X602588Y327074D01*
X602616Y327217D01*
X602702Y327533D01*
X602817Y327877D01*
X602884Y328049D01*
X602970Y328221D01*
X603056Y328393D01*
X603161Y328565D01*
X603276Y328737D01*
X603410Y328909D01*
X603553Y329062D01*
X603706Y329225D01*
X603878Y329368D01*
X604069Y329502D01*
X604280Y329626D01*
X604500Y329741D01*
X604739Y329837D01*
X604997Y329923D01*
X605274Y329990D01*
X605570Y330047D01*
X605886Y330076D01*
X606220Y330085D01*
X606316D01*
X606383Y330076D01*
D02*
G37*
G36*
X597779Y330076D02*
X597874Y330066D01*
X597989Y330056D01*
X598113Y330047D01*
X598247Y330028D01*
X598391Y330009D01*
X598706Y329951D01*
X599050Y329875D01*
X599395Y329779D01*
X599739Y329645D01*
X600083Y329483D01*
X600236Y329387D01*
X600398Y329282D01*
X600542Y329158D01*
X600676Y329033D01*
X600800Y328900D01*
X600915Y328756D01*
X601010Y328594D01*
X601096Y328422D01*
X601163Y328240D01*
X601221Y328039D01*
X601249Y327829D01*
X601259Y327600D01*
Y327590D01*
Y327542D01*
X601249Y327485D01*
Y327399D01*
X601230Y327293D01*
X601211Y327179D01*
X601182Y327045D01*
X601144Y326902D01*
X601096Y326758D01*
X601029Y326605D01*
X600953Y326443D01*
X600867Y326290D01*
X600752Y326146D01*
X600628Y326003D01*
X600484Y325869D01*
X600322Y325745D01*
X600331Y325735D01*
X600360Y325716D01*
X600408Y325678D01*
X600465Y325630D01*
X600542Y325563D01*
X600618Y325487D01*
X600704Y325391D01*
X600790Y325276D01*
X600876Y325152D01*
X600962Y325018D01*
X601039Y324865D01*
X601115Y324693D01*
X601173Y324512D01*
X601221Y324320D01*
X601249Y324110D01*
X601259Y323881D01*
Y322638D01*
X600016Y322638D01*
Y323881D01*
Y323890D01*
Y323938D01*
X599997Y323995D01*
X599978Y324072D01*
X599939Y324167D01*
X599882Y324273D01*
X599806Y324387D01*
X599710Y324502D01*
X599576Y324617D01*
X599414Y324731D01*
X599318Y324789D01*
X599213Y324837D01*
X599089Y324884D01*
X598964Y324932D01*
X598831Y324970D01*
X598687Y325009D01*
X598525Y325047D01*
X598352Y325066D01*
X598171Y325095D01*
X597970Y325114D01*
X597760Y325123D01*
X593812D01*
Y326366D01*
X597636D01*
X597693Y326376D01*
X597760D01*
X597922Y326385D01*
X598104Y326404D01*
X598314Y326433D01*
X598544Y326471D01*
X598773Y326519D01*
X599003Y326586D01*
X599232Y326672D01*
X599442Y326768D01*
X599624Y326883D01*
X599787Y327026D01*
X599853Y327112D01*
X599911Y327188D01*
X599959Y327284D01*
X599987Y327380D01*
X600006Y327485D01*
X600016Y327599D01*
Y327609D01*
Y327657D01*
X599997Y327714D01*
X599978Y327791D01*
X599939Y327886D01*
X599882Y327991D01*
X599806Y328106D01*
X599710Y328221D01*
X599576Y328336D01*
X599414Y328450D01*
X599318Y328508D01*
X599213Y328555D01*
X599089Y328603D01*
X598964Y328651D01*
X598831Y328689D01*
X598687Y328728D01*
X598525Y328766D01*
X598352Y328785D01*
X598171Y328814D01*
X597970Y328833D01*
X597760Y328842D01*
X593812D01*
Y330085D01*
X597693D01*
X597779Y330076D01*
D02*
G37*
G36*
X592569Y328842D02*
X589156D01*
Y322638D01*
X587913D01*
Y328842D01*
X584806D01*
Y330085D01*
X592569D01*
Y328842D01*
D02*
G37*
G36*
X579997Y330076D02*
X580083D01*
X580179Y330056D01*
X580294Y330047D01*
X580418Y330028D01*
X580552Y329999D01*
X580695Y329970D01*
X581011Y329884D01*
X581183Y329837D01*
X581355Y329770D01*
X581527Y329703D01*
X581699Y329617D01*
X581871Y329531D01*
X582043Y329425D01*
X582215Y329301D01*
X582387Y329177D01*
X582540Y329033D01*
X582703Y328871D01*
X582846Y328699D01*
X582980Y328517D01*
X583104Y328307D01*
X583219Y328087D01*
X583315Y327848D01*
X583401Y327590D01*
X583468Y327313D01*
X583525Y327016D01*
X583554Y326691D01*
X583563Y326357D01*
Y322638D01*
X582320D01*
Y326357D01*
Y326366D01*
Y326385D01*
Y326414D01*
Y326462D01*
X582311Y326519D01*
X582301Y326586D01*
X582282Y326749D01*
X582244Y326930D01*
X582187Y327141D01*
X582110Y327370D01*
X582015Y327599D01*
X581881Y327829D01*
X581718Y328058D01*
X581623Y328164D01*
X581517Y328269D01*
X581393Y328364D01*
X581269Y328450D01*
X581135Y328536D01*
X580992Y328613D01*
X580829Y328680D01*
X580657Y328737D01*
X580475Y328785D01*
X580274Y328814D01*
X580064Y328833D01*
X579835Y328842D01*
X579730D01*
X579672Y328833D01*
X579605Y328823D01*
X579452Y328804D01*
X579261Y328766D01*
X579051Y328708D01*
X578831Y328632D01*
X578602Y328536D01*
X578363Y328402D01*
X578143Y328240D01*
X578038Y328144D01*
X577932Y328039D01*
X577837Y327915D01*
X577751Y327791D01*
X577665Y327657D01*
X577588Y327513D01*
X577521Y327351D01*
X577464Y327179D01*
X577416Y326997D01*
X577387Y326796D01*
X577368Y326586D01*
X577359Y326357D01*
Y322638D01*
X576116D01*
Y326357D01*
Y326366D01*
Y326395D01*
Y326452D01*
X576125Y326519D01*
X576135Y326605D01*
X576145Y326701D01*
X576154Y326816D01*
X576173Y326940D01*
X576202Y327074D01*
X576231Y327217D01*
X576317Y327533D01*
X576431Y327877D01*
X576498Y328049D01*
X576584Y328221D01*
X576670Y328393D01*
X576776Y328565D01*
X576890Y328737D01*
X577024Y328909D01*
X577168Y329062D01*
X577320Y329225D01*
X577493Y329368D01*
X577684Y329502D01*
X577894Y329626D01*
X578114Y329741D01*
X578353Y329837D01*
X578611Y329923D01*
X578888Y329989D01*
X579185Y330047D01*
X579500Y330076D01*
X579835Y330085D01*
X579930D01*
X579997Y330076D01*
D02*
G37*
G36*
X571307D02*
X571393D01*
X571489Y330056D01*
X571604Y330047D01*
X571728Y330028D01*
X571862Y329999D01*
X572005Y329970D01*
X572321Y329884D01*
X572493Y329837D01*
X572665Y329770D01*
X572837Y329703D01*
X573009Y329617D01*
X573181Y329531D01*
X573353Y329425D01*
X573525Y329301D01*
X573697Y329177D01*
X573850Y329033D01*
X574013Y328871D01*
X574156Y328699D01*
X574290Y328517D01*
X574414Y328307D01*
X574529Y328087D01*
X574625Y327848D01*
X574711Y327590D01*
X574778Y327313D01*
X574835Y327016D01*
X574864Y326691D01*
X574873Y326357D01*
Y326347D01*
Y326318D01*
Y326261D01*
X574864Y326194D01*
Y326118D01*
X574845Y326012D01*
X574835Y325898D01*
X574816Y325774D01*
X574787Y325640D01*
X574758Y325496D01*
X574672Y325181D01*
X574625Y325018D01*
X574558Y324846D01*
X574491Y324674D01*
X574405Y324502D01*
X574319Y324320D01*
X574214Y324148D01*
X574089Y323976D01*
X573965Y323814D01*
X573822Y323651D01*
X573659Y323498D01*
X573487Y323355D01*
X573305Y323221D01*
X573095Y323097D01*
X572875Y322982D01*
X572636Y322886D01*
X572378Y322800D01*
X572101Y322733D01*
X571804Y322676D01*
X571479Y322647D01*
X571145Y322638D01*
X571049D01*
X570982Y322647D01*
X570906Y322657D01*
X570801Y322667D01*
X570686Y322676D01*
X570562Y322695D01*
X570428Y322724D01*
X570284Y322752D01*
X569969Y322839D01*
X569634Y322953D01*
X569462Y323020D01*
X569290Y323106D01*
X569108Y323192D01*
X568936Y323297D01*
X568764Y323412D01*
X568602Y323546D01*
X568439Y323689D01*
X568286Y323842D01*
X568143Y324014D01*
X568009Y324206D01*
X567885Y324416D01*
X567770Y324636D01*
X567674Y324875D01*
X567588Y325133D01*
X567521Y325410D01*
X567464Y325707D01*
X567436Y326022D01*
X567426Y326357D01*
Y326366D01*
Y326395D01*
Y326452D01*
X567436Y326519D01*
X567445Y326605D01*
X567455Y326701D01*
X567464Y326816D01*
X567483Y326940D01*
X567512Y327074D01*
X567541Y327217D01*
X567627Y327533D01*
X567741Y327877D01*
X567808Y328049D01*
X567894Y328221D01*
X567980Y328393D01*
X568085Y328565D01*
X568200Y328737D01*
X568334Y328909D01*
X568477Y329062D01*
X568631Y329225D01*
X568802Y329368D01*
X568994Y329502D01*
X569204Y329626D01*
X569424Y329741D01*
X569663Y329837D01*
X569921Y329923D01*
X570198Y329989D01*
X570495Y330047D01*
X570810Y330076D01*
X571145Y330085D01*
X571240D01*
X571307Y330076D01*
D02*
G37*
G36*
X566183Y328842D02*
X562350D01*
X562292Y328833D01*
X562225Y328823D01*
X562072Y328804D01*
X561881Y328766D01*
X561671Y328708D01*
X561451Y328632D01*
X561222Y328536D01*
X560983Y328402D01*
X560763Y328240D01*
X560657Y328144D01*
X560552Y328039D01*
X560457Y327915D01*
X560371Y327791D01*
X560285Y327657D01*
X560208Y327513D01*
X560141Y327351D01*
X560084Y327179D01*
X560036Y326997D01*
X560007Y326796D01*
X559988Y326586D01*
X559979Y326357D01*
Y326347D01*
Y326328D01*
Y326299D01*
X559988Y326252D01*
Y326194D01*
X559998Y326127D01*
X560017Y325974D01*
X560055Y325783D01*
X560112Y325573D01*
X560189Y325353D01*
X560285Y325123D01*
X560418Y324884D01*
X560581Y324664D01*
X560677Y324559D01*
X560782Y324454D01*
X560896Y324359D01*
X561021Y324273D01*
X561164Y324186D01*
X561307Y324110D01*
X561470Y324043D01*
X561642Y323986D01*
X561824Y323938D01*
X562015Y323909D01*
X562225Y323890D01*
X562455Y323881D01*
X566183D01*
Y322638D01*
X562359D01*
X562292Y322647D01*
X562216Y322657D01*
X562111Y322667D01*
X561996Y322676D01*
X561872Y322695D01*
X561738Y322724D01*
X561594Y322752D01*
X561279Y322839D01*
X560944Y322953D01*
X560772Y323020D01*
X560600Y323106D01*
X560418Y323192D01*
X560246Y323297D01*
X560074Y323412D01*
X559912Y323546D01*
X559749Y323689D01*
X559596Y323842D01*
X559453Y324014D01*
X559319Y324206D01*
X559195Y324416D01*
X559080Y324636D01*
X558984Y324875D01*
X558898Y325133D01*
X558832Y325410D01*
X558774Y325707D01*
X558745Y326022D01*
X558736Y326357D01*
Y326366D01*
Y326395D01*
Y326452D01*
X558745Y326519D01*
X558755Y326605D01*
X558765Y326701D01*
X558774Y326816D01*
X558793Y326940D01*
X558822Y327074D01*
X558851Y327217D01*
X558937Y327533D01*
X559051Y327877D01*
X559118Y328049D01*
X559204Y328221D01*
X559290Y328393D01*
X559396Y328565D01*
X559510Y328737D01*
X559644Y328909D01*
X559788Y329062D01*
X559940Y329225D01*
X560112Y329368D01*
X560304Y329502D01*
X560514Y329626D01*
X560734Y329741D01*
X560973Y329837D01*
X561231Y329923D01*
X561508Y329989D01*
X561805Y330047D01*
X562120Y330076D01*
X562455Y330085D01*
X566183D01*
Y328842D01*
D02*
G37*
G36*
X550964D02*
X547073D01*
X547006Y328833D01*
X546853Y328823D01*
X546662Y328804D01*
X546451Y328775D01*
X546231Y328737D01*
X546002Y328689D01*
X545763Y328622D01*
X545543Y328536D01*
X545333Y328441D01*
X545151Y328316D01*
X544989Y328173D01*
X544922Y328097D01*
X544864Y328011D01*
X544816Y327915D01*
X544788Y327819D01*
X544769Y327714D01*
X544759Y327599D01*
Y327160D01*
X544769Y327169D01*
X544797Y327179D01*
X544855Y327198D01*
X544922Y327227D01*
X545017Y327265D01*
X545122Y327303D01*
X545256Y327341D01*
X545409Y327389D01*
X545572Y327427D01*
X545763Y327466D01*
X545964Y327504D01*
X546184Y327542D01*
X546423Y327571D01*
X546681Y327590D01*
X546948Y327609D01*
X549721D01*
Y326366D01*
X547073D01*
X547015Y326357D01*
X546853Y326347D01*
X546671Y326328D01*
X546470Y326299D01*
X546250Y326271D01*
X546021Y326223D01*
X545792Y326156D01*
X545572Y326079D01*
X545361Y325984D01*
X545170Y325869D01*
X545008Y325735D01*
X544941Y325659D01*
X544883Y325573D01*
X544836Y325487D01*
X544797Y325391D01*
X544769Y325286D01*
X544759Y325181D01*
Y325123D01*
Y325114D01*
X544769Y325066D01*
X544778Y325009D01*
X544797Y324932D01*
X544836Y324837D01*
X544893Y324731D01*
X544970Y324617D01*
X545065Y324502D01*
X545199Y324387D01*
X545361Y324273D01*
X545457Y324225D01*
X545562Y324167D01*
X545677Y324120D01*
X545801Y324072D01*
X545945Y324034D01*
X546088Y323995D01*
X546250Y323967D01*
X546423Y323938D01*
X546604Y323909D01*
X546795Y323890D01*
X547015Y323881D01*
X550964D01*
Y322638D01*
X547140D01*
X547073Y322647D01*
X546996D01*
X546891Y322657D01*
X546776Y322667D01*
X546652Y322676D01*
X546518Y322695D01*
X546375Y322714D01*
X546059Y322772D01*
X545725Y322848D01*
X545381Y322944D01*
X545027Y323078D01*
X544692Y323240D01*
X544530Y323336D01*
X544377Y323441D01*
X544233Y323556D01*
X544100Y323680D01*
X543975Y323823D01*
X543860Y323967D01*
X543765Y324129D01*
X543679Y324301D01*
X543612Y324483D01*
X543555Y324674D01*
X543526Y324884D01*
X543516Y325114D01*
Y327599D01*
Y327609D01*
Y327628D01*
Y327657D01*
X543526Y327705D01*
X543536Y327762D01*
X543545Y327829D01*
X543574Y327991D01*
X543631Y328173D01*
X543717Y328383D01*
X543832Y328613D01*
X543899Y328728D01*
X543985Y328842D01*
X544071Y328957D01*
X544176Y329072D01*
X544291Y329186D01*
X544424Y329301D01*
X544568Y329406D01*
X544721Y329511D01*
X544893Y329607D01*
X545084Y329693D01*
X545295Y329779D01*
X545514Y329856D01*
X545753Y329923D01*
X546011Y329980D01*
X546289Y330028D01*
X546585Y330056D01*
X546901Y330076D01*
X547235Y330085D01*
X550964D01*
Y328842D01*
D02*
G37*
G36*
X533583Y322638D02*
X532341D01*
Y330085D01*
X533583D01*
Y322638D01*
D02*
G37*
G36*
X527618Y330076D02*
X527714Y330066D01*
X527828Y330056D01*
X527953Y330047D01*
X528087Y330028D01*
X528230Y330009D01*
X528545Y329951D01*
X528890Y329875D01*
X529234Y329779D01*
X529578Y329645D01*
X529922Y329483D01*
X530075Y329387D01*
X530237Y329282D01*
X530381Y329158D01*
X530515Y329033D01*
X530639Y328900D01*
X530754Y328756D01*
X530849Y328594D01*
X530935Y328422D01*
X531002Y328240D01*
X531060Y328039D01*
X531088Y327829D01*
X531098Y327599D01*
Y327590D01*
Y327542D01*
X531088Y327485D01*
Y327399D01*
X531069Y327293D01*
X531050Y327179D01*
X531021Y327045D01*
X530983Y326902D01*
X530935Y326758D01*
X530868Y326605D01*
X530792Y326443D01*
X530706Y326290D01*
X530591Y326146D01*
X530467Y326003D01*
X530324Y325869D01*
X530161Y325745D01*
X530171Y325735D01*
X530199Y325716D01*
X530247Y325678D01*
X530304Y325630D01*
X530381Y325563D01*
X530457Y325487D01*
X530543Y325391D01*
X530629Y325276D01*
X530716Y325152D01*
X530802Y325018D01*
X530878Y324865D01*
X530955Y324693D01*
X531012Y324512D01*
X531060Y324320D01*
X531088Y324110D01*
X531098Y323881D01*
Y322638D01*
X529855D01*
Y323881D01*
Y323890D01*
Y323938D01*
X529836Y323995D01*
X529817Y324072D01*
X529779Y324167D01*
X529721Y324273D01*
X529645Y324387D01*
X529549Y324502D01*
X529415Y324617D01*
X529253Y324731D01*
X529157Y324789D01*
X529052Y324837D01*
X528928Y324884D01*
X528803Y324932D01*
X528670Y324970D01*
X528526Y325009D01*
X528364Y325047D01*
X528192Y325066D01*
X528010Y325095D01*
X527809Y325114D01*
X527599Y325123D01*
X523651D01*
Y326366D01*
X527475D01*
X527532Y326376D01*
X527599D01*
X527762Y326385D01*
X527943Y326404D01*
X528153Y326433D01*
X528383Y326471D01*
X528612Y326519D01*
X528842Y326586D01*
X529071Y326672D01*
X529282Y326768D01*
X529463Y326882D01*
X529626Y327026D01*
X529693Y327112D01*
X529750Y327188D01*
X529798Y327284D01*
X529826Y327380D01*
X529846Y327485D01*
X529855Y327599D01*
Y327609D01*
Y327657D01*
X529836Y327714D01*
X529817Y327791D01*
X529779Y327886D01*
X529721Y327991D01*
X529645Y328106D01*
X529549Y328221D01*
X529415Y328336D01*
X529253Y328450D01*
X529157Y328508D01*
X529052Y328555D01*
X528928Y328603D01*
X528803Y328651D01*
X528670Y328689D01*
X528526Y328728D01*
X528364Y328766D01*
X528192Y328785D01*
X528010Y328814D01*
X527809Y328833D01*
X527599Y328842D01*
X523651D01*
Y330085D01*
X527532D01*
X527618Y330076D01*
D02*
G37*
G36*
X518842D02*
X518928D01*
X519024Y330056D01*
X519138Y330047D01*
X519263Y330028D01*
X519396Y329999D01*
X519540Y329970D01*
X519855Y329884D01*
X520027Y329837D01*
X520199Y329770D01*
X520372Y329703D01*
X520544Y329617D01*
X520716Y329531D01*
X520888Y329425D01*
X521060Y329301D01*
X521232Y329177D01*
X521385Y329033D01*
X521548Y328871D01*
X521691Y328699D01*
X521825Y328517D01*
X521949Y328307D01*
X522064Y328087D01*
X522159Y327848D01*
X522245Y327590D01*
X522312Y327313D01*
X522370Y327016D01*
X522398Y326691D01*
X522408Y326357D01*
Y326347D01*
Y326318D01*
Y326261D01*
X522398Y326194D01*
Y326118D01*
X522379Y326012D01*
X522370Y325898D01*
X522351Y325774D01*
X522322Y325640D01*
X522293Y325496D01*
X522207Y325181D01*
X522159Y325018D01*
X522092Y324846D01*
X522025Y324674D01*
X521939Y324502D01*
X521853Y324320D01*
X521748Y324148D01*
X521624Y323976D01*
X521500Y323814D01*
X521356Y323651D01*
X521194Y323498D01*
X521022Y323355D01*
X520840Y323221D01*
X520630Y323097D01*
X520410Y322982D01*
X520171Y322886D01*
X519913Y322800D01*
X519635Y322733D01*
X519339Y322676D01*
X519014Y322647D01*
X518680Y322638D01*
X514961D01*
Y323881D01*
X518737D01*
X518785Y323890D01*
X518842D01*
X518909Y323900D01*
X519071Y323919D01*
X519253Y323957D01*
X519463Y324014D01*
X519693Y324091D01*
X519922Y324186D01*
X520152Y324320D01*
X520381Y324483D01*
X520486Y324578D01*
X520591Y324684D01*
X520687Y324798D01*
X520773Y324923D01*
X520859Y325066D01*
X520936Y325209D01*
X521002Y325372D01*
X521060Y325544D01*
X521108Y325726D01*
X521136Y325917D01*
X521156Y326127D01*
X521165Y326357D01*
Y326366D01*
Y326385D01*
Y326414D01*
Y326462D01*
X521156Y326519D01*
X521146Y326586D01*
X521127Y326749D01*
X521089Y326930D01*
X521031Y327141D01*
X520955Y327370D01*
X520859Y327599D01*
X520725Y327829D01*
X520563Y328058D01*
X520467Y328164D01*
X520362Y328269D01*
X520238Y328364D01*
X520114Y328450D01*
X519980Y328536D01*
X519836Y328613D01*
X519674Y328680D01*
X519502Y328737D01*
X519320Y328785D01*
X519119Y328814D01*
X518909Y328833D01*
X518680Y328842D01*
X514961D01*
Y330085D01*
X518775D01*
X518842Y330076D01*
D02*
G37*
G36*
X378655Y31065D02*
X375318D01*
X375260Y31057D01*
X375129Y31049D01*
X374965Y31032D01*
X374784Y31008D01*
X374596Y30975D01*
X374399Y30934D01*
X374194Y30876D01*
X374006Y30811D01*
X373825Y30720D01*
X373669Y30622D01*
X373530Y30499D01*
X373472Y30433D01*
X373423Y30360D01*
X373382Y30278D01*
X373358Y30196D01*
X373341Y30106D01*
X373333Y30007D01*
X375596D01*
X375670Y29999D01*
X375752Y29991D01*
X375851Y29983D01*
X375957Y29974D01*
X376072Y29958D01*
X376195Y29941D01*
X376466Y29892D01*
X376761Y29827D01*
X377056Y29745D01*
X377351Y29630D01*
X377646Y29491D01*
X377778Y29408D01*
X377917Y29318D01*
X378040Y29212D01*
X378155Y29105D01*
X378261Y28990D01*
X378360Y28867D01*
X378442Y28728D01*
X378516Y28580D01*
X378573Y28425D01*
X378622Y28252D01*
X378647Y28072D01*
X378655Y27875D01*
Y27867D01*
Y27850D01*
Y27826D01*
X378647Y27785D01*
Y27736D01*
X378630Y27678D01*
X378606Y27539D01*
X378556Y27383D01*
X378483Y27203D01*
X378442Y27104D01*
X378384Y27006D01*
X378327Y26908D01*
X378253Y26809D01*
X378179Y26711D01*
X378089Y26612D01*
X377982Y26514D01*
X377876Y26416D01*
X377753Y26325D01*
X377613Y26235D01*
X377466Y26153D01*
X377310Y26079D01*
X377130Y26006D01*
X376941Y25940D01*
X376736Y25883D01*
X376515Y25833D01*
X376277Y25792D01*
X376023Y25768D01*
X375744Y25751D01*
X375457Y25743D01*
X372267D01*
Y26809D01*
X375547D01*
X375596Y26817D01*
X375654D01*
X375793Y26825D01*
X375949Y26842D01*
X376129Y26866D01*
X376326Y26899D01*
X376523Y26940D01*
X376720Y26998D01*
X376917Y27071D01*
X377097Y27154D01*
X377253Y27260D01*
X377392Y27383D01*
X377449Y27449D01*
X377499Y27523D01*
X377540Y27604D01*
X377564Y27687D01*
X377581Y27777D01*
X377589Y27875D01*
Y27883D01*
Y27924D01*
X377572Y27973D01*
X377556Y28039D01*
X377523Y28121D01*
X377474Y28211D01*
X377409Y28310D01*
X377326Y28408D01*
X377212Y28506D01*
X377072Y28605D01*
X376990Y28654D01*
X376900Y28695D01*
X376794Y28736D01*
X376687Y28777D01*
X376572Y28810D01*
X376449Y28843D01*
X376310Y28875D01*
X376162Y28892D01*
X376006Y28916D01*
X375834Y28933D01*
X375654Y28941D01*
X372267D01*
Y29999D01*
Y30007D01*
Y30024D01*
Y30048D01*
X372275Y30089D01*
X372284Y30138D01*
X372292Y30196D01*
X372316Y30335D01*
X372365Y30491D01*
X372439Y30671D01*
X372538Y30868D01*
X372595Y30966D01*
X372669Y31065D01*
X372743Y31163D01*
X372833Y31262D01*
X372931Y31360D01*
X373046Y31459D01*
X373169Y31549D01*
X373300Y31639D01*
X373448Y31721D01*
X373612Y31795D01*
X373792Y31868D01*
X373981Y31934D01*
X374186Y31991D01*
X374407Y32041D01*
X374645Y32082D01*
X374899Y32106D01*
X375170Y32123D01*
X375457Y32131D01*
X378655D01*
Y31065D01*
D02*
G37*
G36*
X371201D02*
X367913D01*
X367864Y31057D01*
X367806Y31049D01*
X367675Y31032D01*
X367511Y30999D01*
X367331Y30950D01*
X367142Y30885D01*
X366945Y30803D01*
X366740Y30688D01*
X366552Y30548D01*
X366461Y30466D01*
X366371Y30376D01*
X366289Y30270D01*
X366215Y30163D01*
X366142Y30048D01*
X366076Y29925D01*
X366019Y29786D01*
X365969Y29638D01*
X365929Y29482D01*
X365904Y29310D01*
X365887Y29130D01*
X365879Y28933D01*
Y28925D01*
Y28908D01*
Y28884D01*
X365887Y28843D01*
Y28793D01*
X365896Y28736D01*
X365912Y28605D01*
X365945Y28441D01*
X365994Y28260D01*
X366060Y28072D01*
X366142Y27875D01*
X366256Y27670D01*
X366396Y27481D01*
X366478Y27391D01*
X366568Y27301D01*
X366667Y27219D01*
X366773Y27145D01*
X366896Y27071D01*
X367019Y27006D01*
X367159Y26948D01*
X367306Y26899D01*
X367462Y26858D01*
X367626Y26834D01*
X367806Y26817D01*
X368003Y26809D01*
X371201D01*
Y25743D01*
X367921D01*
X367864Y25751D01*
X367798Y25760D01*
X367708Y25768D01*
X367610Y25776D01*
X367503Y25792D01*
X367388Y25817D01*
X367265Y25842D01*
X366995Y25915D01*
X366707Y26014D01*
X366560Y26071D01*
X366412Y26145D01*
X366256Y26219D01*
X366109Y26309D01*
X365961Y26407D01*
X365822Y26522D01*
X365683Y26645D01*
X365551Y26776D01*
X365428Y26924D01*
X365314Y27088D01*
X365207Y27268D01*
X365108Y27457D01*
X365026Y27662D01*
X364953Y27883D01*
X364895Y28121D01*
X364846Y28375D01*
X364822Y28646D01*
X364813Y28933D01*
Y28941D01*
Y28966D01*
Y29015D01*
X364822Y29072D01*
X364830Y29146D01*
X364838Y29228D01*
X364846Y29327D01*
X364862Y29433D01*
X364887Y29548D01*
X364912Y29671D01*
X364985Y29941D01*
X365084Y30237D01*
X365141Y30384D01*
X365215Y30532D01*
X365289Y30680D01*
X365379Y30827D01*
X365477Y30975D01*
X365592Y31122D01*
X365715Y31253D01*
X365846Y31393D01*
X365994Y31516D01*
X366158Y31631D01*
X366338Y31737D01*
X366527Y31836D01*
X366732Y31918D01*
X366953Y31991D01*
X367191Y32049D01*
X367445Y32098D01*
X367716Y32123D01*
X368003Y32131D01*
X371201D01*
Y31065D01*
D02*
G37*
G36*
X363747Y25743D02*
X362681D01*
Y32131D01*
X363747D01*
Y25743D01*
D02*
G37*
G36*
X361615Y31065D02*
X358688D01*
Y25743D01*
X357622D01*
Y31065D01*
X354957D01*
Y32131D01*
X361615D01*
Y31065D01*
D02*
G37*
G36*
X350832Y32123D02*
X350906D01*
X350988Y32106D01*
X351086Y32098D01*
X351193Y32082D01*
X351308Y32057D01*
X351431Y32032D01*
X351701Y31959D01*
X351849Y31918D01*
X351997Y31860D01*
X352144Y31803D01*
X352292Y31729D01*
X352439Y31655D01*
X352587Y31565D01*
X352735Y31459D01*
X352882Y31352D01*
X353013Y31229D01*
X353153Y31089D01*
X353276Y30942D01*
X353391Y30786D01*
X353497Y30606D01*
X353596Y30417D01*
X353678Y30212D01*
X353751Y29991D01*
X353809Y29753D01*
X353858Y29499D01*
X353883Y29220D01*
X353891Y28933D01*
Y28925D01*
Y28900D01*
Y28851D01*
X353883Y28793D01*
Y28728D01*
X353866Y28638D01*
X353858Y28539D01*
X353842Y28433D01*
X353817Y28318D01*
X353793Y28195D01*
X353719Y27924D01*
X353678Y27785D01*
X353620Y27637D01*
X353563Y27490D01*
X353489Y27342D01*
X353415Y27186D01*
X353325Y27039D01*
X353219Y26891D01*
X353112Y26752D01*
X352989Y26612D01*
X352850Y26481D01*
X352702Y26358D01*
X352546Y26243D01*
X352366Y26137D01*
X352177Y26038D01*
X351972Y25956D01*
X351751Y25883D01*
X351513Y25825D01*
X351259Y25776D01*
X350980Y25751D01*
X350693Y25743D01*
X350611D01*
X350553Y25751D01*
X350488Y25760D01*
X350398Y25768D01*
X350299Y25776D01*
X350193Y25792D01*
X350078Y25817D01*
X349955Y25842D01*
X349684Y25915D01*
X349397Y26014D01*
X349250Y26071D01*
X349102Y26145D01*
X348946Y26219D01*
X348799Y26309D01*
X348651Y26407D01*
X348512Y26522D01*
X348372Y26645D01*
X348241Y26776D01*
X348118Y26924D01*
X348003Y27088D01*
X347897Y27268D01*
X347798Y27457D01*
X347716Y27662D01*
X347642Y27883D01*
X347585Y28121D01*
X347536Y28375D01*
X347511Y28646D01*
X347503Y28933D01*
Y28941D01*
Y28966D01*
Y29015D01*
X347511Y29072D01*
X347519Y29146D01*
X347528Y29228D01*
X347536Y29327D01*
X347552Y29433D01*
X347577Y29548D01*
X347602Y29671D01*
X347675Y29941D01*
X347774Y30237D01*
X347831Y30384D01*
X347905Y30532D01*
X347979Y30680D01*
X348069Y30827D01*
X348167Y30975D01*
X348282Y31122D01*
X348405Y31253D01*
X348536Y31393D01*
X348684Y31516D01*
X348848Y31631D01*
X349028Y31737D01*
X349217Y31836D01*
X349422Y31918D01*
X349643Y31991D01*
X349881Y32049D01*
X350135Y32098D01*
X350406Y32123D01*
X350693Y32131D01*
X350775D01*
X350832Y32123D01*
D02*
G37*
G36*
X345371Y31065D02*
X343100D01*
X343042Y31057D01*
X342911Y31049D01*
X342747Y31032D01*
X342567Y31008D01*
X342378Y30975D01*
X342181Y30934D01*
X341976Y30876D01*
X341788Y30803D01*
X341607Y30720D01*
X341452Y30614D01*
X341312Y30491D01*
X341255Y30425D01*
X341206Y30351D01*
X341164Y30270D01*
X341140Y30187D01*
X341124Y30097D01*
X341115Y29999D01*
Y26809D01*
X343329D01*
X343378Y26817D01*
X343436D01*
X343575Y26825D01*
X343731Y26842D01*
X343912Y26866D01*
X344108Y26899D01*
X344305Y26940D01*
X344502Y26998D01*
X344699Y27071D01*
X344879Y27154D01*
X345035Y27260D01*
X345174Y27383D01*
X345232Y27449D01*
X345281Y27523D01*
X345322Y27604D01*
X345346Y27687D01*
X345363Y27777D01*
X345371Y27875D01*
Y27883D01*
Y27924D01*
X345355Y27973D01*
X345338Y28039D01*
X345305Y28121D01*
X345256Y28211D01*
X345191Y28310D01*
X345109Y28408D01*
X344994Y28506D01*
X344854Y28605D01*
X344773Y28654D01*
X344682Y28695D01*
X344576Y28736D01*
X344469Y28777D01*
X344354Y28810D01*
X344231Y28843D01*
X344092Y28875D01*
X343944Y28892D01*
X343789Y28916D01*
X343616Y28933D01*
X343436Y28941D01*
X342173D01*
Y30007D01*
X343378D01*
X343452Y29999D01*
X343534Y29991D01*
X343633Y29983D01*
X343739Y29974D01*
X343854Y29958D01*
X343977Y29941D01*
X344248Y29892D01*
X344543Y29827D01*
X344838Y29745D01*
X345133Y29630D01*
X345428Y29491D01*
X345560Y29408D01*
X345699Y29318D01*
X345822Y29212D01*
X345937Y29105D01*
X346043Y28990D01*
X346142Y28867D01*
X346224Y28728D01*
X346298Y28580D01*
X346355Y28425D01*
X346404Y28252D01*
X346429Y28072D01*
X346437Y27875D01*
Y27867D01*
Y27850D01*
Y27826D01*
X346429Y27785D01*
Y27736D01*
X346412Y27678D01*
X346388Y27539D01*
X346339Y27383D01*
X346265Y27203D01*
X346224Y27104D01*
X346166Y27006D01*
X346109Y26908D01*
X346035Y26809D01*
X345961Y26711D01*
X345871Y26612D01*
X345765Y26514D01*
X345658Y26416D01*
X345535Y26325D01*
X345396Y26235D01*
X345248Y26153D01*
X345092Y26079D01*
X344912Y26006D01*
X344723Y25940D01*
X344518Y25883D01*
X344297Y25833D01*
X344059Y25792D01*
X343805Y25768D01*
X343526Y25751D01*
X343239Y25743D01*
X340049D01*
Y29999D01*
Y30007D01*
Y30024D01*
Y30048D01*
X340057Y30089D01*
X340066Y30138D01*
X340074Y30196D01*
X340099Y30335D01*
X340148Y30491D01*
X340222Y30671D01*
X340320Y30868D01*
X340377Y30966D01*
X340451Y31065D01*
X340525Y31163D01*
X340615Y31262D01*
X340714Y31360D01*
X340828Y31459D01*
X340951Y31549D01*
X341083Y31639D01*
X341230Y31721D01*
X341394Y31795D01*
X341575Y31868D01*
X341763Y31934D01*
X341968Y31991D01*
X342190Y32041D01*
X342427Y32082D01*
X342682Y32106D01*
X342952Y32123D01*
X343239Y32131D01*
X345371D01*
Y31065D01*
D02*
G37*
G36*
X335925Y32123D02*
X335999D01*
X336081Y32106D01*
X336179Y32098D01*
X336285Y32082D01*
X336400Y32057D01*
X336523Y32032D01*
X336794Y31959D01*
X336942Y31918D01*
X337089Y31860D01*
X337237Y31803D01*
X337384Y31729D01*
X337532Y31655D01*
X337680Y31565D01*
X337827Y31459D01*
X337975Y31352D01*
X338106Y31229D01*
X338245Y31089D01*
X338368Y30942D01*
X338483Y30786D01*
X338590Y30606D01*
X338688Y30417D01*
X338770Y30212D01*
X338844Y29991D01*
X338901Y29753D01*
X338950Y29499D01*
X338975Y29220D01*
X338983Y28933D01*
Y28925D01*
Y28900D01*
Y28851D01*
X338975Y28793D01*
Y28728D01*
X338959Y28638D01*
X338950Y28539D01*
X338934Y28433D01*
X338910Y28318D01*
X338885Y28195D01*
X338811Y27924D01*
X338770Y27785D01*
X338713Y27637D01*
X338655Y27490D01*
X338581Y27342D01*
X338508Y27186D01*
X338418Y27039D01*
X338311Y26891D01*
X338204Y26752D01*
X338081Y26612D01*
X337942Y26481D01*
X337794Y26358D01*
X337638Y26243D01*
X337458Y26137D01*
X337269Y26038D01*
X337065Y25956D01*
X336843Y25883D01*
X336605Y25825D01*
X336351Y25776D01*
X336072Y25751D01*
X335785Y25743D01*
X335703D01*
X335646Y25751D01*
X335580Y25760D01*
X335490Y25768D01*
X335392Y25776D01*
X335285Y25792D01*
X335170Y25817D01*
X335047Y25842D01*
X334777Y25915D01*
X334490Y26014D01*
X334342Y26071D01*
X334194Y26145D01*
X334039Y26219D01*
X333891Y26309D01*
X333744Y26407D01*
X333604Y26522D01*
X333465Y26645D01*
X333333Y26776D01*
X333210Y26924D01*
X333096Y27088D01*
X332989Y27268D01*
X332891Y27457D01*
X332809Y27662D01*
X332735Y27883D01*
X332678Y28121D01*
X332628Y28375D01*
X332604Y28646D01*
X332595Y28933D01*
Y28941D01*
Y28966D01*
Y29015D01*
X332604Y29072D01*
X332612Y29146D01*
X332620Y29228D01*
X332628Y29327D01*
X332645Y29433D01*
X332669Y29548D01*
X332694Y29671D01*
X332768Y29941D01*
X332866Y30237D01*
X332924Y30384D01*
X332997Y30532D01*
X333071Y30680D01*
X333161Y30827D01*
X333260Y30975D01*
X333375Y31122D01*
X333498Y31253D01*
X333629Y31393D01*
X333776Y31516D01*
X333940Y31631D01*
X334121Y31737D01*
X334309Y31836D01*
X334514Y31918D01*
X334736Y31991D01*
X334974Y32049D01*
X335228Y32098D01*
X335498Y32123D01*
X335785Y32131D01*
X335867D01*
X335925Y32123D01*
D02*
G37*
G36*
X328545D02*
X328627Y32114D01*
X328725Y32106D01*
X328832Y32098D01*
X328946Y32082D01*
X329069Y32065D01*
X329340Y32016D01*
X329635Y31951D01*
X329930Y31868D01*
X330226Y31754D01*
X330521Y31614D01*
X330652Y31532D01*
X330791Y31442D01*
X330914Y31335D01*
X331029Y31229D01*
X331136Y31114D01*
X331234Y30991D01*
X331316Y30852D01*
X331390Y30704D01*
X331448Y30548D01*
X331497Y30376D01*
X331521Y30196D01*
X331529Y29999D01*
Y29991D01*
Y29950D01*
X331521Y29901D01*
Y29827D01*
X331505Y29737D01*
X331488Y29638D01*
X331464Y29523D01*
X331431Y29400D01*
X331390Y29277D01*
X331333Y29146D01*
X331267Y29007D01*
X331193Y28875D01*
X331095Y28752D01*
X330988Y28629D01*
X330865Y28515D01*
X330726Y28408D01*
X330734Y28400D01*
X330759Y28383D01*
X330800Y28351D01*
X330849Y28310D01*
X330914Y28252D01*
X330980Y28187D01*
X331054Y28105D01*
X331128Y28006D01*
X331202Y27900D01*
X331275Y27785D01*
X331341Y27654D01*
X331406Y27506D01*
X331456Y27350D01*
X331497Y27186D01*
X331521Y27006D01*
X331529Y26809D01*
Y25743D01*
X330464D01*
Y26809D01*
Y26817D01*
Y26858D01*
X330447Y26908D01*
X330431Y26973D01*
X330398Y27055D01*
X330349Y27145D01*
X330283Y27244D01*
X330201Y27342D01*
X330086Y27441D01*
X329947Y27539D01*
X329865Y27588D01*
X329775Y27629D01*
X329668Y27670D01*
X329561Y27711D01*
X329447Y27744D01*
X329324Y27777D01*
X329184Y27810D01*
X329037Y27826D01*
X328881Y27850D01*
X328709Y27867D01*
X328528Y27875D01*
X325142D01*
Y28941D01*
X328422D01*
X328471Y28949D01*
X328528D01*
X328668Y28958D01*
X328823Y28974D01*
X329004Y28999D01*
X329201Y29031D01*
X329398Y29072D01*
X329594Y29130D01*
X329791Y29204D01*
X329972Y29285D01*
X330127Y29384D01*
X330267Y29507D01*
X330324Y29581D01*
X330373Y29646D01*
X330414Y29728D01*
X330439Y29810D01*
X330455Y29901D01*
X330464Y29999D01*
Y30007D01*
Y30048D01*
X330447Y30097D01*
X330431Y30163D01*
X330398Y30245D01*
X330349Y30335D01*
X330283Y30433D01*
X330201Y30532D01*
X330086Y30630D01*
X329947Y30729D01*
X329865Y30778D01*
X329775Y30819D01*
X329668Y30860D01*
X329561Y30901D01*
X329447Y30934D01*
X329324Y30966D01*
X329184Y30999D01*
X329037Y31016D01*
X328881Y31040D01*
X328709Y31057D01*
X328528Y31065D01*
X325142D01*
Y32131D01*
X328471D01*
X328545Y32123D01*
D02*
G37*
G36*
X318475Y31065D02*
X315138D01*
X315080Y31057D01*
X314949Y31049D01*
X314785Y31032D01*
X314605Y31008D01*
X314416Y30975D01*
X314219Y30934D01*
X314014Y30876D01*
X313826Y30811D01*
X313645Y30720D01*
X313490Y30622D01*
X313350Y30499D01*
X313293Y30433D01*
X313244Y30360D01*
X313203Y30278D01*
X313178Y30196D01*
X313161Y30106D01*
X313153Y30007D01*
X315417D01*
X315490Y29999D01*
X315572Y29991D01*
X315671Y29983D01*
X315777Y29974D01*
X315892Y29958D01*
X316015Y29941D01*
X316286Y29892D01*
X316581Y29827D01*
X316876Y29745D01*
X317171Y29630D01*
X317466Y29491D01*
X317598Y29408D01*
X317737Y29318D01*
X317860Y29212D01*
X317975Y29105D01*
X318081Y28990D01*
X318180Y28867D01*
X318262Y28728D01*
X318336Y28580D01*
X318393Y28425D01*
X318442Y28252D01*
X318467Y28072D01*
X318475Y27875D01*
Y27867D01*
Y27850D01*
Y27826D01*
X318467Y27785D01*
Y27736D01*
X318450Y27678D01*
X318426Y27539D01*
X318377Y27383D01*
X318303Y27203D01*
X318262Y27104D01*
X318204Y27006D01*
X318147Y26908D01*
X318073Y26809D01*
X318000Y26711D01*
X317909Y26612D01*
X317803Y26514D01*
X317696Y26416D01*
X317573Y26325D01*
X317434Y26235D01*
X317286Y26153D01*
X317130Y26079D01*
X316950Y26006D01*
X316761Y25940D01*
X316556Y25883D01*
X316335Y25833D01*
X316097Y25792D01*
X315843Y25768D01*
X315564Y25751D01*
X315277Y25743D01*
X312087D01*
Y26809D01*
X315367D01*
X315417Y26817D01*
X315474D01*
X315613Y26825D01*
X315769Y26842D01*
X315950Y26866D01*
X316146Y26899D01*
X316343Y26940D01*
X316540Y26998D01*
X316737Y27071D01*
X316917Y27154D01*
X317073Y27260D01*
X317212Y27383D01*
X317270Y27449D01*
X317319Y27523D01*
X317360Y27604D01*
X317385Y27687D01*
X317401Y27777D01*
X317409Y27875D01*
Y27883D01*
Y27924D01*
X317393Y27973D01*
X317376Y28039D01*
X317343Y28121D01*
X317294Y28211D01*
X317229Y28310D01*
X317147Y28408D01*
X317032Y28506D01*
X316893Y28605D01*
X316810Y28654D01*
X316720Y28695D01*
X316614Y28736D01*
X316507Y28777D01*
X316392Y28810D01*
X316269Y28843D01*
X316130Y28875D01*
X315982Y28892D01*
X315827Y28916D01*
X315654Y28933D01*
X315474Y28941D01*
X312087D01*
Y29999D01*
Y30007D01*
Y30024D01*
Y30048D01*
X312095Y30089D01*
X312104Y30138D01*
X312112Y30196D01*
X312137Y30335D01*
X312186Y30491D01*
X312260Y30671D01*
X312358Y30868D01*
X312415Y30966D01*
X312489Y31065D01*
X312563Y31163D01*
X312653Y31262D01*
X312752Y31360D01*
X312866Y31459D01*
X312989Y31549D01*
X313121Y31639D01*
X313268Y31721D01*
X313432Y31795D01*
X313613Y31868D01*
X313801Y31934D01*
X314006Y31991D01*
X314228Y32041D01*
X314465Y32082D01*
X314720Y32106D01*
X314990Y32123D01*
X315277Y32131D01*
X318475D01*
Y31065D01*
D02*
G37*
G36*
X311021D02*
X308094D01*
Y25743D01*
X307028D01*
Y31065D01*
X304363D01*
Y32131D01*
X311021D01*
Y31065D01*
D02*
G37*
G36*
X300238Y32123D02*
X300312D01*
X300394Y32106D01*
X300493Y32098D01*
X300599Y32082D01*
X300714Y32057D01*
X300837Y32032D01*
X301108Y31959D01*
X301255Y31918D01*
X301403Y31860D01*
X301550Y31803D01*
X301698Y31729D01*
X301846Y31655D01*
X301993Y31565D01*
X302141Y31459D01*
X302288Y31352D01*
X302419Y31229D01*
X302559Y31089D01*
X302682Y30942D01*
X302797Y30786D01*
X302903Y30606D01*
X303002Y30417D01*
X303084Y30212D01*
X303157Y29991D01*
X303215Y29753D01*
X303264Y29499D01*
X303289Y29220D01*
X303297Y28933D01*
Y25743D01*
X302231D01*
Y28933D01*
Y28941D01*
Y28958D01*
Y28982D01*
Y29023D01*
X302223Y29072D01*
X302215Y29130D01*
X302198Y29269D01*
X302165Y29425D01*
X302116Y29605D01*
X302050Y29802D01*
X301969Y29999D01*
X301854Y30196D01*
X301714Y30393D01*
X301632Y30483D01*
X301542Y30573D01*
X301435Y30655D01*
X301329Y30729D01*
X301214Y30803D01*
X301091Y30868D01*
X300952Y30926D01*
X300804Y30975D01*
X300648Y31016D01*
X300476Y31040D01*
X300296Y31057D01*
X300099Y31065D01*
X300009D01*
X299959Y31057D01*
X299902Y31049D01*
X299771Y31032D01*
X299607Y30999D01*
X299427Y30950D01*
X299238Y30885D01*
X299041Y30803D01*
X298836Y30688D01*
X298647Y30548D01*
X298557Y30466D01*
X298467Y30376D01*
X298385Y30270D01*
X298311Y30163D01*
X298237Y30048D01*
X298172Y29925D01*
X298114Y29786D01*
X298065Y29638D01*
X298024Y29482D01*
X298000Y29310D01*
X297983Y29130D01*
X297975Y28933D01*
Y25743D01*
X296909D01*
Y28933D01*
Y28941D01*
Y28966D01*
Y29015D01*
X296917Y29072D01*
X296925Y29146D01*
X296934Y29228D01*
X296942Y29327D01*
X296958Y29433D01*
X296983Y29548D01*
X297007Y29671D01*
X297081Y29941D01*
X297180Y30237D01*
X297237Y30384D01*
X297311Y30532D01*
X297385Y30680D01*
X297475Y30827D01*
X297573Y30975D01*
X297688Y31122D01*
X297811Y31253D01*
X297942Y31393D01*
X298090Y31516D01*
X298254Y31631D01*
X298434Y31737D01*
X298623Y31836D01*
X298828Y31918D01*
X299049Y31991D01*
X299287Y32049D01*
X299541Y32098D01*
X299812Y32123D01*
X300099Y32131D01*
X300181D01*
X300238Y32123D01*
D02*
G37*
G36*
X295843Y25743D02*
X294777D01*
Y31065D01*
X292555D01*
X292506Y31057D01*
X292448Y31049D01*
X292317Y31032D01*
X292153Y30999D01*
X291973Y30950D01*
X291784Y30885D01*
X291587Y30803D01*
X291382Y30688D01*
X291194Y30548D01*
X291104Y30466D01*
X291013Y30376D01*
X290931Y30270D01*
X290858Y30163D01*
X290784Y30048D01*
X290718Y29925D01*
X290661Y29786D01*
X290612Y29638D01*
X290570Y29482D01*
X290546Y29310D01*
X290529Y29130D01*
X290521Y28933D01*
Y28925D01*
Y28908D01*
Y28884D01*
X290529Y28843D01*
Y28793D01*
X290538Y28736D01*
X290554Y28605D01*
X290587Y28441D01*
X290636Y28260D01*
X290702Y28072D01*
X290784Y27875D01*
X290898Y27670D01*
X291038Y27481D01*
X291120Y27391D01*
X291210Y27301D01*
X291308Y27219D01*
X291415Y27145D01*
X291538Y27071D01*
X291661Y27006D01*
X291800Y26948D01*
X291948Y26899D01*
X292104Y26858D01*
X292268Y26834D01*
X292448Y26817D01*
X292645Y26809D01*
X293711D01*
Y25743D01*
X292563D01*
X292506Y25751D01*
X292440Y25760D01*
X292350Y25768D01*
X292251Y25776D01*
X292145Y25792D01*
X292030Y25817D01*
X291907Y25842D01*
X291636Y25915D01*
X291350Y26014D01*
X291202Y26071D01*
X291054Y26145D01*
X290898Y26219D01*
X290751Y26309D01*
X290603Y26407D01*
X290464Y26522D01*
X290324Y26645D01*
X290193Y26776D01*
X290070Y26924D01*
X289955Y27088D01*
X289849Y27268D01*
X289751Y27457D01*
X289668Y27662D01*
X289595Y27883D01*
X289537Y28121D01*
X289488Y28375D01*
X289463Y28646D01*
X289455Y28933D01*
Y28941D01*
Y28966D01*
Y29015D01*
X289463Y29072D01*
X289472Y29146D01*
X289480Y29228D01*
X289488Y29327D01*
X289505Y29433D01*
X289529Y29548D01*
X289554Y29671D01*
X289628Y29941D01*
X289726Y30237D01*
X289783Y30384D01*
X289857Y30532D01*
X289931Y30680D01*
X290021Y30827D01*
X290120Y30975D01*
X290234Y31122D01*
X290357Y31253D01*
X290489Y31393D01*
X290636Y31516D01*
X290800Y31631D01*
X290981Y31737D01*
X291169Y31836D01*
X291374Y31918D01*
X291596Y31991D01*
X291833Y32049D01*
X292088Y32098D01*
X292358Y32123D01*
X292645Y32131D01*
X295843D01*
Y25743D01*
D02*
G37*
%LPC*%
G36*
X606220Y328842D02*
X606115D01*
X606058Y328833D01*
X605991Y328823D01*
X605838Y328804D01*
X605647Y328766D01*
X605437Y328708D01*
X605217Y328632D01*
X604987Y328536D01*
X604748Y328402D01*
X604528Y328240D01*
X604423Y328144D01*
X604318Y328039D01*
X604222Y327915D01*
X604136Y327791D01*
X604050Y327657D01*
X603974Y327513D01*
X603907Y327351D01*
X603850Y327179D01*
X603802Y326997D01*
X603773Y326796D01*
X603754Y326586D01*
X603744Y326357D01*
Y326347D01*
Y326328D01*
Y326299D01*
X603754Y326252D01*
Y326194D01*
X603763Y326127D01*
X603783Y325974D01*
X603821Y325783D01*
X603878Y325573D01*
X603955Y325353D01*
X604050Y325123D01*
X604184Y324884D01*
X604347Y324664D01*
X604442Y324559D01*
X604547Y324454D01*
X604662Y324359D01*
X604786Y324273D01*
X604930Y324186D01*
X605073Y324110D01*
X605236Y324043D01*
X605408Y323986D01*
X605589Y323938D01*
X605781Y323909D01*
X605991Y323890D01*
X606220Y323881D01*
X606278D01*
X606326Y323890D01*
X606383D01*
X606450Y323900D01*
X606612Y323919D01*
X606794Y323957D01*
X607004Y324014D01*
X607234Y324091D01*
X607463Y324186D01*
X607693Y324320D01*
X607922Y324483D01*
X608027Y324578D01*
X608132Y324684D01*
X608228Y324798D01*
X608314Y324923D01*
X608400Y325066D01*
X608477Y325209D01*
X608543Y325372D01*
X608601Y325544D01*
X608649Y325726D01*
X608677Y325917D01*
X608696Y326127D01*
X608706Y326357D01*
Y326366D01*
Y326385D01*
Y326414D01*
Y326462D01*
X608696Y326519D01*
X608687Y326586D01*
X608668Y326749D01*
X608630Y326930D01*
X608572Y327141D01*
X608496Y327370D01*
X608400Y327600D01*
X608266Y327829D01*
X608104Y328058D01*
X608008Y328164D01*
X607903Y328269D01*
X607779Y328364D01*
X607654Y328450D01*
X607521Y328536D01*
X607377Y328613D01*
X607215Y328680D01*
X607043Y328737D01*
X606861Y328785D01*
X606660Y328814D01*
X606450Y328833D01*
X606220Y328842D01*
D02*
G37*
G36*
X571145Y328842D02*
X571040D01*
X570982Y328833D01*
X570915Y328823D01*
X570762Y328804D01*
X570571Y328766D01*
X570361Y328708D01*
X570141Y328632D01*
X569911Y328536D01*
X569672Y328402D01*
X569453Y328240D01*
X569347Y328144D01*
X569242Y328039D01*
X569147Y327915D01*
X569061Y327791D01*
X568975Y327657D01*
X568898Y327513D01*
X568831Y327351D01*
X568774Y327179D01*
X568726Y326997D01*
X568697Y326796D01*
X568678Y326586D01*
X568669Y326357D01*
Y326347D01*
Y326328D01*
Y326299D01*
X568678Y326252D01*
Y326194D01*
X568688Y326127D01*
X568707Y325974D01*
X568745Y325783D01*
X568802Y325573D01*
X568879Y325353D01*
X568975Y325123D01*
X569108Y324884D01*
X569271Y324664D01*
X569367Y324559D01*
X569472Y324454D01*
X569587Y324359D01*
X569711Y324273D01*
X569854Y324186D01*
X569998Y324110D01*
X570160Y324043D01*
X570332Y323986D01*
X570514Y323938D01*
X570705Y323909D01*
X570915Y323890D01*
X571145Y323881D01*
X571202D01*
X571250Y323890D01*
X571307D01*
X571374Y323900D01*
X571537Y323919D01*
X571718Y323957D01*
X571929Y324014D01*
X572158Y324091D01*
X572388Y324186D01*
X572617Y324320D01*
X572846Y324483D01*
X572952Y324578D01*
X573057Y324684D01*
X573152Y324798D01*
X573238Y324923D01*
X573324Y325066D01*
X573401Y325209D01*
X573468Y325372D01*
X573525Y325544D01*
X573573Y325726D01*
X573602Y325917D01*
X573621Y326127D01*
X573630Y326357D01*
Y326366D01*
Y326385D01*
Y326414D01*
Y326462D01*
X573621Y326519D01*
X573611Y326586D01*
X573592Y326749D01*
X573554Y326930D01*
X573496Y327141D01*
X573420Y327370D01*
X573324Y327599D01*
X573191Y327829D01*
X573028Y328058D01*
X572932Y328164D01*
X572827Y328269D01*
X572703Y328364D01*
X572579Y328450D01*
X572445Y328536D01*
X572301Y328613D01*
X572139Y328680D01*
X571967Y328737D01*
X571785Y328785D01*
X571585Y328814D01*
X571374Y328833D01*
X571145Y328842D01*
D02*
G37*
G36*
X350693Y31065D02*
X350603D01*
X350553Y31057D01*
X350496Y31049D01*
X350365Y31032D01*
X350201Y30999D01*
X350021Y30950D01*
X349832Y30885D01*
X349635Y30803D01*
X349430Y30688D01*
X349241Y30548D01*
X349151Y30466D01*
X349061Y30376D01*
X348979Y30270D01*
X348905Y30163D01*
X348832Y30048D01*
X348766Y29925D01*
X348709Y29786D01*
X348659Y29638D01*
X348618Y29482D01*
X348594Y29310D01*
X348577Y29130D01*
X348569Y28933D01*
Y28925D01*
Y28908D01*
Y28884D01*
X348577Y28843D01*
Y28793D01*
X348586Y28736D01*
X348602Y28605D01*
X348635Y28441D01*
X348684Y28260D01*
X348749Y28072D01*
X348832Y27875D01*
X348946Y27670D01*
X349086Y27481D01*
X349168Y27391D01*
X349258Y27301D01*
X349356Y27219D01*
X349463Y27145D01*
X349586Y27071D01*
X349709Y27006D01*
X349848Y26948D01*
X349996Y26899D01*
X350152Y26858D01*
X350316Y26834D01*
X350496Y26817D01*
X350693Y26809D01*
X350742D01*
X350783Y26817D01*
X350832D01*
X350890Y26825D01*
X351029Y26842D01*
X351185Y26875D01*
X351365Y26924D01*
X351562Y26989D01*
X351759Y27071D01*
X351956Y27186D01*
X352152Y27326D01*
X352243Y27408D01*
X352333Y27498D01*
X352415Y27596D01*
X352489Y27703D01*
X352562Y27826D01*
X352628Y27949D01*
X352685Y28088D01*
X352735Y28236D01*
X352776Y28392D01*
X352800Y28556D01*
X352817Y28736D01*
X352825Y28933D01*
Y28941D01*
Y28958D01*
Y28982D01*
Y29023D01*
X352817Y29072D01*
X352808Y29130D01*
X352792Y29269D01*
X352759Y29425D01*
X352710Y29605D01*
X352644Y29802D01*
X352562Y29999D01*
X352448Y30196D01*
X352308Y30393D01*
X352226Y30483D01*
X352136Y30573D01*
X352029Y30655D01*
X351923Y30729D01*
X351808Y30803D01*
X351685Y30868D01*
X351546Y30926D01*
X351398Y30975D01*
X351242Y31016D01*
X351070Y31040D01*
X350890Y31057D01*
X350693Y31065D01*
D02*
G37*
G36*
X335785D02*
X335695D01*
X335646Y31057D01*
X335589Y31049D01*
X335457Y31032D01*
X335293Y30999D01*
X335113Y30950D01*
X334924Y30885D01*
X334728Y30803D01*
X334523Y30688D01*
X334334Y30548D01*
X334244Y30466D01*
X334154Y30376D01*
X334071Y30270D01*
X333998Y30163D01*
X333924Y30048D01*
X333858Y29925D01*
X333801Y29786D01*
X333752Y29638D01*
X333711Y29482D01*
X333686Y29310D01*
X333670Y29130D01*
X333662Y28933D01*
Y28925D01*
Y28908D01*
Y28884D01*
X333670Y28843D01*
Y28793D01*
X333678Y28736D01*
X333694Y28605D01*
X333727Y28441D01*
X333776Y28260D01*
X333842Y28072D01*
X333924Y27875D01*
X334039Y27670D01*
X334178Y27481D01*
X334260Y27391D01*
X334350Y27301D01*
X334449Y27219D01*
X334555Y27145D01*
X334678Y27071D01*
X334801Y27006D01*
X334941Y26948D01*
X335088Y26899D01*
X335244Y26858D01*
X335408Y26834D01*
X335589Y26817D01*
X335785Y26809D01*
X335835D01*
X335876Y26817D01*
X335925D01*
X335982Y26825D01*
X336122Y26842D01*
X336277Y26875D01*
X336458Y26924D01*
X336654Y26989D01*
X336851Y27071D01*
X337048Y27186D01*
X337245Y27326D01*
X337335Y27408D01*
X337425Y27498D01*
X337507Y27596D01*
X337581Y27703D01*
X337655Y27826D01*
X337720Y27949D01*
X337778Y28088D01*
X337827Y28236D01*
X337868Y28392D01*
X337893Y28556D01*
X337909Y28736D01*
X337917Y28933D01*
Y28941D01*
Y28958D01*
Y28982D01*
Y29023D01*
X337909Y29072D01*
X337901Y29130D01*
X337884Y29269D01*
X337852Y29425D01*
X337803Y29605D01*
X337737Y29802D01*
X337655Y29999D01*
X337540Y30196D01*
X337401Y30393D01*
X337319Y30483D01*
X337228Y30573D01*
X337122Y30655D01*
X337015Y30729D01*
X336900Y30803D01*
X336777Y30868D01*
X336638Y30926D01*
X336491Y30975D01*
X336335Y31016D01*
X336162Y31040D01*
X335982Y31057D01*
X335785Y31065D01*
D02*
G37*
%LPD*%
D10*
X33051Y222146D02*
X32313Y222572D01*
Y221720D01*
X33051Y222146D01*
X758366Y282677D02*
X757628Y283103D01*
Y282251D01*
X758366Y282677D01*
X453051Y141870D02*
X452313Y142296D01*
Y141444D01*
X453051Y141870D01*
Y59193D02*
X452313Y59619D01*
Y58767D01*
X453051Y59193D01*
Y86752D02*
X452313Y87178D01*
Y86326D01*
X453051Y86752D01*
Y114311D02*
X452313Y114737D01*
Y113885D01*
X453051Y114311D01*
X471161Y220059D02*
X470423Y220485D01*
Y219633D01*
X471161Y220059D01*
X696063Y111752D02*
X695325Y112178D01*
Y111326D01*
X696063Y111752D01*
Y249547D02*
X695325Y249973D01*
Y249121D01*
X696063Y249547D01*
X577953Y111752D02*
X577215Y112178D01*
Y111326D01*
X577953Y111752D01*
X577953Y249547D02*
X577215Y249973D01*
Y249121D01*
X577953Y249547D01*
X319803Y120276D02*
X319065Y120702D01*
Y119849D01*
X319803Y120276D01*
X394193Y173819D02*
X393455Y174245D01*
Y173393D01*
X394193Y173819D01*
X230762Y86395D02*
X230024Y86822D01*
Y85969D01*
X230762Y86395D01*
X230852Y81479D02*
X230114Y81905D01*
Y81053D01*
X230852Y81479D01*
X195866Y81890D02*
X195128Y82316D01*
Y81464D01*
X195866Y81890D01*
X220177Y116811D02*
X219439Y117237D01*
Y116385D01*
X220177Y116811D01*
X99242Y247909D02*
X98504Y248335D01*
Y247483D01*
X99242Y247909D01*
X156890Y240886D02*
X156152Y241312D01*
Y240460D01*
X156890Y240886D01*
D11*
X461811Y224213D02*
X461366Y225136D01*
X460367Y225364D01*
X459566Y224725D01*
Y223700D01*
X460367Y223061D01*
X461366Y223289D01*
X461811Y224213D01*
X686811Y110236D02*
X686366Y111160D01*
X685367Y111388D01*
X684566Y110749D01*
Y109724D01*
X685367Y109085D01*
X686366Y109313D01*
X686811Y110236D01*
Y248031D02*
X686366Y248955D01*
X685367Y249183D01*
X684566Y248544D01*
Y247519D01*
X685367Y246880D01*
X686366Y247108D01*
X686811Y248031D01*
X568701Y110236D02*
X568256Y111160D01*
X567257Y111388D01*
X566456Y110749D01*
Y109724D01*
X567257Y109085D01*
X568256Y109313D01*
X568701Y110236D01*
X568701Y248031D02*
X568256Y248955D01*
X567257Y249183D01*
X566456Y248544D01*
Y247519D01*
X567257Y246880D01*
X568256Y247108D01*
X568701Y248031D01*
X316339Y110236D02*
X315894Y111160D01*
X314895Y111388D01*
X314093Y110749D01*
Y109724D01*
X314895Y109085D01*
X315894Y109313D01*
X316339Y110236D01*
D12*
X79331Y196161D02*
X78341Y196108D01*
X77363Y195947D01*
X76408Y195682D01*
X75487Y195315D01*
X74612Y194851D01*
X73791Y194295D01*
X73036Y193653D01*
X72354Y192934D01*
X71754Y192145D01*
X71243Y191296D01*
X70827Y190396D01*
X70511Y189457D01*
X70298Y188489D01*
X70191Y187503D01*
Y186512D01*
X70298Y185527D01*
X70511Y184559D01*
X70827Y183620D01*
X71243Y182720D01*
X71754Y181871D01*
X72354Y181082D01*
X73036Y180362D01*
X73791Y179721D01*
X74612Y179165D01*
X75487Y178700D01*
X76408Y178333D01*
X77363Y178068D01*
X78341Y177908D01*
X79331Y177854D01*
X105709D02*
X106698Y177908D01*
X107676Y178068D01*
X108631Y178333D01*
X109552Y178700D01*
X110428Y179165D01*
X111248Y179721D01*
X112004Y180362D01*
X112685Y181082D01*
X113285Y181871D01*
X113796Y182720D01*
X114212Y183620D01*
X114529Y184559D01*
X114742Y185527D01*
X114849Y186512D01*
X114849Y187504D01*
X114742Y188489D01*
X114529Y189457D01*
X114212Y190396D01*
X113796Y191296D01*
X113285Y192145D01*
X112685Y192934D01*
X112004Y193653D01*
X111248Y194295D01*
X110428Y194851D01*
X109552Y195315D01*
X108631Y195682D01*
X107676Y195947D01*
X106698Y196108D01*
X105709Y196161D01*
X-6889Y181339D02*
X-6558Y180478D01*
X-5709Y180118D01*
Y130905D02*
X-6558Y130545D01*
X-6889Y129685D01*
X30453Y192618D02*
Y228642D01*
X15315Y192618D02*
X17598D01*
X30000D02*
X30453D01*
X15315Y228642D02*
X17598D01*
X30000D02*
X30453D01*
X197047Y25984D02*
X218701D01*
Y35039D01*
Y43701D02*
Y52756D01*
X197047D02*
X218701D01*
X191929Y31102D02*
Y35039D01*
Y31102D02*
X197047Y25984D01*
X191929Y47638D02*
X197047Y52756D01*
X191929Y43701D02*
Y47638D01*
X763130Y258937D02*
Y280433D01*
X752618Y258937D02*
X763130D01*
X752618D02*
Y280433D01*
X763130D01*
X464567Y144232D02*
Y170728D01*
X401575Y144232D02*
Y170728D01*
X464567D01*
X401575Y144232D02*
X464567D01*
Y61555D02*
Y88051D01*
X401575Y61555D02*
Y88051D01*
X464567D01*
X401575Y61555D02*
X464567D01*
Y89114D02*
Y115610D01*
X401575Y89114D02*
Y115610D01*
X464567D01*
X401575Y89114D02*
X464567D01*
Y116673D02*
Y143169D01*
X401575Y116673D02*
Y143169D01*
X464567D01*
X401575Y116673D02*
X464567D01*
X468307Y305020D02*
X469095D01*
X468307Y309154D02*
X469095D01*
Y301673D02*
X469882D01*
X469095Y296752D02*
X469882D01*
X449016Y305020D02*
X449803D01*
X449016Y309154D02*
X449803D01*
Y301673D02*
X450591D01*
X449803Y296752D02*
X450591D01*
X431299Y309154D02*
X432087D01*
X431299Y305020D02*
X432087D01*
X430512Y296752D02*
X431299D01*
X430512Y301673D02*
X431299D01*
X425689Y276949D02*
Y277736D01*
X420768Y276949D02*
Y277736D01*
X477937Y254526D02*
Y265779D01*
X486630Y254526D02*
Y265779D01*
X712894Y138917D02*
Y147579D01*
X704429Y138917D02*
Y147579D01*
X594783Y138917D02*
Y147579D01*
X586319Y138917D02*
Y147579D01*
X712894Y276713D02*
Y285374D01*
X704429Y276713D02*
Y285374D01*
X594783Y276772D02*
Y285433D01*
X586319Y276772D02*
Y285433D01*
X440945Y291535D02*
X464567D01*
X440945Y220276D02*
X464567D01*
X440945D02*
Y291535D01*
X464567Y220276D02*
Y291535D01*
X705512Y112205D02*
Y116142D01*
X711811Y112205D02*
Y116142D01*
X626772Y112205D02*
Y116142D01*
X633071Y112205D02*
Y116142D01*
X634154Y153917D02*
Y162579D01*
X625689Y153917D02*
Y162579D01*
X705512Y250000D02*
Y253937D01*
X711811Y250000D02*
Y253937D01*
X626772Y250000D02*
Y253937D01*
X633071Y250000D02*
Y253937D01*
X634154Y291732D02*
Y300394D01*
X625689Y291732D02*
Y300394D01*
X689567Y106299D02*
Y169291D01*
X649016Y106299D02*
Y169291D01*
X689567Y244094D02*
Y307087D01*
X649016Y244094D02*
Y307087D01*
X571457Y106299D02*
Y169291D01*
X530906Y106299D02*
Y169291D01*
X571457Y244094D02*
Y307087D01*
X530905Y244094D02*
Y307087D01*
X263287Y42913D02*
Y43701D01*
X268209Y42913D02*
Y43701D01*
X253445Y42913D02*
Y43701D01*
X258366Y42913D02*
Y43701D01*
X514961Y112205D02*
Y116142D01*
X508661Y112205D02*
Y116142D01*
X593701Y112205D02*
Y116142D01*
X587402Y112205D02*
Y116142D01*
X593701Y250000D02*
Y253937D01*
X587402Y250000D02*
Y253937D01*
X514961Y250000D02*
Y253937D01*
X508661Y250000D02*
Y253937D01*
X513418Y64413D02*
Y69413D01*
X510918Y66913D02*
X513418Y69413D01*
X510918Y66913D02*
X513418Y64413D01*
X510918D02*
Y69413D01*
X503346Y71646D02*
Y71850D01*
Y81693D02*
Y81898D01*
Y71644D02*
X520276D01*
X503346Y81900D02*
X520276D01*
Y71646D02*
Y71850D01*
Y81693D02*
Y81898D01*
X507579Y153917D02*
Y162579D01*
X516043Y153917D02*
Y162579D01*
X507579Y291732D02*
Y300394D01*
X516043Y291732D02*
Y300394D01*
X552788Y64413D02*
Y69413D01*
X550288Y66913D02*
X552788Y69413D01*
X550288Y66913D02*
X552788Y64413D01*
X550288D02*
Y69413D01*
X542717Y71646D02*
Y71850D01*
Y81693D02*
Y81898D01*
Y71644D02*
X559646D01*
X542717Y81900D02*
X559646D01*
Y71646D02*
Y71850D01*
Y81693D02*
Y81898D01*
X549575Y97909D02*
Y102909D01*
Y97909D02*
X552074Y100409D01*
X549575Y102909D02*
X552074Y100409D01*
Y97909D02*
Y102909D01*
X559646Y95472D02*
Y95677D01*
Y85425D02*
Y85630D01*
X542717Y95679D02*
X559646D01*
X542717Y85423D02*
X559646D01*
X542717Y95472D02*
Y95677D01*
Y85425D02*
Y85630D01*
X510204Y97909D02*
Y102909D01*
Y97909D02*
X512704Y100409D01*
X510204Y102909D02*
X512704Y100409D01*
Y97909D02*
Y102909D01*
X520276Y95472D02*
Y95677D01*
Y85425D02*
Y85630D01*
X503346Y95679D02*
X520276D01*
X503346Y85423D02*
X520276D01*
X503346Y95472D02*
Y95677D01*
Y85425D02*
Y85630D01*
X552788Y202209D02*
Y207209D01*
X550288Y204709D02*
X552788Y207209D01*
X550288Y204709D02*
X552788Y202209D01*
X550288D02*
Y207209D01*
X542717Y209441D02*
Y209646D01*
Y219488D02*
Y219693D01*
Y209439D02*
X559646D01*
X542717Y219695D02*
X559646D01*
Y209441D02*
Y209646D01*
Y219488D02*
Y219693D01*
X513418Y202209D02*
Y207209D01*
X510918Y204709D02*
X513418Y207209D01*
X510918Y204709D02*
X513418Y202209D01*
X510918D02*
Y207209D01*
X503346Y209441D02*
Y209646D01*
Y219488D02*
Y219693D01*
Y209439D02*
X520276D01*
X503346Y219695D02*
X520276D01*
Y209441D02*
Y209646D01*
Y219488D02*
Y219693D01*
X549575Y235705D02*
Y240705D01*
Y235705D02*
X552074Y238205D01*
X549575Y240705D02*
X552074Y238205D01*
Y235705D02*
Y240705D01*
X559646Y233268D02*
Y233472D01*
Y223220D02*
Y223425D01*
X542717Y233474D02*
X559646D01*
X542717Y223218D02*
X559646D01*
X542717Y233268D02*
Y233472D01*
Y223220D02*
Y223425D01*
X510204Y235705D02*
Y240705D01*
Y235705D02*
X512704Y238205D01*
X510204Y240705D02*
X512704Y238205D01*
Y235705D02*
Y240705D01*
X520276Y233268D02*
Y233472D01*
Y223220D02*
Y223425D01*
X503346Y233474D02*
X520276D01*
X503346Y223218D02*
X520276D01*
X503346Y233268D02*
Y233472D01*
Y223220D02*
Y223425D01*
X244587Y101969D02*
Y102756D01*
X239665Y101969D02*
Y102756D01*
X267011Y136237D02*
X278264D01*
X267011Y127543D02*
X278264D01*
X247835Y114173D02*
X319094D01*
X247835Y90551D02*
X319094D01*
Y114173D01*
X247835Y90551D02*
Y114173D01*
X361221Y176181D02*
Y264764D01*
X426181D01*
Y176181D02*
Y264764D01*
X361221Y176181D02*
X426181D01*
X358957Y203445D02*
Y220177D01*
X351673D02*
X358957D01*
X351673Y203445D02*
X358957D01*
X351673D02*
Y220177D01*
X383071Y273524D02*
X383858D01*
X383071Y268602D02*
X383858D01*
X403937Y268504D02*
Y273622D01*
X399606D02*
X403937D01*
X399606Y268504D02*
X403937D01*
X227658Y91220D02*
Y98307D01*
X232854D02*
X232972D01*
X227658D02*
X227776D01*
X232972Y91220D02*
Y98307D01*
X232854Y91220D02*
X232972D01*
X227658D02*
X227776D01*
X208268Y90158D02*
Y94095D01*
X203150Y85039D02*
X208268Y90158D01*
X203150Y111811D02*
X208268Y106693D01*
Y102756D02*
Y106693D01*
X181496Y85039D02*
X203150D01*
X181496D02*
Y94095D01*
Y102756D02*
Y111811D01*
X203150D01*
X232972Y69567D02*
Y76654D01*
X227658Y69567D02*
X227776D01*
X232854D02*
X232972D01*
X227658D02*
Y76654D01*
X227776D01*
X232854D02*
X232972D01*
X199409Y55709D02*
X215551D01*
X199409Y82087D02*
X215551D01*
Y55709D02*
Y82087D01*
X199409Y55709D02*
Y82087D01*
X102067Y117717D02*
Y118504D01*
X106595Y117717D02*
Y118504D01*
X120177Y60433D02*
Y61614D01*
X114469Y60433D02*
Y61614D01*
X138287Y121653D02*
Y122441D01*
X133366Y121653D02*
Y122441D01*
X128445Y121653D02*
Y122441D01*
X123524Y121653D02*
Y122441D01*
X118602Y121653D02*
Y122441D01*
X113681Y121653D02*
Y122441D01*
X161024Y79724D02*
Y99410D01*
X173622Y79724D02*
Y99410D01*
X161024Y79724D02*
X161221D01*
X173425Y99410D02*
X173622D01*
X173425Y79724D02*
X173622D01*
X161024Y99410D02*
X161221D01*
X151279Y68874D02*
Y78370D01*
X159744Y68874D02*
Y78370D01*
X72232Y124299D02*
X85248D01*
X72232Y133575D02*
X85248D01*
X114764Y200394D02*
X115256D01*
X124902D02*
X125394D01*
Y212992D01*
X114764D02*
X115256D01*
X124902D02*
X125394D01*
X114764Y200394D02*
Y212992D01*
X134449Y200394D02*
X134941D01*
X144587D02*
X145079D01*
Y212992D01*
X134449D02*
X134941D01*
X144587D02*
X145079D01*
X134449Y200394D02*
Y212992D01*
X38976Y188681D02*
X47638D01*
X38976Y197146D02*
X47638D01*
X38976Y198524D02*
X47638D01*
X38976Y206988D02*
X47638D01*
X114764Y139370D02*
X115256D01*
X124902D02*
X125394D01*
Y151969D01*
X114764D02*
X115256D01*
X124902D02*
X125394D01*
X114764Y139370D02*
Y151969D01*
Y159055D02*
X115256D01*
X124902D02*
X125394D01*
Y171653D01*
X114764D02*
X115256D01*
X124902D02*
X125394D01*
X114764Y159055D02*
Y171653D01*
X79331Y177854D02*
X105709D01*
X79331Y196161D02*
X105709D01*
X245669Y247933D02*
X246457D01*
X245669Y252067D02*
X246457D01*
X245669Y255807D02*
X246457D01*
X245669Y259941D02*
X246457D01*
X230020Y137402D02*
Y146063D01*
X238484Y137402D02*
Y146063D01*
X238484Y113779D02*
Y122441D01*
X230020Y113779D02*
Y122441D01*
X210433Y116929D02*
Y142913D01*
X209449D02*
X210433D01*
X209449Y116929D02*
X210433D01*
X143701Y251378D02*
Y256496D01*
X139370D02*
X143701D01*
X139370Y251378D02*
X143701D01*
Y259252D02*
Y264370D01*
X139370D02*
X143701D01*
X139370Y259252D02*
X143701D01*
X217224Y94095D02*
Y94882D01*
X222146Y94095D02*
Y94882D01*
X130659Y231496D02*
X132283D01*
X130659Y225197D02*
X132283D01*
X132283Y230622D02*
Y231496D01*
Y225197D02*
Y226071D01*
X130659Y241732D02*
X132283D01*
X130659Y235433D02*
X132283D01*
X132283Y240858D02*
Y241732D01*
Y235433D02*
Y236307D01*
X80709Y255315D02*
Y256496D01*
X84646Y255315D02*
Y256496D01*
X80709Y255315D02*
X84646D01*
X68898D02*
Y256496D01*
X72835Y255315D02*
Y256496D01*
X68898Y255315D02*
X72835D01*
X82284Y214862D02*
X90945D01*
X82284Y206398D02*
X90945D01*
X55512Y258957D02*
X56693D01*
X55512Y264665D02*
X56693D01*
X51772Y247736D02*
X60433D01*
X51772Y256201D02*
X60433D01*
X104798Y223449D02*
Y239149D01*
X70398Y223449D02*
X74085D01*
X101112D02*
X104798D01*
X70398D02*
Y239149D01*
X74085D01*
X101112D02*
X104798D01*
X53268Y226894D02*
Y235516D01*
X64842Y226894D02*
Y235516D01*
X43701Y219570D02*
Y229248D01*
X35039Y219570D02*
Y229248D01*
X-5709Y179724D02*
X-5709Y180118D01*
X-6890Y179724D02*
X-5709D01*
Y131299D02*
X-5709Y130905D01*
X-6890Y131299D02*
X-5709D01*
X-6890D02*
Y179724D01*
X-5709Y181299D02*
Y184055D01*
X-6890D02*
X-5709D01*
X-6890D02*
X-6889Y181339D01*
X-6890Y126969D02*
X-6889Y129685D01*
X-6890Y126969D02*
X-5709D01*
Y129724D01*
X60039Y136417D02*
Y174606D01*
X-5709Y181299D02*
X25591D01*
X41575D02*
X47835D01*
X41575Y129724D02*
X47835D01*
X-5709D02*
X25591D01*
X-7047Y57815D02*
X41874D01*
X53008D02*
X77953D01*
X53008Y121319D02*
X77953D01*
X-7047D02*
X41874D01*
X-7047Y57815D02*
Y121319D01*
X77953Y57815D02*
Y121319D01*
X161221Y270866D02*
X232480D01*
Y170079D02*
Y172933D01*
Y244429D02*
Y270866D01*
X161221Y170079D02*
X171102D01*
X222598D02*
X232480D01*
X161221D02*
Y172933D01*
Y244429D02*
Y270866D01*
D13*
X128358Y232591D02*
D03*
Y242827D02*
D03*
D14*
X98078Y103347D02*
X97418Y103728D01*
Y102965D01*
X98078Y103347D01*
X113432Y141732D02*
X112772Y142113D01*
Y141351D01*
X113432Y141732D01*
X257874Y271654D02*
X348425D01*
X257874Y173228D02*
X348425D01*
X257874D02*
Y271654D01*
X348425Y173228D02*
Y271654D01*
X100394Y101772D02*
Y107283D01*
X105905D01*
X100394Y71850D02*
X105905D01*
X100394D02*
Y77362D01*
X135827Y71850D02*
Y77362D01*
X130315Y71850D02*
X135827D01*
X130315Y107283D02*
X135827D01*
Y101772D02*
Y107283D01*
X110236Y137795D02*
Y143307D01*
X104724Y137795D02*
X110236D01*
X104724Y173228D02*
X110236D01*
Y167717D02*
Y173228D01*
X74803Y167717D02*
Y173228D01*
X80315D01*
X74803Y137795D02*
X80315D01*
X74803D02*
Y143307D01*
X12749Y196634D02*
X17747D01*
X18747Y197634D01*
Y199634D01*
X17747Y200633D01*
X12749D01*
X13749Y206631D02*
X12749Y205631D01*
Y203632D01*
X13749Y202632D01*
X14748D01*
X15748Y203632D01*
Y205631D01*
X16748Y206631D01*
X17747D01*
X18747Y205631D01*
Y203632D01*
X17747Y202632D01*
X12749Y208631D02*
X18747D01*
Y211630D01*
X17747Y212629D01*
X16748D01*
X15748Y211630D01*
Y208631D01*
Y211630D01*
X14748Y212629D01*
X13749D01*
X12749Y211630D01*
Y208631D01*
X15748Y214629D02*
Y218627D01*
X13749Y224625D02*
X12749Y223626D01*
Y221626D01*
X13749Y220627D01*
X17747D01*
X18747Y221626D01*
Y223626D01*
X17747Y224625D01*
X319747Y249093D02*
X318747Y250093D01*
X316748D01*
X315748Y249093D01*
Y245094D01*
X316748Y244094D01*
X318747D01*
X319747Y245094D01*
Y247094D01*
X317747D01*
X321746Y244094D02*
Y250093D01*
X325745Y244094D01*
Y250093D01*
X327744D02*
Y244094D01*
X330743D01*
X331743Y245094D01*
Y249093D01*
X330743Y250093D01*
X327744D01*
X315748Y239093D02*
X316748Y240092D01*
X318747D01*
X319747Y239093D01*
Y238093D01*
X318747Y237093D01*
X317747D01*
X318747D01*
X319747Y236094D01*
Y235094D01*
X318747Y234095D01*
X316748D01*
X315748Y235094D01*
X321746Y240092D02*
Y236094D01*
X323745Y234095D01*
X325745Y236094D01*
Y240092D01*
X327744Y239093D02*
X328744Y240092D01*
X330743D01*
X331743Y239093D01*
Y238093D01*
X330743Y237093D01*
X329744D01*
X330743D01*
X331743Y236094D01*
Y235094D01*
X330743Y234095D01*
X328744D01*
X327744Y235094D01*
X315748Y229408D02*
X316748Y230408D01*
X318747D01*
X319747Y229408D01*
Y228408D01*
X318747Y227409D01*
X317747D01*
X318747D01*
X319747Y226409D01*
Y225409D01*
X318747Y224410D01*
X316748D01*
X315748Y225409D01*
X321746Y230408D02*
Y226409D01*
X323745Y224410D01*
X325745Y226409D01*
Y230408D01*
X327744Y229408D02*
X328744Y230408D01*
X330743D01*
X331743Y229408D01*
Y228408D01*
X330743Y227409D01*
X329744D01*
X330743D01*
X331743Y226409D01*
Y225409D01*
X330743Y224410D01*
X328744D01*
X327744Y225409D01*
X316535Y213976D02*
Y219974D01*
X320534Y213976D01*
Y219974D01*
X326532Y218975D02*
X325533Y219974D01*
X323533D01*
X322533Y218975D01*
Y214976D01*
X323533Y213976D01*
X325533D01*
X326532Y214976D01*
X316535Y204331D02*
Y210329D01*
X319534D01*
X320534Y209329D01*
Y207330D01*
X319534Y206330D01*
X316535D01*
X318535D02*
X320534Y204331D01*
X326532Y209329D02*
X325533Y210329D01*
X323533D01*
X322533Y209329D01*
Y208329D01*
X323533Y207330D01*
X325533D01*
X326532Y206330D01*
Y205330D01*
X325533Y204331D01*
X323533D01*
X322533Y205330D01*
X328532Y210329D02*
X332530D01*
X330531D01*
Y204331D01*
X316535Y194488D02*
Y200486D01*
X318535Y198487D01*
X320534Y200486D01*
Y194488D01*
X322533Y200486D02*
X324533D01*
X323533D01*
Y194488D01*
X322533D01*
X324533D01*
X331531Y199487D02*
X330531Y200486D01*
X328532D01*
X327532Y199487D01*
Y198487D01*
X328532Y197487D01*
X330531D01*
X331531Y196487D01*
Y195488D01*
X330531Y194488D01*
X328532D01*
X327532Y195488D01*
X336529Y200486D02*
X334530D01*
X333530Y199487D01*
Y195488D01*
X334530Y194488D01*
X336529D01*
X337529Y195488D01*
Y199487D01*
X336529Y200486D01*
X274410Y200683D02*
X276409D01*
X275409D01*
Y194685D01*
X274410D01*
X276409D01*
X279408D02*
Y200683D01*
X283407Y194685D01*
Y200683D01*
X285406D02*
X289405D01*
X287405D01*
Y194685D01*
X278408Y209683D02*
X277409Y210683D01*
X275409D01*
X274410Y209683D01*
Y205685D01*
X275409Y204685D01*
X277409D01*
X278408Y205685D01*
X284406Y209683D02*
X283407Y210683D01*
X281407D01*
X280408Y209683D01*
Y208684D01*
X281407Y207684D01*
X283407D01*
X284406Y206684D01*
Y205685D01*
X283407Y204685D01*
X281407D01*
X280408Y205685D01*
X272503Y219762D02*
X271503Y220762D01*
X269504D01*
X268504Y219762D01*
Y218762D01*
X269504Y217763D01*
X271503D01*
X272503Y216763D01*
Y215763D01*
X271503Y214764D01*
X269504D01*
X268504Y215763D01*
X278501Y219762D02*
X277501Y220762D01*
X275502D01*
X274502Y219762D01*
Y215763D01*
X275502Y214764D01*
X277501D01*
X278501Y215763D01*
X280500Y220762D02*
Y214764D01*
X284499D01*
X286498Y220762D02*
Y214764D01*
Y216763D01*
X290497Y220762D01*
X287498Y217763D01*
X290497Y214764D01*
X270079Y224606D02*
Y230604D01*
X272078Y228605D01*
X274078Y230604D01*
Y224606D01*
X279076Y230604D02*
X277077D01*
X276077Y229605D01*
Y225606D01*
X277077Y224606D01*
X279076D01*
X280076Y225606D01*
Y229605D01*
X279076Y230604D01*
X286074Y229605D02*
X285074Y230604D01*
X283074D01*
X282075Y229605D01*
Y228605D01*
X283074Y227605D01*
X285074D01*
X286074Y226606D01*
Y225606D01*
X285074Y224606D01*
X283074D01*
X282075Y225606D01*
X288073Y230604D02*
X290072D01*
X289073D01*
Y224606D01*
X288073D01*
X290072D01*
X278408Y239683D02*
X277409Y240683D01*
X275409D01*
X274410Y239683D01*
Y235685D01*
X275409Y234685D01*
X277409D01*
X278408Y235685D01*
Y237684D01*
X276409D01*
X280408Y234685D02*
Y240683D01*
X284406Y234685D01*
Y240683D01*
X286406D02*
Y234685D01*
X289405D01*
X290404Y235685D01*
Y239683D01*
X289405Y240683D01*
X286406D01*
X278408Y249683D02*
X277409Y250683D01*
X275409D01*
X274410Y249683D01*
Y245685D01*
X275409Y244685D01*
X277409D01*
X278408Y245685D01*
Y247684D01*
X276409D01*
X280408Y244685D02*
Y250683D01*
X284406Y244685D01*
Y250683D01*
X286406D02*
Y244685D01*
X289405D01*
X290404Y245685D01*
Y249683D01*
X289405Y250683D01*
X286406D01*
X275394Y269581D02*
Y263583D01*
X278393D01*
X279392Y264582D01*
Y265582D01*
X278393Y266582D01*
X275394D01*
X278393D01*
X279392Y267581D01*
Y268581D01*
X278393Y269581D01*
X275394D01*
X284391D02*
X282391D01*
X281392Y268581D01*
Y264582D01*
X282391Y263583D01*
X284391D01*
X285390Y264582D01*
Y268581D01*
X284391Y269581D01*
X287390Y263583D02*
Y267581D01*
X289389Y269581D01*
X291389Y267581D01*
Y263583D01*
Y266582D01*
X287390D01*
X293388Y263583D02*
Y269581D01*
X296387D01*
X297387Y268581D01*
Y266582D01*
X296387Y265582D01*
X293388D01*
X295387D02*
X297387Y263583D01*
X299386Y269581D02*
Y263583D01*
X302385D01*
X303385Y264582D01*
Y268581D01*
X302385Y269581D01*
X299386D01*
X315381D02*
X311382D01*
Y263583D01*
X315381D01*
X311382Y266582D02*
X313381D01*
X317380Y269581D02*
Y263583D01*
X320379D01*
X321379Y264582D01*
Y268581D01*
X320379Y269581D01*
X317380D01*
X327377Y268581D02*
X326377Y269581D01*
X324378D01*
X323378Y268581D01*
Y264582D01*
X324378Y263583D01*
X326377D01*
X327377Y264582D01*
Y266582D01*
X325377D01*
X333375Y269581D02*
X329376D01*
Y263583D01*
X333375D01*
X329376Y266582D02*
X331376D01*
X457754Y253103D02*
Y258102D01*
X456755Y259101D01*
X454755D01*
X453756Y258102D01*
Y253103D01*
X447757D02*
X451756D01*
Y256102D01*
X449757Y255103D01*
X448757D01*
X447757Y256102D01*
Y258102D01*
X448757Y259101D01*
X450757D01*
X451756Y258102D01*
X650269Y175524D02*
Y171589D01*
X652892D01*
X656828D02*
X654204D01*
X656828Y174212D01*
Y174868D01*
X656172Y175524D01*
X654860D01*
X654204Y174868D01*
X658140Y172244D02*
X658796Y171589D01*
X660108D01*
X660764Y172244D01*
Y174868D01*
X660108Y175524D01*
X658796D01*
X658140Y174868D01*
Y174212D01*
X658796Y173556D01*
X660764D01*
X662076Y174868D02*
X662732Y175524D01*
X664044D01*
X664700Y174868D01*
Y174212D01*
X664044Y173556D01*
X664700Y172900D01*
Y172244D01*
X664044Y171589D01*
X662732D01*
X662076Y172244D01*
Y172900D01*
X662732Y173556D01*
X662076Y174212D01*
Y174868D01*
X662732Y173556D02*
X664044D01*
X666012Y171589D02*
Y175524D01*
X667979D01*
X668635Y174868D01*
Y173556D01*
X667979Y172900D01*
X666012D01*
X669947Y170932D02*
X672571D01*
X673883Y171589D02*
Y175524D01*
X675195Y174212D01*
X676507Y175524D01*
Y171589D01*
X677819Y174868D02*
X678475Y175524D01*
X679787D01*
X680443Y174868D01*
Y174212D01*
X679787Y173556D01*
X679131D01*
X679787D01*
X680443Y172900D01*
Y172244D01*
X679787Y171589D01*
X678475D01*
X677819Y172244D01*
X681755Y170932D02*
X684378D01*
X688314Y171589D02*
X685690D01*
X688314Y174212D01*
Y174868D01*
X687658Y175524D01*
X686346D01*
X685690Y174868D01*
X650269Y313319D02*
Y309384D01*
X652892D01*
X656828D02*
X654204D01*
X656828Y312007D01*
Y312664D01*
X656172Y313319D01*
X654860D01*
X654204Y312664D01*
X658140Y310040D02*
X658796Y309384D01*
X660108D01*
X660764Y310040D01*
Y312664D01*
X660108Y313319D01*
X658796D01*
X658140Y312664D01*
Y312007D01*
X658796Y311352D01*
X660764D01*
X662076Y312664D02*
X662732Y313319D01*
X664044D01*
X664700Y312664D01*
Y312007D01*
X664044Y311352D01*
X664700Y310696D01*
Y310040D01*
X664044Y309384D01*
X662732D01*
X662076Y310040D01*
Y310696D01*
X662732Y311352D01*
X662076Y312007D01*
Y312664D01*
X662732Y311352D02*
X664044D01*
X666012Y309384D02*
Y313319D01*
X667979D01*
X668635Y312664D01*
Y311352D01*
X667979Y310696D01*
X666012D01*
X669947Y308728D02*
X672571D01*
X673883Y309384D02*
Y313319D01*
X675195Y312007D01*
X676507Y313319D01*
Y309384D01*
X680443D02*
X677819D01*
X680443Y312007D01*
Y312664D01*
X679787Y313319D01*
X678475D01*
X677819Y312664D01*
X681754Y308728D02*
X684378D01*
X688314Y309384D02*
X685690D01*
X688314Y312007D01*
Y312664D01*
X687658Y313319D01*
X686346D01*
X685690Y312664D01*
X532814Y175524D02*
Y171589D01*
X535438D01*
X539374D02*
X536750D01*
X539374Y174212D01*
Y174868D01*
X538718Y175524D01*
X537406D01*
X536750Y174868D01*
X540686Y172244D02*
X541342Y171589D01*
X542654D01*
X543310Y172244D01*
Y174868D01*
X542654Y175524D01*
X541342D01*
X540686Y174868D01*
Y174212D01*
X541342Y173556D01*
X543310D01*
X544622Y174868D02*
X545278Y175524D01*
X546590D01*
X547245Y174868D01*
Y174212D01*
X546590Y173556D01*
X547245Y172900D01*
Y172244D01*
X546590Y171589D01*
X545278D01*
X544622Y172244D01*
Y172900D01*
X545278Y173556D01*
X544622Y174212D01*
Y174868D01*
X545278Y173556D02*
X546590D01*
X548557Y171589D02*
Y175524D01*
X550525D01*
X551181Y174868D01*
Y173556D01*
X550525Y172900D01*
X548557D01*
X552493Y170932D02*
X555117D01*
X556429Y171589D02*
Y175524D01*
X557741Y174212D01*
X559053Y175524D01*
Y171589D01*
X560364Y174868D02*
X561021Y175524D01*
X562332D01*
X562988Y174868D01*
Y174212D01*
X562332Y173556D01*
X561677D01*
X562332D01*
X562988Y172900D01*
Y172244D01*
X562332Y171589D01*
X561021D01*
X560364Y172244D01*
X564300Y170932D02*
X566924D01*
X568236Y171589D02*
X569548D01*
X568892D01*
Y175524D01*
X568236Y174868D01*
X532814Y313319D02*
Y309384D01*
X535438D01*
X539374D02*
X536750D01*
X539374Y312007D01*
Y312664D01*
X538718Y313319D01*
X537406D01*
X536750Y312664D01*
X540686Y310040D02*
X541342Y309384D01*
X542654D01*
X543310Y310040D01*
Y312664D01*
X542654Y313319D01*
X541342D01*
X540686Y312664D01*
Y312007D01*
X541342Y311352D01*
X543310D01*
X544622Y312664D02*
X545278Y313319D01*
X546589D01*
X547245Y312664D01*
Y312007D01*
X546589Y311352D01*
X547245Y310696D01*
Y310040D01*
X546589Y309384D01*
X545278D01*
X544622Y310040D01*
Y310696D01*
X545278Y311352D01*
X544622Y312007D01*
Y312664D01*
X545278Y311352D02*
X546589D01*
X548557Y309384D02*
Y313319D01*
X550525D01*
X551181Y312664D01*
Y311352D01*
X550525Y310696D01*
X548557D01*
X552493Y308728D02*
X555117D01*
X556429Y309384D02*
Y313319D01*
X557741Y312007D01*
X559053Y313319D01*
Y309384D01*
X562988D02*
X560364D01*
X562988Y312007D01*
Y312664D01*
X562332Y313319D01*
X561021D01*
X560364Y312664D01*
X564300Y308728D02*
X566924D01*
X568236Y309384D02*
X569548D01*
X568892D01*
Y313319D01*
X568236Y312664D01*
X396260Y65554D02*
Y63193D01*
X398031D01*
Y64373D01*
Y63193D01*
X399803D01*
X396260Y66735D02*
X399212D01*
X399803Y67325D01*
Y68506D01*
X399212Y69096D01*
X396260D01*
X396851Y72639D02*
X396260Y72048D01*
Y70868D01*
X396851Y70277D01*
X397441D01*
X398031Y70868D01*
Y72048D01*
X398622Y72639D01*
X399212D01*
X399803Y72048D01*
Y70868D01*
X399212Y70277D01*
X396260Y76181D02*
Y73819D01*
X399803D01*
Y76181D01*
X398031Y73819D02*
Y75000D01*
Y77361D02*
Y79723D01*
X399803Y80904D02*
X396260D01*
X397441Y82084D01*
X396260Y83265D01*
X399803D01*
Y86217D02*
X396260D01*
X398031Y84446D01*
Y86807D01*
X396064Y92326D02*
Y89964D01*
X397835D01*
Y91145D01*
Y89964D01*
X399606D01*
X396064Y93507D02*
X399015D01*
X399606Y94097D01*
Y95278D01*
X399015Y95868D01*
X396064D01*
X396654Y99410D02*
X396064Y98820D01*
Y97639D01*
X396654Y97049D01*
X397244D01*
X397835Y97639D01*
Y98820D01*
X398425Y99410D01*
X399015D01*
X399606Y98820D01*
Y97639D01*
X399015Y97049D01*
X396064Y102952D02*
Y100591D01*
X399606D01*
Y102952D01*
X397835Y100591D02*
Y101772D01*
Y104133D02*
Y106494D01*
X399606Y107675D02*
X396064D01*
X397244Y108856D01*
X396064Y110037D01*
X399606D01*
X396654Y111217D02*
X396064Y111808D01*
Y112988D01*
X396654Y113579D01*
X397244D01*
X397835Y112988D01*
Y112398D01*
Y112988D01*
X398425Y113579D01*
X399015D01*
X399606Y112988D01*
Y111808D01*
X399015Y111217D01*
X396064Y120279D02*
Y117917D01*
X397835D01*
Y119098D01*
Y117917D01*
X399606D01*
X396064Y121459D02*
X399015D01*
X399606Y122050D01*
Y123230D01*
X399015Y123821D01*
X396064D01*
X396654Y127363D02*
X396064Y126773D01*
Y125592D01*
X396654Y125002D01*
X397244D01*
X397835Y125592D01*
Y126773D01*
X398425Y127363D01*
X399015D01*
X399606Y126773D01*
Y125592D01*
X399015Y125002D01*
X396064Y130905D02*
Y128544D01*
X399606D01*
Y130905D01*
X397835Y128544D02*
Y129724D01*
Y132086D02*
Y134447D01*
X399606Y135628D02*
X396064D01*
X397244Y136809D01*
X396064Y137989D01*
X399606D01*
Y141532D02*
Y139170D01*
X397244Y141532D01*
X396654D01*
X396064Y140941D01*
Y139760D01*
X396654Y139170D01*
X395670Y149215D02*
Y146854D01*
X397441D01*
Y148035D01*
Y146854D01*
X399212D01*
X395670Y150396D02*
X398622D01*
X399212Y150987D01*
Y152167D01*
X398622Y152758D01*
X395670D01*
X396260Y156300D02*
X395670Y155709D01*
Y154529D01*
X396260Y153938D01*
X396851D01*
X397441Y154529D01*
Y155709D01*
X398031Y156300D01*
X398622D01*
X399212Y155709D01*
Y154529D01*
X398622Y153938D01*
X395670Y159842D02*
Y157481D01*
X399212D01*
Y159842D01*
X397441Y157481D02*
Y158661D01*
Y161023D02*
Y163384D01*
X399212Y164565D02*
X395670D01*
X396851Y165745D01*
X395670Y166926D01*
X399212D01*
Y168107D02*
Y169288D01*
Y168697D01*
X395670D01*
X396260Y168107D01*
X300044Y183909D02*
X306043D01*
X304043Y185908D01*
X306043Y187908D01*
X300044D01*
Y193906D02*
Y189907D01*
X303044D01*
X302044Y191906D01*
Y192906D01*
X303044Y193906D01*
X305043D01*
X306043Y192906D01*
Y190907D01*
X305043Y189907D01*
X300044Y199904D02*
Y195905D01*
X303044D01*
X302044Y197904D01*
Y198904D01*
X303044Y199904D01*
X305043D01*
X306043Y198904D01*
Y196905D01*
X305043Y195905D01*
X301044Y201903D02*
X300044Y202903D01*
Y204902D01*
X301044Y205902D01*
X305043D01*
X306043Y204902D01*
Y202903D01*
X305043Y201903D01*
X301044D01*
Y207901D02*
X300044Y208901D01*
Y210900D01*
X301044Y211900D01*
X305043D01*
X306043Y210900D01*
Y208901D01*
X305043Y207901D01*
X301044D01*
X307042Y213899D02*
Y217898D01*
X306043Y219897D02*
X300044D01*
X302044Y221897D01*
X300044Y223896D01*
X306043D01*
X300044Y228894D02*
Y226895D01*
X301044Y225895D01*
X305043D01*
X306043Y226895D01*
Y228894D01*
X305043Y229894D01*
X301044D01*
X300044Y228894D01*
Y231893D02*
X306043D01*
Y234893D01*
X305043Y235892D01*
X301044D01*
X300044Y234893D01*
Y231893D01*
Y237892D02*
X305043D01*
X306043Y238891D01*
Y240891D01*
X305043Y241890D01*
X300044D01*
Y243889D02*
X306043D01*
Y247888D01*
X300044Y253886D02*
Y249888D01*
X306043D01*
Y253886D01*
X303044Y249888D02*
Y251887D01*
X164043Y91732D02*
Y91076D01*
X165355Y89764D01*
X166667Y91076D01*
Y91732D01*
X165355Y89764D02*
Y87796D01*
X170603D02*
X167979D01*
X170603Y90420D01*
Y91076D01*
X169947Y91732D01*
X168635D01*
X167979Y91076D01*
X86091Y188385D02*
Y187926D01*
X87010Y187008D01*
X87928Y187926D01*
Y188385D01*
X87010Y187008D02*
Y185630D01*
X90683D02*
X88846D01*
X90683Y187467D01*
Y187926D01*
X90224Y188385D01*
X89306D01*
X88846Y187926D01*
X91601Y187008D02*
X93438D01*
X94356Y185630D02*
Y188385D01*
X96193Y185630D01*
Y188385D01*
X98948Y187926D02*
X98489Y188385D01*
X97571D01*
X97111Y187926D01*
Y186090D01*
X97571Y185630D01*
X98489D01*
X98948Y186090D01*
X10780Y141516D02*
X15779D01*
X16779Y142516D01*
Y144515D01*
X15779Y145515D01*
X10780D01*
X11780Y151513D02*
X10780Y150513D01*
Y148514D01*
X11780Y147514D01*
X12780D01*
X13780Y148514D01*
Y150513D01*
X14779Y151513D01*
X15779D01*
X16779Y150513D01*
Y148514D01*
X15779Y147514D01*
X10780Y153512D02*
X16779D01*
Y156511D01*
X15779Y157511D01*
X14779D01*
X13780Y156511D01*
Y153512D01*
Y156511D01*
X12780Y157511D01*
X11780D01*
X10780Y156511D01*
Y153512D01*
X13780Y159511D02*
Y163509D01*
X16779Y165509D02*
X12780D01*
X10780Y167508D01*
X12780Y169507D01*
X16779D01*
X13780D01*
Y165509D01*
X221259Y133398D02*
X217979D01*
X217323Y132742D01*
Y131430D01*
X217979Y130774D01*
X221259D01*
X220603Y129462D02*
X221259Y128806D01*
Y127494D01*
X220603Y126838D01*
X219947D01*
X219291Y127494D01*
X218635Y126838D01*
X217979D01*
X217323Y127494D01*
Y128806D01*
X217979Y129462D01*
X218635D01*
X219291Y128806D01*
X219947Y129462D01*
X220603D01*
X219291Y128806D02*
Y127494D01*
X286466Y107358D02*
X281468D01*
X280468Y106358D01*
Y104359D01*
X281468Y103359D01*
X286466D01*
Y97361D02*
X285466Y99361D01*
X283467Y101360D01*
X281468D01*
X280468Y100360D01*
Y98361D01*
X281468Y97361D01*
X282467D01*
X283467Y98361D01*
Y101360D01*
X114127Y84569D02*
X119125D01*
X120125Y85568D01*
Y87568D01*
X119125Y88567D01*
X114127D01*
X120125Y93566D02*
X114127D01*
X117126Y90567D01*
Y94565D01*
X87521Y159495D02*
Y154497D01*
X88521Y153497D01*
X90520D01*
X91520Y154497D01*
Y159495D01*
X93519Y158495D02*
X94519Y159495D01*
X96518D01*
X97518Y158495D01*
Y157496D01*
X96518Y156496D01*
X95519D01*
X96518D01*
X97518Y155496D01*
Y154497D01*
X96518Y153497D01*
X94519D01*
X93519Y154497D01*
X204481Y63899D02*
X209480D01*
X210479Y64899D01*
Y66898D01*
X209480Y67898D01*
X204481D01*
X210479Y73896D02*
Y69897D01*
X206481Y73896D01*
X205481D01*
X204481Y72896D01*
Y70897D01*
X205481Y69897D01*
X91597Y228300D02*
Y233298D01*
X90597Y234298D01*
X88598D01*
X87598Y233298D01*
Y228300D01*
X85599Y234298D02*
X83600D01*
X84599D01*
Y228300D01*
X85599Y229300D01*
X31542Y80539D02*
X25544D01*
Y83538D01*
X26544Y84538D01*
X28543D01*
X29543Y83538D01*
Y80539D01*
Y82538D02*
X31542Y84538D01*
X25544Y90536D02*
Y88536D01*
Y89536D01*
X30543D01*
X31542Y88536D01*
Y87537D01*
X30543Y86537D01*
X31542Y95534D02*
X25544D01*
X28543Y92535D01*
Y96534D01*
X25544Y102532D02*
Y98533D01*
X28543D01*
X27544Y100532D01*
Y101532D01*
X28543Y102532D01*
X30543D01*
X31542Y101532D01*
Y99533D01*
X30543Y98533D01*
X377509Y256450D02*
Y262448D01*
X380508D01*
X381508Y261448D01*
Y259449D01*
X380508Y258449D01*
X377509D01*
X379508D02*
X381508Y256450D01*
X387506Y262448D02*
X383507D01*
Y256450D01*
X387506D01*
X383507Y259449D02*
X385507D01*
X389505Y262448D02*
Y256450D01*
X393504D01*
X395503D02*
Y260449D01*
X397503Y262448D01*
X399502Y260449D01*
Y256450D01*
Y259449D01*
X395503D01*
X401501Y262448D02*
Y261448D01*
X403501Y259449D01*
X405500Y261448D01*
Y262448D01*
X403501Y259449D02*
Y256450D01*
X407499D02*
X409499D01*
X408499D01*
Y262448D01*
X407499Y261448D01*
X381959Y281233D02*
X381303Y281889D01*
X379991D01*
X379335Y281233D01*
Y278609D01*
X379991Y277953D01*
X381303D01*
X381959Y278609D01*
Y279921D01*
X380647D01*
X383271Y281889D02*
X384582D01*
X383927D01*
Y277953D01*
X383271D01*
X384582D01*
X389174Y281233D02*
X388518Y281889D01*
X387206D01*
X386550Y281233D01*
Y278609D01*
X387206Y277953D01*
X388518D01*
X389174Y278609D01*
Y279921D01*
X387862D01*
X390486Y277953D02*
Y280577D01*
X391798Y281889D01*
X393110Y280577D01*
Y277953D01*
Y279921D01*
X390486D01*
X394422Y281889D02*
Y279265D01*
X395734Y277953D01*
X397046Y279265D01*
Y281889D01*
X398358Y277953D02*
Y280577D01*
X399670Y281889D01*
X400981Y280577D01*
Y277953D01*
Y279921D01*
X398358D01*
X404917Y281233D02*
X404261Y281889D01*
X402949D01*
X402293Y281233D01*
Y278609D01*
X402949Y277953D01*
X404261D01*
X404917Y278609D01*
X744048Y263293D02*
Y259295D01*
X747047D01*
Y261294D01*
Y259295D01*
X750046D01*
Y265293D02*
X746048D01*
X744048Y267292D01*
X746048Y269291D01*
X750046D01*
X747047D01*
Y265293D01*
X750046Y271291D02*
X744048D01*
X750046Y275289D01*
X744048D01*
X750046Y277289D02*
Y279288D01*
Y278288D01*
X744048D01*
X745048Y277289D01*
X184885Y260873D02*
X180886D01*
Y254875D01*
X184885D01*
X180886Y257874D02*
X182886D01*
X190883Y259873D02*
X189883Y260873D01*
X187884D01*
X186884Y259873D01*
Y258874D01*
X187884Y257874D01*
X189883D01*
X190883Y256874D01*
Y255875D01*
X189883Y254875D01*
X187884D01*
X186884Y255875D01*
X192883Y254875D02*
Y260873D01*
X195882D01*
X196881Y259873D01*
Y257874D01*
X195882Y256874D01*
X192883D01*
X198881Y259873D02*
X199880Y260873D01*
X201880D01*
X202879Y259873D01*
Y258874D01*
X201880Y257874D01*
X200880D01*
X201880D01*
X202879Y256874D01*
Y255875D01*
X201880Y254875D01*
X199880D01*
X198881Y255875D01*
X208877Y254875D02*
X204879D01*
X208877Y258874D01*
Y259873D01*
X207878Y260873D01*
X205878D01*
X204879Y259873D01*
X549804Y73098D02*
X552559D01*
Y74476D01*
X552099Y74935D01*
X550263D01*
X549804Y74476D01*
Y73098D01*
X550263Y75853D02*
X549804Y76313D01*
Y77231D01*
X550263Y77690D01*
X550722D01*
X551181Y77231D01*
Y76772D01*
Y77231D01*
X551640Y77690D01*
X552099D01*
X552559Y77231D01*
Y76313D01*
X552099Y75853D01*
X550263Y78608D02*
X549804Y79067D01*
Y79986D01*
X550263Y80445D01*
X550722D01*
X551181Y79986D01*
X551640Y80445D01*
X552099D01*
X552559Y79986D01*
Y79067D01*
X552099Y78608D01*
X551640D01*
X551181Y79067D01*
X550722Y78608D01*
X550263D01*
X551181Y79067D02*
Y79986D01*
X510433Y73098D02*
X513189D01*
Y74476D01*
X512729Y74935D01*
X510893D01*
X510433Y74476D01*
Y73098D01*
X510893Y75853D02*
X510433Y76313D01*
Y77231D01*
X510893Y77690D01*
X511352D01*
X511811Y77231D01*
Y76772D01*
Y77231D01*
X512270Y77690D01*
X512729D01*
X513189Y77231D01*
Y76313D01*
X512729Y75853D01*
X510433Y78608D02*
Y80445D01*
X510893D01*
X512729Y78608D01*
X513189D01*
X549804Y86878D02*
X552559D01*
Y88255D01*
X552099Y88714D01*
X550263D01*
X549804Y88255D01*
Y86878D01*
X550263Y89633D02*
X549804Y90092D01*
Y91010D01*
X550263Y91470D01*
X550722D01*
X551181Y91010D01*
Y90551D01*
Y91010D01*
X551640Y91470D01*
X552099D01*
X552559Y91010D01*
Y90092D01*
X552099Y89633D01*
X552559Y93765D02*
X549804D01*
X551181Y92388D01*
Y94225D01*
X510433Y86878D02*
X513189D01*
Y88255D01*
X512729Y88714D01*
X510893D01*
X510433Y88255D01*
Y86878D01*
X510893Y89633D02*
X510433Y90092D01*
Y91010D01*
X510893Y91470D01*
X511352D01*
X511811Y91010D01*
Y90551D01*
Y91010D01*
X512270Y91470D01*
X512729D01*
X513189Y91010D01*
Y90092D01*
X512729Y89633D01*
X510893Y92388D02*
X510433Y92847D01*
Y93765D01*
X510893Y94225D01*
X511352D01*
X511811Y93765D01*
Y93306D01*
Y93765D01*
X512270Y94225D01*
X512729D01*
X513189Y93765D01*
Y92847D01*
X512729Y92388D01*
X549804Y210894D02*
X552559D01*
Y212271D01*
X552099Y212730D01*
X550263D01*
X549804Y212271D01*
Y210894D01*
X552559Y215485D02*
Y213649D01*
X550722Y215485D01*
X550263D01*
X549804Y215026D01*
Y214108D01*
X550263Y213649D01*
X552559Y218240D02*
Y216404D01*
X550722Y218240D01*
X550263D01*
X549804Y217781D01*
Y216863D01*
X550263Y216404D01*
X510433Y211353D02*
X513189D01*
Y212730D01*
X512729Y213189D01*
X510893D01*
X510433Y212730D01*
Y211353D01*
X513189Y215945D02*
Y214108D01*
X511352Y215945D01*
X510893D01*
X510433Y215485D01*
Y214567D01*
X510893Y214108D01*
X513189Y216863D02*
Y217781D01*
Y217322D01*
X510433D01*
X510893Y216863D01*
X549804Y224903D02*
X552559D01*
Y226280D01*
X552099Y226739D01*
X550263D01*
X549804Y226280D01*
Y224903D01*
X552559Y227658D02*
Y228576D01*
Y228117D01*
X549804D01*
X550263Y227658D01*
Y229954D02*
X549804Y230413D01*
Y231331D01*
X550263Y231790D01*
X550722D01*
X551181Y231331D01*
X551640Y231790D01*
X552099D01*
X552559Y231331D01*
Y230413D01*
X552099Y229954D01*
X551640D01*
X551181Y230413D01*
X550722Y229954D01*
X550263D01*
X551181Y230413D02*
Y231331D01*
X510433Y224903D02*
X513189D01*
Y226280D01*
X512729Y226739D01*
X510893D01*
X510433Y226280D01*
Y224903D01*
X513189Y227658D02*
Y228576D01*
Y228117D01*
X510433D01*
X510893Y227658D01*
X510433Y229954D02*
Y231790D01*
X510893D01*
X512729Y229954D01*
X513189D01*
X196472Y88355D02*
X197472Y87355D01*
X199471D01*
X200471Y88355D01*
Y92354D01*
X199471Y93353D01*
X197472D01*
X196472Y92354D01*
X190474Y87355D02*
X192473Y88355D01*
X194473Y90354D01*
Y92354D01*
X193473Y93353D01*
X191474D01*
X190474Y92354D01*
Y91354D01*
X191474Y90354D01*
X194473D01*
X204118Y49637D02*
X203119Y50637D01*
X201119D01*
X200120Y49637D01*
Y45638D01*
X201119Y44639D01*
X203119D01*
X204118Y45638D01*
X210117Y50637D02*
X206118D01*
Y47638D01*
X208117Y48638D01*
X209117D01*
X210117Y47638D01*
Y45638D01*
X209117Y44639D01*
X207118D01*
X206118Y45638D01*
X156692Y262467D02*
Y265091D01*
X154724D01*
X155380Y263779D01*
Y263123D01*
X154724Y262467D01*
X153412D01*
X152757Y263123D01*
Y264435D01*
X153412Y265091D01*
X156692Y261155D02*
X154069D01*
X152757Y259843D01*
X154069Y258531D01*
X156692D01*
X136485Y247375D02*
X137141Y248031D01*
X138452D01*
X139108Y247375D01*
Y246719D01*
X138452Y246063D01*
X137796D01*
X138452D01*
X139108Y245407D01*
Y244751D01*
X138452Y244095D01*
X137141D01*
X136485Y244751D01*
X140420Y248031D02*
Y245407D01*
X141732Y244095D01*
X143044Y245407D01*
Y248031D01*
X144356Y247375D02*
X145012Y248031D01*
X146324D01*
X146980Y247375D01*
Y246719D01*
X146324Y246063D01*
X145668D01*
X146324D01*
X146980Y245407D01*
Y244751D01*
X146324Y244095D01*
X145012D01*
X144356Y244751D01*
D15*
X187205Y25984D02*
Y52756D01*
X212992Y85039D02*
Y111811D01*
D16*
X705447Y124410D02*
Y127165D01*
X706825D01*
X707284Y126706D01*
Y125787D01*
X706825Y125328D01*
X705447D01*
X706366D02*
X707284Y124410D01*
X710039Y127165D02*
X708202D01*
Y125787D01*
X709121Y126247D01*
X709580D01*
X710039Y125787D01*
Y124869D01*
X709580Y124410D01*
X708661D01*
X708202Y124869D01*
X710957Y124410D02*
X711876D01*
X711416D01*
Y127165D01*
X710957Y126706D01*
X626642Y124607D02*
Y127362D01*
X628019D01*
X628478Y126903D01*
Y125984D01*
X628019Y125525D01*
X626642D01*
X627560D02*
X628478Y124607D01*
X631233Y127362D02*
X629397D01*
Y125984D01*
X630315Y126443D01*
X630774D01*
X631233Y125984D01*
Y125066D01*
X630774Y124607D01*
X629856D01*
X629397Y125066D01*
X632152Y126903D02*
X632611Y127362D01*
X633529D01*
X633988Y126903D01*
Y125066D01*
X633529Y124607D01*
X632611D01*
X632152Y125066D01*
Y126903D01*
X704594Y262205D02*
Y264960D01*
X705972D01*
X706431Y264501D01*
Y263583D01*
X705972Y263123D01*
X704594D01*
X705513D02*
X706431Y262205D01*
X708727D02*
Y264960D01*
X707349Y263583D01*
X709186D01*
X710104Y264960D02*
X711941D01*
Y264501D01*
X710104Y262664D01*
Y262205D01*
X626248Y262599D02*
Y265354D01*
X627625D01*
X628085Y264895D01*
Y263976D01*
X627625Y263517D01*
X626248D01*
X627166D02*
X628085Y262599D01*
X630380D02*
Y265354D01*
X629003Y263976D01*
X630840D01*
X633595Y265354D02*
X632676Y264895D01*
X631758Y263976D01*
Y263058D01*
X632217Y262599D01*
X633136D01*
X633595Y263058D01*
Y263517D01*
X633136Y263976D01*
X631758D01*
X628281Y167040D02*
X627822Y167500D01*
X626904D01*
X626445Y167040D01*
Y165204D01*
X626904Y164744D01*
X627822D01*
X628281Y165204D01*
X630577Y164744D02*
Y167500D01*
X629200Y166122D01*
X631036D01*
X631955Y167500D02*
X633791D01*
Y167040D01*
X631955Y165204D01*
Y164744D01*
X706825Y152099D02*
X706366Y152559D01*
X705447D01*
X704988Y152099D01*
Y150263D01*
X705447Y149804D01*
X706366D01*
X706825Y150263D01*
X709121Y149804D02*
Y152559D01*
X707743Y151181D01*
X709580D01*
X712335Y152559D02*
X711416Y152099D01*
X710498Y151181D01*
Y150263D01*
X710957Y149804D01*
X711876D01*
X712335Y150263D01*
Y150722D01*
X711876Y151181D01*
X710498D01*
X628085Y305052D02*
X627625Y305511D01*
X626707D01*
X626248Y305052D01*
Y303216D01*
X626707Y302756D01*
X627625D01*
X628085Y303216D01*
X630380Y302756D02*
Y305511D01*
X629003Y304134D01*
X630840D01*
X631758Y305052D02*
X632217Y305511D01*
X633136D01*
X633595Y305052D01*
Y304593D01*
X633136Y304134D01*
X632676D01*
X633136D01*
X633595Y303675D01*
Y303216D01*
X633136Y302756D01*
X632217D01*
X631758Y303216D01*
X706825Y289895D02*
X706366Y290354D01*
X705447D01*
X704988Y289895D01*
Y288058D01*
X705447Y287599D01*
X706366D01*
X706825Y288058D01*
X709121Y287599D02*
Y290354D01*
X707743Y288976D01*
X709580D01*
X712335Y287599D02*
X710498D01*
X712335Y289436D01*
Y289895D01*
X711876Y290354D01*
X710957D01*
X710498Y289895D01*
X129330Y156558D02*
X127690D01*
X127363Y156230D01*
Y155574D01*
X127690Y155246D01*
X129330D01*
X129002Y153278D02*
X129330Y153606D01*
Y154262D01*
X129002Y154590D01*
X128674D01*
X128347Y154262D01*
Y153606D01*
X128018Y153278D01*
X127690D01*
X127363Y153606D01*
Y154262D01*
X127690Y154590D01*
X129330Y152622D02*
X127363D01*
Y151638D01*
X127690Y151310D01*
X128018D01*
X128347Y151638D01*
Y152622D01*
Y151638D01*
X128674Y151310D01*
X129002D01*
X129330Y151638D01*
Y152622D01*
X128347Y150654D02*
Y149342D01*
X129330Y148687D02*
X127363D01*
X128347D01*
Y147375D01*
X129330D01*
X127363D01*
X129330Y145735D02*
Y146391D01*
X129002Y146719D01*
X127690D01*
X127363Y146391D01*
Y145735D01*
X127690Y145407D01*
X129002D01*
X129330Y145735D01*
X129002Y143439D02*
X129330Y143767D01*
Y144423D01*
X129002Y144751D01*
X128674D01*
X128347Y144423D01*
Y143767D01*
X128018Y143439D01*
X127690D01*
X127363Y143767D01*
Y144423D01*
X127690Y144751D01*
X129330Y142783D02*
Y141471D01*
Y142127D01*
X127363D01*
X128347Y140815D02*
Y139503D01*
X127363Y138847D02*
X129330D01*
Y137863D01*
X129002Y137535D01*
X128347D01*
X128018Y137863D01*
Y138847D01*
Y138191D02*
X127363Y137535D01*
X129002Y135567D02*
X129330Y135895D01*
Y136551D01*
X129002Y136879D01*
X128674D01*
X128347Y136551D01*
Y135895D01*
X128018Y135567D01*
X127690D01*
X127363Y135895D01*
Y136551D01*
X127690Y136879D01*
X129330Y134911D02*
Y133599D01*
Y134256D01*
X127363D01*
X129133Y184117D02*
X127494D01*
X127166Y183789D01*
Y183133D01*
X127494Y182805D01*
X129133D01*
X128806Y180837D02*
X129133Y181165D01*
Y181821D01*
X128806Y182149D01*
X128478D01*
X128150Y181821D01*
Y181165D01*
X127822Y180837D01*
X127494D01*
X127166Y181165D01*
Y181821D01*
X127494Y182149D01*
X129133Y180181D02*
X127166D01*
Y179197D01*
X127494Y178869D01*
X127822D01*
X128150Y179197D01*
Y180181D01*
Y179197D01*
X128478Y178869D01*
X128806D01*
X129133Y179197D01*
Y180181D01*
X128150Y178213D02*
Y176901D01*
X129133Y176245D02*
X127166D01*
X128150D01*
Y174933D01*
X129133D01*
X127166D01*
X129133Y173293D02*
Y173949D01*
X128806Y174277D01*
X127494D01*
X127166Y173949D01*
Y173293D01*
X127494Y172965D01*
X128806D01*
X129133Y173293D01*
X128806Y170998D02*
X129133Y171326D01*
Y171982D01*
X128806Y172310D01*
X128478D01*
X128150Y171982D01*
Y171326D01*
X127822Y170998D01*
X127494D01*
X127166Y171326D01*
Y171982D01*
X127494Y172310D01*
X129133Y170342D02*
Y169030D01*
Y169686D01*
X127166D01*
X128150Y168374D02*
Y167062D01*
X129133Y166406D02*
X127166D01*
Y165422D01*
X127494Y165094D01*
X128806D01*
X129133Y165422D01*
Y166406D01*
Y164438D02*
X127166D01*
X127822Y163782D01*
X127166Y163126D01*
X129133D01*
Y162470D02*
X127166D01*
Y161158D01*
X129133Y160502D02*
X127166D01*
Y159518D01*
X127494Y159190D01*
X128806D01*
X129133Y159518D01*
Y160502D01*
X130347Y217778D02*
Y219615D01*
X127592D01*
Y217778D01*
X128970Y219615D02*
Y218697D01*
X129888Y215023D02*
X130347Y215483D01*
Y216401D01*
X129888Y216860D01*
X129429D01*
X128970Y216401D01*
Y215483D01*
X128511Y215023D01*
X128051D01*
X127592Y215483D01*
Y216401D01*
X128051Y216860D01*
X127592Y214105D02*
X130347D01*
Y212728D01*
X129888Y212268D01*
X128970D01*
X128511Y212728D01*
Y214105D01*
X129888Y211350D02*
X130347Y210891D01*
Y209973D01*
X129888Y209513D01*
X129429D01*
X128970Y209973D01*
Y210432D01*
Y209973D01*
X128511Y209513D01*
X128051D01*
X127592Y209973D01*
Y210891D01*
X128051Y211350D01*
X127592Y206758D02*
Y208595D01*
X129429Y206758D01*
X129888D01*
X130347Y207218D01*
Y208136D01*
X129888Y208595D01*
X127133Y205840D02*
Y204003D01*
X130347Y203085D02*
X127592D01*
Y201708D01*
X128051Y201248D01*
X128511D01*
X128970Y201708D01*
Y203085D01*
Y201708D01*
X129429Y201248D01*
X129888D01*
X130347Y201708D01*
Y203085D01*
Y198952D02*
Y199871D01*
X129888Y200330D01*
X128051D01*
X127592Y199871D01*
Y198952D01*
X128051Y198493D01*
X129888D01*
X130347Y198952D01*
Y196197D02*
Y197116D01*
X129888Y197575D01*
X128051D01*
X127592Y197116D01*
Y196197D01*
X128051Y195738D01*
X129888D01*
X130347Y196197D01*
Y194820D02*
Y192983D01*
Y193902D01*
X127592D01*
X237795Y77099D02*
X235040D01*
Y75721D01*
X235499Y75262D01*
X237336D01*
X237795Y75721D01*
Y77099D01*
Y72507D02*
X237336Y73425D01*
X236417Y74344D01*
X235499D01*
X235040Y73884D01*
Y72966D01*
X235499Y72507D01*
X235958D01*
X236417Y72966D01*
Y74344D01*
X237795Y71588D02*
Y69752D01*
X237336D01*
X235499Y71588D01*
X235040D01*
X226838Y105196D02*
Y102441D01*
X228216D01*
X228675Y102901D01*
Y104737D01*
X228216Y105196D01*
X226838D01*
X231430D02*
X230512Y104737D01*
X229593Y103819D01*
Y102901D01*
X230053Y102441D01*
X230971D01*
X231430Y102901D01*
Y103360D01*
X230971Y103819D01*
X229593D01*
X234185Y105196D02*
X233267Y104737D01*
X232348Y103819D01*
Y102901D01*
X232808Y102441D01*
X233726D01*
X234185Y102901D01*
Y103360D01*
X233726Y103819D01*
X232348D01*
X242849Y264698D02*
X242390Y265157D01*
X241471D01*
X241012Y264698D01*
Y262861D01*
X241471Y262402D01*
X242390D01*
X242849Y262861D01*
X245604Y264698D02*
X245145Y265157D01*
X244226D01*
X243767Y264698D01*
Y264239D01*
X244226Y263779D01*
X245145D01*
X245604Y263320D01*
Y262861D01*
X245145Y262402D01*
X244226D01*
X243767Y262861D01*
X248359Y262402D02*
X246522D01*
X248359Y264239D01*
Y264698D01*
X247900Y265157D01*
X246981D01*
X246522Y264698D01*
X251114Y265157D02*
X249277D01*
Y263779D01*
X250196Y264239D01*
X250655D01*
X251114Y263779D01*
Y262861D01*
X250655Y262402D01*
X249736D01*
X249277Y262861D01*
X244226Y245407D02*
X243767Y245866D01*
X242849D01*
X242390Y245407D01*
Y243570D01*
X242849Y243111D01*
X243767D01*
X244226Y243570D01*
X246981Y245407D02*
X246522Y245866D01*
X245604D01*
X245145Y245407D01*
Y244947D01*
X245604Y244488D01*
X246522D01*
X246981Y244029D01*
Y243570D01*
X246522Y243111D01*
X245604D01*
X245145Y243570D01*
X249736Y245866D02*
X247900D01*
Y244488D01*
X248818Y244947D01*
X249277D01*
X249736Y244488D01*
Y243570D01*
X249277Y243111D01*
X248359D01*
X247900Y243570D01*
X262534Y51182D02*
Y53937D01*
X263911D01*
X264370Y53477D01*
Y52559D01*
X263911Y52100D01*
X262534D01*
X263452D02*
X264370Y51182D01*
X265289Y53477D02*
X265748Y53937D01*
X266666D01*
X267126Y53477D01*
Y53018D01*
X266666Y52559D01*
X267126Y52100D01*
Y51641D01*
X266666Y51182D01*
X265748D01*
X265289Y51641D01*
Y52100D01*
X265748Y52559D01*
X265289Y53018D01*
Y53477D01*
X265748Y52559D02*
X266666D01*
X268044Y51182D02*
X268962D01*
X268503D01*
Y53937D01*
X268044Y53477D01*
X252035Y51575D02*
Y54330D01*
X253413D01*
X253872Y53871D01*
Y52953D01*
X253413Y52494D01*
X252035D01*
X252954D02*
X253872Y51575D01*
X254790Y53871D02*
X255250Y54330D01*
X256168D01*
X256627Y53871D01*
Y53412D01*
X256168Y52953D01*
X256627Y52494D01*
Y52034D01*
X256168Y51575D01*
X255250D01*
X254790Y52034D01*
Y52494D01*
X255250Y52953D01*
X254790Y53412D01*
Y53871D01*
X255250Y52953D02*
X256168D01*
X257545Y53871D02*
X258004Y54330D01*
X258923D01*
X259382Y53871D01*
Y52034D01*
X258923Y51575D01*
X258004D01*
X257545Y52034D01*
Y53871D01*
X216044Y102559D02*
Y105315D01*
X217422D01*
X217881Y104855D01*
Y103937D01*
X217422Y103478D01*
X216044D01*
X216963D02*
X217881Y102559D01*
X218799D02*
X219718D01*
X219259D01*
Y105315D01*
X218799Y104855D01*
X222932Y105315D02*
X221095D01*
Y103937D01*
X222014Y104396D01*
X222473D01*
X222932Y103937D01*
Y103019D01*
X222473Y102559D01*
X221554D01*
X221095Y103019D01*
X374803Y267390D02*
X372048D01*
Y268767D01*
X372507Y269226D01*
X373425D01*
X373884Y268767D01*
Y267390D01*
Y268308D02*
X374803Y269226D01*
X372048Y270145D02*
Y271981D01*
X372507D01*
X374343Y270145D01*
X374803D01*
Y274736D02*
Y272900D01*
X372966Y274736D01*
X372507D01*
X372048Y274277D01*
Y273359D01*
X372507Y272900D01*
X586878Y125000D02*
Y127755D01*
X588255D01*
X588715Y127296D01*
Y126378D01*
X588255Y125919D01*
X586878D01*
X587796D02*
X588715Y125000D01*
X591010D02*
Y127755D01*
X589633Y126378D01*
X591469D01*
X592388Y125460D02*
X592847Y125000D01*
X593765D01*
X594225Y125460D01*
Y127296D01*
X593765Y127755D01*
X592847D01*
X592388Y127296D01*
Y126837D01*
X592847Y126378D01*
X594225D01*
X508138Y124607D02*
Y127362D01*
X509515D01*
X509974Y126903D01*
Y125984D01*
X509515Y125525D01*
X508138D01*
X509056D02*
X509974Y124607D01*
X512270D02*
Y127362D01*
X510893Y125984D01*
X512729D01*
X513648Y126903D02*
X514107Y127362D01*
X515025D01*
X515484Y126903D01*
Y126443D01*
X515025Y125984D01*
X515484Y125525D01*
Y125066D01*
X515025Y124607D01*
X514107D01*
X513648Y125066D01*
Y125525D01*
X514107Y125984D01*
X513648Y126443D01*
Y126903D01*
X514107Y125984D02*
X515025D01*
X586878Y262993D02*
Y265748D01*
X588255D01*
X588715Y265288D01*
Y264370D01*
X588255Y263911D01*
X586878D01*
X587796D02*
X588715Y262993D01*
X591010D02*
Y265748D01*
X589633Y264370D01*
X591469D01*
X594225Y265748D02*
X592388D01*
Y264370D01*
X593306Y264829D01*
X593765D01*
X594225Y264370D01*
Y263452D01*
X593765Y262993D01*
X592847D01*
X592388Y263452D01*
X508138Y261811D02*
Y264566D01*
X509515D01*
X509974Y264107D01*
Y263189D01*
X509515Y262730D01*
X508138D01*
X509056D02*
X509974Y261811D01*
X512270D02*
Y264566D01*
X510893Y263189D01*
X512729D01*
X515025Y261811D02*
Y264566D01*
X513648Y263189D01*
X515484D01*
X238453Y91733D02*
Y94488D01*
X239830D01*
X240289Y94029D01*
Y93110D01*
X239830Y92651D01*
X238453D01*
X239371D02*
X240289Y91733D01*
X241208Y94029D02*
X241667Y94488D01*
X242585D01*
X243044Y94029D01*
Y93569D01*
X242585Y93110D01*
X242126D01*
X242585D01*
X243044Y92651D01*
Y92192D01*
X242585Y91733D01*
X241667D01*
X241208Y92192D01*
X245799Y94488D02*
X243963D01*
Y93110D01*
X244881Y93569D01*
X245340D01*
X245799Y93110D01*
Y92192D01*
X245340Y91733D01*
X244422D01*
X243963Y92192D01*
X423228Y295539D02*
X420473D01*
Y296917D01*
X420932Y297376D01*
X421850D01*
X422309Y296917D01*
Y295539D01*
Y296458D02*
X423228Y297376D01*
X420932Y298294D02*
X420473Y298753D01*
Y299672D01*
X420932Y300131D01*
X421391D01*
X421850Y299672D01*
Y299213D01*
Y299672D01*
X422309Y300131D01*
X422769D01*
X423228Y299672D01*
Y298753D01*
X422769Y298294D01*
X423228Y302427D02*
X420473D01*
X421850Y301049D01*
Y302886D01*
X442322Y295539D02*
X439567D01*
Y296917D01*
X440027Y297376D01*
X440945D01*
X441404Y296917D01*
Y295539D01*
Y296458D02*
X442322Y297376D01*
X440027Y298294D02*
X439567Y298753D01*
Y299672D01*
X440027Y300131D01*
X440486D01*
X440945Y299672D01*
Y299213D01*
Y299672D01*
X441404Y300131D01*
X441863D01*
X442322Y299672D01*
Y298753D01*
X441863Y298294D01*
X440027Y301049D02*
X439567Y301508D01*
Y302427D01*
X440027Y302886D01*
X440486D01*
X440945Y302427D01*
Y301968D01*
Y302427D01*
X441404Y302886D01*
X441863D01*
X442322Y302427D01*
Y301508D01*
X441863Y301049D01*
X461417Y295539D02*
X458662D01*
Y296917D01*
X459121Y297376D01*
X460039D01*
X460499Y296917D01*
Y295539D01*
Y296458D02*
X461417Y297376D01*
X459121Y298294D02*
X458662Y298753D01*
Y299672D01*
X459121Y300131D01*
X459580D01*
X460039Y299672D01*
Y299213D01*
Y299672D01*
X460499Y300131D01*
X460958D01*
X461417Y299672D01*
Y298753D01*
X460958Y298294D01*
X461417Y302886D02*
Y301049D01*
X459580Y302886D01*
X459121D01*
X458662Y302427D01*
Y301508D01*
X459121Y301049D01*
X420014Y285434D02*
Y288189D01*
X421392D01*
X421851Y287729D01*
Y286811D01*
X421392Y286352D01*
X420014D01*
X420932D02*
X421851Y285434D01*
X422769Y287729D02*
X423228Y288189D01*
X424147D01*
X424606Y287729D01*
Y287270D01*
X424147Y286811D01*
X423688D01*
X424147D01*
X424606Y286352D01*
Y285893D01*
X424147Y285434D01*
X423228D01*
X422769Y285893D01*
X425524Y285434D02*
X426442D01*
X425983D01*
Y288189D01*
X425524Y287729D01*
X100657Y126181D02*
Y128937D01*
X102035D01*
X102494Y128477D01*
Y127559D01*
X102035Y127100D01*
X100657D01*
X101576D02*
X102494Y126181D01*
X103412Y128477D02*
X103872Y128937D01*
X104790D01*
X105249Y128477D01*
Y128018D01*
X104790Y127559D01*
X104331D01*
X104790D01*
X105249Y127100D01*
Y126641D01*
X104790Y126181D01*
X103872D01*
X103412Y126641D01*
X106167Y128477D02*
X106627Y128937D01*
X107545D01*
X108004Y128477D01*
Y126641D01*
X107545Y126181D01*
X106627D01*
X106167Y126641D01*
Y128477D01*
X112468Y130119D02*
Y132874D01*
X113846D01*
X114305Y132414D01*
Y131496D01*
X113846Y131037D01*
X112468D01*
X113387D02*
X114305Y130119D01*
X117060D02*
X115223D01*
X117060Y131955D01*
Y132414D01*
X116601Y132874D01*
X115683D01*
X115223Y132414D01*
X117978Y130578D02*
X118438Y130119D01*
X119356D01*
X119815Y130578D01*
Y132414D01*
X119356Y132874D01*
X118438D01*
X117978Y132414D01*
Y131955D01*
X118438Y131496D01*
X119815D01*
X132153Y130119D02*
Y132874D01*
X133531D01*
X133990Y132414D01*
Y131496D01*
X133531Y131037D01*
X132153D01*
X133072D02*
X133990Y130119D01*
X136745D02*
X134908D01*
X136745Y131955D01*
Y132414D01*
X136286Y132874D01*
X135368D01*
X134908Y132414D01*
X137663D02*
X138123Y132874D01*
X139041D01*
X139500Y132414D01*
Y131955D01*
X139041Y131496D01*
X139500Y131037D01*
Y130578D01*
X139041Y130119D01*
X138123D01*
X137663Y130578D01*
Y131037D01*
X138123Y131496D01*
X137663Y131955D01*
Y132414D01*
X138123Y131496D02*
X139041D01*
X122311Y130119D02*
Y132874D01*
X123688D01*
X124148Y132414D01*
Y131496D01*
X123688Y131037D01*
X122311D01*
X123229D02*
X124148Y130119D01*
X126903D02*
X125066D01*
X126903Y131955D01*
Y132414D01*
X126443Y132874D01*
X125525D01*
X125066Y132414D01*
X127821Y132874D02*
X129658D01*
Y132414D01*
X127821Y130578D01*
Y130119D01*
X151574Y85894D02*
X148819D01*
Y87271D01*
X149278Y87730D01*
X150197D01*
X150656Y87271D01*
Y85894D01*
Y86812D02*
X151574Y87730D01*
Y90485D02*
Y88649D01*
X149738Y90485D01*
X149278D01*
X148819Y90026D01*
Y89108D01*
X149278Y88649D01*
X148819Y93240D02*
X149278Y92322D01*
X150197Y91404D01*
X151115D01*
X151574Y91863D01*
Y92781D01*
X151115Y93240D01*
X150656D01*
X150197Y92781D01*
Y91404D01*
X84909Y75394D02*
Y78149D01*
X86287D01*
X86746Y77690D01*
Y76772D01*
X86287Y76313D01*
X84909D01*
X85828D02*
X86746Y75394D01*
X89501D02*
X87664D01*
X89501Y77231D01*
Y77690D01*
X89042Y78149D01*
X88124D01*
X87664Y77690D01*
X92256Y78149D02*
X90419D01*
Y76772D01*
X91338Y77231D01*
X91797D01*
X92256Y76772D01*
Y75853D01*
X91797Y75394D01*
X90878D01*
X90419Y75853D01*
X84909Y97048D02*
Y99803D01*
X86287D01*
X86746Y99344D01*
Y98425D01*
X86287Y97966D01*
X84909D01*
X85828D02*
X86746Y97048D01*
X89501D02*
X87664D01*
X89501Y98884D01*
Y99344D01*
X89042Y99803D01*
X88124D01*
X87664Y99344D01*
X91797Y97048D02*
Y99803D01*
X90419Y98425D01*
X92256D01*
X93800Y64238D02*
X96555D01*
Y62860D01*
X96096Y62401D01*
X95177D01*
X94718Y62860D01*
Y64238D01*
Y63319D02*
X93800Y62401D01*
Y59646D02*
Y61483D01*
X95636Y59646D01*
X96096D01*
X96555Y60105D01*
Y61024D01*
X96096Y61483D01*
X93800Y58728D02*
Y57809D01*
Y58269D01*
X96555D01*
X96096Y58728D01*
X93898Y73358D02*
X96653D01*
Y71981D01*
X96194Y71522D01*
X95276D01*
X94816Y71981D01*
Y73358D01*
Y72440D02*
X93898Y71522D01*
Y68767D02*
Y70603D01*
X95735Y68767D01*
X96194D01*
X96653Y69226D01*
Y70144D01*
X96194Y70603D01*
Y67848D02*
X96653Y67389D01*
Y66471D01*
X96194Y66012D01*
X94357D01*
X93898Y66471D01*
Y67389D01*
X94357Y67848D01*
X96194D01*
X85139Y101378D02*
Y104133D01*
X86516D01*
X86976Y103674D01*
Y102756D01*
X86516Y102297D01*
X85139D01*
X86057D02*
X86976Y101378D01*
X87894D02*
X88812D01*
X88353D01*
Y104133D01*
X87894Y103674D01*
X90190Y101838D02*
X90649Y101378D01*
X91567D01*
X92027Y101838D01*
Y103674D01*
X91567Y104133D01*
X90649D01*
X90190Y103674D01*
Y103215D01*
X90649Y102756D01*
X92027D01*
X85139Y120276D02*
Y123031D01*
X86516D01*
X86976Y122572D01*
Y121653D01*
X86516Y121194D01*
X85139D01*
X86057D02*
X86976Y120276D01*
X87894D02*
X88812D01*
X88353D01*
Y123031D01*
X87894Y122572D01*
X90190D02*
X90649Y123031D01*
X91567D01*
X92027Y122572D01*
Y122113D01*
X91567Y121653D01*
X92027Y121194D01*
Y120735D01*
X91567Y120276D01*
X90649D01*
X90190Y120735D01*
Y121194D01*
X90649Y121653D01*
X90190Y122113D01*
Y122572D01*
X90649Y121653D02*
X91567D01*
X132777Y155315D02*
Y158070D01*
X134154D01*
X134613Y157611D01*
Y156693D01*
X134154Y156234D01*
X132777D01*
X133695D02*
X134613Y155315D01*
X135532D02*
X136450D01*
X135991D01*
Y158070D01*
X135532Y157611D01*
X139205Y155315D02*
Y158070D01*
X137828Y156693D01*
X139664D01*
X115157Y259515D02*
X112402D01*
Y260893D01*
X112861Y261352D01*
X113779D01*
X114239Y260893D01*
Y259515D01*
Y260434D02*
X115157Y261352D01*
X114698Y262270D02*
X115157Y262729D01*
Y263648D01*
X114698Y264107D01*
X112861D01*
X112402Y263648D01*
Y262729D01*
X112861Y262270D01*
X113320D01*
X113779Y262729D01*
Y264107D01*
X115157Y251641D02*
X112402D01*
Y253019D01*
X112861Y253478D01*
X113779D01*
X114239Y253019D01*
Y251641D01*
Y252559D02*
X115157Y253478D01*
X112861Y254396D02*
X112402Y254855D01*
Y255774D01*
X112861Y256233D01*
X113320D01*
X113779Y255774D01*
X114239Y256233D01*
X114698D01*
X115157Y255774D01*
Y254855D01*
X114698Y254396D01*
X114239D01*
X113779Y254855D01*
X113320Y254396D01*
X112861D01*
X113779Y254855D02*
Y255774D01*
X104003Y265355D02*
Y268110D01*
X105381D01*
X105840Y267651D01*
Y266732D01*
X105381Y266273D01*
X104003D01*
X104922D02*
X105840Y265355D01*
X108136D02*
Y268110D01*
X106758Y266732D01*
X108595D01*
X94161Y265355D02*
Y268110D01*
X95538D01*
X95998Y267651D01*
Y266732D01*
X95538Y266273D01*
X94161D01*
X95079D02*
X95998Y265355D01*
X96916Y267651D02*
X97375Y268110D01*
X98293D01*
X98752Y267651D01*
Y267191D01*
X98293Y266732D01*
X97834D01*
X98293D01*
X98752Y266273D01*
Y265814D01*
X98293Y265355D01*
X97375D01*
X96916Y265814D01*
X113058Y223032D02*
Y225787D01*
X114436D01*
X114895Y225328D01*
Y224410D01*
X114436Y223950D01*
X113058D01*
X113977D02*
X114895Y223032D01*
X117650D02*
X115814D01*
X117650Y224869D01*
Y225328D01*
X117191Y225787D01*
X116273D01*
X115814Y225328D01*
X113518Y244292D02*
Y247047D01*
X114895D01*
X115354Y246588D01*
Y245669D01*
X114895Y245210D01*
X113518D01*
X114436D02*
X115354Y244292D01*
X116273D02*
X117191D01*
X116732D01*
Y247047D01*
X116273Y246588D01*
X136090Y228806D02*
X137926D01*
X138385Y229265D01*
Y230183D01*
X137926Y230642D01*
X136090D01*
X135630Y230183D01*
Y229265D01*
X136549Y229724D02*
X135630Y228806D01*
Y229265D02*
X136090Y228806D01*
X135630Y226051D02*
Y227887D01*
X137467Y226051D01*
X137926D01*
X138385Y226510D01*
Y227428D01*
X137926Y227887D01*
X136090Y238583D02*
X137926D01*
X138385Y239042D01*
Y239960D01*
X137926Y240419D01*
X136090D01*
X135630Y239960D01*
Y239042D01*
X136549Y239501D02*
X135630Y238583D01*
Y239042D02*
X136090Y238583D01*
X135630Y237664D02*
Y236746D01*
Y237205D01*
X138385D01*
X137926Y237664D01*
X463453Y312664D02*
X463125Y312992D01*
X462469D01*
X462141Y312664D01*
Y311352D01*
X462469Y311024D01*
X463125D01*
X463453Y311352D01*
X464109Y312992D02*
X465421D01*
X464765D01*
Y311024D01*
X466077D02*
Y312992D01*
X467061D01*
X467389Y312664D01*
Y312008D01*
X467061Y311680D01*
X466077D01*
X466733D02*
X467389Y311024D01*
X468045Y312992D02*
Y311024D01*
X469357D01*
X470013Y312008D02*
X471325D01*
X471981Y311024D02*
Y312336D01*
X472637Y312992D01*
X473292Y312336D01*
Y311024D01*
Y312008D01*
X471981D01*
X475260Y311024D02*
X473948D01*
X475260Y312336D01*
Y312664D01*
X474932Y312992D01*
X474276D01*
X473948Y312664D01*
X444687D02*
X444359Y312992D01*
X443703D01*
X443375Y312664D01*
Y311352D01*
X443703Y311024D01*
X444359D01*
X444687Y311352D01*
X445343Y312992D02*
X446655D01*
X445999D01*
Y311024D01*
X447310D02*
Y312992D01*
X448294D01*
X448622Y312664D01*
Y312008D01*
X448294Y311680D01*
X447310D01*
X447966D02*
X448622Y311024D01*
X449278Y312992D02*
Y311024D01*
X450590D01*
X451246Y312008D02*
X452558D01*
X453214Y311024D02*
Y312336D01*
X453870Y312992D01*
X454526Y312336D01*
Y311024D01*
Y312008D01*
X453214D01*
X455182Y311024D02*
X455838D01*
X455510D01*
Y312992D01*
X455182Y312664D01*
X426445D02*
X426117Y312992D01*
X425461D01*
X425133Y312664D01*
Y311352D01*
X425461Y311024D01*
X426117D01*
X426445Y311352D01*
X427101Y312992D02*
X428413D01*
X427757D01*
Y311024D01*
X429069D02*
Y312992D01*
X430053D01*
X430381Y312664D01*
Y312008D01*
X430053Y311680D01*
X429069D01*
X429725D02*
X430381Y311024D01*
X431037Y312992D02*
Y311024D01*
X432349D01*
X433005Y312008D02*
X434317D01*
X434973Y311024D02*
Y312336D01*
X435629Y312992D01*
X436285Y312336D01*
Y311024D01*
Y312008D01*
X434973D01*
X436940Y312664D02*
X437268Y312992D01*
X437924D01*
X438252Y312664D01*
Y311352D01*
X437924Y311024D01*
X437268D01*
X436940Y311352D01*
Y312664D01*
X58071Y228019D02*
Y226708D01*
X59055D01*
Y227363D01*
Y226708D01*
X60039D01*
X59055Y228675D02*
Y229987D01*
X58071Y230643D02*
X59711D01*
X60039Y230971D01*
Y231627D01*
X59711Y231955D01*
X58071D01*
X58399Y233923D02*
X58071Y233595D01*
Y232939D01*
X58399Y232611D01*
X58727D01*
X59055Y232939D01*
Y233595D01*
X59383Y233923D01*
X59711D01*
X60039Y233595D01*
Y232939D01*
X59711Y232611D01*
X58071Y234579D02*
X60039D01*
Y235563D01*
X59711Y235891D01*
X59383D01*
X59055Y235563D01*
Y234579D01*
Y235563D01*
X58727Y235891D01*
X58399D01*
X58071Y235563D01*
Y234579D01*
X150426Y219943D02*
Y221780D01*
X147671D01*
Y219943D01*
X149048Y221780D02*
Y220862D01*
X149967Y217188D02*
X150426Y217648D01*
Y218566D01*
X149967Y219025D01*
X149508D01*
X149048Y218566D01*
Y217648D01*
X148589Y217188D01*
X148130D01*
X147671Y217648D01*
Y218566D01*
X148130Y219025D01*
X147671Y216270D02*
X150426D01*
Y214893D01*
X149967Y214433D01*
X149048D01*
X148589Y214893D01*
Y216270D01*
X149967Y213515D02*
X150426Y213056D01*
Y212138D01*
X149967Y211678D01*
X149508D01*
X149048Y212138D01*
Y212597D01*
Y212138D01*
X148589Y211678D01*
X148130D01*
X147671Y212138D01*
Y213056D01*
X148130Y213515D01*
X147671Y208923D02*
Y210760D01*
X149508Y208923D01*
X149967D01*
X150426Y209383D01*
Y210301D01*
X149967Y210760D01*
X147212Y208005D02*
Y206168D01*
X147671Y205250D02*
X150426D01*
Y203872D01*
X149967Y203413D01*
X149048D01*
X148589Y203872D01*
Y205250D01*
Y204332D02*
X147671Y203413D01*
X150426Y200658D02*
Y202495D01*
X147671D01*
Y200658D01*
X149048Y202495D02*
Y201577D01*
X149967Y197903D02*
X150426Y198362D01*
Y199281D01*
X149967Y199740D01*
X149508D01*
X149048Y199281D01*
Y198362D01*
X148589Y197903D01*
X148130D01*
X147671Y198362D01*
Y199281D01*
X148130Y199740D01*
X150426Y195148D02*
Y196985D01*
X147671D01*
Y195148D01*
X149048Y196985D02*
Y196066D01*
X150426Y194230D02*
Y192393D01*
Y193312D01*
X147671D01*
X89567Y262137D02*
Y263449D01*
X87599D01*
Y262137D01*
X88583Y263449D02*
Y262793D01*
X89239Y260169D02*
X89567Y260497D01*
Y261153D01*
X89239Y261481D01*
X88911D01*
X88583Y261153D01*
Y260497D01*
X88255Y260169D01*
X87927D01*
X87599Y260497D01*
Y261153D01*
X87927Y261481D01*
X87599Y259513D02*
X89567D01*
Y258529D01*
X89239Y258201D01*
X88583D01*
X88255Y258529D01*
Y259513D01*
X89239Y257545D02*
X89567Y257217D01*
Y256561D01*
X89239Y256234D01*
X88911D01*
X88583Y256561D01*
Y256889D01*
Y256561D01*
X88255Y256234D01*
X87927D01*
X87599Y256561D01*
Y257217D01*
X87927Y257545D01*
X87599Y254266D02*
Y255577D01*
X88911Y254266D01*
X89239D01*
X89567Y254594D01*
Y255250D01*
X89239Y255577D01*
X88583Y253610D02*
Y252298D01*
X89567Y251642D02*
Y250330D01*
Y250986D01*
X87599D01*
X89567Y249674D02*
X87599Y248362D01*
X89567D02*
X87599Y249674D01*
X77756Y262137D02*
Y263449D01*
X75788D01*
Y262137D01*
X76772Y263449D02*
Y262793D01*
X77428Y260169D02*
X77756Y260497D01*
Y261153D01*
X77428Y261481D01*
X77100D01*
X76772Y261153D01*
Y260497D01*
X76444Y260169D01*
X76116D01*
X75788Y260497D01*
Y261153D01*
X76116Y261481D01*
X75788Y259513D02*
X77756D01*
Y258529D01*
X77428Y258201D01*
X76772D01*
X76444Y258529D01*
Y259513D01*
X77428Y257545D02*
X77756Y257217D01*
Y256561D01*
X77428Y256234D01*
X77100D01*
X76772Y256561D01*
Y256889D01*
Y256561D01*
X76444Y256234D01*
X76116D01*
X75788Y256561D01*
Y257217D01*
X76116Y257545D01*
X75788Y254266D02*
Y255577D01*
X77100Y254266D01*
X77428D01*
X77756Y254594D01*
Y255250D01*
X77428Y255577D01*
X76772Y253610D02*
Y252298D01*
X75788Y251642D02*
X77756D01*
Y250658D01*
X77428Y250330D01*
X76772D01*
X76444Y250658D01*
Y251642D01*
Y250986D02*
X75788Y250330D01*
X77756Y249674D02*
X75788Y248362D01*
X77756D02*
X75788Y249674D01*
X354134Y234943D02*
X356889D01*
Y236320D01*
X356430Y236779D01*
X354593D01*
X354134Y236320D01*
Y234943D01*
X356889Y237698D02*
Y238616D01*
Y238157D01*
X354134D01*
X354593Y237698D01*
Y239993D02*
X354134Y240453D01*
Y241371D01*
X354593Y241830D01*
X356430D01*
X356889Y241371D01*
Y240453D01*
X356430Y239993D01*
X354593D01*
Y242748D02*
X354134Y243208D01*
Y244126D01*
X354593Y244585D01*
X356430D01*
X356889Y244126D01*
Y243208D01*
X356430Y242748D01*
X354593D01*
X232415Y150918D02*
X231956Y151377D01*
X231038D01*
X230579Y150918D01*
Y149082D01*
X231038Y148623D01*
X231956D01*
X232415Y149082D01*
X235170Y151377D02*
X233334D01*
Y150000D01*
X234252Y150459D01*
X234711D01*
X235170Y150000D01*
Y149082D01*
X234711Y148623D01*
X233793D01*
X233334Y149082D01*
X236089Y150918D02*
X236548Y151377D01*
X237466D01*
X237925Y150918D01*
Y150459D01*
X237466Y150000D01*
X237007D01*
X237466D01*
X237925Y149541D01*
Y149082D01*
X237466Y148623D01*
X236548D01*
X236089Y149082D01*
X232612Y127100D02*
X232153Y127559D01*
X231235D01*
X230775Y127100D01*
Y125263D01*
X231235Y124804D01*
X232153D01*
X232612Y125263D01*
X235367Y127559D02*
X233530D01*
Y126181D01*
X234449Y126640D01*
X234908D01*
X235367Y126181D01*
Y125263D01*
X234908Y124804D01*
X233990D01*
X233530Y125263D01*
X238122Y124804D02*
X236285D01*
X238122Y126640D01*
Y127100D01*
X237663Y127559D01*
X236745D01*
X236285Y127100D01*
X510171Y167434D02*
X509712Y167893D01*
X508794D01*
X508334Y167434D01*
Y165597D01*
X508794Y165138D01*
X509712D01*
X510171Y165597D01*
X512467Y165138D02*
Y167893D01*
X511090Y166516D01*
X512926D01*
X515681Y167893D02*
X513845D01*
Y166516D01*
X514763Y166975D01*
X515222D01*
X515681Y166516D01*
Y165597D01*
X515222Y165138D01*
X514304D01*
X513845Y165597D01*
X588715Y152099D02*
X588255Y152559D01*
X587337D01*
X586878Y152099D01*
Y150263D01*
X587337Y149804D01*
X588255D01*
X588715Y150263D01*
X591010Y149804D02*
Y152559D01*
X589633Y151181D01*
X591469D01*
X593765Y149804D02*
Y152559D01*
X592388Y151181D01*
X594225D01*
X510630Y305052D02*
X510171Y305511D01*
X509253D01*
X508794Y305052D01*
Y303216D01*
X509253Y302756D01*
X510171D01*
X510630Y303216D01*
X512926Y302756D02*
Y305511D01*
X511549Y304134D01*
X513385D01*
X514304Y302756D02*
X515222D01*
X514763D01*
Y305511D01*
X514304Y305052D01*
X588518Y289895D02*
X588059Y290354D01*
X587140D01*
X586681Y289895D01*
Y288058D01*
X587140Y287599D01*
X588059D01*
X588518Y288058D01*
X590813Y287599D02*
Y290354D01*
X589436Y288976D01*
X591273D01*
X592191Y289895D02*
X592650Y290354D01*
X593569D01*
X594028Y289895D01*
Y288058D01*
X593569Y287599D01*
X592650D01*
X592191Y288058D01*
Y289895D01*
X262394Y130250D02*
X261934Y129791D01*
Y128872D01*
X262394Y128413D01*
X264230D01*
X264689Y128872D01*
Y129791D01*
X264230Y130250D01*
X262394Y131168D02*
X261934Y131627D01*
Y132546D01*
X262394Y133005D01*
X262853D01*
X263312Y132546D01*
Y132087D01*
Y132546D01*
X263771Y133005D01*
X264230D01*
X264689Y132546D01*
Y131627D01*
X264230Y131168D01*
X264689Y135301D02*
X261934D01*
X263312Y133923D01*
Y135760D01*
X480447Y270013D02*
X479988Y270472D01*
X479069D01*
X478610Y270013D01*
Y268176D01*
X479069Y267717D01*
X479988D01*
X480447Y268176D01*
X481365Y270013D02*
X481824Y270472D01*
X482743D01*
X483202Y270013D01*
Y269554D01*
X482743Y269094D01*
X482283D01*
X482743D01*
X483202Y268635D01*
Y268176D01*
X482743Y267717D01*
X481824D01*
X481365Y268176D01*
X484120Y270013D02*
X484579Y270472D01*
X485498D01*
X485957Y270013D01*
Y269554D01*
X485498Y269094D01*
X485039D01*
X485498D01*
X485957Y268635D01*
Y268176D01*
X485498Y267717D01*
X484579D01*
X484120Y268176D01*
X161680Y104856D02*
X161221Y104397D01*
Y103479D01*
X161680Y103019D01*
X163517D01*
X163976Y103479D01*
Y104397D01*
X163517Y104856D01*
X161680Y105775D02*
X161221Y106234D01*
Y107152D01*
X161680Y107611D01*
X162139D01*
X162598Y107152D01*
Y106693D01*
Y107152D01*
X163058Y107611D01*
X163517D01*
X163976Y107152D01*
Y106234D01*
X163517Y105775D01*
X161680Y108530D02*
X161221Y108989D01*
Y109907D01*
X161680Y110366D01*
X163517D01*
X163976Y109907D01*
Y108989D01*
X163517Y108530D01*
X161680D01*
X161385Y70998D02*
X160926Y70539D01*
Y69621D01*
X161385Y69161D01*
X163222D01*
X163681Y69621D01*
Y70539D01*
X163222Y70998D01*
X163681Y73753D02*
Y71916D01*
X161844Y73753D01*
X161385D01*
X160926Y73294D01*
Y72376D01*
X161385Y71916D01*
X163222Y74671D02*
X163681Y75130D01*
Y76049D01*
X163222Y76508D01*
X161385D01*
X160926Y76049D01*
Y75130D01*
X161385Y74671D01*
X161844D01*
X162303Y75130D01*
Y76508D01*
X144423Y82414D02*
X143964Y82874D01*
X143046D01*
X142587Y82414D01*
Y80578D01*
X143046Y80119D01*
X143964D01*
X144423Y80578D01*
X147178Y80119D02*
X145342D01*
X147178Y81955D01*
Y82414D01*
X146719Y82874D01*
X145801D01*
X145342Y82414D01*
X148097D02*
X148556Y82874D01*
X149474D01*
X149933Y82414D01*
Y81955D01*
X149474Y81496D01*
X149933Y81037D01*
Y80578D01*
X149474Y80119D01*
X148556D01*
X148097Y80578D01*
Y81037D01*
X148556Y81496D01*
X148097Y81955D01*
Y82414D01*
X148556Y81496D02*
X149474D01*
X153675Y82414D02*
X153216Y82874D01*
X152298D01*
X151838Y82414D01*
Y80578D01*
X152298Y80119D01*
X153216D01*
X153675Y80578D01*
X156430Y80119D02*
X154594D01*
X156430Y81955D01*
Y82414D01*
X155971Y82874D01*
X155053D01*
X154594Y82414D01*
X157349Y82874D02*
X159185D01*
Y82414D01*
X157349Y80578D01*
Y80119D01*
X131233Y62467D02*
X131693Y62926D01*
Y63844D01*
X131233Y64303D01*
X129397D01*
X128937Y63844D01*
Y62926D01*
X129397Y62467D01*
X128937Y59712D02*
Y61548D01*
X130774Y59712D01*
X131233D01*
X131693Y60171D01*
Y61089D01*
X131233Y61548D01*
X131693Y56957D02*
X131233Y57875D01*
X130315Y58793D01*
X129397D01*
X128937Y58334D01*
Y57416D01*
X129397Y56957D01*
X129856D01*
X130315Y57416D01*
Y58793D01*
X116011Y61680D02*
X115683Y62008D01*
X115027D01*
X114699Y61680D01*
Y60368D01*
X115027Y60040D01*
X115683D01*
X116011Y60368D01*
X117979Y60040D02*
X116667D01*
X117979Y61352D01*
Y61680D01*
X117651Y62008D01*
X116995D01*
X116667Y61680D01*
X119947Y62008D02*
X118635D01*
Y61024D01*
X119291Y61352D01*
X119619D01*
X119947Y61024D01*
Y60368D01*
X119619Y60040D01*
X118963D01*
X118635Y60368D01*
X102494Y67848D02*
X102035Y68307D01*
X101117D01*
X100657Y67848D01*
Y66011D01*
X101117Y65552D01*
X102035D01*
X102494Y66011D01*
X105249Y65552D02*
X103412D01*
X105249Y67388D01*
Y67848D01*
X104790Y68307D01*
X103872D01*
X103412Y67848D01*
X107545Y65552D02*
Y68307D01*
X106167Y66929D01*
X108004D01*
X66798Y127330D02*
X66339Y126871D01*
Y125952D01*
X66798Y125493D01*
X68635D01*
X69094Y125952D01*
Y126871D01*
X68635Y127330D01*
X69094Y128248D02*
Y129167D01*
Y128707D01*
X66339D01*
X66798Y128248D01*
X66339Y130544D02*
Y132381D01*
X66798D01*
X68635Y130544D01*
X69094D01*
X34121Y191306D02*
X33662Y190847D01*
Y189929D01*
X34121Y189470D01*
X35958D01*
X36417Y189929D01*
Y190847D01*
X35958Y191306D01*
X36417Y192225D02*
Y193143D01*
Y192684D01*
X33662D01*
X34121Y192225D01*
X33662Y196357D02*
Y194520D01*
X35039D01*
X34580Y195439D01*
Y195898D01*
X35039Y196357D01*
X35958D01*
X36417Y195898D01*
Y194980D01*
X35958Y194520D01*
X33727Y201149D02*
X33268Y200690D01*
Y199771D01*
X33727Y199312D01*
X35564D01*
X36023Y199771D01*
Y200690D01*
X35564Y201149D01*
X36023Y202067D02*
Y202986D01*
Y202526D01*
X33268D01*
X33727Y202067D01*
X36023Y205740D02*
X33268D01*
X34646Y204363D01*
Y206200D01*
X77822Y210171D02*
X77363Y209712D01*
Y208793D01*
X77822Y208334D01*
X79659D01*
X80118Y208793D01*
Y209712D01*
X79659Y210171D01*
X80118Y212467D02*
X77363D01*
X78740Y211089D01*
Y212926D01*
X64895Y262270D02*
X65354Y262729D01*
Y263648D01*
X64895Y264107D01*
X63058D01*
X62599Y263648D01*
Y262729D01*
X63058Y262270D01*
X64895Y261352D02*
X65354Y260893D01*
Y259974D01*
X64895Y259515D01*
X64436D01*
X63976Y259974D01*
Y260434D01*
Y259974D01*
X63517Y259515D01*
X63058D01*
X62599Y259974D01*
Y260893D01*
X63058Y261352D01*
X64895Y252428D02*
X65354Y252887D01*
Y253805D01*
X64895Y254264D01*
X63058D01*
X62599Y253805D01*
Y252887D01*
X63058Y252428D01*
X62599Y249673D02*
Y251509D01*
X64436Y249673D01*
X64895D01*
X65354Y250132D01*
Y251050D01*
X64895Y251509D01*
X47178Y224410D02*
X47637Y224869D01*
Y225787D01*
X47178Y226246D01*
X45342D01*
X44882Y225787D01*
Y224869D01*
X45342Y224410D01*
X44882Y223491D02*
Y222573D01*
Y223032D01*
X47637D01*
X47178Y223491D01*
D17*
X355314Y218244D02*
D03*
D18*
X403370Y271122D02*
D03*
X143134Y253996D02*
D03*
Y261870D02*
D03*
M02*
