G04*
G04 #@! TF.GenerationSoftware,Altium Limited,Altium Designer,21.3.2 (30)*
G04*
G04 Layer_Color=32896*
%FSLAX25Y25*%
%MOIN*%
G70*
G04*
G04 #@! TF.SameCoordinates,B38D24C8-20F9-4C12-AD3A-4427D22FBD9A*
G04*
G04*
G04 #@! TF.FilePolarity,Positive*
G04*
G01*
G75*
%ADD10C,0.00984*%
%ADD11C,0.02362*%
%ADD12C,0.00787*%
%ADD14C,0.01000*%
%ADD16C,0.00500*%
D10*
X643504Y249547D02*
X642766Y249973D01*
Y249121D01*
X643504Y249547D01*
X525394Y111752D02*
X524655Y112178D01*
Y111326D01*
X525394Y111752D01*
X758366Y282283D02*
X757628Y282710D01*
Y281857D01*
X758366Y282283D01*
X643504Y111752D02*
X642766Y112178D01*
Y111326D01*
X643504Y111752D01*
X525394Y249547D02*
X524655Y249973D01*
Y249121D01*
X525394Y249547D01*
X185487Y51951D02*
X184749Y52377D01*
Y51525D01*
X185487Y51951D01*
X309842Y85630D02*
X309104Y86056D01*
Y85204D01*
X309842Y85630D01*
X220177Y142835D02*
X219439Y143261D01*
Y142408D01*
X220177Y142835D01*
X258912Y39865D02*
X258174Y40291D01*
Y39438D01*
X258912Y39865D01*
D11*
X654134Y248031D02*
X653689Y248955D01*
X652690Y249183D01*
X651889Y248544D01*
Y247519D01*
X652690Y246880D01*
X653689Y247108D01*
X654134Y248031D01*
X536024Y110236D02*
X535579Y111160D01*
X534580Y111388D01*
X533778Y110749D01*
Y109724D01*
X534580Y109085D01*
X535579Y109313D01*
X536024Y110236D01*
X654134D02*
X653689Y111160D01*
X652690Y111388D01*
X651889Y110749D01*
Y109724D01*
X652690Y109085D01*
X653689Y109313D01*
X654134Y110236D01*
X536024Y248031D02*
X535579Y248955D01*
X534580Y249183D01*
X533778Y248544D01*
Y247519D01*
X534580Y246880D01*
X535579Y247108D01*
X536024Y248031D01*
D12*
X689567Y244094D02*
Y307087D01*
X649016Y244094D02*
Y307087D01*
X571457Y106299D02*
Y169291D01*
X530905Y106299D02*
Y169291D01*
X763130Y284528D02*
Y306024D01*
X752618D02*
X763130D01*
X752618Y284528D02*
Y306024D01*
Y284528D02*
X763130D01*
X625689Y138917D02*
Y147579D01*
X634154Y138917D02*
Y147579D01*
X507579Y138917D02*
Y147579D01*
X516043Y138917D02*
Y147579D01*
X625689Y276713D02*
Y285374D01*
X634154Y276713D02*
Y285374D01*
X507579Y276772D02*
Y285433D01*
X516043Y276772D02*
Y285433D01*
X712894Y291713D02*
Y300374D01*
X704429Y291713D02*
Y300374D01*
X626772Y250000D02*
Y253937D01*
X633071Y250000D02*
Y253937D01*
X705512Y250000D02*
Y253937D01*
X711811Y250000D02*
Y253937D01*
X587402Y250000D02*
Y253937D01*
X593701Y250000D02*
Y253937D01*
X508661Y250000D02*
Y253937D01*
X514961Y250000D02*
Y253937D01*
X594783Y291732D02*
Y300394D01*
X586319Y291732D02*
Y300394D01*
X552788Y235705D02*
Y240705D01*
X550288Y238205D02*
X552788Y235705D01*
X550288Y238205D02*
X552788Y240705D01*
X550288Y235705D02*
Y240705D01*
X542717Y233268D02*
Y233472D01*
Y223220D02*
Y223425D01*
Y233474D02*
X559646D01*
X542717Y223218D02*
X559646D01*
Y233268D02*
Y233472D01*
Y223220D02*
Y223425D01*
X549575Y202209D02*
Y207209D01*
X552074Y204709D01*
X549575Y202209D02*
X552074Y204709D01*
Y202209D02*
Y207209D01*
X559646Y209441D02*
Y209646D01*
Y219488D02*
Y219693D01*
X542717Y209439D02*
X559646D01*
X542717Y219695D02*
X559646D01*
X542717Y209441D02*
Y209646D01*
Y219488D02*
Y219693D01*
X513418Y235705D02*
Y240705D01*
X510918Y238205D02*
X513418Y235705D01*
X510918Y238205D02*
X513418Y240705D01*
X510918Y235705D02*
Y240705D01*
X503346Y233268D02*
Y233472D01*
Y223220D02*
Y223425D01*
Y233474D02*
X520276D01*
X503346Y223218D02*
X520276D01*
Y233268D02*
Y233472D01*
Y223220D02*
Y223425D01*
X510204Y202209D02*
Y207209D01*
X512704Y204709D01*
X510204Y202209D02*
X512704Y204709D01*
Y202209D02*
Y207209D01*
X520276Y209441D02*
Y209646D01*
Y219488D02*
Y219693D01*
X503346Y209439D02*
X520276D01*
X503346Y219695D02*
X520276D01*
X503346Y209441D02*
Y209646D01*
Y219488D02*
Y219693D01*
X552788Y97909D02*
Y102909D01*
X550288Y100409D02*
X552788Y97909D01*
X550288Y100409D02*
X552788Y102909D01*
X550288Y97909D02*
Y102909D01*
X542717Y95472D02*
Y95677D01*
Y85425D02*
Y85630D01*
Y95679D02*
X559646D01*
X542717Y85423D02*
X559646D01*
Y95472D02*
Y95677D01*
Y85425D02*
Y85630D01*
X549575Y64413D02*
Y69413D01*
X552074Y66913D01*
X549575Y64413D02*
X552074Y66913D01*
Y64413D02*
Y69413D01*
X559646Y71646D02*
Y71850D01*
Y81693D02*
Y81898D01*
X542717Y71644D02*
X559646D01*
X542717Y81900D02*
X559646D01*
X542717Y71646D02*
Y71850D01*
Y81693D02*
Y81898D01*
X513418Y97909D02*
Y102910D01*
X510918Y100409D02*
X513418Y97909D01*
X510918Y100409D02*
X513418Y102910D01*
X510918Y97909D02*
Y102910D01*
X503346Y95473D02*
Y95677D01*
Y85425D02*
Y85630D01*
Y95679D02*
X520276D01*
X503346Y85423D02*
X520276D01*
Y95473D02*
Y95677D01*
Y85425D02*
Y85630D01*
X510204Y64413D02*
Y69413D01*
X512704Y66913D01*
X510204Y64413D02*
X512704Y66913D01*
Y64413D02*
Y69413D01*
X520276Y71646D02*
Y71850D01*
Y81693D02*
Y81898D01*
X503346Y71644D02*
X520276D01*
X503346Y81900D02*
X520276D01*
X503346Y71646D02*
Y71850D01*
Y81693D02*
Y81898D01*
X705512Y112205D02*
Y116142D01*
X711811Y112205D02*
Y116142D01*
X626772Y112205D02*
Y116142D01*
X633071Y112205D02*
Y116142D01*
X593701Y112205D02*
Y116142D01*
X587402Y112205D02*
Y116142D01*
X514961Y112205D02*
Y116142D01*
X508662Y112205D02*
Y116142D01*
X586319Y153917D02*
Y162579D01*
X594783Y153917D02*
Y162579D01*
X712894Y153917D02*
Y162579D01*
X704429Y153917D02*
Y162579D01*
X689567Y106299D02*
Y169291D01*
X649016Y106299D02*
Y169291D01*
X571457Y244094D02*
Y307087D01*
X530905Y244094D02*
Y307087D01*
X278051Y42913D02*
Y43701D01*
X273130Y42913D02*
Y43701D01*
X296555Y38976D02*
Y39764D01*
X291634Y38976D02*
Y39764D01*
X182382Y40039D02*
Y47126D01*
X187579Y40039D02*
X187697D01*
X182382D02*
X182500D01*
X187697D02*
Y47126D01*
X187579D02*
X187697D01*
X182382D02*
X182500D01*
X310630Y51476D02*
X311417D01*
X310630Y56398D02*
X311417D01*
X296850Y61713D02*
X297638D01*
X296850Y65847D02*
X297638D01*
X296850Y51870D02*
X297638D01*
X296850Y56004D02*
X297638D01*
X310630Y61319D02*
X311417D01*
X310630Y66240D02*
X311417D01*
X296850Y71555D02*
X297638D01*
X296850Y75689D02*
X297638D01*
X310630Y71161D02*
X311417D01*
X310630Y76083D02*
X311417D01*
X323327Y94095D02*
Y94882D01*
X318406Y94095D02*
Y94882D01*
X325213Y104900D02*
Y116153D01*
X316519Y104900D02*
Y116153D01*
X310827Y95374D02*
Y109350D01*
X279724Y95374D02*
Y109350D01*
X385531Y210433D02*
Y211221D01*
X390059Y210433D02*
Y211221D01*
X373425Y221949D02*
X374213D01*
X373425Y226870D02*
X374213D01*
X371365Y216339D02*
X373028D01*
X371365Y204921D02*
Y207920D01*
Y213340D02*
Y216339D01*
Y204921D02*
X373028D01*
X230020Y113779D02*
Y122441D01*
X238484Y113779D02*
Y122441D01*
Y137402D02*
Y146063D01*
X230020Y137402D02*
Y146063D01*
X209055Y142913D02*
X211221D01*
X209055Y116929D02*
X211221D01*
Y142913D01*
X7283Y86910D02*
X15945D01*
X7283Y78445D02*
X15945D01*
X7480Y98721D02*
X16142D01*
X7480Y90256D02*
X16142D01*
X113362Y82972D02*
X122859D01*
X113362Y74508D02*
X122859D01*
X42913Y75787D02*
Y81693D01*
X55512Y75787D02*
Y81693D01*
X31102Y102461D02*
X31890D01*
X31102Y98327D02*
X31890D01*
X31102Y80807D02*
X31890D01*
X31102Y76673D02*
X31890D01*
X145276Y249705D02*
X153937D01*
X145255Y258200D02*
X153916D01*
X98721Y151181D02*
Y159843D01*
X90256Y151181D02*
Y159843D01*
X264252Y54744D02*
Y63366D01*
X252677Y54744D02*
Y63366D01*
X255807Y27953D02*
Y35039D01*
X261004Y27953D02*
X261122D01*
X255807D02*
X255925D01*
X261122D02*
Y35039D01*
X261004D02*
X261122D01*
X255807D02*
X255925D01*
D14*
X688183Y313319D02*
Y309384D01*
X685559D01*
X681623D02*
X684247D01*
X681623Y312007D01*
Y312664D01*
X682279Y313319D01*
X683591D01*
X684247Y312664D01*
X680311Y310040D02*
X679656Y309384D01*
X678344D01*
X677688Y310040D01*
Y312664D01*
X678344Y313319D01*
X679656D01*
X680311Y312664D01*
Y312007D01*
X679656Y311352D01*
X677688D01*
X676376Y312664D02*
X675720Y313319D01*
X674408D01*
X673752Y312664D01*
Y312007D01*
X674408Y311352D01*
X673752Y310696D01*
Y310040D01*
X674408Y309384D01*
X675720D01*
X676376Y310040D01*
Y310696D01*
X675720Y311352D01*
X676376Y312007D01*
Y312664D01*
X675720Y311352D02*
X674408D01*
X672440Y309384D02*
Y313319D01*
X670472D01*
X669816Y312664D01*
Y311352D01*
X670472Y310696D01*
X672440D01*
X668504Y308728D02*
X665880D01*
X664569Y309384D02*
Y313319D01*
X663257Y312007D01*
X661945Y313319D01*
Y309384D01*
X660633D02*
X659321D01*
X659977D01*
Y313319D01*
X660633Y312664D01*
X657353Y308728D02*
X654729D01*
X650793Y309384D02*
X653417D01*
X650793Y312007D01*
Y312664D01*
X651449Y313319D01*
X652761D01*
X653417Y312664D01*
X569548Y174934D02*
Y170998D01*
X566924D01*
X562988D02*
X565612D01*
X562988Y173622D01*
Y174278D01*
X563644Y174934D01*
X564956D01*
X565612Y174278D01*
X561676Y171654D02*
X561020Y170998D01*
X559708D01*
X559053Y171654D01*
Y174278D01*
X559708Y174934D01*
X561020D01*
X561676Y174278D01*
Y173622D01*
X561020Y172966D01*
X559053D01*
X557741Y174278D02*
X557085Y174934D01*
X555773D01*
X555117Y174278D01*
Y173622D01*
X555773Y172966D01*
X555117Y172310D01*
Y171654D01*
X555773Y170998D01*
X557085D01*
X557741Y171654D01*
Y172310D01*
X557085Y172966D01*
X557741Y173622D01*
Y174278D01*
X557085Y172966D02*
X555773D01*
X553805Y170998D02*
Y174934D01*
X551837D01*
X551181Y174278D01*
Y172966D01*
X551837Y172310D01*
X553805D01*
X549869Y170342D02*
X547245D01*
X545933Y170998D02*
Y174934D01*
X544622Y173622D01*
X543310Y174934D01*
Y170998D01*
X540030D02*
Y174934D01*
X541998Y172966D01*
X539374D01*
X538062Y170342D02*
X535438D01*
X534126Y170998D02*
X532814D01*
X533470D01*
Y174934D01*
X534126Y174278D01*
X688117Y175524D02*
Y171589D01*
X685493D01*
X681558D02*
X684181D01*
X681558Y174212D01*
Y174868D01*
X682214Y175524D01*
X683526D01*
X684181Y174868D01*
X680246Y172244D02*
X679590Y171589D01*
X678278D01*
X677622Y172244D01*
Y174868D01*
X678278Y175524D01*
X679590D01*
X680246Y174868D01*
Y174212D01*
X679590Y173556D01*
X677622D01*
X676310Y174868D02*
X675654Y175524D01*
X674342D01*
X673686Y174868D01*
Y174212D01*
X674342Y173556D01*
X673686Y172900D01*
Y172244D01*
X674342Y171589D01*
X675654D01*
X676310Y172244D01*
Y172900D01*
X675654Y173556D01*
X676310Y174212D01*
Y174868D01*
X675654Y173556D02*
X674342D01*
X672374Y171589D02*
Y175524D01*
X670406D01*
X669750Y174868D01*
Y173556D01*
X670406Y172900D01*
X672374D01*
X668438Y170932D02*
X665815D01*
X664503Y171589D02*
Y175524D01*
X663191Y174212D01*
X661879Y175524D01*
Y171589D01*
X658599D02*
Y175524D01*
X660567Y173556D01*
X657943D01*
X656631Y170932D02*
X654007D01*
X650072Y171589D02*
X652696D01*
X650072Y174212D01*
Y174868D01*
X650728Y175524D01*
X652040D01*
X652696Y174868D01*
X570007Y312926D02*
Y308990D01*
X567383D01*
X563448D02*
X566072D01*
X563448Y311614D01*
Y312270D01*
X564104Y312926D01*
X565416D01*
X566072Y312270D01*
X562136Y309646D02*
X561480Y308990D01*
X560168D01*
X559512Y309646D01*
Y312270D01*
X560168Y312926D01*
X561480D01*
X562136Y312270D01*
Y311614D01*
X561480Y310958D01*
X559512D01*
X558200Y312270D02*
X557544Y312926D01*
X556232D01*
X555576Y312270D01*
Y311614D01*
X556232Y310958D01*
X555576Y310302D01*
Y309646D01*
X556232Y308990D01*
X557544D01*
X558200Y309646D01*
Y310302D01*
X557544Y310958D01*
X558200Y311614D01*
Y312270D01*
X557544Y310958D02*
X556232D01*
X554264Y308990D02*
Y312926D01*
X552296D01*
X551641Y312270D01*
Y310958D01*
X552296Y310302D01*
X554264D01*
X550329Y308334D02*
X547705D01*
X546393Y308990D02*
Y312926D01*
X545081Y311614D01*
X543769Y312926D01*
Y308990D01*
X542457D02*
X541145D01*
X541801D01*
Y312926D01*
X542457Y312270D01*
X539177Y308334D02*
X536553D01*
X535242Y308990D02*
X533930D01*
X534586D01*
Y312926D01*
X535242Y312270D01*
X217717Y133674D02*
X220997D01*
X221653Y133018D01*
Y131706D01*
X220997Y131050D01*
X217717D01*
X220997Y129738D02*
X221653Y129082D01*
Y127770D01*
X220997Y127114D01*
X218373D01*
X217717Y127770D01*
Y129082D01*
X218373Y129738D01*
X219029D01*
X219685Y129082D01*
Y127114D01*
X309185Y108858D02*
Y105578D01*
X308529Y104922D01*
X307217D01*
X306561Y105578D01*
Y108858D01*
X305250D02*
X302626D01*
Y108202D01*
X305250Y105578D01*
Y104922D01*
X386195Y209974D02*
X388819D01*
X389475Y209318D01*
Y208006D01*
X388819Y207350D01*
X386195D01*
X385539Y208006D01*
Y209318D01*
X386851Y208662D02*
X385539Y209974D01*
Y209318D02*
X386195Y209974D01*
X388819Y211286D02*
X389475Y211942D01*
Y213254D01*
X388819Y213910D01*
X388163D01*
X387507Y213254D01*
Y212598D01*
Y213254D01*
X386851Y213910D01*
X386195D01*
X385539Y213254D01*
Y211942D01*
X386195Y211286D01*
X743851Y302667D02*
Y306666D01*
X746850D01*
Y304666D01*
Y306666D01*
X749849D01*
Y300668D02*
X745851D01*
X743851Y298668D01*
X745851Y296669D01*
X749849D01*
X746850D01*
Y300668D01*
X749849Y294670D02*
X743851D01*
X749849Y290671D01*
X743851D01*
X749849Y284673D02*
Y288671D01*
X745851Y284673D01*
X744851D01*
X743851Y285672D01*
Y287672D01*
X744851Y288671D01*
X549804Y94225D02*
X552559D01*
Y92847D01*
X552099Y92388D01*
X550263D01*
X549804Y92847D01*
Y94225D01*
Y89633D02*
Y91470D01*
X551181D01*
X550722Y90551D01*
Y90092D01*
X551181Y89633D01*
X552099D01*
X552559Y90092D01*
Y91010D01*
X552099Y91470D01*
X552559Y87337D02*
X549804D01*
X551181Y88714D01*
Y86878D01*
X510433Y94225D02*
X513189D01*
Y92847D01*
X512729Y92388D01*
X510893D01*
X510433Y92847D01*
Y94225D01*
Y89633D02*
Y91470D01*
X511811D01*
X511352Y90551D01*
Y90092D01*
X511811Y89633D01*
X512729D01*
X513189Y90092D01*
Y91010D01*
X512729Y91470D01*
X510893Y88714D02*
X510433Y88255D01*
Y87337D01*
X510893Y86878D01*
X511352D01*
X511811Y87337D01*
Y87796D01*
Y87337D01*
X512270Y86878D01*
X512729D01*
X513189Y87337D01*
Y88255D01*
X512729Y88714D01*
X549804Y80445D02*
X552559D01*
Y79067D01*
X552099Y78608D01*
X550263D01*
X549804Y79067D01*
Y80445D01*
Y75853D02*
Y77690D01*
X551181D01*
X550722Y76772D01*
Y76313D01*
X551181Y75853D01*
X552099D01*
X552559Y76313D01*
Y77231D01*
X552099Y77690D01*
X550263Y74935D02*
X549804Y74476D01*
Y73558D01*
X550263Y73098D01*
X552099D01*
X552559Y73558D01*
Y74476D01*
X552099Y74935D01*
X550263D01*
X510433Y80445D02*
X513189D01*
Y79067D01*
X512729Y78608D01*
X510893D01*
X510433Y79067D01*
Y80445D01*
X513189Y76313D02*
X510433D01*
X511811Y77690D01*
Y75853D01*
X512729Y74935D02*
X513189Y74476D01*
Y73558D01*
X512729Y73098D01*
X510893D01*
X510433Y73558D01*
Y74476D01*
X510893Y74935D01*
X511352D01*
X511811Y74476D01*
Y73098D01*
X549803Y230563D02*
X552559D01*
Y229186D01*
X552099Y228727D01*
X550263D01*
X549803Y229186D01*
Y230563D01*
Y225972D02*
X550263Y226890D01*
X551181Y227808D01*
X552099D01*
X552559Y227349D01*
Y226431D01*
X552099Y225972D01*
X551640D01*
X551181Y226431D01*
Y227808D01*
X509843Y231429D02*
X513779D01*
Y229462D01*
X513123Y228806D01*
X510499D01*
X509843Y229462D01*
Y231429D01*
Y224870D02*
Y227494D01*
X511811D01*
X511155Y226182D01*
Y225526D01*
X511811Y224870D01*
X513123D01*
X513779Y225526D01*
Y226838D01*
X513123Y227494D01*
X549607Y216922D02*
X552362D01*
Y215544D01*
X551903Y215085D01*
X550066D01*
X549607Y215544D01*
Y216922D01*
X552362Y212330D02*
Y214167D01*
X550525Y212330D01*
X550066D01*
X549607Y212789D01*
Y213708D01*
X550066Y214167D01*
X509646Y216974D02*
X513582D01*
Y215006D01*
X512926Y214350D01*
X510302D01*
X509646Y215006D01*
Y216974D01*
X513582Y213038D02*
Y211727D01*
Y212383D01*
X509646D01*
X510302Y213038D01*
X51508Y80052D02*
X52164Y80708D01*
X53476D01*
X54132Y80052D01*
Y77428D01*
X53476Y76772D01*
X52164D01*
X51508Y77428D01*
X50196Y76772D02*
X48885D01*
X49541D01*
Y80708D01*
X50196Y80052D01*
X44293Y80708D02*
X45605Y80052D01*
X46917Y78740D01*
Y77428D01*
X46261Y76772D01*
X44949D01*
X44293Y77428D01*
Y78084D01*
X44949Y78740D01*
X46917D01*
D16*
X633398Y125001D02*
Y127755D01*
X632020D01*
X631561Y127296D01*
Y126378D01*
X632020Y125919D01*
X633398D01*
X632479D02*
X631561Y125001D01*
X628806Y127755D02*
X630643D01*
Y126378D01*
X629724Y126837D01*
X629265D01*
X628806Y126378D01*
Y125460D01*
X629265Y125001D01*
X630184D01*
X630643Y125460D01*
X626051Y127755D02*
X627888D01*
Y126378D01*
X626969Y126837D01*
X626510D01*
X626051Y126378D01*
Y125460D01*
X626510Y125001D01*
X627429D01*
X627888Y125460D01*
X712532Y124607D02*
Y127362D01*
X711154D01*
X710695Y126903D01*
Y125984D01*
X711154Y125525D01*
X712532D01*
X711613D02*
X710695Y124607D01*
X707940Y127362D02*
X709777D01*
Y125984D01*
X708858Y126443D01*
X708399D01*
X707940Y125984D01*
Y125066D01*
X708399Y124607D01*
X709317D01*
X709777Y125066D01*
X705644Y124607D02*
Y127362D01*
X707022Y125984D01*
X705185D01*
X633791Y262008D02*
Y264763D01*
X632414D01*
X631955Y264304D01*
Y263386D01*
X632414Y262927D01*
X633791D01*
X632873D02*
X631955Y262008D01*
X629659D02*
Y264763D01*
X631036Y263386D01*
X629200D01*
X628281Y264304D02*
X627822Y264763D01*
X626904D01*
X626445Y264304D01*
Y263845D01*
X626904Y263386D01*
X627363D01*
X626904D01*
X626445Y262927D01*
Y262468D01*
X626904Y262008D01*
X627822D01*
X628281Y262468D01*
X712532Y262205D02*
Y264960D01*
X711154D01*
X710695Y264501D01*
Y263583D01*
X711154Y263123D01*
X712532D01*
X711613D02*
X710695Y262205D01*
X708399D02*
Y264960D01*
X709777Y263583D01*
X707940D01*
X705185Y262205D02*
X707022D01*
X705185Y264042D01*
Y264501D01*
X705644Y264960D01*
X706562D01*
X707022Y264501D01*
X710039Y167237D02*
X710498Y167696D01*
X711416D01*
X711876Y167237D01*
Y165401D01*
X711416Y164941D01*
X710498D01*
X710039Y165401D01*
X707284Y167696D02*
X709121D01*
Y166319D01*
X708202Y166778D01*
X707743D01*
X707284Y166319D01*
Y165401D01*
X707743Y164941D01*
X708662D01*
X709121Y165401D01*
X706366Y164941D02*
X705447D01*
X705906D01*
Y167696D01*
X706366Y167237D01*
X631758Y152099D02*
X632217Y152559D01*
X633136D01*
X633595Y152099D01*
Y150263D01*
X633136Y149804D01*
X632217D01*
X631758Y150263D01*
X629003Y152559D02*
X630840D01*
Y151181D01*
X629921Y151640D01*
X629462D01*
X629003Y151181D01*
Y150263D01*
X629462Y149804D01*
X630380D01*
X630840Y150263D01*
X628085Y152099D02*
X627625Y152559D01*
X626707D01*
X626248Y152099D01*
Y150263D01*
X626707Y149804D01*
X627625D01*
X628085Y150263D01*
Y152099D01*
X710498Y304639D02*
X710957Y305098D01*
X711876D01*
X712335Y304639D01*
Y302802D01*
X711876Y302343D01*
X710957D01*
X710498Y302802D01*
X709580Y304639D02*
X709121Y305098D01*
X708202D01*
X707743Y304639D01*
Y304180D01*
X708202Y303720D01*
X708661D01*
X708202D01*
X707743Y303261D01*
Y302802D01*
X708202Y302343D01*
X709121D01*
X709580Y302802D01*
X706825D02*
X706366Y302343D01*
X705447D01*
X704988Y302802D01*
Y304639D01*
X705447Y305098D01*
X706366D01*
X706825Y304639D01*
Y304180D01*
X706366Y303720D01*
X704988D01*
X631758Y289698D02*
X632217Y290157D01*
X633136D01*
X633595Y289698D01*
Y287861D01*
X633136Y287402D01*
X632217D01*
X631758Y287861D01*
X630840Y289698D02*
X630380Y290157D01*
X629462D01*
X629003Y289698D01*
Y289239D01*
X629462Y288779D01*
X629921D01*
X629462D01*
X629003Y288320D01*
Y287861D01*
X629462Y287402D01*
X630380D01*
X630840Y287861D01*
X628085Y289698D02*
X627625Y290157D01*
X626707D01*
X626248Y289698D01*
Y289239D01*
X626707Y288779D01*
X626248Y288320D01*
Y287861D01*
X626707Y287402D01*
X627625D01*
X628085Y287861D01*
Y288320D01*
X627625Y288779D01*
X628085Y289239D01*
Y289698D01*
X627625Y288779D02*
X626707D01*
X192322Y44949D02*
X189567D01*
Y46326D01*
X190026Y46785D01*
X191863D01*
X192322Y46326D01*
Y44949D01*
Y49540D02*
X191863Y48622D01*
X190945Y47704D01*
X190026D01*
X189567Y48163D01*
Y49081D01*
X190026Y49540D01*
X190486D01*
X190945Y49081D01*
Y47704D01*
X191863Y50459D02*
X192322Y50918D01*
Y51836D01*
X191863Y52295D01*
X191404D01*
X190945Y51836D01*
X190486Y52295D01*
X190026D01*
X189567Y51836D01*
Y50918D01*
X190026Y50459D01*
X190486D01*
X190945Y50918D01*
X191404Y50459D01*
X191863D01*
X190945Y50918D02*
Y51836D01*
X11220Y209086D02*
X8465D01*
Y207708D01*
X8924Y207249D01*
X9843D01*
X10302Y207708D01*
Y209086D01*
Y208168D02*
X11220Y207249D01*
X9383Y206331D02*
X10761D01*
X11220Y205872D01*
Y204494D01*
X9383D01*
X11220Y203576D02*
Y202198D01*
X10761Y201739D01*
X10302Y202198D01*
Y203117D01*
X9843Y203576D01*
X9383Y203117D01*
Y201739D01*
X8465Y200821D02*
X11220D01*
Y199443D01*
X10761Y198984D01*
X10302D01*
X9843D01*
X9383Y199443D01*
Y200821D01*
X11220Y196229D02*
Y198066D01*
X9383Y196229D01*
X8924D01*
X8465Y196688D01*
Y197607D01*
X8924Y198066D01*
X11220Y224571D02*
X8465D01*
Y223194D01*
X8924Y222735D01*
X9843D01*
X10302Y223194D01*
Y224571D01*
Y223653D02*
X11220Y222735D01*
X9383Y221816D02*
X10761D01*
X11220Y221357D01*
Y219980D01*
X9383D01*
X11220Y219061D02*
Y217684D01*
X10761Y217225D01*
X10302Y217684D01*
Y218602D01*
X9843Y219061D01*
X9383Y218602D01*
Y217225D01*
X8465Y216306D02*
X11220D01*
Y214929D01*
X10761Y214470D01*
X10302D01*
X9843D01*
X9383Y214929D01*
Y216306D01*
X11220Y213551D02*
Y212633D01*
Y213092D01*
X8465D01*
X8924Y213551D01*
X297965Y47245D02*
Y50000D01*
X296587D01*
X296128Y49540D01*
Y48622D01*
X296587Y48163D01*
X297965D01*
X297046D02*
X296128Y47245D01*
X295210Y49540D02*
X294750Y50000D01*
X293832D01*
X293373Y49540D01*
Y49081D01*
X293832Y48622D01*
X293373Y48163D01*
Y47704D01*
X293832Y47245D01*
X294750D01*
X295210Y47704D01*
Y48163D01*
X294750Y48622D01*
X295210Y49081D01*
Y49540D01*
X294750Y48622D02*
X293832D01*
X290618Y47245D02*
X292455D01*
X290618Y49081D01*
Y49540D01*
X291077Y50000D01*
X291996D01*
X292455Y49540D01*
X279264Y51182D02*
Y53937D01*
X277886D01*
X277427Y53477D01*
Y52559D01*
X277886Y52100D01*
X279264D01*
X278346D02*
X277427Y51182D01*
X276509Y53937D02*
X274672D01*
Y53477D01*
X276509Y51641D01*
Y51182D01*
X273754Y51641D02*
X273295Y51182D01*
X272376D01*
X271917Y51641D01*
Y53477D01*
X272376Y53937D01*
X273295D01*
X273754Y53477D01*
Y53018D01*
X273295Y52559D01*
X271917D01*
X391666Y218504D02*
Y221259D01*
X390288D01*
X389829Y220800D01*
Y219882D01*
X390288Y219423D01*
X391666D01*
X390747D02*
X389829Y218504D01*
X388911Y221259D02*
X387074D01*
Y220800D01*
X388911Y218964D01*
Y218504D01*
X384778D02*
Y221259D01*
X386156Y219882D01*
X384319D01*
X366535Y228083D02*
X363780D01*
Y226705D01*
X364239Y226246D01*
X365158D01*
X365617Y226705D01*
Y228083D01*
Y227165D02*
X366535Y226246D01*
X363780Y225328D02*
Y223491D01*
X364239D01*
X366076Y225328D01*
X366535D01*
X364239Y222573D02*
X363780Y222114D01*
Y221195D01*
X364239Y220736D01*
X364698D01*
X365158Y221195D01*
Y221654D01*
Y221195D01*
X365617Y220736D01*
X366076D01*
X366535Y221195D01*
Y222114D01*
X366076Y222573D01*
X515484Y124607D02*
Y127362D01*
X514107D01*
X513648Y126903D01*
Y125984D01*
X514107Y125525D01*
X515484D01*
X514566D02*
X513648Y124607D01*
X510893Y127362D02*
X512729D01*
Y125984D01*
X511811Y126443D01*
X511352D01*
X510893Y125984D01*
Y125066D01*
X511352Y124607D01*
X512270D01*
X512729Y125066D01*
X509974Y126903D02*
X509515Y127362D01*
X508597D01*
X508138Y126903D01*
Y126443D01*
X508597Y125984D01*
X509056D01*
X508597D01*
X508138Y125525D01*
Y125066D01*
X508597Y124607D01*
X509515D01*
X509974Y125066D01*
X594225Y125197D02*
Y127952D01*
X592847D01*
X592388Y127493D01*
Y126575D01*
X592847Y126116D01*
X594225D01*
X593306D02*
X592388Y125197D01*
X589633Y127952D02*
X591469D01*
Y126575D01*
X590551Y127034D01*
X590092D01*
X589633Y126575D01*
Y125656D01*
X590092Y125197D01*
X591010D01*
X591469Y125656D01*
X586878Y125197D02*
X588715D01*
X586878Y127034D01*
Y127493D01*
X587337Y127952D01*
X588255D01*
X588715Y127493D01*
X515025Y262008D02*
Y264763D01*
X513648D01*
X513189Y264304D01*
Y263386D01*
X513648Y262927D01*
X515025D01*
X514107D02*
X513189Y262008D01*
X510893D02*
Y264763D01*
X512270Y263386D01*
X510433D01*
X509515Y262008D02*
X508597D01*
X509056D01*
Y264763D01*
X509515Y264304D01*
X594225Y262205D02*
Y264960D01*
X592847D01*
X592388Y264501D01*
Y263583D01*
X592847Y263123D01*
X594225D01*
X593306D02*
X592388Y262205D01*
X590092D02*
Y264960D01*
X591469Y263583D01*
X589633D01*
X588715Y264501D02*
X588255Y264960D01*
X587337D01*
X586878Y264501D01*
Y262664D01*
X587337Y262205D01*
X588255D01*
X588715Y262664D01*
Y264501D01*
X324736Y84449D02*
Y87204D01*
X323359D01*
X322900Y86745D01*
Y85827D01*
X323359Y85368D01*
X324736D01*
X323818D02*
X322900Y84449D01*
X321981Y86745D02*
X321522Y87204D01*
X320604D01*
X320145Y86745D01*
Y86286D01*
X320604Y85827D01*
X321063D01*
X320604D01*
X320145Y85368D01*
Y84908D01*
X320604Y84449D01*
X321522D01*
X321981Y84908D01*
X319226D02*
X318767Y84449D01*
X317849D01*
X317390Y84908D01*
Y86745D01*
X317849Y87204D01*
X318767D01*
X319226Y86745D01*
Y86286D01*
X318767Y85827D01*
X317390D01*
X319292Y50067D02*
X322047D01*
Y51444D01*
X321588Y51903D01*
X320669D01*
X320210Y51444D01*
Y50067D01*
Y50985D02*
X319292Y51903D01*
X321588Y52822D02*
X322047Y53281D01*
Y54199D01*
X321588Y54659D01*
X321129D01*
X320669Y54199D01*
Y53740D01*
Y54199D01*
X320210Y54659D01*
X319751D01*
X319292Y54199D01*
Y53281D01*
X319751Y52822D01*
X321588Y55577D02*
X322047Y56036D01*
Y56954D01*
X321588Y57414D01*
X321129D01*
X320669Y56954D01*
X320210Y57414D01*
X319751D01*
X319292Y56954D01*
Y56036D01*
X319751Y55577D01*
X320210D01*
X320669Y56036D01*
X321129Y55577D01*
X321588D01*
X320669Y56036D02*
Y56954D01*
X319292Y60106D02*
X322047D01*
Y61484D01*
X321588Y61943D01*
X320669D01*
X320210Y61484D01*
Y60106D01*
Y61024D02*
X319292Y61943D01*
X321588Y62861D02*
X322047Y63320D01*
Y64239D01*
X321588Y64698D01*
X321129D01*
X320669Y64239D01*
Y63779D01*
Y64239D01*
X320210Y64698D01*
X319751D01*
X319292Y64239D01*
Y63320D01*
X319751Y62861D01*
X322047Y65616D02*
Y67453D01*
X321588D01*
X319751Y65616D01*
X319292D01*
Y69949D02*
X322047D01*
Y71326D01*
X321588Y71785D01*
X320669D01*
X320210Y71326D01*
Y69949D01*
Y70867D02*
X319292Y71785D01*
X321588Y72704D02*
X322047Y73163D01*
Y74081D01*
X321588Y74540D01*
X321129D01*
X320669Y74081D01*
Y73622D01*
Y74081D01*
X320210Y74540D01*
X319751D01*
X319292Y74081D01*
Y73163D01*
X319751Y72704D01*
X322047Y77295D02*
X321588Y76377D01*
X320669Y75459D01*
X319751D01*
X319292Y75918D01*
Y76836D01*
X319751Y77295D01*
X320210D01*
X320669Y76836D01*
Y75459D01*
X56200Y119815D02*
X53445D01*
Y118438D01*
X53904Y117978D01*
X54823D01*
X55282Y118438D01*
Y119815D01*
Y118897D02*
X56200Y117978D01*
Y115223D02*
Y117060D01*
X54364Y115223D01*
X53904D01*
X53445Y115683D01*
Y116601D01*
X53904Y117060D01*
Y114305D02*
X53445Y113846D01*
Y112927D01*
X53904Y112468D01*
X54364D01*
X54823Y112927D01*
Y113387D01*
Y112927D01*
X55282Y112468D01*
X55741D01*
X56200Y112927D01*
Y113846D01*
X55741Y114305D01*
X45539Y92716D02*
Y89961D01*
X46917D01*
X47376Y90420D01*
Y91339D01*
X46917Y91798D01*
X45539D01*
X46458D02*
X47376Y92716D01*
X50131D02*
X48294D01*
X50131Y90879D01*
Y90420D01*
X49672Y89961D01*
X48753D01*
X48294Y90420D01*
X52886Y92716D02*
X51049D01*
X52886Y90879D01*
Y90420D01*
X52427Y89961D01*
X51508D01*
X51049Y90420D01*
X25787Y103838D02*
X23032D01*
Y102460D01*
X23491Y102001D01*
X24409D01*
X24869Y102460D01*
Y103838D01*
Y102919D02*
X25787Y102001D01*
Y101082D02*
Y100164D01*
Y100623D01*
X23032D01*
X23491Y101082D01*
X23032Y98787D02*
Y96950D01*
X23491D01*
X25328Y98787D01*
X25787D01*
X25787Y82184D02*
X23032D01*
Y80806D01*
X23491Y80347D01*
X24409D01*
X24869Y80806D01*
Y82184D01*
Y81266D02*
X25787Y80347D01*
Y79429D02*
Y78511D01*
Y78970D01*
X23032D01*
X23491Y79429D01*
X23032Y75296D02*
X23491Y76215D01*
X24409Y77133D01*
X25328D01*
X25787Y76674D01*
Y75756D01*
X25328Y75296D01*
X24869D01*
X24409Y75756D01*
Y77133D01*
X123522Y215158D02*
Y217913D01*
X122145D01*
X121686Y217454D01*
Y216535D01*
X122145Y216076D01*
X123522D01*
X122604D02*
X121686Y215158D01*
X120767D02*
X119849D01*
X120308D01*
Y217913D01*
X120767Y217454D01*
X118472D02*
X118012Y217913D01*
X117094D01*
X116635Y217454D01*
Y216995D01*
X117094Y216535D01*
X117553D01*
X117094D01*
X116635Y216076D01*
Y215617D01*
X117094Y215158D01*
X118012D01*
X118472Y215617D01*
X143208Y214370D02*
Y217126D01*
X141830D01*
X141371Y216666D01*
Y215748D01*
X141830Y215289D01*
X143208D01*
X142289D02*
X141371Y214370D01*
X140453D02*
X139534D01*
X139993D01*
Y217126D01*
X140453Y216666D01*
X136320Y214370D02*
X138157D01*
X136320Y216207D01*
Y216666D01*
X136779Y217126D01*
X137698D01*
X138157Y216666D01*
X22965Y89567D02*
Y87599D01*
X21654D01*
X20998D02*
X20342D01*
X20670D01*
Y89567D01*
X20998Y89239D01*
X270078Y52102D02*
Y50265D01*
X268701D01*
Y51183D01*
Y50265D01*
X267323D01*
X268701Y53020D02*
Y54857D01*
X270078Y55775D02*
X267782D01*
X267323Y56234D01*
Y57152D01*
X267782Y57612D01*
X270078D01*
X269619Y60367D02*
X270078Y59908D01*
Y58989D01*
X269619Y58530D01*
X269160D01*
X268701Y58989D01*
Y59908D01*
X268242Y60367D01*
X267782D01*
X267323Y59908D01*
Y58989D01*
X267782Y58530D01*
X270078Y61285D02*
X267323D01*
Y62663D01*
X267782Y63122D01*
X268242D01*
X268701Y62663D01*
Y61285D01*
Y62663D01*
X269160Y63122D01*
X269619D01*
X270078Y62663D01*
Y61285D01*
X267323Y65877D02*
Y64040D01*
X269160Y65877D01*
X269619D01*
X270078Y65418D01*
Y64499D01*
X269619Y64040D01*
X300523Y80085D02*
X301835D01*
Y78117D01*
X300523D01*
X301835Y79101D02*
X301180D01*
X299868Y78117D02*
Y80085D01*
X298556Y78117D01*
Y80085D01*
X296588Y79757D02*
X296916Y80085D01*
X297572D01*
X297900Y79757D01*
Y78445D01*
X297572Y78117D01*
X296916D01*
X296588Y78445D01*
X295932Y77789D02*
X294620D01*
X293964Y78117D02*
Y79429D01*
X293308Y80085D01*
X292652Y79429D01*
Y78117D01*
Y79101D01*
X293964D01*
X290684Y78117D02*
X291996D01*
X290684Y79429D01*
Y79757D01*
X291012Y80085D01*
X291668D01*
X291996Y79757D01*
X300589Y69849D02*
X301901D01*
Y67881D01*
X300589D01*
X301901Y68865D02*
X301245D01*
X299933Y67881D02*
Y69849D01*
X298621Y67881D01*
Y69849D01*
X296654Y69521D02*
X296982Y69849D01*
X297638D01*
X297965Y69521D01*
Y68209D01*
X297638Y67881D01*
X296982D01*
X296654Y68209D01*
X295998Y67553D02*
X294686D01*
X294030Y67881D02*
Y69193D01*
X293374Y69849D01*
X292718Y69193D01*
Y67881D01*
Y68865D01*
X294030D01*
X292062Y67881D02*
X291406D01*
X291734D01*
Y69849D01*
X292062Y69521D01*
X300720Y60006D02*
X302032D01*
Y58038D01*
X300720D01*
X302032Y59022D02*
X301376D01*
X300064Y58038D02*
Y60006D01*
X298752Y58038D01*
Y60006D01*
X296785Y59678D02*
X297113Y60006D01*
X297769D01*
X298097Y59678D01*
Y58366D01*
X297769Y58038D01*
X297113D01*
X296785Y58366D01*
X296129Y57710D02*
X294817D01*
X294161Y58038D02*
Y59350D01*
X293505Y60006D01*
X292849Y59350D01*
Y58038D01*
Y59022D01*
X294161D01*
X292193Y59678D02*
X291865Y60006D01*
X291209D01*
X290881Y59678D01*
Y58366D01*
X291209Y58038D01*
X291865D01*
X292193Y58366D01*
Y59678D01*
X251575Y35169D02*
X254330D01*
Y33792D01*
X253871Y33333D01*
X252034D01*
X251575Y33792D01*
Y35169D01*
Y30578D02*
X252034Y31496D01*
X252953Y32414D01*
X253871D01*
X254330Y31955D01*
Y31037D01*
X253871Y30578D01*
X253412D01*
X252953Y31037D01*
Y32414D01*
X251575Y27823D02*
Y29659D01*
X252953D01*
X252494Y28741D01*
Y28282D01*
X252953Y27823D01*
X253871D01*
X254330Y28282D01*
Y29200D01*
X253871Y29659D01*
X236285Y127100D02*
X236745Y127559D01*
X237663D01*
X238122Y127100D01*
Y125263D01*
X237663Y124804D01*
X236745D01*
X236285Y125263D01*
X233530Y127559D02*
X235367D01*
Y126181D01*
X234449Y126640D01*
X233990D01*
X233530Y126181D01*
Y125263D01*
X233990Y124804D01*
X234908D01*
X235367Y125263D01*
X230775Y127559D02*
X232612D01*
Y126181D01*
X231694Y126640D01*
X231235D01*
X230775Y126181D01*
Y125263D01*
X231235Y124804D01*
X232153D01*
X232612Y125263D01*
X236091Y151118D02*
X236550Y151577D01*
X237469D01*
X237928Y151118D01*
Y149281D01*
X237469Y148822D01*
X236550D01*
X236091Y149281D01*
X233336Y151577D02*
X235173D01*
Y150199D01*
X234255Y150658D01*
X233795D01*
X233336Y150199D01*
Y149281D01*
X233795Y148822D01*
X234714D01*
X235173Y149281D01*
X231041Y148822D02*
Y151577D01*
X232418Y150199D01*
X230581D01*
X592388Y167434D02*
X592847Y167893D01*
X593765D01*
X594225Y167434D01*
Y165597D01*
X593765Y165138D01*
X592847D01*
X592388Y165597D01*
X590092Y165138D02*
Y167893D01*
X591469Y166516D01*
X589633D01*
X588715Y165597D02*
X588255Y165138D01*
X587337D01*
X586878Y165597D01*
Y167434D01*
X587337Y167893D01*
X588255D01*
X588715Y167434D01*
Y166975D01*
X588255Y166516D01*
X586878D01*
X513648Y151903D02*
X514107Y152362D01*
X515025D01*
X515484Y151903D01*
Y150066D01*
X515025Y149607D01*
X514107D01*
X513648Y150066D01*
X511352Y149607D02*
Y152362D01*
X512729Y150984D01*
X510893D01*
X509974Y151903D02*
X509515Y152362D01*
X508597D01*
X508138Y151903D01*
Y151443D01*
X508597Y150984D01*
X508138Y150525D01*
Y150066D01*
X508597Y149607D01*
X509515D01*
X509974Y150066D01*
Y150525D01*
X509515Y150984D01*
X509974Y151443D01*
Y151903D01*
X509515Y150984D02*
X508597D01*
X592388Y305052D02*
X592847Y305511D01*
X593765D01*
X594225Y305052D01*
Y303216D01*
X593765Y302756D01*
X592847D01*
X592388Y303216D01*
X591469Y305052D02*
X591010Y305511D01*
X590092D01*
X589633Y305052D01*
Y304593D01*
X590092Y304134D01*
X590551D01*
X590092D01*
X589633Y303675D01*
Y303216D01*
X590092Y302756D01*
X591010D01*
X591469Y303216D01*
X588715Y305511D02*
X586878D01*
Y305052D01*
X588715Y303216D01*
Y302756D01*
X513844Y290485D02*
X514304Y290944D01*
X515222D01*
X515681Y290485D01*
Y288649D01*
X515222Y288189D01*
X514304D01*
X513844Y288649D01*
X512926Y290485D02*
X512467Y290944D01*
X511549D01*
X511090Y290485D01*
Y290026D01*
X511549Y289567D01*
X512008D01*
X511549D01*
X511090Y289108D01*
Y288649D01*
X511549Y288189D01*
X512467D01*
X512926Y288649D01*
X508334Y290944D02*
X509253Y290485D01*
X510171Y289567D01*
Y288649D01*
X509712Y288189D01*
X508794D01*
X508334Y288649D01*
Y289108D01*
X508794Y289567D01*
X510171D01*
X322703Y120603D02*
X323162Y121063D01*
X324080D01*
X324539Y120603D01*
Y118767D01*
X324080Y118307D01*
X323162D01*
X322703Y118767D01*
X321784Y120603D02*
X321325Y121063D01*
X320407D01*
X319948Y120603D01*
Y120144D01*
X320407Y119685D01*
X320866D01*
X320407D01*
X319948Y119226D01*
Y118767D01*
X320407Y118307D01*
X321325D01*
X321784Y118767D01*
X317193Y121063D02*
X319029D01*
Y119685D01*
X318111Y120144D01*
X317652D01*
X317193Y119685D01*
Y118767D01*
X317652Y118307D01*
X318570D01*
X319029Y118767D01*
X13648Y102099D02*
X14107Y102559D01*
X15025D01*
X15484Y102099D01*
Y100263D01*
X15025Y99804D01*
X14107D01*
X13648Y100263D01*
X12729Y102099D02*
X12270Y102559D01*
X11352D01*
X10893Y102099D01*
Y101640D01*
X11352Y101181D01*
X11811D01*
X11352D01*
X10893Y100722D01*
Y100263D01*
X11352Y99804D01*
X12270D01*
X12729Y100263D01*
X8138Y99804D02*
X9974D01*
X8138Y101640D01*
Y102099D01*
X8597Y102559D01*
X9515D01*
X9974Y102099D01*
X13189Y76903D02*
X13648Y77362D01*
X14566D01*
X15025Y76903D01*
Y75066D01*
X14566Y74607D01*
X13648D01*
X13189Y75066D01*
X12270Y76903D02*
X11811Y77362D01*
X10893D01*
X10434Y76903D01*
Y76443D01*
X10893Y75984D01*
X11352D01*
X10893D01*
X10434Y75525D01*
Y75066D01*
X10893Y74607D01*
X11811D01*
X12270Y75066D01*
X9515Y74607D02*
X8597D01*
X9056D01*
Y77362D01*
X9515Y76903D01*
X108924Y80577D02*
X108465Y81036D01*
Y81954D01*
X108924Y82414D01*
X110761D01*
X111220Y81954D01*
Y81036D01*
X110761Y80577D01*
X111220Y77822D02*
Y79659D01*
X109383Y77822D01*
X108924D01*
X108465Y78281D01*
Y79199D01*
X108924Y79659D01*
Y76903D02*
X108465Y76444D01*
Y75526D01*
X108924Y75067D01*
X109383D01*
X109843Y75526D01*
Y75985D01*
Y75526D01*
X110302Y75067D01*
X110761D01*
X111220Y75526D01*
Y76444D01*
X110761Y76903D01*
X107743Y90419D02*
X107284Y90878D01*
Y91797D01*
X107743Y92256D01*
X109580D01*
X110039Y91797D01*
Y90878D01*
X109580Y90419D01*
X110039Y87664D02*
Y89501D01*
X108202Y87664D01*
X107743D01*
X107284Y88124D01*
Y89042D01*
X107743Y89501D01*
X110039Y84909D02*
Y86746D01*
X108202Y84909D01*
X107743D01*
X107284Y85369D01*
Y86287D01*
X107743Y86746D01*
X109712Y99803D02*
X109252Y100262D01*
Y101180D01*
X109712Y101639D01*
X111548D01*
X112007Y101180D01*
Y100262D01*
X111548Y99803D01*
X112007Y97048D02*
Y98884D01*
X110171Y97048D01*
X109712D01*
X109252Y97507D01*
Y98425D01*
X109712Y98884D01*
X112007Y96129D02*
Y95211D01*
Y95670D01*
X109252D01*
X109712Y96129D01*
X72966Y61155D02*
X73425Y60696D01*
Y59778D01*
X72966Y59319D01*
X71129D01*
X70670Y59778D01*
Y60696D01*
X71129Y61155D01*
X70670Y63911D02*
Y62074D01*
X72506Y63911D01*
X72966D01*
X73425Y63451D01*
Y62533D01*
X72966Y62074D01*
Y64829D02*
X73425Y65288D01*
Y66206D01*
X72966Y66666D01*
X71129D01*
X70670Y66206D01*
Y65288D01*
X71129Y64829D01*
X72966D01*
X84284Y77473D02*
X84743Y77933D01*
X85662D01*
X86121Y77473D01*
Y75637D01*
X85662Y75178D01*
X84743D01*
X84284Y75637D01*
X83366Y75178D02*
X82448D01*
X82907D01*
Y77933D01*
X83366Y77473D01*
X81070Y75637D02*
X80611Y75178D01*
X79693D01*
X79233Y75637D01*
Y77473D01*
X79693Y77933D01*
X80611D01*
X81070Y77473D01*
Y77014D01*
X80611Y76555D01*
X79233D01*
X85072Y99344D02*
X85531Y99803D01*
X86449D01*
X86908Y99344D01*
Y97507D01*
X86449Y97048D01*
X85531D01*
X85072Y97507D01*
X84153Y97048D02*
X83235D01*
X83694D01*
Y99803D01*
X84153Y99344D01*
X81858D02*
X81398Y99803D01*
X80480D01*
X80021Y99344D01*
Y98884D01*
X80480Y98425D01*
X80021Y97966D01*
Y97507D01*
X80480Y97048D01*
X81398D01*
X81858Y97507D01*
Y97966D01*
X81398Y98425D01*
X81858Y98884D01*
Y99344D01*
X81398Y98425D02*
X80480D01*
X86253Y163910D02*
X86712Y164370D01*
X87630D01*
X88089Y163910D01*
Y162074D01*
X87630Y161615D01*
X86712D01*
X86253Y162074D01*
X85334Y161615D02*
X84416D01*
X84875D01*
Y164370D01*
X85334Y163910D01*
X83039D02*
X82579Y164370D01*
X81661D01*
X81202Y163910D01*
Y163451D01*
X81661Y162992D01*
X82120D01*
X81661D01*
X81202Y162533D01*
Y162074D01*
X81661Y161615D01*
X82579D01*
X83039Y162074D01*
X96095Y164304D02*
X96554Y164763D01*
X97473D01*
X97932Y164304D01*
Y162468D01*
X97473Y162008D01*
X96554D01*
X96095Y162468D01*
X95177Y162008D02*
X94259D01*
X94718D01*
Y164763D01*
X95177Y164304D01*
X91044Y162008D02*
X92881D01*
X91044Y163845D01*
Y164304D01*
X91504Y164763D01*
X92422D01*
X92881Y164304D01*
X140814Y254396D02*
X140355Y254855D01*
Y255774D01*
X140814Y256233D01*
X142651D01*
X143110Y255774D01*
Y254855D01*
X142651Y254396D01*
X140355Y253478D02*
Y251641D01*
X140814D01*
X142651Y253478D01*
X143110D01*
M02*
