M48
;Layer_Color=9474304
;FILE_FORMAT=2:4
INCH,TZ
;TYPE=PLATED
T1F00S00C0.0140
T2F00S00C0.0157
T4F00S00C0.0276
T5F00S00C0.0335
T6F00S00C0.0350
T7F00S00C0.0362
T8F00S00C0.0394
T9F00S00C0.0402
T10F00S00C0.0512
T11F00S00C0.0618
T12F00S00C0.0630
T13F00S00C0.0906
T14F00S00C0.1575
T15F00S00C0.1772
;TYPE=NON_PLATED
T16F00S00C0.1280
%
T01
X4449Y6535
X7598Y6614
Y6299
Y5984
X8031Y5689
X9488Y5709
X11280Y5689
X9567Y7500
X8757Y7438
X8150Y7441
X7598Y6929
X14630Y3976
X17972Y5256
X18898Y5709
X18642Y2461
X19941Y2874
X20678Y2785
X21516Y2815
X22500Y4134
X24291Y3504
X25453Y2756
X26575Y3307
X27520Y2854
X27421Y2500
X29390Y2461
X30177Y3465
X30571
X31319Y3661
X32421Y4134
X32382Y5315
X32008Y6870
X27756Y6594
X27461Y6299
Y6890
X27756Y7283
X27382Y5728
X27067Y4724
Y4291
X28031Y4764
X28445Y5177
X28523Y3740
X25965Y5827
X24646Y6083
X24665Y6476
X24370Y5354
X24606Y5118
X35591Y4528
X36083Y5512
X36476
X36870
X37264
X37657
X38287Y4528
Y4134
Y3740
Y3346
Y2953
X41594Y5059
X41988
X42382
X42776
X43169
X43799Y4528
Y4134
Y3740
Y3346
Y2953
X43740Y2520
X44744Y2953
X45138
X45531
X45925
X46319
X46713
X47106
X47500
X47894
X48287
X48681
X49075
X49468
X49862
X50256
Y3740
X49094Y4449
X48819Y7165
X52402Y5984
X53780Y5531
X41693Y5787
X58110Y5610
X70472Y8268
X72244Y15374
X74311Y14370
X75591
Y19094
Y20669
Y22047
X73583Y19094
X69567Y16811
X64173Y16634
X60381Y15447
X59764Y15457
X60186Y14468
X61024Y14030
X59449Y17441
X58425Y16988
X57736Y16732
X55059Y18858
X57362Y21831
X58169Y22835
X60079Y21319
X60236Y19291
X62559Y22067
X63189Y22441
X64567Y10630
X66929Y9803
X66870Y8189
X62992Y8661
X62303Y7815
X58110Y8150
X69488Y10433
X54193Y9980
X52638Y10354
X53248Y8602
X51693Y13504
X51282Y13481
X50948Y13599
X49961Y14547
X49626Y14941
X49646Y15271
Y15571
X49646Y15871
X49972Y16398
X49921Y18209
X50322Y18300
X49488Y18032
X49173Y17874
X49213Y19342
X49803
X48839Y19114
X48524Y18799
X47323Y17539
X46949Y17224
X46693Y16909
X44390Y17717
Y18051
X44394Y18362
X43012Y18307
X44075Y20768
X44390Y21063
X43484Y21831
X44291Y22835
X45965Y19882
X46358Y20276
X46673Y20531
X46949Y20838
X50394Y20394
X53012Y19587
X53681Y20098
X53858Y20748
X53839Y22165
X53268Y22126
X48917Y22776
X52776Y17185
X52461Y16732
X47244Y11024
X43780Y12736
X39488Y14449
X38287Y9961
X31575Y10177
X30984Y10276
X31103Y9802
X30807Y10827
X31398Y11043
X30039Y10492
X29646Y10098
X29508Y9724
X28780Y10098
X28189Y10846
X27028Y10630
X27461Y7579
X24016Y7874
X24311Y12795
X24803Y14567
X25098Y15157
X25394Y15453
X25787Y15748
X26575Y14075
X27894Y14016
X28839Y13189
X29724Y13091
X30512Y13780
X30945Y12795
X31890Y13110
X31831Y15433
X31713Y18681
X33661Y18799
X33563Y18307
X32776Y22244
X34547
X31201Y22736
X27559Y22244
X26575Y22244
X24213Y22126
X24508Y21358
X25197Y19094
X25591Y19488
X27165
X27756Y19094
X27559Y16732
X24311
X23445Y16791
X24862Y18445
X22244Y18071
Y21457
X21358
X21161Y21752
Y22933
X20827
X20472Y23031
X21516Y22933
X22343Y22972
X19291Y21165
X17559Y21437
X17539Y21969
X17441Y22677
X17244Y18307
X17717
X17520Y16336
X16929Y15945
X16732Y15551
X16339Y16634
X16142Y14665
X14764Y15157
X14468Y15551
X13976Y15945
X13189Y16142
X10236Y15157
Y14803
X9744Y14488
X9477Y13010
X7520Y11142
X7913Y10709
X7776Y9685
X8957Y8760
X10650Y8268
X10827Y7874
X10886Y9016
X11161Y9390
X10611Y9843
X12776Y10039
X12854Y9724
X12992Y8071
X12638Y7933
X14370Y8268
X16299Y8839
X15809Y11576
X13287Y11280
X13583Y10945
X18898Y10925
X21339Y10945
X22146Y11122
X21311Y13890
X18504Y14961
X17323Y12992
X10994Y22378
X7165Y22835
X4921Y22677
X6457Y15512
X6791Y14961
X7421Y9508
X7490Y8691
X7461Y7952
X5374Y7736
X5433Y9173
X4350Y9724
X3465Y9409
X3976Y8327
X3839Y7874
X6693Y26457
X8898Y24803
X9385Y23282
X10748Y23583
X11063Y26496
X14213Y24173
X14409Y23583
X14567Y23150
X15079Y24331
X15118Y24764
X17224Y24311
Y23917
X18386Y23583
X19488Y24213
X20965Y24114
Y23720
X22343Y23681
Y24016
Y23327
X24390Y23996
X25453Y23386
X26083Y23228
X26969Y25492
X27362
X27717
X28051
X25787Y26398
X25295Y26378
X24488Y26654
X24016Y26673
X45197Y27657
X45276Y28150
X45669Y27953
X46201Y26654
Y25846
X45965Y25531
X44862Y24862
X48917Y26083
X49252Y27382
X49265Y28517
X49508Y28799
X49972Y28406
X49961Y29705
X48917Y29232
X48032Y29921
X47815Y28602
X47894Y27697
X50945Y27382
X51280Y27264
X51634Y27244
X52067Y23937
X54311Y23720
X52461Y30512
X52776Y30925
X46831Y31654
X45965Y30610
X57717Y30768
X58425
X59035Y31181
X59764Y30374
X59843Y29272
X60374Y29243
X61063Y29213
X61024Y27809
X61831Y28307
X61811Y30276
X64173Y30413
X69547Y30591
X69488Y24213
X68917Y23150
X66929Y23819
X64685Y24213
X57677Y24016
X56732Y27756
X72244Y29154
X70551Y31122
X72343Y25591
T02
X2234Y19892
Y20226
Y20561
Y20896
Y21230
Y21565
Y21900
Y22234
X2766
Y21900
Y21565
Y21230
Y20896
Y20561
Y20226
Y19892
T04
X8291Y18701
X10213
T05
X35531Y19409
Y22953
T06
X7043Y7207
Y8207
Y9207
Y10207
X6043Y10707
Y9707
Y8707
Y7707
T07
X4425Y14173
Y15157
Y15945
Y16929
X5457
Y15945
Y15157
Y14173
T08
X26315Y19744
Y20744
Y21744
Y22744
X34315
Y21744
Y20744
Y19744
Y23744
Y24744
X26315
Y23744
T09
X1945Y6348
Y7348
Y10565
Y11565
X75787Y26469
Y27469
Y29028
Y30028
T10
X39370Y18622
X41732Y19409
X37008
Y24213
X41732
T11
X4744Y5907
Y12006
T12
X41358Y6811
X45256
Y8150
Y9567
Y10906
Y12323
Y13661
Y15079
Y16417
X41358
Y15079
Y13661
Y12323
Y10906
Y9567
Y8150
T13
X3358Y12965
X5594
Y18138
X3358
T14
X2953Y3681
Y24902
T15
X73425Y7283
X49213Y31496
X73425
T16
X3543Y6707
Y11207
M30
