G04*
G04 #@! TF.GenerationSoftware,Altium Limited,Altium Designer,21.3.2 (30)*
G04*
G04 Layer_Color=16711935*
%FSLAX25Y25*%
%MOIN*%
G70*
G04*
G04 #@! TF.SameCoordinates,B38D24C8-20F9-4C12-AD3A-4427D22FBD9A*
G04*
G04*
G04 #@! TF.FilePolarity,Negative*
G04*
G01*
G75*
%ADD19R,0.02756X0.16535*%
%ADD20R,0.02756X0.12598*%
%ADD22R,0.03150X0.04921*%
%ADD23R,0.04724X0.05709*%
%ADD24R,0.05709X0.04724*%
%ADD25R,0.05544X0.04747*%
%ADD26R,0.05315X0.03740*%
%ADD28R,0.07087X0.04921*%
%ADD29O,0.08858X0.02756*%
%ADD30R,0.24410X0.62992*%
%ADD31R,0.09843X0.06693*%
%ADD35R,0.02126X0.03386*%
%ADD38R,0.05315X0.03937*%
%ADD40R,0.06102X0.06102*%
%ADD49R,0.05315X0.06102*%
%ADD51R,0.06102X0.05512*%
%ADD52R,0.03740X0.05315*%
%ADD62R,0.12400X0.07700*%
%ADD67R,3.33858X0.23524*%
G04:AMPARAMS|DCode=70|XSize=35.43mil|YSize=66.93mil|CornerRadius=17.72mil|HoleSize=0mil|Usage=FLASHONLY|Rotation=270.000|XOffset=0mil|YOffset=0mil|HoleType=Round|Shape=RoundedRectangle|*
%AMROUNDEDRECTD70*
21,1,0.03543,0.03150,0,0,270.0*
21,1,0.00000,0.06693,0,0,270.0*
1,1,0.03543,-0.01575,0.00000*
1,1,0.03543,-0.01575,0.00000*
1,1,0.03543,0.01575,0.00000*
1,1,0.03543,0.01575,0.00000*
%
%ADD70ROUNDEDRECTD70*%
G04:AMPARAMS|DCode=71|XSize=35.43mil|YSize=94.49mil|CornerRadius=17.72mil|HoleSize=0mil|Usage=FLASHONLY|Rotation=270.000|XOffset=0mil|YOffset=0mil|HoleType=Round|Shape=RoundedRectangle|*
%AMROUNDEDRECTD71*
21,1,0.03543,0.05906,0,0,270.0*
21,1,0.00000,0.09449,0,0,270.0*
1,1,0.03543,-0.02953,0.00000*
1,1,0.03543,-0.02953,0.00000*
1,1,0.03543,0.02953,0.00000*
1,1,0.03543,0.02953,0.00000*
%
%ADD71ROUNDEDRECTD71*%
%ADD72R,0.02559X0.02559*%
%ADD73C,0.02559*%
%ADD74R,0.06181X0.06181*%
%ADD75C,0.06181*%
%ADD76C,0.08268*%
%ADD77R,0.08268X0.08268*%
%ADD78C,0.23622*%
%ADD79R,0.07874X0.07874*%
%ADD80C,0.07874*%
%ADD81C,0.05315*%
%ADD82C,0.04724*%
%ADD83C,0.05906*%
%ADD84R,0.05906X0.05906*%
%ADD85C,0.05591*%
%ADD86C,0.13583*%
%ADD87C,0.06102*%
%ADD88R,0.05512X0.05512*%
%ADD89C,0.05512*%
%ADD90C,0.11614*%
%ADD91C,0.02500*%
G04:AMPARAMS|DCode=96|XSize=59.06mil|YSize=17.72mil|CornerRadius=1.95mil|HoleSize=0mil|Usage=FLASHONLY|Rotation=90.000|XOffset=0mil|YOffset=0mil|HoleType=Round|Shape=RoundedRectangle|*
%AMROUNDEDRECTD96*
21,1,0.05906,0.01382,0,0,90.0*
21,1,0.05516,0.01772,0,0,90.0*
1,1,0.00390,0.00691,0.02758*
1,1,0.00390,0.00691,-0.02758*
1,1,0.00390,-0.00691,-0.02758*
1,1,0.00390,-0.00691,0.02758*
%
%ADD96ROUNDEDRECTD96*%
%ADD97R,0.06530X0.02468*%
G04:AMPARAMS|DCode=98|XSize=65.3mil|YSize=24.68mil|CornerRadius=12.34mil|HoleSize=0mil|Usage=FLASHONLY|Rotation=180.000|XOffset=0mil|YOffset=0mil|HoleType=Round|Shape=RoundedRectangle|*
%AMROUNDEDRECTD98*
21,1,0.06530,0.00000,0,0,180.0*
21,1,0.04063,0.02468,0,0,180.0*
1,1,0.02468,-0.02031,0.00000*
1,1,0.02468,0.02031,0.00000*
1,1,0.02468,0.02031,0.00000*
1,1,0.02468,-0.02031,0.00000*
%
%ADD98ROUNDEDRECTD98*%
%ADD99R,0.07087X0.03543*%
%ADD100R,0.24410X0.21457*%
%ADD101R,0.03465X0.02638*%
%ADD102R,0.03771X0.04969*%
%ADD103R,0.03937X0.05118*%
%ADD104R,0.05118X0.05709*%
%ADD105R,0.05315X0.05709*%
%ADD106R,0.13386X0.05512*%
%ADD107R,0.06102X0.05315*%
%ADD108R,0.05315X0.04331*%
%ADD109R,0.03937X0.03150*%
D19*
X278150Y13780D02*
D03*
X270276D02*
D03*
X258465D02*
D03*
X309646D02*
D03*
X297835D02*
D03*
X286024D02*
D03*
X289961D02*
D03*
X305709D02*
D03*
X293898D02*
D03*
X266339D02*
D03*
X274213D02*
D03*
X301772D02*
D03*
X262402D02*
D03*
X282087D02*
D03*
X250590D02*
D03*
X211221D02*
D03*
X246654D02*
D03*
X234842D02*
D03*
X183661D02*
D03*
X191535D02*
D03*
X207283D02*
D03*
X242717D02*
D03*
X199409D02*
D03*
X203346D02*
D03*
X215158D02*
D03*
X187598D02*
D03*
X195472D02*
D03*
X238779D02*
D03*
X254528D02*
D03*
X321457D02*
D03*
X341142D02*
D03*
X337205D02*
D03*
X372638D02*
D03*
X349016D02*
D03*
X329331D02*
D03*
X352953D02*
D03*
X317520D02*
D03*
X356890D02*
D03*
X313583D02*
D03*
X364764D02*
D03*
X325394D02*
D03*
X345079D02*
D03*
X360827D02*
D03*
X333268D02*
D03*
X368701D02*
D03*
X376575D02*
D03*
X380512D02*
D03*
X384449D02*
D03*
X388386D02*
D03*
X392323D02*
D03*
X396260D02*
D03*
X400197D02*
D03*
X404134D02*
D03*
X408071D02*
D03*
X412008D02*
D03*
X415945D02*
D03*
X419882D02*
D03*
X423819D02*
D03*
X427756D02*
D03*
X431693D02*
D03*
X435630D02*
D03*
X439567D02*
D03*
X443504D02*
D03*
X447441D02*
D03*
X451378D02*
D03*
X455315D02*
D03*
X459252D02*
D03*
X463189D02*
D03*
X467126D02*
D03*
X471063D02*
D03*
X475000D02*
D03*
X478937D02*
D03*
X482874D02*
D03*
X486811D02*
D03*
X490748D02*
D03*
X494685D02*
D03*
X498622D02*
D03*
X502559D02*
D03*
X506496D02*
D03*
D20*
X179724Y15748D02*
D03*
D22*
X294094Y63779D02*
D03*
X300394D02*
D03*
X294094Y53937D02*
D03*
X300394D02*
D03*
X294094Y73622D02*
D03*
X300394D02*
D03*
X34646Y100394D02*
D03*
X28346D02*
D03*
X34646Y78740D02*
D03*
X28346D02*
D03*
D23*
X307087Y53937D02*
D03*
X314961D02*
D03*
X307087Y63779D02*
D03*
X314961D02*
D03*
X307087Y73622D02*
D03*
X314961D02*
D03*
X369882Y224410D02*
D03*
X377756D02*
D03*
D24*
X275590Y39370D02*
D03*
Y47244D02*
D03*
X294094Y35433D02*
D03*
Y43307D02*
D03*
X320866Y90551D02*
D03*
Y98425D02*
D03*
D25*
Y113779D02*
D03*
Y107274D02*
D03*
D26*
X629921Y146201D02*
D03*
Y140295D02*
D03*
X511811Y146201D02*
D03*
Y140295D02*
D03*
X629921Y283996D02*
D03*
Y278091D02*
D03*
X511811Y284055D02*
D03*
Y278150D02*
D03*
X708661Y293091D02*
D03*
Y298996D02*
D03*
X590551Y293110D02*
D03*
Y299016D02*
D03*
Y161201D02*
D03*
Y155295D02*
D03*
X708662Y155295D02*
D03*
Y161201D02*
D03*
X234252Y121063D02*
D03*
Y115157D02*
D03*
Y138779D02*
D03*
Y144685D02*
D03*
X94488Y152559D02*
D03*
Y158465D02*
D03*
D28*
X629921Y257972D02*
D03*
Y245965D02*
D03*
X708661Y257972D02*
D03*
Y245965D02*
D03*
X590551Y257972D02*
D03*
Y245965D02*
D03*
X511811Y257972D02*
D03*
Y245965D02*
D03*
X708661Y120177D02*
D03*
Y108169D02*
D03*
X629921Y120177D02*
D03*
Y108169D02*
D03*
X590551D02*
D03*
Y120177D02*
D03*
X511811Y108169D02*
D03*
Y120177D02*
D03*
D29*
X695571Y298091D02*
D03*
Y293091D02*
D03*
Y288090D02*
D03*
Y283090D02*
D03*
Y278091D02*
D03*
Y273091D02*
D03*
Y268091D02*
D03*
Y263090D02*
D03*
Y258090D02*
D03*
Y253091D02*
D03*
X643012Y298091D02*
D03*
Y293091D02*
D03*
Y288090D02*
D03*
Y283090D02*
D03*
Y278091D02*
D03*
Y273091D02*
D03*
Y268091D02*
D03*
Y263090D02*
D03*
Y258090D02*
D03*
Y253091D02*
D03*
X577461Y160295D02*
D03*
Y155295D02*
D03*
Y150295D02*
D03*
Y145295D02*
D03*
Y140295D02*
D03*
Y135295D02*
D03*
Y130295D02*
D03*
Y125295D02*
D03*
Y120295D02*
D03*
Y115295D02*
D03*
X524902Y160295D02*
D03*
Y155295D02*
D03*
Y150295D02*
D03*
Y145295D02*
D03*
Y140295D02*
D03*
Y135295D02*
D03*
Y130295D02*
D03*
Y125295D02*
D03*
Y120295D02*
D03*
Y115295D02*
D03*
X695571Y160295D02*
D03*
Y155295D02*
D03*
Y150295D02*
D03*
Y145295D02*
D03*
Y140295D02*
D03*
Y135295D02*
D03*
Y130295D02*
D03*
Y125295D02*
D03*
Y120295D02*
D03*
Y115295D02*
D03*
X643012Y160295D02*
D03*
Y155295D02*
D03*
Y150295D02*
D03*
Y145295D02*
D03*
Y140295D02*
D03*
Y135295D02*
D03*
Y130295D02*
D03*
Y125295D02*
D03*
Y120295D02*
D03*
Y115295D02*
D03*
X577461Y298091D02*
D03*
Y293091D02*
D03*
Y288090D02*
D03*
Y283090D02*
D03*
Y278091D02*
D03*
Y273091D02*
D03*
Y268091D02*
D03*
Y263090D02*
D03*
Y258090D02*
D03*
Y253091D02*
D03*
X524902Y298091D02*
D03*
Y293091D02*
D03*
Y288090D02*
D03*
Y283090D02*
D03*
Y278091D02*
D03*
Y273091D02*
D03*
Y268091D02*
D03*
Y263090D02*
D03*
Y258090D02*
D03*
Y253091D02*
D03*
D30*
X669291Y275590D02*
D03*
X551181Y137795D02*
D03*
X669291D02*
D03*
X551181Y275590D02*
D03*
D31*
X559055Y228346D02*
D03*
X543307D02*
D03*
Y214567D02*
D03*
X559055D02*
D03*
X519685Y228346D02*
D03*
X503937D02*
D03*
Y214567D02*
D03*
X519685D02*
D03*
X559055Y90551D02*
D03*
X543307D02*
D03*
Y76772D02*
D03*
X559055D02*
D03*
X519685Y90551D02*
D03*
X503937D02*
D03*
Y76772D02*
D03*
X519685D02*
D03*
D35*
X185039Y47795D02*
D03*
Y39370D02*
D03*
X258465Y35709D02*
D03*
Y27283D02*
D03*
D38*
X387795Y214370D02*
D03*
Y207283D02*
D03*
D40*
X121752Y88583D02*
D03*
X114469D02*
D03*
D49*
X68110Y116142D02*
D03*
X60433D02*
D03*
D51*
X120079Y202953D02*
D03*
Y210433D02*
D03*
X139764Y202953D02*
D03*
Y210433D02*
D03*
D52*
X14567Y82677D02*
D03*
X8661D02*
D03*
X14764Y94488D02*
D03*
X8858D02*
D03*
X146653Y253937D02*
D03*
X152559D02*
D03*
D62*
X258465Y49405D02*
D03*
Y68705D02*
D03*
D67*
X343110Y10778D02*
D03*
D70*
X10492Y227658D02*
D03*
Y193602D02*
D03*
D71*
X23799Y227658D02*
D03*
Y193602D02*
D03*
D72*
X27657Y222342D02*
D03*
D73*
Y218996D02*
D03*
Y215650D02*
D03*
Y212303D02*
D03*
Y208957D02*
D03*
Y205610D02*
D03*
Y202264D02*
D03*
Y198917D02*
D03*
X22343D02*
D03*
Y202264D02*
D03*
Y205610D02*
D03*
Y208957D02*
D03*
Y212303D02*
D03*
Y215650D02*
D03*
Y218996D02*
D03*
Y222342D02*
D03*
D74*
X757874Y274685D02*
D03*
Y290276D02*
D03*
D75*
Y264685D02*
D03*
Y300276D02*
D03*
D76*
X452559Y164173D02*
D03*
X413583D02*
D03*
Y150787D02*
D03*
X452559Y81496D02*
D03*
X413583D02*
D03*
Y68110D02*
D03*
X452559Y109055D02*
D03*
X413583D02*
D03*
Y95669D02*
D03*
X452559Y136614D02*
D03*
X413583D02*
D03*
Y123228D02*
D03*
X47441Y59075D02*
D03*
Y120059D02*
D03*
D77*
X452559Y150787D02*
D03*
Y68110D02*
D03*
Y95669D02*
D03*
Y123228D02*
D03*
D78*
X734252Y314961D02*
D03*
Y72835D02*
D03*
X29528Y36811D02*
D03*
Y249016D02*
D03*
X492126Y314961D02*
D03*
D79*
X393701Y186221D02*
D03*
D80*
X417323Y194095D02*
D03*
X370079D02*
D03*
Y242126D02*
D03*
X417323D02*
D03*
D81*
X355315Y229528D02*
D03*
Y194095D02*
D03*
D82*
X102126Y187008D02*
D03*
X82913D02*
D03*
D83*
X343150Y197441D02*
D03*
Y207441D02*
D03*
Y217441D02*
D03*
Y227441D02*
D03*
Y237441D02*
D03*
Y247441D02*
D03*
X263150Y197441D02*
D03*
Y207441D02*
D03*
Y217441D02*
D03*
Y227441D02*
D03*
Y237441D02*
D03*
D84*
Y247441D02*
D03*
D85*
X54567Y169291D02*
D03*
Y141732D02*
D03*
Y151575D02*
D03*
Y159449D02*
D03*
X44252Y151575D02*
D03*
Y159449D02*
D03*
Y141732D02*
D03*
Y169291D02*
D03*
D86*
X55945Y181378D02*
D03*
Y129646D02*
D03*
X33583D02*
D03*
Y181378D02*
D03*
D87*
X19449Y73484D02*
D03*
Y63484D02*
D03*
Y115650D02*
D03*
Y105650D02*
D03*
D88*
X60433Y107067D02*
D03*
D89*
Y97067D02*
D03*
Y87067D02*
D03*
Y77067D02*
D03*
X70433Y72067D02*
D03*
Y82067D02*
D03*
Y92067D02*
D03*
Y102067D02*
D03*
D90*
X35433Y112067D02*
D03*
Y67067D02*
D03*
D91*
X74898Y86906D02*
D03*
X248622Y184449D02*
D03*
X318307Y154331D02*
D03*
X94774Y130098D02*
D03*
X158087Y115760D02*
D03*
X234449Y167913D02*
D03*
X259646Y58268D02*
D03*
X318898Y131102D02*
D03*
X111614Y93898D02*
D03*
X162992Y88386D02*
D03*
X146296Y39763D02*
D03*
X74213Y95079D02*
D03*
X669291Y98032D02*
D03*
X573622Y218307D02*
D03*
X576772Y240158D02*
D03*
X600787Y213189D02*
D03*
X581693Y228346D02*
D03*
X532677Y221260D02*
D03*
X496260Y149409D02*
D03*
X496457Y152709D02*
D03*
Y155709D02*
D03*
X496463Y158709D02*
D03*
X468307Y316535D02*
D03*
X478937Y276969D02*
D03*
X53740Y77362D02*
D03*
X75984Y59842D02*
D03*
Y66142D02*
D03*
Y62992D02*
D03*
X44488Y65354D02*
D03*
X610630Y292126D02*
D03*
X618307Y283071D02*
D03*
X625591Y220669D02*
D03*
X520669Y239370D02*
D03*
X689173Y231496D02*
D03*
X669291Y238189D02*
D03*
X577362Y167323D02*
D03*
X695669Y168110D02*
D03*
X543110Y237205D02*
D03*
X550591Y188583D02*
D03*
X668701Y81890D02*
D03*
X603809Y154469D02*
D03*
X601862Y144685D02*
D03*
X597638Y154565D02*
D03*
X594488Y174409D02*
D03*
X530118Y195866D02*
D03*
X95669Y75000D02*
D03*
X77756Y96850D02*
D03*
X39764Y83268D02*
D03*
X112795Y56890D02*
D03*
X597638Y303740D02*
D03*
X618110Y302756D02*
D03*
X705512Y311221D02*
D03*
X695472Y305906D02*
D03*
X577165Y307677D02*
D03*
X590354Y311811D02*
D03*
X526378Y103543D02*
D03*
X541929Y99803D02*
D03*
X296457Y100984D02*
D03*
X300394Y104921D02*
D03*
X295079Y97244D02*
D03*
X313976Y110433D02*
D03*
X213386Y109449D02*
D03*
X225000Y41339D02*
D03*
X275197Y28543D02*
D03*
X270669Y42913D02*
D03*
X285230Y37402D02*
D03*
X293898Y24606D02*
D03*
X179724Y52559D02*
D03*
X89567Y87598D02*
D03*
X87566Y74377D02*
D03*
X81496Y74410D02*
D03*
X74606Y79522D02*
D03*
X54331Y91732D02*
D03*
X79134Y107087D02*
D03*
X43498Y97244D02*
D03*
X80315Y56890D02*
D03*
X143701Y82677D02*
D03*
X106496Y82677D02*
D03*
X108858Y90158D02*
D03*
X106108Y98425D02*
D03*
X127756Y100394D02*
D03*
X128543Y97244D02*
D03*
X97441Y144882D02*
D03*
X102362Y148026D02*
D03*
X64567Y155118D02*
D03*
X67913Y149606D02*
D03*
X132874Y112795D02*
D03*
X287795Y100984D02*
D03*
X309842Y102756D02*
D03*
X315748Y101772D02*
D03*
X308071Y108268D02*
D03*
X311028Y98021D02*
D03*
X280315Y47638D02*
D03*
X284449Y51772D02*
D03*
X109941Y223777D02*
D03*
X88976Y248031D02*
D03*
X71653Y228346D02*
D03*
X223425Y240158D02*
D03*
Y236811D02*
D03*
Y233268D02*
D03*
Y229724D02*
D03*
X209646Y237205D02*
D03*
X215158Y229331D02*
D03*
X208268D02*
D03*
X244882Y266541D02*
D03*
X243898Y239961D02*
D03*
X242126Y221260D02*
D03*
X317126Y186811D02*
D03*
X603740Y292429D02*
D03*
X598425Y292717D02*
D03*
X492648Y285168D02*
D03*
X499719Y284055D02*
D03*
X499606Y297047D02*
D03*
X489173Y292323D02*
D03*
X516339Y272441D02*
D03*
X516929Y135039D02*
D03*
X462008Y258465D02*
D03*
Y266535D02*
D03*
X456693Y279528D02*
D03*
X451968Y276575D02*
D03*
X452756Y281496D02*
D03*
X448622Y248622D02*
D03*
X443942Y183617D02*
D03*
X443898Y180512D02*
D03*
Y177165D02*
D03*
X466732Y205315D02*
D03*
X469488Y208380D02*
D03*
X494882Y180315D02*
D03*
X499213Y182087D02*
D03*
X499719Y163976D02*
D03*
X503218Y183003D02*
D03*
X491732Y178740D02*
D03*
X498032Y193419D02*
D03*
X492126D02*
D03*
X503937Y203937D02*
D03*
X488386Y191142D02*
D03*
X469488Y172244D02*
D03*
X485236Y187992D02*
D03*
X382874Y99606D02*
D03*
X94882Y57087D02*
D03*
X480315Y299213D02*
D03*
X459646Y306102D02*
D03*
X629921Y86614D02*
D03*
X645669Y106299D02*
D03*
X704724Y82677D02*
D03*
X694882Y104331D02*
D03*
X723425Y255906D02*
D03*
X694882Y242126D02*
D03*
X631890Y224410D02*
D03*
X646850Y242126D02*
D03*
X567323Y277559D02*
D03*
X602362Y192913D02*
D03*
X275590Y167323D02*
D03*
X248031Y145669D02*
D03*
X581102Y81496D02*
D03*
X499606Y145472D02*
D03*
X472441Y110236D02*
D03*
X527756Y171850D02*
D03*
Y309252D02*
D03*
X538583Y207480D02*
D03*
X538386Y221654D02*
D03*
X437795Y127362D02*
D03*
X437402Y25197D02*
D03*
X490945Y44488D02*
D03*
X416929Y57874D02*
D03*
X355906Y45276D02*
D03*
X394882Y144488D02*
D03*
X324213Y41339D02*
D03*
X313189Y36614D02*
D03*
X246654Y64764D02*
D03*
X246457Y60827D02*
D03*
X274213Y25000D02*
D03*
X186417Y24606D02*
D03*
X242913Y35039D02*
D03*
X254528Y27559D02*
D03*
X206784Y27846D02*
D03*
X173228Y129921D02*
D03*
X254528Y233858D02*
D03*
X320079Y68701D02*
D03*
X281890Y108465D02*
D03*
X192913Y211653D02*
D03*
X126378Y79331D02*
D03*
X144685Y155512D02*
D03*
X167323D02*
D03*
X185039Y149606D02*
D03*
X243110Y127953D02*
D03*
X270276Y106299D02*
D03*
X312008Y227362D02*
D03*
X278937Y140157D02*
D03*
X147638Y151575D02*
D03*
X188976Y109252D02*
D03*
X489173Y227756D02*
D03*
X430118Y183071D02*
D03*
X489173Y260827D02*
D03*
X209646Y241142D02*
D03*
X204724Y230315D02*
D03*
X252953Y263779D02*
D03*
X257874Y263976D02*
D03*
X240158Y266732D02*
D03*
X280512Y254921D02*
D03*
X277165D02*
D03*
X273622D02*
D03*
X269685D02*
D03*
X211614Y229331D02*
D03*
X175394Y219685D02*
D03*
X175591Y214370D02*
D03*
X213583Y214567D02*
D03*
X211614Y217520D02*
D03*
X641732Y166339D02*
D03*
X524606Y167323D02*
D03*
X584252Y169882D02*
D03*
X440748Y207677D02*
D03*
X443898Y210630D02*
D03*
X466929Y169095D02*
D03*
X473228Y175394D02*
D03*
X434842Y218307D02*
D03*
X442913Y228346D02*
D03*
X459646Y198819D02*
D03*
X463583Y202756D02*
D03*
X755905Y220472D02*
D03*
X743110Y143701D02*
D03*
X735827Y190945D02*
D03*
X755905Y143701D02*
D03*
Y190945D02*
D03*
Y206693D02*
D03*
X532480Y86024D02*
D03*
X524016Y59842D02*
D03*
X488189Y71653D02*
D03*
X581102Y56102D02*
D03*
X537795Y55315D02*
D03*
X623032Y78150D02*
D03*
X512825Y134813D02*
D03*
X509478Y135994D02*
D03*
X722441Y153740D02*
D03*
X536811Y200984D02*
D03*
X492520Y273819D02*
D03*
X478150Y286024D02*
D03*
X459646Y255315D02*
D03*
X495079Y287992D02*
D03*
X641732Y304134D02*
D03*
X584252Y307677D02*
D03*
X524606Y305118D02*
D03*
X722441Y291535D02*
D03*
X509449Y273819D02*
D03*
X512795Y272638D02*
D03*
X610236Y140295D02*
D03*
X610236Y278091D02*
D03*
X415945Y50591D02*
D03*
X382874Y29528D02*
D03*
Y33465D02*
D03*
Y37402D02*
D03*
Y41339D02*
D03*
Y45276D02*
D03*
X372638Y55118D02*
D03*
X360827D02*
D03*
X364764D02*
D03*
X368701D02*
D03*
X376575D02*
D03*
X270669Y47244D02*
D03*
X221457Y111221D02*
D03*
X265748Y33071D02*
D03*
X437992Y29528D02*
D03*
Y33465D02*
D03*
Y37402D02*
D03*
Y41339D02*
D03*
Y45276D02*
D03*
X419882Y50591D02*
D03*
X423819D02*
D03*
X427756D02*
D03*
X431693D02*
D03*
X502559Y37402D02*
D03*
X494685Y29528D02*
D03*
X498622D02*
D03*
X502559D02*
D03*
X478937D02*
D03*
X482874D02*
D03*
X490748D02*
D03*
X486811D02*
D03*
X463189D02*
D03*
X467126D02*
D03*
X475000D02*
D03*
X471063D02*
D03*
X455315D02*
D03*
X459252D02*
D03*
X451378D02*
D03*
X447441D02*
D03*
X327756Y222441D02*
D03*
X345472D02*
D03*
X260827Y232283D02*
D03*
X222441Y214567D02*
D03*
X335630Y183071D02*
D03*
X323819Y53150D02*
D03*
X336614Y187992D02*
D03*
X265748Y140748D02*
D03*
X240158Y78740D02*
D03*
X188976Y57087D02*
D03*
X288386Y131890D02*
D03*
X273819Y57284D02*
D03*
X277559Y72835D02*
D03*
Y65945D02*
D03*
X274606Y62992D02*
D03*
Y68898D02*
D03*
Y75787D02*
D03*
X309449Y127953D02*
D03*
X305118Y137795D02*
D03*
X297244Y130905D02*
D03*
X250984Y151575D02*
D03*
X253937Y154528D02*
D03*
X257874Y157480D02*
D03*
X245079Y213583D02*
D03*
X243110Y167323D02*
D03*
X161417Y146653D02*
D03*
X163386Y166339D02*
D03*
X305709Y34646D02*
D03*
X301772D02*
D03*
X213110Y138898D02*
D03*
X199409Y28740D02*
D03*
X215158Y28150D02*
D03*
X129921Y80709D02*
D03*
X38386Y78740D02*
D03*
X34646Y94095D02*
D03*
X246063Y51181D02*
D03*
X243701Y53543D02*
D03*
X75984Y69291D02*
D03*
X108268Y78740D02*
D03*
X135827Y109449D02*
D03*
X175197Y163356D02*
D03*
X251969Y190945D02*
D03*
X255906Y194882D02*
D03*
X271654D02*
D03*
X277559Y190945D02*
D03*
X75197Y111417D02*
D03*
X174409Y226772D02*
D03*
X145669Y231496D02*
D03*
X49213Y226772D02*
D03*
X139764Y159449D02*
D03*
X131890Y161417D02*
D03*
X102362Y151575D02*
D03*
X169291Y159449D02*
D03*
X172441Y183071D02*
D03*
X177165D02*
D03*
X275590Y222441D02*
D03*
X265748Y222441D02*
D03*
X194882Y242126D02*
D03*
X183858Y235827D02*
D03*
X93848Y232825D02*
D03*
X142126Y241732D02*
D03*
X222441Y180709D02*
D03*
X144095Y235827D02*
D03*
X66929Y264567D02*
D03*
X110630Y264961D02*
D03*
X150787Y243307D02*
D03*
X151181Y247638D02*
D03*
X107480Y235827D02*
D03*
X172244Y239173D02*
D03*
Y243110D02*
D03*
D96*
X309350Y90945D02*
D03*
X306791D02*
D03*
X304232D02*
D03*
X301673D02*
D03*
X299114D02*
D03*
X296555D02*
D03*
X293996D02*
D03*
X291437D02*
D03*
X288878D02*
D03*
X286319D02*
D03*
X283760D02*
D03*
X281201D02*
D03*
Y113779D02*
D03*
X283760D02*
D03*
X286319D02*
D03*
X288878D02*
D03*
X291437D02*
D03*
X293996D02*
D03*
X296555D02*
D03*
X299114D02*
D03*
X301673D02*
D03*
X304232D02*
D03*
X306791D02*
D03*
X309350D02*
D03*
D97*
X377769Y214232D02*
D03*
D98*
Y207028D02*
D03*
X370079Y210630D02*
D03*
D99*
X219685Y138898D02*
D03*
Y120945D02*
D03*
D100*
X195276Y129921D02*
D03*
D101*
X21654Y91201D02*
D03*
Y85965D02*
D03*
D102*
X115247Y78740D02*
D03*
X120973D02*
D03*
D103*
X121063Y98425D02*
D03*
X115157D02*
D03*
D104*
X66142Y62992D02*
D03*
X59842D02*
D03*
D105*
X79429Y82067D02*
D03*
X85925D02*
D03*
X79429Y92067D02*
D03*
X85925D02*
D03*
D106*
X49213Y86024D02*
D03*
Y71457D02*
D03*
D107*
Y104626D02*
D03*
Y96949D02*
D03*
D108*
X84646Y158268D02*
D03*
Y152756D02*
D03*
D109*
X15748Y205610D02*
D03*
Y199705D02*
D03*
Y215650D02*
D03*
Y221555D02*
D03*
M02*
